<svg width="41" height="36" viewBox="0 0 41 36" fill="none" xmlns="http://www.w3.org/2000/svg">
<path d="M27.6168 15.0167V7.20601H27.9778C28.6935 7.20601 29.2735 6.62422 29.2735 5.90632C29.2735 5.18842 28.6935 4.60663 27.9778 4.60663H22.6083C21.8929 4.60663 21.3126 5.18842 21.3126 5.90632C21.3126 6.62422 21.8929 7.20601 22.6083 7.20601H22.9693V15.0167C19.5005 16.0266 16.9625 19.2316 16.9625 23.0368C16.9625 27.6521 20.6921 31.3933 25.2929 31.3933C29.894 31.3933 33.6236 27.6521 33.6236 23.0368C33.6236 19.2316 31.0856 16.0266 27.6168 15.0167Z" fill="white"/>
<mask id="mask0_26_1794" style="mask-type:luminance" maskUnits="userSpaceOnUse" x="25" y="4" width="9" height="28">
<path d="M33.6242 4.60663H25.2125V31.3933H33.6242V4.60663Z" fill="white"/>
</mask>
<g mask="url(#mask0_26_1794)">
<path d="M33.6242 23.0382C33.6242 27.6535 29.8959 31.3933 25.2948 31.3933C25.2685 31.3933 25.2388 31.3933 25.2125 31.39C28.9342 31.3503 31.9379 27.627 31.9379 23.0382C31.9379 19.6128 29.7289 17.1684 27.2248 15.9768C26.7012 15.7277 26.3817 15.1829 26.3817 14.6014V7.20667H27.3335C27.9198 7.20667 28.3908 6.62521 28.3908 5.905C28.3908 5.18809 27.9198 4.60663 27.3335 4.60663H27.9096C28.6124 4.60663 29.2412 5.13622 29.2751 5.84024C29.3113 6.59019 28.7152 7.20667 27.9791 7.20667H27.6201V15.0167C31.0882 16.0276 33.6242 19.2323 33.6242 23.0382Z" fill="#DDD6D3"/>
</g>
<mask id="mask1_26_1794" style="mask-type:luminance" maskUnits="userSpaceOnUse" x="22" y="7" width="6" height="2">
<path d="M27.041 7.20587H22.9718V8.30271H27.041V7.20587Z" fill="white"/>
</mask>
<g mask="url(#mask1_26_1794)">
<path d="M27.041 7.20587H22.9718V8.30304H27.041V7.20587Z" fill="#DDD6D3"/>
</g>
<path d="M27.6168 15.0167V7.206H27.9778C28.6935 7.206 29.2735 6.62422 29.2735 5.90632C29.2735 5.18842 28.6935 4.60663 27.9778 4.60663H22.6083C21.8929 4.60663 21.3126 5.18842 21.3126 5.90632C21.3126 6.62422 21.8929 7.206 22.6083 7.206H22.9693V15.0167C19.5005 16.0266 16.9625 19.2316 16.9625 23.0368C16.9625 27.6521 20.6921 31.3933 25.2929 31.3933C29.894 31.3933 33.6236 27.6521 33.6236 23.0368C33.6236 19.2316 31.0856 16.0266 27.6168 15.0167Z" stroke="#222222" stroke-miterlimit="10" stroke-linecap="round" stroke-linejoin="round"/>
<path d="M16.0636 5.905C16.0636 6.62521 15.484 7.20667 14.7693 7.20667H14.407V29.0609C14.407 29.7051 14.1468 30.2898 13.7252 30.7094C13.3069 31.1323 12.724 31.3933 12.0817 31.3933C10.8005 31.3933 9.75975 30.3493 9.75975 29.0609V7.20667H9.39746C8.68276 7.20667 8.10309 6.62521 8.10309 5.905C8.10309 5.18809 8.68276 4.60663 9.39746 4.60663H14.7693C15.484 4.60663 16.0636 5.18809 16.0636 5.905Z" fill="white"/>
<path d="M16.0636 5.905C16.0636 6.62521 15.484 7.20667 14.7693 7.20667H14.407V29.0609C14.407 29.7051 14.1468 30.2898 13.7252 30.7094C13.3069 31.1323 12.724 31.3933 12.0817 31.3933C10.8005 31.3933 9.75975 30.3493 9.75975 29.0609V7.20667H9.39746C8.68276 7.20667 8.10309 6.62521 8.10309 5.905C8.10309 5.18809 8.68276 4.60663 9.39746 4.60663H14.7693C15.484 4.60663 16.0636 5.18809 16.0636 5.905Z" stroke="#222222" stroke-miterlimit="10" stroke-linecap="round" stroke-linejoin="round"/>
<path d="M9.75308 7.20587H11.718" stroke="#222222" stroke-miterlimit="10" stroke-linecap="round" stroke-linejoin="round"/>
<path d="M22.9718 7.20587H25.2954" stroke="#222222" stroke-miterlimit="10" stroke-linecap="round" stroke-linejoin="round"/>
<path d="M14.4003 15.2977V29.061C14.4003 29.7052 14.1401 30.29 13.7185 30.7096C13.3003 31.1325 12.7173 31.3934 12.075 31.3934C10.7938 31.3934 9.75308 30.3495 9.75308 29.061V15.2977H14.4003Z" fill="#95B7FF"/>
<path d="M14.4003 15.2977V29.061C14.4003 29.7052 14.1401 30.29 13.7185 30.7096C13.3003 31.1325 12.7173 31.3934 12.075 31.3934C10.7938 31.3934 9.75308 30.3495 9.75308 29.061V15.2977H14.4003Z" stroke="#222222" stroke-miterlimit="10" stroke-linecap="round" stroke-linejoin="round"/>
<path d="M24.608 20.0677C25.6175 21.0803 25.8576 22.4814 25.1442 23.1966C24.4312 23.9122 23.0347 23.6714 22.0249 22.6585C21.0154 21.6459 20.7753 20.2451 21.4884 19.5295C22.2017 18.8142 23.5985 19.0551 24.608 20.0677Z" fill="#FF5F5F"/>
<path d="M24.608 20.0677C25.6175 21.0803 25.8576 22.4814 25.1442 23.1966C24.4312 23.9122 23.0347 23.6714 22.0249 22.6585C21.0154 21.6459 20.7753 20.2451 21.4884 19.5295C22.2017 18.8142 23.5985 19.0551 24.608 20.0677Z" stroke="#222222" stroke-miterlimit="10" stroke-linecap="round" stroke-linejoin="round"/>
<path d="M29.218 27.2798C29.0698 26.6769 28.4622 26.0674 27.8611 25.9187C27.26 25.77 26.6523 25.1605 26.5038 24.5576C26.3556 23.9546 25.7479 23.3448 25.1469 23.1961" fill="white"/>
<path d="M29.218 27.2798C29.0698 26.6769 28.4622 26.0674 27.8611 25.9187C27.26 25.77 26.6523 25.1605 26.5038 24.5576C26.3556 23.9546 25.7479 23.3448 25.1469 23.1961" stroke="#222222" stroke-miterlimit="10" stroke-linecap="round" stroke-linejoin="round"/>
</svg>
