<svg width="41" height="36" viewBox="0 0 41 36" fill="none" xmlns="http://www.w3.org/2000/svg">
<g clip-path="url(#clip0_26_1800)">
<path d="M11.8676 21.938C11.8676 20.5054 13.0498 19.3435 14.508 19.3435C15.9665 19.3435 17.1487 20.5054 17.1487 21.938C17.1487 23.3709 15.9665 24.5324 14.508 24.5324C13.0498 24.5324 11.8676 23.3709 11.8676 21.938Z" fill="white"/>
<path d="M11.8676 21.938C11.8676 20.5054 13.0498 19.3435 14.508 19.3435C15.9665 19.3435 17.1487 20.5054 17.1487 21.938C17.1487 23.3709 15.9665 24.5324 14.508 24.5324C13.0498 24.5324 11.8676 23.3709 11.8676 21.938Z" stroke="#222222" stroke-miterlimit="10" stroke-linecap="round" stroke-linejoin="round"/>
<path d="M32.2881 7.48042H18.9945C18.4724 7.48042 18.0492 7.06464 18.0492 6.55174V4.98945C18.0492 4.47694 18.4724 4.06152 18.9945 4.06152H32.2881C32.8101 4.06152 33.2333 4.47694 33.2333 4.98945V6.55174C33.2333 7.06464 32.8101 7.48042 32.2881 7.48042Z" fill="#60C2EC"/>
<path d="M32.2881 7.48042H18.9945C18.4724 7.48042 18.0492 7.06464 18.0492 6.55174V4.98945C18.0492 4.47694 18.4724 4.06152 18.9945 4.06152H32.2881C32.8101 4.06152 33.2333 4.47694 33.2333 4.98945V6.55174C33.2333 7.06464 32.8101 7.48042 32.2881 7.48042Z" stroke="#222222" stroke-miterlimit="10" stroke-linecap="round" stroke-linejoin="round"/>
<path d="M31.6 7.48071H19.6703V10.2525H31.6V7.48071Z" fill="white"/>
<mask id="mask0_26_1800" style="mask-type:luminance" maskUnits="userSpaceOnUse" x="28" y="7" width="4" height="4">
<path d="M31.6057 7.48071H28.225V10.2532H31.6057V7.48071Z" fill="white"/>
</mask>
<g mask="url(#mask0_26_1800)">
<path d="M31.6057 7.48071H28.225V10.2532H31.6057V7.48071Z" fill="#DDD6D3"/>
</g>
<path d="M31.6 7.48071H19.6703V10.2525H31.6V7.48071Z" stroke="#222222" stroke-miterlimit="10" stroke-linecap="round" stroke-linejoin="round"/>
<path d="M32.5249 32.9375H18.7554C17.6483 32.9375 16.7504 32.0553 16.7504 30.9673V12.2228C16.7504 11.1351 17.6483 10.2529 18.7554 10.2529H32.5249C33.6323 10.2529 34.5299 11.1351 34.5299 12.2228V30.9677C34.5299 32.0557 33.6323 32.9375 32.5249 32.9375Z" fill="white"/>
<mask id="mask1_26_1800" style="mask-type:luminance" maskUnits="userSpaceOnUse" x="29" y="10" width="6" height="23">
<path d="M34.5288 10.2542H29.4457V32.9368H34.5288V10.2542Z" fill="white"/>
</mask>
<g mask="url(#mask1_26_1800)">
<path d="M34.5288 12.2225V30.9685C34.5288 32.0558 33.632 32.9368 32.5253 32.9368H29.4457C30.5524 32.9368 31.4492 32.0558 31.4492 30.9685V12.2225C31.4492 11.1352 30.5524 10.2542 29.4457 10.2542H32.5253C33.632 10.2542 34.5288 11.1352 34.5288 12.2225Z" fill="#DDD6D3"/>
</g>
<path d="M32.5249 32.9375H18.7554C17.6483 32.9375 16.7504 32.0553 16.7504 30.9673V12.2228C16.7504 11.1351 17.6483 10.2529 18.7554 10.2529H32.5249C33.6323 10.2529 34.5299 11.1351 34.5299 12.2228V30.9677C34.5299 32.0557 33.6323 32.9375 32.5249 32.9375Z" stroke="#222222" stroke-miterlimit="10" stroke-linecap="round" stroke-linejoin="round"/>
<path d="M31.2572 21.5957C31.2572 24.6465 28.74 27.1194 25.6348 27.1194C22.5292 27.1194 20.0121 24.6465 20.0121 21.5957C20.0121 18.545 22.5292 16.072 25.6348 16.072C28.74 16.0724 31.2572 18.5454 31.2572 21.5957Z" fill="#BBE0F0"/>
<path d="M31.2572 21.5957C31.2572 24.6464 28.74 27.1194 25.6348 27.1194C22.5292 27.1194 20.0121 24.6464 20.0121 21.5957C20.0121 18.545 22.5292 16.072 25.6348 16.072C28.74 16.0724 31.2572 18.5454 31.2572 21.5957Z" stroke="#222222" stroke-miterlimit="10" stroke-linecap="round" stroke-linejoin="round"/>
<path d="M28.6584 20.3551H26.8964V18.6245H24.3717V20.3551H22.6097V22.836H24.3717V24.5666H26.8964V22.836H28.6584V20.3551Z" fill="white"/>
<path d="M28.6584 20.3551H26.8964V18.6245H24.3717V20.3551H22.6097V22.836H24.3717V24.5666H26.8964V22.836H28.6584V20.3551Z" stroke="#222222" stroke-miterlimit="10" stroke-linecap="round" stroke-linejoin="round"/>
<path d="M10.1195 30.9035C10.1195 29.781 11.0457 28.8711 12.1886 28.8711C13.3312 28.8711 14.2574 29.781 14.2574 30.9035C14.2574 32.026 13.3312 32.9364 12.1886 32.9364C11.0457 32.9364 10.1195 32.026 10.1195 30.9035Z" fill="white"/>
<path d="M10.1195 30.9035C10.1195 29.781 11.0457 28.8711 12.1886 28.8711C13.3312 28.8711 14.2574 29.781 14.2574 30.9035C14.2574 32.026 13.3312 32.9364 12.1886 32.9364C11.0457 32.9364 10.1195 32.026 10.1195 30.9035Z" stroke="#222222" stroke-miterlimit="10" stroke-linecap="round" stroke-linejoin="round"/>
<path d="M11.7894 30.9036H12.5935" stroke="#222222" stroke-miterlimit="10" stroke-linecap="round" stroke-linejoin="round"/>
<path d="M6.28206 26.6711C5.47418 25.8774 5.47418 24.5903 6.28206 23.7962C7.09032 23.0025 8.40003 23.0025 9.20791 23.7962C10.0162 24.5903 10.0162 25.8774 9.20791 26.6711C8.40003 27.4648 7.09032 27.4648 6.28206 26.6711Z" fill="white"/>
<path d="M6.28206 26.6711C5.47418 25.8774 5.47418 24.5903 6.28206 23.7962C7.09032 23.0025 8.40003 23.0025 9.20791 23.7962C10.0162 24.5903 10.0162 25.8774 9.20791 26.6711C8.40003 27.4648 7.09032 27.4648 6.28206 26.6711Z" stroke="#222222" stroke-miterlimit="10" stroke-linecap="round" stroke-linejoin="round"/>
<path d="M7.45349 25.5125L8.0221 24.9539" stroke="#222222" stroke-miterlimit="10" stroke-linecap="round" stroke-linejoin="round"/>
<path d="M13.7914 21.2368L15.2198 22.6398" stroke="#222222" stroke-miterlimit="10" stroke-linecap="round" stroke-linejoin="round"/>
</g>
<defs>
<clipPath id="clip0_26_1800">
<rect width="30" height="30" fill="white" transform="translate(5.09998 3.5)"/>
</clipPath>
</defs>
</svg>
