<svg width="41" height="36" viewBox="0 0 41 36" fill="none" xmlns="http://www.w3.org/2000/svg">
<g clip-path="url(#clip0_26_1782)">
<g clip-path="url(#clip1_26_1782)">
<path d="M11.6224 35.2655V29.1196L9.4375 26.0023V11.8629C9.4375 11.1747 9.9415 10.5624 10.624 10.4954C11.4088 10.4218 12.069 11.0371 12.069 11.8055V8.41076C12.069 7.64242 12.7326 7.02745 13.5173 7.10413C14.1999 7.16771 14.7039 7.78307 14.7039 8.46817V9.54246C14.7039 8.77412 15.3644 8.15876 16.1488 8.23236C16.8348 8.2994 17.3388 8.91091 17.3388 9.59987V13.8804C17.3388 13.109 17.999 12.4937 18.7837 12.5707C19.4697 12.6343 19.9703 13.2493 19.9703 13.9348V24.3096C19.9703 25.4255 19.747 26.5314 19.3132 27.561C18.8794 28.5906 18.653 29.6964 18.653 30.812V35.2655" fill="#FFE1D7"/>
<path d="M11.6224 35.2655V29.1196L9.4375 26.0023V11.8629C9.4375 11.1747 9.9415 10.5624 10.624 10.4954C11.4088 10.4218 12.069 11.0371 12.069 11.8055V8.41076C12.069 7.64242 12.7326 7.02745 13.5173 7.10413C14.1999 7.16771 14.7039 7.78307 14.7039 8.46817V9.54246C14.7039 8.77412 15.3644 8.15876 16.1488 8.23236C16.8348 8.2994 17.3388 8.91091 17.3388 9.59987V13.8804C17.3388 13.109 17.999 12.4937 18.7837 12.5707C19.4697 12.6343 19.9703 13.2493 19.9703 13.9348V24.3096C19.9703 25.4255 19.747 26.5314 19.3132 27.561C18.8794 28.5906 18.653 29.6964 18.653 30.812V35.2655" stroke="#333333" stroke-miterlimit="10" stroke-linecap="round" stroke-linejoin="round"/>
<path d="M12.0703 11.8047V17.5395" stroke="#333333" stroke-miterlimit="10" stroke-linecap="round" stroke-linejoin="round"/>
<path d="M14.7031 9.54297V17.54" stroke="#333333" stroke-width="3" stroke-miterlimit="10" stroke-linecap="round" stroke-linejoin="round"/>
<path d="M17.3359 13.8789V17.5399" stroke="#333333" stroke-width="3" stroke-miterlimit="10" stroke-linecap="round" stroke-linejoin="round"/>
<path d="M11.6205 29.1188L5.76716 20.7615L4.84823 19.448C4.66661 19.1898 4.65697 18.8838 4.76571 18.6353C4.88988 18.3486 5.17061 18.1348 5.53116 18.1348C6.07681 18.1348 6.60935 18.2496 7.09754 18.4634C7.58226 18.6765 8.02881 18.9925 8.39553 19.3909L10.3699 21.5356C11.3525 21.5356 12.2459 21.9341 12.8868 22.5779C13.5312 23.2187 13.9299 24.1115 13.9299 25.0933V26.8146" fill="#FFE1D7"/>
<path d="M11.6205 29.1188L5.76716 20.7615L4.84823 19.448C4.66661 19.1898 4.65697 18.8838 4.76571 18.6353C4.88988 18.3486 5.17061 18.1348 5.53116 18.1348C6.07681 18.1348 6.60935 18.2496 7.09754 18.4634C7.58226 18.6765 8.02881 18.9925 8.39553 19.3909L10.3699 21.5356C11.3525 21.5356 12.2459 21.9341 12.8868 22.5779C13.5312 23.2187 13.9299 24.1115 13.9299 25.0933V26.8146" stroke="#333333" stroke-miterlimit="10" stroke-linecap="round" stroke-linejoin="round"/>
<path d="M30.8244 35.2655V29.1196L33.0097 26.0023V11.8629C33.0097 11.1747 32.5053 10.5624 31.8228 10.4954C31.0381 10.4218 30.3779 11.0371 30.3779 11.8055V8.41076C30.3779 7.64242 29.7142 7.02745 28.9295 7.10413C28.2469 7.16771 27.7429 7.78307 27.7429 8.46817V9.54246C27.7429 8.77412 27.0828 8.15876 26.298 8.23236C25.612 8.2994 25.108 8.91091 25.108 9.59987V13.8804C25.108 13.109 24.4478 12.4937 23.6631 12.5707C22.9771 12.6343 22.4766 13.2493 22.4766 13.9348V24.3096C22.4766 25.4255 22.6998 26.5314 23.1337 27.561C23.5675 28.5906 23.7938 29.6964 23.7938 30.812V35.2655" fill="#FFE1D7"/>
<path d="M30.8244 35.2655V29.1196L33.0097 26.0023V11.8629C33.0097 11.1747 32.5053 10.5624 31.8228 10.4954C31.0381 10.4218 30.3779 11.0371 30.3779 11.8055V8.41076C30.3779 7.64242 29.7142 7.02745 28.9295 7.10413C28.2469 7.16771 27.7429 7.78307 27.7429 8.46817V9.54246C27.7429 8.77412 27.0828 8.15876 26.298 8.23236C25.612 8.2994 25.108 8.91091 25.108 9.59987V13.8804C25.108 13.109 24.4478 12.4937 23.6631 12.5707C22.9771 12.6343 22.4766 13.2493 22.4766 13.9348V24.3096C22.4766 25.4255 22.6998 26.5314 23.1337 27.561C23.5675 28.5906 23.7938 29.6964 23.7938 30.812V35.2655" stroke="#333333" stroke-miterlimit="10" stroke-linecap="round" stroke-linejoin="round"/>
<path d="M30.375 11.8047V17.5395" stroke="#333333" stroke-miterlimit="10" stroke-linecap="round" stroke-linejoin="round"/>
<path d="M27.7422 9.54297V17.54" stroke="#333333" stroke-width="3" stroke-miterlimit="10" stroke-linecap="round" stroke-linejoin="round"/>
<path d="M25.1094 13.8789V17.5399" stroke="#333333" stroke-width="3" stroke-miterlimit="10" stroke-linecap="round" stroke-linejoin="round"/>
<path d="M30.8251 29.1188L36.6784 20.7615L37.5973 19.448C37.7789 19.1898 37.7886 18.8838 37.6802 18.6353C37.5557 18.3486 37.2749 18.1348 36.9148 18.1348C36.3691 18.1348 35.8366 18.2496 35.3484 18.4634C34.8637 18.6765 34.4167 18.9925 34.05 19.3909L32.0757 21.5356C31.0931 21.5356 30.1996 21.9341 29.5587 22.5779C28.9144 23.2187 28.5156 24.1115 28.5156 25.0933V26.8146" fill="#FFE1D7"/>
<path d="M30.8251 29.1188L36.6784 20.7615L37.5973 19.448C37.7789 19.1898 37.7886 18.8838 37.6802 18.6353C37.5557 18.3486 37.2749 18.1348 36.9148 18.1348C36.3691 18.1348 35.8366 18.2496 35.3484 18.4634C34.8637 18.6765 34.4167 18.9925 34.05 19.3909L32.0757 21.5356C31.0931 21.5356 30.1996 21.9341 29.5587 22.5779C28.9144 23.2187 28.5156 24.1115 28.5156 25.0933V26.8146" stroke="#333333" stroke-miterlimit="10" stroke-linecap="round" stroke-linejoin="round"/>
<path d="M26.2382 5.32227C23.4671 5.32227 21.2213 7.56678 21.2213 10.3353C21.2213 7.56678 18.9751 5.32227 16.2044 5.32227C13.4333 5.32227 11.1875 7.56678 11.1875 10.3353C11.1875 14.2148 12.9236 17.8908 15.9206 20.3568L21.2213 24.7183L26.5216 20.3568C29.5186 17.8908 31.2551 14.2148 31.2551 10.3353C31.2551 7.56678 29.0088 5.32227 26.2382 5.32227Z" fill="#FF5F5F"/>
<path d="M26.2382 5.32227C23.4671 5.32227 21.2213 7.56678 21.2213 10.3353C21.2213 7.56678 18.9751 5.32227 16.2044 5.32227C13.4333 5.32227 11.1875 7.56678 11.1875 10.3353C11.1875 14.2148 12.9236 17.8908 15.9206 20.3568L21.2213 24.7183L26.5216 20.3568C29.5186 17.8908 31.2551 14.2148 31.2551 10.3353C31.2551 7.56678 29.0088 5.32227 26.2382 5.32227Z" stroke="#333333" stroke-miterlimit="10" stroke-linecap="round" stroke-linejoin="round"/>
<path d="M15.9141 7.26153C16.0095 7.25267 16.1064 7.24805 16.2041 7.24805" stroke="white" stroke-miterlimit="10" stroke-linecap="round" stroke-linejoin="round"/>
<path d="M13.1172 10.3351C13.1172 9.40533 13.5306 8.57033 14.1838 8.00391" stroke="white" stroke-miterlimit="10" stroke-linecap="round" stroke-linejoin="round"/>
</g>
</g>
<defs>
<clipPath id="clip0_26_1782">
<rect width="40" height="35" fill="white" transform="translate(0.875 0.5)"/>
</clipPath>
<clipPath id="clip1_26_1782">
<rect width="36.0741" height="33.5862" fill="white" transform="translate(2.875 3.5)"/>
</clipPath>
</defs>
</svg>
