<svg width="43" height="41" viewBox="0 0 43 41" fill="none" xmlns="http://www.w3.org/2000/svg">
<g clip-path="url(#clip0_26_1816)">
<path d="M19.1139 7.99197H42.7022V37.2572H19.1139V7.99197Z" fill="white" stroke="#251E1C" stroke-width="0.7125" stroke-linecap="round" stroke-linejoin="round"/>
<path d="M5.13905 32.5734V40.2259C5.13905 40.2952 24.9357 40.2259 24.9357 40.2259V32.0258C24.9357 30.1959 26.4191 28.7125 28.249 28.7125L15.2453 28.7541L8.9445 28.7679C6.84422 28.7679 5.13905 30.4801 5.13905 32.5734Z" fill="white"/>
<path d="M28.2526 28.7047C26.4226 28.7047 24.9393 30.188 24.9393 32.018V38.8803H35.0386C33.2087 38.8803 31.7253 37.39 31.7253 35.5531V32.018C31.7253 30.188 30.235 28.7047 28.3982 28.7047H28.2526Z" fill="#A0C7EA"/>
<path d="M15.2509 28.7399L28.2546 28.7052H28.4001C30.2301 28.7052 31.7273 30.1886 31.7273 32.0185V35.5536C31.7273 37.3836 33.2107 38.8808 35.0406 38.8808C35.9556 38.8808 36.7874 38.5065 37.3904 37.9034C37.9935 37.3004 38.3678 36.4686 38.3678 35.5536V13.1438H15.2509V28.7399Z" fill="white"/>
<path d="M28.2546 28.7052L15.2509 28.7468L8.95009 28.7607C6.84982 28.7607 5.14465 30.4728 5.14465 32.5661V40.2186C5.14465 40.2879 24.9413 40.2186 24.9413 40.2186V32.0185C24.9413 30.1886 26.4246 28.7052 28.2546 28.7052ZM28.2546 28.7052H28.4001C30.2301 28.7052 31.7273 30.1886 31.7273 32.0185V35.5536C31.7273 37.3836 33.2107 38.8808 35.0406 38.8808C35.9556 38.8808 36.7874 38.5065 37.3904 37.9034C37.9935 37.3004 38.3678 36.4686 38.3678 35.5536V13.1438H15.2509V28.7399" stroke="#251E1C" stroke-width="0.7125" stroke-linecap="round" stroke-linejoin="round"/>
<path d="M35.0386 38.8812H24.9324" stroke="#251E1C" stroke-width="0.7125" stroke-linecap="round" stroke-linejoin="round"/>
<path d="M34.5076 16.8026H21.3029" stroke="#251E1C" stroke-width="0.7125" stroke-linecap="round" stroke-linejoin="round"/>
<path d="M34.5078 20.1151H21.3031" stroke="#251E1C" stroke-width="0.7125" stroke-linecap="round" stroke-linejoin="round"/>
<path d="M34.5076 23.428H21.3029" stroke="#251E1C" stroke-width="0.7125" stroke-linecap="round" stroke-linejoin="round"/>
</g>
<path d="M6.46597 13.7793C5.54553 13.7793 5.12521 14.1808 4.939 14.5288C4.87515 14.6465 4.69426 14.6465 4.63041 14.5288C4.44419 14.1808 4.02388 13.7793 3.10344 13.7793C1.45941 13.7793 0.804995 14.9195 1.04974 16.5309C1.31044 18.2706 3.8483 20.1121 4.58253 20.6153C4.7049 20.6956 4.85919 20.6956 4.98156 20.6153C5.71579 20.1121 8.25365 18.2706 8.51435 16.5309C8.75909 14.9195 8.10468 13.774 6.46597 13.774V13.7793Z" fill="white" stroke="#251E1C" stroke-width="0.5" stroke-linecap="round" stroke-linejoin="round"/>
<path d="M12.1435 1C10.9747 1 10.441 1.5067 10.2045 1.94584C10.1234 2.09447 9.89374 2.09447 9.81266 1.94584C9.57621 1.5067 9.04248 1 7.8737 1C5.79286 1 4.96187 2.43902 5.27265 4.47933C5.60369 6.67502 8.82629 8.99908 9.75862 9.63414C9.914 9.73549 10.1099 9.73549 10.2653 9.63414C11.1976 8.99908 14.4202 6.67502 14.7513 4.47933C15.0621 2.44578 14.2311 1 12.1502 1H12.1435Z" fill="#EDA4BF" stroke="#251E1C" stroke-width="0.506369" stroke-linecap="round" stroke-linejoin="round"/>
<defs>
<clipPath id="clip0_26_1816">
<rect width="38.1238" height="33.2717" fill="white" transform="matrix(-1 0 0 1 43 7.72833)"/>
</clipPath>
</defs>
</svg>
