<svg width="41" height="36" viewBox="0 0 41 36" fill="none" xmlns="http://www.w3.org/2000/svg">
<g clip-path="url(#clip0_26_1773)">
<path d="M10.9783 32.3884C8.76015 32.3884 6.87946 30.8282 6.50631 28.6783L3.81166 13.1549C3.58627 11.8559 3.95237 10.5341 4.81613 9.5273C5.68031 8.52092 6.94379 7.94345 8.28364 7.94345H9.23623C10.3337 7.94345 11.3531 7.50801 11.9628 6.77832C13.5953 4.82555 16.7055 3.61267 20.0804 3.61267C23.4554 3.61267 26.5655 4.82555 28.198 6.77832C28.8077 7.50801 29.8271 7.94345 30.9246 7.94345H31.8772C33.217 7.94345 34.4805 8.52092 35.3447 9.5273C36.2084 10.5341 36.5745 11.8559 36.3492 13.1549L33.6545 28.6783C33.2814 30.8282 31.4007 32.3884 29.1825 32.3884H10.9783Z" fill="#FFC960"/>
<path d="M10.9783 32.3884C8.76015 32.3884 6.87946 30.8282 6.50631 28.6783L3.81166 13.1549C3.58627 11.8559 3.95237 10.5341 4.81613 9.5273C5.68031 8.52092 6.94379 7.94345 8.28364 7.94345H9.23623C10.3337 7.94345 11.3531 7.50801 11.9628 6.77832C13.5953 4.82555 16.7055 3.61267 20.0804 3.61267C23.4554 3.61267 26.5655 4.82555 28.198 6.77832C28.8077 7.50801 29.8271 7.94345 30.9246 7.94345H31.8772C33.217 7.94345 34.4805 8.52092 35.3447 9.5273C36.2084 10.5341 36.5745 11.8559 36.3491 13.1549L33.6545 28.6783C33.2814 30.8282 31.4007 32.3884 29.1825 32.3884H10.9783Z" stroke="#222222" stroke-miterlimit="10" stroke-linecap="round" stroke-linejoin="round"/>
<path d="M31.8772 10.0669H30.9246C29.2448 10.0669 27.5953 9.40247 26.5286 8.12634C25.344 6.70859 22.9013 5.73608 20.0805 5.73608C17.2596 5.73608 14.8169 6.70859 13.6319 8.12634C12.5656 9.40247 10.9161 10.0669 9.23628 10.0669H8.28369C6.81143 10.0669 5.69364 11.3691 5.94144 12.7958L8.63609 28.32C8.83076 29.4423 9.82029 30.263 10.9783 30.263H29.1826C30.3406 30.263 31.3302 29.4423 31.5248 28.32L34.2195 12.7958C34.4669 11.3691 33.3491 10.0669 31.8772 10.0669Z" fill="white"/>
<path d="M31.8772 10.0669H30.9246C29.2448 10.0669 27.5953 9.40247 26.5286 8.12634C25.344 6.70859 22.9013 5.73608 20.0805 5.73608C17.2596 5.73608 14.8169 6.70859 13.6319 8.12634C12.5656 9.40247 10.9161 10.0669 9.23628 10.0669H8.28369C6.81143 10.0669 5.69364 11.3691 5.94144 12.7958L8.63609 28.32C8.83076 29.4423 9.82029 30.263 10.9783 30.263H29.1826C30.3406 30.263 31.3302 29.4423 31.5248 28.32L34.2195 12.7958C34.4669 11.3691 33.3491 10.0669 31.8772 10.0669Z" stroke="#222222" stroke-miterlimit="10" stroke-linecap="round" stroke-linejoin="round"/>
<path d="M26.5423 13.0303H13.6107C14.4496 12.319 15.1988 11.402 15.8181 10.2862C16.373 9.30189 17.9391 8.23267 20.0784 8.23267C22.2139 8.23267 23.7837 9.30189 24.3349 10.2862C24.9542 11.402 25.7034 12.319 26.5423 13.0303Z" fill="white"/>
<path d="M26.5423 13.0303H13.6107C14.4496 12.319 15.1988 11.402 15.8181 10.2862C16.373 9.30189 17.9391 8.23267 20.0784 8.23267C22.2139 8.23267 23.7837 9.30189 24.3349 10.2862C24.9542 11.402 25.7034 12.319 26.5423 13.0303Z" stroke="#222222" stroke-miterlimit="10" stroke-linecap="round" stroke-linejoin="round"/>
<path d="M20.0815 8.23267V9.62593" stroke="#222222" stroke-miterlimit="10" stroke-linecap="round" stroke-linejoin="round"/>
<path d="M17.2894 8.92944L18.0191 10.2419" stroke="#222222" stroke-miterlimit="10" stroke-linecap="round" stroke-linejoin="round"/>
<path d="M15.3737 11.0299L16.6118 11.4792" stroke="#222222" stroke-miterlimit="10" stroke-linecap="round" stroke-linejoin="round"/>
<path d="M22.8798 8.92944L22.1501 10.2419" stroke="#222222" stroke-miterlimit="10" stroke-linecap="round" stroke-linejoin="round"/>
<path d="M24.795 11.0299L23.5564 11.4792" stroke="#222222" stroke-miterlimit="10" stroke-linecap="round" stroke-linejoin="round"/>
<path d="M21.0428 13.0295H19.1339C19.1629 11.8505 19.5771 10.9127 20.0885 10.9127C20.5999 10.9127 21.0141 11.8505 21.0428 13.0295Z" fill="#FF5F5F"/>
<path d="M21.0428 13.0295H19.1339C19.1629 11.8505 19.5771 10.9127 20.0885 10.9127C20.5999 10.9127 21.0141 11.8505 21.0428 13.0295Z" stroke="#222222" stroke-miterlimit="10" stroke-linecap="round" stroke-linejoin="round"/>
<path d="M15.3467 15.8961C15.8647 15.7917 16.6479 15.8333 17.1398 16.3463C17.6312 16.8584 17.906 17.6946 17.8475 18.5035C17.7948 19.2344 17.4963 19.8915 17.239 20.5469C16.9812 21.2023 16.7534 21.9303 16.8563 22.6527C16.9418 23.2514 17.244 23.7623 17.3868 24.3434C17.5719 25.0964 17.4598 25.9722 17.0593 26.5721C16.6587 27.172 15.9701 27.4487 15.3874 27.1932C14.9208 26.9884 14.5701 26.4962 14.2675 25.9971C13.5428 24.8021 12.9696 23.4579 12.5761 22.0315C12.3939 21.37 12.249 20.6836 12.2274 19.9829C12.2063 19.2817 12.3146 18.5602 12.6076 17.9677C13.0322 17.1078 13.5411 16.2136 15.3467 15.8961Z" fill="#DDD6D3"/>
<path d="M15.3467 15.8961C15.8647 15.7917 16.6479 15.8333 17.1398 16.3463C17.6312 16.8584 17.906 17.6946 17.8475 18.5035C17.7948 19.2344 17.4963 19.8915 17.239 20.5469C16.9812 21.2023 16.7534 21.9303 16.8563 22.6527C16.9418 23.2514 17.244 23.7623 17.3868 24.3434C17.5719 25.0964 17.4598 25.9722 17.0593 26.5721C16.6587 27.172 15.9701 27.4487 15.3874 27.1932C14.9208 26.9884 14.5701 26.4962 14.2675 25.9971C13.5428 24.8021 12.9696 23.4579 12.5761 22.0315C12.3939 21.37 12.249 20.6836 12.2274 19.9829C12.2063 19.2817 12.3146 18.5602 12.6076 17.9677C13.0322 17.1078 13.5411 16.2136 15.3467 15.8961Z" stroke="#222222" stroke-miterlimit="10" stroke-linecap="round" stroke-linejoin="round"/>
<path d="M24.8218 15.8961C24.3034 15.7917 23.5205 15.8333 23.0287 16.3463C22.5368 16.8584 22.2624 17.6946 22.321 18.5035C22.3733 19.2344 22.6717 19.8915 22.9295 20.5469C23.1872 21.2023 23.4147 21.9303 23.3122 22.6527C23.2267 23.2514 22.9241 23.7623 22.7813 24.3434C22.5966 25.0964 22.7082 25.9722 23.1092 26.5721C23.5093 27.172 24.1983 27.4487 24.7811 27.1932C25.2476 26.9884 25.5984 26.4962 25.901 25.9971C26.6253 24.8021 27.1989 23.4579 27.592 22.0315C27.7746 21.37 27.9195 20.6836 27.941 19.9829C27.9622 19.2817 27.8535 18.5602 27.5608 17.9677C27.1358 17.1078 26.6269 16.2136 24.8218 15.8961Z" fill="#DDD6D3"/>
<path d="M24.8218 15.8961C24.3034 15.7917 23.5205 15.8333 23.0287 16.3463C22.5368 16.8584 22.2624 17.6946 22.321 18.5035C22.3733 19.2344 22.6717 19.8915 22.9295 20.5469C23.1872 21.2023 23.4147 21.9303 23.3122 22.6527C23.2267 23.2514 22.9241 23.7623 22.7813 24.3434C22.5966 25.0964 22.7082 25.9722 23.1092 26.5721C23.5093 27.172 24.1983 27.4487 24.7811 27.1932C25.2476 26.9884 25.5984 26.4962 25.901 25.9971C26.6253 24.8021 27.1989 23.4579 27.592 22.0315C27.7746 21.37 27.9195 20.6836 27.941 19.9829C27.9622 19.2817 27.8535 18.5602 27.5608 17.9677C27.1358 17.1078 26.6269 16.2136 24.8218 15.8961Z" stroke="#222222" stroke-miterlimit="10" stroke-linecap="round" stroke-linejoin="round"/>
</g>
<defs>
<clipPath id="clip0_26_1773">
<rect width="33.913" height="30" fill="white" transform="translate(3.125 3)"/>
</clipPath>
</defs>
</svg>
