<svg width="30" height="30" viewBox="0 0 30 30" fill="none" xmlns="http://www.w3.org/2000/svg">
<g clip-path="url(#clip0_54_34)">
<path d="M25.1354 2.27148H10.0002V21.7715H25.1354V2.27148Z" fill="#FF5F5F"/>
<path d="M20.538 9.04297H13.7812V13.918H20.538V9.04297Z" fill="#EDF2F8"/>
<path d="M29.1854 10.5313C29.1854 7.57385 26.6287 5.2176 23.6124 5.55343C21.3341 5.80802 19.4908 7.64427 19.2233 9.92468C19.0016 11.8124 19.8287 13.5186 21.1962 14.5451C21.6422 14.8782 21.8881 15.4172 21.8881 15.9751V17.1695H26.4827V15.9751C26.4827 15.3928 26.7719 14.8566 27.2314 14.5018C28.4178 13.5863 29.1854 12.1509 29.1854 10.5341V10.5313Z" fill="#FFAA4C"/>
<path d="M25.8827 14.4999C27.0692 13.5845 27.8368 12.1491 27.8368 10.5322C27.8368 7.99451 25.9557 5.90097 23.5151 5.57056C21.2827 5.86577 19.4881 7.67764 19.2233 9.92556C19.0016 11.8133 19.8287 13.5195 21.1962 14.546C21.6422 14.8791 21.8881 15.4181 21.8881 15.976V17.1703H25.1314V15.976C25.1314 15.3937 25.4206 14.8574 25.88 14.5026L25.8827 14.4999Z" fill="#FFC960"/>
<path d="M26.2103 17.168H22.1562V19.3346L22.6968 19.2615V21.2305L25.6698 20.9596V18.8661L26.2103 18.793V17.168Z" fill="#C5D5F0"/>
<path d="M22.6968 19.2615V21.133L24.5887 20.9596V18.8661L25.1292 18.793V17.168H22.1562V19.3346L22.6968 19.2615Z" fill="#DCE6F6"/>
<path d="M3.24177 17.709H0.539062V26.3757H3.24177V17.709Z" fill="#74AAFF"/>
<path d="M3.24177 25.0215H0.539062V26.3757H3.24177V25.0215Z" fill="#4F88FF"/>
<path d="M3.51562 18.793V25.5638L15.2724 27.2809C16.0724 27.3973 16.8886 27.3215 17.6508 27.0561L29.0859 23.0857C29.4535 22.9557 29.6616 22.5684 29.567 22.1892L29.5156 21.9807C29.3318 21.2494 28.6264 20.7755 27.8805 20.8892L20.0048 22.043L19.8994 20.8784C19.8075 19.8519 18.9454 19.0638 17.9156 19.0638H14.5913C13.6021 19.0638 12.6264 18.8417 11.7372 18.4084C10.621 17.8613 8.9859 17.168 7.84265 17.168C5.95076 17.168 3.51833 18.793 3.51833 18.793H3.51562Z" fill="#FF9F91"/>
<path d="M17.6508 25.7019L29.0859 21.7315C29.1832 21.6963 29.267 21.6448 29.34 21.5771C29.0427 21.0842 28.4751 20.7971 27.8778 20.8892L20.0021 22.043L19.8967 20.8784C19.8048 19.8519 18.9427 19.0638 17.9129 19.0638H14.5886C13.5994 19.0638 12.6237 18.8417 11.7345 18.4084C10.6183 17.8613 8.98319 17.168 7.83995 17.168C5.94806 17.168 3.51562 18.793 3.51562 18.793V24.2096L15.2724 25.9267C16.0724 26.0432 16.8886 25.9673 17.6508 25.7019Z" fill="#FFBFB4"/>
<path d="M4.59671 18.5215H3.51562V25.5632H4.59671V18.5215Z" fill="#FF9F91"/>
<path d="M8.90992 2.27148H9.99641V17.4382H7.02344V4.1619C7.02344 3.11919 7.86938 2.27148 8.90992 2.27148Z" fill="#E23B3B"/>
<path d="M16.1341 27.9234C15.9449 27.9234 15.7557 27.9071 15.5719 27.8773L3.88813 26.1034H3.64759C3.42327 26.1034 3.24219 25.9219 3.24219 25.6971C3.24219 25.4723 3.42327 25.2909 3.64759 25.2909H3.91786C3.93948 25.2909 3.9584 25.2909 3.97732 25.2963L15.6962 27.0757C16.1071 27.1434 16.5314 27.1136 16.926 26.9971L28.8557 22.8182C29.053 22.7477 29.1854 22.5609 29.1854 22.3523C29.1854 22.0165 29.0395 21.6969 28.7881 21.4775C28.5368 21.2582 28.2016 21.1579 27.8692 21.204L19.9179 22.3117C19.6962 22.3415 19.4908 22.1871 19.4611 21.965C19.4314 21.7429 19.5854 21.5371 19.8071 21.5073L27.7584 20.3996C28.3206 20.3211 28.8908 20.4917 29.3206 20.8654C29.7503 21.2392 29.9962 21.7809 29.9962 22.3523C29.9962 22.9238 29.6449 23.4032 29.1233 23.5873L17.1746 27.7717C16.8314 27.8746 16.48 27.9261 16.1314 27.9261L16.1341 27.9234Z" fill="#222222" stroke="#222222" stroke-width="0.4"/>
<path d="M3.37838 26.9178H0.405405C0.181081 26.9178 0 26.7364 0 26.5116V17.5741C0 17.3493 0.181081 17.1678 0.405405 17.1678H3.37838C3.6027 17.1678 3.78378 17.3493 3.78378 17.5741V26.5116C3.78378 26.7364 3.6027 26.9178 3.37838 26.9178ZM0.810811 26.1053H2.97297V17.9803H0.810811V26.1053Z" fill="#222222" stroke="#222222" stroke-width="0.4"/>
<path d="M19.1854 22.5822H12.8368C12.6125 22.5822 12.4314 22.4007 12.4314 22.1759C12.4314 21.9511 12.6125 21.7697 12.8368 21.7697H19.1854C19.4854 21.7697 19.7287 21.5259 19.7287 21.2253C19.7287 20.1826 18.88 19.3322 17.8395 19.3322H14.3773C13.0152 19.3322 12.0638 18.9909 10.9719 18.4411C9.84759 17.8751 8.74759 17.6638 7.17192 17.7072C6.06111 17.7397 5.24489 18.2515 4.6503 18.6253C4.24489 18.8799 3.953 19.0613 3.64759 19.0613C3.42327 19.0613 3.24219 18.8799 3.24219 18.6551C3.24219 18.4303 3.42327 18.2488 3.64759 18.2488C3.73678 18.2407 4.00435 18.0701 4.22057 17.9347C4.8557 17.5365 5.81786 16.9326 7.1503 16.8947C8.8503 16.8459 10.0989 17.0924 11.3368 17.7153C12.3476 18.2245 13.1692 18.5197 14.3773 18.5197H17.8395C19.3287 18.5197 20.5395 19.733 20.5395 21.2253C20.5395 21.9728 19.9314 22.5822 19.1854 22.5822Z" fill="#222222" stroke="#222222" stroke-width="0.4"/>
<path d="M26.4892 17.4367H21.8946C21.7459 17.4367 21.6243 17.3149 21.6243 17.1659V16.2099C21.6243 15.6005 21.3405 15.0155 20.8432 14.6065C19.4513 13.4582 18.7459 11.6951 18.9595 9.89133C19.2405 7.48904 21.1892 5.54987 23.5892 5.28175C25.1108 5.11383 26.573 5.57695 27.7054 6.59258C28.8216 7.59466 29.4622 9.03008 29.4622 10.5305C29.4622 12.1311 28.7486 13.6288 27.5027 14.6363C27.0297 15.0182 26.7595 15.5897 26.7595 16.2072V17.1659C26.7595 17.3149 26.6378 17.4367 26.4892 17.4367ZM22.1649 16.8951H26.2189V16.2072C26.2189 15.4272 26.5622 14.6986 27.1622 14.2138C28.2811 13.3092 28.9216 11.9659 28.9216 10.5305C28.9216 9.18445 28.3459 7.89529 27.3459 6.99612C26.3297 6.08612 25.0189 5.66633 23.6486 5.8207C21.4973 6.06175 19.7513 7.79779 19.4973 9.95362C19.3081 11.5732 19.9405 13.1549 21.1892 14.1867C21.8108 14.6986 22.1649 15.4353 22.1649 16.2099V16.8951Z" fill="#222222" stroke="#222222" stroke-width="0.4"/>
<path d="M22.1609 19.6055C22.096 19.6055 22.0312 19.5811 21.9825 19.5378C21.9231 19.4863 21.8906 19.4132 21.8906 19.3346V17.4388C21.8906 17.2898 22.0122 17.168 22.1609 17.168C22.3095 17.168 22.4312 17.2898 22.4312 17.4388V19.0259L25.9447 18.5573V17.4415C25.9447 17.2926 26.0663 17.1707 26.2149 17.1707C26.3636 17.1707 26.4852 17.2926 26.4852 17.4415V18.7957C26.4852 18.9311 26.3852 19.0448 26.2501 19.0638L22.196 19.6055C22.196 19.6055 22.1717 19.6055 22.1609 19.6055Z" fill="#222222" stroke="#222222" stroke-width="0.4"/>
<path d="M25.6765 20.9596C25.5279 20.9596 25.4062 20.8378 25.4062 20.6888V19.0638C25.4062 18.9148 25.5279 18.793 25.6765 18.793C25.8252 18.793 25.9468 18.9148 25.9468 19.0638V20.6888C25.9468 20.8378 25.8252 20.9596 25.6765 20.9596Z" fill="#222222" stroke="#222222" stroke-width="0.4"/>
<path d="M22.7 21.4987C22.5513 21.4987 22.4297 21.3768 22.4297 21.2279V19.6029C22.4297 19.4539 22.5513 19.332 22.7 19.332C22.8486 19.332 22.9702 19.4539 22.9702 19.6029V21.2279C22.9702 21.3768 22.8486 21.4987 22.7 21.4987Z" fill="#222222" stroke="#222222" stroke-width="0.4"/>
<path d="M25.1309 17.4375H23.239C23.0904 17.4375 22.9688 17.3156 22.9688 17.1667V12.8333C22.9688 12.6844 23.0904 12.5625 23.239 12.5625H25.1309C25.2796 12.5625 25.4012 12.6844 25.4012 12.8333V17.1667C25.4012 17.3156 25.2796 17.4375 25.1309 17.4375ZM23.5093 16.8958H24.8606V13.1042H23.5093V16.8958Z" fill="#222222" stroke="#222222" stroke-width="0.4"/>
<path d="M25.9483 13.1042H25.1375C24.9888 13.1042 24.8672 12.9823 24.8672 12.8333V12.0208C24.8672 11.4223 25.351 10.9375 25.9483 10.9375C26.5456 10.9375 27.0293 11.4223 27.0293 12.0208C27.0293 12.6194 26.5456 13.1042 25.9483 13.1042ZM25.4077 12.5625H25.9483C26.2456 12.5625 26.4888 12.3188 26.4888 12.0208C26.4888 11.7229 26.2456 11.4792 25.9483 11.4792C25.651 11.4792 25.4077 11.7229 25.4077 12.0208V12.5625Z" fill="#222222" stroke="#222222" stroke-width="0.4"/>
<path d="M23.2435 13.1042H22.4326C21.8353 13.1042 21.3516 12.6194 21.3516 12.0208C21.3516 11.4223 21.8353 10.9375 22.4326 10.9375C23.0299 10.9375 23.5137 11.4223 23.5137 12.0208V12.8333C23.5137 12.9823 23.3921 13.1042 23.2435 13.1042ZM22.4326 11.4792C22.1353 11.4792 21.8921 11.7229 21.8921 12.0208C21.8921 12.3188 22.1353 12.5625 22.4326 12.5625H22.9732V12.0208C22.9732 11.7229 22.7299 11.4792 22.4326 11.4792Z" fill="#222222" stroke="#222222" stroke-width="0.4"/>
<path d="M7.02808 17.4375C6.87943 17.4375 6.75781 17.3156 6.75781 17.1667V4.08C6.75781 2.93167 7.69025 2 8.83349 2H25.1362C25.2848 2 25.4065 2.12188 25.4065 2.27083V5.52083C25.4065 5.66979 25.2848 5.79167 25.1362 5.79167C24.9875 5.79167 24.8659 5.66979 24.8659 5.52083V2.54167H8.83349C7.98754 2.54167 7.29835 3.23229 7.29835 4.08V17.1667C7.29835 17.3156 7.17673 17.4375 7.02808 17.4375Z" fill="#222222" stroke="#222222" stroke-width="0.4"/>
<path d="M10.0046 17.707C9.856 17.707 9.73438 17.5852 9.73438 17.4362V2.54036C9.73438 2.39141 9.856 2.26953 10.0046 2.26953C10.1533 2.26953 10.2749 2.39141 10.2749 2.54036V17.4362C10.2749 17.5852 10.1533 17.707 10.0046 17.707Z" fill="#222222" stroke="#222222" stroke-width="0.4"/>
<path d="M20.2724 14.1862H13.7859C13.6372 14.1862 13.5156 14.0643 13.5156 13.9154V9.04036C13.5156 8.89141 13.6372 8.76953 13.7859 8.76953H19.1913C19.3399 8.76953 19.4616 8.89141 19.4616 9.04036C19.4616 9.18932 19.3399 9.3112 19.1913 9.3112H14.0562V13.6445H20.2724C20.421 13.6445 20.5427 13.7664 20.5427 13.9154C20.5427 14.0643 20.421 14.1862 20.2724 14.1862Z" fill="#222222" stroke="#222222" stroke-width="0.4"/>
</g>
<defs>
<clipPath id="clip0_54_34">
<rect width="30" height="30" fill="white"/>
</clipPath>
</defs>
</svg>
