<svg width="34" height="33" viewBox="0 0 34 33" fill="none" xmlns="http://www.w3.org/2000/svg">
<g id="Frame" clip-path="url(#clip0_1228_98)">
<path id="Vector" d="M8.81541 15.0137H1.17969V31.9104H8.81541V15.0137Z" fill="white"/>
<path id="Vector_2" d="M8.81541 15.0137H1.17969V31.9104H8.81541V15.0137Z" stroke="#333333" stroke-miterlimit="10" stroke-linecap="round" stroke-linejoin="round"/>
<path id="Vector_3" d="M24.7301 8.20898H8.82031V31.9116H24.7301V8.20898Z" fill="white"/>
<path id="Vector_4" d="M24.7301 8.20898H8.82031V31.9116H24.7301V8.20898Z" stroke="#333333" stroke-miterlimit="10" stroke-linecap="round" stroke-linejoin="round"/>
<path id="Vector_5" d="M21.8978 11.8047H20.25V14.0367H21.8978V11.8047Z" fill="#DDD6D3"/>
<path id="Vector_6" d="M21.8978 11.8047H20.25V14.0367H21.8978V11.8047Z" stroke="#333333" stroke-miterlimit="10" stroke-linecap="round" stroke-linejoin="round"/>
<path id="Vector_7" d="M17.6009 11.8047H15.9531V14.0367H17.6009V11.8047Z" fill="#DDD6D3"/>
<path id="Vector_8" d="M17.6009 11.8047H15.9531V14.0367H17.6009V11.8047Z" stroke="#333333" stroke-miterlimit="10" stroke-linecap="round" stroke-linejoin="round"/>
<path id="Vector_9" d="M13.2962 11.8047H11.6484V14.0367H13.2962V11.8047Z" fill="#DDD6D3"/>
<path id="Vector_10" d="M13.2962 11.8047H11.6484V14.0367H13.2962V11.8047Z" stroke="#333333" stroke-miterlimit="10" stroke-linecap="round" stroke-linejoin="round"/>
<path id="Vector_11" d="M21.8978 16.7754H20.25V19.0074H21.8978V16.7754Z" fill="#DDD6D3"/>
<path id="Vector_12" d="M21.8978 16.7754H20.25V19.0074H21.8978V16.7754Z" stroke="#333333" stroke-miterlimit="10" stroke-linecap="round" stroke-linejoin="round"/>
<path id="Vector_13" d="M17.6009 16.7754H15.9531V19.0074H17.6009V16.7754Z" fill="#DDD6D3"/>
<path id="Vector_14" d="M17.6009 16.7754H15.9531V19.0074H17.6009V16.7754Z" stroke="#333333" stroke-miterlimit="10" stroke-linecap="round" stroke-linejoin="round"/>
<path id="Vector_15" d="M13.2962 16.7754H11.6484V19.0074H13.2962V16.7754Z" fill="#DDD6D3"/>
<path id="Vector_16" d="M13.2962 16.7754H11.6484V19.0074H13.2962V16.7754Z" stroke="#333333" stroke-miterlimit="10" stroke-linecap="round" stroke-linejoin="round"/>
<path id="Vector_17" d="M21.8978 21.748H20.25V23.9801H21.8978V21.748Z" fill="#DDD6D3"/>
<path id="Vector_18" d="M21.8978 21.748H20.25V23.9801H21.8978V21.748Z" stroke="#333333" stroke-miterlimit="10" stroke-linecap="round" stroke-linejoin="round"/>
<path id="Vector_19" d="M17.6009 21.748H15.9531V23.9801H17.6009V21.748Z" fill="#DDD6D3"/>
<path id="Vector_20" d="M17.6009 21.748H15.9531V23.9801H17.6009V21.748Z" stroke="#333333" stroke-miterlimit="10" stroke-linecap="round" stroke-linejoin="round"/>
<path id="Vector_21" d="M13.2962 21.748H11.6484V23.9801H13.2962V21.748Z" fill="#DDD6D3"/>
<path id="Vector_22" d="M13.2962 21.748H11.6484V23.9801H13.2962V21.748Z" stroke="#333333" stroke-miterlimit="10" stroke-linecap="round" stroke-linejoin="round"/>
<path id="Vector_23" d="M20.395 0.960938H13.1484V8.20724H20.395V0.960938Z" fill="#FF5F5F"/>
<path id="Vector_24" d="M20.395 0.960938H13.1484V8.20724H20.395V0.960938Z" stroke="#333333" stroke-miterlimit="10" stroke-linecap="round" stroke-linejoin="round"/>
<path id="Vector_25" d="M18.7338 3.75997H17.5969V2.62305H15.9491V3.75997H14.8125V5.40772H15.9491V6.54464H17.5969V5.40772H18.7338V3.75997Z" fill="white"/>
<path id="Vector_26" d="M18.7338 3.75997H17.5969V2.62305H15.9491V3.75997H14.8125V5.40772H15.9491V6.54464H17.5969V5.40772H18.7338V3.75997Z" stroke="#333333" stroke-miterlimit="10" stroke-linecap="round" stroke-linejoin="round"/>
<path id="Vector_27" d="M25.0071 8.20703H8.53906V9.4294H25.0071V8.20703Z" fill="#DDD6D3"/>
<path id="Vector_28" d="M25.0071 8.20703H8.53906V9.4294H25.0071V8.20703Z" stroke="#333333" stroke-miterlimit="10" stroke-linecap="round" stroke-linejoin="round"/>
<path id="Vector_29" d="M16.7739 26.7188H13.6641V31.9097H16.7739V26.7188Z" fill="#74AAFF"/>
<path id="Vector_30" d="M16.7739 26.7188H13.6641V31.9097H16.7739V26.7188Z" stroke="#333333" stroke-miterlimit="10" stroke-linecap="round" stroke-linejoin="round"/>
<path id="Vector_31" d="M19.883 26.7207H16.7734V31.9117H19.883V26.7207Z" fill="#74AAFF"/>
<path id="Vector_32" d="M19.883 26.7207H16.7734V31.9117H19.883V26.7207Z" stroke="#333333" stroke-miterlimit="10" stroke-linecap="round" stroke-linejoin="round"/>
<path id="Vector_33" d="M5.82744 16.7754H4.17969V19.0074H5.82744V16.7754Z" fill="#DDD6D3"/>
<path id="Vector_34" d="M5.82744 16.7754H4.17969V19.0074H5.82744V16.7754Z" stroke="#333333" stroke-miterlimit="10" stroke-linecap="round" stroke-linejoin="round"/>
<path id="Vector_35" d="M5.82744 21.748H4.17969V23.9801H5.82744V21.748Z" fill="#DDD6D3"/>
<path id="Vector_36" d="M5.82744 21.748H4.17969V23.9801H5.82744V21.748Z" stroke="#333333" stroke-miterlimit="10" stroke-linecap="round" stroke-linejoin="round"/>
<path id="Vector_37" d="M5.82744 26.7188H4.17969V28.9508H5.82744V26.7188Z" fill="#DDD6D3"/>
<path id="Vector_38" d="M5.82744 26.7188H4.17969V28.9508H5.82744V26.7188Z" stroke="#333333" stroke-miterlimit="10" stroke-linecap="round" stroke-linejoin="round"/>
<path id="Vector_39" d="M32.3623 15.0137H24.7266V31.9104H32.3623V15.0137Z" fill="white"/>
<path id="Vector_40" d="M32.3623 15.0137H24.7266V31.9104H32.3623V15.0137Z" stroke="#333333" stroke-miterlimit="10" stroke-linecap="round" stroke-linejoin="round"/>
<path id="Vector_41" d="M29.3743 16.7754H27.7266V19.0074H29.3743V16.7754Z" fill="#DDD6D3"/>
<path id="Vector_42" d="M29.3743 16.7754H27.7266V19.0074H29.3743V16.7754Z" stroke="#333333" stroke-miterlimit="10" stroke-linecap="round" stroke-linejoin="round"/>
<path id="Vector_43" d="M29.3743 21.748H27.7266V23.9801H29.3743V21.748Z" fill="#DDD6D3"/>
<path id="Vector_44" d="M29.3743 21.748H27.7266V23.9801H29.3743V21.748Z" stroke="#333333" stroke-miterlimit="10" stroke-linecap="round" stroke-linejoin="round"/>
<path id="Vector_45" d="M29.3743 26.7207H27.7266V28.9527H29.3743V26.7207Z" fill="#DDD6D3"/>
<path id="Vector_46" d="M29.3743 26.7207H27.7266V28.9527H29.3743V26.7207Z" stroke="#333333" stroke-miterlimit="10" stroke-linecap="round" stroke-linejoin="round"/>
<path id="Vector_47" d="M8.81978 13.791H0.585938V15.0134H8.81978V13.791Z" fill="#DDD6D3"/>
<path id="Vector_48" d="M8.81978 13.791H0.585938V15.0134H8.81978V13.791Z" stroke="#333333" stroke-miterlimit="10" stroke-linecap="round" stroke-linejoin="round"/>
<path id="Vector_49" d="M32.9607 13.791H24.7266V15.0134H32.9607V13.791Z" fill="#DDD6D3"/>
<path id="Vector_50" d="M32.9607 13.791H24.7266V15.0134H32.9607V13.791Z" stroke="#333333" stroke-miterlimit="10" stroke-linecap="round" stroke-linejoin="round"/>
</g>
<defs>
<clipPath id="clip0_1228_98">
<rect width="33.2999" height="31.8713" fill="white" transform="translate(0.125 0.5)"/>
</clipPath>
</defs>
</svg>
