<svg width="41" height="36" viewBox="0 0 41 36" fill="none" xmlns="http://www.w3.org/2000/svg">
<g clip-path="url(#clip0_26_1776)">
<g clip-path="url(#clip1_26_1776)">
<path d="M22.2437 20.2669C22.4072 19.6725 22.4966 19.0474 22.4966 18.4015C22.4966 17.8153 22.4164 17.2485 22.2808 16.7036C21.5893 13.9246 19.249 11.7962 16.3592 11.4219C15.7316 12.3062 15.5053 13.3882 15.6826 14.4162C17.5479 14.5239 19.0714 15.9125 19.385 17.7157C19.4242 17.9389 19.4482 18.1674 19.4482 18.4015C19.4482 19.2607 19.1731 20.0553 18.7101 20.708C17.9851 21.7289 16.796 22.3985 15.4512 22.3985C13.2472 22.3985 11.4546 20.6055 11.4546 18.4015C11.4546 17.221 11.972 16.1615 12.7888 15.4291C12.5 14.2591 12.5116 13.0319 12.8291 11.8679C10.2405 12.9108 8.40625 15.4439 8.40625 18.4015C8.40625 21.7625 10.7738 24.5771 13.9274 25.276V27.8582H10.3083V30.9062H13.9274V34.9706H16.9754V30.9062H20.5945V27.8582H16.9754V25.276C19.5231 24.7113 21.5558 22.7654 22.2437 20.2669Z" fill="#FF5F5F"/>
<path d="M22.2437 20.2669C22.4072 19.6725 22.4966 19.0474 22.4966 18.4015C22.4966 17.8153 22.4164 17.2485 22.2808 16.7036C21.5893 13.9246 19.249 11.7962 16.3592 11.4219C15.7316 12.3062 15.5053 13.3882 15.6826 14.4162C17.5479 14.5239 19.0714 15.9125 19.385 17.7157C19.4242 17.9389 19.4482 18.1674 19.4482 18.4015C19.4482 19.2607 19.1731 20.0553 18.7101 20.708C17.9851 21.7289 16.796 22.3985 15.4512 22.3985C13.2472 22.3985 11.4546 20.6055 11.4546 18.4015C11.4546 17.221 11.972 16.1615 12.7888 15.4291C12.5 14.2591 12.5116 13.0319 12.8291 11.8679C10.2405 12.9108 8.40625 15.4439 8.40625 18.4015C8.40625 21.7625 10.7738 24.5771 13.9274 25.276V27.8582H10.3083V30.9062H13.9274V34.9706H16.9754V30.9062H20.5945V27.8582H16.9754V25.276C19.5231 24.7113 21.5558 22.7654 22.2437 20.2669Z" stroke="#333333" stroke-miterlimit="10" stroke-linecap="round" stroke-linejoin="round"/>
<path d="M31.868 1.47603C31.5819 1.18998 31.1945 1.02965 30.7901 1.0293H23.8712V4.07804L27.1107 4.07769L23.3962 7.79212C20.672 6.05639 17.0078 6.37246 14.6314 8.74916C13.7358 9.64475 13.1376 10.7247 12.8261 11.8671C12.5086 13.0311 12.497 14.2583 12.7855 15.4283C13.0828 16.6322 13.6927 17.7736 14.6314 18.7126C15.7742 19.855 17.2158 20.5154 18.7068 20.7072C19.1701 20.0546 19.4452 19.26 19.4452 18.4007C19.4452 18.1666 19.4208 17.9381 19.382 17.7149C18.437 17.6605 17.5071 17.2777 16.7867 16.5573C16.1821 15.9524 15.8152 15.2001 15.6796 14.4155C15.5023 13.3874 15.7283 12.3054 16.3562 11.4211C16.4844 11.2403 16.6249 11.0662 16.7867 10.9044C18.3451 9.34598 20.8811 9.34633 22.4392 10.9044C23.9977 12.4629 23.9977 14.9985 22.4392 16.557C22.3873 16.6089 22.3318 16.6544 22.2778 16.7028C22.4134 17.2477 22.4936 17.8145 22.4936 18.4007C22.4936 19.0467 22.4042 19.6717 22.2407 20.2661C23.0982 19.9228 23.9012 19.4058 24.5948 18.7122C26.9712 16.3359 27.2872 12.6719 25.5515 9.94775L29.2659 6.23332V9.47241H32.3143V2.55349C32.3143 2.14949 32.154 1.76173 31.868 1.47603Z" fill="#74AAFF"/>
<path d="M31.868 1.47603C31.5819 1.18998 31.1945 1.02965 30.7901 1.0293H23.8712V4.07804L27.1107 4.07769L23.3962 7.79212C20.672 6.05639 17.0078 6.37246 14.6314 8.74916C13.7358 9.64475 13.1376 10.7247 12.8261 11.8671C12.5086 13.0311 12.497 14.2583 12.7855 15.4283C13.0828 16.6322 13.6927 17.7736 14.6314 18.7126C15.7742 19.855 17.2158 20.5154 18.7068 20.7072C19.1701 20.0546 19.4452 19.26 19.4452 18.4007C19.4452 18.1666 19.4208 17.9381 19.382 17.7149C18.437 17.6605 17.5071 17.2777 16.7867 16.5573C16.1821 15.9524 15.8152 15.2001 15.6796 14.4154C15.5023 13.3874 15.7283 12.3054 16.3562 11.4211C16.4844 11.2403 16.6249 11.0662 16.7867 10.9044C18.3451 9.34598 20.8811 9.34633 22.4392 10.9044C23.9977 12.4629 23.9977 14.9985 22.4392 16.557C22.3873 16.6089 22.3318 16.6544 22.2778 16.7028C22.4134 17.2477 22.4936 17.8145 22.4936 18.4007C22.4936 19.0467 22.4042 19.6717 22.2407 20.2661C23.0982 19.9228 23.9012 19.4058 24.5948 18.7122C26.9712 16.3359 27.2872 12.6719 25.5515 9.94775L29.2659 6.23332V9.47241H32.3143V2.55349C32.3143 2.14949 32.154 1.76173 31.868 1.47603Z" stroke="#333333" stroke-miterlimit="10" stroke-linecap="round" stroke-linejoin="round"/>
</g>
</g>
<defs>
<clipPath id="clip0_26_1776">
<rect width="40" height="35" fill="white" transform="translate(0.375 0.5)"/>
</clipPath>
<clipPath id="clip1_26_1776">
<rect width="24.9705" height="35" fill="white" transform="translate(7.875 0.5)"/>
</clipPath>
</defs>
</svg>
