<svg width="41" height="36" viewBox="0 0 41 36" fill="none" xmlns="http://www.w3.org/2000/svg">
<path d="M32.22 10.3143L27.9893 6.08359L28.7306 5.34228C29.899 4.17387 31.7932 4.17387 32.9613 5.34228C34.1297 6.51041 34.1297 8.40458 32.9613 9.57299L32.22 10.3143Z" fill="#60C2EC"/>
<path d="M32.22 10.3143L27.9893 6.08359L28.7306 5.34228C29.899 4.17387 31.7932 4.17387 32.9613 5.34228C34.1297 6.51041 34.1297 8.40458 32.9613 9.57299L32.22 10.3143Z" stroke="#222222" stroke-miterlimit="10" stroke-linecap="round" stroke-linejoin="round"/>
<path d="M14.5975 20.6675L13.7736 23.0216L15.283 24.531L17.6374 23.7073C18.8421 23.2857 19.9365 22.5979 20.8388 21.6953L32.2205 10.3136L27.9909 6.08405L16.6092 17.4658C15.7066 18.3684 15.0192 19.4625 14.5975 20.6675Z" fill="white"/>
<path d="M14.5975 20.6675L13.7736 23.0216L15.283 24.531L17.6374 23.7073C18.8421 23.2857 19.9365 22.5979 20.8388 21.6953L32.2205 10.3136L27.9909 6.08405L16.6092 17.4658C15.7066 18.3684 15.0192 19.4625 14.5975 20.6675Z" stroke="#222222" stroke-miterlimit="10" stroke-linecap="round" stroke-linejoin="round"/>
<path d="M7.0819 29.7118C6.66516 30.1285 6.66516 30.8042 7.0819 31.2212C7.29012 31.4294 7.56343 31.5337 7.83358 31.5337C8.10977 31.5337 8.38279 31.4294 8.5913 31.2212L15.281 24.5316L13.7715 23.0222L7.0819 29.7118Z" fill="#DDD6D3"/>
<path d="M7.0819 29.7118C6.66516 30.1285 6.66516 30.8042 7.0819 31.2212C7.29012 31.4294 7.56343 31.5337 7.83358 31.5337C8.10977 31.5337 8.38279 31.4294 8.5913 31.2212L15.281 24.5316L13.7715 23.0222L7.0819 29.7118Z" stroke="#222222" stroke-miterlimit="10" stroke-linecap="round" stroke-linejoin="round"/>
<path d="M27.5943 12.6336L21.2975 18.9304C20.7661 19.4618 19.9047 19.4618 19.3734 18.9304C18.842 18.3991 18.842 17.5374 19.3734 17.0063L25.6702 10.7092C26.2015 10.1779 27.063 10.1779 27.5943 10.7092C28.1257 11.2409 28.1257 12.1023 27.5943 12.6336Z" fill="white"/>
<path d="M27.5943 12.6336L21.2975 18.9304C20.7661 19.4618 19.9047 19.4618 19.3734 18.9304C18.842 18.3991 18.842 17.5374 19.3734 17.0063L25.6702 10.7092C26.2015 10.1779 27.063 10.1779 27.5943 10.7092C28.1257 11.2409 28.1257 12.1023 27.5943 12.6336Z" stroke="#222222" stroke-miterlimit="10" stroke-linecap="round" stroke-linejoin="round"/>
<path d="M27.5943 12.6336L21.2975 18.9304C20.7661 19.4618 19.9047 19.4618 19.3734 18.9304C18.842 18.3991 18.842 17.5374 19.3734 17.0063L25.6702 10.7092C26.2015 10.1779 27.063 10.1779 27.5943 10.7092C28.1257 11.2409 28.1257 12.1023 27.5943 12.6336Z" fill="white"/>
<path d="M27.5943 12.6336L21.2975 18.9304C20.7661 19.4618 19.9047 19.4618 19.3734 18.9304C18.842 18.3991 18.842 17.5374 19.3734 17.0063L25.6702 10.7092C26.2015 10.1779 27.063 10.1779 27.5943 10.7092C28.1257 11.2409 28.1257 12.1023 27.5943 12.6336Z" stroke="#222222" stroke-miterlimit="10" stroke-linecap="round" stroke-linejoin="round"/>
<path d="M24.6455 11.7266L23.2387 13.1334L25.1627 15.0574L26.5695 13.6506L24.6455 11.7266Z" fill="#F572AD"/>
<path d="M24.6455 11.7266L23.2387 13.1334L25.1627 15.0574L26.5695 13.6506L24.6455 11.7266Z" stroke="#222222" stroke-miterlimit="10" stroke-linecap="round" stroke-linejoin="round"/>
<path d="M21.7879 14.583L20.3811 15.9898L22.3051 17.9138L23.7119 16.5071L21.7879 14.583Z" fill="#F572AD"/>
<path d="M21.7068 14.5385L20.3 15.9453L22.224 17.8693L23.6308 16.4625L21.7068 14.5385Z" stroke="#222222" stroke-miterlimit="10" stroke-linecap="round" stroke-linejoin="round"/>
<path d="M14.3242 12.6068L13.4761 11.7586" stroke="#222222" stroke-miterlimit="10" stroke-linecap="round" stroke-linejoin="round"/>
<path d="M12.3718 15.9847L11.2134 15.6743" stroke="#222222" stroke-miterlimit="10" stroke-linecap="round" stroke-linejoin="round"/>
<path d="M17.6988 10.6577L17.3883 9.49939" stroke="#222222" stroke-miterlimit="10" stroke-linecap="round" stroke-linejoin="round"/>
<path d="M25.6906 23.9777L26.5388 24.8258" stroke="#222222" stroke-miterlimit="10" stroke-linecap="round" stroke-linejoin="round"/>
<path d="M27.6467 20.6006L28.8051 20.9111" stroke="#222222" stroke-miterlimit="10" stroke-linecap="round" stroke-linejoin="round"/>
<path d="M22.3192 25.9271L22.6297 27.0854" stroke="#222222" stroke-miterlimit="10" stroke-linecap="round" stroke-linejoin="round"/>
</svg>
