<svg width="41" height="36" viewBox="0 0 41 36" fill="none" xmlns="http://www.w3.org/2000/svg">
<g clip-path="url(#clip0_26_1779)">
<g clip-path="url(#clip1_26_1779)">
<path d="M28.7412 19.7081C28.7412 21.3263 27.4297 22.6379 25.8115 22.6379C24.1933 22.6379 22.8817 21.3263 22.8817 19.7081C22.8817 18.09 24.1933 16.7784 25.8115 16.7784C27.4297 16.7784 28.7412 18.09 28.7412 19.7081Z" fill="#DDD6D3"/>
<path d="M27.8821 21.7806C29.0263 20.6364 29.0263 18.7814 27.8821 17.6373C26.738 16.4932 24.883 16.4932 23.7389 17.6373C22.5947 18.7814 22.5947 20.6364 23.7389 21.7806C24.883 22.9247 26.738 22.9247 27.8821 21.7806Z" stroke="#333333" stroke-miterlimit="10" stroke-linecap="round" stroke-linejoin="round"/>
<path d="M23.118 15.6009H18.1191C15.3707 15.6009 13.1428 13.3726 13.1428 10.6242V7.91821C13.1428 4.08549 16.2497 0.978516 20.0828 0.978516H21.1547C24.9874 0.978516 28.0944 4.08549 28.0944 7.91821V10.6242C28.0944 13.3726 25.8664 15.6009 23.118 15.6009Z" fill="#DDD6D3"/>
<path d="M23.118 15.6009H18.1191C15.3707 15.6009 13.1428 13.3726 13.1428 10.6242V7.91821C13.1428 4.08549 16.2497 0.978516 20.0828 0.978516H21.1547C24.9874 0.978516 28.0944 4.08549 28.0944 7.91821V10.6242C28.0944 13.3726 25.8664 15.6009 23.118 15.6009Z" stroke="#333333" stroke-miterlimit="10" stroke-linecap="round" stroke-linejoin="round"/>
<path d="M34.8319 35.022H6.40155V28.1961C6.40155 25.2577 8.78373 22.8759 11.7221 22.8759H29.5117C32.4497 22.8759 34.8319 25.2577 34.8319 28.1961V35.022Z" fill="white"/>
<path d="M34.8319 35.022H6.40155V28.1961C6.40155 25.2577 8.78373 22.8759 11.7221 22.8759H29.5117C32.4497 22.8759 34.8319 25.2577 34.8319 28.1961V35.022Z" stroke="#333333" stroke-miterlimit="10" stroke-linecap="round" stroke-linejoin="round"/>
<path d="M23.6216 22.8754L20.6227 25.4539L17.6241 22.8754V19.29H23.6216V22.8754Z" fill="#FFE1D7"/>
<path d="M23.6216 22.8754L20.6227 25.4539L17.6241 22.8754V19.29H23.6216V22.8754Z" stroke="#333333" stroke-miterlimit="10" stroke-linecap="round" stroke-linejoin="round"/>
<path d="M21.0854 35.0218L17.6154 22.8757V20.7867L12.2742 22.8757L15.1258 26.0856L12.9308 28.3706L21.0854 35.0218Z" fill="white"/>
<path d="M21.0854 35.0218L17.6154 22.8757V20.7867L12.2742 22.8757L15.1258 26.0856L12.9308 28.3706L21.0854 35.0218Z" stroke="#333333" stroke-miterlimit="10" stroke-linecap="round" stroke-linejoin="round"/>
<path d="M20.1453 35.0221L23.6153 22.8759V20.787L28.9566 22.8759L26.1049 26.0859L28.3003 28.3708L20.1453 35.0221Z" fill="white"/>
<path d="M20.1453 35.0221L23.6153 22.8759V20.787L28.9566 22.8759L26.1049 26.0859L28.3003 28.3708L20.1453 35.0221Z" stroke="#333333" stroke-miterlimit="10" stroke-linecap="round" stroke-linejoin="round"/>
<path d="M17.6241 22.8759L20.623 34.6379L23.6216 22.8759H17.6241Z" fill="#74AAFF"/>
<path d="M17.6241 22.8759L20.623 34.6379L23.6216 22.8759H17.6241Z" stroke="#333333" stroke-miterlimit="10" stroke-linecap="round" stroke-linejoin="round"/>
<path d="M12.2895 12.886C12.2895 14.0984 13.2725 15.0814 14.4849 15.0814V10.6906C13.2725 10.6906 12.2895 11.6735 12.2895 12.886Z" fill="#FFE1D7"/>
<path d="M12.2895 12.886C12.2895 14.0984 13.2725 15.0814 14.4849 15.0814V10.6906C13.2725 10.6906 12.2895 11.6735 12.2895 12.886Z" stroke="#333333" stroke-miterlimit="10" stroke-linecap="round" stroke-linejoin="round"/>
<path d="M28.9512 12.886C28.9512 14.0984 27.9686 15.0814 26.7558 15.0814V10.6906C27.9686 10.6906 28.9512 11.6735 28.9512 12.886Z" fill="#FFE1D7"/>
<path d="M28.9512 12.886C28.9512 14.0984 27.9686 15.0814 26.7558 15.0814V10.6906C27.9686 10.6906 28.9512 11.6735 28.9512 12.886Z" stroke="#333333" stroke-miterlimit="10" stroke-linecap="round" stroke-linejoin="round"/>
<path d="M26.7733 13.0925H26.7542V14.195C26.7542 17.4932 24.2101 20.3114 20.9153 20.4672C17.4629 20.6304 14.6042 17.9295 14.4926 14.5427H14.4863V14.4152C14.4863 14.3897 14.4831 14.3642 14.4831 14.3387L14.4863 14.3196C14.4757 14.2077 14.4722 13.6713 14.4726 13.0211C14.4735 11.4647 15.2898 10.0199 16.6278 9.225C16.8378 9.10006 17.0473 8.96779 17.256 8.82786C18.7764 7.80793 19.9493 6.57763 20.6186 5.4079C21.2911 6.57763 22.4609 7.80793 23.9844 8.82786C24.1944 8.96906 24.4054 9.10261 24.6171 9.22851C25.9567 10.0241 26.773 11.4711 26.7733 13.029C26.7733 13.0698 26.7733 13.0925 26.7733 13.0925Z" fill="#FFE1D7"/>
<path d="M26.7733 13.0925H26.7542V14.1949C26.7542 17.4932 24.2101 20.3114 20.9153 20.4672C17.4629 20.6304 14.6042 17.9295 14.4926 14.5427H14.4863V14.4152C14.4863 14.3897 14.4831 14.3642 14.4831 14.3387L14.4863 14.3196C14.4757 14.2077 14.4722 13.6713 14.4726 13.0211C14.4735 11.4647 15.2898 10.0199 16.6278 9.225C16.8378 9.10006 17.0473 8.96779 17.256 8.82786C18.7764 7.80793 19.9493 6.57763 20.6186 5.4079C21.2911 6.57763 22.4609 7.80793 23.9844 8.82786C24.1944 8.96906 24.4054 9.10261 24.6171 9.22851C25.9567 10.0241 26.773 11.4711 26.7733 13.029C26.7733 13.0698 26.7733 13.0925 26.7733 13.0925Z" stroke="#333333" stroke-miterlimit="10" stroke-linecap="round" stroke-linejoin="round"/>
<path d="M18.6617 11.0886V11.8781" stroke="#333333" stroke-miterlimit="10" stroke-linecap="round" stroke-linejoin="round"/>
<path d="M18.2697 9.52606H19.0596" stroke="#333333" stroke-miterlimit="10" stroke-linecap="round" stroke-linejoin="round"/>
<path d="M22.1746 9.52606H22.9641" stroke="#333333" stroke-miterlimit="10" stroke-linecap="round" stroke-linejoin="round"/>
<path d="M22.5742 11.0886V11.8781" stroke="#333333" stroke-miterlimit="10" stroke-linecap="round" stroke-linejoin="round"/>
<path d="M19.5457 14.1265C19.8303 14.3834 20.2061 14.5412 20.6198 14.5412C21.0332 14.5412 21.409 14.3834 21.6936 14.1265" fill="#FFE1D7"/>
<path d="M19.5457 14.1265C19.8303 14.3834 20.2061 14.5412 20.6198 14.5412C21.0332 14.5412 21.409 14.3834 21.6936 14.1265" stroke="#333333" stroke-miterlimit="10" stroke-linecap="round" stroke-linejoin="round"/>
<path d="M10.9367 35.0231V33.1471" stroke="#333333" stroke-miterlimit="10" stroke-linecap="round" stroke-linejoin="round"/>
<path d="M30.307 35.0231V33.1471" stroke="#333333" stroke-miterlimit="10" stroke-linecap="round" stroke-linejoin="round"/>
</g>
</g>
<defs>
<clipPath id="clip0_26_1779">
<rect width="40" height="35" fill="white" transform="translate(0.625 0.5)"/>
</clipPath>
<clipPath id="clip1_26_1779">
<rect width="29.3865" height="35" fill="white" transform="translate(5.92499 0.5)"/>
</clipPath>
</defs>
</svg>
