<svg width="41" height="36" viewBox="0 0 41 36" fill="none" xmlns="http://www.w3.org/2000/svg">
<g clip-path="url(#clip0_26_1803)">
<path d="M11.5533 32.3884C9.33516 32.3884 7.45447 30.8282 7.08132 28.6783L4.38667 13.1549C4.16129 11.856 4.52738 10.5341 5.39114 9.52733C6.25532 8.52095 7.5188 7.94348 8.85866 7.94348H9.81125C10.9087 7.94348 11.9281 7.50804 12.5379 6.77835C14.1703 4.82558 17.2805 3.6127 20.6554 3.6127C24.0304 3.6127 27.1405 4.82558 28.773 6.77835C29.3827 7.50804 30.4021 7.94348 31.4996 7.94348H32.4522C33.792 7.94348 35.0555 8.52095 35.9197 9.52733C36.7835 10.5341 37.1495 11.856 36.9242 13.1549L34.2295 28.6783C33.8564 30.8282 31.9757 32.3884 29.7575 32.3884H11.5533Z" fill="#FFC960"/>
<path d="M11.5533 32.3884C9.33516 32.3884 7.45447 30.8282 7.08132 28.6783L4.38667 13.1549C4.16129 11.856 4.52738 10.5341 5.39114 9.52733C6.25532 8.52095 7.5188 7.94348 8.85866 7.94348H9.81125C10.9087 7.94348 11.9281 7.50804 12.5379 6.77835C14.1703 4.82558 17.2805 3.6127 20.6554 3.6127C24.0304 3.6127 27.1405 4.82558 28.773 6.77835C29.3827 7.50804 30.4021 7.94348 31.4996 7.94348H32.4522C33.792 7.94348 35.0555 8.52095 35.9197 9.52733C36.7835 10.5341 37.1495 11.856 36.9242 13.1549L34.2295 28.6783C33.8564 30.8282 31.9757 32.3884 29.7575 32.3884H11.5533Z" stroke="#222222" stroke-miterlimit="10" stroke-linecap="round" stroke-linejoin="round"/>
<path d="M32.4522 10.0669H31.4996C29.8198 10.0669 28.1703 9.40247 27.1036 8.12634C25.919 6.70859 23.4763 5.73608 20.6555 5.73608C17.8346 5.73608 15.3919 6.70859 14.2069 8.12634C13.1406 9.40247 11.4911 10.0669 9.81128 10.0669H8.85869C7.38643 10.0669 6.26864 11.3691 6.51644 12.7958L9.21109 28.32C9.40575 29.4423 10.3953 30.263 11.5533 30.263H29.7576C30.9156 30.263 31.9051 29.4423 32.0998 28.32L34.7945 12.7958C35.0418 11.3691 33.9241 10.0669 32.4522 10.0669Z" fill="white"/>
<path d="M32.4522 10.0669H31.4996C29.8198 10.0669 28.1703 9.40247 27.1036 8.12634C25.919 6.70859 23.4763 5.73608 20.6555 5.73608C17.8346 5.73608 15.3919 6.70859 14.2069 8.12634C13.1406 9.40247 11.4911 10.0669 9.81128 10.0669H8.85869C7.38643 10.0669 6.26864 11.3691 6.51644 12.7958L9.21109 28.32C9.40575 29.4423 10.3953 30.263 11.5533 30.263H29.7576C30.9156 30.263 31.9052 29.4423 32.0998 28.32L34.7945 12.7958C35.0418 11.3691 33.9241 10.0669 32.4522 10.0669Z" stroke="#222222" stroke-miterlimit="10" stroke-linecap="round" stroke-linejoin="round"/>
<path d="M27.1173 13.0303H14.1857C15.0246 12.319 15.7738 11.402 16.3931 10.2862C16.948 9.30189 18.5141 8.23267 20.6534 8.23267C22.7889 8.23267 24.3587 9.30189 24.9099 10.2862C25.5292 11.402 26.2784 12.319 27.1173 13.0303Z" fill="white"/>
<path d="M27.1173 13.0303H14.1857C15.0246 12.319 15.7738 11.402 16.3931 10.2862C16.948 9.30189 18.5141 8.23267 20.6534 8.23267C22.7889 8.23267 24.3587 9.30189 24.9099 10.2862C25.5292 11.402 26.2784 12.319 27.1173 13.0303Z" stroke="#222222" stroke-miterlimit="10" stroke-linecap="round" stroke-linejoin="round"/>
<path d="M20.6565 8.23267V9.62593" stroke="#222222" stroke-miterlimit="10" stroke-linecap="round" stroke-linejoin="round"/>
<path d="M17.8644 8.92944L18.5941 10.2419" stroke="#222222" stroke-miterlimit="10" stroke-linecap="round" stroke-linejoin="round"/>
<path d="M15.9486 11.0299L17.1868 11.4792" stroke="#222222" stroke-miterlimit="10" stroke-linecap="round" stroke-linejoin="round"/>
<path d="M23.4548 8.92944L22.7251 10.2419" stroke="#222222" stroke-miterlimit="10" stroke-linecap="round" stroke-linejoin="round"/>
<path d="M25.3699 11.0299L24.1314 11.4792" stroke="#222222" stroke-miterlimit="10" stroke-linecap="round" stroke-linejoin="round"/>
<path d="M21.6177 13.0295H19.7088C19.7379 11.8505 20.1521 10.9127 20.6635 10.9127C21.1749 10.9127 21.5891 11.8505 21.6177 13.0295Z" fill="#FF5F5F"/>
<path d="M21.6177 13.0295H19.7088C19.7379 11.8505 20.1521 10.9127 20.6635 10.9127C21.1749 10.9127 21.5891 11.8505 21.6177 13.0295Z" stroke="#222222" stroke-miterlimit="10" stroke-linecap="round" stroke-linejoin="round"/>
<path d="M15.9217 15.8961C16.4397 15.7917 17.2229 15.8333 17.7148 16.3463C18.2062 16.8584 18.481 17.6946 18.4225 18.5035C18.3698 19.2344 18.0713 19.8915 17.814 20.5469C17.5562 21.2023 17.3284 21.9303 17.4313 22.6527C17.5168 23.2514 17.819 23.7623 17.9618 24.3434C18.1469 25.0964 18.0348 25.9722 17.6343 26.5721C17.2337 27.172 16.5451 27.4487 15.9624 27.1932C15.4958 26.9884 15.1451 26.4962 14.8425 25.9971C14.1178 24.8021 13.5446 23.4579 13.1511 22.0315C12.9689 21.37 12.824 20.6836 12.8024 19.9829C12.7812 19.2817 12.8896 18.5602 13.1826 17.9677C13.6072 17.1078 14.1161 16.2136 15.9217 15.8961Z" fill="#DDD6D3"/>
<path d="M15.9217 15.8961C16.4397 15.7917 17.2229 15.8333 17.7148 16.3463C18.2062 16.8584 18.481 17.6946 18.4225 18.5035C18.3698 19.2344 18.0713 19.8915 17.814 20.5469C17.5562 21.2023 17.3284 21.9303 17.4313 22.6527C17.5168 23.2514 17.819 23.7623 17.9618 24.3434C18.1469 25.0964 18.0348 25.9722 17.6343 26.5721C17.2337 27.172 16.5451 27.4487 15.9624 27.1932C15.4958 26.9884 15.1451 26.4962 14.8425 25.9971C14.1178 24.8021 13.5446 23.4579 13.1511 22.0315C12.9689 21.37 12.824 20.6836 12.8024 19.9829C12.7812 19.2817 12.8896 18.5602 13.1826 17.9677C13.6072 17.1078 14.1161 16.2136 15.9217 15.8961Z" stroke="#222222" stroke-miterlimit="10" stroke-linecap="round" stroke-linejoin="round"/>
<path d="M25.3968 15.8961C24.8783 15.7917 24.0955 15.8333 23.6036 16.3463C23.1118 16.8584 22.8374 17.6946 22.896 18.5035C22.9482 19.2344 23.2467 19.8915 23.5044 20.5469C23.7622 21.2023 23.9897 21.9303 23.8871 22.6527C23.8016 23.2514 23.4991 23.7623 23.3563 24.3434C23.1716 25.0964 23.2832 25.9722 23.6842 26.5721C24.0843 27.172 24.7733 27.4487 25.3561 27.1932C25.8226 26.9884 26.1734 26.4962 26.4759 25.9971C27.2002 24.8021 27.7739 23.4579 28.167 22.0315C28.3496 21.37 28.4944 20.6836 28.516 19.9829C28.5372 19.2817 28.4284 18.5602 28.1358 17.9677C27.7108 17.1078 27.2019 16.2136 25.3968 15.8961Z" fill="#DDD6D3"/>
<path d="M25.3968 15.8961C24.8783 15.7917 24.0955 15.8333 23.6036 16.3463C23.1118 16.8584 22.8374 17.6946 22.896 18.5035C22.9482 19.2344 23.2467 19.8915 23.5044 20.5469C23.7622 21.2023 23.9897 21.9303 23.8871 22.6527C23.8016 23.2514 23.4991 23.7623 23.3563 24.3434C23.1716 25.0964 23.2832 25.9722 23.6842 26.5721C24.0843 27.172 24.7733 27.4487 25.3561 27.1932C25.8226 26.9884 26.1734 26.4962 26.4759 25.9971C27.2002 24.8021 27.7739 23.4579 28.167 22.0315C28.3496 21.37 28.4944 20.6836 28.516 19.9829C28.5372 19.2817 28.4284 18.5602 28.1358 17.9677C27.7108 17.1078 27.2019 16.2136 25.3968 15.8961Z" stroke="#222222" stroke-miterlimit="10" stroke-linecap="round" stroke-linejoin="round"/>
</g>
<defs>
<clipPath id="clip0_26_1803">
<rect width="33.913" height="30" fill="white" transform="translate(3.69998 3)"/>
</clipPath>
</defs>
</svg>
