<svg width="29" height="31" viewBox="0 0 29 31" fill="none" xmlns="http://www.w3.org/2000/svg">
<g id="Group 140">
<path id="Vector" d="M20.9909 30.5H24.0892V19.4333H20.9909V30.5Z" fill="#D4B89F" stroke="#333333" stroke-linecap="round" stroke-linejoin="round"/>
<path id="Vector_2" d="M22.5422 25.0167C25.6381 25.0167 28.1477 20.6944 28.1477 15.3625C28.1477 10.0307 25.6381 5.70837 22.5422 5.70837C19.4464 5.70837 16.9368 10.0307 16.9368 15.3625C16.9368 20.6944 19.4464 25.0167 22.5422 25.0167Z" fill="#44D094" stroke="#333333" stroke-linecap="round" stroke-linejoin="round"/>
<path id="Vector_3" d="M8.02748 19.4333H4.92917V30.5H8.02748V19.4333Z" fill="#D4B89F" stroke="#333333" stroke-linecap="round" stroke-linejoin="round"/>
<path id="Vector_4" d="M6.48047 25.0167C9.57629 25.0167 12.0859 20.6944 12.0859 15.3625C12.0859 10.0307 9.57629 5.70837 6.48047 5.70837C3.38466 5.70837 0.875 10.0307 0.875 15.3625C0.875 20.6944 3.38466 25.0167 6.48047 25.0167Z" fill="#44D094" stroke="#333333" stroke-linecap="round" stroke-linejoin="round"/>
<path id="Vector_5" d="M16.0563 19.4333H12.958V30.5H16.0563V19.4333Z" fill="#D4B89F" stroke="#333333" stroke-linecap="round" stroke-linejoin="round"/>
<g id="Vector_6">
<path d="M19.1672 19.3041C17.9933 21.4125 16.3414 22.725 14.5135 22.725C10.9498 22.725 8.0611 17.75 8.0611 11.6125C8.0611 5.47499 10.9456 0.5 14.5093 0.5C18.073 0.5 20.9617 5.47499 20.9617 11.6125C20.9617 13.2416 20.7604 14.7875 20.3915 16.1791" fill="#44D094"/>
<path d="M19.1672 19.3041C17.9933 21.4125 16.3414 22.725 14.5135 22.725C10.9498 22.725 8.0611 17.75 8.0611 11.6125C8.0611 5.47499 10.9456 0.5 14.5093 0.5C18.073 0.5 20.9617 5.47499 20.9617 11.6125C20.9617 13.2416 20.7604 14.7875 20.3915 16.1791" stroke="#333333" stroke-linecap="round" stroke-linejoin="round"/>
</g>
<path id="Vector_7" d="M2.30884 30.5H26.7096" stroke="#333333" stroke-linecap="round" stroke-linejoin="round"/>
</g>
</svg>
