<svg width="37" height="33" viewBox="0 0 37 33" fill="none" xmlns="http://www.w3.org/2000/svg">
<g id="Frame">
<path id="Vector" d="M9.37241 32.2655V26.1196L7.1875 23.0023V8.86288C7.1875 8.17469 7.6915 7.56241 8.37405 7.49536C9.15878 7.42177 9.81896 8.03713 9.81896 8.80547V5.41076C9.81896 4.64242 10.4826 4.02745 11.2673 4.10413C11.9499 4.16771 12.4539 4.78307 12.4539 5.46817V6.54246C12.4539 5.77412 13.1144 5.15876 13.8988 5.23236C14.5848 5.2994 15.0888 5.91091 15.0888 6.59987V10.8804C15.0888 10.109 15.749 9.49365 16.5337 9.57072C17.2197 9.6343 17.7203 10.2493 17.7203 10.9348V21.3096C17.7203 22.4255 17.497 23.5314 17.0632 24.561C16.6294 25.5906 16.403 26.6964 16.403 27.812V32.2655" fill="#FFE1D7"/>
<path id="Vector_2" d="M9.37241 32.2655V26.1196L7.1875 23.0023V8.86288C7.1875 8.17469 7.6915 7.56241 8.37405 7.49536C9.15878 7.42177 9.81896 8.03713 9.81896 8.80547V5.41076C9.81896 4.64242 10.4826 4.02745 11.2673 4.10413C11.9499 4.16771 12.4539 4.78307 12.4539 5.46817V6.54246C12.4539 5.77412 13.1144 5.15876 13.8988 5.23236C14.5848 5.2994 15.0888 5.91091 15.0888 6.59987V10.8804C15.0888 10.109 15.749 9.49365 16.5337 9.57072C17.2197 9.6343 17.7203 10.2493 17.7203 10.9348V21.3096C17.7203 22.4255 17.497 23.5314 17.0632 24.561C16.6294 25.5906 16.403 26.6964 16.403 27.812V32.2655" stroke="#333333" stroke-miterlimit="10" stroke-linecap="round" stroke-linejoin="round"/>
<path id="Vector_3" d="M9.82031 8.80469V14.5395" stroke="#333333" stroke-miterlimit="10" stroke-linecap="round" stroke-linejoin="round"/>
<path id="Vector_4" d="M12.4531 6.54297V14.54" stroke="#333333" stroke-width="3" stroke-miterlimit="10" stroke-linecap="round" stroke-linejoin="round"/>
<path id="Vector_5" d="M15.0859 10.8789V14.5399" stroke="#333333" stroke-width="3" stroke-miterlimit="10" stroke-linecap="round" stroke-linejoin="round"/>
<path id="Vector_6" d="M9.37046 26.1188L3.51716 17.7615L2.59823 16.448C2.41661 16.1898 2.40697 15.8838 2.51571 15.6353C2.63988 15.3486 2.92061 15.1348 3.28116 15.1348C3.82681 15.1348 4.35935 15.2496 4.84754 15.4634C5.33226 15.6765 5.77881 15.9925 6.14553 16.3909L8.1199 18.5356C9.10245 18.5356 9.99593 18.9341 10.6368 19.5779C11.2812 20.2187 11.6799 21.1115 11.6799 22.0933V23.8146" fill="#FFE1D7"/>
<path id="Vector_7" d="M9.37046 26.1188L3.51716 17.7615L2.59823 16.448C2.41661 16.1898 2.40697 15.8838 2.51571 15.6353C2.63988 15.3486 2.92061 15.1348 3.28116 15.1348C3.82681 15.1348 4.35935 15.2496 4.84754 15.4634C5.33226 15.6765 5.77881 15.9925 6.14553 16.3909L8.1199 18.5356C9.10245 18.5356 9.99593 18.9341 10.6368 19.5779C11.2812 20.2187 11.6799 21.1115 11.6799 22.0933V23.8146" stroke="#333333" stroke-miterlimit="10" stroke-linecap="round" stroke-linejoin="round"/>
<path id="Vector_8" d="M28.5744 32.2655V26.1196L30.7597 23.0023V8.86288C30.7597 8.17469 30.2553 7.56241 29.5728 7.49536C28.7881 7.42177 28.1279 8.03713 28.1279 8.80547V5.41076C28.1279 4.64242 27.4642 4.02745 26.6795 4.10413C25.9969 4.16771 25.4929 4.78307 25.4929 5.46817V6.54246C25.4929 5.77412 24.8328 5.15876 24.048 5.23236C23.362 5.2994 22.858 5.91091 22.858 6.59987V10.8804C22.858 10.109 22.1978 9.49365 21.4131 9.57072C20.7271 9.6343 20.2266 10.2493 20.2266 10.9348V21.3096C20.2266 22.4255 20.4498 23.5314 20.8837 24.561C21.3175 25.5906 21.5438 26.6964 21.5438 27.812V32.2655" fill="#FFE1D7"/>
<path id="Vector_9" d="M28.5744 32.2655V26.1196L30.7597 23.0023V8.86288C30.7597 8.17469 30.2553 7.56241 29.5728 7.49536C28.7881 7.42177 28.1279 8.03713 28.1279 8.80547V5.41076C28.1279 4.64242 27.4642 4.02745 26.6795 4.10413C25.9969 4.16771 25.4929 4.78307 25.4929 5.46817V6.54246C25.4929 5.77412 24.8328 5.15876 24.048 5.23236C23.362 5.2994 22.858 5.91091 22.858 6.59987V10.8804C22.858 10.109 22.1978 9.49365 21.4131 9.57072C20.7271 9.6343 20.2266 10.2493 20.2266 10.9348V21.3096C20.2266 22.4255 20.4498 23.5314 20.8837 24.561C21.3175 25.5906 21.5438 26.6964 21.5438 27.812V32.2655" stroke="#333333" stroke-miterlimit="10" stroke-linecap="round" stroke-linejoin="round"/>
<path id="Vector_10" d="M28.125 8.80469V14.5395" stroke="#333333" stroke-miterlimit="10" stroke-linecap="round" stroke-linejoin="round"/>
<path id="Vector_11" d="M25.4922 6.54297V14.54" stroke="#333333" stroke-width="3" stroke-miterlimit="10" stroke-linecap="round" stroke-linejoin="round"/>
<path id="Vector_12" d="M22.8594 10.8789V14.5399" stroke="#333333" stroke-width="3" stroke-miterlimit="10" stroke-linecap="round" stroke-linejoin="round"/>
<path id="Vector_13" d="M28.5751 26.1188L34.4284 17.7615L35.3473 16.448C35.5289 16.1898 35.5386 15.8838 35.4302 15.6353C35.3057 15.3486 35.0249 15.1348 34.6648 15.1348C34.1191 15.1348 33.5866 15.2496 33.0984 15.4634C32.6137 15.6765 32.1667 15.9925 31.8 16.3909L29.8257 18.5356C28.8431 18.5356 27.9496 18.9341 27.3087 19.5779C26.6644 20.2187 26.2656 21.1115 26.2656 22.0933V23.8146" fill="#FFE1D7"/>
<path id="Vector_14" d="M28.5751 26.1188L34.4284 17.7615L35.3473 16.448C35.5289 16.1898 35.5386 15.8838 35.4302 15.6353C35.3057 15.3486 35.0249 15.1348 34.6648 15.1348C34.1191 15.1348 33.5866 15.2496 33.0984 15.4634C32.6137 15.6765 32.1667 15.9925 31.8 16.3909L29.8257 18.5356C28.8431 18.5356 27.9496 18.9341 27.3087 19.5779C26.6644 20.2187 26.2656 21.1115 26.2656 22.0933V23.8146" stroke="#333333" stroke-miterlimit="10" stroke-linecap="round" stroke-linejoin="round"/>
<path id="Vector_15" d="M23.9882 2.32227C21.2171 2.32227 18.9713 4.56678 18.9713 7.33533C18.9713 4.56678 16.7251 2.32227 13.9544 2.32227C11.1833 2.32227 8.9375 4.56678 8.9375 7.33533C8.9375 11.2148 10.6736 14.8908 13.6706 17.3568L18.9713 21.7183L24.2716 17.3568C27.2686 14.8908 29.0051 11.2148 29.0051 7.33533C29.0051 4.56678 26.7588 2.32227 23.9882 2.32227Z" fill="#FF5F5F"/>
<path id="Vector_16" d="M23.9882 2.32227C21.2171 2.32227 18.9713 4.56678 18.9713 7.33533C18.9713 4.56678 16.7251 2.32227 13.9544 2.32227C11.1833 2.32227 8.9375 4.56678 8.9375 7.33533C8.9375 11.2148 10.6736 14.8908 13.6706 17.3568L18.9713 21.7183L24.2716 17.3568C27.2686 14.8908 29.0051 11.2148 29.0051 7.33533C29.0051 4.56678 26.7588 2.32227 23.9882 2.32227Z" stroke="#333333" stroke-miterlimit="10" stroke-linecap="round" stroke-linejoin="round"/>
<path id="Vector_17" d="M13.6641 4.26153C13.7595 4.25267 13.8564 4.24805 13.9541 4.24805" stroke="white" stroke-miterlimit="10" stroke-linecap="round" stroke-linejoin="round"/>
<path id="Vector_18" d="M10.8672 7.33512C10.8672 6.40533 11.2806 5.57033 11.9338 5.00391" stroke="white" stroke-miterlimit="10" stroke-linecap="round" stroke-linejoin="round"/>
</g>
</svg>
