<svg width="26" height="26" viewBox="0 0 26 26" fill="none" xmlns="http://www.w3.org/2000/svg">
<g id="Frame 238" clip-path="url(#clip0_277_2987)">
<g id="Group 102">
<path id="Vector" d="M4.91406 6.23028C4.91406 2.87878 7.50228 0.5 11.0422 0.5C14.582 0.5 17.1493 2.87878 17.1493 6.23028C17.1493 9.58177 14.582 11.9606 11.0422 11.9606C7.50228 11.9606 4.91406 9.58177 4.91406 6.23028ZM13.8781 6.23028C13.8781 4.30618 12.6566 3.14783 11.0422 3.14783C9.42713 3.14783 8.18532 4.30618 8.18532 6.23028C8.18532 8.15438 9.42713 9.31272 11.0422 9.31272C12.6566 9.31272 13.8781 8.15438 13.8781 6.23028Z" fill="#BFC0C0"/>
<path id="Vector_2" d="M20.9104 19.4039C20.9104 23.0177 18.1981 25.2648 13.8628 25.2648H9.6692H5.91406V13.5195H13.8628C18.1981 13.5195 20.9104 15.7672 20.9104 19.4039ZM17.1088 19.4039C17.1088 17.6201 15.9494 16.5777 13.6545 16.5777H9.6692V22.207H13.6545C15.9494 22.207 17.1088 21.1649 17.1088 19.4039Z" fill="#BFC0C0"/>
<g id="Group">
<g id="Clip path group">
<mask id="mask0_277_2987" style="mask-type:luminance" maskUnits="userSpaceOnUse" x="6" y="13" width="13" height="13">
<g id="SVGID_2_">
<path id="Vector_3" d="M13.6604 22.2068H10.8563L13.9163 25.2646C14.1901 25.2636 14.4573 25.2535 14.7179 25.2347L18.485 20.8227L17.1145 19.4532C17.0928 21.1844 15.9338 22.2068 13.6604 22.2068ZM7.85472 13.5195C7.61456 13.6569 7.38841 13.8281 7.1834 14.033C5.93887 15.2766 5.93887 17.2929 7.1834 18.5365L9.67518 21.0267V16.5775H13.6604C13.8709 16.5775 14.0715 16.5863 14.2627 16.6037L11.6902 14.033C11.4852 13.8281 11.2592 13.6569 11.0191 13.5195H7.85472Z" fill="white"/>
</g>
</mask>
<g mask="url(#mask0_277_2987)">
<path id="Vector_4" d="M24.3592 19.5224L12.0699 31.5301L0.0625 19.2586L12.3517 7.25098L24.3592 19.5224Z" fill="url(#paint0_linear_277_2987)"/>
</g>
</g>
</g>
<g id="Group_2">
<g id="Clip path group_2">
<mask id="mask1_277_2987" style="mask-type:luminance" maskUnits="userSpaceOnUse" x="10" y="13" width="11" height="13">
<g id="SVGID_5_">
<path id="Vector_5" d="M16.9751 14.0332L14.3891 16.6173C16.1975 16.8226 17.11 17.8214 17.11 19.4039C17.11 21.165 15.9506 22.2071 13.6557 22.2071H10.8516L13.9115 25.2648C14.2101 25.2636 14.5017 25.2519 14.7843 25.2295L20.9057 19.1127C20.8034 16.6131 19.3796 14.8094 17.0106 13.9983C16.9987 14.0098 16.9868 14.0215 16.9751 14.0332Z" fill="white"/>
</g>
</mask>
<g mask="url(#mask1_277_2987)">
<path id="Vector_6" d="M26.4405 20.1393L16.3332 8.92188L5.32031 19.1244L15.4276 30.3418L26.4405 20.1393Z" fill="url(#paint1_linear_277_2987)"/>
</g>
</g>
</g>
</g>
</g>
<defs>
<linearGradient id="paint0_linear_277_2987" x1="14.2284" y1="17.4184" x2="10.2695" y2="21.2921" gradientUnits="userSpaceOnUse">
<stop stop-color="#E61C76"/>
<stop offset="0.1687" stop-color="#CE1A77"/>
<stop offset="0.4607" stop-color="#A2197A"/>
<stop offset="0.7066" stop-color="#7E1B7C"/>
<stop offset="0.8937" stop-color="#671D7E"/>
<stop offset="1" stop-color="#5D1E7E"/>
</linearGradient>
<linearGradient id="paint1_linear_277_2987" x1="18.1541" y1="22.1566" x2="13.5659" y2="17.2039" gradientUnits="userSpaceOnUse">
<stop stop-color="#5D1E7E"/>
<stop offset="0.1447" stop-color="#5C3687"/>
<stop offset="0.4604" stop-color="#5468A4"/>
<stop offset="0.9202" stop-color="#2FABD3"/>
<stop offset="1" stop-color="#20B6DA"/>
</linearGradient>
<clipPath id="clip0_277_2987">
<rect width="25" height="25" fill="white" transform="translate(0.875 0.5)"/>
</clipPath>
</defs>
</svg>
