<svg width="25" height="24" viewBox="0 0 25 24" fill="none" xmlns="http://www.w3.org/2000/svg">
<g id="Frame 207">
<g id="Group 2">
<path id="Vector" d="M19.7577 22.7369H3.93668C3.1472 22.7369 2.51562 22.0852 2.51562 21.2705V19.9019C2.51562 16.5783 4.63141 13.5804 7.9472 12.0815C6.9051 10.9084 6.33668 9.37691 6.33668 7.74765C6.33668 4.16327 9.1472 1.26318 12.6209 1.26318C16.0946 1.26318 18.9051 4.16327 18.9051 7.74765C18.9051 9.37691 18.3367 10.9084 17.2946 12.0815C20.5788 13.5804 22.7262 16.5457 22.7262 19.9019C22.7262 20.4559 22.3156 20.8795 21.7788 20.8795C21.2419 20.8795 20.8314 20.4559 20.8314 19.9019C20.8314 17.0019 18.4946 14.2973 15.1788 13.3849C14.7998 13.2871 14.5472 12.9613 14.484 12.5703C14.4209 12.1792 14.6104 11.7882 14.9262 11.5927C16.2525 10.7781 17.0104 9.31174 17.0104 7.71506C17.0104 5.206 15.0209 3.18571 12.6209 3.18571C10.2209 3.18571 8.19984 5.23858 8.19984 7.71506C8.19984 9.31174 8.98931 10.7455 10.284 11.5927C10.5998 11.7882 10.7893 12.1792 10.7262 12.5703C10.663 12.9613 10.4104 13.2871 10.0314 13.3849C6.71563 14.2973 4.37878 16.9693 4.37878 19.9019V20.7818H19.7577C20.2946 20.7818 20.7051 21.2054 20.7051 21.7593C20.7051 22.3133 20.2946 22.7369 19.7577 22.7369Z" fill="#660F89"/>
</g>
</g>
</svg>
