<svg width="25" height="24" viewBox="0 0 25 24" fill="none" xmlns="http://www.w3.org/2000/svg">
<g id="menu">
<mask id="mask0_277_3003" style="mask-type:alpha" maskUnits="userSpaceOnUse" x="0" y="0" width="25" height="24">
<rect id="Bounding box" x="0.125" width="24" height="24" rx="12" fill="#D9D9D9"/>
</mask>
<g mask="url(#mask0_277_3003)">
<path id="menu_2" d="M4.125 19C3.57272 19 3.125 18.5523 3.125 18C3.125 17.4477 3.57272 17 4.125 17H20.125C20.6773 17 21.125 17.4477 21.125 18C21.125 18.5523 20.6773 19 20.125 19H4.125ZM4.125 13C3.57272 13 3.125 12.5523 3.125 12C3.125 11.4477 3.57272 11 4.125 11H20.125C20.6773 11 21.125 11.4477 21.125 12C21.125 12.5523 20.6773 13 20.125 13H4.125ZM4.125 7C3.57272 7 3.125 6.55228 3.125 6C3.125 5.44772 3.57272 5 4.125 5H20.125C20.6773 5 21.125 5.44772 21.125 6C21.125 6.55228 20.6773 7 20.125 7H4.125Z" fill="#AAAAAA"/>
</g>
</g>
</svg>
