<svg width="20" height="20" viewBox="0 0 20 20" fill="none" xmlns="http://www.w3.org/2000/svg">
<g id="add_task">
<mask id="mask0_116_1361" style="mask-type:alpha" maskUnits="userSpaceOnUse" x="0" y="0" width="20" height="20">
<rect id="Bounding box" width="20" height="20" fill="#D9D9D9"/>
</mask>
<g mask="url(#mask0_116_1361)">
<path id="add_task_2" d="M9.99495 17.9163C8.9012 17.9163 7.87328 17.7083 6.9112 17.2922C5.94925 16.8761 5.11182 16.3119 4.39891 15.5997C3.68599 14.8875 3.12161 14.0499 2.70578 13.087C2.28995 12.1242 2.08203 11.0954 2.08203 10.0007C2.08203 8.90599 2.28988 7.8769 2.70557 6.91342C3.12113 5.94995 3.68516 5.1119 4.39766 4.39926C5.11016 3.68662 5.948 3.12238 6.9112 2.70655C7.87439 2.29085 8.90356 2.08301 9.9987 2.08301C10.8765 2.08301 11.707 2.21495 12.4904 2.47884C13.2737 2.74273 13.9923 3.11079 14.6462 3.58301L13.7422 4.5078C13.2038 4.13697 12.6205 3.84849 11.9924 3.64238C11.3644 3.43613 10.6998 3.33301 9.9987 3.33301C8.15148 3.33301 6.57856 3.98231 5.27995 5.28092C3.98134 6.57954 3.33203 8.15245 3.33203 9.99967C3.33203 11.8469 3.98134 13.4198 5.27995 14.7184C6.57856 16.017 8.15148 16.6663 9.9987 16.6663C10.4645 16.6663 10.9165 16.6193 11.3545 16.5253C11.7926 16.4313 12.214 16.2999 12.6189 16.1311L13.5564 17.0813C13.019 17.3484 12.4525 17.5544 11.8568 17.6993C11.2613 17.844 10.6406 17.9163 9.99495 17.9163ZM16.0404 16.458V13.958H13.5404V12.708H16.0404V10.208H17.2904V12.708H19.7904V13.958H17.2904V16.458H16.0404ZM8.81599 13.5445L5.56286 10.2913L6.44099 9.41322L8.81599 11.7882L17.0372 3.55426L17.9154 4.43238L8.81599 13.5445Z" fill="white"/>
</g>
</g>
</svg>
