<svg width="60" height="85" viewBox="0 0 60 85" fill="none" xmlns="http://www.w3.org/2000/svg">
<g id="Isolation_Mode" clip-path="url(#clip0_116_1247)">
<g id="Group">
<g id="Group_2">
<path id="Vector" d="M51.5416 41.4234C50.5192 40.7698 49.3125 40.4145 48.0153 40.1564C47.5259 40.0592 47.0265 39.9754 46.517 39.8949C46.3125 39.8614 46.1148 39.8245 45.9271 39.781C46.4667 38.819 46.7047 38.0983 46.7919 37.5854C46.7986 37.5419 46.8053 37.5016 46.812 37.4614C46.8924 36.8648 47.5259 36.5061 48.0589 36.781C48.3807 36.9452 48.7125 37.2033 48.9974 37.6022C49.8958 38.8592 53.66 40.4715 55.0645 41.162C56.469 41.8491 57.1863 43.3139 57.9941 47.2893C58.8019 51.2648 58.1148 58.0793 58.3528 61.1597C58.5907 64.2402 59.0399 66.7273 59.4287 67.981C59.8176 69.2312 59.7572 69.7977 59.4287 70.5787C59.1002 71.353 59.8176 71.5642 59.4287 73.2368C59.0399 74.9095 59.7874 74.524 59.0701 75.7173C58.3528 76.9106 60.0857 77.8391 59.1907 79.4245C58.2924 81.0067 60.0891 84.8044 55.1248 87.1944C55.1248 87.1944 52.8455 87.3184 49.5304 86.6815C47.8008 86.353 45.7863 85.81 43.6712 84.9385C43.4902 84.8648 43.3997 84.667 43.46 84.4826C43.4835 84.4089 43.5103 84.3217 43.5405 84.2279C43.7148 83.6581 43.9762 82.7061 44.174 81.5296C50.0935 83.3865 57.0891 83.8793 58.0008 80.829C58.2857 79.8737 58.1952 78.972 57.9472 78.1005C57.4544 76.3642 56.3382 74.7419 56.3014 73.0525C56.288 72.553 56.3718 72.0469 56.5896 71.534C57.9304 68.3933 56.5628 68.8726 55.2488 65.0547C53.9349 61.2368 54.1729 62.115 54.7695 51.8949C55.1349 45.6502 53.7572 42.8379 51.5416 41.4268V41.4234Z" fill="#93C8D8"/>
<path id="Vector_2" d="M57.9435 78.101C58.1881 78.9726 58.282 79.8742 57.9971 80.8295C57.0854 83.8798 50.0898 83.3871 44.1703 81.5301C44.5256 79.4318 44.6798 76.6228 43.7915 74.0251C43.7747 73.9714 43.758 73.9212 43.7379 73.8709C43.6507 73.6195 43.8451 73.358 44.1133 73.3748C44.6429 73.4117 45.4909 73.4586 46.4865 73.4586C46.758 73.4586 47.0328 73.4552 47.3245 73.4452C47.4284 73.4452 47.5356 73.4385 47.6362 73.4351C49.5435 73.3748 50.7166 73.3312 51.5379 74.0418C52.406 74.7893 53.244 75.5334 54.4373 75.9826C55.634 76.4318 56.9479 76.8809 57.6652 78.1346L57.9435 78.0977V78.101Z" fill="#AFDAEA"/>
<path id="Vector_3" d="M57.9457 78.1007L57.6675 78.1375C56.9501 76.8805 55.6362 76.4347 54.4395 75.9856C53.2429 75.5364 52.4082 74.7889 51.5401 74.0448C50.7189 73.3342 49.5457 73.3778 47.6384 73.4381L47.625 73.0258C47.625 73.0258 47.9233 72.7576 48.5803 72.1878C49.2373 71.6213 49.6261 71.5342 52.5859 71.5342C54.6809 71.5342 55.8172 72.4928 56.3032 73.0526C56.3401 74.742 57.4563 76.3643 57.949 78.1007H57.9457Z" fill="#93C8D8"/>
<path id="Vector_4" d="M34.3494 58.5393C35.174 56.9137 36.1527 55.3282 37.641 53.1494C38.4924 51.9058 39.4242 50.6924 40.3728 49.5427C41.9516 47.6287 43.5706 45.8757 44.9349 44.4209C46.2187 43.05 47.3248 41.3371 48.0187 40.1572C49.3159 40.4153 50.5192 40.7706 51.5449 41.4243C53.7606 42.8388 55.1382 45.6477 54.7728 51.8924C54.1762 62.1159 53.9349 61.2377 55.2522 65.0522C56.5661 68.8701 57.9337 68.3907 56.593 71.5315C56.3717 72.0444 56.2879 72.5505 56.3047 73.05C55.8187 72.4902 54.6823 71.5315 52.5874 71.5315C49.6276 71.5315 49.2388 71.6187 48.5818 72.1852C47.9248 72.755 47.6265 73.0232 47.6265 73.0232L47.6399 73.4354C47.5393 73.4354 47.4354 73.4421 47.3282 73.4455C47.0399 73.4522 46.7617 73.4589 46.4902 73.4589C46.4902 73.4589 46.8187 72.2522 46.6108 70.4857C46.3997 68.7226 45.8935 68.0656 45.9237 66.393C45.9539 64.7204 46.5907 64.1505 46.3025 62.4477C46.0142 60.7416 45.9237 61.0131 45.9237 58.6231C45.9237 56.2332 45.974 54.1081 46.6812 51.2388C46.9594 50.1058 47.2276 49.1137 47.5058 48.2388C46.9293 48.1919 44.5025 48.2488 44.1337 52.1974C43.7147 56.6824 44.5661 54.9461 43.5438 60.3259C42.5214 65.7058 41.9952 66.3628 42.3773 69.2924C42.6723 71.565 42.5315 72.8086 42.4377 73.5259C39.5147 72.4399 32.7069 69.8488 30.3203 68.4578C30.1393 68.3539 29.965 68.2533 29.8008 68.1595L29.9013 67.9852C30.2533 65.8131 31.7349 62.3505 33.793 58.2611L34.3527 58.5427L34.3494 58.5393Z" fill="#AFDAEA"/>
<path id="Vector_5" d="M52.1037 105.097H44.3909C44.1361 103.729 43.8412 101.986 43.7875 100.914C43.6903 98.9395 43.5864 99.4791 44.4847 93.9786C45.3831 88.478 43.8278 92.2456 42.2456 88.9573C41.2836 86.9562 41.6356 84.9115 42.0579 83.6177C42.6512 83.8959 43.154 84.1071 43.5361 84.2244C43.506 84.3216 43.4792 84.4054 43.4557 84.4791C43.3954 84.6635 43.4892 84.8612 43.6669 84.935C45.782 85.8065 47.7965 86.3495 49.5261 86.678C49.5261 86.678 49.4926 88.897 49.5261 91.7964C49.5596 94.6959 50.6959 95.2925 50.3373 97.2635C49.9786 99.2378 51.0546 99.2948 51.1149 101.031C51.1753 102.767 52.1037 105.097 52.1037 105.097Z" fill="#93C8D8"/>
<path id="Vector_6" d="M50.5509 27.9428C50.7956 28.0032 50.9766 28.0032 50.9766 28.0032C48.4257 28.8613 47.6481 27.2858 47.6481 27.2858C47.6481 27.2858 47.3431 27.9227 46.7129 28.4825C46.2973 27.8121 46.2101 26.9775 47.2425 26.1495C49.5554 24.2892 49.7464 20.9305 47.4235 18.6177C45.104 16.3048 44.0649 13.459 43.2604 7.95847C42.7475 4.45233 40.5084 1.99199 38.9531 0.667969C45.3118 2.14953 46.733 11.4512 49.304 16.2881C51.8649 21.1115 53.447 22.9283 50.7185 26.1529C50.0548 26.9339 51.0135 27.5339 51.1241 27.6009C50.9866 27.8255 50.7554 27.9127 50.5509 27.9462V27.9428Z" fill="#4C3633"/>
<path id="Vector_7" d="M47.8789 40.1602C47.1851 41.34 46.0789 43.0495 44.7951 44.4238C43.4309 45.8786 41.8119 47.6317 40.2331 49.5456L39.7136 49.3177L37.8633 50.9937C38.2588 50.4071 38.6342 49.8708 38.9862 49.378C39.5326 48.6071 40.0085 47.93 40.4007 47.3233C41.7147 45.292 42.9415 44.0953 45.1236 40.8674C45.3851 40.4786 45.6096 40.1199 45.794 39.7881C45.9817 39.8317 46.1795 39.8685 46.384 39.9021C46.8935 39.9825 47.3929 40.0663 47.8823 40.1635L47.8789 40.1602Z" fill="#AFDAEA"/>
<path id="Vector_8" d="M22.3817 32.9764C21.6543 33.2646 20.9236 33.1875 20.4074 33.0568C20.213 33.0065 20.1996 32.7317 20.3907 32.6646C21.8722 32.1451 21.4867 30.2646 19.8577 29.2389C18.0041 28.0725 18.2152 24.697 19.0532 22.2635C19.8912 19.83 19.7102 18.9283 19.918 13.9942C20.0722 10.3272 21.899 9.45235 22.8242 9.24453C23.1594 9.17078 23.4242 8.92274 23.5381 8.5976C24.175 6.74062 26.6923 1.18307 32.7929 1.12609C32.8935 1.09592 33.0543 1.08922 33.2823 1.17302C35.5314 0.405421 37.3918 0.294807 38.9605 0.663522C40.5158 1.98754 42.7516 4.44788 43.2678 7.95402C44.0722 13.4546 45.1113 16.3004 47.4309 18.6132C49.7538 20.9261 49.5627 24.2847 47.2499 26.1451C46.2208 26.9764 46.3046 27.811 46.7203 28.478C46.0432 29.0847 44.9907 29.6043 43.5393 29.1417C43.4588 29.0646 43.3951 28.9775 43.3516 28.9037C43.1002 29.0043 42.8555 29.078 42.6208 29.1317C41.4409 29.3998 40.4655 29.1317 39.7013 28.6959C39.0711 28.3339 38.5951 27.8613 38.27 27.4792C38.0722 27.2412 38.2331 26.8758 38.5415 26.8725C40.5326 26.8289 41.8164 25.23 42.1884 24.697C42.2622 24.5931 42.3828 24.5361 42.5136 24.5395C45.8119 24.6065 46.5091 19.4345 45.5571 18.1172C44.9739 17.3093 44.4208 17.4702 44.0756 17.7317C43.8476 17.9026 43.7002 18.1607 43.6298 18.4356C42.6912 22.0591 40.1002 22.5417 40.1002 22.5417C35.1192 23.1786 32.089 14.8121 29.6286 11.5004C27.3359 8.41659 25.003 10.5283 24.7013 10.83C24.5806 11.0378 24.3259 11.0915 24.1583 11.1015C24.1583 11.1015 23.9571 11.3294 23.6856 11.7753C23.1795 11.5775 22.1873 11.7149 21.6108 15.2847C20.813 20.2255 21.8722 20.8222 22.1002 23.2155C22.3281 25.6054 20.746 26.2155 22.9717 29.2389C24.2856 31.0222 24.2689 32.2255 24.0342 32.9127C23.7393 33.1306 23.4175 33.2177 23.2063 33.2546C22.8443 33.201 22.5661 33.0836 22.3784 32.9764H22.3817Z" fill="#5E443F"/>
<path id="Vector_9" d="M44.1292 52.1939C44.4979 48.2452 46.9248 48.1916 47.5013 48.2352C47.2231 49.11 46.9549 50.1022 46.6767 51.2352C45.9694 54.1045 45.9192 56.2296 45.9192 58.6195C45.9192 61.0095 46.0097 60.7413 46.2979 62.4441C46.5862 64.1469 45.9527 64.7168 45.9192 66.3894C45.889 68.062 46.3985 68.719 46.6063 70.4821C46.8141 72.2452 46.4856 73.4553 46.4856 73.4553C45.4901 73.4553 44.6421 73.4084 44.1125 73.3715C43.8443 73.3514 43.6499 73.6162 43.737 73.8676C43.7572 73.9212 43.7739 73.9715 43.7907 74.0218C43.7907 74.0218 43.2711 73.8341 42.4298 73.519C42.527 72.8017 42.6678 71.5614 42.3694 69.2855C41.9907 66.3559 42.5136 65.6989 43.5359 60.319C44.5583 54.9391 43.7069 56.6721 44.1259 52.1905L44.1292 52.1939Z" fill="#93C8D8"/>
<path id="Vector_10" d="M46.7949 37.589C46.7077 38.1019 46.4731 38.8192 45.9301 39.7846C41.7033 38.8628 41.3379 35.7287 40.882 32.5041C40.4027 29.1354 38.0128 38.5611 35.063 39.1175C33.1357 39.4829 32.0731 38.5443 31.5703 37.8505C32.2474 37.1968 32.9178 36.1443 33.082 34.4952C34.6608 33.7879 37.3994 32.1522 39.7022 28.6963C40.4664 29.132 41.4418 29.4002 42.6217 29.132C42.6217 29.132 40.8485 36.332 46.7949 37.589Z" fill="#EAC3B9"/>
<path id="Vector_11" d="M28.8899 27.1006C29.1614 26.6514 28.9268 26.3162 28.0083 26.286C27.3145 26.2626 27.053 26.5307 26.9625 26.7654C27.0329 26.8156 27.11 26.8626 27.1972 26.8961C27.6161 27.0637 28.1692 27.1575 28.8899 27.1006ZM23.6877 11.7788C23.9592 11.333 24.1603 11.105 24.1603 11.105C24.3279 11.0916 24.5826 11.0413 24.7033 10.8335C25.0083 10.5318 27.3379 8.41676 29.6307 11.5039C32.091 14.8123 35.1212 23.1821 40.1022 22.5453C40.1022 22.5453 42.6932 22.0659 43.6318 18.4391C43.7022 18.1642 43.853 17.9061 44.0776 17.7352C44.4229 17.4737 44.9759 17.3129 45.5592 18.1207C46.5111 19.438 45.8139 24.6101 42.5156 24.543C42.3849 24.543 42.2642 24.5967 42.1905 24.7006C41.8184 25.2335 40.5346 26.8324 38.5435 26.876C38.2351 26.8793 38.0709 27.248 38.272 27.4827C38.5938 27.8648 39.0731 28.3374 39.7033 28.6994C37.4005 32.1553 34.6586 33.7911 33.0832 34.4983C33.053 34.5117 33.0195 34.5285 32.9927 34.5386C32.2486 34.8637 31.3972 34.8637 30.6597 34.5184C29.4195 33.9386 28.3837 33.181 27.5189 32.333C24.3715 29.2492 23.4999 24.9754 23.4027 23.6179C23.3659 23.0883 23.2888 22.6592 23.1882 22.3877C23.0206 21.9285 22.8463 21.4726 22.7156 21.0034C21.4351 16.3006 22.8798 13.0961 23.6877 11.7788ZM32.3223 23.0615C32.6039 22.9911 32.7413 22.5721 32.6273 22.1296C32.5134 21.6872 32.1882 21.3888 31.9067 21.4592C31.6284 21.533 31.491 21.9486 31.605 22.3911C31.7189 22.8369 32.0407 23.1352 32.3223 23.0615ZM26.1111 23.648C26.3659 23.581 26.4899 23.2056 26.386 22.8067C26.2821 22.4045 25.9905 22.1363 25.7391 22.2034C25.4843 22.267 25.3603 22.6458 25.4642 23.0447C25.5681 23.4436 25.8597 23.7151 26.1111 23.648Z" fill="#FFE0D7"/>
<path id="Vector_12" d="M45.9293 39.7838C45.745 40.1123 45.5238 40.4709 45.259 40.8631C43.0768 44.091 41.85 45.2877 40.536 47.319C40.1439 47.9223 39.6645 48.5994 39.1215 49.3737C39.1215 49.3737 32.7662 50.8184 30.3729 50.8486C27.983 50.8788 25.65 50.8788 24.1282 50.0106C22.6031 49.1424 22.04 48.5491 21.7383 47.7715C22.526 46.9637 23.2433 46.2631 23.5986 45.8139C24.5137 44.6575 26.4277 43.4039 28.2009 41.5704C29.374 40.3603 29.8266 39.3648 29.9975 38.8318C29.9975 38.8318 30.7819 38.6072 31.5629 37.8531C32.0657 38.5469 33.1282 39.4855 35.0556 39.1201C38.0053 38.5637 40.3986 29.138 40.8746 32.5067C41.3305 35.7313 41.6958 38.862 45.9226 39.7871L45.9293 39.7838Z" fill="#FFE0D7"/>
<path id="Vector_13" d="M42.2483 88.9579C43.8304 92.2461 45.3858 88.4785 44.4874 93.9791C43.5891 99.4797 43.6964 98.94 43.7902 100.914C43.8439 101.987 44.1355 103.73 44.3936 105.098H30.912C30.912 105.098 30.9824 104.89 30.912 101.769C30.8081 97.0796 30.2014 96.788 30.1411 93.7378C30.0774 90.6875 29.598 88.8372 29.598 86.3266C29.598 83.816 29.0651 77.7791 29.1858 76.4618L29.3735 76.207C33.0874 78.54 38.8796 82.1098 42.064 83.6182C41.6416 84.9121 41.2863 86.9568 42.2517 88.9579H42.2483Z" fill="#AFDAEA"/>
<path id="Vector_14" d="M15.2839 70.7399C15.2839 70.7399 14.7141 70.3679 15.0325 69.5399C15.2873 68.8762 15.8269 68.6952 16.5208 68.4003L16.4839 68.3131C16.5711 68.0852 16.6716 67.8774 16.7822 67.6997C16.8459 67.5891 16.913 67.4919 16.9834 67.4014C17.3219 66.9455 17.8012 66.6204 18.3342 66.4293C18.6761 66.3086 19.1487 66.1377 19.6482 65.9567C20.3118 65.7187 21.0292 65.4606 21.5621 65.2695C22.8761 64.7902 24.0727 65.1891 25.2091 65.8863C25.9431 66.3388 26.58 66.5299 27.7666 67.0963C28.3063 67.3511 28.9599 67.6863 29.7912 68.1589C29.9554 68.2528 30.1297 68.3533 30.3107 68.4572C32.694 69.8483 39.5051 72.4394 42.428 73.5254C43.2694 73.8371 43.7889 74.0282 43.7889 74.0282C44.6772 76.626 44.523 79.4315 44.1677 81.5332C43.4772 81.3187 42.8035 81.0841 42.1532 80.8327C35.9353 78.4427 34.6046 76.5287 30.428 74.3165C28.9297 73.5254 27.4783 72.9891 26.1577 72.6706C23.7912 72.1008 21.847 72.2181 20.8113 72.7813C19.3867 73.5556 16.3867 73.4751 16.685 74.2293C16.6683 74.2293 16.6549 74.236 16.6381 74.2394C15.9375 74.3902 15.0325 74.5846 14.4996 74.7187C13.9364 74.8561 13.4839 74.893 13.2258 74.7388C13.0381 74.6282 12.9543 74.4237 13.0046 74.0885C13.1018 73.4416 13.7588 73.026 14.2616 72.8248L14.2415 72.7813C14.2415 72.7813 13.7118 72.5634 13.7118 71.9936C13.7118 71.4237 14.4091 71.0282 14.9286 70.8673C15.0057 70.8438 15.1264 70.8003 15.2772 70.7433L15.2839 70.7399Z" fill="#FFE0D7"/>
<path id="Vector_15" d="M27.6613 75.1317C27.1049 74.7764 26.6557 74.4948 26.354 74.3004C26.2401 73.3451 26.1328 72.7786 26.1328 72.7786L26.1596 72.668C27.4803 72.9864 28.935 73.5227 30.43 74.3138C34.6066 76.5261 35.9373 78.44 42.1552 80.83C42.8054 81.0814 43.4792 81.316 44.1697 81.5305C43.9719 82.7037 43.7105 83.659 43.5362 84.2289C43.154 84.1115 42.6512 83.9004 42.058 83.6222C38.8736 82.1138 33.0814 78.5439 29.3674 76.211C28.7306 75.8088 28.1507 75.4434 27.658 75.1317H27.6613Z" fill="#EAC3B9"/>
<path id="Vector_16" d="M39.7215 49.1572L40.3684 49.5427C39.4231 50.6924 38.4879 51.9058 37.6366 53.1494C36.1483 55.3282 35.1695 56.9137 34.3449 58.5394L33.7852 58.2578C34.0131 57.7986 34.2544 57.3293 34.4991 56.8567C35.7393 54.4567 37.1606 52.2343 38.2164 50.6723L39.7215 49.1572Z" fill="#AFDAEA"/>
<path id="Vector_17" d="M39.1236 49.3746C38.775 49.8707 38.3995 50.4036 38.0007 50.9902L37.4208 51.5165C37.4208 51.5165 33.4454 57.8114 30.9113 61.1265C29.1549 63.426 28.1962 65.836 27.7705 67.093C26.5806 66.5265 25.947 66.3355 25.213 65.8829C24.0766 65.1857 22.88 64.7869 21.566 65.2662C21.0331 65.4572 20.3157 65.7187 19.6521 65.9533C16.4778 64.9578 15.1638 62.9869 14.6543 61.8639C14.7448 60.3891 15.1839 59.0818 15.509 58.0896C16.2264 55.8975 18.0565 53.9433 18.6968 51.8718C18.7705 51.6271 18.8845 51.3723 19.0286 51.1075C19.6252 50.0114 20.7347 48.8014 21.737 47.7656C22.0387 48.5466 22.6018 49.1366 24.1269 50.0047C25.6487 50.8695 27.9817 50.8695 30.3716 50.8427C32.7616 50.8126 39.1202 49.3679 39.1202 49.3679L39.1236 49.3746Z" fill="#FFF1AA"/>
<path id="Vector_18" d="M37.4237 51.516L38.0036 50.9897C36.9477 52.5518 35.741 54.4557 34.5042 56.8557C34.2595 57.3283 34.0215 57.7976 33.7902 58.2568C31.7321 62.3428 30.2505 65.8054 29.8986 67.9808L29.798 68.1551C28.9667 67.6825 28.3131 67.3506 27.7734 67.0925C28.1958 65.8356 29.1544 63.4255 30.9142 61.1261C33.4483 57.811 37.4237 51.516 37.4237 51.516Z" fill="#DDCE8E"/>
<path id="Vector_19" d="M32.6274 22.1289C32.7413 22.5714 32.6073 22.9904 32.3224 23.0608C32.0408 23.1345 31.719 22.8362 31.605 22.3904C31.4911 21.9479 31.6252 21.5323 31.9067 21.4585C32.1883 21.3881 32.5101 21.6865 32.6274 22.1289Z" fill="black"/>
<path id="Vector_20" d="M30.916 101.769C30.9864 104.889 30.916 105.097 30.916 105.097H28.8848C28.8848 105.097 29.3038 104.742 28.6468 96.9989C27.9898 89.2559 27.0311 91.4079 27.2725 85.609C27.5105 79.8906 27.6613 75.2582 27.668 75.1274C28.1607 75.4392 28.7406 75.8045 29.3775 76.2068L29.1898 76.4615C29.0691 77.7755 29.6021 83.8157 29.6021 86.3263C29.6021 88.8369 30.0814 90.6906 30.1451 93.7375C30.2088 96.7878 30.8121 97.0794 30.916 101.769Z" fill="#AFDAEA"/>
<path id="Vector_21" d="M29.7776 38.5808C29.9117 38.5105 30.0625 38.6345 30.0156 38.7786C30.0123 38.7954 30.0056 38.8121 29.9988 38.8322C29.8279 39.3652 29.372 40.3607 28.2022 41.5708C26.429 43.4043 24.515 44.6613 23.6 45.8144C23.2447 46.2602 22.5273 46.9607 21.7396 47.7719C20.7374 48.8043 19.6245 50.0144 19.0312 51.1138C19.7787 49.3071 20.7206 48.3686 21.7396 47.0244C21.8201 46.9172 21.9106 46.8065 22.0011 46.6959C23.0402 45.4322 24.6357 44.0244 25.6514 42.8714C26.7575 41.6144 27.505 39.6702 27.505 39.6702L27.4581 39.3417C27.5921 39.3216 27.7296 39.3049 27.8804 39.2848C28.5173 39.2043 29.3352 38.8188 29.7776 38.5876V38.5808Z" fill="#AFDAEA"/>
<path id="Vector_22" d="M28.0107 26.2899C28.9257 26.3201 29.1637 26.652 28.8922 27.1045C28.1715 27.1648 27.6185 27.0676 27.1995 26.9C27.1123 26.8665 27.0352 26.8196 26.9648 26.7693C27.0587 26.5313 27.3201 26.2631 28.0107 26.2899Z" fill="#EAC3B9"/>
<path id="Vector_23" d="M28.6434 96.9992C29.3004 104.742 28.8814 105.098 28.8814 105.098H23.2635C23.7227 104.977 24.135 104.863 24.4702 104.769C24.9462 104.638 25.2009 104.125 25.0233 103.666C24.8992 103.348 24.5942 103.137 24.2523 103.137H24.2389C23.4613 103.147 22.0802 103.207 21.2154 103.495L22.5797 102.895C22.8713 102.768 23.0691 102.476 23.0557 102.158C23.0456 101.963 22.9786 101.813 22.8914 101.699C22.7272 101.481 22.4423 101.387 22.1707 101.427L18.3629 101.99C17.9674 102.047 17.5618 102.061 17.1596 102.024L16.4758 101.963C15.983 101.92 15.497 101.806 15.0344 101.622L14.1797 101.283C14.8467 101.407 15.4501 101.531 15.8825 101.622C15.9361 101.635 15.9897 101.638 16.0467 101.638C16.3819 101.638 16.6836 101.427 16.7976 101.099C16.935 100.69 16.7272 100.251 16.3216 100.1C16.1573 100.036 15.9663 99.9624 15.7652 99.8819C18.3964 100.029 20.1026 98.9065 22.0065 98.2227C24.5071 97.3244 24.7048 94.5758 25.0836 89.6752C25.4624 84.7747 26.1998 86.3266 26.5585 81.6641C26.7864 78.7143 26.5585 75.9389 26.3607 74.2998C26.6624 74.4909 27.1082 74.7758 27.668 75.1311C27.6646 75.2618 27.5104 79.8942 27.2724 85.6127C27.0344 91.4115 27.9897 89.2596 28.6467 97.0026L28.6434 96.9992Z" fill="#DDCE8E"/>
<path id="Vector_24" d="M12.8536 67.4569C13.9095 70.8558 12.029 70.7385 10.5307 73.4334C8.93518 76.3027 7.42345 80.0435 6.80334 83.2748C6.28043 83.0368 5.56311 82.8323 4.64803 82.8189C3.08602 82.7921 1.74859 83.8714 1.07149 84.5351C1.05809 84.5485 1.04133 84.5619 1.02457 84.572C0.80669 84.7262 0.484903 84.582 0.468143 84.2971C0.441327 83.6871 0.454735 82.5776 0.602221 80.5563C0.930713 76.0144 2.48602 72.5183 3.29384 70.9329C4.10166 69.3474 4.01116 69.8871 3.83351 68.7507C3.71954 68.0368 4.53071 67.3329 5.14747 66.9105C5.48937 66.6759 5.64021 66.2401 5.49943 65.848C5.34524 65.4256 5.25138 64.8993 5.5363 64.5977C6.07596 64.0278 7.59775 61.9362 10.4067 56.077C13.2156 50.2178 14.4123 48.3206 14.6369 46.839C14.8614 45.3608 15.2804 45.391 17.4626 43.296C19.6447 41.2044 23.5598 40.2189 24.981 39.8602C26.1743 39.5586 26.7542 39.4379 27.4614 39.334L27.5084 39.6625C27.5084 39.6625 26.7609 41.6066 25.6547 42.8636C24.6391 44.02 23.0436 45.4245 22.0045 46.6882C22.0045 46.6882 19.6212 46.8859 18.6257 48.7999C17.6302 50.7139 17.781 49.5977 16.4905 52.8256C15.2 56.0535 14.9922 54.0993 13.7821 58.8826C12.5687 63.6658 11.057 62.5899 12.6089 66.7329C12.7061 66.9876 12.7899 67.229 12.857 67.4535L12.8536 67.4569Z" fill="#AFDAEA"/>
<path id="Vector_25" d="M16.6905 74.223C17.2872 74.1023 17.9039 74.1023 18.5006 74.223C19.1475 74.347 20.0425 74.471 20.8101 74.3939C22.1844 74.2565 24.3765 73.3615 25.9117 74.0286C25.9318 74.0353 26.086 74.1325 26.3542 74.3034C26.552 75.9425 26.7799 78.7213 26.552 81.6677C26.1933 86.3302 25.4559 84.7749 25.0771 89.6789C24.6983 94.5794 24.5006 97.3314 22 98.2263C20.0961 98.9101 18.3899 100.033 15.7587 99.8855C14.8 99.4967 13.4927 98.89 12.5575 98.1459C11.5821 97.3682 10.0335 97.1135 8.93073 97.0364V97.0096C8.85699 96.909 8.77989 96.7984 8.7095 96.6811C8.47151 96.2923 8.25363 95.8129 8.06257 95.3135C7.33185 93.4062 7.06369 91.3548 7.22123 89.3202C7.33185 87.8889 7.55978 86.0219 8.03576 84.0576C8.84358 80.7224 10.3587 77.0923 13.1944 74.7895L13.2313 74.7325C13.4894 74.8867 13.9453 74.8498 14.505 74.7124C15.038 74.5783 15.943 74.3839 16.6436 74.233C16.6603 74.233 16.6737 74.2263 16.6905 74.223Z" fill="#FFF1AA"/>
<path id="Vector_26" d="M26.3882 22.8059C26.4922 23.2048 26.3681 23.5802 26.1134 23.6472C25.8586 23.7109 25.5704 23.4428 25.4665 23.0439C25.3625 22.645 25.4866 22.2662 25.7413 22.2026C25.9961 22.1355 26.2843 22.407 26.3882 22.8059Z" fill="black"/>
<path id="Vector_27" d="M26.1599 72.6676L26.1331 72.7782C26.1331 72.7782 26.237 73.3481 26.3543 74.3C26.0862 74.1291 25.932 74.0319 25.9119 74.0252C24.3767 73.3581 22.1845 74.2531 20.8102 74.3905C20.0426 74.471 19.1443 74.3436 18.5007 74.2196C17.9041 74.1023 17.2873 74.1023 16.6907 74.2196C16.3923 73.4654 19.389 73.5492 20.8169 72.7715C21.8527 72.2084 23.8002 72.0911 26.1633 72.6609L26.1599 72.6676Z" fill="#EAC3B9"/>
<path id="Vector_28" d="M24.0329 32.9157C24.2675 32.2286 24.2843 31.0252 22.9703 29.242C20.7446 26.2185 22.3234 25.6085 22.0988 23.2185C21.8709 20.8286 20.8117 20.2286 21.6094 15.2878C22.186 11.718 23.1782 11.5805 23.6843 11.7783C22.8765 13.0956 21.4351 16.3034 22.7122 21.0029C22.843 21.4755 23.0173 21.928 23.1849 22.3872C23.2854 22.6587 23.3625 23.0878 23.3994 23.6174C23.4966 24.9749 24.3681 29.252 27.5156 32.3325C26.4094 33.7872 24.6597 33.3079 24.3078 33.1939C24.1536 33.2308 24.0094 33.2576 23.8687 33.2677C23.929 33.1705 23.9826 33.0532 24.0296 32.9124L24.0329 32.9157Z" fill="#4C3633"/>
<path id="Vector_29" d="M15.7581 99.8817C15.9625 99.9621 16.1503 100.036 16.3145 100.1C16.7201 100.25 16.9279 100.69 16.7905 101.098C16.6765 101.427 16.3748 101.638 16.0396 101.638C15.986 101.638 15.9324 101.635 15.8754 101.621C15.443 101.531 14.8396 101.407 14.1726 101.283L15.0274 101.621C15.4899 101.806 15.976 101.92 16.4687 101.963L17.1525 102.024C17.5547 102.06 17.957 102.047 18.3558 101.99L22.1637 101.427C22.4352 101.387 22.7201 101.481 22.8843 101.698C22.9715 101.812 23.0385 101.96 23.0486 102.158C23.062 102.476 22.8642 102.768 22.5726 102.895L21.2084 103.495C20.6653 103.676 20.0017 103.917 19.4251 104.129C18.51 104.467 17.5279 104.591 16.5525 104.487L14.9804 104.323C14.5782 104.377 13.8676 104.286 12.4396 103.8C10.5659 103.163 7.97484 102.805 5.38713 101.638C4.00612 101.018 3.06422 99.6471 2.48769 98.504C2.3335 97.0526 2.57484 95.4471 2.51115 93.8381C2.39048 90.8884 1.02288 84.5767 1.02288 84.5767H1.01953C1.01953 84.5767 1.05305 84.5465 1.06646 84.5331C1.74355 83.8694 3.08098 82.7901 4.64299 82.8169C5.55808 82.8303 6.2754 83.0381 6.7983 83.2728C6.18154 86.504 4.85417 95.2124 8.70221 96.6772C8.7726 96.7946 8.8497 96.9052 8.92679 97.0057V97.0325C10.0262 97.1096 11.5748 97.3644 12.5503 98.142C13.4855 98.8828 14.7894 99.4895 15.7514 99.8817H15.7581Z" fill="#FFE0D7"/>
<path id="Vector_30" d="M14.6522 61.8639C14.5416 63.6404 14.9404 65.6684 16.6633 67.6929H16.784C16.6734 67.8773 16.5728 68.0818 16.4857 68.3131L16.5226 68.4002C15.8254 68.6952 15.289 68.8762 15.0343 69.5399C14.7125 70.3678 15.2857 70.7399 15.2857 70.7399C15.1349 70.7968 15.0142 70.8404 14.9371 70.8639C14.4142 71.0248 13.7203 71.4237 13.7203 71.9901C13.7203 72.5566 14.2499 72.7779 14.2499 72.7779L14.27 72.8214C13.7639 73.0192 13.1103 73.4348 13.0131 74.0851C12.9628 74.4203 13.0466 74.6248 13.2343 74.7354L13.1974 74.7924C10.365 77.0952 8.84658 80.7253 8.03876 84.0605L7.94156 84.0404C7.94156 84.0404 7.57619 83.6281 6.80859 83.2795C7.42871 80.0482 8.94044 76.3075 10.536 73.4382C12.0343 70.7466 13.9147 70.8639 12.8589 67.4617C12.7885 67.2371 12.7047 66.9991 12.6108 66.741C11.0555 62.598 12.5706 63.6739 13.784 58.8907C14.9974 54.1075 15.2019 56.0617 16.4924 52.8337C17.7829 49.6058 17.6321 50.7186 18.6276 48.808C19.6231 46.8941 22.0064 46.6963 22.0064 46.6963C21.9159 46.8103 21.8254 46.9175 21.7449 47.0248C20.7259 48.3689 19.7807 49.3075 19.0365 51.1142C18.8924 51.3756 18.7784 51.6337 18.7047 51.8784C18.0678 53.9499 16.2343 55.9041 15.517 58.0963C15.1918 59.0885 14.7527 60.3957 14.6622 61.8706L14.6522 61.8639Z" fill="#93C8D8"/>
<path id="Vector_31" d="M19.6516 65.9531C19.1488 66.1341 18.6795 66.305 18.3376 66.4257C17.8046 66.6168 17.3253 66.9453 16.9868 67.3978C16.9164 67.4883 16.8493 67.5855 16.7856 67.6961H16.665C14.9421 65.6648 14.5432 63.6369 14.6538 61.8604C15.1633 62.9833 16.4773 64.9542 19.6516 65.9497V65.9531Z" fill="#DDCE8E"/>
<path id="Vector_32" d="M8.05683 95.3132C8.24789 95.8127 8.46577 96.292 8.70376 96.6808C4.85572 95.216 6.18309 86.5077 6.79985 83.2764C7.56745 83.6216 7.93281 84.0373 7.93281 84.0373L8.03002 84.0574C7.55404 86.0216 7.32611 87.8887 7.21549 89.3199C7.05795 91.3546 7.32611 93.406 8.05683 95.3132Z" fill="#EAC3B9"/>
</g>
<g id="Group_3">
<path id="Vector_33" d="M24.1588 11.105C24.1588 11.105 23.9577 11.3329 23.6862 11.7787C22.8784 13.096 21.437 16.3039 22.7141 21.0033C22.8449 21.4759 23.0192 21.9284 23.1868 22.3877C23.2873 22.6592 23.3644 23.0882 23.4013 23.6178C23.4985 24.9754 24.37 29.2525 27.5175 32.3329C28.3823 33.181 29.418 33.9385 30.6583 34.5184C31.3957 34.8636 32.2471 34.8636 32.9912 34.5385C33.0214 34.5251 33.0516 34.5117 33.0817 34.4983C34.6605 33.791 37.399 32.1553 39.7018 28.6994" stroke="#251E1C" stroke-width="0.75" stroke-linecap="round" stroke-linejoin="round"/>
<path id="Vector_34" d="M30 38.8326C30 38.8326 30.7844 38.608 31.5654 37.8538C32.2425 37.2002 32.9128 36.1477 33.0771 34.4985" stroke="#251E1C" stroke-width="0.75" stroke-linecap="round" stroke-linejoin="round"/>
<path id="Vector_35" d="M42.6225 29.1357C42.6225 29.1357 40.8493 36.3357 46.7957 37.5927" stroke="#251E1C" stroke-width="0.75" stroke-linecap="round" stroke-linejoin="round"/>
<path id="Vector_36" d="M16.6656 67.6964C14.9427 65.6718 14.5438 63.6438 14.6545 61.8673C14.745 60.3924 15.1841 59.0852 15.5092 58.093C16.2265 55.9008 18.0567 53.9466 18.6969 51.8751C18.7707 51.6304 18.8846 51.3757 19.0288 51.1109C19.6254 50.0148 20.7349 48.8047 21.7371 47.769C22.5249 46.9612 23.2422 46.2606 23.5975 45.8114C24.5126 44.655 26.4265 43.4014 28.1997 41.5679C29.3729 40.3578 29.8254 39.3623 29.9964 38.8293C30.0031 38.8092 30.0098 38.7924 30.0131 38.7757C30.0601 38.6315 29.9092 38.5075 29.7751 38.5779C29.3293 38.8092 28.5148 39.1947 27.8779 39.2751C27.7304 39.2952 27.5897 39.312 27.4556 39.3321C26.7517 39.436 26.1684 39.5567 24.9751 39.8584C23.5539 40.217 19.6388 41.2025 17.4567 43.2941C15.2746 45.3857 14.8589 45.3589 14.631 46.8371C14.4064 48.3187 13.2098 50.2159 10.4008 56.0751C7.59189 61.9343 6.06675 64.026 5.53044 64.5958C5.24217 64.8975 5.33938 65.4237 5.49357 65.8461C5.63435 66.2383 5.48351 66.674 5.14161 66.9086C4.52485 67.331 3.71368 68.0349 3.82765 68.7489C4.00865 69.8852 4.09916 69.3455 3.28798 70.931C2.48351 72.5131 0.928205 76.0092 0.596362 80.5545C0.448876 82.579 0.435468 83.6885 0.462283 84.2952C0.475691 84.5802 0.800831 84.7243 1.01871 84.5701C1.03547 84.5567 1.05223 84.5466 1.06564 84.5332C1.74273 83.8695 3.08016 82.7902 4.64217 82.817C5.55726 82.8304 6.27457 83.0383 6.79748 83.2729C7.56508 83.6181 7.93044 84.0338 7.93044 84.0338" stroke="#251E1C" stroke-width="0.75" stroke-linecap="round" stroke-linejoin="round"/>
<path id="Vector_37" d="M39.1215 49.3737C39.1215 49.3737 32.7662 50.8184 30.3729 50.8486C27.983 50.8787 25.65 50.8787 24.1282 50.0106C22.6031 49.1424 22.04 48.5491 21.7383 47.7715" stroke="#251E1C" stroke-width="0.75" stroke-linecap="round" stroke-linejoin="round"/>
<path id="Vector_38" d="M27.9844 42.359C27.9844 42.359 29.5397 42.0439 30.4648 42.0439C31.39 42.0439 32.1978 42.7177 32.1978 42.7177" stroke="#251E1C" stroke-width="0.75" stroke-linecap="round" stroke-linejoin="round"/>
<path id="Vector_39" d="M36.2637 42.6272C36.2637 42.6272 37.6849 42.2216 38.4156 41.8964C39.1464 41.5679 41 42.1646 41.9117 42.178C42.8268 42.1948 43.6011 42.2115 43.6011 42.2115" stroke="#251E1C" stroke-width="0.75" stroke-linecap="round" stroke-linejoin="round"/>
<path id="Vector_40" d="M6.60938 66.4636C6.70658 66.4636 8.82167 66.3631 10.434 66.4636C11.7077 66.5407 12.5557 67.1877 12.8574 67.4592C12.9379 67.5296 12.9814 67.5765 12.9814 67.5765" stroke="#251E1C" stroke-width="0.75" stroke-linecap="round" stroke-linejoin="round"/>
<path id="Vector_41" d="M5.02734 69.3891C5.02734 69.3891 7.14243 68.1321 9.03293 67.9914C10.9268 67.8539 12.2609 68.6886 12.2609 68.6886" stroke="#251E1C" stroke-width="0.75" stroke-linecap="round" stroke-linejoin="round"/>
<path id="Vector_42" d="M13.3594 69.2886C13.3594 69.2886 13.8756 69.5869 14.1974 69.9254" stroke="#251E1C" stroke-width="0.75" stroke-linecap="round" stroke-linejoin="round"/>
<path id="Vector_43" d="M27.505 39.668C27.505 39.668 26.7575 41.6121 25.6514 42.8691C24.6357 44.0255 23.0402 45.43 22.0011 46.6937C21.9106 46.8076 21.8201 46.9149 21.7396 47.0222C20.7206 48.3663 19.7754 49.3048 19.0312 51.1115" stroke="#251E1C" stroke-width="0.75" stroke-linecap="round" stroke-linejoin="round"/>
<path id="Vector_44" d="M23.8008 19.5723C23.8008 19.5723 23.9818 18.5969 25.0377 18.617" stroke="#251E1C" stroke-width="0.75" stroke-linecap="round" stroke-linejoin="round"/>
<path id="Vector_45" d="M30.1406 16.8646C30.1406 16.8646 30.7004 16.2466 31.7764 16.7034" stroke="#251E1C" stroke-width="0.75" stroke-linecap="round" stroke-linejoin="round"/>
<path id="Vector_46" d="M26.4902 20.8389C26.4902 20.8389 27.6131 21.7037 27.6869 23.4065C27.7238 24.1875 27.355 24.7204 26.9495 25.0623C26.3964 25.5283 26.4232 26.3729 26.9629 26.7685C27.0333 26.8188 27.1103 26.8657 27.1975 26.8992C27.6165 27.0668 28.1696 27.1607 28.8902 27.1037C28.9036 27.1037 28.9171 27.1037 28.9271 27.1037" stroke="#251E1C" stroke-width="0.75" stroke-linecap="round" stroke-linejoin="round"/>
<path id="Vector_47" d="M29.6309 29.309C29.6309 29.309 31.9169 29.862 33.7571 27.4688" stroke="#251E1C" stroke-width="0.75" stroke-linecap="round" stroke-linejoin="round"/>
<path id="Vector_48" d="M23.6219 32.0382C23.2365 32.5175 22.8074 32.8091 22.3817 32.9767C21.6543 33.265 20.9236 33.1879 20.4074 33.0572C20.213 33.0069 20.1996 32.732 20.3907 32.665C21.8722 32.1455 21.4867 30.265 19.8577 29.2393C18.0041 28.0728 18.2152 24.6974 19.0532 22.2639C19.8912 19.8304 19.7102 18.9287 19.918 13.9946C20.0722 10.3276 21.899 9.45272 22.8242 9.2449C23.1594 9.17116 23.4242 8.92311 23.5381 8.59797C24.175 6.74099 26.6923 1.18345 32.7929 1.12646H32.8231" stroke="#251E1C" stroke-width="0.75" stroke-linecap="round" stroke-linejoin="round"/>
<path id="Vector_49" d="M24.0352 32.9165C24.2966 32.7288 24.5379 32.4372 24.6653 31.998" stroke="#251E1C" stroke-width="0.75" stroke-linecap="round" stroke-linejoin="round"/>
<path id="Vector_50" d="M22.9746 33.2815C22.9746 33.2815 23.0651 33.2815 23.2059 33.2547C23.4171 33.2177 23.7355 33.1304 24.0338 32.9121" stroke="#251E1C" stroke-width="0.75" stroke-linecap="round" stroke-linejoin="round"/>
<path id="Vector_51" d="M24.252 33.1734C24.252 33.1734 24.2721 33.1834 24.3156 33.1935C24.6676 33.3075 26.414 33.7901 27.5235 32.332" stroke="#251E1C" stroke-width="0.75" stroke-linecap="round" stroke-linejoin="round"/>
<path id="Vector_52" d="M24.668 10.8641L24.7015 10.8306C25.0065 10.5289 27.3361 8.41383 29.6289 11.501C32.0892 14.8094 35.1194 23.1792 40.1004 22.5423C40.1004 22.5423 42.6914 22.063 43.63 18.4362C43.7004 18.1613 43.8512 17.9032 44.0758 17.7323C44.421 17.4708 44.9741 17.3099 45.5574 18.1177C46.5093 19.4351 45.8121 24.6071 42.5138 24.5401C42.3831 24.5401 42.2624 24.5937 42.1886 24.6976C41.8166 25.2306 40.5328 26.8295 38.5417 26.8731C38.2333 26.8764 38.0691 27.2451 38.2702 27.4798C38.592 27.8619 39.0713 28.3345 39.7015 28.6965C40.4657 29.1323 41.4412 29.4004 42.621 29.1323C42.8557 29.0786 43.1004 29.0049 43.3518 28.9043C44.0959 28.6127 44.9071 28.1066 45.7853 27.3055" stroke="#251E1C" stroke-width="0.75" stroke-linecap="round" stroke-linejoin="round"/>
<path id="Vector_53" d="M43.5117 29.1355C43.5117 29.1355 43.5318 29.1422 43.5419 29.1456C44.9899 29.6081 46.0458 29.0886 46.7229 28.4819C47.3531 27.9188 47.6581 27.2852 47.6581 27.2852C47.6581 27.2852 48.4357 28.8607 50.9866 28.0026C50.9866 28.0026 50.8056 28.0026 50.5609 27.9422C50.0313 27.8148 49.1933 27.416 49.1933 26.1489" stroke="#251E1C" stroke-width="0.75" stroke-linecap="round" stroke-linejoin="round"/>
<path id="Vector_54" d="M33.2461 1.17988C33.2461 1.17988 33.2662 1.17318 33.2763 1.16982C35.5321 0.405578 37.3925 0.294964 38.9612 0.663679C45.3198 2.14524 46.7411 11.4469 49.312 16.2838C51.8729 21.1073 53.455 22.924 50.7265 26.1486C50.0629 26.9296 51.0215 27.5296 51.1321 27.5966C51.1388 27.6 51.1455 27.6033 51.1455 27.6033" stroke="#251E1C" stroke-width="0.75" stroke-linecap="round" stroke-linejoin="round"/>
<path id="Vector_55" d="M33.8203 4.35035C33.9577 4.35035 35.5533 3.95147 37.0281 5.48667" stroke="#251E1C" stroke-width="0.75" stroke-linecap="round" stroke-linejoin="round"/>
<path id="Vector_56" d="M35.3086 2.93242C35.3086 2.93242 36.2538 2.81175 37.0315 3.35142" stroke="#251E1C" stroke-width="0.75" stroke-linecap="round" stroke-linejoin="round"/>
<path id="Vector_57" d="M37.4121 16.8633C37.4121 16.8633 39.259 21.1672 42.6981 18.9951" stroke="#251E1C" stroke-width="0.75" stroke-linecap="round" stroke-linejoin="round"/>
<path id="Vector_58" d="M40.3008 16.2041C40.3008 16.2041 40.8539 18.3896 42.7008 18.2354" stroke="#251E1C" stroke-width="0.75" stroke-linecap="round" stroke-linejoin="round"/>
<path id="Vector_59" d="M42.4102 23.0615C42.4102 23.0615 42.8292 21.4459 44.5219 21.1274" stroke="#251E1C" stroke-width="0.75" stroke-linecap="round" stroke-linejoin="round"/>
<path id="Vector_60" d="M1.03125 84.5801C1.03125 84.5801 2.39885 90.8918 2.51952 93.8415C2.58321 95.4471 2.34186 97.0561 2.49605 98.5075C2.62343 99.7209 3.02566 100.827 4.11505 101.732C6.50499 103.723 11.01 105.238 13.7218 105.557C16.4301 105.875 16.4704 106.472 18.9407 106.073C20.238 105.865 21.9407 105.446 23.2681 105.097C23.7273 104.977 24.1396 104.863 24.4748 104.769C24.9508 104.638 25.2055 104.125 25.0279 103.666C24.9039 103.348 24.5988 103.137 24.2569 103.137H24.2435C23.4659 103.147 22.0849 103.207 21.2201 103.495C20.6771 103.676 20.0134 103.918 19.4368 104.129C18.5218 104.467 17.5396 104.591 16.5642 104.487L14.9921 104.323L14.3754 104.259" stroke="#251E1C" stroke-width="0.75" stroke-linecap="round" stroke-linejoin="round"/>
<path id="Vector_61" d="M8.7095 96.6807C8.47151 96.2919 8.25363 95.8125 8.06257 95.3131C7.33184 93.4058 7.06369 91.3544 7.22123 89.3198C7.33185 87.8885 7.55978 86.0215 8.03576 84.0572C8.84358 80.722 10.3587 77.0919 13.1944 74.7891" stroke="#251E1C" stroke-width="0.75" stroke-linecap="round" stroke-linejoin="round"/>
<path id="Vector_62" d="M29.9004 67.982C30.2523 65.8099 31.7339 62.3474 33.792 58.258C34.0199 57.7988 34.2613 57.3295 34.506 56.8569C35.7462 54.4569 36.9496 52.553 38.0054 50.9909C38.4009 50.4044 38.7764 49.868 39.1283 49.3753C39.6747 48.6044 40.1507 47.9273 40.5428 47.3206C41.8568 45.2893 43.0836 44.0926 45.2658 40.8647C45.5272 40.4759 45.7518 40.1172 45.9361 39.7854C46.4758 38.8233 46.7138 38.1027 46.8009 37.5898C46.8077 37.5463 46.8144 37.506 46.8211 37.4658C46.9015 36.8692 47.535 36.5105 48.068 36.7854C48.3898 36.9496 48.7216 37.2077 49.0065 37.6066C49.9049 38.8636 53.6691 40.4759 55.0736 41.1664C56.478 41.8535 57.1954 43.3183 58.0032 47.2937C58.811 51.2692 58.1239 58.0837 58.3618 61.1641C58.5998 64.2446 59.049 66.7317 59.4378 67.9854C59.8267 69.2356 59.7663 69.8021 59.4378 70.5831C59.1093 71.3574 59.8267 71.5686 59.4378 73.2412C59.049 74.9139 59.7965 74.5284 59.0792 75.7217C58.3618 76.915 60.0948 77.8435 59.1998 79.4289C58.3015 81.0111 60.0982 84.8088 55.1339 87.1988C55.1339 87.1988 52.8546 87.3228 49.5395 86.6859C47.8099 86.3574 45.7954 85.8144 43.6803 84.9429C43.4993 84.8692 43.4088 84.6714 43.4691 84.487C43.4926 84.4133 43.5194 84.3261 43.5496 84.2323C43.7239 83.6625 43.9853 82.7105 44.1831 81.534C44.5384 79.4356 44.6926 76.6267 43.8043 74.0289C43.7875 73.9753 43.7708 73.925 43.7507 73.8747C43.6635 73.6233 43.8579 73.3619 44.1261 73.3787C44.6557 73.4155 45.5037 73.4625 46.4993 73.4625C46.7708 73.4625 47.0456 73.4591 47.3373 73.449C47.4412 73.449 47.5484 73.4423 47.649 73.439C49.5563 73.3787 50.7294 73.3351 51.5507 74.0457C52.4188 74.7932 53.2568 75.5373 54.4501 75.9865C55.6468 76.4356 56.9607 76.8848 57.678 78.1384" stroke="#251E1C" stroke-width="0.75" stroke-linecap="round" stroke-linejoin="round"/>
<path id="Vector_63" d="M30.9141 67.5748C30.9141 67.5748 31.9599 64.0285 33.1264 61.2195C33.5286 60.2542 33.9174 59.3894 34.3498 58.538C35.1744 56.9123 36.1532 55.3268 37.6414 53.148C38.4928 51.9044 39.4247 50.691 40.3733 49.5413C41.952 47.6274 43.571 45.8743 44.9353 44.4195C46.2191 43.0486 47.3252 41.3357 48.0191 40.1558C48.5051 39.3346 48.79 38.7715 48.79 38.7715" stroke="#251E1C" stroke-width="0.75" stroke-linecap="round" stroke-linejoin="round"/>
<path id="Vector_64" d="M56.5915 73.4452C56.5915 73.4452 56.5043 73.281 56.3032 73.0497C55.8172 72.4899 54.6809 71.5312 52.5859 71.5312C49.6261 71.5312 49.2373 71.6184 48.5803 72.1849C47.9233 72.7547 47.625 73.0229 47.625 73.0229" stroke="#251E1C" stroke-width="0.75" stroke-linecap="round" stroke-linejoin="round"/>
<path id="Vector_65" d="M48.252 71.3501C48.252 71.3501 48.8486 70.5457 50.4341 70.006C52.0162 69.4663 53.0318 69.6473 54.2888 69.6473C55.5458 69.6473 56.9503 70.4853 56.9503 70.4853" stroke="#251E1C" stroke-width="0.75" stroke-linecap="round" stroke-linejoin="round"/>
<path id="Vector_66" d="M46.4877 73.4583C46.4877 73.4583 46.8162 72.2516 46.6084 70.4852C46.3972 68.722 45.891 68.0651 45.9212 66.3924C45.9514 64.7198 46.5883 64.15 46.3 62.4472C46.0117 60.741 45.9212 61.0125 45.9212 58.6226C45.9212 56.2327 45.9715 54.1075 46.6788 51.2382C46.957 50.1053 47.2251 49.1131 47.5033 48.2382C47.9257 46.8975 48.3782 45.8315 48.9413 44.9634" stroke="#251E1C" stroke-width="0.75" stroke-linecap="round" stroke-linejoin="round"/>
<path id="Vector_67" d="M50.077 50.2529C50.077 50.2529 47.5965 52.3144 46.9094 54.2283C46.2222 56.1423 46.1016 56.5278 46.1016 56.5278" stroke="#251E1C" stroke-width="0.75" stroke-linecap="round" stroke-linejoin="round"/>
<path id="Vector_68" d="M51.5686 41.4023C51.5686 41.4023 51.5585 41.409 51.5417 41.4225C51.3708 41.5699 50.3853 42.4347 49.8926 43.5543" stroke="#251E1C" stroke-width="0.75" stroke-linecap="round" stroke-linejoin="round"/>
<path id="Vector_69" d="M43.7933 74.0253C43.7933 74.0253 43.2738 73.8375 42.4324 73.5225C39.5095 72.4364 32.7017 69.8454 30.3151 68.4543C30.1341 68.3504 29.9598 68.2498 29.7955 68.156C28.9643 67.6834 28.3106 67.3515 27.771 67.0934C26.581 66.5269 25.9475 66.3359 25.2134 65.8834C24.0771 65.1862 22.8805 64.7873 21.5665 65.2666C21.0335 65.4577 20.3162 65.7191 19.6525 65.9537C19.1497 66.1348 18.6805 66.3057 18.3386 66.4264C17.8056 66.6174 17.3263 66.9459 16.9877 67.3984C16.9173 67.4889 16.8503 67.5862 16.7866 67.6968C16.676 67.8778 16.5754 68.0822 16.4883 68.3102" stroke="#251E1C" stroke-width="0.75" stroke-linecap="round" stroke-linejoin="round"/>
<path id="Vector_70" d="M19.3601 66.9961C19.3601 66.9961 18.0261 67.6765 17.0708 68.1525C16.883 68.2497 16.6987 68.3268 16.5277 68.3972C15.8305 68.6922 15.2942 68.8732 15.0395 69.5369C14.7177 70.3648 15.2909 70.7369 15.2909 70.7369" stroke="#251E1C" stroke-width="0.75" stroke-linecap="round" stroke-linejoin="round"/>
<path id="Vector_71" d="M18.0031 69.6064C18.0031 69.6064 16.1562 70.4042 15.288 70.7361C15.1372 70.793 15.0165 70.8366 14.9394 70.8601C14.4165 71.021 13.7227 71.4199 13.7227 71.9863C13.7227 72.5528 14.2523 72.774 14.2523 72.774" stroke="#251E1C" stroke-width="0.75" stroke-linecap="round" stroke-linejoin="round"/>
<path id="Vector_72" d="M16.7445 71.8184C16.7445 71.8184 15.0719 72.596 14.5825 72.7167C14.492 72.7368 14.3814 72.7737 14.2674 72.8206C13.7613 73.0184 13.1076 73.434 13.0104 74.0843C12.9602 74.4195 13.044 74.6239 13.2317 74.7346C13.4898 74.8888 13.9456 74.8519 14.5054 74.7144C15.0384 74.5804 15.9434 74.386 16.644 74.2351C16.6607 74.2351 16.6741 74.2284 16.6909 74.2251C17.2875 74.1044 17.9043 74.1044 18.5009 74.2251C19.1479 74.3491 20.0428 74.4731 20.8104 74.396C22.1847 74.2586 24.3769 73.3636 25.9121 74.0307C25.9322 74.0374 26.0864 74.1346 26.3546 74.3055C26.6563 74.4966 27.1021 74.7815 27.6618 75.1368C28.1546 75.4485 28.7345 75.8139 29.3713 76.2161C33.0853 78.5491 38.8775 82.1189 42.0618 83.6273C42.6551 83.9055 43.1579 84.1167 43.54 84.234" stroke="#251E1C" stroke-width="0.75" stroke-linecap="round" stroke-linejoin="round"/>
<path id="Vector_73" d="M28.8789 105.097C28.8789 105.097 29.2979 104.742 28.6409 96.9989C27.9839 89.2559 27.0253 91.4079 27.2666 85.609C27.5046 79.8906 27.6554 75.2582 27.6621 75.1274" stroke="#251E1C" stroke-width="0.75" stroke-linecap="round" stroke-linejoin="round"/>
<path id="Vector_74" d="M30.912 105.098C30.912 105.098 30.9824 104.89 30.912 101.769C30.8081 97.0798 30.2014 96.7882 30.1411 93.7379C30.0774 90.6876 29.598 88.8373 29.598 86.3267C29.598 83.8161 29.0651 77.7792 29.1858 76.4619" stroke="#251E1C" stroke-width="0.75" stroke-linecap="round" stroke-linejoin="round"/>
<path id="Vector_75" d="M24.0385 32.9165H24.0352" stroke="#251E1C" stroke-width="0.75" stroke-linecap="round" stroke-linejoin="round"/>
</g>
</g>
</g>
<defs>
<clipPath id="clip0_116_1247">
<rect width="60" height="106.592" fill="white"/>
</clipPath>
</defs>
</svg>
