<svg width="72" height="21" viewBox="0 0 72 21" fill="none" xmlns="http://www.w3.org/2000/svg">
<g clip-path="url(#clip0_43_541)">
<path d="M9.56022 20.0614C14.8417 20.0614 19.1229 15.7803 19.1229 10.4988C19.1229 5.21724 14.8417 0.938538 9.56022 0.938538C4.2787 0.938538 0 5.21971 0 10.4988C0 15.7778 4.28117 20.0614 9.56022 20.0614Z" fill="#A50034"/>
<path d="M9.17969 6.30573V14.6873H11.8489V13.9371H9.9448V6.30573H9.17969Z" fill="white"/>
<path d="M6.50333 8.59221C7.13721 8.59221 7.64977 8.07966 7.64977 7.44578C7.64977 6.8119 7.13721 6.30182 6.50333 6.30182C5.86945 6.30182 5.35938 6.81437 5.35938 7.44578C5.35938 8.07718 5.87193 8.59221 6.50333 8.59221Z" fill="white"/>
<path d="M9.94123 2.4987C9.84219 2.49375 9.65153 2.49127 9.55744 2.49127C5.14503 2.49375 1.55469 6.08657 1.55469 10.4965C1.55469 12.6334 2.38913 14.644 3.89955 16.1569C5.41245 17.6698 7.42304 18.5017 9.55744 18.5017C11.6918 18.5017 13.7074 17.6698 15.2203 16.1569C16.7282 14.6464 17.5627 12.6334 17.5627 10.4965V10.1325H17.2408H11.8454V10.8778H16.7976V10.9868C16.5425 14.7603 13.3954 17.7515 9.55496 17.7515C7.62113 17.7515 5.79872 16.9963 4.42696 15.6245C3.0552 14.2552 2.29999 12.4328 2.29999 10.494C2.29999 8.55524 3.0552 6.73531 4.42696 5.36355C5.79624 3.99426 7.61865 3.23905 9.55496 3.23905C9.64163 3.23905 9.84714 3.23905 9.93876 3.24648V2.4987H9.94123Z" fill="white"/>
<path d="M26.346 4.19635H23.4688V16.6511H32.3059V14.2246H26.346V4.19635Z" fill="#6B6B6B"/>
<path d="M38.636 11.9041H40.9784V14.0831C40.5476 14.2489 39.7032 14.4124 38.9035 14.4124C36.3135 14.4124 35.4518 13.0976 35.4518 10.4259C35.4518 7.75414 36.2738 6.37743 38.8638 6.37743C40.3024 6.37743 41.1245 6.82808 41.803 7.69224L43.5907 6.04811C42.5012 4.48569 40.5897 4.01276 38.8019 4.01276C34.7733 4.01276 32.6562 6.21153 32.6562 10.4036C32.6562 14.5956 34.5678 16.8365 38.7821 16.8365C40.7135 16.8365 42.6052 16.3437 43.6328 15.6232V9.5815H38.6385V11.9041H38.636Z" fill="#6B6B6B"/>
<path d="M49.2159 12.9482H46.1753V14.5899H51.0334C52.3779 14.5899 53.9527 14.2803 54.802 13.7827V12.1138C53.9403 12.5991 52.6082 12.9482 51.3305 12.9482V11.4551H49.2184V12.9482H49.2159ZM54.1855 6.44845H46.1406V8.07525H54.1855V6.44845ZM51.3949 9.4891C51.3949 10.1081 51.0582 10.5513 50.251 10.5513C49.4437 10.5513 49.0798 10.1081 49.0798 9.4891C49.0798 8.87007 49.4289 8.43923 50.251 8.43923C51.073 8.43923 51.3949 8.85769 51.3949 9.4891ZM52.0932 4.16053H50.6397C49.7656 4.16053 48.7009 4.01197 48.1908 3.80893L47.8813 5.50505C48.4607 5.68086 49.4289 5.78733 50.1148 5.78733H52.0932V4.15806V4.16053ZM58.9024 7.8623H56.8696V4.05406H54.7154V16.6079H56.5997C56.7755 15.8675 56.8696 14.7632 56.8696 13.7678V9.6649H58.9024V7.8623ZM47.0345 9.55843C47.0345 11.0664 47.963 12.0073 50.2237 12.0073C52.4844 12.0073 53.4253 11.0639 53.4253 9.55843C53.4253 8.14705 52.1996 7.15166 50.2237 7.15166C48.2478 7.15166 47.0345 8.14705 47.0345 9.55843ZM64.5405 9.18206C64.5405 9.72185 64.1914 10.1502 63.3966 10.1502C62.5621 10.1502 62.2402 9.71938 62.2402 9.18206C62.2402 8.64475 62.5621 8.22629 63.3966 8.22629C64.231 8.22629 64.5405 8.65713 64.5405 9.18206ZM71.996 6.86691H69.9508V4.05406H67.8114V11.6037H69.9508V8.61751H71.996V6.86691ZM69.9508 12.2227H61.6088V13.8767H67.8114V16.6747H69.7106C69.8864 15.974 69.9533 15.0331 69.9533 14.4141V12.2202L69.9508 12.2227ZM60.3163 9.23654C60.3163 10.6504 61.2052 11.6037 63.399 11.6037C65.5929 11.6037 66.4942 10.6355 66.4942 9.23654C66.4942 7.94649 65.3106 6.92138 63.399 6.92138C61.4875 6.92138 60.3163 7.94401 60.3163 9.23654ZM67.2617 6.31721H59.3902V7.90687H67.2617V6.31721ZM65.3106 4.08377H63.8423C62.9682 4.08377 61.9456 3.93521 61.3662 3.71979L61.069 5.4283C61.6484 5.62886 62.577 5.71057 63.1811 5.71057H65.3081V4.08377H65.3106Z" fill="#6B6B6B"/>
</g>
<defs>
<clipPath id="clip0_43_541">
<rect width="72" height="19.1229" fill="white" transform="translate(0 0.938538)"/>
</clipPath>
</defs>
</svg>
