<svg width="159" height="154" viewBox="0 0 159 154" fill="none" xmlns="http://www.w3.org/2000/svg">
<g id="&#236;&#157;&#188;&#235;&#159;&#172;&#236;&#138;&#164;&#237;&#138;&#184;">
<g id="_&#231;&#147;&#166;?3">
<path id="Vector" fill-rule="evenodd" clip-rule="evenodd" d="M73.9188 50.6086L34.533 40.266C34.7169 38.701 34.6602 37.0039 33.9162 35.6557C33.3337 34.5997 29.4674 30.397 29.1646 29.4889C28.0665 26.1914 28.099 23.696 29.0085 20.3567C29.7089 17.7841 31.3039 14.5257 33.0392 12.1615C34.5543 10.0969 36.1661 8.45189 38.3408 7.51867C40.0045 6.8041 41.3515 7.06741 42.8285 6.5901C44.3056 6.11279 46.0567 4.47617 46.7831 4.29381C47.9768 3.99514 48.3698 3.72904 49.5858 3.48526C53.0489 2.79116 56.5975 3.86581 59.52 5.95648C61.3324 7.25257 63.2163 9.82985 64.6079 11.5725C66.6822 14.1694 68.0469 17.3068 70.7836 19.2644C71.8649 20.0376 73.8064 21.2695 75.0995 21.7551C77.9058 22.8084 81.8195 23.8784 84.3769 24.4813C87.2762 25.1652 87.9692 25.3401 90.7208 26.4157C93.0116 27.3107 97.3377 30.3346 98.3178 32.6263C99.1603 34.596 99.347 35.8679 99.6489 37.9827C100.082 41.0187 98.1041 44.573 98.6011 47.5615C98.7367 48.3756 98.9429 49.3963 101.024 50.2681C103.105 51.139 103.198 52.7877 101.179 54.7155C101.179 54.7155 101.114 56.5401 97.6248 58.0251C97.2476 58.186 95.1314 58.7248 94.784 59.0151C93.5634 60.0339 93.8504 60.3874 93.5021 62.1887C93.1537 63.9901 91.868 65.2499 91.4899 65.2499C91.2103 65.2499 89.6283 61.8715 88.6687 60.5893C87.5187 59.0541 85.3226 55.94 83.8688 54.63C81.8102 52.7738 80.3546 52.1876 77.7944 51.3334L73.9197 50.6096L73.9188 50.6086Z" fill="#FCBB60"/>
<path id="Vector_2" fill-rule="evenodd" clip-rule="evenodd" d="M5.15494 82.2897C5.51351 84.0845 6.09318 85.9054 6.35607 87.7504C6.67563 89.9918 7.59994 92.3067 8.38863 94.4141C9.27113 96.7709 9.93626 99.2728 11.0687 101.54C13.117 105.643 16.1556 111.005 19.2815 114.36C21.9439 117.216 25.1256 117.758 28.3481 119.865C37.6135 125.926 46.2649 132.705 54.3133 140.318C59.0389 144.788 62.3116 150.368 67.2843 154H158.746C158.275 153.201 157.739 152.336 157.174 151.48C155.191 148.479 152.868 145.58 151.743 144.422C149.722 142.341 141.15 133.897 138.952 132.267C136.802 130.671 135.02 128.953 133.486 127.482C130.716 124.826 128.674 122.325 126.163 118.172C123.921 114.463 121.168 108.701 121.05 108.477C119.926 106.351 115.068 97.8483 112.405 94.3602C110.635 92.0415 107.031 86.9549 105.243 84.7433C103.455 82.5307 100.299 78.3615 98.9013 76.1843C96.8455 72.9827 94.7888 70.7403 92.8733 67.4513C90.4552 63.2997 88.1412 60.0925 85.359 56.1931C84.0668 54.3806 81.397 52.7282 79.4462 51.7512C78.4411 51.2479 73.9496 50.6896 73.9496 50.6896C73.9496 50.6896 74.2552 49.2065 73.8483 48.5273C73.1367 47.3401 71.8473 46.6804 71.0717 46.084C70.296 45.4876 70.1678 44.9275 70.0823 44.5869C69.8687 43.7337 69.9346 41.1806 69.1942 40.7359C66.3647 39.0351 63.7218 39.2677 60.5057 38.9448C57.5637 38.6508 53.8238 39.0565 50.8948 39.3505C46.5352 39.7868 42.851 39.5031 38.4979 39.9869C36.7236 40.1841 34.1485 40.173 32.3817 40.3935C31.3775 40.5191 30.3974 40.9471 29.4025 41.0718C28.8451 41.1416 27.2863 41.9575 26.9352 42.487C26.2552 43.5086 27.8028 46.5362 27.9812 47.6052C28.1911 48.8669 27.9914 49.8662 27.4796 50.8003C27.0643 51.5577 27.2427 52.7356 27.2427 52.7356C27.2427 52.7356 25.5464 52.7505 23.7071 53.6837C22.113 54.4913 19.7079 56.4852 18.9202 57.2742C15.968 60.2311 12.8829 63.2857 11.7254 65.6183C11.0157 67.0484 8.95436 70.6743 8.02076 71.9834C7.27017 73.0357 6.72951 73.4255 6.04116 74.369C5.53488 75.0622 5.17352 75.8195 4.86417 76.7481C4.64866 77.3966 4.99794 80.2819 4.99794 80.2819C4.99794 80.2819 5.0574 81.7947 5.1568 82.2925L5.15494 82.2897Z" fill="#EB5544"/>
<path id="Vector_3" fill-rule="evenodd" clip-rule="evenodd" d="M17.4531 102.567C17.4531 102.567 19.9659 102.575 20.2697 103.183C20.5669 103.779 20.8939 104.629 20.8939 104.629C20.8939 104.629 20.7211 109.701 20.4972 112.169C20.0411 117.198 18.8595 122.957 17.8581 127.895C16.839 132.919 16.9951 135.027 16.538 139.606C16.2203 142.786 16.5696 149.244 16.7944 151.609C16.8557 152.261 16.9338 153.178 17.049 153.999H73.1652C73.1875 151.14 73.0194 146.577 72.5196 141.971C71.612 133.612 69.7485 124.861 68.7741 120.472C68.1154 117.506 67.7067 115.556 67.2097 112.569C67.0815 111.801 66.7359 107.992 66.7359 107.992C66.7359 107.992 67.5237 104.969 68.854 103.303C70.3403 101.441 71.2414 99.5222 72.3477 96.7802C73.9195 92.8808 74.9999 91.0804 76.3134 87.6946C77.0733 85.737 78.098 82.3353 78.8579 80.0521C79.7023 77.5157 80.8755 73.1715 81.34 71.4261C81.5881 70.4947 82.1306 67.9649 82.1306 67.9649C82.1306 67.9649 79.5351 66.2603 79.039 66.0119C76.2726 64.6274 74.3552 63.7761 71.3268 62.948C69.3314 62.4028 66.8102 61.9757 64.5111 61.7747C62.2825 61.5803 58.7107 61.3421 56.7413 60.9839C56.0557 60.8592 51.4258 59.9297 51.4258 59.9297C51.4258 59.9297 51.5903 61.8752 52.2805 63.1192C53.0478 64.5027 54.2489 65.5997 54.2517 66.9126C54.2564 69.4517 53.5903 70.5263 52.5257 72.2179C51.6637 73.5884 50.5471 75.4958 49.9488 75.5125C49.5726 75.5227 49.5967 73.8405 49.24 72.8347C48.7309 71.3981 47.7862 70.8892 47.2883 68.8599C46.8182 66.9488 47.03 64.4618 46.9139 62.7684C46.8229 61.4295 46.3603 60.6405 46.3603 60.6405C46.3603 60.6405 46.181 60.7066 45.2557 60.9494C44.0537 61.2639 43.3895 60.3837 43.3895 60.3837C43.3895 60.3837 41.9403 64.8135 40.0053 66.0054C38.0433 67.214 33.6271 67.1945 32.2374 67.87C31.6001 68.1798 30.9136 68.9623 30.5114 69.02C30.2039 69.0637 31.0037 66.0798 32.3507 64.2385C33.3094 62.9275 34.2922 62.4102 35.2277 61.7301C36.0517 61.1299 36.714 60.2507 36.714 60.2507C36.714 60.2507 32.8412 61.2742 31.457 61.7496C28.4621 62.7777 25.6 63.8998 22.6784 65.1308C20.1972 66.1775 15.7122 68.7734 13.4604 70.277C11.1436 71.8243 7.67675 75.1292 7.67675 75.1292C7.67675 75.1292 3.54569 82.5847 2.31762 86.2738C1.18894 89.6652 0.567468 90.7483 0.320366 93.9303C0.0732642 97.1124 0.765335 99.5771 1.22888 100.274C2.96603 102.884 6.01671 102.848 9.03024 103.279C11.4437 103.624 17.4512 102.567 17.4512 102.567H17.4531Z" fill="#328498"/>
<path id="Vector_4" fill-rule="evenodd" clip-rule="evenodd" d="M41.8455 50.8057C41.2203 50.4717 39.9392 48.6044 39.9392 48.6044C39.9392 48.6044 40.8561 47.8619 41.1859 46.8691C41.5473 45.7852 41.6021 42.6636 41.6021 42.6636C41.6021 42.6636 40.7883 41.9471 39.6095 40.5264C38.7808 39.528 37.7701 37.99 37.366 37.0987C36.1203 34.3539 35.8221 28.5927 35.6623 25.539C35.5824 24.0234 36.3089 24.0932 36.6517 22.6212C37.04 20.9576 37.131 19.0512 38.191 17.7774C39.4385 16.2785 40.151 16.2711 42.5608 16.1808C44.9844 16.0896 45.9589 14.5116 47.6997 15.63C50.9975 17.7495 49.3273 22.036 51.9859 26.3643C52.3194 26.9077 53.2419 28.1247 54.2758 28.762C56.8936 30.3763 60.6689 31.4017 60.6689 31.4017C60.6689 31.4017 60.5453 32.2 60.0102 32.6959C59.4742 33.1909 58.5267 33.3835 58.5267 33.3835C58.5267 33.3835 57.372 36.7963 57.4825 40.4566C57.5922 44.1169 58.4719 46.4048 58.4719 46.4048C58.4719 46.4048 55.1769 48.0731 53.9655 48.6034C53.1787 48.9477 50.6036 50.522 49.8159 50.8606C47.9013 51.6822 46.6008 54.8243 46.6008 54.8243L44.271 54.8754C44.271 54.8754 42.8227 51.3268 41.8464 50.8057H41.8455Z" fill="#FFE8D4"/>
<path id="Vector_5" fill-rule="evenodd" clip-rule="evenodd" d="M21.6977 87.9982C21.6977 87.9982 20.8682 86.2174 19.7116 85.0264C18.5542 83.8364 18.5523 83.8289 17.1468 82.5691C15.7413 81.3093 13.8685 79.8337 11.8146 79.4224C10.9349 79.2466 9.84151 80.2831 9.84151 80.2831C9.84151 80.2831 6.78803 79.1777 5.92875 80.1817C5.71416 80.4329 6.03001 81.4964 6.03001 81.4964C6.03001 81.4964 5.50236 81.5968 5.23297 81.9271C4.97379 82.2435 4.9645 82.7803 5.34816 83.1646C5.53766 83.3544 7.11503 84.5807 7.11503 84.5807C7.11503 84.5807 6.91066 85.1371 7.18098 85.8759C7.42901 86.5514 8.58277 87.7451 8.58277 87.7451C8.58277 87.7451 10.1137 87.5144 11.2303 87.4771C12.3478 87.4399 14.6516 87.2836 16.0924 87.4641C17.7636 87.6735 21.6968 87.9982 21.6968 87.9982H21.6977Z" fill="#FFE8D4"/>
<path id="Vector_6" fill-rule="evenodd" clip-rule="evenodd" d="M17.3945 102.759L25.0203 100.954C25.0203 100.954 24.7091 98.459 24.6729 97.6337C24.5791 95.4686 24.7054 93.324 25.3389 91.2612C25.5303 90.6397 26.463 88.3564 26.463 88.3564C26.463 88.3564 31.6168 88.71 33.197 88.7519C34.9285 88.7984 37.2779 88.8347 39.0104 88.8477C43.6347 88.8821 47.8605 88.8077 52.3325 90.0517C53.3293 90.329 56.0195 91.4762 55.9981 91.5366C55.9563 91.6595 54.0548 92.0354 53.4417 92.1982C51.1044 92.8178 48.7802 93.4887 46.4689 94.2033C45.7221 94.4349 43.6802 95.0844 43.6802 95.0844C43.6802 95.0844 43.9821 95.9953 44.0648 96.1469C44.3379 96.6466 44.4875 97.2476 44.6974 97.7808C45.4424 99.6825 45.6106 101.783 45.8094 103.803C45.8837 104.566 45.2502 106.992 45.2502 106.992C45.2502 106.992 39.7498 106.941 37.9514 106.785C33.0939 106.361 25.9325 105.712 21.1596 104.603C18.814 104.057 17.3945 102.757 17.3945 102.757V102.759Z" fill="#FFE8D4"/>
<path id="Vector_7" fill-rule="evenodd" clip-rule="evenodd" d="M64.959 105.887C64.959 105.887 66.2809 107.566 66.8559 108.109C67.351 108.577 67.5192 108.803 68.1258 109.165C68.4231 109.343 69.156 109.348 69.156 109.348C69.156 109.348 70.4472 111.583 71.7273 111.705C72.164 111.746 72.6173 111.678 72.8616 111.295C72.9164 111.21 72.9628 110.33 72.9628 110.33C72.9628 110.33 73.563 110.728 73.6689 110.829C74.0014 111.143 74.7752 111.264 75.1385 110.932C75.9225 110.218 74.9675 108.977 74.6628 108.218C74.5439 107.922 74.1129 106.984 74.1129 106.984C74.1129 106.984 75.144 107.379 75.197 107.395C75.654 107.532 76.1287 107.341 76.1798 106.803C76.2421 106.146 75.4673 104.964 75.2462 104.39C74.635 102.806 73.7357 101.655 72.9359 100.163C72.6832 99.6927 71.8816 98.3417 71.8397 98.3492C71.7543 98.364 70.7817 100.724 70.2726 101.447C69.3715 102.727 68.2252 104.022 66.9265 104.882C66.6088 105.092 64.959 105.887 64.959 105.887V105.887Z" fill="#FFE8D4"/>
<path id="Vector_8" fill-rule="evenodd" clip-rule="evenodd" d="M48.6004 36.8971C48.6004 36.8971 47.6371 36.9296 47.5498 36.924C47.1392 36.8952 45.2079 37.0552 44.0987 37.0059C43.9882 37.0013 42.5566 36.8691 42.5566 36.8691C42.5566 36.8691 42.788 37.7558 42.8651 37.9121C43.3778 38.9635 44.6654 40.2075 46.0216 39.8335C46.3951 39.7302 47.0723 39.6148 47.5906 39.0277C48.109 38.4397 48.5995 36.8961 48.5995 36.8961L48.6004 36.8971Z" fill="white"/>
</g>
<g id="_&#231;&#147;&#166;?2_1_">
<path id="Vector_9" d="M59.8279 88.613C59.7935 88.613 59.7582 88.6065 59.7248 88.5926C59.5817 88.5358 59.513 88.373 59.5696 88.2306C60.9612 84.7452 62.0202 80.656 63.0449 76.6998C64.0732 72.7278 65.1369 68.6209 66.5414 65.1048C66.5981 64.9615 66.7607 64.8918 66.9028 64.9495C67.0459 65.0062 67.1146 65.169 67.0579 65.3114C65.6673 68.7949 64.6083 72.8841 63.5837 76.8394C62.5553 80.8114 61.4916 84.9192 60.0871 88.4372C60.0434 88.546 59.9394 88.6121 59.8288 88.6121L59.8279 88.613Z" fill="#333333"/>
<path id="Vector_10" d="M9.96071 103.55C5.88818 103.55 3.01771 102.696 1.36789 100.987C-0.300516 99.2588 -0.470514 93.5078 1.01117 88.9208C1.86395 86.2793 5.0131 78.9122 7.98947 74.2508C8.07215 74.1205 8.244 74.0833 8.37406 74.1661C8.50318 74.2489 8.54127 74.422 8.45859 74.5513C5.55004 79.1057 2.3628 86.5464 1.54067 89.092C0.13888 93.4334 0.249425 99.0253 1.76827 100.599C5.94391 104.924 18.5322 103.454 39.1847 96.2275C39.7086 96.0442 40.1406 95.8934 40.4657 95.7827C49.2583 92.8016 55.538 91.1222 60.2283 90.497C60.3806 90.4765 60.5209 90.5844 60.5404 90.7361C60.5608 90.8887 60.454 91.0292 60.3017 91.0496C55.6485 91.6702 49.4022 93.3422 40.6441 96.3103C40.3199 96.4201 39.8907 96.5708 39.3686 96.7532C26.4311 101.281 16.5999 103.549 9.96164 103.549L9.96071 103.55Z" fill="#333333"/>
<path id="Vector_11" d="M49.6168 107.32C42.7444 107.32 35.4345 106.926 31.1539 106.401C22.2591 105.312 20.0482 104.977 17.1211 102.929C16.9947 102.84 16.9641 102.667 17.0523 102.541C17.1406 102.414 17.3143 102.384 17.4397 102.472C20.2582 104.444 22.4384 104.772 31.2217 105.849C39.6036 106.876 59.6328 107.413 65.0068 105.447C69.1499 103.931 70.6799 100.228 72.0306 96.9592C72.379 96.1153 72.7088 95.3179 73.0738 94.5689C76.2871 87.9796 80.0438 75.8841 81.819 67.9968C81.8525 67.847 82.0002 67.7531 82.1516 67.7866C82.3011 67.8201 82.3959 67.9699 82.3615 68.1197C80.5798 76.0376 76.8045 88.1871 73.5736 94.8136C73.2169 95.5468 72.8899 96.3358 72.5443 97.1723C71.15 100.546 69.5698 104.37 65.1972 105.969C62.5181 106.95 56.2728 107.32 49.6168 107.32Z" fill="#333333"/>
<path id="Vector_12" d="M8.55754 87.8369C8.49066 87.8369 8.4247 87.8127 8.37082 87.7653C8.08192 87.5038 6.64576 86.15 6.74516 85.1526C6.77953 84.8019 7.02477 84.465 7.36848 84.2948C7.70848 84.1264 8.28908 84.0342 9.12514 84.5506C10.4294 85.3564 11.4234 86.3966 12.0588 87.1093C12.161 87.2238 12.1507 87.4005 12.0365 87.5029C11.9222 87.6052 11.7457 87.595 11.6435 87.4806C11.0323 86.7939 10.0755 85.7928 8.83344 85.0252C8.34946 84.7265 7.9175 84.6446 7.61559 84.7944C7.41586 84.894 7.31275 85.0735 7.29974 85.2084C7.25515 85.6523 7.86362 86.5538 8.74426 87.3512C8.85853 87.4545 8.86781 87.6304 8.7647 87.7448C8.70989 87.8062 8.63372 87.8369 8.55847 87.8369H8.55754Z" fill="#333333"/>
<path id="Vector_13" d="M14.9844 87.5208C14.91 87.5208 14.8348 87.491 14.78 87.4315C13.2026 85.7269 11.864 84.5025 9.6856 83.2901C7.50349 82.0759 6.03017 81.3409 5.46444 82.1513C5.37897 82.2732 5.35296 82.3979 5.38269 82.5421C5.44679 82.8547 5.80072 83.399 7.11705 84.2131L7.22573 84.282C7.35393 84.3676 7.3883 84.5406 7.30284 84.6681C7.21644 84.7965 7.04366 84.83 6.91732 84.7453L6.82535 84.6876C6.38039 84.4132 5.02783 83.5758 4.83739 82.6547C4.77701 82.3625 4.83646 82.0778 5.00832 81.8312C5.90476 80.5482 7.78218 81.593 9.95593 82.8026C12.1994 84.0512 13.5733 85.3064 15.1878 87.0528C15.2928 87.1654 15.2853 87.3422 15.1729 87.4473C15.1191 87.4966 15.0512 87.5217 14.9834 87.5217L14.9844 87.5208Z" fill="#333333"/>
<path id="Vector_14" d="M18.673 87.837C18.5968 87.837 18.5197 87.8054 18.4649 87.743C16.2428 85.2392 12.671 82.0776 9.70112 80.6587C7.93517 79.8158 6.62535 79.8158 6.24448 80.2521C5.99923 80.5331 6.23147 80.9853 6.39125 81.23C6.47579 81.3594 6.43956 81.5315 6.31136 81.6162C6.18224 81.7008 6.01038 81.6655 5.92585 81.5361C5.35082 80.6587 5.61558 80.1256 5.82459 79.8856C6.45907 79.1589 8.07359 79.2631 9.93986 80.1554C13.1884 81.7073 16.7862 85.0131 18.8792 87.3727C18.9814 87.4872 18.9711 87.6639 18.856 87.7663C18.803 87.8128 18.7371 87.8361 18.6711 87.8361L18.673 87.837Z" fill="#333333"/>
<path id="Vector_15" d="M21.7559 88.0747C21.6611 88.0747 21.5691 88.0263 21.5171 87.9388C20.0159 85.4341 16.785 82.2539 14 80.5419C13.3581 80.1474 12.0028 79.5473 10.9939 79.805C10.6028 79.9046 10.3149 80.1214 10.1151 80.4684C10.038 80.6015 9.86803 80.6461 9.73519 80.5708C9.60235 80.4935 9.5559 80.3233 9.63301 80.1893C9.90798 79.712 10.3195 79.4012 10.8574 79.2644C11.9675 78.9816 13.4018 79.5194 14.2917 80.0674C17.1427 81.8203 20.4544 85.0805 21.9946 87.6522C22.0736 87.7844 22.0308 87.9556 21.8989 88.0346C21.8543 88.0616 21.8042 88.0747 21.7559 88.0747Z" fill="#333333"/>
<path id="Vector_16" d="M56.2546 91.7742C56.2249 91.7742 56.1951 91.7696 56.1663 91.7593C55.8356 91.6477 55.464 91.4997 55.0404 91.3304C53.6851 90.7898 51.829 90.0492 49.0032 89.5952C47.1583 89.2984 43.5957 89.2267 39.4712 89.1448C35.184 89.0602 30.3256 88.9634 25.7115 88.6015C24.0357 88.4712 22.4945 88.3261 21.0565 88.1911C14.7563 87.5994 10.5937 87.2095 5.65631 88.8443C5.5086 88.8936 5.35254 88.8136 5.30423 88.6675C5.25593 88.5214 5.33489 88.3633 5.48074 88.3149C10.5277 86.6429 14.9654 87.0597 21.1076 87.6357C22.5438 87.7706 24.0812 87.9148 25.7542 88.046C30.3516 88.4051 35.2017 88.5019 39.4814 88.5875C43.6273 88.6694 47.2075 88.741 49.0905 89.0434C51.9777 89.5077 53.8662 90.2613 55.2457 90.8122C55.6591 90.9768 56.0205 91.1211 56.3428 91.2299C56.4887 91.2792 56.5667 91.4365 56.5184 91.5826C56.4794 91.6989 56.3707 91.7724 56.2546 91.7724V91.7742Z" fill="#333333"/>
<path id="Vector_17" d="M68.8664 109.536C68.4131 109.536 67.8975 109.349 67.5009 109.009C66.8302 108.436 65.8185 107.497 64.7632 105.97C64.6759 105.844 64.7075 105.671 64.8338 105.582C64.9602 105.495 65.1339 105.526 65.2212 105.653C66.2282 107.109 67.1618 107.985 67.8632 108.585C68.3146 108.971 68.9342 109.063 69.2055 108.903C69.2622 108.87 69.4359 108.768 69.3551 108.363C69.2408 107.784 68.859 107.136 68.3759 106.317C68.0805 105.816 67.7461 105.248 67.407 104.588C67.3374 104.451 67.3912 104.283 67.5278 104.212C67.6644 104.143 67.8325 104.195 67.9031 104.333C68.2338 104.98 68.5645 105.54 68.8553 106.034C69.3653 106.899 69.7684 107.582 69.9013 108.255C70.0016 108.759 69.8511 109.17 69.4879 109.384C69.3142 109.486 69.0996 109.535 68.8683 109.535L68.8664 109.536Z" fill="#333333"/>
<path id="Vector_18" d="M71.9792 111.95C70.7901 111.95 69.6689 110.72 69 109.507C68.9257 109.372 68.974 109.203 69.1096 109.128C69.2425 109.053 69.4134 109.102 69.4877 109.238C70.2253 110.576 71.4237 111.734 72.4464 111.295C72.6099 111.225 72.6555 111.141 72.675 111.083C72.806 110.707 72.3545 109.872 71.9169 109.064C71.59 108.458 71.2184 107.772 70.962 107.076C70.4139 105.59 70.1622 105.207 69.6104 104.368C69.4069 104.059 69.1654 103.692 68.8579 103.19C68.7771 103.059 68.818 102.888 68.9489 102.807C69.0781 102.726 69.2508 102.768 69.3317 102.898C69.6354 103.393 69.8742 103.756 70.0758 104.061C70.6341 104.91 70.9146 105.336 71.485 106.882C71.7284 107.541 72.0897 108.208 72.4084 108.798C72.9695 109.837 73.4144 110.658 73.2026 111.266C73.1181 111.51 72.9369 111.693 72.6657 111.808C72.4372 111.906 72.2077 111.95 71.9801 111.95H71.9792Z" fill="#333333"/>
<path id="Vector_19" d="M74.5618 111.38C73.8539 111.38 72.898 110.817 71.7582 108.772C71.683 108.638 71.7313 108.468 71.866 108.393C71.9979 108.318 72.1688 108.366 72.2441 108.501C73.2185 110.25 74.1828 111.069 74.8879 110.751C74.9743 110.712 75.0263 110.657 75.056 110.571C75.2455 110.04 74.6008 108.743 74.0323 107.599C73.7657 107.063 73.4907 106.509 73.2863 106.011C72.7048 104.59 72.2348 103.814 71.7369 102.992C71.3485 102.351 70.9472 101.687 70.4818 100.694C70.4159 100.554 70.4763 100.388 70.6147 100.323C70.7559 100.258 70.9194 100.318 70.9853 100.456C71.4387 101.424 71.8325 102.074 72.2134 102.702C72.7225 103.543 73.2037 104.338 73.8019 105.799C73.9979 106.277 74.2692 106.822 74.5311 107.35C75.2093 108.715 75.8503 110.003 75.5818 110.759C75.501 110.985 75.3403 111.159 75.1173 111.26C74.9547 111.332 74.769 111.38 74.5627 111.38H74.5618Z" fill="#333333"/>
<path id="Vector_20" d="M75.3719 107.739C75.2 107.739 75.0217 107.706 74.8415 107.639C74.1308 107.378 73.5846 106.688 73.5168 106.514C73.461 106.37 73.5316 106.208 73.6747 106.152C73.8159 106.096 73.9729 106.163 74.0314 106.3C74.0927 106.411 74.5628 106.975 75.1007 107.139C75.332 107.209 75.5354 107.195 75.7249 107.092C76.181 106.847 75.8002 106.067 75.0904 104.71C74.8489 104.25 74.5749 103.727 74.3166 103.168C73.684 101.796 73.1656 100.951 72.6157 100.056C72.3017 99.5446 71.9766 99.0161 71.6291 98.3797C71.5548 98.2448 71.605 98.0755 71.7397 98.0011C71.8725 97.9275 72.0435 97.9759 72.1178 98.1118C72.4587 98.7352 72.7801 99.2581 73.0904 99.7633C73.6236 100.632 74.1754 101.532 74.822 102.933C75.0746 103.479 75.344 103.996 75.5828 104.451C76.3482 105.911 76.953 107.064 75.9887 107.583C75.7964 107.686 75.5893 107.737 75.3728 107.737L75.3719 107.739Z" fill="#333333"/>
<path id="Vector_21" d="M70.1762 128.83C72.0277 138.721 72.938 146.994 72.9417 153.999H73.4991C73.4954 146.958 72.5813 138.652 70.7243 128.728C70.3425 126.687 69.9143 124.726 69.461 122.65C68.48 118.158 67.4665 113.513 66.9853 108.131C66.9714 107.976 66.8357 107.867 66.6834 107.878C66.531 107.892 66.4177 108.026 66.4307 108.18C66.9147 113.597 67.9328 118.259 68.9175 122.768C69.3699 124.84 69.7972 126.797 70.1772 128.829L70.1762 128.83Z" fill="#333333"/>
<path id="Vector_22" d="M17.3471 153.999C16.1822 144.755 16.5677 135.6 18.5455 125.342C18.7052 124.515 18.8632 123.711 19.0174 122.923C20.1925 116.944 21.2069 111.78 21.2794 104.555C21.2812 104.4 21.1577 104.275 21.0035 104.273H21.0007C20.8483 104.273 20.7239 104.396 20.722 104.549C20.6505 111.722 19.6407 116.864 18.4711 122.816C18.3169 123.604 18.1581 124.409 17.9992 125.237C16.015 135.529 15.6239 144.72 16.7851 154H17.3462L17.3471 153.999Z" fill="#333333"/>
<path id="Vector_23" d="M19.6758 82.852C19.5392 82.852 19.4203 82.7515 19.4008 82.6119C18.9726 79.5564 20.6893 76.365 22.0679 73.8017C22.3651 73.249 22.6419 72.7336 22.8695 72.2674C23.4362 71.109 23.687 70.08 23.9527 68.9914C24.1831 68.047 24.4209 67.071 24.8807 65.9963C24.9411 65.854 25.1065 65.7889 25.2458 65.8503C25.387 65.9107 25.453 66.0745 25.3916 66.2159C24.9504 67.2478 24.7182 68.2014 24.4934 69.1235C24.2323 70.1935 23.9629 71.3007 23.3702 72.5131C23.1389 72.9857 22.8584 73.5077 22.5583 74.0669C21.2179 76.5595 19.5504 79.6606 19.9526 82.5356C19.974 82.6882 19.8681 82.8287 19.7157 82.8501C19.7027 82.852 19.6897 82.8529 19.6767 82.8529L19.6758 82.852Z" fill="#333333"/>
<path id="Vector_24" d="M7.15149 76.4714C7.13291 76.4714 7.11526 76.4696 7.09668 76.4659C6.94619 76.4361 6.84865 76.2891 6.87838 76.1383C7.38838 73.5825 15.6366 65.9288 36.8195 59.8298C36.9691 59.787 37.1214 59.8735 37.1641 60.0205C37.2069 60.1685 37.1214 60.3229 36.9737 60.3657C15.6208 66.514 7.84263 74.1584 7.4246 76.2472C7.39859 76.3803 7.28155 76.4714 7.15242 76.4714H7.15149Z" fill="#333333"/>
<path id="Vector_25" d="M101.964 85.4362C101.916 85.4362 101.867 85.4241 101.822 85.3971C94.4897 81.0557 90.9847 77.2242 87.8932 73.844C84.2703 69.8832 81.1415 66.4629 72.8283 63.6214C69.6262 62.5272 65.9838 62.1839 62.1277 61.8201C58.5596 61.4833 54.8707 61.1362 51.428 60.1472C51.2803 60.1044 51.1948 59.9499 51.2376 59.8029C51.2803 59.654 51.4345 59.5694 51.5813 59.6122C54.9748 60.5863 58.6376 60.9315 62.1797 61.2655C66.0693 61.6321 69.7433 61.9782 73.0076 63.0948C81.4564 65.9819 84.6298 69.4514 88.3038 73.4681C91.3693 76.8195 94.8445 80.6184 102.106 84.917C102.238 84.9952 102.283 85.1664 102.204 85.2994C102.152 85.3869 102.059 85.4362 101.964 85.4362Z" fill="#333333"/>
<path id="Vector_26" d="M4.9377 80.4082C4.803 80.4082 4.68502 80.3105 4.66366 80.1728C4.15273 76.9396 4.72218 75.0257 6.76309 73.1099C7.78402 72.1534 8.82909 70.2219 9.93547 68.1777C10.9861 66.2369 12.073 64.229 13.2936 62.7357C18.1419 56.8032 23.4388 52.7038 26.4736 52.5354C28.6177 52.4163 30.4839 53.1709 32.6465 54.0464C34.6921 54.8735 37.0098 55.8114 40.015 56.1426C40.1674 56.1594 40.2779 56.2971 40.2612 56.4506C40.2445 56.6032 40.1051 56.7121 39.9537 56.6972C36.8724 56.3576 34.5165 55.4039 32.4385 54.5628C30.3381 53.7133 28.5248 52.982 26.5052 53.0918C23.6617 53.2499 18.4057 57.3606 13.7247 63.0883C12.5375 64.5407 11.4636 66.5244 10.426 68.442C9.29728 70.5271 8.23084 72.4968 7.14489 73.5156C5.23589 75.3067 4.73054 77.0261 5.2136 80.0844C5.23775 80.2361 5.13464 80.3794 4.98229 80.4036C4.96743 80.4054 4.95256 80.4073 4.93863 80.4073L4.9377 80.4082Z" fill="#333333"/>
<path id="Vector_27" d="M19.9878 115.335C19.9181 115.335 19.8484 115.309 19.7936 115.257C17.2957 112.829 13.7722 108.282 12.0629 103.453C12.0118 103.308 12.087 103.149 12.2319 103.097C12.3759 103.046 12.5357 103.121 12.5868 103.267C14.2636 108.006 17.7258 112.472 20.1801 114.857C20.2906 114.964 20.2934 115.141 20.1856 115.251C20.1308 115.308 20.0584 115.336 19.9859 115.336L19.9878 115.335Z" fill="#333333"/>
<path id="Vector_28" d="M49.1099 55.8444C57.8848 50.9094 65.269 50.5103 71.3351 50.7671C77.3909 51.0257 81.0027 52.1609 83.4124 54.5641C86.5012 57.6429 89.1134 61.8941 91.6392 66.0056C93.1256 68.4247 94.5292 70.7089 96.0062 72.7363C100.195 78.4864 104.307 84.1034 108.563 89.6059C111.996 94.045 114.453 98.0309 117.299 102.647L117.977 103.747C119.441 106.118 120.641 108.428 121.913 110.873C124.407 115.672 126.988 120.635 131.696 126.104C132.71 127.282 134.685 128.962 137.187 131.089C143.579 136.525 152.915 144.467 158.36 153.999H159C153.53 144.258 144.031 136.178 137.547 130.665C135.065 128.554 133.104 126.885 132.117 125.741C127.451 120.321 124.887 115.387 122.406 110.616C121.131 108.161 119.925 105.843 118.451 103.454L117.773 102.355C114.92 97.7248 112.455 93.7277 109.004 89.2645C104.752 83.7684 100.644 78.1552 96.4568 72.4079C94.9928 70.3982 93.5947 68.1223 92.1139 65.7135C89.5714 61.5749 86.9415 57.295 83.8054 54.1696C81.2888 51.6594 77.5665 50.4749 71.3592 50.2107C65.2114 49.9492 57.7343 50.3549 48.8377 55.3587C48.7039 55.4341 48.6556 55.6044 48.7308 55.7383C48.8061 55.8733 48.9761 55.9198 49.1099 55.8453V55.8444Z" fill="#333333"/>
<path id="Vector_29" d="M45.0227 61.2821C44.2536 61.2821 43.5262 60.9397 43.1267 60.3396C42.4923 59.385 42.025 57.7567 42.3613 56.4886C42.5424 55.8047 42.9502 55.2874 43.5401 54.9915C44.732 54.3942 46.5936 54.4379 47.9684 55.0957C49.0126 55.5953 49.6786 56.3797 49.8942 57.3632C49.9267 57.5139 49.8319 57.6618 49.6814 57.6953C49.5579 57.7204 49.4362 57.6637 49.3786 57.5585C49.3628 57.5623 49.3461 57.5641 49.3303 57.566C48.4106 57.6144 47.9527 58.4508 47.4687 59.3375C47.0506 60.1014 46.6187 60.8913 45.8476 61.1491C45.5764 61.2393 45.2968 61.2831 45.0237 61.2831L45.0227 61.2821ZM45.5429 55.1311C44.8927 55.1311 44.2693 55.2502 43.7891 55.4902C43.3395 55.7154 43.0403 56.0996 42.8991 56.6318C42.6084 57.7288 43.0376 59.2017 43.5894 60.0307C43.9944 60.6392 44.8704 60.8867 45.6702 60.6197C46.2341 60.4317 46.5964 59.7702 46.9791 59.0696C47.4761 58.1605 48.0381 57.1333 49.1984 57.017C48.8742 56.2829 48.2434 55.8466 47.7278 55.6C47.0794 55.2892 46.2917 55.132 45.542 55.132L45.5429 55.1311Z" fill="#333333"/>
<path id="Vector_30" d="M45.1696 61.0731C45.0693 61.0731 44.9727 61.0182 44.9225 60.9233C44.3958 59.9129 44.5834 58.0148 45.6211 56.9876C46.1682 56.447 47.414 55.7176 49.6174 56.9039C49.7531 56.9765 49.8032 57.1458 49.7308 57.2816C49.6583 57.4175 49.4892 57.4677 49.3536 57.3952C47.9332 56.6303 46.7786 56.6266 46.0122 57.384C45.1547 58.2316 44.9885 59.844 45.4158 60.6647C45.4864 60.8015 45.4344 60.9699 45.2978 61.0406C45.2569 61.062 45.2123 61.0722 45.1696 61.0722V61.0731Z" fill="#333333"/>
<path id="Vector_31" d="M30.4251 69.4145C30.3517 69.4145 30.2885 69.3838 30.2263 69.3215C29.8408 68.9353 31.6299 64.7866 31.6494 64.7465C32.2486 63.5472 33.2872 62.8382 34.2914 62.1525C34.8116 61.798 35.3495 61.4305 35.8084 61.0044C36.2301 60.6117 36.6231 60.1474 36.9147 59.698L37.1507 59.3287C38.2292 57.6316 40.037 54.7928 42.5953 56.2704C42.7281 56.3466 42.7746 56.5178 42.6975 56.6509C42.6213 56.7849 42.4495 56.8295 42.3175 56.7532C40.3788 55.633 38.9891 57.4743 37.6198 59.6283L37.3811 60.0014C37.0652 60.4889 36.6407 60.9895 36.1864 61.4128C35.696 61.8687 35.1414 62.2474 34.6044 62.614C33.6151 63.2886 32.6806 63.9268 32.1464 64.9959C31.7618 65.7663 31.1292 67.5397 30.8422 68.4887C30.9453 68.4003 31.0382 68.3194 31.0921 68.2719C31.2026 68.1752 31.2844 68.1063 31.3039 68.0942C32.086 67.5853 32.8162 67.3583 33.8148 67.1396C34.4846 66.9926 35.1785 66.8996 35.8502 66.8093C37.9728 66.5246 39.9784 66.2557 41.3171 64.4116C41.6691 63.9268 41.8763 63.3965 42.0965 62.8345C42.168 62.6512 42.2404 62.467 42.3185 62.2818C42.39 62.1125 42.4745 61.9376 42.5619 61.7599C42.7941 61.2835 43.0338 60.7904 43.0338 60.3224C43.0338 60.1679 43.1582 60.0432 43.3125 60.0432C43.4667 60.0432 43.5911 60.1679 43.5911 60.3224C43.5911 60.9188 43.3106 61.4947 43.0626 62.0036C42.9808 62.1721 42.9 62.3377 42.8322 62.4986C42.756 62.6791 42.6854 62.8596 42.6157 63.0383C42.3928 63.6077 42.1624 64.1967 41.7685 64.74C40.2896 66.7767 38.0713 67.0745 35.9254 67.362C35.2649 67.4504 34.5821 67.5425 33.9347 67.6839C32.9778 67.8942 32.3229 68.0961 31.6086 68.5613C31.5956 68.5725 31.537 68.6236 31.4599 68.6916C30.9239 69.1624 30.6359 69.4145 30.426 69.4145H30.4251Z" fill="#333333"/>
<path id="Vector_32" d="M50.0076 75.8068C49.9137 75.8068 49.8524 75.7724 49.8106 75.7482C49.4613 75.5518 49.4205 75.1592 49.3684 74.6624C49.3183 74.1869 49.2505 73.5365 48.8975 72.755C48.6671 72.246 48.3958 71.7929 48.1339 71.3538C47.6025 70.4643 47.0526 69.5441 46.8695 68.1875C46.7636 67.405 46.7701 66.4681 46.7767 65.4762C46.7878 63.7773 46.8008 61.8513 46.1886 60.6241C46.1199 60.4864 46.1756 60.3189 46.3131 60.25C46.4506 60.1821 46.6178 60.237 46.6865 60.3747C47.3591 61.721 47.3461 63.6321 47.334 65.48C47.3275 66.4523 47.321 67.3697 47.4213 68.1131C47.5895 69.3561 48.0855 70.187 48.6113 71.0672C48.8817 71.5194 49.1613 71.9874 49.4047 72.5242C49.7948 73.3877 49.8682 74.0901 49.9221 74.6028C49.9509 74.8819 49.9769 75.1285 50.0466 75.2262C50.3522 75.0606 51.1307 73.972 51.6834 73.0295C52.6012 71.4682 53.0694 70.6392 53.6964 68.8825C54.0615 67.8581 54.042 66.67 53.6453 65.7814C53.4066 65.2474 53.075 64.7617 52.7247 64.2471C52.2649 63.5726 51.7893 62.8748 51.5394 62.0569C51.4419 61.7369 51.3675 61.3656 51.2895 60.972C51.0015 59.5234 50.6745 57.8821 49.0275 57.6737C48.8752 57.6541 48.7674 57.5146 48.786 57.362C48.8055 57.2094 48.9448 57.1024 49.0972 57.1201C51.1409 57.3797 51.5422 59.3931 51.8348 60.8632C51.91 61.2428 51.9816 61.601 52.0708 61.8941C52.2956 62.631 52.7275 63.2637 53.1836 63.9327C53.5329 64.4444 53.8943 64.9738 54.1525 65.5535C54.6059 66.5676 54.6319 67.9149 54.2194 69.0696C53.5757 70.8746 53.0973 71.7203 52.1618 73.3123C50.9049 75.4588 50.3002 75.8059 50.0066 75.8059L50.0076 75.8068Z" fill="#333333"/>
<path id="Vector_33" d="M39.9443 48.9201C39.8663 48.9201 39.7883 48.8875 39.7335 48.8233C39.6331 48.707 39.6461 48.5303 39.7632 48.4307C40.5918 47.7161 41.5208 46.4089 41.3489 42.6155C41.3415 42.462 41.4613 42.3317 41.6146 42.3243C41.7623 42.3103 41.8979 42.436 41.9053 42.5904C42.0484 45.738 41.4994 47.6696 40.1264 48.854C40.0744 48.8996 40.0094 48.922 39.9453 48.922L39.9443 48.9201Z" fill="#333333"/>
<path id="Vector_34" d="M46.4711 44.5256C46.2723 44.5256 46.0763 44.5162 45.883 44.4976C42.5695 44.1841 39.8383 41.7231 38.5062 39.7115C36.4894 36.6653 36.1058 33.3306 35.9423 31.9062C35.9246 31.7536 36.0343 31.6149 36.1866 31.5973C36.3417 31.5786 36.4774 31.6894 36.495 31.842C36.6539 33.2264 37.0264 36.468 38.9698 39.4026C40.2341 41.3119 42.8175 43.6463 45.9351 43.9412C48.5993 44.1925 52.0504 42.4414 54.1461 39.7766C54.2408 39.6557 54.4164 39.6352 54.5372 39.7301C54.6579 39.825 54.6784 40.0009 54.5836 40.1218C52.4935 42.7791 49.2393 44.5237 46.4711 44.5237V44.5256Z" fill="#333333"/>
<path id="Vector_35" d="M45.1978 33.8474C45.1365 33.8474 45.0743 33.8269 45.0223 33.7851C43.9382 32.903 44.3153 32.0405 44.647 31.2804C44.9544 30.576 45.2721 29.8484 44.7724 28.8678C44.7027 28.731 44.7566 28.5626 44.8941 28.4928C45.0306 28.4221 45.1988 28.477 45.2684 28.6147C45.8871 29.8308 45.4821 30.7584 45.157 31.5046C44.8207 32.2741 44.6182 32.7393 45.3734 33.3534C45.4923 33.4501 45.5109 33.626 45.4143 33.746C45.3595 33.8139 45.2787 33.8493 45.1978 33.8493V33.8474Z" fill="#333333"/>
<path id="Vector_36" fill-rule="evenodd" clip-rule="evenodd" d="M39.2647 28.9204C39.2712 28.377 39.6484 27.9499 40.1073 27.9658C40.5662 27.9816 40.9331 28.4356 40.9275 28.979C40.921 29.5224 40.5439 29.9494 40.085 29.9327C39.6261 29.9169 39.2591 29.4628 39.2647 28.9204Z" fill="#333333"/>
<path id="Vector_37" fill-rule="evenodd" clip-rule="evenodd" d="M49.5855 28.9914C49.6032 28.408 50.0157 27.9559 50.5061 27.981C50.9966 28.007 51.3794 28.5002 51.3608 29.0845C51.3431 29.6678 50.9307 30.121 50.4411 30.0949C49.9506 30.0689 49.5679 29.5757 49.5855 28.9914Z" fill="#333333"/>
<path id="Vector_38" d="M48.7062 25.1565C48.6022 25.1565 48.5028 25.0979 48.4554 24.9983C48.3885 24.8597 48.4471 24.6931 48.5855 24.6261C49.3063 24.28 50.2084 24.1264 51.0593 24.2037C51.2126 24.2176 51.325 24.3535 51.312 24.5061C51.298 24.6596 51.1615 24.7722 51.01 24.7592C50.2548 24.6912 49.4596 24.8262 48.827 25.1295C48.788 25.1481 48.7471 25.1574 48.7072 25.1574L48.7062 25.1565Z" fill="#333333"/>
<path id="Vector_39" d="M41.7512 25.175C41.7131 25.175 41.6741 25.1676 41.6369 25.1509C40.8343 24.7898 39.309 24.6847 38.2416 25.1434C38.0995 25.2039 37.936 25.1388 37.8756 24.9973C37.8143 24.8559 37.8793 24.6921 38.0215 24.6307C39.2421 24.1031 40.9347 24.2222 41.8645 24.6409C42.0048 24.7042 42.0671 24.8689 42.0039 25.0094C41.9574 25.1127 41.8562 25.1741 41.7494 25.1741L41.7512 25.175Z" fill="#333333"/>
<path id="Vector_40" d="M43.0175 16.3207C42.868 16.3207 42.7435 16.2007 42.7398 16.0499C42.6915 14.27 43.8146 12.4231 45.6 11.3448C47.3855 10.2673 49.3892 10.2003 51.0985 11.1652C51.2323 11.2406 51.2797 11.4108 51.2044 11.5448C51.1292 11.6779 50.9592 11.7262 50.8254 11.6509C49.2973 10.7884 47.4979 10.8507 45.888 11.8221C44.2707 12.7981 43.2535 14.4515 43.2972 16.0341C43.3009 16.1876 43.1801 16.316 43.0268 16.3207H43.0194H43.0175Z" fill="#333333"/>
<path id="Vector_41" d="M32.5704 28.273C32.458 28.273 32.3521 28.2051 32.3103 28.0934C32.2555 27.9501 32.3279 27.7882 32.4719 27.7343C35.491 26.5833 36.1803 23.645 36.7888 21.0519C37.3731 18.5593 37.9249 16.2053 40.4563 16.0174C40.6133 16.0025 40.7433 16.1207 40.7545 16.2742C40.7656 16.4277 40.6514 16.5617 40.4981 16.5728C38.3736 16.731 37.9137 18.6942 37.3313 21.1794C36.6922 23.9074 35.9667 26.9992 32.6707 28.2553C32.6382 28.2674 32.6048 28.2739 32.5713 28.2739L32.5704 28.273Z" fill="#333333"/>
<path id="Vector_42" d="M45.5833 40.1329C45.5155 40.1329 45.4468 40.1311 45.3771 40.1274C42.9627 39.9915 42.3218 36.9834 42.2948 36.855C42.2763 36.7657 42.3032 36.6727 42.3664 36.6066C42.4295 36.5406 42.5187 36.5099 42.6107 36.5229C42.6246 36.5247 44.0218 36.7387 45.4449 36.7434C46.8755 36.7508 48.5699 36.5173 48.5866 36.5145C48.674 36.5033 48.7613 36.5331 48.8226 36.5955C48.8839 36.6578 48.9127 36.7462 48.8997 36.8327C48.8941 36.8662 48.3655 40.132 45.5833 40.132V40.1329ZM42.9488 37.1323C43.1931 37.8878 43.8871 39.4844 45.4078 39.571C47.379 39.6817 48.059 37.9083 48.2689 37.1174C47.6735 37.1872 46.5104 37.3035 45.4431 37.3017C44.4444 37.2989 43.4811 37.1993 42.9488 37.1323Z" fill="#333333"/>
<path id="Vector_43" d="M46.5438 54.9555C46.5085 54.9555 46.4732 54.949 46.4389 54.935C46.2967 54.8764 46.228 54.7136 46.2865 54.5712C47.6446 51.2412 51.092 49.6055 52.7483 48.8193C53.0642 48.6695 53.4395 48.4955 53.8603 48.302C56.8246 46.9324 62.3426 44.384 64.861 41.7137C64.9659 41.6011 65.1424 41.5964 65.2539 41.7025C65.3654 41.8086 65.3709 41.9844 65.265 42.0961C62.6733 44.8445 57.0921 47.4228 54.0934 48.8082C53.6754 49.0017 53.302 49.1738 52.9871 49.3236C50.438 50.5341 47.9243 52.0321 46.8021 54.7825C46.7584 54.8904 46.6544 54.9555 46.5448 54.9555H46.5438Z" fill="#333333"/>
<path id="Vector_44" d="M44.3014 54.9976C44.1844 54.9976 44.0757 54.9231 44.0376 54.8059C42.6256 50.5222 36.3356 45.7184 31.3183 43.7245C31.1753 43.6678 31.1056 43.5059 31.1623 43.3626C31.219 43.2193 31.3815 43.1495 31.5236 43.2063C36.658 45.2467 43.104 50.1947 44.5662 54.6319C44.6145 54.778 44.5355 54.9362 44.3897 54.9836C44.3609 54.9939 44.3311 54.9976 44.3023 54.9976H44.3014Z" fill="#333333"/>
<path id="Vector_45" d="M27.2332 52.8158C27.104 52.8158 26.9879 52.7246 26.961 52.5934C26.7752 51.6862 27.0112 51.1243 27.2601 50.5288C27.5072 49.9389 27.7878 49.2699 27.7664 48.0483C27.7525 47.2537 27.418 46.4163 27.0957 45.6068C26.4603 44.0158 25.7403 42.2135 28.151 41.1966C31.3429 39.8503 37.5882 39.6242 39.0346 39.8465C39.187 39.8698 39.291 40.0122 39.2668 40.1647C39.2436 40.3173 39.1024 40.4215 38.9491 40.3974C37.7787 40.2168 31.6169 40.3397 28.3656 41.7102C26.5476 42.4769 26.8755 43.5562 27.6113 45.3984C27.9531 46.2544 28.307 47.1402 28.3219 48.038C28.3451 49.3769 28.0274 50.1343 27.772 50.7437C27.5295 51.3234 27.3539 51.7421 27.5044 52.4799C27.5351 52.6306 27.4385 52.7786 27.288 52.8093C27.2694 52.813 27.2499 52.8148 27.2313 52.8148L27.2332 52.8158Z" fill="#333333"/>
<path id="Vector_46" d="M73.9043 50.7762C73.7501 50.7762 73.6256 50.6515 73.6256 50.4971C73.6256 50.3687 73.6312 50.2207 73.6377 50.0635C73.6553 49.655 73.6767 49.1452 73.5754 48.8437C73.3172 48.0686 72.5982 47.5802 71.8374 47.0638C71.2261 46.6488 70.5935 46.2199 70.1903 45.6151C69.6441 44.7945 69.6357 43.971 69.6265 43.1737C69.6181 42.4116 69.6097 41.6924 69.1016 41.0458C68.3157 40.0465 63.8846 38.8732 57.6114 39.2659C57.459 39.2733 57.3262 39.1589 57.316 39.0053C57.3067 38.8518 57.4228 38.7197 57.5761 38.7095C63.7768 38.3206 68.5284 39.4166 69.5382 40.7006C70.1643 41.497 70.1736 42.3456 70.1829 43.1672C70.1913 43.9161 70.1996 44.6223 70.6529 45.3053C70.9948 45.8189 71.555 46.1994 72.1486 46.6023C72.953 47.1485 73.7854 47.7123 74.1031 48.6669C74.2359 49.067 74.2136 49.6085 74.1932 50.0867C74.1867 50.2347 74.1811 50.3752 74.1811 50.4961C74.1811 50.6506 74.0566 50.7753 73.9024 50.7753L73.9043 50.7762Z" fill="#333333"/>
<path id="Vector_47" d="M34.4771 40.3221C34.4632 40.3221 34.4492 40.3211 34.4353 40.3193C34.2829 40.296 34.1789 40.1546 34.2012 40.002C34.7084 36.6255 33.5017 35.2922 31.8314 33.4453C31.0688 32.6014 30.2039 31.6449 29.4264 30.3665C27.0501 26.4587 28.2327 22.2076 28.8012 20.1644L28.8681 19.9234C30.3507 14.5343 35.3234 6.80713 40.4726 6.80713C40.5051 6.80713 40.5376 6.80713 40.5701 6.80713C40.7243 6.80992 40.846 6.93739 40.8432 7.09091C40.8404 7.24443 40.7048 7.36539 40.5599 7.36446C40.5302 7.36446 40.4995 7.36446 40.4698 7.36446C35.5946 7.36446 30.8412 14.8507 29.4041 20.0704L29.3372 20.3123C28.7473 22.4309 27.6511 26.374 29.902 30.0753C30.6517 31.309 31.4979 32.2441 32.2439 33.0694C33.8826 34.8809 35.2974 36.4459 34.7511 40.083C34.7298 40.2216 34.6118 40.3202 34.4762 40.3202L34.4771 40.3221Z" fill="#333333"/>
<path id="Vector_48" d="M63.9782 34.7867C63.8593 34.7867 63.7487 34.7095 63.7125 34.5895C62.9647 32.1369 60.0905 31.2278 57.5535 30.4249C56.41 30.0629 55.3296 29.7205 54.5353 29.2637C53.6148 28.7334 52.7044 27.8206 52.1582 27.1433C50.6885 25.3159 50.3355 23.0661 49.9946 20.8908C49.9147 20.379 49.8348 19.8692 49.7401 19.3658C49.6147 18.6959 48.8446 16.6331 47.4753 15.9102C46.8427 15.5762 46.1478 15.5725 45.4093 15.899C45.2681 15.9614 45.1037 15.8972 45.0424 15.7567C44.9801 15.6153 45.0442 15.4515 45.1845 15.3892C46.0856 14.9909 46.9439 15.0012 47.7345 15.4171C49.4047 16.2991 50.1832 18.7127 50.2863 19.2635C50.382 19.7724 50.4628 20.2879 50.5436 20.8052C50.8734 22.908 51.2143 25.0824 52.5901 26.7943C53.1038 27.4326 53.9575 28.2895 54.8112 28.7817C55.5526 29.2088 56.6051 29.5419 57.7198 29.8945C60.3868 30.7384 63.4096 31.6958 64.2429 34.4285C64.2884 34.5755 64.2048 34.7318 64.0581 34.7765C64.0311 34.7849 64.0042 34.7886 63.9772 34.7886L63.9782 34.7867Z" fill="#333333"/>
<path id="Vector_49" d="M102.625 50.9299C101.136 50.9299 99.9048 50.3986 99.1607 49.4347C98.1955 48.1842 98.0339 46.2852 98.6814 43.7907C100.091 38.3607 99.0437 34.9442 97.9735 32.5744C95.7124 27.5696 87.0081 25.2185 83.3704 24.4397C80.0326 23.7251 74.9884 22.6449 71.7111 20.2044C68.6799 17.9462 67.5196 16.2501 65.9144 13.9035C64.8507 12.3497 63.6459 10.5875 61.5873 8.17859C58.9361 5.07655 54.8914 3.37852 50.7687 3.6288C47.6465 3.82047 45.0742 5.11004 43.7124 7.16629C43.6278 7.29376 43.4551 7.33004 43.3269 7.24444C43.1987 7.15978 43.1634 6.98672 43.2488 6.85832C44.7082 4.65506 47.4366 3.27431 50.7343 3.07241C55.028 2.80723 59.2454 4.58156 62.01 7.81573C64.0881 10.2479 65.3022 12.0222 66.3733 13.5881C67.9488 15.8909 69.0868 17.5545 72.0436 19.7568C75.2234 22.1257 80.1961 23.1901 83.4865 23.8945C87.2069 24.6909 96.1156 27.1072 98.4807 32.3437C99.589 34.7972 100.675 38.3319 99.222 43.9303C98.6201 46.2489 98.7483 47.986 99.6029 49.0923C100.419 50.1493 101.698 50.3707 102.627 50.3707C102.781 50.3707 102.905 50.4954 102.905 50.6498C102.905 50.8043 102.781 50.929 102.627 50.929L102.625 50.9299Z" fill="#333333"/>
<path id="Vector_50" d="M58.5822 33.6837C58.4521 33.6837 58.336 33.5916 58.31 33.4595C58.2803 33.3088 58.3778 33.1618 58.5283 33.1311C58.7912 33.079 60.1131 32.744 60.3509 31.313C60.376 31.1604 60.5191 31.0562 60.6714 31.0841C60.8228 31.1092 60.926 31.2525 60.8999 31.4051C60.6696 32.7942 59.5799 33.4902 58.6379 33.6791C58.6194 33.6828 58.6008 33.6847 58.5831 33.6847L58.5822 33.6837Z" fill="#333333"/>
<path id="Vector_51" d="M58.4007 46.597C58.2911 46.597 58.1861 46.5309 58.1425 46.4221C56.8243 43.1451 57.0928 39.1954 57.5805 35.4151C57.6 35.2625 57.7393 35.1602 57.8926 35.1741C58.0449 35.1937 58.1527 35.3332 58.1332 35.4867C57.6557 39.1917 57.3891 43.0567 58.6599 46.2136C58.7175 46.3569 58.6478 46.5188 58.5057 46.5765C58.4713 46.5905 58.436 46.597 58.4016 46.597H58.4007Z" fill="#333333"/>
<path id="Vector_52" d="M97.5603 57.7534C96.7085 57.7534 95.865 57.5059 95.0735 57.0193C93.4859 56.0414 92.1649 54.1127 91.7098 52.1039C91.5286 51.3065 91.4357 50.4859 91.3456 49.6931C91.2202 48.5896 91.0911 47.4489 90.7214 46.3929C89.8788 43.9877 87.758 39.8241 83.0213 38.9606C82.8698 38.9327 82.7704 38.7876 82.7974 38.6369C82.8252 38.4852 82.972 38.3838 83.1216 38.4126C86.8374 39.089 89.7227 41.858 91.2471 46.2087C91.6382 47.3233 91.7701 48.4966 91.8993 49.6308C91.9875 50.4086 92.0786 51.2134 92.2523 51.981C92.6768 53.8503 93.8984 55.6423 95.3652 56.5448C96.3777 57.1682 97.4377 57.3478 98.5181 57.077C98.6686 57.0389 98.8181 57.13 98.8553 57.2798C98.8924 57.4287 98.8014 57.5804 98.6528 57.6176C98.2895 57.7088 97.9235 57.7544 97.5594 57.7544L97.5603 57.7534Z" fill="#333333"/>
<path id="Vector_53" d="M95.7593 61.739C94.6975 61.739 93.7444 61.1854 93.0356 60.1415C92.9492 60.014 92.9817 59.841 93.109 59.7544C93.2353 59.6679 93.4091 59.7005 93.4954 59.8279C93.8986 60.4197 94.7802 61.3771 96.195 61.1445C96.3436 61.1166 96.4895 61.2217 96.5155 61.3734C96.5406 61.525 96.4384 61.6683 96.2869 61.6944C96.1086 61.7242 95.9321 61.739 95.7593 61.739Z" fill="#333333"/>
<path id="Vector_54" d="M91.4636 65.3339C91.4172 65.3339 91.3698 65.3227 91.3271 65.2976C91.1933 65.2222 91.1459 65.0519 91.2212 64.918C92.1743 63.2255 91.903 60.7924 90.5458 58.8646C90.4576 58.739 90.4873 58.565 90.6136 58.4766C90.74 58.3882 90.9127 58.418 91.0019 58.5436C92.4799 60.6445 92.7632 63.3167 91.7061 65.1924C91.655 65.2836 91.5602 65.3339 91.4636 65.3339Z" fill="#333333"/>
<path id="Vector_55" d="M98.6491 56.1507C98.1874 56.1507 97.7489 56.0558 97.3959 55.866C97.2603 55.7934 97.2092 55.6241 97.2826 55.4882C97.355 55.3524 97.525 55.3022 97.6597 55.3747C98.2422 55.6883 99.1368 55.6687 99.8864 55.3245C100.386 55.0956 100.717 54.7625 100.795 54.4099C100.828 54.2601 100.975 54.167 101.128 54.1977C101.277 54.2312 101.372 54.3801 101.339 54.5308C101.221 55.063 100.788 55.5255 100.119 55.8325C99.6551 56.0446 99.1405 56.1516 98.65 56.1516L98.6491 56.1507Z" fill="#333333"/>
<path id="Vector_56" d="M42.809 55.8186C42.7374 55.8186 42.6668 55.7916 42.612 55.7367C41.226 54.3485 38.2311 52.9845 36.7912 52.3294C36.6509 52.2662 36.5896 52.1006 36.6528 51.9601C36.7159 51.8205 36.8804 51.7563 37.0216 51.8214C39.3727 52.8914 41.7249 54.0591 43.005 55.3422C43.1136 55.451 43.1136 55.6278 43.005 55.7367C42.9502 55.7916 42.8796 55.8186 42.808 55.8186H42.809Z" fill="#333333"/>
<path id="Vector_57" d="M45.4433 107.061C45.4229 107.061 45.4024 107.059 45.382 107.054C45.2324 107.02 45.1377 106.87 45.1721 106.721C46.2078 102.12 44.4493 97.0534 43.4879 95.4484C43.4089 95.3163 43.4516 95.1451 43.5835 95.066C43.7155 94.986 43.8864 95.0297 43.9653 95.1618C45.0039 96.8952 46.7977 102.032 45.7146 106.843C45.6858 106.973 45.5706 107.06 45.4433 107.06V107.061Z" fill="#333333"/>
<path id="Vector_58" d="M24.9504 101.053C24.8138 101.053 24.694 100.953 24.6754 100.813C24.2054 97.4449 24.0855 92.5472 26.1831 88.3444C26.2519 88.2077 26.4191 88.1509 26.5566 88.2198C26.694 88.2886 26.7498 88.4561 26.681 88.5938C24.6466 92.6681 24.7674 97.4459 25.2263 100.736C25.2477 100.888 25.1418 101.029 24.9894 101.05C24.9764 101.052 24.9634 101.053 24.9504 101.053Z" fill="#333333"/>
<g id="Group">
<path id="Vector_59" fill-rule="evenodd" clip-rule="evenodd" d="M13.0176 24.8461C13.0176 24.8461 13.8917 24.7168 14.4445 23.8719C14.9963 23.0271 15.1988 21.3579 15.1988 21.3579C15.1988 21.3579 15.2285 22.9936 15.7812 23.8515C16.3339 24.7102 17.4524 24.7577 17.4524 24.7577C17.4524 24.7577 16.4454 24.8935 15.8797 25.703C15.314 26.5125 15.1913 28.2235 15.1913 28.2235C15.1913 28.2235 15.1022 26.7023 14.5624 25.8807C14.0227 25.0582 13.0176 24.8461 13.0176 24.8461Z" fill="white"/>
<path id="Vector_60" d="M15.1919 28.5025H15.19C15.0432 28.5015 14.9225 28.3871 14.9141 28.2401C14.9141 28.2261 14.8221 26.783 14.3307 26.0331C13.8625 25.3213 12.9689 25.1204 12.9605 25.1185C12.8286 25.0897 12.7366 24.9715 12.7403 24.8366C12.745 24.7026 12.8435 24.591 12.9763 24.5705C13.0097 24.5649 13.7399 24.4412 14.2127 23.7191C14.7227 22.9385 14.9215 21.34 14.9234 21.3242C14.941 21.1781 15.0739 21.0674 15.2141 21.0795C15.36 21.087 15.4752 21.2061 15.478 21.3521C15.478 21.3679 15.5133 22.9199 16.0168 23.6996C16.4822 24.4225 17.4566 24.4774 17.4669 24.4784C17.6099 24.4858 17.7251 24.6003 17.7316 24.7445C17.7381 24.8878 17.635 25.0134 17.4929 25.0329C17.4836 25.0338 16.5955 25.1669 16.1097 25.8619C15.595 26.5979 15.4724 28.2261 15.4715 28.2429C15.4612 28.389 15.3396 28.5015 15.1937 28.5015L15.1919 28.5025ZM13.7966 24.8477C14.1319 25.0245 14.5165 25.3018 14.7961 25.727C14.9652 25.9847 15.0925 26.3011 15.1891 26.6193C15.2987 26.2266 15.4482 25.8349 15.6526 25.5428C15.896 25.1948 16.2081 24.9585 16.5017 24.7984C16.1654 24.6486 15.8059 24.403 15.5486 24.0029C15.3609 23.7117 15.229 23.3451 15.1361 22.9776C15.02 23.3544 14.8686 23.7312 14.6781 24.0243C14.4152 24.4263 14.0883 24.684 13.7966 24.8477Z" fill="#333333"/>
</g>
<g id="Group_2">
<path id="Vector_61" fill-rule="evenodd" clip-rule="evenodd" d="M75.9541 14.3324C75.9541 14.3324 76.7269 14.2179 77.2156 13.4699C77.7042 12.7227 77.8826 11.2471 77.8826 11.2471C77.8826 11.2471 77.9086 12.6939 78.3972 13.4522C78.8868 14.2114 79.8752 14.2533 79.8752 14.2533C79.8752 14.2533 78.9843 14.3733 78.4845 15.0888C77.9838 15.8043 77.8751 17.3181 77.8751 17.3181C77.8751 17.3181 77.7962 15.9727 77.3187 15.246C76.8412 14.5185 75.9531 14.3324 75.9531 14.3324H75.9541Z" fill="white"/>
<path id="Vector_62" d="M77.8757 17.597H77.8738C77.727 17.5961 77.6063 17.4816 77.5979 17.3346C77.5979 17.3225 77.5171 16.0543 77.087 15.3993C76.6773 14.775 75.9044 14.6066 75.897 14.6047C75.7651 14.5768 75.6722 14.4587 75.6759 14.3238C75.6805 14.1888 75.7799 14.0763 75.9128 14.0567C75.9471 14.0511 76.576 13.9404 76.9839 13.317C77.4307 12.6341 77.6053 11.2273 77.6072 11.2133C77.6248 11.0682 77.7335 10.9612 77.897 10.9686C78.0429 10.9761 78.1581 11.0952 78.1608 11.2412C78.1608 11.2552 78.1924 12.6183 78.6318 13.3003C79.0387 13.9302 79.8785 13.9739 79.8878 13.9739C80.0308 13.9795 80.146 14.0949 80.1534 14.2391C80.1609 14.3824 80.0568 14.5089 79.9147 14.5284C79.9073 14.5294 79.1353 14.6457 78.7136 15.2486C78.264 15.8925 78.1562 17.3235 78.1543 17.3383C78.1432 17.4844 78.0224 17.597 77.8766 17.597H77.8757ZM76.708 14.3321C76.9959 14.4912 77.3155 14.7331 77.5524 15.0932C77.6852 15.296 77.7902 15.5398 77.8719 15.7892C77.9667 15.4738 78.0912 15.1658 78.2565 14.9295C78.459 14.6392 78.7154 14.4345 78.9635 14.2921C78.6783 14.1553 78.381 13.9404 78.1636 13.6036C78.0141 13.371 77.9035 13.0854 77.8236 12.7941C77.7252 13.0947 77.6016 13.3887 77.4483 13.6231C77.2272 13.9609 76.956 14.1851 76.7089 14.3331L76.708 14.3321Z" fill="#333333"/>
</g>
<g id="Group_3">
<path id="Vector_63" fill-rule="evenodd" clip-rule="evenodd" d="M22.0498 9.82649C22.0498 9.82649 22.7242 9.72601 23.1506 9.07378C23.577 8.42155 23.733 7.13477 23.733 7.13477C23.733 7.13477 23.7562 8.39736 24.1826 9.05889C24.61 9.72136 25.472 9.75764 25.472 9.75764C25.472 9.75764 24.6954 9.86278 24.2588 10.4871C23.8222 11.1114 23.7274 12.4317 23.7274 12.4317C23.7274 12.4317 23.6587 11.2584 23.2416 10.6239C22.8245 9.98932 22.0488 9.82649 22.0488 9.82649H22.0498Z" fill="white"/>
<path id="Vector_64" d="M23.7271 12.7104H23.7252C23.5785 12.7094 23.4577 12.595 23.4493 12.448C23.4493 12.4368 23.3787 11.3408 23.009 10.776C22.6634 10.2494 21.9983 10.0996 21.9909 10.0977C21.8599 10.0689 21.767 9.95073 21.7717 9.81581C21.7763 9.68183 21.8748 9.57018 22.0067 9.54971C22.0308 9.54599 22.5696 9.45202 22.9171 8.91981C23.3026 8.33085 23.454 7.11199 23.4558 7.0999C23.4735 6.95475 23.6026 6.84961 23.7466 6.85519C23.8925 6.86264 24.0076 6.98173 24.0104 7.12781C24.0104 7.1399 24.0374 8.31969 24.4155 8.90586C24.7564 9.43434 25.4772 9.47714 25.4838 9.47714C25.6277 9.48458 25.7429 9.59996 25.7485 9.74417C25.7541 9.88839 25.651 10.0131 25.5079 10.0326C25.5023 10.0326 24.8437 10.1331 24.4851 10.6458C24.1637 11.1054 24.029 12.1047 24.0039 12.4508C23.9937 12.5969 23.872 12.7094 23.7262 12.7094L23.7271 12.7104ZM22.7768 9.82512C23.0183 9.96561 23.2784 10.1731 23.4735 10.4699C23.5738 10.6225 23.6546 10.7993 23.7215 10.9835C23.8005 10.7416 23.9017 10.509 24.0299 10.3257C24.1953 10.0894 24.3997 9.91723 24.6022 9.79255C24.3662 9.66974 24.1275 9.48551 23.9482 9.20825C23.8339 9.03146 23.7466 8.81933 23.6788 8.59975C23.598 8.82677 23.5004 9.04635 23.3834 9.22499C23.2022 9.50133 22.983 9.693 22.7768 9.82419V9.82512Z" fill="#333333"/>
</g>
<path id="Vector_65" d="M22.4705 33.6736L22.1924 33.6531L22.2026 32.4389C22.2035 32.2863 22.3282 32.1626 22.4817 32.1626H22.4845C22.6379 32.1635 22.7617 32.2901 22.7607 32.4436L22.7505 33.6652L22.4714 33.6745L22.4705 33.6736Z" fill="#333333"/>
<path id="Vector_66" d="M22.4412 37.1772H22.4384C22.284 37.1763 22.1612 37.0498 22.1621 36.8962L22.1751 35.4839C22.1761 35.3303 22.3007 35.2075 22.4542 35.2075H22.4561C22.6105 35.2084 22.7342 35.335 22.7323 35.4885L22.7193 36.9018C22.7184 37.0553 22.5937 37.1782 22.4402 37.1782L22.4412 37.1772Z" fill="#333333"/>
<path id="Vector_67" d="M21.5987 34.908H20.6205C20.4673 34.908 20.3428 34.7823 20.3428 34.6288C20.3428 34.4753 20.4673 34.3506 20.6215 34.3506H21.5996C21.7539 34.3506 21.8783 34.4762 21.8783 34.6297C21.8783 34.7833 21.7539 34.9089 21.5996 34.9089L21.5987 34.908Z" fill="#333333"/>
<path id="Vector_68" d="M24.2304 34.9099H23.1732C23.019 34.9099 22.8945 34.7843 22.8945 34.6307C22.8945 34.4772 23.019 34.3516 23.1732 34.3516H24.2313C24.3846 34.3516 24.5091 34.4772 24.5091 34.6307C24.5091 34.7843 24.3846 34.9089 24.2304 34.9089V34.9099Z" fill="#333333"/>
<path id="Vector_69" d="M70.7879 26.9896H70.787C70.6335 26.9896 70.5098 26.8696 70.5098 26.716L70.5209 25.4804C70.5228 25.326 70.6316 25.2115 70.8028 25.2041C70.9572 25.205 71.08 25.3316 71.079 25.486L71.0679 26.7067C71.0669 26.8593 70.9423 26.9887 70.7888 26.9887L70.7879 26.9896Z" fill="#333333"/>
<path id="Vector_70" d="M70.7566 30.2192H70.7538C70.5994 30.2183 70.4766 30.0917 70.4775 29.9373L70.4906 28.5249C70.4915 28.3714 70.6161 28.2485 70.7696 28.2485H70.7715C70.9259 28.2495 71.0487 28.376 71.0477 28.5295L71.0347 29.9428C71.0329 30.0954 70.9091 30.2192 70.7557 30.2192H70.7566Z" fill="#333333"/>
<path id="Vector_71" d="M69.9161 27.9514H68.9379C68.7837 27.9514 68.6592 27.8267 68.6592 27.6722C68.6592 27.5178 68.7837 27.3931 68.9379 27.3931H69.9161C70.0703 27.3931 70.1947 27.5178 70.1947 27.6722C70.1947 27.8267 70.0703 27.9514 69.9161 27.9514Z" fill="#333333"/>
<path id="Vector_72" d="M72.5468 27.9533H71.4896C71.3354 27.9533 71.2109 27.8277 71.2109 27.6742C71.2109 27.5206 71.3354 27.395 71.4896 27.395H72.5468C72.701 27.395 72.8255 27.5206 72.8255 27.6742C72.8255 27.8277 72.701 27.9524 72.5468 27.9524V27.9533Z" fill="#333333"/>
<path id="Vector_73" d="M68.4393 4.81781H68.4383C68.2848 4.81781 68.1611 4.72383 68.1611 4.57031L68.4402 4.50797L68.1611 4.50518L68.1695 3.66221C68.1714 3.50776 68.2839 3.37099 68.4514 3.38588C68.6058 3.38774 68.7285 3.51335 68.7276 3.6678L68.7192 4.51077C68.7174 4.66336 68.5927 4.81781 68.4402 4.81781H68.4393Z" fill="#333333"/>
<path id="Vector_74" d="M68.4177 7.21634H68.4149C68.2605 7.21447 68.1377 7.08887 68.1387 6.93442L68.1489 5.89792C68.1498 5.7444 68.2745 5.62158 68.428 5.62158H68.4298C68.5842 5.62251 68.707 5.74812 68.7061 5.90257L68.6959 6.94C68.694 7.09259 68.5703 7.21634 68.4168 7.21634H68.4177Z" fill="#333333"/>
<path id="Vector_75" d="M67.7995 5.55098H67.0814C66.9272 5.55098 66.8027 5.42536 66.8027 5.27183C66.8027 5.11829 66.9272 4.99268 67.0814 4.99268H67.8004C67.9537 4.99361 68.0782 5.11829 68.0773 5.27276C68.0773 5.42629 67.9519 5.55098 67.7986 5.55098H67.7995Z" fill="#333333"/>
<path id="Vector_76" d="M69.7313 5.55196H69.0012C68.847 5.55196 68.6993 5.42634 68.7002 5.27281C68.7002 5.11834 68.8015 4.99365 68.9547 4.99365H69.7313C69.8855 4.99365 70.01 5.11927 70.01 5.27281C70.01 5.42634 69.8855 5.55196 69.7313 5.55196Z" fill="#333333"/>
<path id="Vector_77" d="M33.3406 1.43193C33.1871 1.43193 33.0625 1.33796 33.0625 1.18443L33.3416 1.1221L33.0625 1.1193L33.0699 0.276337C33.0709 0.123747 33.1955 0 33.349 0H33.3518C33.5053 0.000930428 33.629 0.127469 33.6281 0.280989L33.6206 1.12396C33.6197 1.27655 33.4941 1.431 33.3416 1.431L33.3406 1.43193Z" fill="#333333"/>
<path id="Vector_78" d="M33.3181 3.82962H33.3153C33.1619 3.82869 33.0381 3.70215 33.0391 3.5477L33.0484 2.5112C33.0493 2.35768 33.1739 2.23486 33.3274 2.23486H33.3293C33.4828 2.23579 33.6065 2.3614 33.6056 2.51585L33.5963 3.55328C33.5953 3.70587 33.4707 3.82962 33.3172 3.82962H33.3181Z" fill="#333333"/>
<path id="Vector_79" d="M32.6989 2.16426H31.9808C31.8266 2.16426 31.7021 2.03865 31.7021 1.88511C31.7021 1.73158 31.8266 1.60596 31.9808 1.60596H32.6989C32.8531 1.60596 32.9776 1.73065 32.9776 1.88511C32.9776 2.03958 32.8531 2.16426 32.6989 2.16426Z" fill="#333333"/>
<path id="Vector_80" d="M34.6307 2.16622H33.9006C33.7473 2.16622 33.5996 2.0406 33.5996 1.88706C33.5996 1.73353 33.7018 1.60791 33.8551 1.60791H34.6317C34.785 1.60791 34.9094 1.73353 34.9094 1.88706C34.9094 2.0406 34.785 2.16529 34.6307 2.16529V2.16622Z" fill="#333333"/>
</g>
</g>
</svg>
