<svg width="164" height="189" viewBox="0 0 164 189" fill="none" xmlns="http://www.w3.org/2000/svg">
<mask id="mask0_26_1840" style="mask-type:alpha" maskUnits="userSpaceOnUse" x="0" y="0" width="164" height="189">
<path d="M0 15C0 6.71573 6.71573 0 15 0H149C157.284 0 164 6.71573 164 15V174C164 182.284 157.284 189 149 189H15C6.71572 189 0 182.284 0 174V15Z" fill="#5D1E7E"/>
</mask>
<g mask="url(#mask0_26_1840)">
<path d="M148.722 125.231C147.359 124.36 145.75 123.886 144.02 123.542C143.368 123.412 142.702 123.301 142.023 123.193C141.75 123.149 141.486 123.099 141.236 123.041C141.956 121.759 142.273 120.798 142.389 120.114C142.398 120.056 142.407 120.002 142.416 119.949C142.523 119.153 143.368 118.675 144.079 119.041C144.508 119.26 144.95 119.604 145.33 120.136C146.528 121.812 151.547 123.962 153.419 124.883C155.292 125.799 156.248 127.752 157.325 133.052C158.403 138.353 157.486 147.439 157.804 151.546C158.121 155.654 158.72 158.97 159.238 160.641C159.757 162.308 159.676 163.064 159.238 164.105C158.8 165.137 159.757 165.419 159.238 167.649C158.72 169.879 159.717 169.365 158.76 170.956C157.804 172.547 160.114 173.785 158.921 175.899C157.723 178.009 160.119 183.073 153.5 186.259C153.5 186.259 150.461 186.425 146.041 185.575C143.734 185.137 141.048 184.413 138.228 183.251C137.987 183.153 137.866 182.889 137.947 182.644C137.978 182.545 138.014 182.429 138.054 182.304C138.286 181.544 138.635 180.275 138.899 178.706C146.791 181.182 156.119 181.839 157.334 177.772C157.714 176.498 157.594 175.296 157.263 174.134C156.606 171.819 155.118 169.656 155.068 167.403C155.051 166.737 155.162 166.063 155.453 165.379C157.241 161.191 155.417 161.83 153.665 156.74C151.913 151.649 152.23 152.82 153.026 139.193C153.513 130.867 151.676 127.117 148.722 125.236V125.231Z" fill="#93C8D8"/>
<path d="M157.258 174.135C157.584 175.297 157.709 176.499 157.329 177.773C156.114 181.84 146.786 181.183 138.894 178.707C139.367 175.909 139.573 172.164 138.389 168.7C138.366 168.629 138.344 168.562 138.317 168.495C138.201 168.159 138.46 167.811 138.818 167.833C139.524 167.882 140.655 167.945 141.982 167.945C142.344 167.945 142.71 167.94 143.099 167.927C143.238 167.927 143.381 167.918 143.515 167.914C146.058 167.833 147.622 167.775 148.717 168.722C149.875 169.719 150.992 170.711 152.583 171.31C154.179 171.909 155.931 172.508 156.887 174.179L157.258 174.13V174.135Z" fill="#AFDAEA"/>
<path d="M157.261 174.134L156.89 174.183C155.934 172.507 154.182 171.913 152.586 171.314C150.991 170.715 149.878 169.719 148.72 168.726C147.625 167.779 146.061 167.837 143.518 167.917L143.5 167.368C143.5 167.368 143.898 167.01 144.774 166.25C145.65 165.495 146.168 165.379 150.115 165.379C152.908 165.379 154.423 166.657 155.071 167.403C155.12 169.656 156.608 171.819 157.265 174.134H157.261Z" fill="#93C8D8"/>
<path d="M125.799 148.052C126.899 145.885 128.204 143.771 130.188 140.866C131.323 139.208 132.566 137.59 133.83 136.057C135.935 133.505 138.094 131.168 139.913 129.228C141.625 127.4 143.1 125.116 144.025 123.543C145.754 123.887 147.359 124.361 148.727 125.232C151.681 127.118 153.518 130.864 153.03 139.19C152.235 152.821 151.913 151.65 153.67 156.736C155.422 161.827 157.245 161.188 155.457 165.375C155.162 166.059 155.051 166.734 155.073 167.4C154.425 166.654 152.91 165.375 150.116 165.375C146.17 165.375 145.652 165.492 144.776 166.247C143.9 167.007 143.502 167.364 143.502 167.364L143.52 167.914C143.386 167.914 143.247 167.923 143.104 167.927C142.72 167.936 142.349 167.945 141.987 167.945C141.987 167.945 142.425 166.336 142.148 163.981C141.866 161.63 141.191 160.754 141.232 158.524C141.272 156.294 142.121 155.534 141.737 153.264C141.352 150.989 141.232 151.351 141.232 148.164C141.232 144.978 141.299 142.144 142.242 138.318C142.613 136.808 142.97 135.485 143.341 134.318C142.572 134.256 139.337 134.332 138.845 139.597C138.286 145.576 139.422 143.261 138.058 150.435C136.695 157.608 135.994 158.484 136.503 162.39C136.896 165.42 136.709 167.078 136.584 168.035C132.686 166.587 123.609 163.132 120.427 161.277C120.186 161.138 119.953 161.004 119.734 160.879L119.868 160.647C120.338 157.751 122.313 153.134 125.057 147.682L125.804 148.057L125.799 148.052Z" fill="#AFDAEA"/>
<path d="M149.472 210.129H139.188C138.848 208.306 138.455 205.982 138.383 204.552C138.254 201.919 138.115 202.639 139.313 195.305C140.511 187.971 138.437 192.994 136.328 188.61C135.045 185.942 135.514 183.215 136.077 181.49C136.868 181.861 137.539 182.143 138.048 182.299C138.008 182.429 137.972 182.541 137.941 182.639C137.86 182.885 137.986 183.148 138.222 183.247C141.043 184.409 143.729 185.133 146.035 185.571C146.035 185.571 145.99 188.529 146.035 192.395C146.079 196.261 147.595 197.057 147.116 199.685C146.638 202.317 148.073 202.393 148.153 204.708C148.234 207.023 149.472 210.129 149.472 210.129Z" fill="#93C8D8"/>
<path d="M147.401 107.257C147.727 107.338 147.969 107.338 147.969 107.338C144.568 108.482 143.531 106.381 143.531 106.381C143.531 106.381 143.124 107.23 142.284 107.977C141.73 107.083 141.613 105.97 142.99 104.866C146.074 102.386 146.329 97.9074 143.231 94.8236C140.139 91.7398 138.753 87.9454 137.681 80.6113C136.997 75.9364 134.011 72.656 131.938 70.8906C140.416 72.866 142.311 85.2683 145.739 91.7174C149.153 98.1487 151.263 100.571 147.625 104.871C146.74 105.912 148.018 106.712 148.165 106.801C147.982 107.101 147.674 107.217 147.401 107.262V107.257Z" fill="#4C3633"/>
<path d="M143.839 123.547C142.913 125.12 141.439 127.399 139.727 129.232C137.908 131.171 135.749 133.509 133.644 136.061L132.951 135.757L130.484 137.992C131.012 137.209 131.512 136.494 131.982 135.837C132.71 134.809 133.345 133.907 133.868 133.098C135.62 130.389 137.255 128.794 140.165 124.49C140.513 123.971 140.813 123.493 141.059 123.051C141.309 123.109 141.573 123.158 141.845 123.203C142.525 123.31 143.191 123.422 143.843 123.551L143.839 123.547Z" fill="#AFDAEA"/>
<path d="M109.842 113.968C108.872 114.353 107.898 114.25 107.21 114.076C106.951 114.009 106.933 113.642 107.188 113.553C109.163 112.86 108.649 110.353 106.477 108.985C104.005 107.43 104.287 102.929 105.404 99.6847C106.522 96.44 106.28 95.2378 106.557 88.659C106.763 83.7696 109.199 82.6031 110.432 82.326C110.879 82.2277 111.232 81.897 111.384 81.4635C112.233 78.9875 115.59 71.5774 123.724 71.5015C123.858 71.4612 124.072 71.4523 124.376 71.564C127.375 70.5406 129.856 70.3931 131.947 70.8847C134.021 72.6501 137.002 75.9305 137.69 80.6054C138.763 87.9394 140.148 91.7339 143.241 94.8177C146.338 97.9015 146.084 102.38 143 104.86C141.628 105.968 141.74 107.081 142.294 107.971C141.391 108.78 139.988 109.472 138.052 108.856C137.945 108.753 137.86 108.637 137.802 108.538C137.467 108.672 137.141 108.771 136.828 108.842C135.255 109.2 133.954 108.842 132.935 108.261C132.095 107.779 131.46 107.148 131.027 106.639C130.763 106.322 130.977 105.834 131.389 105.83C134.043 105.772 135.755 103.64 136.251 102.929C136.35 102.791 136.51 102.715 136.685 102.719C141.083 102.809 142.012 95.9126 140.743 94.1562C139.965 93.0791 139.228 93.2936 138.767 93.6422C138.464 93.8702 138.267 94.2143 138.173 94.5808C136.922 99.4121 133.467 100.056 133.467 100.056C126.826 100.905 122.785 89.7495 119.505 85.3339C116.448 81.2221 113.337 84.0378 112.935 84.44C112.774 84.7171 112.434 84.7886 112.211 84.802C112.211 84.802 111.943 85.1059 111.581 85.7003C110.906 85.4367 109.583 85.6199 108.814 90.3797C107.751 96.9674 109.163 97.7629 109.467 100.954C109.771 104.141 107.661 104.954 110.629 108.985C112.381 111.363 112.358 112.967 112.046 113.884C111.652 114.174 111.223 114.29 110.942 114.339C110.459 114.268 110.088 114.112 109.838 113.968H109.842Z" fill="#5E443F"/>
<path d="M138.839 139.592C139.331 134.327 142.566 134.255 143.335 134.314C142.964 135.48 142.607 136.803 142.236 138.314C141.293 142.139 141.226 144.973 141.226 148.159C141.226 151.346 141.346 150.988 141.731 153.259C142.115 155.529 141.27 156.289 141.226 158.519C141.185 160.749 141.865 161.625 142.142 163.976C142.419 166.327 141.981 167.94 141.981 167.94C140.653 167.94 139.523 167.878 138.817 167.829C138.459 167.802 138.2 168.155 138.316 168.49C138.343 168.562 138.365 168.629 138.388 168.696C138.388 168.696 137.695 168.445 136.573 168.025C136.703 167.069 136.89 165.415 136.493 162.381C135.988 158.474 136.685 157.599 138.048 150.425C139.411 143.252 138.276 145.563 138.834 139.587L138.839 139.592Z" fill="#93C8D8"/>
<path d="M142.393 120.119C142.277 120.803 141.964 121.759 141.24 123.046C135.604 121.817 135.117 117.638 134.509 113.339C133.87 108.847 130.684 121.415 126.751 122.157C124.181 122.644 122.764 121.392 122.094 120.467C122.997 119.596 123.89 118.192 124.109 115.994C126.214 115.051 129.866 112.87 132.936 108.262C133.955 108.843 135.256 109.2 136.829 108.843C136.829 108.843 134.465 118.443 142.393 120.119Z" fill="#EAC3B9"/>
<path d="M118.52 106.134C118.882 105.535 118.569 105.088 117.344 105.048C116.419 105.017 116.071 105.374 115.95 105.687C116.044 105.754 116.147 105.817 116.263 105.861C116.822 106.085 117.559 106.21 118.52 106.134ZM111.584 85.705C111.946 85.1106 112.214 84.8067 112.214 84.8067C112.437 84.7888 112.777 84.7218 112.938 84.4447C113.344 84.0425 116.451 81.2224 119.508 85.3386C122.788 89.7497 126.828 100.91 133.47 100.06C133.47 100.06 136.924 99.4212 138.176 94.5855C138.27 94.219 138.471 93.8749 138.77 93.6469C139.23 93.2983 139.968 93.0838 140.746 94.1609C142.015 95.9173 141.085 102.813 136.687 102.724C136.513 102.724 136.352 102.796 136.254 102.934C135.758 103.645 134.046 105.777 131.391 105.835C130.98 105.839 130.761 106.331 131.029 106.644C131.458 107.153 132.098 107.783 132.938 108.266C129.867 112.874 126.211 115.055 124.111 115.998C124.071 116.016 124.026 116.038 123.99 116.051C122.998 116.485 121.863 116.485 120.88 116.025C119.226 115.251 117.845 114.241 116.692 113.111C112.495 108.999 111.333 103.301 111.204 101.491C111.154 100.784 111.052 100.212 110.918 99.8503C110.694 99.238 110.462 98.6302 110.287 98.0045C108.58 91.7341 110.506 87.4615 111.584 85.705ZM123.096 100.749C123.472 100.655 123.655 100.096 123.503 99.5061C123.351 98.9162 122.918 98.5184 122.542 98.6123C122.171 98.7106 121.988 99.2648 122.14 99.8548C122.292 100.449 122.721 100.847 123.096 100.749ZM114.815 101.531C115.154 101.441 115.32 100.941 115.181 100.409C115.043 99.8726 114.654 99.5151 114.319 99.6045C113.979 99.6894 113.814 100.194 113.952 100.726C114.091 101.258 114.48 101.62 114.815 101.531Z" fill="#FFE0D7"/>
<path d="M141.239 123.045C140.993 123.483 140.698 123.961 140.345 124.484C137.436 128.788 135.8 130.384 134.048 133.092C133.525 133.896 132.886 134.799 132.162 135.832C132.162 135.832 123.688 137.758 120.497 137.798C117.311 137.838 114.2 137.838 112.171 136.681C110.137 135.523 109.387 134.732 108.984 133.695C110.035 132.618 110.991 131.684 111.465 131.085C112.685 129.543 115.237 127.872 117.601 125.427C119.165 123.814 119.769 122.486 119.997 121.776C119.997 121.776 121.042 121.476 122.084 120.471C122.754 121.396 124.171 122.647 126.741 122.16C130.674 121.418 133.865 108.851 134.499 113.342C135.107 117.642 135.594 121.816 141.23 123.05L141.239 123.045Z" fill="#FFE0D7"/>
<path d="M136.331 188.61C138.441 192.995 140.514 187.971 139.317 195.305C138.119 202.64 138.262 201.92 138.387 204.552C138.458 205.983 138.847 208.307 139.191 210.13H121.216C121.216 210.13 121.31 209.853 121.216 205.692C121.077 199.44 120.269 199.051 120.188 194.984C120.103 190.917 119.464 188.45 119.464 185.102C119.464 181.755 118.753 173.705 118.914 171.949L119.165 171.609C124.117 174.72 131.839 179.48 136.085 181.491C135.522 183.216 135.048 185.942 136.336 188.61H136.331Z" fill="#AFDAEA"/>
<path d="M100.379 164.32C100.379 164.32 99.6188 163.824 100.043 162.72C100.383 161.835 101.103 161.594 102.028 161.2L101.979 161.084C102.095 160.78 102.229 160.503 102.376 160.266C102.461 160.119 102.551 159.989 102.644 159.868C103.096 159.261 103.735 158.827 104.446 158.572C104.901 158.412 105.532 158.184 106.198 157.942C107.082 157.625 108.039 157.281 108.749 157.026C110.501 156.387 112.097 156.919 113.612 157.848C114.591 158.452 115.44 158.706 117.022 159.462C117.742 159.801 118.613 160.248 119.722 160.879C119.941 161.004 120.173 161.138 120.414 161.276C123.592 163.131 132.674 166.586 136.571 168.034C137.693 168.45 138.385 168.704 138.385 168.704C139.57 172.168 139.364 175.909 138.89 178.711C137.97 178.425 137.071 178.112 136.204 177.777C127.914 174.59 126.139 172.038 120.571 169.089C118.573 168.034 116.638 167.319 114.877 166.894C111.722 166.134 109.129 166.291 107.748 167.042C105.849 168.074 101.849 167.967 102.247 168.972C102.224 168.972 102.206 168.981 102.184 168.986C101.25 169.187 100.043 169.446 99.3327 169.625C98.5819 169.808 97.9785 169.857 97.6344 169.652C97.3841 169.504 97.2724 169.232 97.3394 168.785C97.4691 167.922 98.345 167.368 99.0154 167.1L98.9886 167.042C98.9886 167.042 98.2825 166.751 98.2825 165.991C98.2825 165.232 99.2121 164.704 99.9048 164.49C100.008 164.458 100.168 164.4 100.37 164.324L100.379 164.32Z" fill="#FFE0D7"/>
<path d="M116.882 170.176C116.14 169.702 115.541 169.326 115.139 169.067C114.987 167.793 114.844 167.038 114.844 167.038L114.88 166.891C116.64 167.315 118.58 168.03 120.573 169.085C126.142 172.035 127.916 174.587 136.207 177.773C137.074 178.109 137.972 178.421 138.893 178.707C138.629 180.272 138.281 181.545 138.048 182.305C137.539 182.149 136.868 181.867 136.077 181.496C131.831 179.485 124.109 174.725 119.157 171.615C118.307 171.078 117.534 170.591 116.877 170.176H116.882Z" fill="#EAC3B9"/>
<path d="M132.962 135.543L133.825 136.057C132.564 137.59 131.317 139.208 130.182 140.866C128.198 143.771 126.893 145.885 125.793 148.052L125.047 147.677C125.351 147.065 125.673 146.439 125.999 145.809C127.652 142.609 129.547 139.646 130.955 137.563L132.962 135.543Z" fill="#AFDAEA"/>
<path d="M132.165 135.833C131.7 136.494 131.199 137.205 130.668 137.987L129.894 138.689C129.894 138.689 124.594 147.082 121.215 151.502C118.873 154.568 117.595 157.781 117.027 159.457C115.441 158.702 114.596 158.447 113.617 157.844C112.102 156.914 110.507 156.382 108.755 157.022C108.044 157.276 107.088 157.625 106.203 157.938C101.97 156.61 100.218 153.982 99.5391 152.485C99.6597 150.519 100.245 148.776 100.679 147.453C101.635 144.53 104.075 141.924 104.929 139.162C105.027 138.836 105.179 138.496 105.371 138.143C106.167 136.682 107.646 135.069 108.983 133.688C109.385 134.729 110.136 135.515 112.169 136.673C114.198 137.826 117.309 137.826 120.495 137.79C123.682 137.75 132.16 135.824 132.16 135.824L132.165 135.833Z" fill="#FFF1AA"/>
<path d="M129.898 138.688L130.671 137.986C129.264 140.069 127.655 142.608 126.006 145.808C125.679 146.438 125.362 147.063 125.054 147.676C122.309 153.124 120.334 157.741 119.865 160.641L119.731 160.873C118.622 160.243 117.751 159.801 117.031 159.457C117.594 157.781 118.873 154.567 121.219 151.501C124.598 147.081 129.898 138.688 129.898 138.688Z" fill="#DDCE8E"/>
<path d="M123.503 99.5052C123.655 100.095 123.476 100.654 123.096 100.748C122.721 100.846 122.292 100.448 122.14 99.8538C121.988 99.2639 122.167 98.7097 122.542 98.6114C122.918 98.5175 123.347 98.9153 123.503 99.5052Z" fill="black"/>
<path d="M121.221 205.692C121.315 209.853 121.221 210.13 121.221 210.13H118.513C118.513 210.13 119.072 209.656 118.196 199.332C117.32 189.008 116.042 191.877 116.363 184.145C116.681 176.521 116.882 170.344 116.891 170.17C117.548 170.586 118.321 171.073 119.17 171.609L118.92 171.949C118.759 173.701 119.469 181.754 119.469 185.102C119.469 188.449 120.109 190.921 120.193 194.983C120.278 199.05 121.083 199.439 121.221 205.692Z" fill="#AFDAEA"/>
<path d="M119.703 121.441C119.882 121.347 120.083 121.513 120.021 121.705C120.016 121.727 120.007 121.75 119.998 121.776C119.771 122.487 119.163 123.814 117.603 125.428C115.239 127.872 112.687 129.548 111.467 131.086C110.993 131.68 110.036 132.614 108.986 133.696C107.65 135.072 106.166 136.686 105.375 138.152C106.372 135.743 107.628 134.491 108.986 132.699C109.093 132.556 109.214 132.409 109.335 132.261C110.72 130.576 112.848 128.699 114.202 127.162C115.677 125.486 116.673 122.894 116.673 122.894L116.611 122.456C116.79 122.429 116.973 122.406 117.174 122.38C118.023 122.272 119.114 121.758 119.703 121.45V121.441Z" fill="#AFDAEA"/>
<path d="M117.348 105.053C118.568 105.093 118.885 105.536 118.523 106.139C117.562 106.22 116.825 106.09 116.266 105.867C116.15 105.822 116.047 105.759 115.953 105.692C116.078 105.375 116.427 105.018 117.348 105.053Z" fill="#EAC3B9"/>
<path d="M118.191 199.332C119.067 209.656 118.508 210.13 118.508 210.13H111.018C111.63 209.969 112.18 209.817 112.627 209.692C113.262 209.518 113.601 208.834 113.364 208.222C113.199 207.797 112.792 207.516 112.336 207.516H112.319C111.282 207.529 109.44 207.609 108.287 207.994L110.106 207.194C110.495 207.024 110.759 206.635 110.741 206.211C110.727 205.951 110.638 205.75 110.522 205.598C110.303 205.308 109.923 205.183 109.561 205.236L104.484 205.987C103.957 206.063 103.416 206.081 102.879 206.032L101.968 205.951C101.311 205.893 100.663 205.741 100.046 205.495L98.9062 205.044C99.7956 205.209 100.6 205.375 101.177 205.495C101.248 205.513 101.32 205.518 101.396 205.518C101.843 205.518 102.245 205.236 102.397 204.798C102.58 204.253 102.303 203.668 101.762 203.466C101.543 203.381 101.288 203.283 101.02 203.176C104.529 203.373 106.803 201.875 109.342 200.964C112.676 199.766 112.94 196.101 113.445 189.567C113.95 183.033 114.933 185.102 115.411 178.885C115.715 174.952 115.411 171.252 115.148 169.066C115.55 169.321 116.144 169.701 116.891 170.175C116.886 170.349 116.681 176.526 116.363 184.15C116.046 191.882 117.32 189.013 118.196 199.337L118.191 199.332Z" fill="#DDCE8E"/>
<path d="M97.1382 159.943C98.546 164.474 96.0387 164.318 94.0409 167.911C91.9136 171.737 89.8979 176.725 89.0711 181.033C88.3739 180.716 87.4175 180.443 86.1974 180.425C84.1147 180.389 82.3315 181.829 81.4287 182.713C81.4108 182.731 81.3884 182.749 81.3661 182.763C81.0756 182.968 80.6465 182.776 80.6242 182.396C80.5884 181.583 80.6063 180.103 80.803 177.408C81.241 171.353 83.3147 166.691 84.3918 164.577C85.4689 162.463 85.3482 163.183 85.1113 161.668C84.9594 160.716 86.0409 159.777 86.8633 159.214C87.3192 158.901 87.5203 158.32 87.3326 157.797C87.127 157.234 87.0018 156.532 87.3817 156.13C88.1013 155.37 90.1303 152.582 93.8756 144.769C97.6208 136.957 99.2164 134.427 99.5158 132.452C99.8152 130.481 100.374 130.521 103.283 127.728C106.193 124.939 111.413 123.625 113.308 123.147C114.899 122.745 115.672 122.584 116.615 122.445L116.678 122.883C116.678 122.883 115.681 125.475 114.206 127.151C112.852 128.693 110.725 130.566 109.339 132.251C109.339 132.251 106.162 132.515 104.834 135.067C103.507 137.618 103.708 136.13 101.987 140.434C100.267 144.738 99.9896 142.132 98.3761 148.51C96.7583 154.888 94.7426 153.453 96.8119 158.977C96.9415 159.317 97.0532 159.639 97.1426 159.938L97.1382 159.943Z" fill="#AFDAEA"/>
<path d="M102.254 168.964C103.05 168.803 103.872 168.803 104.667 168.964C105.53 169.129 106.723 169.295 107.747 169.192C109.579 169.009 112.502 167.815 114.549 168.705C114.576 168.714 114.781 168.843 115.139 169.071C115.403 171.257 115.707 174.962 115.403 178.89C114.924 185.107 113.941 183.033 113.436 189.572C112.931 196.106 112.667 199.775 109.333 200.968C106.795 201.88 104.52 203.377 101.012 203.181C99.7333 202.662 97.9903 201.853 96.7434 200.861C95.4428 199.824 93.378 199.485 91.9076 199.382V199.346C91.8093 199.212 91.7065 199.065 91.6127 198.908C91.2953 198.39 91.0048 197.751 90.7501 197.085C89.7758 194.542 89.4183 191.806 89.6283 189.094C89.7758 187.185 90.0797 184.696 90.7143 182.077C91.7914 177.63 93.8115 172.79 97.5926 169.719L97.6417 169.643C97.9858 169.849 98.5937 169.8 99.34 169.616C100.051 169.438 101.257 169.179 102.191 168.977C102.214 168.977 102.232 168.968 102.254 168.964Z" fill="#FFF1AA"/>
<path d="M115.184 100.408C115.323 100.94 115.158 101.44 114.818 101.53C114.478 101.615 114.094 101.257 113.955 100.725C113.817 100.193 113.982 99.6883 114.322 99.6034C114.661 99.514 115.046 99.876 115.184 100.408Z" fill="black"/>
<path d="M114.88 166.89L114.844 167.038C114.844 167.038 114.983 167.797 115.139 169.067C114.782 168.839 114.576 168.709 114.549 168.7C112.502 167.811 109.579 169.004 107.747 169.187C106.723 169.295 105.526 169.125 104.668 168.959C103.872 168.803 103.05 168.803 102.254 168.959C101.856 167.954 105.852 168.066 107.756 167.029C109.137 166.278 111.734 166.121 114.884 166.881L114.88 166.89Z" fill="#EAC3B9"/>
<path d="M112.044 113.888C112.357 112.971 112.379 111.367 110.627 108.989C107.66 104.958 109.765 104.145 109.465 100.958C109.161 97.7714 107.749 96.9714 108.813 90.3837C109.581 85.6239 110.904 85.4407 111.579 85.7044C110.502 87.4608 108.58 91.7379 110.283 98.0038C110.457 98.634 110.69 99.2373 110.913 99.8496C111.047 100.212 111.15 100.784 111.199 101.49C111.329 103.3 112.491 109.003 116.687 113.11C115.213 115.05 112.88 114.411 112.41 114.259C112.205 114.308 112.013 114.343 111.825 114.357C111.905 114.227 111.977 114.071 112.039 113.883L112.044 113.888Z" fill="#4C3633"/>
<path d="M101.011 203.176C101.283 203.283 101.534 203.381 101.753 203.466C102.293 203.667 102.571 204.253 102.387 204.798C102.235 205.236 101.833 205.517 101.386 205.517C101.315 205.517 101.243 205.513 101.167 205.495C100.591 205.374 99.7862 205.209 98.8968 205.044L100.036 205.495C100.653 205.741 101.301 205.893 101.958 205.951L102.87 206.031C103.406 206.081 103.943 206.063 104.474 205.987L109.552 205.236C109.914 205.182 110.293 205.307 110.512 205.598C110.629 205.75 110.718 205.947 110.731 206.21C110.749 206.635 110.486 207.024 110.097 207.193L108.278 207.993C107.554 208.235 106.669 208.557 105.9 208.838C104.68 209.29 103.371 209.455 102.07 209.316L99.9739 209.097C99.4376 209.169 98.4901 209.048 96.5862 208.4C94.0879 207.551 90.6331 207.073 87.1828 205.517C85.3415 204.691 84.0856 202.863 83.3169 201.339C83.1113 199.404 83.4331 197.263 83.3482 195.118C83.1873 191.185 81.3638 182.769 81.3638 182.769H81.3594C81.3594 182.769 81.4041 182.729 81.4219 182.711C82.3247 181.826 84.108 180.387 86.1907 180.423C87.4108 180.44 88.3672 180.717 89.0644 181.03C88.2421 185.339 86.4722 196.95 91.603 198.903C91.6968 199.059 91.7996 199.207 91.9024 199.341V199.377C93.3683 199.48 95.4331 199.819 96.7337 200.856C97.9806 201.844 99.7192 202.653 101.002 203.176H101.011Z" fill="#FFE0D7"/>
<path d="M99.5362 152.485C99.3887 154.854 99.9206 157.558 102.218 160.257H102.379C102.231 160.503 102.097 160.776 101.981 161.084L102.03 161.2C101.1 161.594 100.385 161.835 100.046 162.72C99.6167 163.824 100.381 164.32 100.381 164.32C100.18 164.396 100.019 164.454 99.9161 164.485C99.2189 164.7 98.2938 165.232 98.2938 165.987C98.2938 166.742 98.9999 167.037 98.9999 167.037L99.0267 167.095C98.3519 167.359 97.4804 167.913 97.3508 168.78C97.2837 169.227 97.3954 169.5 97.6457 169.647L97.5966 169.723C93.82 172.794 91.7954 177.634 90.7183 182.081L90.5887 182.054C90.5887 182.054 90.1016 181.504 89.0781 181.039C89.9049 176.731 91.9206 171.743 94.048 167.918C96.0457 164.329 98.553 164.485 97.1452 159.949C97.0513 159.649 96.9396 159.332 96.8144 158.988C94.7407 153.464 96.7608 154.899 98.3787 148.521C99.9966 142.143 100.269 144.749 101.99 140.445C103.711 136.141 103.509 137.625 104.837 135.077C106.164 132.525 109.342 132.262 109.342 132.262C109.221 132.414 109.1 132.557 108.993 132.7C107.635 134.492 106.374 135.743 105.382 138.152C105.19 138.501 105.038 138.845 104.94 139.171C104.09 141.933 101.646 144.539 100.689 147.462C100.256 148.785 99.6703 150.528 99.5496 152.494L99.5362 152.485Z" fill="#93C8D8"/>
<path d="M106.202 157.937C105.532 158.179 104.906 158.407 104.45 158.568C103.74 158.822 103.1 159.26 102.649 159.864C102.555 159.984 102.466 160.114 102.381 160.261H102.22C99.9228 157.553 99.3909 154.849 99.5384 152.48C100.218 153.978 101.97 156.606 106.202 157.933V157.937Z" fill="#DDCE8E"/>
<path d="M90.7424 197.084C90.9972 197.75 91.2877 198.389 91.605 198.908C86.4743 196.955 88.2441 185.344 89.0665 181.035C90.0899 181.495 90.5771 182.05 90.5771 182.05L90.7067 182.076C90.0721 184.695 89.7681 187.185 89.6207 189.093C89.4106 191.806 89.7681 194.541 90.7424 197.084Z" fill="#EAC3B9"/>
<path d="M112.212 84.8066C112.212 84.8066 111.944 85.1106 111.582 85.705C110.504 87.4614 108.583 91.7385 110.286 98.0044C110.46 98.6346 110.692 99.2379 110.916 99.8502C111.05 100.212 111.153 100.784 111.202 101.49C111.331 103.3 112.493 109.003 116.69 113.111C117.843 114.241 119.224 115.251 120.878 116.025C121.861 116.485 122.996 116.485 123.988 116.051C124.029 116.033 124.069 116.016 124.109 115.998C126.214 115.055 129.865 112.874 132.936 108.266" stroke="#251E1C" stroke-width="0.75" stroke-linecap="round" stroke-linejoin="round"/>
<path d="M120 121.777C120 121.777 121.046 121.477 122.087 120.472C122.99 119.6 123.884 118.197 124.103 115.998" stroke="#251E1C" stroke-width="0.75" stroke-linecap="round" stroke-linejoin="round"/>
<path d="M136.83 108.848C136.83 108.848 134.466 118.448 142.394 120.124" stroke="#251E1C" stroke-width="0.75" stroke-linecap="round" stroke-linejoin="round"/>
<path d="M102.221 160.262C99.9236 157.562 99.3918 154.858 99.5393 152.49C99.66 150.523 100.245 148.78 100.679 147.457C101.635 144.534 104.076 141.929 104.929 139.167C105.028 138.841 105.18 138.501 105.372 138.148C106.167 136.686 107.647 135.073 108.983 133.692C110.033 132.615 110.99 131.681 111.463 131.082C112.683 129.54 115.235 127.869 117.6 125.424C119.164 123.81 119.767 122.483 119.995 121.772C120.004 121.746 120.013 121.723 120.017 121.701C120.08 121.509 119.879 121.343 119.7 121.437C119.106 121.746 118.02 122.26 117.171 122.367C116.974 122.394 116.786 122.416 116.607 122.443C115.669 122.581 114.891 122.742 113.3 123.144C111.405 123.623 106.185 124.937 103.276 127.725C100.366 130.514 99.8119 130.479 99.508 132.45C99.2086 134.425 97.613 136.955 93.8678 144.767C90.1225 152.579 88.089 155.368 87.3739 156.128C86.9896 156.53 87.1192 157.232 87.3248 157.795C87.5125 158.318 87.3114 158.899 86.8555 159.212C86.0331 159.775 84.9516 160.713 85.1035 161.665C85.3449 163.18 85.4655 162.461 84.384 164.575C83.3114 166.684 81.2376 171.346 80.7951 177.406C80.5985 180.105 80.5806 181.585 80.6164 182.394C80.6343 182.774 81.0678 182.966 81.3583 182.76C81.3806 182.742 81.403 182.729 81.4208 182.711C82.3236 181.826 84.1069 180.387 86.1896 180.423C87.4097 180.441 88.3661 180.718 89.0633 181.031C90.0868 181.491 90.5739 182.045 90.5739 182.045" stroke="#251E1C" stroke-width="0.75" stroke-linecap="round" stroke-linejoin="round"/>
<path d="M132.162 135.832C132.162 135.832 123.688 137.758 120.497 137.798C117.311 137.838 114.2 137.838 112.171 136.681C110.137 135.523 109.387 134.732 108.984 133.695" stroke="#251E1C" stroke-width="0.75" stroke-linecap="round" stroke-linejoin="round"/>
<path d="M117.312 126.479C117.312 126.479 119.386 126.059 120.62 126.059C121.853 126.059 122.93 126.957 122.93 126.957" stroke="#251E1C" stroke-width="0.75" stroke-linecap="round" stroke-linejoin="round"/>
<path d="M128.352 126.836C128.352 126.836 130.247 126.295 131.221 125.862C132.195 125.424 134.667 126.219 135.882 126.237C137.102 126.26 138.135 126.282 138.135 126.282" stroke="#251E1C" stroke-width="0.75" stroke-linecap="round" stroke-linejoin="round"/>
<path d="M88.8125 158.618C88.9421 158.618 91.7622 158.484 93.9119 158.618C95.6103 158.721 96.741 159.584 97.1432 159.946C97.2505 160.039 97.3086 160.102 97.3086 160.102" stroke="#251E1C" stroke-width="0.75" stroke-linecap="round" stroke-linejoin="round"/>
<path d="M86.7031 162.519C86.7031 162.519 89.5232 160.843 92.0439 160.655C94.569 160.472 96.3478 161.585 96.3478 161.585" stroke="#251E1C" stroke-width="0.75" stroke-linecap="round" stroke-linejoin="round"/>
<path d="M97.8125 162.385C97.8125 162.385 98.5008 162.783 98.9298 163.234" stroke="#251E1C" stroke-width="0.75" stroke-linecap="round" stroke-linejoin="round"/>
<path d="M116.673 122.891C116.673 122.891 115.677 125.483 114.202 127.159C112.848 128.701 110.72 130.573 109.335 132.258C109.214 132.41 109.093 132.553 108.986 132.696C107.628 134.488 106.367 135.74 105.375 138.149" stroke="#251E1C" stroke-width="0.75" stroke-linecap="round" stroke-linejoin="round"/>
<path d="M111.734 96.0964C111.734 96.0964 111.976 94.7959 113.384 94.8227" stroke="#251E1C" stroke-width="0.75" stroke-linecap="round" stroke-linejoin="round"/>
<path d="M120.188 92.4861C120.188 92.4861 120.934 91.6622 122.369 92.2712" stroke="#251E1C" stroke-width="0.75" stroke-linecap="round" stroke-linejoin="round"/>
<path d="M115.32 97.7852C115.32 97.7852 116.818 98.9382 116.916 101.209C116.965 102.25 116.473 102.961 115.933 103.416C115.195 104.038 115.231 105.164 115.95 105.691C116.044 105.758 116.147 105.821 116.263 105.866C116.822 106.089 117.559 106.214 118.52 106.138C118.538 106.138 118.556 106.138 118.569 106.138" stroke="#251E1C" stroke-width="0.75" stroke-linecap="round" stroke-linejoin="round"/>
<path d="M119.508 109.079C119.508 109.079 122.556 109.816 125.009 106.625" stroke="#251E1C" stroke-width="0.75" stroke-linecap="round" stroke-linejoin="round"/>
<path d="M111.496 112.718C110.982 113.357 110.41 113.746 109.842 113.969C108.872 114.353 107.898 114.251 107.21 114.076C106.951 114.009 106.933 113.643 107.188 113.553C109.163 112.861 108.649 110.353 106.477 108.986C104.005 107.43 104.287 102.93 105.404 99.6852C106.522 96.4405 106.28 95.2383 106.557 88.6595C106.763 83.7701 109.199 82.6036 110.432 82.3265C110.879 82.2282 111.232 81.8975 111.384 81.464C112.233 78.988 115.59 71.5779 123.724 71.502H123.764" stroke="#251E1C" stroke-width="0.75" stroke-linecap="round" stroke-linejoin="round"/>
<path d="M112.047 113.889C112.395 113.638 112.717 113.25 112.887 112.664" stroke="#251E1C" stroke-width="0.75" stroke-linecap="round" stroke-linejoin="round"/>
<path d="M110.633 114.375C110.633 114.375 110.753 114.375 110.941 114.34C111.223 114.29 111.647 114.174 112.045 113.883" stroke="#251E1C" stroke-width="0.75" stroke-linecap="round" stroke-linejoin="round"/>
<path d="M112.336 114.231C112.336 114.231 112.363 114.245 112.421 114.258C112.89 114.41 115.219 115.054 116.698 113.109" stroke="#251E1C" stroke-width="0.75" stroke-linecap="round" stroke-linejoin="round"/>
<path d="M112.891 84.4855L112.935 84.4408C113.342 84.0386 116.448 81.2184 119.505 85.3346C122.786 89.7458 126.826 100.906 133.467 100.056C133.467 100.056 136.922 99.4173 138.173 94.5816C138.267 94.2151 138.468 93.871 138.768 93.643C139.228 93.2944 139.965 93.0799 140.743 94.157C142.012 95.9134 141.083 102.81 136.685 102.72C136.511 102.72 136.35 102.792 136.252 102.93C135.755 103.641 134.044 105.773 131.389 105.831C130.978 105.835 130.759 106.327 131.027 106.64C131.456 107.149 132.095 107.779 132.935 108.262C133.954 108.843 135.255 109.201 136.828 108.843C137.141 108.772 137.467 108.673 137.802 108.539C138.795 108.15 139.876 107.475 141.047 106.407" stroke="#251E1C" stroke-width="0.75" stroke-linecap="round" stroke-linejoin="round"/>
<path d="M138.016 108.847C138.016 108.847 138.042 108.856 138.056 108.861C139.987 109.478 141.394 108.785 142.297 107.976C143.137 107.225 143.544 106.38 143.544 106.38C143.544 106.38 144.581 108.481 147.982 107.337C147.982 107.337 147.741 107.337 147.415 107.256C146.708 107.086 145.591 106.555 145.591 104.865" stroke="#251E1C" stroke-width="0.75" stroke-linecap="round" stroke-linejoin="round"/>
<path d="M124.328 71.5732C124.328 71.5732 124.355 71.5642 124.368 71.5598C127.376 70.5408 129.857 70.3933 131.948 70.8849C140.426 72.8603 142.321 85.2626 145.749 91.7117C149.164 98.143 151.273 100.565 147.635 104.865C146.75 105.906 148.029 106.706 148.176 106.796C148.185 106.8 148.194 106.804 148.194 106.804" stroke="#251E1C" stroke-width="0.75" stroke-linecap="round" stroke-linejoin="round"/>
<path d="M125.094 75.8005C125.277 75.8005 127.404 75.2686 129.371 77.3156" stroke="#251E1C" stroke-width="0.75" stroke-linecap="round" stroke-linejoin="round"/>
<path d="M127.078 73.9099C127.078 73.9099 128.338 73.749 129.375 74.4686" stroke="#251E1C" stroke-width="0.75" stroke-linecap="round" stroke-linejoin="round"/>
<path d="M129.883 92.4844C129.883 92.4844 132.345 98.2229 136.931 95.3268" stroke="#251E1C" stroke-width="0.75" stroke-linecap="round" stroke-linejoin="round"/>
<path d="M133.734 91.6055C133.734 91.6055 134.472 94.5194 136.934 94.3138" stroke="#251E1C" stroke-width="0.75" stroke-linecap="round" stroke-linejoin="round"/>
<path d="M136.547 100.749C136.547 100.749 137.106 98.5945 139.363 98.1699" stroke="#251E1C" stroke-width="0.75" stroke-linecap="round" stroke-linejoin="round"/>
<path d="M81.375 182.773C81.375 182.773 83.1985 191.189 83.3594 195.122C83.4443 197.263 83.1225 199.408 83.3281 201.343C83.4979 202.961 84.0342 204.436 85.4867 205.643C88.6733 208.297 94.68 210.318 98.2957 210.742C101.907 211.167 101.96 211.962 105.254 211.43C106.984 211.153 109.254 210.595 111.024 210.13C111.636 209.969 112.186 209.817 112.633 209.692C113.268 209.518 113.607 208.834 113.371 208.221C113.205 207.797 112.798 207.515 112.343 207.515H112.325C111.288 207.529 109.447 207.609 108.293 207.994C107.569 208.235 106.684 208.557 105.916 208.838C104.696 209.29 103.386 209.455 102.086 209.316L99.9895 209.097L99.1672 209.013" stroke="#251E1C" stroke-width="0.75" stroke-linecap="round" stroke-linejoin="round"/>
<path d="M91.6127 198.908C91.2953 198.389 91.0048 197.75 90.7501 197.084C89.7758 194.541 89.4183 191.806 89.6283 189.093C89.7758 187.185 90.0797 184.695 90.7143 182.076C91.7914 177.629 93.8115 172.789 97.5926 169.719" stroke="#251E1C" stroke-width="0.75" stroke-linecap="round" stroke-linejoin="round"/>
<path d="M119.867 160.643C120.336 157.747 122.312 153.13 125.056 147.677C125.36 147.065 125.682 146.439 126.008 145.809C127.662 142.609 129.266 140.071 130.674 137.988C131.201 137.206 131.702 136.491 132.171 135.834C132.9 134.806 133.534 133.903 134.057 133.094C135.809 130.386 137.445 128.79 140.354 124.486C140.703 123.968 141.002 123.49 141.248 123.047C141.968 121.764 142.285 120.804 142.401 120.12C142.41 120.062 142.419 120.008 142.428 119.954C142.535 119.159 143.38 118.681 144.091 119.047C144.52 119.266 144.962 119.61 145.342 120.142C146.54 121.818 151.559 123.968 153.431 124.888C155.304 125.805 156.26 127.758 157.338 133.058C158.415 138.359 157.498 147.445 157.816 151.552C158.133 155.659 158.732 158.976 159.25 160.647C159.769 162.314 159.688 163.069 159.25 164.111C158.812 165.143 159.769 165.425 159.25 167.655C158.732 169.885 159.729 169.371 158.772 170.962C157.816 172.553 160.126 173.791 158.933 175.905C157.735 178.015 160.131 183.078 153.512 186.265C153.512 186.265 150.473 186.43 146.053 185.581C143.747 185.143 141.06 184.419 138.24 183.257C137.999 183.159 137.878 182.895 137.959 182.649C137.99 182.551 138.026 182.435 138.066 182.31C138.298 181.55 138.647 180.281 138.911 178.712C139.385 175.914 139.59 172.169 138.406 168.705C138.383 168.634 138.361 168.567 138.334 168.5C138.218 168.164 138.477 167.816 138.835 167.838C139.541 167.887 140.672 167.95 141.999 167.95C142.361 167.95 142.728 167.945 143.116 167.932C143.255 167.932 143.398 167.923 143.532 167.919C146.075 167.838 147.639 167.78 148.734 168.728C149.892 169.724 151.009 170.716 152.6 171.315C154.196 171.914 155.948 172.513 156.904 174.185" stroke="#251E1C" stroke-width="0.75" stroke-linecap="round" stroke-linejoin="round"/>
<path d="M121.219 160.1C121.219 160.1 122.613 155.371 124.168 151.626C124.705 150.339 125.223 149.186 125.8 148.051C126.899 145.883 128.204 143.769 130.189 140.864C131.324 139.206 132.566 137.588 133.831 136.055C135.936 133.503 138.095 131.166 139.914 129.226C141.625 127.398 143.1 125.114 144.025 123.541C144.673 122.446 145.053 121.695 145.053 121.695" stroke="#251E1C" stroke-width="0.75" stroke-linecap="round" stroke-linejoin="round"/>
<path d="M155.455 167.927C155.455 167.927 155.339 167.708 155.071 167.4C154.423 166.653 152.908 165.375 150.115 165.375C146.168 165.375 145.65 165.491 144.774 166.247C143.898 167.006 143.5 167.364 143.5 167.364" stroke="#251E1C" stroke-width="0.75" stroke-linecap="round" stroke-linejoin="round"/>
<path d="M144.336 165.134C144.336 165.134 145.131 164.061 147.245 163.341C149.355 162.622 150.709 162.863 152.385 162.863C154.061 162.863 155.934 163.98 155.934 163.98" stroke="#251E1C" stroke-width="0.75" stroke-linecap="round" stroke-linejoin="round"/>
<path d="M141.984 167.944C141.984 167.944 142.422 166.336 142.144 163.98C141.863 161.629 141.188 160.753 141.228 158.523C141.269 156.293 142.118 155.533 141.733 153.263C141.349 150.988 141.228 151.35 141.228 148.163C141.228 144.977 141.295 142.143 142.238 138.318C142.609 136.807 142.967 135.484 143.338 134.318C143.901 132.53 144.504 131.109 145.255 129.951" stroke="#251E1C" stroke-width="0.75" stroke-linecap="round" stroke-linejoin="round"/>
<path d="M146.769 137.004C146.769 137.004 143.462 139.753 142.546 142.304C141.63 144.856 141.469 145.37 141.469 145.37" stroke="#251E1C" stroke-width="0.75" stroke-linecap="round" stroke-linejoin="round"/>
<path d="M148.758 125.203C148.758 125.203 148.745 125.212 148.722 125.23C148.494 125.427 147.18 126.58 146.523 128.072" stroke="#251E1C" stroke-width="0.75" stroke-linecap="round" stroke-linejoin="round"/>
<path d="M138.391 168.7C138.391 168.7 137.698 168.45 136.577 168.03C132.679 166.582 123.602 163.127 120.42 161.272C120.179 161.134 119.946 161 119.727 160.875C118.619 160.244 117.748 159.802 117.028 159.458C115.441 158.703 114.597 158.448 113.618 157.844C112.103 156.915 110.507 156.383 108.755 157.022C108.045 157.277 107.088 157.625 106.203 157.938C105.533 158.18 104.907 158.408 104.451 158.568C103.741 158.823 103.102 159.261 102.65 159.865C102.556 159.985 102.467 160.115 102.382 160.262C102.235 160.504 102.101 160.776 101.984 161.08" stroke="#251E1C" stroke-width="0.75" stroke-linecap="round" stroke-linejoin="round"/>
<path d="M105.814 159.328C105.814 159.328 104.035 160.235 102.761 160.87C102.511 161 102.265 161.102 102.037 161.196C101.107 161.59 100.392 161.831 100.053 162.716C99.6236 163.82 100.388 164.316 100.388 164.316" stroke="#251E1C" stroke-width="0.75" stroke-linecap="round" stroke-linejoin="round"/>
<path d="M104.004 162.809C104.004 162.809 101.542 163.872 100.384 164.315C100.183 164.391 100.022 164.449 99.9192 164.48C99.222 164.695 98.2969 165.226 98.2969 165.982C98.2969 166.737 99.003 167.032 99.003 167.032" stroke="#251E1C" stroke-width="0.75" stroke-linecap="round" stroke-linejoin="round"/>
<path d="M102.326 165.758C102.326 165.758 100.096 166.795 99.4433 166.956C99.3227 166.982 99.1752 167.032 99.0232 167.094C98.3484 167.358 97.4769 167.912 97.3473 168.779C97.2802 169.226 97.3919 169.499 97.6422 169.646C97.9864 169.852 98.5942 169.803 99.3405 169.619C100.051 169.44 101.258 169.181 102.192 168.98C102.214 168.98 102.232 168.971 102.255 168.967C103.05 168.806 103.872 168.806 104.668 168.967C105.53 169.132 106.724 169.297 107.747 169.195C109.58 169.011 112.503 167.818 114.549 168.708C114.576 168.716 114.782 168.846 115.139 169.074C115.542 169.329 116.136 169.709 116.882 170.182C117.539 170.598 118.313 171.085 119.162 171.622C124.114 174.732 131.837 179.492 136.082 181.503C136.874 181.874 137.544 182.156 138.053 182.312" stroke="#251E1C" stroke-width="0.75" stroke-linecap="round" stroke-linejoin="round"/>
<path d="M118.505 210.13C118.505 210.13 119.064 209.656 118.188 199.332C117.312 189.008 116.034 191.877 116.355 184.145C116.673 176.521 116.874 170.344 116.883 170.17" stroke="#251E1C" stroke-width="0.75" stroke-linecap="round" stroke-linejoin="round"/>
<path d="M121.216 210.13C121.216 210.13 121.31 209.853 121.216 205.692C121.077 199.44 120.269 199.051 120.188 194.984C120.103 190.917 119.464 188.45 119.464 185.102C119.464 181.755 118.753 173.706 118.914 171.949" stroke="#251E1C" stroke-width="0.75" stroke-linecap="round" stroke-linejoin="round"/>
<path d="M146.037 185.574C146.037 185.574 145.992 188.533 146.037 192.399C146.082 196.265 147.597 197.06 147.118 199.688C146.64 202.321 148.075 202.397 148.155 204.712C148.236 207.027 149.474 210.133 149.474 210.133H111.016" stroke="#251E1C" stroke-width="0.75" stroke-linecap="round" stroke-linejoin="round"/>
<path d="M112.051 113.889H112.047" stroke="#251E1C" stroke-width="0.75" stroke-linecap="round" stroke-linejoin="round"/>
<path d="M141.078 196.104C132.841 195.295 128.456 188.73 127.388 186.902C127.245 186.656 126.923 186.603 126.704 186.781L125.435 187.814C125.261 187.957 125.216 188.198 125.323 188.39C126.271 190.089 130.946 197.637 139.482 198.464" stroke="#251E1C" stroke-width="0.75" stroke-linecap="round" stroke-linejoin="round"/>
</g>
</svg>
