<svg width="30" height="30" viewBox="0 0 30 30" fill="none" xmlns="http://www.w3.org/2000/svg">
<path d="M5.625 25.9671C4.58906 25.9671 3.75 25.1318 3.75 24.1005C3.75 23.0691 4.58906 22.2338 5.625 22.2338H24.8438V20.8338H5.39062C3.57891 20.8338 2.10938 22.2968 2.10938 24.1005C2.10938 25.9041 3.57891 27.3671 5.39062 27.3671H24.8438V25.9671H5.625Z" fill="#FF5F5F"/>
<path d="M5.85938 19.2005C4.82344 19.2005 3.98438 18.3651 3.98438 17.3338C3.98438 16.3025 4.82344 15.4671 5.85938 15.4671H25.0781V14.0671H5.625C3.81328 14.0671 2.34375 15.5301 2.34375 17.3338C2.34375 19.1375 3.81328 20.6005 5.625 20.6005H25.0781V19.2005H5.85938Z" fill="#FFC960"/>
<path d="M23.4375 15.4668H6.09375V19.2001H23.4375C22.9711 17.9798 23.0086 16.7338 23.4375 15.4668Z" fill="#EDF2F8"/>
<path d="M23.4375 15.4668H6.09375V16.6335H23.4375V15.4668Z" fill="#C5D5F0"/>
<path d="M14.2969 27.3667H24.8438V22.0001H14.2969V27.3667Z" fill="#4F88FF"/>
<path d="M23.9062 27.3672H14.0625V22.9339L19.9219 25.0339L23.9062 23.6339V27.3672Z" fill="#74AAFF"/>
<path d="M19.8047 23.8671L28.2422 20.7171L19.8047 17.5671L11.3672 20.7171L19.8047 23.8671Z" fill="#74AAFF"/>
<path d="M27.7172 23.4408L26.6016 25.7345H28.8305L27.7172 23.4408Z" fill="#74AAFF"/>
<path d="M15.9177 6.68011C15.3787 6.68011 14.8771 6.84811 14.4482 7.13511C14.0193 6.84811 13.5177 6.68011 12.9787 6.68011C11.4154 6.68011 10.1451 8.07311 10.1451 9.79278C10.1451 11.9324 12.2943 14.4594 14.4435 13.6824C16.5998 14.4594 18.749 11.9324 18.749 9.79278C18.749 8.07545 17.481 6.68011 15.9154 6.68011H15.9177Z" fill="#E23B3B"/>
<path d="M17.5748 9.79175C17.5748 8.29375 16.6115 7.04541 15.3295 6.74675C15.013 6.82141 14.7154 6.95441 14.4459 7.13408C14.263 7.01275 12.8662 6.64641 12.3904 6.74675C11.1084 7.04308 10.1451 8.29375 10.1451 9.79175C10.1451 11.4577 11.4482 13.3571 13.0396 13.7514C13.6724 13.9241 14.2091 13.8984 14.6826 13.7514C16.274 13.3594 17.5771 11.4577 17.5771 9.79175H17.5748Z" fill="#FF5F5F"/>
<path d="M14.2674 4.69891C14.2674 4.69891 13.0698 5.34991 12.0245 4.97191C10.9791 4.59391 10.4799 3.32924 10.4799 3.32924C10.4799 3.32924 11.6776 2.67824 12.7229 3.05624C13.7682 3.43424 14.2674 4.69891 14.2674 4.69891Z" fill="#FFC960"/>
<path d="M5.85938 25.9669H6.09375V22.2335H5.85938C4.82344 22.2335 3.98438 23.0689 3.98438 24.1002C3.98438 25.1315 4.82344 25.9669 5.85938 25.9669Z" fill="#EDF2F8"/>
<path d="M14.0625 22.2335H6.09375V25.9669H14.0625V22.2335Z" fill="#EDF2F8"/>
<path d="M14.0625 22.2335H6.09375V23.4002H14.0625V22.2335Z" fill="#C5D5F0"/>
<path d="M5.85938 19.2001H6.09375V15.4668H5.85938C4.82344 15.4668 3.98438 16.3021 3.98438 17.3335C3.98438 18.3648 4.82344 19.2001 5.85938 19.2001Z" fill="#EDF2F8"/>
<path d="M27.0703 27.8333H1.28906C1.09453 27.8333 0.9375 27.6769 0.9375 27.4833C0.9375 27.2896 1.09453 27.1333 1.28906 27.1333H27.0703C27.2648 27.1333 27.4219 27.2896 27.4219 27.4833C27.4219 27.6769 27.2648 27.8333 27.0703 27.8333Z" fill="#222222" stroke="#222222" stroke-width="0.4"/>
<path d="M6.09375 19.1992C5.96484 19.1992 5.85938 19.0942 5.85938 18.9659V15.6992C5.85938 15.5709 5.96484 15.4659 6.09375 15.4659C6.22266 15.4659 6.32812 15.5709 6.32812 15.6992V18.9659C6.32812 19.0942 6.22266 19.1992 6.09375 19.1992Z" fill="#222222" stroke="#222222" stroke-width="0.4"/>
<path d="M23.3823 19.0895C23.251 19.0895 23.1244 19.0172 23.0659 18.8912C22.8432 18.4269 22.726 17.9042 22.726 17.3745C22.726 16.7049 22.9088 16.0609 23.258 15.5125C23.3612 15.3492 23.5791 15.3002 23.7432 15.4029C23.9073 15.5055 23.9565 15.7225 23.8534 15.8859C23.5768 16.3222 23.4315 16.8355 23.4315 17.3745C23.4315 17.7992 23.5252 18.2192 23.7034 18.5902C23.7877 18.7652 23.7127 18.9729 23.537 19.0569C23.4877 19.0802 23.4362 19.0919 23.3846 19.0919L23.3823 19.0895Z" fill="#222222" stroke="#222222" stroke-width="0.4"/>
<path d="M13.4662 14.2996C11.392 14.2319 9.79352 11.8589 9.79352 9.86623C9.79352 7.87356 11.2209 6.40356 12.9763 6.40356C13.4873 6.40356 13.9912 6.5389 14.4459 6.7979C14.9005 6.5389 15.4045 6.40356 15.9154 6.40356C17.6709 6.40356 19.1005 7.95756 19.1005 9.86623C19.1005 11.7749 17.467 14.1876 15.4396 14.2996H13.4662ZM12.9787 7.10356C11.6099 7.10356 10.499 8.34256 10.499 9.86623C10.499 11.5019 11.8748 13.5482 13.4802 13.5996H15.4209C17.0146 13.5109 18.3974 11.4716 18.3974 9.86623C18.3974 8.34256 17.2841 7.10356 15.9154 7.10356C15.4701 7.10356 15.0295 7.24123 14.6427 7.50023C14.5232 7.57956 14.3685 7.57956 14.2513 7.50023C13.8646 7.24123 13.424 7.10356 12.9787 7.10356Z" fill="#222222" stroke="#222222" stroke-width="0.4"/>
<path d="M14.4141 7.0662C14.2195 7.0662 14.0625 6.90986 14.0625 6.71619V2.28286C14.0625 2.08919 14.2195 1.93286 14.4141 1.93286C14.6086 1.93286 14.7656 2.08919 14.7656 2.28286V6.71619C14.7656 6.90986 14.6086 7.0662 14.4141 7.0662Z" fill="#222222" stroke="#222222" stroke-width="0.4"/>
<path d="M12.6759 5.3699C12.4298 5.3699 12.1767 5.3349 11.9283 5.2509C10.7611 4.84723 10.2173 3.46823 10.1939 3.4099C10.154 3.30256 10.1939 3.18356 10.2923 3.12523C10.3462 3.09256 11.6329 2.34823 12.8001 2.7519C13.9673 3.15556 14.5111 4.53456 14.5345 4.5929C14.5743 4.70023 14.5345 4.81923 14.4361 4.87756C14.3939 4.90323 13.5876 5.3699 12.6759 5.3699ZM12.0829 4.8099C12.8118 5.0619 13.6486 4.74223 14.0118 4.5719C13.8337 4.21256 13.3767 3.4449 12.6478 3.1929C11.9165 2.93856 11.0822 3.26056 10.7189 3.4309C10.897 3.79023 11.354 4.5579 12.0829 4.8099Z" fill="#222222" stroke="#222222" stroke-width="0.4"/>
<path d="M11.1328 21.0659H5.625C3.55781 21.0659 1.875 19.3906 1.875 17.3326C1.875 15.2746 3.55781 13.5992 5.625 13.5992H24.9609C25.1555 13.5992 25.3125 13.7556 25.3125 13.9492V15.3492C25.3125 15.5429 25.1555 15.6992 24.9609 15.6992C24.7664 15.6992 24.6094 15.5429 24.6094 15.3492V14.2992H5.625C3.94453 14.2992 2.57812 15.6596 2.57812 17.3326C2.57812 19.0056 3.94453 20.3659 5.625 20.3659H11.1328C11.3273 20.3659 11.4844 20.5222 11.4844 20.7159C11.4844 20.9096 11.3273 21.0659 11.1328 21.0659Z" fill="#222222" stroke="#222222" stroke-width="0.4"/>
<path d="M6.09375 25.9658C5.96484 25.9658 5.85938 25.8608 5.85938 25.7325V22.4658C5.85938 22.3375 5.96484 22.2325 6.09375 22.2325C6.22266 22.2325 6.32812 22.3375 6.32812 22.4658V25.7325C6.32812 25.8608 6.22266 25.9658 6.09375 25.9658Z" fill="#222222" stroke="#222222" stroke-width="0.4"/>
<path d="M5.625 27.8324C3.55781 27.8324 1.875 26.157 1.875 24.099C1.875 22.041 3.55781 20.3657 5.625 20.3657C5.81953 20.3657 5.97656 20.522 5.97656 20.7157C5.97656 20.9094 5.81953 21.0657 5.625 21.0657C3.94453 21.0657 2.57812 22.426 2.57812 24.099C2.57812 25.772 3.94453 27.1324 5.625 27.1324C5.81953 27.1324 5.97656 27.2887 5.97656 27.4824C5.97656 27.676 5.81953 27.8324 5.625 27.8324Z" fill="#222222" stroke="#222222" stroke-width="0.4"/>
<path d="M19.7648 24.142C19.725 24.142 19.6852 24.135 19.6477 24.121L10.7813 20.999C10.6406 20.95 10.5469 20.817 10.5469 20.67C10.5469 20.523 10.6406 20.39 10.7813 20.341L19.6477 17.219C19.7227 17.191 19.807 17.191 19.882 17.219L28.7484 20.341C28.8891 20.39 28.9828 20.523 28.9828 20.67C28.9828 20.817 28.8891 20.95 28.7484 20.999L19.882 24.121C19.8445 24.135 19.8047 24.142 19.7648 24.142ZM11.9531 20.67L19.7648 23.421L27.5766 20.67L19.7648 17.919L11.9531 20.67Z" fill="#222222" stroke="#222222" stroke-width="0.4"/>
<path d="M24.9609 27.8331H14.1797C13.9852 27.8331 13.8281 27.6768 13.8281 27.4831V22.1165C13.8281 21.9228 13.9852 21.7665 14.1797 21.7665C14.3742 21.7665 14.5312 21.9228 14.5312 22.1165V27.1331H24.6094V22.1165C24.6094 21.9228 24.7664 21.7665 24.9609 21.7665C25.1555 21.7665 25.3125 21.9228 25.3125 22.1165V27.4831C25.3125 27.6768 25.1555 27.8331 24.9609 27.8331Z" fill="#222222" stroke="#222222" stroke-width="0.4"/>
<path d="M27.6562 23.6328C27.5273 23.6328 27.4219 23.5278 27.4219 23.3995V21.2995C27.4219 21.1711 27.5273 21.0661 27.6562 21.0661C27.7852 21.0661 27.8906 21.1711 27.8906 21.2995V23.3995C27.8906 23.5278 27.7852 23.6328 27.6562 23.6328Z" fill="#222222" stroke="#222222" stroke-width="0.4"/>
<path d="M28.8229 25.9664H26.5588C26.4791 25.9664 26.4041 25.9268 26.3619 25.8591C26.3197 25.7914 26.3127 25.7074 26.3479 25.6351L27.4799 23.2154C27.5174 23.1338 27.6018 23.0801 27.6932 23.0801C27.7846 23.0801 27.8666 23.1338 27.9065 23.2154L29.0385 25.6351C29.0713 25.7074 29.0666 25.7914 29.0244 25.8591C28.9822 25.9268 28.9072 25.9664 28.8275 25.9664H28.8229ZM26.9268 25.4998H28.4549L27.6908 23.8664L26.9268 25.4998Z" fill="#222222" stroke="#222222" stroke-width="0.4"/>
<path d="M14.0625 26.2H5.85938C4.69687 26.2 3.75 25.2574 3.75 24.1C3.75 22.9427 4.69687 22 5.85938 22H13.8281C13.957 22 14.0625 22.105 14.0625 22.2334C14.0625 22.3617 13.957 22.4667 13.8281 22.4667H5.85938C4.95469 22.4667 4.21875 23.1994 4.21875 24.1C4.21875 25.0007 4.95469 25.7334 5.85938 25.7334H14.0625C14.1914 25.7334 14.2969 25.8384 14.2969 25.9667C14.2969 26.095 14.1914 26.2 14.0625 26.2Z" fill="#222222" stroke="#222222" stroke-width="0.4"/>
<path d="M15.3013 19.2H6.39508C5.23258 19.2 4.28571 18.2574 4.28571 17.1C4.28571 15.9427 5.23258 15 6.39508 15H25.3795C25.5084 15 25.6138 15.105 25.6138 15.2334C25.6138 15.3617 25.5084 15.4667 25.3795 15.4667H6.39508C5.49039 15.4667 4.75446 16.1994 4.75446 17.1C4.75446 18.0007 5.49039 18.7334 6.39508 18.7334H15.3013C15.4302 18.7334 15.5357 18.8384 15.5357 18.9667C15.5357 19.095 15.4302 19.2 15.3013 19.2Z" fill="#222222" stroke="#222222" stroke-width="0.4"/>
</svg>
