<svg width="41" height="36" viewBox="0 0 41 36" fill="none" xmlns="http://www.w3.org/2000/svg">
<g clip-path="url(#clip0_26_1797)">
<g clip-path="url(#clip1_26_1797)">
<path d="M34.5041 16.2842C34.6522 16.2842 34.8025 16.2528 34.946 16.1868C38.7936 14.4143 39.4486 12.1528 39.4968 10.9626C39.556 9.4931 38.783 8.12383 37.4791 7.38892C36.1496 6.64046 34.5838 6.71285 33.2909 7.58433C30.3641 9.55657 25.9381 8.47649 25.8938 8.46579C25.3254 8.32138 24.7469 8.67011 24.6041 9.24278C24.4613 9.81509 24.8054 10.3956 25.3739 10.5404C25.5919 10.5956 30.7533 11.8697 34.4743 9.36152C35.36 8.76461 36.144 9.08874 36.4399 9.25562C37.0414 9.59437 37.3986 10.2152 37.372 10.8756C37.3238 12.0676 36.117 13.2942 34.0607 14.2413C33.527 14.4874 33.2923 15.1221 33.5369 15.6594C33.7155 16.0524 34.1011 16.2842 34.5041 16.2842Z" fill="white"/>
<path d="M34.5041 16.2842C34.6522 16.2842 34.8025 16.2528 34.946 16.1868C38.7936 14.4143 39.4486 12.1528 39.4968 10.9626C39.556 9.4931 38.783 8.12383 37.4791 7.38892C36.1496 6.64046 34.5838 6.71285 33.2909 7.58433C30.3641 9.55657 25.9381 8.47649 25.8938 8.46579C25.3254 8.32138 24.7469 8.67011 24.6041 9.24278C24.4613 9.81509 24.8054 10.3956 25.3739 10.5404C25.5919 10.5956 30.7533 11.8697 34.4743 9.36152C35.36 8.76461 36.144 9.08874 36.4399 9.25562C37.0414 9.59437 37.3986 10.2152 37.372 10.8756C37.3238 12.0676 36.117 13.2942 34.0607 14.2413C33.527 14.4874 33.2923 15.1221 33.5369 15.6594C33.7155 16.0524 34.1011 16.2842 34.5041 16.2842Z" stroke="#222222" stroke-width="1.01988" stroke-miterlimit="10" stroke-linecap="round" stroke-linejoin="round"/>
<path d="M30.07 17.263C30.5116 18.3103 32.0958 18.6359 33.6085 17.9897C35.1211 17.3443 35.9898 15.9718 35.5482 14.9242C35.1062 13.8773 33.522 13.5521 32.0093 14.1975C30.4967 14.8433 29.6284 16.2157 30.07 17.263Z" fill="#BBE0F0"/>
<path d="M30.07 17.263C30.5116 18.3103 32.0958 18.6359 33.6085 17.9897C35.1211 17.3443 35.9898 15.9718 35.5482 14.9242C35.1062 13.8773 33.522 13.5521 32.0093 14.1975C30.4967 14.8433 29.6284 16.2157 30.07 17.263Z" stroke="#222222" stroke-width="1.01988" stroke-miterlimit="10" stroke-linecap="round" stroke-linejoin="round"/>
<path d="M6.4959 16.2842C6.34775 16.2842 6.19748 16.2528 6.05394 16.1868C2.20637 14.4143 1.5514 12.1528 1.5032 10.9626C1.44401 9.4931 2.217 8.12383 3.52091 7.38892C4.85033 6.64046 6.41615 6.71285 7.70907 7.58433C10.6359 9.55657 15.0618 8.47649 15.1061 8.46579C15.6746 8.32138 16.253 8.67011 16.3959 9.24278C16.5387 9.81509 16.1946 10.3956 15.6261 10.5404C15.4081 10.5956 10.2467 11.8697 6.52567 9.36152C5.63998 8.76461 4.856 9.08874 4.56006 9.25562C3.95861 9.59437 3.60136 10.2152 3.62794 10.8756C3.67614 12.0676 4.88294 13.2942 6.93927 14.2413C7.47303 14.4874 7.70765 15.1221 7.4631 15.6594C7.28448 16.0524 6.89887 16.2842 6.4959 16.2842Z" fill="white"/>
<path d="M6.4959 16.2842C6.34775 16.2842 6.19748 16.2528 6.05394 16.1868C2.20637 14.4143 1.5514 12.1528 1.5032 10.9626C1.44401 9.4931 2.217 8.12383 3.52091 7.38892C4.85033 6.64046 6.41615 6.71285 7.70907 7.58433C10.6359 9.55657 15.0618 8.47649 15.1061 8.46579C15.6746 8.32138 16.253 8.67011 16.3959 9.24278C16.5387 9.81509 16.1946 10.3956 15.6261 10.5404C15.4081 10.5956 10.2467 11.8697 6.52567 9.36152C5.63998 8.76461 4.856 9.08874 4.56006 9.25562C3.95861 9.59437 3.60136 10.2152 3.62794 10.8756C3.67614 12.0676 4.88294 13.2942 6.93927 14.2413C7.47303 14.4874 7.70765 15.1221 7.4631 15.6594C7.28448 16.0524 6.89887 16.2842 6.4959 16.2842Z" stroke="#222222" stroke-width="1.01988" stroke-miterlimit="10" stroke-linecap="round" stroke-linejoin="round"/>
<path d="M27.7214 10.0947C27.7214 6.08323 24.4891 4.75247 20.5015 4.75247C16.5143 4.75247 13.282 6.08323 13.282 10.0947C13.282 11.5378 13.7006 13.131 14.4225 14.5795C16.0575 17.8614 16.9077 21.4828 17.1271 25.1474L17.4574 30.6569H23.546L23.8763 25.1474C24.096 21.4828 24.9459 17.8614 26.5812 14.5795C27.3028 13.131 27.7214 11.5378 27.7214 10.0947Z" fill="#FF5F5F"/>
<path d="M27.7214 10.0947C27.7214 6.08323 24.4891 4.75247 20.5015 4.75247C16.5143 4.75247 13.282 6.08323 13.282 10.0947C13.282 11.5378 13.7006 13.131 14.4225 14.5795C16.0575 17.8614 16.9077 21.4828 17.1271 25.1474L17.4574 30.6569H23.546L23.8763 25.1474C24.096 21.4828 24.9459 17.8614 26.5812 14.5795C27.3028 13.131 27.7214 11.5378 27.7214 10.0947Z" stroke="#222222" stroke-width="1.01988" stroke-miterlimit="10" stroke-linecap="round" stroke-linejoin="round"/>
<path d="M10.9264 17.263C10.4848 18.3103 8.90059 18.6359 7.38793 17.9897C5.87492 17.3443 5.00659 15.9718 5.4482 14.9242C5.89016 13.8773 7.47441 13.5521 8.98707 14.1975C10.4997 14.8433 11.368 16.2157 10.9264 17.263Z" fill="#BBE0F0"/>
<path d="M10.9264 17.263C10.4848 18.3103 8.90059 18.6359 7.38793 17.9897C5.87492 17.3443 5.00659 15.9718 5.4482 14.9242C5.89016 13.8773 7.47441 13.5521 8.98707 14.1975C10.4997 14.8433 11.368 16.2157 10.9264 17.263Z" stroke="#222222" stroke-width="1.01988" stroke-miterlimit="10" stroke-linecap="round" stroke-linejoin="round"/>
<path d="M24.8675 8.0455C23.5101 8.21309 22.0392 8.30224 20.501 8.30224C18.9629 8.30224 17.492 8.21309 16.1346 8.0455C15.4081 8.7444 15.4081 9.59662 15.4081 10.0958C15.4081 11.1834 15.7306 12.4386 16.3225 13.6224C16.7212 14.4233 17.0784 15.2502 17.396 16.0999C17.7093 16.9375 18.3278 17.5965 19.0965 17.9623C19.24 20.4174 19.138 22.9758 19.2499 25.6331L19.4591 30.6573H21.543L21.7521 25.6331C21.8624 22.9762 21.7592 20.4177 21.9028 17.9627C22.6715 17.5972 23.29 16.9386 23.6036 16.1013C23.9219 15.2509 24.2795 14.4236 24.6796 13.6224C25.268 12.4386 25.594 11.1834 25.594 10.0958C25.594 9.59662 25.594 8.7444 24.8675 8.0455Z" fill="#DDD6D3"/>
<path d="M24.8675 8.0455C23.5101 8.21309 22.0392 8.30224 20.501 8.30224C18.9629 8.30224 17.492 8.21309 16.1346 8.0455C15.4081 8.7444 15.4081 9.59662 15.4081 10.0958C15.4081 11.1834 15.7306 12.4386 16.3225 13.6224C16.7212 14.4233 17.0784 15.2502 17.396 16.0999C17.7093 16.9375 18.3278 17.5965 19.0965 17.9623C19.24 20.4174 19.138 22.9758 19.2499 25.6331L19.4591 30.6573H21.543L21.7521 25.6331C21.8624 22.9762 21.7592 20.4177 21.9028 17.9627C22.6715 17.5972 23.29 16.9386 23.6036 16.1013C23.9219 15.2509 24.2795 14.4236 24.6796 13.6224C25.268 12.4386 25.594 11.1834 25.594 10.0958C25.594 9.59662 25.594 8.7444 24.8675 8.0455Z" stroke="#222222" stroke-width="1.01988" stroke-miterlimit="10" stroke-linecap="round" stroke-linejoin="round"/>
<path d="M21.8472 11.1827C22.3427 11.6812 22.14 12.6943 21.3943 13.4449C20.6482 14.1951 19.6417 14.3994 19.1459 13.9006C18.65 13.4021 18.8531 12.3894 19.5992 11.6384C20.3449 10.8882 21.3514 10.6842 21.8472 11.1827Z" fill="#FFE1D7"/>
<path d="M21.8472 11.1827C22.3427 11.6812 22.14 12.6943 21.3943 13.4449C20.6482 14.1951 19.6417 14.3994 19.1459 13.9006C18.65 13.4021 18.8531 12.3894 19.5992 11.6384C20.3449 10.8882 21.3514 10.6842 21.8472 11.1827Z" stroke="#222222" stroke-width="1.01988" stroke-miterlimit="10" stroke-linecap="round" stroke-linejoin="round"/>
</g>
</g>
<defs>
<clipPath id="clip0_26_1797">
<rect width="40" height="35" fill="white" transform="translate(0.5 0.5)"/>
</clipPath>
<clipPath id="clip1_26_1797">
<rect width="40" height="30" fill="white" transform="translate(0.5 2.5)"/>
</clipPath>
</defs>
</svg>
