<svg width="67" height="21" viewBox="0 0 67 21" fill="none" xmlns="http://www.w3.org/2000/svg">
<g clip-path="url(#clip0_43_551)">
<path d="M0 2.92587C0 2.92587 0 0 1.11604 0C2.23207 0 1.36457 2.843 2.52219 2.71964C3.6798 2.59628 4.879 1.03022 5.49891 0.741121C6.11977 0.452018 7.19423 -0.041435 7.35961 0.823049C7.52498 1.68848 5.53955 2.7187 5.53955 2.7187C5.53955 2.7187 3.88581 3.74798 3.92739 4.20188C3.96897 4.65484 4.29972 4.73771 5.3326 5.31404C6.36642 5.89036 8.88955 6.88009 8.35185 8.19847C7.81415 9.51686 5.82966 7.86888 5.3326 7.37448C4.83647 6.88009 3.88581 5.64363 2.93515 5.64363C1.98449 5.64363 2.0667 7.53928 1.98354 7.82744C1.90038 8.11655 1.65279 8.48758 1.19825 8.48758C0.74371 8.48758 0.206953 7.66453 0.123794 6.3452C0.0415797 5.02682 0 2.92587 0 2.92587Z" fill="#E65125"/>
<path d="M12.3301 1.56533C12.3301 1.56533 12.4019 0.340174 14.2314 0.123582C15.6433 -0.0430999 18.0776 0.20551 18.6143 0.535106C19.152 0.865645 19.152 1.36004 17.5399 1.44197C15.9268 1.5239 14.8939 2.22547 14.8939 2.76129C14.8939 3.29712 15.4316 3.87345 18.2013 5.23327C20.9721 6.59309 19.1114 8.07627 18.4083 8.20058C17.7052 8.32394 15.3068 8.57161 13.7769 8.11865C12.2469 7.66475 11.2953 6.96506 11.8746 6.42923C12.453 5.8934 14.0245 6.75883 15.0583 6.75883C16.0921 6.75883 16.3813 6.34636 16.3813 6.34636C16.3813 6.34636 17.0012 5.7286 16.1337 5.15228C15.2653 4.57596 13.1976 3.13233 13.1976 3.13233C13.1976 3.13233 12.0816 2.2669 12.3292 1.56627" fill="#1BA44A"/>
<path d="M23.983 1.937C23.9424 1.27875 22.0392 1.36068 22.0392 1.36068C21.5015 1.40211 20.9231 1.40211 20.0131 1.60834C19.104 1.81364 18.3594 2.59713 18.3594 3.99839C18.3594 5.39965 20.0547 6.09933 21.5846 6.09933C23.1146 6.09933 23.6929 5.8526 23.6929 5.31678C23.6929 4.78095 22.8254 4.82238 22.4947 4.78095C22.163 4.74045 21.4608 4.40991 21.7084 3.50305C21.957 2.59713 24.0237 2.59713 23.983 1.93794M20.7587 3.66879C20.7587 4.03982 20.634 4.45229 20.1794 4.41086C19.7249 4.36942 19.6011 4.08126 19.6011 3.66879C19.6011 3.66879 19.6833 3.1744 20.2626 3.09247C20.8419 3.01054 20.7597 3.29776 20.7597 3.66879" fill="#F6AF1B"/>
<path d="M25.2664 0.946634C25.2664 0.946634 25.2664 0.288383 27.748 0.122643C30.2286 -0.0421552 31.9239 0.164078 31.9239 1.8535C31.9239 3.54291 31.097 4.32641 30.1879 4.90273C29.2779 5.47906 29.4027 5.47906 29.775 5.76816C30.1464 6.05726 31.4703 6.67408 31.9664 7.00462C32.4625 7.33421 32.7517 8.4878 31.7179 8.61211C30.6841 8.73547 29.981 7.95197 29.4858 7.54045C28.9897 7.12798 28.1222 5.97439 27.2122 6.01583C26.3031 6.05726 26.2605 7.41708 26.0952 7.91148C25.9298 8.40587 25.4753 8.8174 25.1445 8.73547C24.8138 8.6526 24.3072 7.8804 24.2761 7.08749C24.2553 6.55166 24.0285 4.07874 24.4414 2.55506C24.8544 1.03139 25.6397 1.40242 25.6397 2.38932C25.6397 3.37623 25.4337 4.32735 27.335 4.36785C29.2373 4.40928 29.5274 3.33856 29.3195 2.47314C29.1125 1.60771 28.3376 1.45327 27.2934 1.48435C26.3806 1.51072 25.1842 1.36004 25.2664 0.947576" fill="#085DA8"/>
<path d="M11.0379 1.60801C10.3349 1.44322 9.92189 1.27842 9.50798 1.03169C9.09502 0.784964 8.51574 0.907385 8.51574 0.907385C7.5235 1.07218 7.31655 1.97904 7.10959 3.66846C6.90358 5.35788 8.0612 6.75913 9.54862 6.80057C11.037 6.84106 12.1946 5.77034 12.3193 4.20429C12.4441 2.63824 11.741 1.77187 11.037 1.60801M10.831 4.49151C10.831 4.49151 10.5824 5.60366 9.54862 5.60366C8.5148 5.60366 8.26721 4.45008 8.391 3.37936C8.391 3.37936 8.34942 2.55537 9.22827 2.16362C9.39459 2.08922 9.5902 1.89617 9.87937 1.89523C11.2033 1.89523 10.831 4.49151 10.831 4.49151Z" fill="#FEDC00"/>
<path d="M1.33238 13.9656V17.8228H2.04869C2.65632 17.8228 3.42176 17.7098 3.67691 17.6439V18.6694C3.27434 18.7636 2.16681 18.8672 1.45051 18.8672H0.135077V13.9185C0.135077 13.5984 0.135077 13.2697 0.0859375 12.9495H2.5089C2.76405 12.9495 2.9899 12.9495 3.2441 12.9213V13.9939C2.98896 13.9562 2.7631 13.9656 2.5089 13.9656H1.33238ZM5.20685 15.1041H6.02049V13.6925C6.02049 13.2688 6.01104 12.8553 5.97135 12.4316H7.2074C7.16866 12.8553 7.16866 13.2688 7.16866 13.6925V19.6017C7.16866 20.0255 7.16866 20.4389 7.2074 20.8627H5.97135C6.0101 20.4389 6.02049 20.0255 6.02049 19.6017V16.2992H5.20685V19.1977C5.20685 19.6215 5.20685 20.0349 5.23615 20.4587H4.01049C4.03979 20.0349 4.04924 19.6215 4.04924 19.1977V13.8347C4.04924 13.411 4.03979 12.9975 4.01049 12.5738H5.23615C5.20685 12.9975 5.20685 13.411 5.20685 13.8347V15.1051V15.1041Z" fill="#231F20"/>
<path d="M12.7318 14.6423H9.10302C8.81858 14.6423 8.61257 14.6423 8.32812 14.6799V13.6921C8.61257 13.7203 8.81858 13.7203 9.10302 13.7203H12.7318C13.0162 13.7203 13.2222 13.7203 13.5067 13.6921V14.6799C13.2222 14.6423 13.0162 14.6423 12.7318 14.6423ZM8.55398 16.4108C8.55398 15.5736 9.59347 14.9427 10.9174 14.9427C12.2413 14.9427 13.2619 15.5727 13.2619 16.4202C13.2619 17.2677 12.2914 17.8601 10.908 17.8601C9.60387 17.8601 8.55398 17.2301 8.55398 16.4108ZM9.47629 20.7012L9.48574 19.0824C9.48574 18.8564 9.48574 18.5927 9.447 18.3677H10.7813C10.7426 18.5842 10.7426 18.8479 10.7426 19.0636V19.6747H14.1559C14.6662 19.6747 15.117 19.6747 15.6273 19.6371V20.7379C15.117 20.7003 14.6662 20.7003 14.1559 20.7003H9.47724L9.47629 20.7012ZM11.6243 13.2777H10.1822C9.95635 13.2777 9.76073 13.2683 9.52543 13.2966V12.3652C9.76073 12.3841 9.95729 12.3841 10.1822 12.3841H11.6243C11.8501 12.3841 12.0457 12.3841 12.281 12.3652V13.2966C12.0457 13.2777 11.8492 13.2777 11.6243 13.2777ZM9.79948 16.4014C9.79948 16.8157 10.3391 16.9655 10.9278 16.9655C11.5165 16.9655 12.007 16.8148 12.007 16.4108C12.007 16.0068 11.4967 15.8279 10.9278 15.8279C10.3589 15.8279 9.79948 16.0068 9.79948 16.4014ZM15.3702 14.905H15.7529C15.9882 14.905 16.2632 14.905 16.4985 14.8673V16.0153C16.2727 15.9776 15.9986 15.9776 15.7728 15.9776H15.3712V17.5964C15.3712 17.9166 15.3712 18.2264 15.4099 18.5466H14.1153C14.154 18.2264 14.1644 17.9156 14.1644 17.5964V13.3813C14.1644 13.0612 14.155 12.7504 14.1153 12.4312H15.4099C15.3712 12.7513 15.3712 13.0621 15.3712 13.3813V14.906L15.3702 14.905Z" fill="#231F20"/>
<path d="M21.2825 17.3518V18.98H23.2537C23.764 18.98 24.2441 18.98 24.7544 18.9423V20.0526C24.2441 20.0149 23.764 20.0149 23.2537 20.0149H18.0553C17.545 20.0149 17.065 20.0149 16.5547 20.0526V18.9423C17.065 18.98 17.545 18.98 18.0553 18.98H20.0067V17.3518H17.5649V13.569C17.5649 13.23 17.5554 12.9484 17.5157 12.6094H18.8397C18.8009 12.9484 18.7905 13.23 18.7905 13.569V13.9174H22.5081V13.569C22.5081 13.23 22.4987 12.9484 22.459 12.6094H23.7829C23.7442 12.9484 23.7338 13.23 23.7338 13.569V17.3518H21.2815H21.2825ZM22.5081 16.3169V14.9523H18.7905V16.3169H22.5081Z" fill="#231F20"/>
<path d="M28.5371 18.9703V17.9259C28.5371 17.7093 28.5371 17.456 28.4983 17.23H29.8421C29.8033 17.4372 29.8033 17.7197 29.8033 17.9259V18.9703H31.785C32.2953 18.9703 32.7753 18.9703 33.2856 18.9326V20.024C32.7753 19.9864 32.2953 19.9864 31.785 19.9864H26.5866C26.0763 19.9864 25.5962 19.9864 25.0859 20.024V18.9326C25.5962 18.9703 26.0763 18.9703 26.5866 18.9703H28.538H28.5371ZM29.8808 13.7956V13.9839C29.8808 15.292 31.6262 16.2139 33.0787 16.4587C32.7555 16.7789 32.5391 17.0605 32.2547 17.3618C31.1755 17.1076 29.7438 16.3646 29.1749 15.4803C28.6552 16.3834 27.2424 17.0793 26.1046 17.3618C25.8296 17.0605 25.6236 16.7883 25.2608 16.4587C26.9277 16.1103 28.4586 15.3202 28.4586 13.9839V13.7956H26.9192C26.5762 13.7956 26.321 13.7956 25.978 13.8333V12.7324C26.321 12.7701 26.5762 12.7701 26.9192 12.7701H31.4505C31.7935 12.7701 32.0486 12.7701 32.3917 12.7324V13.8333C32.0486 13.7956 31.7935 13.7956 31.4505 13.7956H29.8808Z" fill="#231F20"/>
<path d="M36.4561 13.4091C36.4561 14.7642 37.0741 15.5543 38.1041 16.1664C37.8291 16.4113 37.5938 16.6646 37.3198 16.9471C36.8293 16.6363 36.1622 16.0252 35.839 15.4319C35.5054 16.1843 34.7796 16.8718 34.2797 17.2098C33.9953 16.9744 33.691 16.7296 33.3281 16.4668C33.7987 16.1843 34.378 15.7709 34.7598 15.0929C34.9951 14.6597 35.1718 14.105 35.1718 13.4091C35.1718 13.1455 35.1624 12.8921 35.1227 12.6285H36.5052C36.4664 12.8921 36.4561 13.1464 36.4561 13.4091ZM34.8968 19.2524C34.8968 18.2175 36.0251 17.4933 38.2024 17.4933C40.3797 17.4933 41.4976 18.2175 41.4976 19.2524C41.4976 20.2873 40.3693 20.9833 38.2024 20.9833C36.0355 20.9833 34.8968 20.2685 34.8968 19.2524ZM36.2604 19.2336C36.2604 19.7317 37.006 20.0425 38.2118 20.0425C39.4177 20.0425 40.1538 19.7411 40.1538 19.243C40.1538 18.7448 39.3884 18.4529 38.2118 18.4529C37.0353 18.4529 36.2604 18.726 36.2604 19.2336ZM39.5263 14.1625H40.2228V13.5419C40.2228 13.1652 40.2228 12.7989 40.1841 12.4316H41.4399C41.4012 12.7989 41.4012 13.1652 41.4012 13.5419V16.4019C41.4012 16.7785 41.4012 17.1449 41.4399 17.5121H40.1746C40.2133 17.1449 40.2237 16.7785 40.2237 16.4019V15.2633H39.5273V16.1382C39.5273 16.5055 39.5273 16.8718 39.5566 17.239H38.3111C38.3404 16.8718 38.3498 16.5055 38.3498 16.1382V13.6822C38.3498 13.3055 38.3404 12.9486 38.3111 12.572H39.5566C39.5273 12.9486 39.5273 13.3055 39.5273 13.6822V14.1625H39.5263Z" fill="#6D6E71"/>
<path d="M45.5825 13.3724V13.6267C45.5825 14.7652 46.6324 15.7624 47.6521 16.1015C47.4073 16.3746 47.0539 16.7597 46.8866 16.9857C46.2195 16.675 45.3368 16.045 44.9248 15.3763C44.6801 16.0167 43.6396 16.8821 43.0027 17.1825C42.7381 16.9754 42.3554 16.6279 42.0312 16.4019C42.6587 16.1099 43.2966 15.6777 43.7086 15.1409C44.0516 14.7077 44.268 14.2096 44.268 13.654V13.3715C44.268 13.0984 44.2586 12.8629 44.2189 12.5908H45.6317C45.5929 12.8639 45.5825 13.0984 45.5825 13.3715V13.3724ZM49.7707 20.0246C49.7707 20.3071 49.7802 20.6169 49.8199 20.8994H48.4959C48.5356 20.6263 48.5356 20.2977 48.5356 20.0246V18.8107H44.6319C44.2397 18.8107 43.9449 18.8107 43.5527 18.8484V17.7758C43.9449 17.8041 44.2388 17.8041 44.6319 17.8041H49.8104C49.7707 18.0489 49.7707 18.2749 49.7707 18.5188V20.0246ZM49.7707 13.3818V17.4839H48.5451V13.3818C48.5451 13.0616 48.5356 12.7509 48.4959 12.4316H49.8104C49.7707 12.7518 49.7707 13.0626 49.7707 13.3818Z" fill="#6D6E71"/>
<path d="M55.388 14.6037H51.7593C51.4748 14.6037 51.2688 14.6037 50.9844 14.6413V13.6629C51.2688 13.6912 51.4748 13.6912 51.7593 13.6912H55.388C55.6725 13.6912 55.8785 13.6912 56.1629 13.6629V14.6413C55.8785 14.6037 55.6725 14.6037 55.388 14.6037ZM51.2291 16.2601C51.2291 15.4606 52.2299 14.8956 53.5926 14.8956C54.9552 14.8956 55.9172 15.4597 55.9172 16.2507C55.9172 17.0417 54.9656 17.6341 53.5727 17.6341C52.3168 17.6341 51.2282 17.0323 51.2282 16.2601H51.2291ZM58.0265 20.0053C58.0265 20.2878 58.0359 20.5986 58.0756 20.8801H56.7224C56.7611 20.607 56.7611 20.2784 56.7611 20.0053V19.1775H52.9944C52.6022 19.1775 52.3074 19.1775 51.9152 19.2152V18.152C52.3074 18.1803 52.6022 18.1803 52.9944 18.1803H58.0652C58.0255 18.4251 58.0255 18.6502 58.0255 18.895V20.0053H58.0265ZM54.2796 13.2777H52.8375C52.6117 13.2777 52.416 13.2683 52.1807 13.2966V12.3652C52.416 12.3841 52.6126 12.3841 52.8375 12.3841H54.2796C54.5054 12.3841 54.701 12.3841 54.9363 12.3652V13.2966C54.701 13.2777 54.5045 13.2777 54.2796 13.2777ZM52.5039 16.2601C52.5039 16.618 53.0237 16.7969 53.5831 16.7969C54.1718 16.7969 54.633 16.6086 54.633 16.2516C54.633 15.8947 54.1624 15.7243 53.5831 15.7243C53.0038 15.7243 52.5039 15.8938 52.5039 16.2611V16.2601ZM58.0255 14.7355H58.3978C58.6331 14.7355 58.9081 14.7355 59.1434 14.6978V15.8552C58.9176 15.8175 58.6435 15.8175 58.4177 15.8175H58.0255V17.8497H56.8292V13.371C56.8292 13.0508 56.8197 12.74 56.78 12.4208H58.0652C58.0255 12.741 58.0255 13.0508 58.0255 13.371V14.7355Z" fill="#6D6E71"/>
<path d="M61.799 18.3324V17.7777C60.9362 17.6459 60.1708 17.1194 60.1708 16.4508C60.1708 15.6325 61.181 15.0863 62.3972 15.0863C63.6134 15.0863 64.6236 15.6231 64.6236 16.4508C64.6236 17.1279 63.9564 17.5894 63.1031 17.74V18.305C63.878 18.2674 64.839 18.2203 65.4174 18.145V19.1422C64.2304 19.2835 62.4945 19.3776 60.5431 19.3776C60.1708 19.3776 59.8863 19.3776 59.5234 19.4153V18.3145C59.8863 18.3427 60.1708 18.3427 60.5431 18.3427L61.799 18.3333V18.3324ZM64.153 14.8038H60.6319C60.3475 14.8038 60.1415 14.8038 59.857 14.8415V13.8348C60.1415 13.863 60.3475 13.863 60.6319 13.863H64.153C64.4374 13.863 64.6434 13.863 64.9279 13.8348V14.8415C64.6434 14.8038 64.4374 14.8038 64.153 14.8038ZM63.1522 13.4487H61.6223C61.3964 13.4487 61.2008 13.4393 60.9655 13.4675V12.5173C61.2008 12.5362 61.3974 12.5362 61.6223 12.5362H63.1522C63.3781 12.5362 63.5737 12.5362 63.809 12.5173V13.4675C63.5737 13.4487 63.3771 13.4487 63.1522 13.4487ZM61.3671 16.4499C61.3671 16.8266 61.8774 17.014 62.3972 17.014C62.9169 17.014 63.4367 16.8068 63.4367 16.4499C63.4367 16.093 62.9367 15.9131 62.3972 15.9131C61.8576 15.9131 61.3671 16.092 61.3671 16.4499ZM66.9284 19.5924C66.9284 20.0161 66.9284 20.4295 66.9671 20.8533H65.6631C65.7027 20.4295 65.7122 20.0161 65.7122 19.5924V13.6926C65.7122 13.2688 65.7027 12.8554 65.6631 12.4316H66.9671C66.9284 12.8554 66.9284 13.2688 66.9284 13.6926V19.5924Z" fill="#6D6E71"/>
</g>
<defs>
<clipPath id="clip0_43_551">
<rect width="67" height="21" fill="white"/>
</clipPath>
</defs>
</svg>
