<svg width="89" height="18" viewBox="0 0 89 18" fill="none" xmlns="http://www.w3.org/2000/svg">
<g clip-path="url(#clip0_1109_981)">
<mask id="mask0_1109_981" style="mask-type:luminance" maskUnits="userSpaceOnUse" x="0" y="0" width="13" height="18">
<path d="M12.0704 0H0.116699V17.5784H12.0704V0Z" fill="white"/>
</mask>
<g mask="url(#mask0_1109_981)">
<path d="M5.46805 14.1536C2.51886 14.1536 0.116699 11.7663 0.116699 8.82944C0.116699 5.89259 2.51886 3.50049 5.46805 3.50049C8.41724 3.50049 10.8194 5.89259 10.8194 8.82944C10.8194 11.7663 8.422 14.1584 5.46805 14.1584V14.1536ZM5.46805 4.57101C3.11346 4.57101 1.19648 6.47996 1.19648 8.8247C1.19648 11.1694 3.11346 13.0784 5.46805 13.0784C7.82265 13.0784 9.73962 11.1694 9.73962 8.8247C9.73962 6.47996 7.82265 4.57101 5.46805 4.57101Z" fill="#B90568"/>
<path d="M5.46805 11.9557C2.51886 11.9557 0.116699 9.56364 0.116699 6.6268C0.116699 3.68996 2.51886 1.29785 5.46805 1.29785C8.41724 1.29785 10.8194 3.68996 10.8194 6.6268C10.8194 9.56364 8.422 11.9557 5.46805 11.9557ZM5.46805 2.37311C3.11346 2.37311 1.19648 4.28206 1.19648 6.6268C1.19648 8.97154 3.11346 10.8805 5.46805 10.8805C7.82265 10.8805 9.73962 8.97154 9.73962 6.6268C9.73962 4.28206 7.82265 2.37311 5.46805 2.37311Z" fill="#B90568"/>
<path d="M6.00557 13.7747H4.92578V17.5783H6.00557V13.7747Z" fill="#B90568"/>
<path d="M7.37558 14.9163H3.55591V15.9915H7.37558V14.9163Z" fill="#B90568"/>
<path d="M10.9273 0.353334L8.1792 2.99512L8.92914 3.76873L11.6773 1.12694L10.9273 0.353334Z" fill="#B90568"/>
</g>
<mask id="mask1_1109_981" style="mask-type:luminance" maskUnits="userSpaceOnUse" x="0" y="0" width="13" height="18">
<path d="M12.0704 0H0.116699V17.5784H12.0704V0Z" fill="white"/>
</mask>
<g mask="url(#mask1_1109_981)">
<path d="M9.25439 0.383684L11.59 2.79L12.0704 0L9.25439 0.383684Z" fill="#B90568"/>
</g>
<mask id="mask2_1109_981" style="mask-type:luminance" maskUnits="userSpaceOnUse" x="3" y="5" width="4" height="6">
<path d="M6.91893 5.02576H3.69385V10.6863H6.91893V5.02576Z" fill="white"/>
</mask>
<g mask="url(#mask2_1109_981)">
<path d="M4.6024 10.6626C4.6024 10.6626 4.55959 10.6484 4.55484 10.6436L4.54057 10.6294C4.54057 10.6294 4.52154 10.6152 4.51678 10.601C4.51203 10.5773 4.5263 10.5584 4.53105 10.5489C4.54532 10.5299 4.56435 10.511 4.57862 10.4968C4.58338 10.492 4.58813 10.4873 4.59765 10.4778C4.59765 10.4778 4.58813 10.4778 4.58338 10.4684C4.56435 10.4684 4.55008 10.4636 4.54057 10.4541C4.5263 10.4447 4.50251 10.421 4.51678 10.3784C4.51678 10.3689 4.51678 10.3641 4.51678 10.3547V10.3357C4.51678 10.3073 4.53105 10.2836 4.54532 10.2647C4.54532 10.2647 4.55008 10.2505 4.55484 10.241C4.55959 10.2363 4.56435 10.2315 4.57386 10.2268C4.57386 10.2268 4.57862 10.2173 4.58338 10.2126C4.58338 10.2126 4.58338 10.2078 4.58813 10.2031C4.58813 10.2031 4.58813 10.1984 4.58813 10.1936C4.57862 10.1747 4.57386 10.1557 4.57386 10.132C4.57386 10.1084 4.58813 10.0989 4.59765 10.0941C4.61192 10.0799 4.63094 10.0752 4.64997 10.0799C4.65473 10.0705 4.65949 10.0657 4.669 10.061C4.669 10.061 4.67376 10.061 4.67851 10.0563C4.68803 10.0468 4.69754 10.042 4.70705 10.042C4.70705 10.0278 4.70705 10.0136 4.70705 9.99941V9.9852C4.70705 9.9852 4.71657 9.98046 4.72132 9.97573C4.72132 9.95678 4.73084 9.94257 4.74511 9.9331C4.75462 9.92362 4.76889 9.91415 4.7784 9.89994C4.7784 9.89046 4.78792 9.88099 4.79267 9.87625V9.86204L4.78316 9.85257C4.76889 9.81941 4.78316 9.77204 4.81646 9.7531C4.83549 9.73889 4.84024 9.73415 4.845 9.72468C4.84976 9.71046 4.85927 9.70099 4.86878 9.69625C4.85927 9.69625 4.84024 9.68204 4.83549 9.6631C4.82597 9.63941 4.83549 9.61573 4.84976 9.60625C4.84976 9.59678 4.85451 9.59204 4.85927 9.58731C4.84976 9.5731 4.84024 9.55889 4.83549 9.53994C4.83549 9.51625 4.82597 9.49257 4.8117 9.46415C4.8117 9.45468 4.80694 9.44994 4.80219 9.4452C4.79267 9.41678 4.80219 9.39783 4.80694 9.37415C4.81646 9.3552 4.81646 9.34573 4.80694 9.33152C4.78316 9.32204 4.77365 9.30783 4.76413 9.29362C4.76413 9.29362 4.76413 9.28889 4.75938 9.28415C4.74986 9.26994 4.74511 9.26994 4.74035 9.26994C4.7023 9.26994 4.669 9.22257 4.66424 9.18941C4.66424 9.17994 4.66424 9.1752 4.66424 9.17046C4.66424 9.17046 4.66424 9.16573 4.66424 9.16099C4.66424 9.16099 4.66424 9.15152 4.66424 9.14678C4.66424 9.14678 4.66424 9.13731 4.66424 9.13257C4.65949 9.11836 4.64046 9.08046 4.66424 9.03783C4.66424 9.0331 4.669 9.02362 4.67851 9.01415C4.69754 8.99994 4.71181 8.98573 4.73084 8.97152C4.74035 8.96204 4.75462 8.94783 4.76413 8.93836C4.79267 8.91468 4.82597 8.9052 4.87354 8.90994C4.88781 8.90994 4.89732 8.91941 4.90684 8.92415C4.90684 8.92415 4.91635 8.92415 4.92111 8.92415C4.91635 8.91468 4.90684 8.9052 4.89732 8.89573C4.85451 8.85783 4.85451 8.82468 4.86403 8.80099C4.86878 8.78678 4.8783 8.77731 4.88781 8.77257H4.88305C4.88305 8.77257 4.87354 8.75362 4.86878 8.74889C4.86878 8.74889 4.86403 8.74889 4.85927 8.74415C4.85451 8.74415 4.84976 8.74415 4.845 8.74415C4.84024 8.74415 4.83549 8.74415 4.82597 8.74415C4.7784 8.73941 4.74986 8.71099 4.75462 8.66836C4.75462 8.63994 4.76889 8.62099 4.78792 8.60678C4.78316 8.60204 4.77365 8.59257 4.76889 8.58783C4.76413 8.5831 4.75938 8.57836 4.75462 8.57362C4.74511 8.56415 4.74511 8.54994 4.74035 8.5452C4.74035 8.5452 4.74035 8.53573 4.73559 8.52625V8.51678H4.72608C4.72608 8.52625 4.72132 8.53099 4.71657 8.53573C4.7023 8.55468 4.68327 8.54994 4.67376 8.54994C4.64521 8.54994 4.61192 8.5452 4.58338 8.52152C4.57862 8.51678 4.56911 8.51204 4.55959 8.50731C4.55008 8.50257 4.54057 8.49783 4.53581 8.4931H4.51678C4.51678 8.4931 4.49776 8.47889 4.493 8.46941H4.48824C4.48824 8.46941 4.46446 8.43625 4.46446 8.43152C4.46446 8.43152 4.46446 8.42678 4.46446 8.42204C4.4597 8.44573 4.45494 8.47415 4.42165 8.4931V8.50257H4.39786C4.39786 8.50257 4.38835 8.51204 4.38359 8.51204C4.35505 8.53099 4.317 8.55468 4.26943 8.5452C4.25992 8.5452 4.2504 8.5452 4.24565 8.53573C4.22186 8.52152 4.21711 8.50731 4.21711 8.4931C4.21711 8.48362 4.21711 8.46941 4.23138 8.4552C4.21235 8.44573 4.19808 8.43625 4.18857 8.42678C4.18857 8.42678 4.18381 8.42678 4.17905 8.42678H4.16478C4.16478 8.42678 4.141 8.42678 4.12673 8.42678C4.11246 8.42204 4.07916 8.41257 4.0744 8.36994C4.0744 8.35573 4.0744 8.34152 4.07916 8.33204C4.06489 8.33204 4.04586 8.33204 4.03159 8.33204C4.00781 8.34152 3.97927 8.33204 3.96024 8.31783C3.95073 8.31783 3.94597 8.3131 3.94121 8.30836C3.92694 8.29889 3.90792 8.28941 3.90792 8.26099C3.8984 8.23731 3.91743 8.21836 3.92694 8.20889C3.93646 8.19468 3.95073 8.18046 3.96024 8.17099C3.965 8.16152 3.97451 8.15204 3.98878 8.14257C3.98878 8.13783 3.9983 8.1331 4.00305 8.12836C4.00305 8.11889 4.01257 8.10941 4.01732 8.10468C4.02684 8.08573 4.03635 8.07152 4.04111 8.05257C4.04111 8.04783 4.04111 8.03836 4.04586 8.03362C4.04586 8.02889 4.04586 8.02415 4.05062 8.01941C4.05538 8.0052 4.06013 7.99573 4.06489 7.98625C4.06489 7.97678 4.0744 7.9531 4.09819 7.93889C4.09819 7.93415 4.10294 7.92941 4.10294 7.92467C4.10294 7.90099 4.11246 7.88678 4.12197 7.87731C4.12197 7.87731 4.13149 7.85362 4.141 7.84889C4.141 7.84889 4.13624 7.83941 4.13149 7.83468C4.12197 7.81573 4.11722 7.79204 4.12197 7.76836V7.75889C4.12197 7.75889 4.14576 7.71625 4.16003 7.69257L4.1743 7.66889C4.1743 7.66889 4.18857 7.6452 4.18857 7.63573V7.62152C4.20284 7.56941 4.23138 7.53152 4.25516 7.5031L4.26467 7.49362C4.26467 7.49362 4.26467 7.48415 4.26467 7.47941V7.46994C4.26467 7.46046 4.25992 7.45573 4.25516 7.45099C4.2504 7.43678 4.24089 7.40836 4.2504 7.37994C4.23138 7.37994 4.20284 7.37994 4.17905 7.36099C4.1743 7.36099 4.16478 7.35152 4.15527 7.34678C4.15527 7.34678 4.141 7.33731 4.13149 7.33731C4.09819 7.33257 4.05538 7.3231 4.02208 7.28994H4.00781C3.98403 7.29941 3.96024 7.30889 3.9317 7.31362C3.89365 7.31836 3.87462 7.30415 3.86511 7.29941C3.85559 7.28994 3.84132 7.26625 3.85084 7.22836V7.21889C3.85084 7.21889 3.85084 7.18099 3.84132 7.16678L3.81754 7.1431C3.81754 7.1431 3.80327 7.13836 3.79376 7.13362C3.77949 7.12889 3.7557 7.11468 3.74619 7.07678C3.74619 7.07204 3.73667 7.06731 3.73667 7.06257C3.72716 7.0531 3.71765 7.04362 3.71289 7.02941V7.0152V6.97731C3.71289 6.9631 3.71289 6.95836 3.71289 6.94889C3.7224 6.92046 3.74619 6.90625 3.76997 6.90625C3.79376 6.90625 3.81278 6.89204 3.83181 6.88257C3.83657 6.88257 3.84608 6.87783 3.85084 6.8731C3.86035 6.86362 3.87462 6.85415 3.88413 6.85415C3.88889 6.85415 3.89365 6.84941 3.8984 6.84468H3.90792C3.90792 6.84468 3.91743 6.82573 3.92694 6.82099C3.93646 6.81152 3.94597 6.80678 3.95073 6.80204C3.96024 6.79257 3.96976 6.7831 3.97927 6.77836C3.98403 6.77836 3.99354 6.76889 4.00305 6.76415C4.01257 6.74994 4.03159 6.7452 4.04586 6.74046C4.04586 6.74046 4.04586 6.74046 4.05538 6.74046C4.05538 6.74046 4.07916 6.71678 4.09343 6.70731C4.1077 6.69783 4.12197 6.6931 4.13149 6.68836C4.13624 6.68836 4.14576 6.68836 4.15051 6.67889H4.16003C4.16003 6.67889 4.16954 6.66941 4.1743 6.66468C4.22186 6.62204 4.27419 6.57468 4.3503 6.56994C4.3503 6.56994 4.35505 6.56994 4.35981 6.5652C4.36457 6.5652 4.37408 6.55573 4.38359 6.55099C4.39311 6.54152 4.40262 6.53678 4.40738 6.53204C4.42165 6.52257 4.43592 6.5131 4.44543 6.50362C4.46446 6.48468 4.48824 6.47046 4.51678 6.46099C4.56911 6.43257 4.60716 6.3852 4.64997 6.33783L4.669 6.31415C4.669 6.31415 4.7023 6.27625 4.72132 6.26204C4.73559 6.24783 4.74986 6.22889 4.76889 6.21468V6.2052C4.78316 6.17678 4.80219 6.14362 4.83549 6.11994C4.84024 6.10099 4.84976 6.07731 4.86403 6.05836C4.86403 6.04889 4.86878 6.03941 4.87354 6.03468C4.87354 6.03468 4.87354 6.0252 4.8783 6.02046V6.01099C4.8783 6.01099 4.88305 5.99204 4.89257 5.97783C4.89257 5.9731 4.89732 5.96362 4.90208 5.96362C4.91159 5.95415 4.92111 5.93994 4.93538 5.9352C4.94489 5.92573 4.95916 5.91625 4.97819 5.91625C4.9877 5.91625 5.00197 5.91152 5.01149 5.90204C5.04003 5.87836 5.07332 5.87836 5.10186 5.8831H5.11613C5.15894 5.90678 5.19224 5.93994 5.20651 5.98731C5.21127 6.00625 5.21603 6.01099 5.23505 6.01573C5.23981 6.01573 5.25408 6.01573 5.26359 6.02994C5.27311 6.02994 5.28262 6.02994 5.28738 6.03468C5.31116 6.03941 5.34446 6.04889 5.36824 6.0631C5.40154 6.0631 5.43484 6.07257 5.46338 6.09625C5.46338 6.09625 5.46813 6.09625 5.47289 6.09625C5.50619 6.08678 5.549 6.08204 5.59181 6.09152C5.60132 6.09152 5.61559 6.09152 5.62511 6.10573C5.63462 6.10573 5.64413 6.1152 5.65365 6.11994C5.6584 6.11994 5.66792 6.12468 5.67267 6.12941H5.68219C5.68219 6.12941 5.69646 6.10099 5.70597 6.09152C5.70597 6.08678 5.71549 6.07257 5.725 6.06783C5.725 6.06783 5.72976 6.0631 5.73451 6.05836C5.73451 6.04889 5.73451 6.04415 5.73451 6.03468C5.73451 6.02994 5.72976 6.02046 5.725 6.01099C5.725 6.00625 5.72024 6.00152 5.71549 5.99678C5.71549 5.99678 5.71549 5.99678 5.71073 5.99204L5.70121 5.98257C5.70121 5.98257 5.68219 5.96362 5.67267 5.95415C5.66316 5.94468 5.65365 5.93046 5.64889 5.91625C5.64413 5.90678 5.63462 5.89257 5.63462 5.87362C5.62035 5.84994 5.62511 5.82152 5.62511 5.80731V5.7931C5.62511 5.7931 5.62986 5.74099 5.66792 5.72204C5.67743 5.71731 5.70597 5.69836 5.74403 5.71257C5.75354 5.71257 5.76781 5.71257 5.78208 5.71257C5.81538 5.71257 5.84392 5.71257 5.87246 5.72204C5.88673 5.72204 5.90576 5.72204 5.92954 5.71257C5.95808 5.69836 5.98662 5.69836 6.01516 5.70783C6.0437 5.71257 6.06273 5.70783 6.09127 5.66994C6.10078 5.66046 6.1103 5.64625 6.11981 5.63678L6.14359 5.60836H6.15311C6.15311 5.60836 6.17213 5.58941 6.18165 5.56573V5.55625C6.19592 5.53257 6.2197 5.5231 6.23397 5.51362C6.25776 5.50415 6.26251 5.49941 6.26727 5.48994C6.27203 5.47573 6.28154 5.47099 6.29105 5.46625C6.31484 5.44731 6.33386 5.43783 6.35289 5.4331C6.3624 5.42362 6.37192 5.41415 6.38143 5.40941H6.39094C6.39094 5.40941 6.40521 5.3952 6.41473 5.37625V5.36204C6.41473 5.36204 6.43851 5.33836 6.44803 5.32889C6.45278 5.32415 6.45754 5.31468 6.4623 5.30994C6.4623 5.30046 6.46705 5.29099 6.46705 5.27678C6.46705 5.25783 6.46705 5.23889 6.48132 5.21994C6.48132 5.2152 6.48608 5.20573 6.49084 5.19625C6.49559 5.17731 6.50035 5.15836 6.51938 5.13941C6.51938 5.13468 6.52889 5.1252 6.52889 5.12046C6.53365 5.10625 6.54316 5.09204 6.55743 5.07783L6.56694 5.06836H6.605C6.6383 5.0731 6.66208 5.08257 6.68586 5.08731C6.69538 5.08731 6.72867 5.09204 6.74294 5.1252C6.75722 5.15836 6.74294 5.18678 6.73343 5.19625C6.76197 5.21994 6.78576 5.2531 6.79527 5.28625C6.80478 5.29573 6.80954 5.30046 6.8143 5.3052C6.82857 5.32415 6.85235 5.35257 6.84284 5.38573C6.84284 5.38573 6.88089 5.41889 6.8904 5.44257V5.45204V5.4852V5.49468C6.8904 5.49468 6.86186 5.51836 6.85235 5.5231C6.85235 5.5231 6.84284 5.5231 6.84284 5.52783C6.84284 5.52783 6.84284 5.52783 6.83332 5.53731V5.54678C6.80478 5.57994 6.77624 5.6131 6.7477 5.63678C6.74294 5.63678 6.73819 5.64625 6.73343 5.65099C6.72867 5.66046 6.71916 5.6652 6.7144 5.6652C6.70965 5.67468 6.70013 5.67941 6.69062 5.68415C6.69062 5.68415 6.65257 5.71731 6.62878 5.73152C6.61451 5.74099 6.605 5.75994 6.59549 5.78362C6.59073 5.80257 6.58121 5.81678 6.57646 5.83573C6.56694 5.86415 6.55267 5.89257 6.54792 5.92099C6.54316 5.93994 6.52889 5.95415 6.51462 5.96836C6.48132 5.99204 6.47181 6.02046 6.48608 6.0631C6.49084 6.08678 6.50035 6.11046 6.50986 6.12941C6.52889 6.15783 6.51938 6.19099 6.51462 6.21468C6.51462 6.23362 6.51462 6.24783 6.51462 6.25731C6.51462 6.26678 6.51462 6.28099 6.51462 6.29046C6.51462 6.32836 6.51462 6.37099 6.50986 6.40889V6.45625C6.50986 6.45625 6.50035 6.50836 6.45278 6.51783H6.43851C6.43851 6.51783 6.40997 6.52731 6.3957 6.53204C6.37667 6.53678 6.3624 6.54625 6.34338 6.5652C6.33862 6.57468 6.32911 6.57941 6.32435 6.58415C6.29581 6.60783 6.26727 6.63625 6.23397 6.67415C6.2197 6.70257 6.20543 6.73573 6.16738 6.75468C6.15786 6.76415 6.15311 6.76889 6.14359 6.77362C6.13408 6.78783 6.11981 6.79731 6.11505 6.80204H6.10554C6.10554 6.80204 6.08176 6.83046 6.06749 6.8352C6.06749 6.8352 6.06273 6.83994 6.05797 6.84468C6.04846 6.86362 6.03894 6.87783 6.02943 6.89204L6.01992 6.90152C6.01992 6.90152 5.99613 6.9252 5.98662 6.92994C5.96284 6.95362 5.93905 6.9631 5.91051 6.97257H5.901C5.901 6.97257 5.88673 6.98678 5.87721 6.99152C5.86294 7.00099 5.84392 7.01046 5.82013 7.01994C5.81062 7.01994 5.79635 7.02941 5.78684 7.03889C5.78208 7.04362 5.77257 7.04836 5.76781 7.0531C5.7583 7.06257 5.74403 7.07204 5.72976 7.07678C5.725 7.08625 5.71549 7.08625 5.71549 7.09099C5.68694 7.11941 5.6584 7.12415 5.62986 7.12415C5.60608 7.12415 5.58705 7.13362 5.57754 7.14783C5.56327 7.16204 5.549 7.17152 5.52997 7.17625C5.52046 7.18099 5.51094 7.18573 5.50143 7.19046C5.50143 7.19046 5.4824 7.19994 5.47765 7.20468C5.45386 7.21415 5.43959 7.2331 5.42532 7.26152C5.41105 7.2852 5.41105 7.30415 5.41581 7.34204C5.41581 7.36099 5.41581 7.37994 5.41581 7.39415V7.42257L5.4063 7.43204C5.4063 7.44625 5.4063 7.46046 5.39203 7.47468C5.39203 7.47468 5.39203 7.48415 5.38727 7.48889C5.38727 7.49836 5.38251 7.5031 5.373 7.51257C5.373 7.52678 5.37776 7.54573 5.4063 7.56941L5.41581 7.58362C5.41581 7.58362 5.44435 7.61204 5.45862 7.62625C5.46813 7.62625 5.47289 7.62625 5.47765 7.63573C5.49667 7.63573 5.50619 7.64994 5.5157 7.65468C5.54424 7.67362 5.56327 7.69731 5.57754 7.71625C5.5823 7.72099 5.58705 7.73046 5.59181 7.7352H5.60132C5.60132 7.7352 5.62035 7.74467 5.62986 7.75889L5.64889 7.7731C5.64889 7.7731 5.69646 7.79204 5.71549 7.82046C5.72976 7.83468 5.73927 7.84889 5.75354 7.86783C5.75354 7.87257 5.76305 7.87731 5.77732 7.87731C5.78684 7.87731 5.79159 7.87731 5.80111 7.88678C5.82013 7.88678 5.82965 7.90573 5.83916 7.9152H5.84392C5.84392 7.9152 5.8677 7.9531 5.8677 7.96257L5.87721 7.99573C5.87721 7.99573 5.89149 8.00994 5.89149 8.02415C5.89149 8.03836 5.89149 8.04783 5.89149 8.05257V8.06204C5.89149 8.06204 5.89148 8.06678 5.89624 8.07152C5.89624 8.07625 5.90576 8.08099 5.90576 8.08573C5.91051 8.09046 5.92478 8.10468 5.92003 8.12836C5.92003 8.13783 5.92954 8.15678 5.93905 8.17573V8.1852C5.93905 8.1852 5.95808 8.21362 5.96284 8.22783C5.97711 8.25625 5.98662 8.28468 6.00089 8.30836C6.01516 8.31783 6.01992 8.34152 6.02467 8.35573C6.02467 8.36046 6.02467 8.36994 6.02943 8.37468C6.02943 8.37941 6.02943 8.38889 6.03419 8.39362C6.0437 8.4031 6.04846 8.41257 6.04846 8.42204C6.04846 8.42204 6.04846 8.42678 6.04846 8.43152C6.08176 8.45994 6.09603 8.48836 6.11505 8.51204C6.12932 8.53099 6.13884 8.54994 6.15311 8.56415L6.17689 8.59257C6.17689 8.59257 6.19116 8.61152 6.19592 8.62573H6.20543L6.21494 8.63994C6.24348 8.65415 6.253 8.67783 6.25776 8.69204C6.25776 8.69204 6.25776 8.69678 6.25776 8.70152V8.71099C6.25776 8.71099 6.27203 8.73941 6.27678 8.75362C6.27678 8.7631 6.27678 8.77257 6.28154 8.77731C6.29105 8.78678 6.29581 8.79625 6.29581 8.80573C6.31484 8.83889 6.32435 8.87204 6.33386 8.9052C6.33386 8.91467 6.33862 8.92415 6.34338 8.93362H6.34813V8.94783C6.35289 8.96204 6.35289 8.97625 6.35289 8.99046V8.99994C6.35289 9.01415 6.35289 9.02362 6.35289 9.03783C6.35289 9.04731 6.35289 9.05204 6.35289 9.06152C6.3624 9.07099 6.36716 9.08046 6.37192 9.09941C6.38619 9.11836 6.38619 9.15152 6.38619 9.1752C6.38619 9.17994 6.38619 9.18468 6.39094 9.18941C6.41473 9.23678 6.39094 9.27941 6.38143 9.29362V9.30783C6.38143 9.34099 6.38619 9.37889 6.38143 9.41204C6.38143 9.42152 6.38143 9.43099 6.38143 9.44046C6.38143 9.45941 6.38143 9.47836 6.38143 9.49731C6.38143 9.50204 6.38143 9.50678 6.38143 9.51152C6.38143 9.5352 6.38143 9.54468 6.40522 9.55415C6.41473 9.55415 6.43376 9.55415 6.44327 9.5731C6.44327 9.5731 6.48608 9.60152 6.47657 9.64415C6.47657 9.66783 6.46705 9.68678 6.45754 9.70573C6.45278 9.71994 6.44803 9.73415 6.44327 9.74836C6.44327 9.75783 6.44327 9.76257 6.44327 9.76731C6.44327 9.77678 6.44327 9.78625 6.43376 9.80047C6.43376 9.80994 6.42424 9.81941 6.41949 9.82889V9.83836C6.41949 9.83836 6.40997 9.85257 6.40997 9.85731V9.86678C6.40997 9.86678 6.40997 9.88573 6.40522 9.8952V9.90468C6.40522 9.90468 6.38619 9.9331 6.37667 9.93783C6.37667 9.95678 6.36716 9.98046 6.3624 9.99941C6.35765 10.0136 6.34813 10.0278 6.33386 10.0373C6.33386 10.0373 6.32435 10.0468 6.31959 10.0468C6.31959 10.0468 6.31484 10.0563 6.31008 10.0563C6.31008 10.0563 6.30057 10.0799 6.29581 10.0894L6.2863 10.1178C6.2863 10.1178 6.26727 10.1699 6.22446 10.1794L6.20543 10.1889C6.20543 10.1889 6.18165 10.2078 6.17213 10.2173C6.16262 10.2268 6.15786 10.2315 6.14835 10.2315C6.13884 10.2363 6.12932 10.241 6.12457 10.241C6.12457 10.241 6.11981 10.241 6.11505 10.241C6.10078 10.2505 6.08651 10.2552 6.077 10.2552H6.06273C6.06273 10.2552 6.04846 10.2552 6.0437 10.2552C6.03894 10.2552 6.03419 10.2552 6.02467 10.2552C6.02467 10.2741 6.02467 10.2884 6.01516 10.2978V10.3073L6.00565 10.3168C6.00565 10.3263 5.99613 10.3357 5.98186 10.3452H5.96759C5.96759 10.3452 5.95808 10.3499 5.95332 10.3499C5.95332 10.3499 5.95332 10.3499 5.94857 10.3499C5.94857 10.3736 5.92003 10.3831 5.91051 10.3831H5.901C5.901 10.3831 5.89624 10.3878 5.89149 10.3878C5.88197 10.3878 5.8677 10.3973 5.84867 10.3973C5.8344 10.3973 5.82013 10.3926 5.81062 10.3878C5.80111 10.3878 5.78684 10.3831 5.77732 10.3831H5.76781H5.7583L5.72976 10.3499C5.72976 10.3499 5.71549 10.3499 5.69646 10.3499L5.67743 10.3168L5.68694 10.3499C5.68694 10.3499 5.67743 10.3641 5.67267 10.3736C5.67267 10.3831 5.66792 10.3878 5.66792 10.3926V10.402C5.66792 10.402 5.65365 10.4115 5.64889 10.4115C5.64889 10.4115 5.64889 10.4115 5.64413 10.4163C5.63938 10.4257 5.62035 10.4352 5.59657 10.4399C5.57278 10.4399 5.55376 10.4399 5.53473 10.421C5.53473 10.421 5.52997 10.421 5.52521 10.421C5.52521 10.421 5.52521 10.421 5.52046 10.421C5.52046 10.421 5.52046 10.421 5.52046 10.4257C5.51094 10.4447 5.49667 10.4541 5.47289 10.4541C5.46338 10.4541 5.45386 10.4541 5.44435 10.4636L5.43484 10.4731C5.43484 10.4731 5.40154 10.4731 5.38727 10.4731H5.373C5.36824 10.492 5.35397 10.5015 5.33494 10.5063H5.32543C5.32543 10.5063 5.32067 10.5157 5.31592 10.5157C5.31116 10.5252 5.3064 10.5299 5.29689 10.5347C5.29689 10.5347 5.29689 10.5394 5.29213 10.5441C5.28262 10.5584 5.26835 10.5631 5.26359 10.5678H5.25408C5.21127 10.5773 5.17322 10.5678 5.13516 10.5441C5.12565 10.5631 5.11138 10.5726 5.09235 10.5773C5.08284 10.5773 5.08284 10.5773 5.07332 10.601C5.06381 10.6294 5.0543 10.6531 4.99722 10.6531C4.98294 10.6531 4.96392 10.6531 4.94965 10.6578C4.93538 10.6578 4.92586 10.6578 4.91159 10.6626C4.89257 10.6626 4.86403 10.6673 4.84024 10.6626C4.81646 10.6626 4.80219 10.6436 4.79267 10.6341C4.79267 10.6341 4.78792 10.6294 4.78316 10.6247C4.78316 10.6247 4.77365 10.6247 4.76889 10.6247C4.75462 10.6341 4.74035 10.6389 4.73084 10.6389H4.71181C4.71181 10.6389 4.67376 10.6484 4.65473 10.6531C4.65473 10.6531 4.64521 10.6626 4.6357 10.6673C4.6357 10.6673 4.62143 10.691 4.59289 10.691C4.59289 10.691 4.59289 10.691 4.58813 10.691L4.6024 10.6626ZM4.59765 10.582C4.59765 10.582 4.59765 10.582 4.6024 10.5868C4.6024 10.5868 4.62619 10.5631 4.64997 10.5584C4.669 10.5584 4.69278 10.5489 4.71181 10.5489H4.73559V10.5394H4.75938C4.75938 10.5394 4.76889 10.5347 4.76889 10.5299C4.78316 10.4968 4.81646 10.5063 4.82122 10.511C4.84976 10.5205 4.85451 10.5441 4.85451 10.5584C4.85451 10.5584 4.85451 10.5584 4.85927 10.5631C4.85927 10.5631 4.86878 10.5726 4.87354 10.5726C4.88781 10.5726 4.90684 10.5726 4.92586 10.5726C4.93538 10.5726 4.94965 10.5726 4.95916 10.5678C4.97819 10.5678 5.00197 10.5584 5.02576 10.5631C5.03527 10.5394 5.04954 10.4968 5.09711 10.4873L5.10662 10.4636H5.11613L5.12089 10.4447C5.1304 10.4305 5.14943 10.4115 5.18273 10.402L5.22078 10.3926V10.4352C5.22078 10.4352 5.22078 10.4636 5.21603 10.4731C5.2303 10.4731 5.24457 10.4826 5.25884 10.4778C5.25884 10.4778 5.26359 10.4684 5.26835 10.4684V10.4589H5.28262V10.4447H5.29689C5.3064 10.4399 5.31592 10.4305 5.32543 10.4257C5.30165 10.3878 5.31116 10.3594 5.33019 10.3405C5.34446 10.331 5.35873 10.3168 5.373 10.3073L5.41105 10.2836L5.43008 10.3263C5.43959 10.3547 5.43008 10.3736 5.43008 10.3878C5.43008 10.3878 5.43484 10.3878 5.43959 10.3878C5.45386 10.3784 5.46813 10.3736 5.48716 10.3689V10.3547C5.48716 10.3405 5.48716 10.3168 5.50619 10.2978V10.2741H5.53473H5.54424C5.549 10.2694 5.55851 10.2647 5.57278 10.2647H5.62986L5.60608 10.312H5.64413C5.64889 10.2978 5.6584 10.2884 5.67267 10.2789C5.67267 10.2789 5.68694 10.2741 5.6917 10.2694H5.70121C5.72976 10.2599 5.78208 10.2457 5.81538 10.2931C5.82489 10.2931 5.83916 10.2931 5.85343 10.3026C5.86294 10.3026 5.87246 10.3073 5.88197 10.3073C5.88197 10.3073 5.88197 10.3073 5.88673 10.3073C5.89149 10.3073 5.89624 10.3073 5.901 10.3026C5.901 10.2931 5.91051 10.2836 5.92003 10.2789L5.93905 10.2599H5.95808C5.92954 10.2599 5.91051 10.2505 5.901 10.2315C5.89149 10.2173 5.89149 10.2173 5.88673 10.2173H5.8344L5.85819 10.1652C5.87246 10.132 5.90576 10.1273 5.92003 10.1226H5.92954H5.94381C5.94381 10.1226 5.94381 10.1226 5.94857 10.1226L5.97235 10.1036H6.0104L6.03419 10.1557C6.03894 10.1557 6.0437 10.1557 6.04846 10.1557C6.05322 10.1557 6.06273 10.1557 6.06749 10.1557L6.08651 10.1463C6.08651 10.1463 6.10078 10.1415 6.1103 10.1368C6.11505 10.1368 6.11981 10.1368 6.12457 10.132L6.13884 10.1178C6.13884 10.1178 6.16262 10.0989 6.17213 10.0941L6.1864 10.0847C6.1864 10.0847 6.21494 10.0705 6.22922 10.0752C6.22446 10.0752 6.22922 10.0657 6.22922 10.061L6.23873 10.0326C6.23873 10.0326 6.24824 10.0041 6.25776 9.98994V9.98046L6.27203 9.97573C6.27203 9.97573 6.2863 9.95678 6.30057 9.95204L6.31008 9.94731C6.31008 9.93783 6.31484 9.9331 6.31959 9.92362H6.27203L6.35289 9.85257C6.35289 9.85257 6.35289 9.8431 6.35765 9.83362C6.35765 9.82889 6.35765 9.81941 6.35765 9.8052C6.35765 9.79573 6.35765 9.79099 6.36716 9.78152L6.37667 9.7531H6.38619C6.38619 9.7531 6.38619 9.73415 6.38619 9.72468C6.38619 9.7152 6.38619 9.70573 6.39094 9.69625C6.39094 9.68204 6.40046 9.66783 6.40522 9.64889C6.40997 9.63468 6.41473 9.61573 6.41949 9.59678L6.40522 9.58731C6.40522 9.58731 6.40046 9.58731 6.3957 9.58731C6.33862 9.5731 6.31008 9.52573 6.31959 9.46889V9.45941C6.31959 9.4452 6.31959 9.43099 6.31959 9.41204C6.31959 9.40257 6.31959 9.38836 6.31959 9.37889C6.31959 9.34573 6.31959 9.31257 6.31959 9.27941V9.26994C6.31959 9.26994 6.31959 9.24152 6.32911 9.22731C6.34338 9.20836 6.34338 9.19889 6.34338 9.19415C6.34338 9.18941 6.33862 9.17994 6.33386 9.1752H6.32435V9.15152C6.32435 9.13257 6.32435 9.10889 6.31484 9.08994L6.33862 9.05678L6.31008 9.07573L6.29105 9.06625V9.04257C6.29105 9.04257 6.29105 9.01889 6.29105 9.00468C6.29105 8.9952 6.29105 8.98573 6.29105 8.98099L6.13884 9.05678L6.28154 8.91468C6.28154 8.91468 6.28154 8.90047 6.27678 8.89573C6.26727 8.86257 6.25776 8.82941 6.23873 8.80099L6.22922 8.79152V8.76783C6.22922 8.76783 6.2197 8.74889 6.2197 8.73468C6.2197 8.7252 6.2197 8.72046 6.21494 8.72046L6.20543 8.71099V8.69204C6.20543 8.69204 6.20067 8.68257 6.19592 8.68257V8.6731C6.19592 8.6731 6.19116 8.6731 6.1864 8.6731H6.17689L6.17213 8.65889C6.16738 8.65889 6.16262 8.64941 6.15786 8.64468L6.12932 8.6352L6.13884 8.61152L6.11505 8.57836C6.11505 8.57836 6.08651 8.54046 6.07224 8.52152C6.05797 8.49783 6.0437 8.47415 6.01992 8.4552C6.0104 8.45046 6.00089 8.43625 5.99613 8.42678C5.98186 8.40783 5.97711 8.39362 5.97235 8.38415C5.96759 8.36994 5.96284 8.36046 5.96284 8.35573C5.96284 8.34152 5.95332 8.33204 5.94857 8.32731C5.92478 8.29415 5.91527 8.26099 5.901 8.23257C5.89624 8.21836 5.89149 8.20415 5.88197 8.19467V8.1852C5.88197 8.1852 5.85343 8.13783 5.85343 8.10941C5.85343 8.10941 5.85343 8.10941 5.85343 8.10468C5.85343 8.09994 5.84867 8.0952 5.84392 8.0952C5.8344 8.08573 5.82489 8.07625 5.82489 8.05731C5.82489 8.04783 5.82489 8.03836 5.82489 8.03362H5.76305L5.80586 7.98625V7.96257H5.80111C5.80111 7.96257 5.80111 7.95783 5.79635 7.9531C5.79159 7.94836 5.78208 7.93889 5.78208 7.93415C5.77257 7.92468 5.76781 7.92467 5.7583 7.92467C5.73927 7.91994 5.71073 7.91046 5.69646 7.88204C5.68694 7.86783 5.67743 7.85362 5.66316 7.83941C5.65365 7.8252 5.63938 7.82046 5.62035 7.81099H5.60608L5.53949 7.75889C5.52997 7.74941 5.52521 7.73994 5.52046 7.7352C5.50619 7.71625 5.49192 7.70204 5.47765 7.68783H5.46813L5.45862 7.6831L5.43959 7.69731L5.41581 7.65941C5.41581 7.65941 5.373 7.62152 5.35397 7.59783C5.31592 7.5552 5.30165 7.51731 5.3064 7.46994V7.46046L5.31592 7.45099C5.31592 7.45099 5.32067 7.44152 5.32543 7.43678C5.32543 7.42731 5.33494 7.41783 5.3397 7.40836C5.3397 7.39415 5.3397 7.38468 5.34921 7.3752V7.36573C5.34921 7.36573 5.34921 7.34204 5.34921 7.33257C5.34446 7.29941 5.3397 7.25678 5.36349 7.20941C5.38251 7.17625 5.4063 7.13836 5.45386 7.11941V7.10994H5.46813C5.47289 7.10994 5.47765 7.10994 5.4824 7.1052H5.49192H5.50143L5.52046 7.09573C5.52046 7.09573 5.52997 7.09573 5.52997 7.09099C5.56327 7.0531 5.60132 7.04362 5.62986 7.04362C5.64889 7.04362 5.66316 7.04362 5.67267 7.02941L5.70597 7.00099H5.71549C5.71549 7.00099 5.72976 6.99152 5.73927 6.98678C5.74403 6.98678 5.74878 6.97731 5.75354 6.97257C5.76781 6.95836 5.78684 6.94415 5.81062 6.93941C5.82489 6.93941 5.8344 6.92994 5.84867 6.92046C5.85819 6.91573 5.8677 6.91099 5.87721 6.90625H5.88673C5.88673 6.90625 5.92954 6.88257 5.94381 6.86836L5.95332 6.85415H5.96759L5.97711 6.83994C5.98662 6.82573 5.99613 6.81625 6.00089 6.80204V6.79257L6.01516 6.78783C6.01992 6.77836 6.02467 6.77836 6.02467 6.77362L6.03419 6.76415H6.04846C6.04846 6.76415 6.06273 6.7452 6.06749 6.7452C6.06749 6.7452 6.07224 6.7452 6.077 6.73573L6.09603 6.70731H6.10554L6.1103 6.66941L6.13884 6.68362C6.13884 6.68362 6.15786 6.66468 6.16262 6.65046C6.16738 6.64099 6.17213 6.63152 6.17689 6.62678C6.21494 6.58415 6.24824 6.55573 6.28154 6.52731H6.29105C6.31484 6.49415 6.34338 6.47994 6.37192 6.47046C6.38619 6.46573 6.40522 6.46099 6.41949 6.45625H6.43376V6.41362C6.43376 6.37099 6.43376 6.32836 6.43851 6.29046C6.43851 6.28099 6.43851 6.27152 6.43851 6.26204C6.43851 6.2431 6.43851 6.22889 6.43851 6.20994C6.44327 6.18625 6.44327 6.17678 6.43851 6.16731C6.42424 6.14362 6.41473 6.1152 6.40997 6.08204C6.3957 6.01099 6.40997 5.95415 6.46705 5.91625C6.47181 5.91625 6.47181 5.91152 6.47657 5.90678C6.48608 5.87836 6.49559 5.8452 6.50986 5.81678C6.51462 5.80257 6.52413 5.78362 6.52889 5.76941C6.5384 5.73625 6.55267 5.70783 6.58597 5.68415C6.60976 5.66994 6.62403 5.65573 6.6383 5.64152L6.64781 5.62731L6.7144 5.3052V5.5752C6.7144 5.5752 6.7477 5.53731 6.76197 5.51836L6.78576 5.48994C6.78576 5.48994 6.80003 5.47573 6.80954 5.47573C6.80954 5.47099 6.80003 5.46152 6.79051 5.45678L6.76673 5.4331C6.76673 5.4331 6.75721 5.40468 6.76673 5.38573C6.76673 5.38573 6.76673 5.38573 6.75722 5.36678V5.35731C6.75722 5.35731 6.7477 5.35731 6.74294 5.35257C6.73819 5.34783 6.72867 5.33836 6.72392 5.32415C6.7144 5.30046 6.70013 5.27678 6.67635 5.2531C6.65257 5.23415 6.64781 5.20099 6.66208 5.17257C6.66208 5.1631 6.66684 5.1631 6.66684 5.1631C6.64305 5.1631 6.61451 5.15836 6.59549 5.15362C6.59549 5.15362 6.59548 5.1631 6.59073 5.1631C6.58597 5.17257 6.58122 5.18678 6.56694 5.20099C6.56219 5.21046 6.55743 5.21994 6.55267 5.23415C6.55267 5.24836 6.54792 5.25783 6.5384 5.26731C6.5384 5.27678 6.53365 5.28625 6.52889 5.30046C6.52889 5.31941 6.52413 5.33836 6.51462 5.35731C6.50511 5.37152 6.49559 5.38099 6.49084 5.39046C6.48608 5.3952 6.48132 5.40468 6.47657 5.40941V5.41889C6.4623 5.44257 6.44327 5.47573 6.40522 5.4852C6.40046 5.4852 6.3957 5.49468 6.39094 5.49941V5.50889H6.37192C6.35289 5.51362 6.33862 5.51836 6.33386 5.52783C6.33386 5.52783 6.32435 5.53257 6.32435 5.53731C6.31008 5.56573 6.28154 5.57994 6.26251 5.58941C6.253 5.59415 6.24349 5.59889 6.24349 5.59889V5.60836C6.24349 5.60836 6.21494 5.66046 6.18165 5.67941L6.17213 5.69362C6.17213 5.69362 6.15311 5.71731 6.14359 5.73152C6.12932 5.75046 6.077 5.81204 5.99138 5.7931C5.97711 5.7931 5.96759 5.7931 5.95332 5.7931C5.92478 5.80731 5.89149 5.81678 5.85343 5.80731C5.82965 5.80257 5.81062 5.79783 5.79159 5.79783C5.77257 5.79783 5.74878 5.80257 5.72024 5.79783C5.72024 5.79783 5.71073 5.79783 5.69646 5.80257C5.69646 5.80257 5.69646 5.81204 5.69646 5.81678C5.69646 5.82152 5.69646 5.82625 5.69646 5.83099C5.69646 5.84046 5.69646 5.8452 5.69646 5.84994L5.72024 5.85941L5.70121 5.89257L5.67743 5.91152H5.71073C5.71073 5.91152 5.71073 5.91152 5.71549 5.92099C5.725 5.93046 5.73451 5.93994 5.74403 5.94941L5.75354 5.95889C5.75354 5.95889 5.77732 5.98731 5.77732 5.99204L5.78684 6.01099V6.02994C5.80111 6.0631 5.80111 6.09152 5.78684 6.11994L5.77257 6.14836H5.76305L5.74878 6.16731C5.73927 6.17204 5.73927 6.18152 5.73451 6.18625L5.725 6.20046C5.69646 6.23836 5.67267 6.23362 5.63462 6.21941C5.62511 6.21941 5.61559 6.20994 5.60608 6.2052C5.59657 6.20046 5.58705 6.19573 5.5823 6.19573H5.55376V6.18152C5.52522 6.18152 5.49667 6.18152 5.47289 6.19099C5.44911 6.19573 5.42532 6.19099 5.4063 6.17678C5.39203 6.16731 5.37776 6.16257 5.35397 6.16257H5.34446C5.34446 6.16257 5.32543 6.15783 5.31116 6.14836C5.29689 6.14362 5.27786 6.13889 5.25408 6.12941C5.24932 6.12941 5.23981 6.12941 5.23505 6.12468H5.22554L5.20176 6.11046C5.15894 6.09625 5.13516 6.07257 5.12089 6.03468C5.11613 6.01573 5.10186 5.99204 5.07332 5.97783C5.04954 5.97783 5.04478 5.97783 5.03527 5.98731C5.01624 6.00152 4.99246 6.01099 4.96867 6.01099L4.95916 6.01573C4.9544 6.01573 4.94965 6.0252 4.94489 6.02994C4.94489 6.02994 4.94489 6.03941 4.93538 6.04415C4.93538 6.04415 4.93538 6.04415 4.93538 6.04889C4.93538 6.05362 4.93538 6.0631 4.93538 6.06783C4.93538 6.07257 4.93538 6.07731 4.93062 6.08678C4.93062 6.09625 4.92586 6.10099 4.92586 6.10573V6.11994C4.92586 6.11994 4.89732 6.1531 4.89732 6.16731C4.89732 6.18625 4.88305 6.19573 4.8783 6.20046C4.85451 6.21941 4.84024 6.23836 4.83549 6.26204V6.27152C4.83549 6.27152 4.82597 6.28573 4.81646 6.2952C4.80219 6.30941 4.78792 6.32836 4.76889 6.34257C4.74986 6.36152 4.73559 6.37573 4.71657 6.39468L4.69754 6.41836C4.65473 6.47046 4.60716 6.52257 4.54057 6.55573H4.53105C4.53105 6.55573 4.49776 6.57468 4.48349 6.58889C4.46922 6.59836 4.45494 6.61257 4.43592 6.62204L4.40262 6.64573H4.39786C4.39311 6.64573 4.37884 6.65994 4.35981 6.65994C4.30273 6.66468 4.26467 6.69783 4.21711 6.74046L4.20759 6.74994C4.20759 6.74994 4.20284 6.74994 4.19808 6.75468H4.18857C4.18857 6.75468 4.16954 6.76889 4.16003 6.77362C4.15051 6.77362 4.14576 6.77836 4.13624 6.7831H4.12673C4.12673 6.7831 4.11246 6.79731 4.1077 6.80204L4.09819 6.81152C4.09819 6.81152 4.08867 6.81625 4.08392 6.82099L4.03635 6.85415H4.02208C4.02208 6.85415 4.00305 6.8731 3.9983 6.87783C3.98878 6.88731 3.97927 6.89678 3.96976 6.90152C3.96976 6.90152 3.96976 6.90625 3.96024 6.91099C3.95549 6.92046 3.94122 6.92994 3.9317 6.93468C3.91743 6.93941 3.91267 6.94415 3.90792 6.94415C3.8984 6.95836 3.88413 6.9631 3.87462 6.9631L3.85084 6.93468L3.86511 6.96783C3.84132 6.98204 3.81278 6.99625 3.77473 7.00099C3.77473 7.00573 3.77473 7.0152 3.77473 7.01994V7.02941C3.77473 7.02941 3.77949 7.03889 3.78424 7.04362C3.78424 7.04836 3.79376 7.0531 3.79851 7.06257C3.80327 7.06731 3.81278 7.08152 3.81278 7.09573H3.83657V7.1052C3.83657 7.1052 3.83657 7.1052 3.84132 7.1052L3.87462 7.12415C3.87462 7.12415 3.88889 7.13836 3.89365 7.1431C3.92694 7.18099 3.92694 7.22362 3.92694 7.25204V7.26152C3.92694 7.26152 3.92694 7.27099 3.92219 7.27099C3.94121 7.27099 3.95549 7.26152 3.96976 7.25204C3.98403 7.23783 3.9983 7.2331 4.01732 7.23783C4.02684 7.23783 4.04111 7.24257 4.05062 7.25678C4.06013 7.25678 4.06965 7.26152 4.07916 7.27573C4.09343 7.28994 4.11246 7.29468 4.141 7.29941C4.15527 7.29941 4.16954 7.30415 4.18381 7.30889L4.20759 7.31836C4.20759 7.31836 4.22186 7.33257 4.22662 7.33731C4.22662 7.33731 4.24089 7.34204 4.25992 7.33731H4.27419C4.27419 7.33731 4.29322 7.33731 4.30273 7.33731C4.33127 7.33731 4.34078 7.35152 4.34554 7.36099C4.34554 7.36573 4.35505 7.38468 4.34554 7.40836C4.33603 7.41783 4.33127 7.42257 4.32651 7.42731C4.32651 7.42731 4.32651 7.43678 4.32651 7.44152C4.32651 7.44152 4.32651 7.45099 4.32651 7.46046C4.32651 7.46994 4.33127 7.47468 4.33603 7.47941V7.48889L4.34554 7.5031V7.51731C4.34554 7.51731 4.34078 7.52678 4.34078 7.53152C4.34078 7.54573 4.33603 7.57415 4.30749 7.5931C4.2837 7.62152 4.26943 7.64994 4.26467 7.67836C4.26467 7.67836 4.26467 7.68783 4.26467 7.69257C4.25516 7.71625 4.2504 7.7352 4.24089 7.74468L4.22662 7.76836C4.22662 7.76836 4.20759 7.80625 4.19808 7.82046C4.19808 7.82994 4.19808 7.83941 4.19808 7.83941C4.19808 7.83941 4.19808 7.84889 4.20284 7.84889C4.20759 7.85362 4.21235 7.8631 4.21711 7.87731L4.22662 7.90099L4.20759 7.92467L4.16003 7.99573C4.16003 7.99573 4.15051 8.01468 4.141 8.02415L4.13149 8.03362C4.13149 8.03362 4.13149 8.03362 4.12673 8.04783C4.12673 8.05731 4.12197 8.06204 4.11721 8.06678L4.21711 8.14257L4.09819 8.12362C4.09819 8.12362 4.08392 8.15678 4.0744 8.17573C4.06965 8.1852 4.06489 8.19468 4.06013 8.20415V8.21362L4.04586 8.21836L4.03159 8.23257C4.02208 8.23731 4.01732 8.24204 4.01257 8.24678V8.25625L3.99354 8.26573C3.99354 8.26573 3.98403 8.27046 3.98403 8.2752C3.98403 8.2752 4.00305 8.28468 4.00781 8.29415C4.04586 8.28468 4.0744 8.28941 4.10294 8.28941C4.12197 8.28941 4.141 8.28941 4.16003 8.28941C4.18381 8.28941 4.20759 8.28941 4.22662 8.3131L4.26467 8.34625L4.21711 8.36994C4.21711 8.36994 4.19332 8.37468 4.18857 8.37941C4.1743 8.37941 4.16478 8.37941 4.15051 8.38415C4.16003 8.38415 4.16954 8.38415 4.17905 8.38415C4.19332 8.38415 4.20759 8.38889 4.22186 8.39836C4.2504 8.41731 4.26467 8.42678 4.28846 8.42204L4.36457 8.41257L4.3503 8.43625L4.38835 8.4552C4.38835 8.4552 4.39311 8.44573 4.39786 8.42678V8.41731C4.39786 8.41731 4.39311 8.41257 4.38835 8.40783C4.36932 8.38889 4.37408 8.36994 4.37884 8.36046C4.37884 8.35573 4.39786 8.33204 4.43116 8.33678C4.46446 8.34625 4.52154 8.3652 4.53581 8.43152L4.55008 8.44099C4.55008 8.44099 4.55008 8.44099 4.55484 8.44099C4.55959 8.44099 4.56911 8.44099 4.57862 8.45046C4.57862 8.45046 4.58813 8.4552 4.59765 8.45994C4.60716 8.46468 4.62143 8.47415 4.63094 8.47889C4.64046 8.48836 4.64997 8.48836 4.66424 8.4931C4.67376 8.47889 4.68803 8.46941 4.71181 8.46468C4.73084 8.46468 4.74986 8.46468 4.76413 8.46468L4.7784 8.49783V8.46468L4.8117 8.44573L4.82122 8.48362C4.82122 8.48362 4.82121 8.52625 4.8117 8.53573C4.8117 8.53573 4.8117 8.53573 4.8117 8.54047L4.82597 8.56415C4.82597 8.56415 4.84024 8.57836 4.84976 8.5831C4.85451 8.5831 4.86403 8.59257 4.86878 8.59731C4.90208 8.62099 4.90208 8.63994 4.89732 8.65889C4.89732 8.66836 4.8783 8.69678 4.84024 8.68731H4.82597V8.69678C4.82597 8.69678 4.82597 8.69678 4.83549 8.69678C4.83549 8.69678 4.84024 8.69678 4.845 8.69678C4.85451 8.69678 4.86403 8.69678 4.8783 8.69678C4.89257 8.69678 4.90208 8.70625 4.90684 8.71099H4.92586L4.93538 8.73941L4.95916 8.76783C4.95916 8.76783 4.9877 8.79625 4.98294 8.81994C4.97819 8.84362 4.9544 8.84836 4.94013 8.85783C4.94013 8.85783 4.94013 8.85783 4.94489 8.86257C4.9877 8.88625 4.99721 8.93362 5.00673 8.97625L5.03527 9.09468L4.9544 9.02362C4.9544 9.02362 4.93538 9.01415 4.93062 9.01889C4.93062 9.01889 4.91159 9.02836 4.89257 9.02362C4.88305 9.02362 4.87354 9.01415 4.86403 9.00468C4.84024 9.00468 4.82597 9.00941 4.81646 9.01889C4.80694 9.02836 4.79267 9.03783 4.78316 9.04731C4.76889 9.06152 4.74986 9.08047 4.73084 9.09468L4.72132 9.10889C4.72132 9.10889 4.72132 9.11362 4.72608 9.13731C4.72608 9.14678 4.72608 9.15152 4.73084 9.15625H4.74511V9.21783C4.74511 9.22731 4.75462 9.23204 4.75938 9.23204C4.79267 9.23204 4.80694 9.25573 4.82122 9.26994C4.82597 9.27468 4.83073 9.27941 4.83549 9.28889L4.845 9.29836H4.85927L4.86878 9.31257C4.90684 9.3552 4.90684 9.39783 4.88305 9.44046V9.44994V9.45941C4.90684 9.49731 4.91635 9.52573 4.92111 9.55889C4.92111 9.56362 4.93062 9.5731 4.93538 9.58257L4.94965 9.60152L4.92586 9.66783C4.92586 9.66783 4.94489 9.68204 4.9544 9.69152C4.96392 9.70099 4.97819 9.71047 4.98294 9.72941C4.98294 9.74836 4.97343 9.76257 4.96392 9.77204L4.9544 9.78152H4.92586C4.91159 9.8052 4.89732 9.81941 4.8783 9.83362C4.87354 9.83836 4.86878 9.8431 4.86403 9.84783C4.8783 9.84783 4.89257 9.85731 4.89732 9.87625C4.89732 9.89046 4.89732 9.90941 4.88305 9.92362L4.87354 9.9331C4.87354 9.9331 4.86878 9.94257 4.86403 9.94731V10.0468L4.84024 9.98994C4.84024 9.98994 4.82121 10.0089 4.8117 10.0184C4.8117 10.0184 4.80219 10.0468 4.79743 10.0563C4.79743 10.0799 4.79743 10.0989 4.8117 10.1178L4.8783 10.2315L4.76413 10.1652C4.76413 10.1652 4.75462 10.1605 4.74986 10.1557L4.74035 10.151V10.1605C4.71657 10.1936 4.69278 10.1984 4.669 10.1936C4.669 10.1984 4.669 10.2031 4.67851 10.2078L4.68803 10.2173V10.2552C4.68803 10.2552 4.67851 10.2647 4.67851 10.2694V10.2836L4.65949 10.2931C4.65473 10.2978 4.64997 10.3026 4.64997 10.3073L4.62619 10.3357C4.62619 10.3357 4.61192 10.3594 4.61192 10.3736V10.3926C4.61192 10.3926 4.61192 10.4163 4.61192 10.4305H4.61667C4.63094 10.4305 4.64521 10.4352 4.65473 10.4447L4.67851 10.4636C4.67851 10.4636 4.7023 10.5063 4.69278 10.5347V10.5441L4.68327 10.5489C4.67376 10.5584 4.66424 10.5678 4.65473 10.582C4.64046 10.5963 4.63094 10.6057 4.62143 10.6199L4.59765 10.582ZM5.49192 10.3547C5.49192 10.3547 5.49192 10.3547 5.48716 10.3594H5.49192V10.3547ZM5.60608 10.3168C5.60608 10.3168 5.60132 10.3263 5.59657 10.331C5.59657 10.331 5.59181 10.3405 5.58705 10.3405H5.60132L5.61559 10.3499H5.62035L5.60132 10.3168H5.60608ZM5.54424 10.2694V10.2789V10.2741C5.54424 10.2741 5.54424 10.2741 5.53949 10.2741L5.54424 10.2694ZM5.95808 10.1889L5.96759 10.2078V10.1889C5.96759 10.1889 5.96284 10.1889 5.95808 10.1889ZM4.64997 10.151H4.64522C4.64522 10.151 4.64521 10.151 4.64997 10.151ZM4.85927 9.81467L4.83549 9.82415H4.86403V9.81467H4.85927ZM4.3503 8.38415L4.32176 8.42678C4.32176 8.42678 4.31224 8.44099 4.30749 8.44573C4.317 8.44573 4.32651 8.43625 4.34078 8.42678C4.34078 8.42678 4.34554 8.42678 4.3503 8.42204V8.38415ZM4.53105 8.36994H4.53581C4.53581 8.36994 4.53581 8.36994 4.53105 8.36994ZM5.57278 7.74941C5.57278 7.74941 5.57278 7.75415 5.57754 7.75889V7.74941H5.57278ZM6.11981 6.68836L6.13408 6.69783L6.11981 6.67415V6.68836Z" fill="#B90568"/>
</g>
<path d="M15.7475 7.4842C16.7417 7.46052 17.6455 7.40368 18.6634 7.21894L18.7776 8.45052C17.4837 8.6921 16.3516 8.73947 14.9864 8.73947H14.2444V1.73841H18.1877V2.96999H15.7475V7.4842ZM23.0777 0.506836V11.1221H21.6316V5.81684H20.6708V10.6295H19.2485V0.715257H20.6708V4.59473H21.6316V0.506836H23.0777Z" fill="#211E1F"/>
<path d="M30.8455 2.82315H24.5808V1.6342H26.9402V0.506836H28.4766V1.6342H30.8597L30.8502 2.81841L30.8455 2.82315ZM27.7108 7.28999C26.1838 7.28999 25.0993 6.46105 25.0993 5.23894C25.0993 4.01684 26.1838 3.2021 27.7108 3.2021C29.2377 3.2021 30.3222 4.04052 30.3222 5.23894C30.3222 6.43736 29.2329 7.28999 27.7108 7.28999ZM27.6204 9.72947H33.3428V10.9374H26.0935V7.86315H27.6204V9.72947ZM27.7108 6.13894C28.3815 6.13894 28.8666 5.82631 28.8666 5.23894C28.8666 4.65157 28.3815 4.35315 27.7108 4.35315C27.0401 4.35315 26.5549 4.66578 26.5549 5.23894C26.5549 5.8121 27.0305 6.13894 27.7108 6.13894ZM34.3702 3.75631V5.01157H32.9575V8.45526H31.4305V0.51631H32.9575V3.75631H34.3702Z" fill="#211E1F"/>
<path d="M39.774 6.38057C38.894 6.03478 38.2804 5.40004 37.8998 4.64215C37.5193 5.54215 36.8581 6.30004 35.8782 6.71688L35.0696 5.54215C36.5632 4.89794 37.1388 3.58583 37.1388 2.38741V1.15109H38.6086V2.38267C38.6086 3.52425 39.1889 4.66109 40.5874 5.22478L39.7788 6.37583L39.774 6.38057ZM44.3405 9.14215C44.3405 10.3879 42.9182 11.1221 40.6873 11.1221C38.4564 11.1221 37.0103 10.3832 37.0103 9.14215C37.0103 7.90109 38.4421 7.16215 40.6873 7.16215C42.9325 7.16215 44.3405 7.91057 44.3405 9.14215ZM42.8136 9.14215C42.8136 8.57846 42.0525 8.30373 40.6873 8.30373C39.3221 8.30373 38.5373 8.57846 38.5373 9.14215C38.5373 9.70583 39.2983 9.98057 40.6873 9.98057C42.0763 9.98057 42.8136 9.70583 42.8136 9.14215ZM42.0144 6.66478H40.5922V0.715305H42.0144V3.09794H42.8469V0.516357H44.2929V7.00109H42.8469V4.32004H42.0144V6.66952V6.66478Z" fill="#211E1F"/>
<path d="M51.6373 6.3332C50.4481 5.95425 49.6252 5.20583 49.1495 4.24899C48.6644 5.27215 47.8081 6.10109 46.5619 6.50373L45.8103 5.3053C47.5893 4.74162 48.3552 3.35846 48.3552 2.0132V1.00425H49.9059V2.01794C49.9059 3.34425 50.6574 4.60899 52.3794 5.13952L51.6373 6.33794V6.3332ZM47.4419 7.29951H54.7007V11.1316H53.1642V8.50741H47.4419V7.29951ZM54.7007 0.516357V6.84004H53.1642V0.516357H54.7007Z" fill="#211E1F"/>
<path d="M56.5415 7.75892C58.4157 7.75892 61.0271 7.74944 63.2723 7.41313L63.3627 8.50734C61.0747 8.96681 58.5774 8.9905 56.7365 8.9905L56.5415 7.75892ZM62.8537 3.83208C62.8537 5.36208 61.5837 6.44681 59.9188 6.44681C58.2539 6.44681 56.9934 5.36208 56.9934 3.83208C56.9934 2.30208 58.2539 1.21734 59.9188 1.21734C61.5837 1.21734 62.8537 2.31155 62.8537 3.83208ZM58.4727 3.83208C58.4727 4.66102 59.0959 5.14418 59.9188 5.14418C60.7417 5.14418 61.3649 4.66102 61.3649 3.83208C61.3649 3.00313 60.7417 2.51997 59.9188 2.51997C59.0959 2.51997 58.4727 3.00313 58.4727 3.83208ZM65.3748 0.502075V11.1458H63.8479V0.506812H65.3748V0.502075Z" fill="#211E1F"/>
<path d="M73.3994 2.64789H67.1348V1.44947H69.4941V0.459473H71.0306V1.44947H73.3994V2.64789ZM70.2647 6.88737C68.7378 6.88737 67.6533 6.09158 67.6533 4.93105C67.6533 3.77053 68.7378 2.98421 70.2647 2.98421C71.7916 2.98421 72.8762 3.78 72.8762 4.93105C72.8762 6.0821 71.8011 6.88737 70.2647 6.88737ZM68.4143 7.60263H75.5114V11.1363H73.9845V8.82H68.4096V7.59789L68.4143 7.60263ZM70.2647 5.73631C70.9449 5.73631 71.4206 5.47105 71.4206 4.93105C71.4206 4.39105 70.9449 4.13526 70.2647 4.13526C69.5845 4.13526 69.1088 4.40053 69.1088 4.93105C69.1088 5.46158 69.5702 5.73631 70.2647 5.73631ZM76.9242 4.50474H75.5114V7.16684H73.9845V0.530525H75.5114V3.24947H76.9242V4.50474Z" fill="#211E1F"/>
<path d="M81.9996 8.04794C82.8653 7.99109 83.7358 7.93425 84.5682 7.81583L84.6824 8.91952C82.3563 9.34583 79.8971 9.3553 78.0134 9.3553L77.8279 8.12373C78.627 8.12373 79.526 8.12373 80.4774 8.10004V7.20004C79.331 6.98215 78.5937 6.26688 78.5937 5.27688C78.5937 4.09267 79.683 3.28267 81.2432 3.28267C82.8035 3.28267 83.8785 4.08794 83.8785 5.27688C83.8785 6.26688 83.1364 6.98215 82.0043 7.20004V8.03846L81.9996 8.04794ZM84.4255 2.88004H78.0324V1.69109H80.4726V0.554252H81.9996V1.69109H84.4255V2.8753V2.88004ZM81.2337 6.13899C81.952 6.13899 82.4229 5.84057 82.4229 5.28636C82.4229 4.73215 81.9472 4.44794 81.2337 4.44794C80.5202 4.44794 80.0445 4.74636 80.0445 5.28636C80.0445 5.82636 80.5297 6.13899 81.2337 6.13899ZM86.6469 0.521094V11.1221H85.12V0.516357H86.6469V0.521094Z" fill="#211E1F"/>
<path d="M14.2444 14.2438H14.7248V15.6459H14.7343L15.5287 14.2438H16.0567L15.3242 15.5132L16.1851 17.4648H15.6619L15.0388 16.0153L14.7248 16.5601V17.4648H14.2444V14.239V14.2438Z" fill="#211E1F"/>
<path d="M16.1755 15.8448C16.1755 14.7979 16.6132 14.1869 17.2506 14.1869C17.888 14.1869 18.3256 14.7979 18.3256 15.8448C18.3256 16.8916 17.888 17.5311 17.2506 17.5311C16.6132 17.5311 16.1755 16.8916 16.1755 15.8448ZM17.8356 15.8448C17.8356 15.1532 17.6073 14.7411 17.2506 14.7411C16.8938 14.7411 16.6655 15.1532 16.6655 15.8448C16.6655 16.5364 16.8938 16.9722 17.2506 16.9722C17.6073 16.9722 17.8356 16.5316 17.8356 15.8448Z" fill="#211E1F"/>
<path d="M18.7109 14.2437H19.5481C20.0523 14.2437 20.4519 14.4805 20.4519 15.2242C20.4519 15.7073 20.2712 16.0058 19.9953 16.1526L20.5566 17.4694H20.0238L19.5291 16.2521H19.1961V17.4694H18.7157V14.2437H18.7109ZM19.5006 15.7405C19.8097 15.7405 19.981 15.5652 19.981 15.2242C19.981 14.8831 19.8097 14.76 19.5006 14.76H19.1914V15.7452H19.5006V15.7405Z" fill="#211E1F"/>
<path d="M20.8467 14.2437H22.3213V14.7837H21.3271V15.5273H22.1691V16.0673H21.3271V16.9294H22.3546V17.4694H20.8467V14.2437Z" fill="#211E1F"/>
<path d="M23.2204 14.2437H23.7865L24.5571 17.4694H24.0529L23.8864 16.6405H23.1063L22.9398 17.4694H22.4546L23.2252 14.2437H23.2204ZM23.2109 16.1384H23.7817L23.7104 15.7879C23.6343 15.4515 23.5724 15.0821 23.5011 14.7363H23.4868C23.425 15.0868 23.3536 15.4563 23.2823 15.7879L23.2109 16.1384Z" fill="#211E1F"/>
<path d="M24.7616 14.2437H25.2515L25.9508 15.9631L26.1886 16.6594H26.2029C26.1791 16.3231 26.1411 15.8968 26.1411 15.5321V14.2437H26.5929V17.4694H26.1078L25.4133 15.7452L25.1707 15.0537H25.1564C25.1802 15.3994 25.2135 15.8068 25.2135 16.1763V17.4694H24.7568V14.2437H24.7616Z" fill="#211E1F"/>
<path d="M27.6061 17.0621L27.882 16.6169C28.0532 16.83 28.2815 16.9721 28.4908 16.9721C28.7429 16.9721 28.8714 16.83 28.8714 16.6027C28.8714 16.3658 28.7239 16.29 28.5099 16.1669L28.1864 15.9821C27.9438 15.8495 27.7012 15.5842 27.7012 15.1153C27.7012 14.5895 28.0437 14.1821 28.5336 14.1821C28.8143 14.1821 29.0902 14.329 29.2852 14.5942L29.0426 14.9969C28.8904 14.8263 28.7334 14.7316 28.5336 14.7316C28.3243 14.7316 28.1912 14.8595 28.1912 15.0727C28.1912 15.3048 28.3576 15.3853 28.5622 15.4942L28.8761 15.6742C29.1663 15.8353 29.3613 16.0816 29.3613 16.5505C29.3613 17.0763 29.0331 17.5263 28.4766 17.5263C28.1531 17.5263 27.8344 17.3558 27.6013 17.0574L27.6061 17.0621Z" fill="#211E1F"/>
<path d="M29.5896 15.8448C29.5896 14.7979 30.0272 14.1869 30.6646 14.1869C31.302 14.1869 31.7397 14.7979 31.7397 15.8448C31.7397 16.8916 31.302 17.5311 30.6646 17.5311C30.0272 17.5311 29.5896 16.8916 29.5896 15.8448ZM31.2497 15.8448C31.2497 15.1532 31.0214 14.7411 30.6646 14.7411C30.3079 14.7411 30.0795 15.1532 30.0795 15.8448C30.0795 16.5364 30.3079 16.9722 30.6646 16.9722C31.0214 16.9722 31.2497 16.5316 31.2497 15.8448Z" fill="#211E1F"/>
<path d="M32.0061 15.8732C32.0061 14.8122 32.5151 14.1917 33.1239 14.1917C33.4284 14.1917 33.671 14.3859 33.8279 14.6038L33.5758 15.0111C33.4522 14.8548 33.3142 14.7411 33.1335 14.7411C32.7719 14.7411 32.496 15.158 32.496 15.8495C32.496 16.5411 32.7434 16.9722 33.1239 16.9722C33.3332 16.9722 33.4902 16.8395 33.6186 16.6548L33.8708 17.0527C33.671 17.3606 33.4189 17.5264 33.1049 17.5264C32.496 17.5264 32.0061 16.9438 32.0061 15.8685V15.8732Z" fill="#211E1F"/>
<path d="M34.1799 14.2437H34.6604V17.4694H34.1799V14.2437Z" fill="#211E1F"/>
<path d="M35.1694 14.2437H36.644V14.7837H35.6499V15.5273H36.4918V16.0673H35.6499V16.9294H36.6773V17.4694H35.1694V14.2437Z" fill="#211E1F"/>
<path d="M37.5619 14.7837H36.8865V14.2437H38.7226V14.7837H38.0424V17.4694H37.5619V14.7837Z" fill="#211E1F"/>
<path d="M39.3743 16.29L38.656 14.2437H39.165L39.4028 15.03C39.4694 15.2715 39.536 15.4942 39.6121 15.7452H39.6264C39.7025 15.4989 39.7738 15.2715 39.8404 15.03L40.0783 14.2437H40.5777L39.8547 16.29V17.4694H39.3743V16.29Z" fill="#211E1F"/>
<path d="M41.4292 14.2437H42.9086V14.7837H41.9096V15.6221H42.7611V16.1621H41.9096V17.4694H41.4292V14.2437Z" fill="#211E1F"/>
<path d="M43.0894 15.8448C43.0894 14.7979 43.527 14.1869 44.1644 14.1869C44.8018 14.1869 45.2394 14.7979 45.2394 15.8448C45.2394 16.8916 44.8018 17.5311 44.1644 17.5311C43.527 17.5311 43.0894 16.8916 43.0894 15.8448ZM44.7495 15.8448C44.7495 15.1532 44.5211 14.7411 44.1644 14.7411C43.8076 14.7411 43.5793 15.1532 43.5793 15.8448C43.5793 16.5364 43.8076 16.9722 44.1644 16.9722C44.5211 16.9722 44.7495 16.5316 44.7495 15.8448Z" fill="#211E1F"/>
<path d="M45.6294 14.2437H46.4666C46.9708 14.2437 47.3704 14.4805 47.3704 15.2242C47.3704 15.7073 47.1896 16.0058 46.9137 16.1526L47.475 17.4694H46.9423L46.4476 16.2521H46.1146V17.4694H45.6342V14.2437H45.6294ZM46.419 15.7405C46.7282 15.7405 46.8994 15.5652 46.8994 15.2242C46.8994 14.8831 46.7282 14.76 46.419 14.76H46.1098V15.7452H46.419V15.7405Z" fill="#211E1F"/>
<path d="M48.417 14.2437H49.2542C49.7584 14.2437 50.158 14.4805 50.158 15.2242C50.158 15.7073 49.9772 16.0058 49.7013 16.1526L50.2626 17.4694H49.7299L49.2352 16.2521H48.9022V17.4694H48.4217V14.2437H48.417ZM49.2066 15.7405C49.5158 15.7405 49.687 15.5652 49.687 15.2242C49.687 14.8831 49.5158 14.76 49.2066 14.76H48.8974V15.7452H49.2066V15.7405Z" fill="#211E1F"/>
<path d="M50.5479 14.2437H52.0224V14.7837H51.0283V15.5273H51.8702V16.0673H51.0283V16.9294H52.0557V17.4694H50.5479V14.2437Z" fill="#211E1F"/>
<path d="M52.4648 14.2437H53.2545C53.7872 14.2437 54.1963 14.4947 54.1963 15.2573C54.1963 16.02 53.7825 16.3231 53.2687 16.3231H52.95V17.4694H52.4696V14.2437H52.4648ZM53.2354 15.8163C53.5684 15.8163 53.7254 15.6268 53.7254 15.2573C53.7254 14.8879 53.5494 14.7552 53.2212 14.7552H52.95V15.8115H53.2402L53.2354 15.8163Z" fill="#211E1F"/>
<path d="M54.5483 14.2437H55.3855C55.8897 14.2437 56.2893 14.4805 56.2893 15.2242C56.2893 15.7073 56.1086 16.0058 55.8327 16.1526L56.394 17.4694H55.8612L55.3665 16.2521H55.0335V17.4694H54.5531V14.2437H54.5483ZM55.338 15.7405C55.6471 15.7405 55.8184 15.5652 55.8184 15.2242C55.8184 14.8831 55.6471 14.76 55.338 14.76H55.0288V15.7452H55.338V15.7405Z" fill="#211E1F"/>
<path d="M56.5605 15.8448C56.5605 14.7979 56.9982 14.1869 57.6356 14.1869C58.273 14.1869 58.7106 14.7979 58.7106 15.8448C58.7106 16.8916 58.273 17.5311 57.6356 17.5311C56.9982 17.5311 56.5605 16.8916 56.5605 15.8448ZM58.2207 15.8448C58.2207 15.1532 57.9923 14.7411 57.6356 14.7411C57.2788 14.7411 57.0505 15.1532 57.0505 15.8448C57.0505 16.5364 57.2788 16.9722 57.6356 16.9722C57.9923 16.9722 58.2207 16.5316 58.2207 15.8448Z" fill="#211E1F"/>
<path d="M59.1006 14.2437H59.757C60.4896 14.2437 60.9462 14.7552 60.9462 15.8447C60.9462 16.9342 60.4943 17.4694 59.7856 17.4694H59.1006V14.2437ZM59.7285 16.9484C60.1756 16.9484 60.4563 16.6263 60.4563 15.8447C60.4563 15.0631 60.1756 14.76 59.7285 14.76H59.581V16.9484H59.7285Z" fill="#211E1F"/>
<path d="M61.322 16.02V14.2437H61.8025V16.0768C61.8025 16.7494 61.9785 16.9721 62.2543 16.9721C62.5302 16.9721 62.7205 16.7447 62.7205 16.0768V14.2437H63.1819V16.02C63.1819 17.0905 62.8394 17.531 62.2543 17.531C61.6693 17.531 61.322 17.0905 61.322 16.02Z" fill="#211E1F"/>
<path d="M63.5625 15.8732C63.5625 14.8122 64.0715 14.1917 64.6803 14.1917C64.9848 14.1917 65.2274 14.3859 65.3843 14.6038L65.1322 15.0111C65.0085 14.8548 64.8706 14.7411 64.6898 14.7411C64.3283 14.7411 64.0524 15.158 64.0524 15.8495C64.0524 16.5411 64.2998 16.9722 64.6803 16.9722C64.8896 16.9722 65.0466 16.8395 65.175 16.6548L65.4271 17.0527C65.2274 17.3606 64.9753 17.5264 64.6613 17.5264C64.0524 17.5264 63.5625 16.9438 63.5625 15.8685V15.8732Z" fill="#211E1F"/>
<path d="M66.1596 14.7837H65.4841V14.2437H67.3202V14.7837H66.64V17.4694H66.1596V14.7837Z" fill="#211E1F"/>
<path d="M67.6294 14.2437H68.1098V17.4694H67.6294V14.2437Z" fill="#211E1F"/>
<path d="M68.3097 14.2437H68.8139L69.1326 15.8163C69.2087 16.1715 69.261 16.4937 69.3324 16.8584H69.3467C69.4228 16.4984 69.4751 16.1763 69.5512 15.8163L69.8604 14.2437H70.3456L69.613 17.4694H69.0375L68.3049 14.2437H68.3097Z" fill="#211E1F"/>
<path d="M70.5454 14.2437H72.02V14.7837H71.0258V15.5273H71.8678V16.0673H71.0258V16.9294H72.0533V17.4694H70.5454V14.2437Z" fill="#211E1F"/>
<path d="M73.114 14.2437H73.6468L74.0558 15.7547C74.1082 15.9537 74.151 16.1668 74.2033 16.3705H74.2176C74.2699 16.1668 74.3127 15.9537 74.365 15.7547L74.7646 14.2437H75.2974V17.4694H74.8597V16.1242C74.8597 15.821 74.8978 15.371 74.9216 15.0679H74.9073L74.7123 15.8258L74.3413 17.1805H74.0654L73.6943 15.8258L73.5041 15.0679H73.4898C73.5136 15.371 73.5516 15.821 73.5516 16.1242V17.4694H73.1188V14.2437H73.114Z" fill="#211E1F"/>
<path d="M75.8064 14.2437H77.281V14.7837H76.2868V15.5273H77.1288V16.0673H76.2868V16.9294H77.3143V17.4694H75.8064V14.2437Z" fill="#211E1F"/>
<path d="M77.7234 14.2437H78.3798C79.1124 14.2437 79.569 14.7552 79.569 15.8447C79.569 16.9342 79.1171 17.4694 78.4084 17.4694H77.7234V14.2437ZM78.3513 16.9484C78.7984 16.9484 79.0791 16.6263 79.0791 15.8447C79.0791 15.0631 78.7984 14.76 78.3513 14.76H78.2038V16.9484H78.3513Z" fill="#211E1F"/>
<path d="M79.959 14.2437H80.4394V17.4694H79.959V14.2437Z" fill="#211E1F"/>
<path d="M80.8293 15.8732C80.8293 14.8122 81.3383 14.1917 81.9472 14.1917C82.2516 14.1917 82.4942 14.3859 82.6512 14.6038L82.4038 15.0111C82.2802 14.8548 82.1422 14.7411 81.9615 14.7411C81.5999 14.7411 81.3241 15.158 81.3241 15.8495C81.3241 16.5411 81.5714 16.9722 81.9519 16.9722C82.1612 16.9722 82.3182 16.8395 82.4466 16.6548L82.6988 17.0527C82.499 17.3606 82.2421 17.5264 81.9329 17.5264C81.3241 17.5264 80.8341 16.9438 80.8341 15.8685L80.8293 15.8732Z" fill="#211E1F"/>
<path d="M82.9985 14.2437H83.479V17.4694H82.9985V14.2437Z" fill="#211E1F"/>
<path d="M83.988 14.2437H84.478L85.1772 15.9631L85.4151 16.6594H85.4293C85.4056 16.3231 85.3675 15.8968 85.3675 15.5321V14.2437H85.8241V17.4694H85.339L84.6445 15.7452L84.4019 15.0537H84.3876C84.4114 15.3994 84.4447 15.8068 84.4447 16.1763V17.4694H83.9928V14.2437H83.988Z" fill="#211E1F"/>
<path d="M86.3379 14.2437H87.8125V14.7837H86.8183V15.5273H87.6603V16.0673H86.8183V16.9294H87.8458V17.4694H86.3379V14.2437Z" fill="#211E1F"/>
</g>
<defs>
<clipPath id="clip0_1109_981">
<rect width="88" height="18" fill="white" transform="translate(0.116699)"/>
</clipPath>
</defs>
</svg>
