<svg width="24" height="24" viewBox="0 0 24 24" fill="none" xmlns="http://www.w3.org/2000/svg">
<g id="Menu">
<path id="Vector" d="M18.3684 20.8947H5.18421C4.52632 20.8947 4 20.3517 4 19.6728V18.5323C4 15.7626 5.76316 13.2644 8.52632 12.0153C7.65789 11.0377 7.18421 9.76144 7.18421 8.40372C7.18421 5.41674 9.52632 3 12.4211 3C15.3158 3 17.6579 5.41674 17.6579 8.40372C17.6579 9.76144 17.1842 11.0377 16.3158 12.0153C19.0526 13.2644 20.8421 15.7354 20.8421 18.5323C20.8421 18.9939 20.5 19.3469 20.0526 19.3469C19.6053 19.3469 19.2632 18.9939 19.2632 18.5323C19.2632 16.1156 17.3158 13.8618 14.5526 13.1014C14.2368 13.02 14.0263 12.7484 13.9737 12.4226C13.9211 12.0967 14.0789 11.7709 14.3421 11.6079C15.4474 10.9291 16.0789 9.70713 16.0789 8.37657C16.0789 6.28568 14.4211 4.60211 12.4211 4.60211C10.4211 4.60211 8.73684 6.31283 8.73684 8.37657C8.73684 9.70713 9.39474 10.9019 10.4737 11.6079C10.7368 11.7709 10.8947 12.0967 10.8421 12.4226C10.7895 12.7484 10.5789 13.02 10.2632 13.1014C7.5 13.8618 5.55263 16.0884 5.55263 18.5323V19.2655H18.3684C18.8158 19.2655 19.1579 19.6185 19.1579 20.0801C19.1579 20.5417 18.8158 20.8947 18.3684 20.8947Z" fill="#222222"/>
</g>
</svg>
