<svg width="16" height="16" viewBox="0 0 16 16" fill="none" xmlns="http://www.w3.org/2000/svg">
<g id="history">
<mask id="mask0_916_15773" style="mask-type:alpha" maskUnits="userSpaceOnUse" x="0" y="0" width="16" height="16">
<rect id="Bounding box" width="16" height="16" fill="#D9D9D9"/>
</mask>
<g mask="url(#mask0_916_15773)">
<path id="history_2" d="M7.99693 13C6.60451 13 5.42256 12.525 4.45108 11.5749C3.47959 10.6248 2.99591 9.46894 3.00003 8.10722H3.81113C3.82326 9.22843 4.23633 10.19 5.05034 10.9919C5.86423 11.7939 6.84643 12.1949 7.99693 12.1949C9.14742 12.1949 10.1317 11.7949 10.9497 10.9949C11.7677 10.1949 12.1767 9.23236 12.1767 8.10722C12.1767 6.98209 11.7677 6.01953 10.9497 5.21956C10.1317 4.41958 9.14742 4.01959 7.99693 4.01959C7.37904 4.01959 6.80701 4.13685 6.28084 4.37137C5.75457 4.60579 5.29991 4.92841 4.91687 5.33924H6.52577V6.14438H3.3105V3H4.13379V5.02477C4.59494 4.47294 5.15763 4.03326 5.82186 3.70574C6.48598 3.37821 7.211 3.21445 7.99693 3.21445C8.69113 3.21445 9.34158 3.3428 9.94828 3.59952C10.555 3.85624 11.084 4.20534 11.5353 4.64682C11.9868 5.0882 12.3437 5.60556 12.6062 6.19889C12.8687 6.79221 13 7.42832 13 8.10722C13 8.78612 12.8687 9.42223 12.6062 10.0156C12.3437 10.6089 11.9868 11.1262 11.5353 11.5676C11.084 12.0091 10.555 12.3582 9.94828 12.6149C9.34158 12.8716 8.69113 13 7.99693 13ZM9.7081 10.1058L7.60365 8.04761V5.1344H8.42678V7.70233L10.2963 9.53046L9.7081 10.1058Z" fill="#444444"/>
</g>
</g>
</svg>
