<svg width="16" height="16" viewBox="0 0 16 16" fill="none" xmlns="http://www.w3.org/2000/svg">
<g id="Frame 320">
<g id="Group 130">
<path id="Vector" d="M8.85449 3C11.0458 3 12.8305 4.81362 12.8305 7.04454" stroke="#2A77C1" stroke-linecap="round" stroke-linejoin="round"/>
<path id="Vector_2" d="M8.85449 5.12744C9.89232 5.12744 10.7373 5.98699 10.7373 7.04271" stroke="#2A77C1" stroke-linecap="round" stroke-linejoin="round"/>
<path id="Vector_3" d="M12.7515 11.1568C12.7322 11.3119 12.6604 11.4671 12.564 11.5651L11.854 12.2892C9.4347 14.3489 6.36331 11.2798 6.33175 11.2495L4.72593 9.61421C4.69613 9.58211 1.67733 6.45954 3.69337 4.00571L4.41564 3.27099C4.51031 3.17469 4.66458 3.10158 4.81534 3.08018C4.84514 3.07661 4.87319 3.07483 4.90124 3.07483C5.01344 3.07483 5.1046 3.10515 5.15719 3.15864L6.65783 4.92055C6.83839 5.10423 6.83839 5.40026 6.65783 5.58394L6.11087 6.14211C5.97588 6.29013 5.88121 6.42923 5.81986 6.57011C5.70065 6.90358 5.50956 7.77562 6.33351 8.67797L7.25563 9.61777C8.13743 10.4506 8.99468 10.2562 9.33303 10.1314C9.45925 10.0743 9.59774 9.97622 9.74675 9.83534L10.2902 9.28251C10.4638 9.10597 10.7583 9.09527 10.9511 9.29143L12.6674 10.8037C12.7393 10.8804 12.7691 11.0088 12.7498 11.1568H12.7515Z" stroke="#2A77C1" stroke-linecap="round" stroke-linejoin="round"/>
</g>
</g>
</svg>
