<svg width="16" height="16" viewBox="0 0 16 16" fill="none" xmlns="http://www.w3.org/2000/svg">
<g id="Frame 321">
<g id="Group 131">
<path id="Vector" d="M12.4293 7.24639C12.4293 4.74482 10.2844 2.74907 7.74661 3.02566C5.82622 3.23349 4.26988 4.77691 4.03324 6.70848C3.8952 7.82708 4.19555 8.86927 4.77652 9.69447L7.61616 13.6906C7.91043 14.1031 8.52023 14.1031 8.81299 13.6906L11.6526 9.69447C12.1395 9.00222 12.4293 8.15869 12.4293 7.24486V7.24639Z" stroke="#2A77C1" stroke-linecap="round" stroke-linejoin="round"/>
<path id="Vector_2" d="M8.21481 8.80657C9.22012 8.80657 10.0351 7.98557 10.0351 6.97281C10.0351 5.96004 9.22012 5.13904 8.21481 5.13904C7.2095 5.13904 6.39453 5.96004 6.39453 6.97281C6.39453 7.98557 7.2095 8.80657 8.21481 8.80657Z" stroke="#2A77C1" stroke-linecap="round" stroke-linejoin="round"/>
</g>
</g>
</svg>
