<svg width="16" height="16" viewBox="0 0 16 16" fill="none" xmlns="http://www.w3.org/2000/svg">
<g id="content_copy">
<mask id="mask0_414_8827" style="mask-type:alpha" maskUnits="userSpaceOnUse" x="0" y="0" width="16" height="16">
<rect id="Bounding box" width="16" height="16" fill="#D9D9D9"/>
</mask>
<g mask="url(#mask0_414_8827)">
<path id="content_copy_2" d="M6.00039 12C5.67039 12 5.38789 11.8825 5.15289 11.6475C4.91789 11.4125 4.80039 11.13 4.80039 10.8V2.79998C4.80039 2.46998 4.91789 2.18748 5.15289 1.95248C5.38789 1.71748 5.67039 1.59998 6.00039 1.59998H12.4004C12.7304 1.59998 13.0129 1.71748 13.2479 1.95248C13.4829 2.18748 13.6004 2.46998 13.6004 2.79998V10.8C13.6004 11.13 13.4829 11.4125 13.2479 11.6475C13.0129 11.8825 12.7304 12 12.4004 12H6.00039ZM6.00039 10.8H12.4004V2.79998H6.00039V10.8ZM3.60039 14.4C3.27039 14.4 2.98789 14.2825 2.75289 14.0475C2.51789 13.8125 2.40039 13.53 2.40039 13.2V3.99998H3.60039V13.2H11.2004V14.4H3.60039Z" fill="#999999"/>
</g>
</g>
</svg>
