<svg width="50" height="50" viewBox="0 0 50 50" fill="none" xmlns="http://www.w3.org/2000/svg">
<rect width="50" height="50" rx="25" fill="#5D1E7E"/>
<mask id="mask0_225_2433" style="mask-type:alpha" maskUnits="userSpaceOnUse" x="13" y="13" width="24" height="24">
<rect x="13" y="13" width="24" height="24" fill="#D9D9D9"/>
</mask>
<g mask="url(#mask0_225_2433)">
<path d="M24.9989 34.3228C24.3978 34.3228 23.8834 34.1088 23.4559 33.6808C23.0284 33.2527 22.8147 32.7379 22.8147 32.1366C22.8147 31.5354 23.0287 31.0211 23.4567 30.5936C23.8849 30.1661 24.3996 29.9523 25.0009 29.9523C25.6021 29.9523 26.1164 30.1664 26.5439 30.5946C26.9714 31.0226 27.1852 31.5373 27.1852 32.1386C27.1852 32.7398 26.9711 33.2541 26.5429 33.6816C26.1149 34.1091 25.6003 34.3228 24.9989 34.3228ZM22.9102 27.9523V15.7251H27.0897V27.9523H22.9102Z" fill="white"/>
</g>
</svg>
