<svg width="50" height="50" viewBox="0 0 50 50" fill="none" xmlns="http://www.w3.org/2000/svg">
<rect width="50" height="50" rx="25" fill="#AAAAAA"/>
<mask id="mask0_724_10586" style="mask-type:alpha" maskUnits="userSpaceOnUse" x="13" y="13" width="24" height="24">
<rect x="13" y="13" width="24" height="24" fill="#D9D9D9"/>
</mask>
<g mask="url(#mask0_724_10586)">
<path d="M24.9987 34.3228C24.3975 34.3228 23.8832 34.1088 23.4557 33.6808C23.0282 33.2527 22.8145 32.7379 22.8145 32.1366C22.8145 31.5354 23.0285 31.0211 23.4565 30.5936C23.8846 30.1661 24.3994 29.9523 25.0007 29.9523C25.6019 29.9523 26.1162 30.1664 26.5437 30.5946C26.9712 31.0226 27.185 31.5373 27.185 32.1386C27.185 32.7398 26.9709 33.2541 26.5427 33.6816C26.1147 34.1091 25.6 34.3228 24.9987 34.3228ZM22.91 27.9523V15.7251H27.0895V27.9523H22.91Z" fill="white"/>
</g>
</svg>
