<svg width="84" height="34" viewBox="0 0 84 34" fill="none" xmlns="http://www.w3.org/2000/svg">
<g clip-path="url(#clip0_33_170)">
<path d="M23.6636 8.42188H19.7578V26.701H23.6636V8.42188Z" fill="#BFC0C0"/>
<path d="M26.6719 20.0739C26.6719 16.0828 29.8018 13.25 34.083 13.25C38.3643 13.25 41.4693 16.0828 41.4693 20.0739C41.4693 24.065 38.3643 26.8978 34.083 26.8978C29.8018 26.8978 26.6719 24.065 26.6719 20.0739ZM37.513 20.0739C37.513 17.7826 36.0358 16.4032 34.083 16.4032C32.13 16.4032 30.628 17.7826 30.628 20.0739C30.628 22.3652 32.13 23.7446 34.083 23.7446C36.0358 23.7446 37.513 22.3652 37.513 20.0739Z" fill="#BFC0C0"/>
<path d="M1 6.59363C1 3.02962 3.79528 0.5 7.61834 0.5C11.4414 0.5 14.2141 3.02962 14.2141 6.59363C14.2141 10.1576 11.4414 12.6873 7.61834 12.6873C3.79528 12.6873 1 10.1576 1 6.59363ZM10.6811 6.59363C10.6811 4.54753 9.36189 3.31573 7.61834 3.31573C5.87412 3.31573 4.53296 4.54753 4.53296 6.59363C4.53296 8.63974 5.87412 9.87153 7.61834 9.87153C9.36189 9.87153 10.6811 8.63974 10.6811 6.59363Z" fill="#BFC0C0"/>
<path d="M43.4531 20.0739C43.4531 16.0828 46.5826 13.25 50.8638 13.25C55.1451 13.25 58.2501 16.0828 58.2501 20.0739C58.2501 24.065 55.1451 26.8978 50.8638 26.8978C46.5826 26.8978 43.4531 24.065 43.4531 20.0739ZM54.2938 20.0739C54.2938 17.7826 52.8166 16.4032 50.8638 16.4032C48.9108 16.4032 47.4088 17.7826 47.4088 20.0739C47.4088 22.3652 48.9108 23.7446 50.8638 23.7446C52.8166 23.7446 54.2938 22.3652 54.2938 20.0739Z" fill="#BFC0C0"/>
<path d="M83.9934 19.1131V26.7008H80.0876V19.7044C80.0876 17.5614 79.1111 16.5761 77.5338 16.5761C75.781 16.5761 74.5542 17.6846 74.5542 20.0492V26.7008H70.6485V19.7044C70.6485 17.5614 69.7219 16.5761 68.0947 16.5761C66.3672 16.5761 65.1404 17.6846 65.1404 20.0492V26.7008H61.2344V13.4472H64.9653V14.9747C65.9664 13.8413 67.4689 13.25 69.1964 13.25C71.0739 13.25 72.6762 13.9645 73.6281 15.4182C74.7047 14.063 76.4568 13.25 78.4853 13.25C81.6899 13.25 83.9934 15.0729 83.9934 19.1131Z" fill="#BFC0C0"/>
<path d="M16.5241 20.6032C16.5241 24.4462 13.5949 26.8357 8.91279 26.8357H4.38367H0.328125V14.3457H8.91279C13.5949 14.3457 16.5241 16.7359 16.5241 20.6032ZM12.4184 20.6032C12.4184 18.7062 11.1663 17.5978 8.68775 17.5978H4.38367V23.5841H8.68775C11.1663 23.5841 12.4184 22.4759 12.4184 20.6032Z" fill="#BFC0C0"/>
<mask id="mask0_33_170" style="mask-type:luminance" maskUnits="userSpaceOnUse" x="0" y="14" width="14" height="13">
<path d="M8.68296 23.5839H5.65451L8.95928 26.8355C9.25503 26.8344 9.54355 26.8237 9.82507 26.8037L13.8935 22.112L12.4134 20.6556C12.3899 22.4966 11.1382 23.5839 8.68296 23.5839ZM2.41279 14.3457C2.15341 14.4918 1.90917 14.6738 1.68776 14.8917C0.343664 16.2142 0.343664 18.3583 1.68776 19.6808L4.37888 22.3289V17.5976H8.68296C8.91025 17.5976 9.12692 17.6069 9.33343 17.6254L6.5551 14.8917C6.33368 14.6738 6.08967 14.4918 5.83029 14.3457H2.41279Z" fill="white"/>
</mask>
<g mask="url(#mask0_33_170)">
<path d="M20.2404 20.7312L6.96805 33.5003L-6 20.4507L7.27238 7.68164L20.2404 20.7312Z" fill="url(#paint0_linear_33_170)"/>
</g>
<mask id="mask1_33_170" style="mask-type:luminance" maskUnits="userSpaceOnUse" x="5" y="14" width="12" height="13">
<path d="M12.2696 14.8926L9.47683 17.6405C11.4298 17.8588 12.4153 18.921 12.4153 20.6039C12.4153 22.4766 11.1632 23.5848 8.6847 23.5848H5.65625L8.96102 26.8364C9.28343 26.8351 9.59838 26.8226 9.90362 26.7989L16.5147 20.2942C16.4042 17.6361 14.8665 15.718 12.308 14.8555C12.2952 14.8677 12.2823 14.8801 12.2696 14.8926Z" fill="white"/>
</mask>
<g mask="url(#mask1_33_170)">
<path d="M22.4895 21.3858L11.5736 9.45708L-0.320312 20.3065L10.5956 32.2352L22.4895 21.3858Z" fill="url(#paint1_linear_33_170)"/>
</g>
</g>
<defs>
<linearGradient id="paint0_linear_33_170" x1="9.29919" y1="18.4937" x2="5.08836" y2="22.6782" gradientUnits="userSpaceOnUse">
<stop stop-color="#E61C76"/>
<stop offset="0.1687" stop-color="#CE1A77"/>
<stop offset="0.4607" stop-color="#A2197A"/>
<stop offset="0.7066" stop-color="#7E1B7C"/>
<stop offset="0.8937" stop-color="#671D7E"/>
<stop offset="1" stop-color="#5D1E7E"/>
</linearGradient>
<linearGradient id="paint1_linear_33_170" x1="13.5402" y1="23.531" x2="8.6674" y2="18.1891" gradientUnits="userSpaceOnUse">
<stop stop-color="#5D1E7E"/>
<stop offset="0.1447" stop-color="#5C3687"/>
<stop offset="0.4604" stop-color="#5468A4"/>
<stop offset="0.9202" stop-color="#2FABD3"/>
<stop offset="1" stop-color="#20B6DA"/>
</linearGradient>
<clipPath id="clip0_33_170">
<rect width="84" height="33" fill="white" transform="translate(0 0.5)"/>
</clipPath>
</defs>
</svg>
