<svg width="120" height="38" viewBox="0 0 120 38" fill="none" xmlns="http://www.w3.org/2000/svg">
<g id="logo" clip-path="url(#clip0_1441_8380)">
<g id="Group">
<g id="Group_2">
<path id="Vector" d="M35.5349 11.4041H30.0029V37.7161H35.5349V11.4041Z" fill="#BFC0C0"/>
<g id="Group_3">
<path id="Vector_2" d="M39.7988 28.177C39.7988 22.432 44.2318 18.354 50.2958 18.354C56.3598 18.354 60.7578 22.432 60.7578 28.177C60.7578 33.922 56.3598 38 50.2958 38C44.2318 38 39.7988 33.922 39.7988 28.177ZM55.1538 28.177C55.1538 24.879 53.0618 22.893 50.2958 22.893C47.5298 22.893 45.4018 24.879 45.4018 28.177C45.4018 31.475 47.5288 33.461 50.2958 33.461C53.0608 33.461 55.1538 31.475 55.1538 28.177Z" fill="#BFC0C0"/>
<path id="Vector_3" d="M0.950928 8.772C0.950928 3.641 4.90993 0 10.3249 0C15.7399 0 19.6669 3.641 19.6669 8.772C19.6669 13.902 15.7399 17.544 10.3249 17.544C4.90993 17.543 0.950928 13.902 0.950928 8.772ZM14.6629 8.772C14.6629 5.827 12.7939 4.054 10.3249 4.054C7.85493 4.054 5.95493 5.827 5.95493 8.772C5.95493 11.717 7.85493 13.49 10.3249 13.49C12.7949 13.49 14.6629 11.717 14.6629 8.772Z" fill="#BFC0C0"/>
<path id="Vector_4" d="M63.5688 28.177C63.5688 22.432 68.0008 18.354 74.0648 18.354C80.1288 18.354 84.5268 22.432 84.5268 28.177C84.5268 33.922 80.1288 38 74.0648 38C68.0008 38 63.5688 33.922 63.5688 28.177ZM78.9228 28.177C78.9228 24.879 76.8308 22.893 74.0648 22.893C71.2989 22.893 69.1708 24.879 69.1708 28.177C69.1708 31.475 71.2978 33.461 74.0648 33.461C76.8308 33.461 78.9228 31.475 78.9228 28.177Z" fill="#BFC0C0"/>
<path id="Vector_5" d="M120.992 26.794V37.716H115.46V27.645C115.46 24.56 114.077 23.142 111.843 23.142C109.36 23.142 107.623 24.738 107.623 28.141V37.716H102.091V27.645C102.091 24.56 100.779 23.142 98.4738 23.142C96.0268 23.142 94.2898 24.738 94.2898 28.141V37.716H88.7578V18.638H94.0418V20.837C95.4598 19.206 97.5878 18.354 100.035 18.354C102.694 18.354 104.964 19.382 106.312 21.475C107.837 19.524 110.318 18.354 113.191 18.354C117.729 18.354 120.992 20.978 120.992 26.794Z" fill="#BFC0C0"/>
<path id="Vector_6" d="M25.418 28.9381C25.418 34.4701 21.269 37.9101 14.638 37.9101H8.223H2.479V19.9301H14.638C21.269 19.9301 25.418 23.3711 25.418 28.9381ZM19.603 28.9381C19.603 26.2071 17.83 24.6121 14.319 24.6121H8.223V33.2291H14.319C17.829 33.2291 19.603 31.6341 19.603 28.9381Z" fill="#BFC0C0"/>
</g>
<g id="Group_4">
<g id="Clip path group">
<mask id="mask0_1441_8380" style="mask-type:luminance" maskUnits="userSpaceOnUse" x="2" y="19" width="20" height="19">
<g id="SVGID_00000108299997964085004440000007237111093382364326_">
<path id="Vector_7" d="M14.3189 33.229H10.0299L14.7109 37.91C15.1299 37.908 15.5389 37.893 15.9369 37.864L21.6989 31.11L19.6029 29.014C19.5689 31.664 17.7959 33.229 14.3189 33.229ZM5.43791 19.931C5.07091 20.141 4.72491 20.403 4.41091 20.717C2.50691 22.621 2.50691 25.707 4.41091 27.611L8.22291 31.423V24.612H14.3189C14.6409 24.612 14.9479 24.625 15.2399 24.652L11.3049 20.717C10.9909 20.403 10.6459 20.141 10.2779 19.931H5.43791Z" fill="white"/>
</g>
</mask>
<g mask="url(#mask0_1441_8380)">
<path id="Vector_8" d="M30.686 29.122L11.887 47.503L-6.47998 28.718L12.319 10.337L30.686 29.122Z" fill="url(#paint0_linear_1441_8380)"/>
</g>
</g>
</g>
<g id="Group_5">
<g id="Clip path group_2">
<mask id="mask1_1441_8380" style="mask-type:luminance" maskUnits="userSpaceOnUse" x="10" y="20" width="16" height="18">
<g id="SVGID_00000136388823928147879040000009988411790593162650_">
<path id="Vector_9" d="M19.3958 20.717L15.4398 24.673C18.2058 24.987 19.6018 26.516 19.6018 28.939C19.6018 31.635 17.8288 33.23 14.3178 33.23H10.0288L14.7098 37.911C15.1668 37.909 15.6128 37.891 16.0448 37.857L25.4088 28.494C25.2528 24.668 23.0748 21.907 19.4508 20.665C19.4318 20.681 19.4138 20.699 19.3958 20.717Z" fill="white"/>
</g>
</mask>
<g mask="url(#mask1_1441_8380)">
<path id="Vector_10" d="M33.8719 30.0631L18.4119 12.8921L1.56592 28.5101L17.0259 45.6811L33.8719 30.0631Z" fill="url(#paint1_linear_1441_8380)"/>
</g>
</g>
</g>
</g>
</g>
</g>
<defs>
<linearGradient id="paint0_linear_1441_8380" x1="15.1531" y1="25.9044" x2="9.09318" y2="31.8296" gradientUnits="userSpaceOnUse">
<stop stop-color="#FC007E"/>
<stop offset="0.3389" stop-color="#BE0683"/>
<stop offset="0.6403" stop-color="#8E0B86"/>
<stop offset="0.8697" stop-color="#710E88"/>
<stop offset="1" stop-color="#660F89"/>
</linearGradient>
<linearGradient id="paint1_linear_1441_8380" x1="21.183" y1="33.1088" x2="14.1572" y2="25.5302" gradientUnits="userSpaceOnUse">
<stop stop-color="#660F89"/>
<stop offset="0.1946" stop-color="#552D99"/>
<stop offset="0.6144" stop-color="#2A77C2"/>
<stop offset="1" stop-color="#00C1EA"/>
</linearGradient>
<clipPath id="clip0_1441_8380">
<rect width="120" height="38" fill="white"/>
</clipPath>
</defs>
</svg>
