<svg width="50" height="50" viewBox="0 0 50 50" fill="none" xmlns="http://www.w3.org/2000/svg">
<g id="ICON">
<circle id="Ellipse 31" cx="25" cy="25" r="25" fill="#5D1E7E"/>
<g id="celebration">
<mask id="mask0_578_8498" style="mask-type:alpha" maskUnits="userSpaceOnUse" x="13" y="13" width="24" height="24">
<rect id="Bounding box" x="13" y="13" width="24" height="24" fill="#D9D9D9"/>
</mask>
<g mask="url(#mask0_578_8498)">
<path id="celebration_2" d="M14.7727 35.3648L20.024 20.6713L29.4722 30.1195L14.7727 35.3648ZM27.7832 25.6398L26.6435 24.5L32.1417 19.0018C32.699 18.4444 33.3716 18.1658 34.1595 18.1658C34.9473 18.1658 35.6199 18.4444 36.1772 19.0018L36.7772 19.6018L35.6315 20.7413L35.0315 20.1413C34.7981 19.9079 34.5065 19.7913 34.1565 19.7913C33.8065 19.7913 33.5148 19.9079 33.2815 20.1413L27.7832 25.6398ZM23.5977 21.4603L22.4582 20.3148L23.0222 19.7505C23.2555 19.5172 23.3722 19.2338 23.3722 18.9005C23.3722 18.5672 23.2555 18.2838 23.0222 18.0505L22.3722 17.4005L23.512 16.2608L24.162 16.9108C24.7191 17.4681 24.9977 18.1323 24.9977 18.9035C24.9977 19.6747 24.7191 20.3389 24.162 20.8963L23.5977 21.4603ZM25.6935 23.55L24.5477 22.4103L28.076 18.882C28.3093 18.6487 28.426 18.357 28.426 18.007C28.426 17.657 28.3093 17.3653 28.076 17.132L26.476 15.532L27.6217 14.3925L29.2217 15.9925C29.7789 16.5497 30.0575 17.2212 30.0575 18.007C30.0575 18.7928 29.7789 19.4644 29.2217 20.0218L25.6935 23.55ZM29.8727 27.7353L28.7332 26.5898L30.2972 25.0255C30.8545 24.4683 31.5271 24.1898 32.315 24.1898C33.1028 24.1898 33.7753 24.4683 34.3325 25.0255L35.9325 26.6255L34.787 27.7713L33.187 26.1713C32.9536 25.9379 32.662 25.8213 32.312 25.8213C31.962 25.8213 31.6703 25.9379 31.437 26.1713L29.8727 27.7353Z" fill="white"/>
</g>
</g>
</g>
</svg>
