<svg width="90" height="80" viewBox="0 0 90 80" fill="none" xmlns="http://www.w3.org/2000/svg">
<g clip-path="url(#clip0_2303_11404)">
<path d="M37.8597 4.12088L1.12786 67.6374C-2.03631 73.1319 1.92579 80 8.28164 80H81.7179C88.0738 80 92.0358 73.1319 88.8717 67.6374L52.1398 4.12088C48.9756 -1.37363 41.0239 -1.37363 37.8322 4.12088H37.8597Z" fill="#D2B7DC"/>
<path d="M81.7183 76.7034H8.2545C6.46606 76.7034 4.87021 75.7693 3.96223 74.2308C3.05426 72.6924 3.05426 70.8242 3.96223 69.2858L40.6941 5.76928C41.6021 4.23082 43.1979 3.29675 44.9864 3.29675C46.7748 3.29675 48.3707 4.23082 49.2786 5.76928L86.0105 69.2858C86.9185 70.8242 86.9185 72.6924 86.0105 74.2308C85.1026 75.7693 83.5067 76.7034 81.7183 76.7034ZM44.9864 7.69236C44.6562 7.69236 44.5737 7.88467 44.5186 7.96708L7.78675 71.4836C7.73172 71.566 7.62167 71.7583 7.78675 72.033C7.95184 72.3077 8.17196 72.3077 8.2545 72.3077H81.7183C81.8283 72.3077 82.0484 72.3077 82.186 72.033C82.3511 71.7583 82.2411 71.566 82.186 71.4836L45.4816 7.96708C45.4266 7.88467 45.3166 7.69236 45.0139 7.69236H44.9864Z" fill="white"/>
<path d="M41.7118 47.0055L40.7488 32.7747C40.5837 30 40.4736 28.022 40.4736 26.8132C40.4736 25.6044 40.9139 23.8736 41.7668 22.967C42.6198 22.0329 43.7754 21.5934 45.1786 21.5934C46.5819 21.5934 48.0126 22.1703 48.5904 23.3516C49.1682 24.5329 49.4434 26.2362 49.4434 28.434C49.4434 30.6318 49.3608 31.0714 49.2232 32.4176L47.9301 47.0604C47.7925 48.7912 47.4898 50.1373 47.0496 51.0714C46.5819 52.0055 45.839 52.4725 44.7934 52.4725C43.7479 52.4725 42.9775 52.0329 42.5647 51.1263C42.152 50.2198 41.8494 48.8461 41.6843 47.0055H41.7118ZM45.0135 66.5659C43.8029 66.5659 42.7573 66.1813 41.8494 65.3846C40.9414 64.6154 40.5011 63.5165 40.5011 62.0879C40.5011 60.6593 40.9414 59.8077 41.7943 58.956C42.6473 58.1044 43.7203 57.6648 44.9585 57.6648C46.1966 57.6648 47.2697 58.1044 48.1502 58.956C49.0306 59.8077 49.4709 60.8516 49.4709 62.0879C49.4709 63.3241 49.0306 64.5604 48.1227 65.3571C47.2422 66.1538 46.1967 66.5384 44.986 66.5384L45.0135 66.5659Z" fill="white"/>
</g>
<defs>
<clipPath id="clip0_2303_11404">
<rect width="90" height="80" fill="white"/>
</clipPath>
</defs>
</svg>
