<svg width="101" height="32" viewBox="0 0 101 32" fill="none" xmlns="http://www.w3.org/2000/svg">
<g id="logo" clip-path="url(#clip0_1301_1231)">
<g id="Group">
<g id="Group_2">
<path id="Vector" d="M29.6124 9.60339H25.0024V31.7609H29.6124V9.60339Z" fill="#BFC0C0"/>
<g id="Group_3">
<path id="Vector_2" d="M33.1658 23.7281C33.1658 18.8902 36.8599 15.4561 41.9133 15.4561C46.9666 15.4561 50.6316 18.8902 50.6316 23.7281C50.6316 28.5659 46.9666 32.0001 41.9133 32.0001C36.8599 32.0001 33.1658 28.5659 33.1658 23.7281ZM45.9616 23.7281C45.9616 20.9508 44.2183 19.2784 41.9133 19.2784C39.6083 19.2784 37.8349 20.9508 37.8349 23.7281C37.8349 26.5053 39.6074 28.1777 41.9133 28.1777C44.2174 28.1777 45.9616 26.5053 45.9616 23.7281Z" fill="#BFC0C0"/>
<path id="Vector_3" d="M0.79248 7.38695C0.79248 3.06611 4.09165 0 8.60415 0C13.1166 0 16.3891 3.06611 16.3891 7.38695C16.3891 11.7069 13.1166 14.7739 8.60415 14.7739C4.09165 14.7731 0.79248 11.7069 0.79248 7.38695ZM12.2191 7.38695C12.2191 4.90695 10.6616 3.41389 8.60415 3.41389C6.54581 3.41389 4.96248 4.90695 4.96248 7.38695C4.96248 9.86695 6.54581 11.36 8.60415 11.36C10.6625 11.36 12.2191 9.86695 12.2191 7.38695Z" fill="#BFC0C0"/>
<path id="Vector_4" d="M52.9741 23.7281C52.9741 18.8902 56.6675 15.4561 61.7208 15.4561C66.7741 15.4561 70.4391 18.8902 70.4391 23.7281C70.4391 28.5659 66.7741 32.0001 61.7208 32.0001C56.6675 32.0001 52.9741 28.5659 52.9741 23.7281ZM65.7691 23.7281C65.7691 20.9508 64.0258 19.2784 61.7208 19.2784C59.4158 19.2784 57.6425 20.9508 57.6425 23.7281C57.6425 26.5053 59.415 28.1777 61.7208 28.1777C64.0258 28.1777 65.7691 26.5053 65.7691 23.7281Z" fill="#BFC0C0"/>
<path id="Vector_5" d="M100.827 22.5634V31.7609H96.2168V23.2801C96.2168 20.6822 95.0643 19.4881 93.2026 19.4881C91.1334 19.4881 89.6859 20.8321 89.6859 23.6977V31.7609H85.0759V23.2801C85.0759 20.6822 83.9826 19.4881 82.0618 19.4881C80.0226 19.4881 78.5751 20.8321 78.5751 23.6977V31.7609H73.9651V15.6952H78.3684V17.547C79.5501 16.1735 81.3234 15.4561 83.3626 15.4561C85.5784 15.4561 87.4701 16.3217 88.5934 18.0843C89.8642 16.4413 91.9318 15.4561 94.3259 15.4561C98.1076 15.4561 100.827 17.6657 100.827 22.5634Z" fill="#BFC0C0"/>
<path id="Vector_6" d="M21.1818 24.3689C21.1818 29.0274 17.7243 31.9243 12.1984 31.9243H6.85258H2.06592V16.7832H12.1984C17.7243 16.7832 21.1818 19.6809 21.1818 24.3689ZM16.3359 24.3689C16.3359 22.0691 14.8584 20.7259 11.9326 20.7259H6.85258V27.9824H11.9326C14.8576 27.9824 16.3359 26.6392 16.3359 24.3689Z" fill="#BFC0C0"/>
</g>
<g id="Group_4">
<g id="Clip path group">
<mask id="mask0_1301_1231" style="mask-type:luminance" maskUnits="userSpaceOnUse" x="2" y="16" width="17" height="16">
<g id="SVGID_00000108299997964085004440000007237111093382364326_">
<path id="Vector_7" d="M11.9325 27.9824H8.35834L12.2592 31.9243C12.6083 31.9226 12.9492 31.91 13.2808 31.8855L18.0825 26.198L16.3358 24.4329C16.3075 26.6645 14.83 27.9824 11.9325 27.9824ZM4.53167 16.7841C4.22584 16.9609 3.93751 17.1815 3.67584 17.446C2.08917 19.0493 2.08917 21.6481 3.67584 23.2514L6.85251 26.4615V20.726H11.9325C12.2008 20.726 12.4567 20.7369 12.7 20.7596L9.42084 17.446C9.15917 17.1815 8.87167 16.9609 8.56501 16.7841H4.53167Z" fill="white"/>
</g>
</mask>
<g mask="url(#mask0_1301_1231)">
<path id="Vector_8" d="M25.5718 24.5239L9.90593 40.0026L-5.3999 24.1837L10.2659 8.70496L25.5718 24.5239Z" fill="url(#paint0_linear_1301_1231)"/>
</g>
</g>
</g>
<g id="Group_5">
<g id="Clip path group_2">
<mask id="mask1_1301_1231" style="mask-type:luminance" maskUnits="userSpaceOnUse" x="8" y="17" width="14" height="15">
<g id="SVGID_00000136388823928147879040000009988411790593162650_">
<path id="Vector_9" d="M16.1633 17.4459L12.8666 20.7773C15.1716 21.0417 16.3349 22.3293 16.3349 24.3697C16.3349 26.64 14.8574 27.9832 11.9316 27.9832H8.35742L12.2583 31.925C12.6391 31.9234 13.0108 31.9082 13.3708 31.8796L21.1741 23.9949C21.0441 20.773 19.2291 18.448 16.2091 17.4021C16.1933 17.4156 16.1783 17.4307 16.1633 17.4459Z" fill="white"/>
</g>
</mask>
<g mask="url(#mask1_1301_1231)">
<path id="Vector_10" d="M28.2266 25.3162L15.3433 10.8564L1.30493 24.0084L14.1883 38.4682L28.2266 25.3162Z" fill="url(#paint1_linear_1301_1231)"/>
</g>
</g>
</g>
</g>
</g>
</g>
<defs>
<linearGradient id="paint0_linear_1301_1231" x1="12.6277" y1="21.8143" x2="7.52606" y2="26.7506" gradientUnits="userSpaceOnUse">
<stop stop-color="#FC007E"/>
<stop offset="0.3389" stop-color="#BE0683"/>
<stop offset="0.6403" stop-color="#8E0B86"/>
<stop offset="0.8697" stop-color="#710E88"/>
<stop offset="1" stop-color="#660F89"/>
</linearGradient>
<linearGradient id="paint1_linear_1301_1231" x1="17.6525" y1="27.8811" x2="11.7316" y2="21.5609" gradientUnits="userSpaceOnUse">
<stop stop-color="#660F89"/>
<stop offset="0.1946" stop-color="#552D99"/>
<stop offset="0.6144" stop-color="#2A77C2"/>
<stop offset="1" stop-color="#00C1EA"/>
</linearGradient>
<clipPath id="clip0_1301_1231">
<rect width="101" height="32" fill="white"/>
</clipPath>
</defs>
</svg>
