<svg width="44" height="40" viewBox="0 0 44 40" fill="none" xmlns="http://www.w3.org/2000/svg">
<g id="Frame 367">
<g id="Group 161">
<path id="Vector" d="M36.0072 14.8223H7.99414V33.6004H36.0072V14.8223Z" fill="white" stroke="#333333" stroke-linecap="round" stroke-linejoin="round"/>
<path id="Vector_2" d="M37 9.60449H7V14.8217H37V9.60449Z" fill="#FF5F5F" stroke="#333333" stroke-linecap="round" stroke-linejoin="round"/>
<g id="Group">
<path id="Vector_3" d="M12.4628 7.04345C12.4628 6.46717 11.9948 6 11.4174 6C10.8401 6 10.3721 6.46717 10.3721 7.04345V11.1695C10.3721 11.7457 10.8401 12.2129 11.4174 12.2129C11.9948 12.2129 12.4628 11.7457 12.4628 11.1695V7.04345Z" fill="white" stroke="#333333" stroke-linecap="round" stroke-linejoin="round"/>
<path id="Vector_4" d="M31.5343 11.1694C31.5343 11.7457 32.0023 12.2129 32.5796 12.2129C33.157 12.2129 33.625 11.7457 33.625 11.1694V7.04343C33.625 6.46714 33.157 5.99997 32.5796 5.99997C32.0023 5.99997 31.5343 6.46714 31.5343 7.04343V11.1694Z" fill="white" stroke="#333333" stroke-linecap="round" stroke-linejoin="round"/>
</g>
<path id="Vector_5" d="M24.5 19C23.1208 19 22 20.0821 22 21.4137C22 20.0821 20.8792 19 19.5 19C18.1208 19 17 20.0821 17 21.4137C17 21.5072 17.0046 21.5962 17.0185 21.6853C17.1061 23.5557 18.0655 25.2924 19.6522 26.3835L22 28L24.3478 26.3835C25.9345 25.2924 26.8985 23.5557 26.9815 21.6853C26.9908 21.5962 27 21.5072 27 21.4137C27 20.0821 25.8792 19 24.5 19Z" fill="#FF5F5F" stroke="#333333" stroke-linecap="round" stroke-linejoin="round"/>
</g>
</g>
</svg>
