<svg width="44" height="40" viewBox="0 0 44 40" fill="none" xmlns="http://www.w3.org/2000/svg">
<g id="Frame 367">
<g id="Group 153">
<path id="Vector" d="M33.0547 18.9861C33.1722 18.9861 33.2897 18.9611 33.4045 18.9111C36.4434 17.5301 36.9583 15.7685 36.9975 14.8404C37.045 13.6956 36.435 12.6286 35.4052 12.0562C34.3559 11.4727 33.119 11.5282 32.0977 12.209C29.7863 13.7456 26.2912 12.9037 26.2576 12.8953C25.8099 12.7814 25.351 13.0537 25.2391 13.5011C25.1271 13.9485 25.3986 14.3986 25.8463 14.5125C26.017 14.557 30.0941 15.549 33.0323 13.5928C33.7319 13.1287 34.3503 13.3816 34.5853 13.5094C35.061 13.7734 35.3437 14.2569 35.3213 14.7709C35.2821 15.699 34.3307 16.6549 32.7077 17.394C32.2851 17.5857 32.1005 18.0803 32.2935 18.4999C32.4335 18.8055 32.7385 18.9861 33.0575 18.9861H33.0547Z" fill="white" stroke="#333333" stroke-linecap="round" stroke-linejoin="round"/>
<path id="Vector_2" d="M32.355 20.3178C33.5501 19.8144 34.2361 18.7443 33.8872 17.9277C33.5383 17.1112 32.2867 16.8574 31.0916 17.3608C29.8965 17.8643 29.2106 18.9344 29.5594 19.751C29.9083 20.5675 31.16 20.8213 32.355 20.3178Z" fill="#BBE0F0" stroke="#333333" stroke-linecap="round" stroke-linejoin="round"/>
<path id="Vector_3" d="M10.9454 18.9861C10.8278 18.9861 10.7103 18.9611 10.5956 18.9111C7.55665 17.5301 7.03897 15.7685 7.00259 14.8404C6.95502 13.6956 7.56505 12.6286 8.59482 12.0562C9.64417 11.4727 10.881 11.5282 11.9024 12.209C14.2138 13.7456 17.7088 12.9037 17.7424 12.8953C18.1901 12.7814 18.6491 13.0537 18.761 13.5011C18.8729 13.9485 18.6015 14.3986 18.1538 14.5125C17.9831 14.557 13.906 15.549 10.9678 13.5928C10.2682 13.1287 9.64977 13.3816 9.41471 13.5094C8.93901 13.7734 8.65638 14.2569 8.67877 14.7709C8.71794 15.699 9.66936 16.6549 11.2924 17.394C11.7149 17.5857 11.8996 18.0803 11.7065 18.4999C11.5666 18.8055 11.2616 18.9861 10.9426 18.9861H10.9454Z" fill="white" stroke="#333333" stroke-linecap="round" stroke-linejoin="round"/>
<path id="Vector_4" d="M27.699 14.1624C27.699 11.0364 25.147 10 21.9989 10C18.8509 10 16.2988 11.0364 16.2988 14.1624C16.2988 15.2878 16.629 16.5271 17.1999 17.658C18.4899 20.2143 19.1615 23.0374 19.335 25.8939L19.5952 30.1869H24.4027L24.6629 25.8939C24.8364 23.0374 25.508 20.2171 26.798 17.658C27.3688 16.5298 27.699 15.2878 27.699 14.1624Z" fill="#FF5F5F" stroke="#333333" stroke-linecap="round" stroke-linejoin="round"/>
<path id="Vector_5" d="M14.4399 19.75C14.7888 18.9335 14.1028 17.8634 12.9078 17.3599C11.7127 16.8564 10.4611 17.1102 10.1122 17.9268C9.7633 18.7433 10.4493 19.8134 11.6443 20.3169C12.8394 20.8204 14.091 20.5666 14.4399 19.75Z" fill="#BBE0F0" stroke="#333333" stroke-linecap="round" stroke-linejoin="round"/>
<path id="Vector_6" d="M25.4491 12.5645C24.3773 12.695 23.2161 12.7645 22.0016 12.7645C20.7871 12.7645 19.6259 12.695 18.5541 12.5645C17.9805 13.1091 17.9805 13.7732 17.9805 14.1622C17.9805 15.0097 18.2351 15.9878 18.7024 16.9103C19.0186 17.5355 19.2985 18.1773 19.5503 18.8414C19.7966 19.4944 20.2863 20.0085 20.8935 20.2919C21.0082 22.2064 20.9271 24.1987 21.0138 26.2688L21.1789 30.1839H22.8243L22.9894 26.2688C23.0761 24.1987 22.995 22.2036 23.1097 20.2919C23.717 20.0057 24.2039 19.4944 24.4529 18.8414C24.7047 18.1801 24.9874 17.5355 25.3036 16.9103C25.7681 15.9878 26.0255 15.0097 26.0255 14.1622C26.0255 13.7732 26.0255 13.1091 25.4519 12.5645H25.4491Z" fill="#DDD6D3" stroke="#333333" stroke-linecap="round" stroke-linejoin="round"/>
<path id="Vector_7" d="M22.7079 16.7706C23.2969 16.1857 23.4572 15.3967 23.066 15.0082C22.6748 14.6197 21.8801 14.7789 21.2911 15.3638C20.7021 15.9487 20.5418 16.7378 20.933 17.1263C21.3242 17.5147 22.1188 17.3555 22.7079 16.7706Z" fill="#FFE1D7" stroke="#333333" stroke-linecap="round" stroke-linejoin="round"/>
</g>
</g>
</svg>
