<svg width="32" height="30" viewBox="0 0 32 30" fill="none" xmlns="http://www.w3.org/2000/svg">
<g id="Frame" clip-path="url(#clip0_500_7645)">
<g id="Color">
<path id="Vector" d="M22.9914 2.41309H1.29688V29.4642H22.9914V2.41309Z" fill="white"/>
<path id="Vector_2" d="M30.3912 21.3242L27.3005 16.9103L28.0424 16.3907C28.5861 16.0104 28.7173 15.2604 28.337 14.7167L27.4906 13.5088L21.4697 17.7245L22.3161 18.9324C22.6964 19.4761 23.4463 19.6074 23.99 19.227L24.6221 18.7824L27.7129 23.1936C28.2164 23.9141 29.2074 24.0882 29.9279 23.5847L30.0002 23.5338C30.7207 23.0303 30.8948 22.0393 30.3912 21.3188V21.3242Z" fill="#74AAFF"/>
<path id="Vector_3" d="M19.9116 17.9472C24.719 17.9472 28.6162 14.0501 28.6162 9.24267C28.6162 4.43526 24.719 0.538086 19.9116 0.538086C15.1042 0.538086 11.207 4.43526 11.207 9.24267C11.207 14.0501 15.1042 17.9472 19.9116 17.9472Z" fill="#74AAFF"/>
<path id="Vector_4" d="M19.9111 16.3407C23.8309 16.3407 27.0086 13.163 27.0086 9.24309C27.0086 5.3232 23.8309 2.14551 19.9111 2.14551C15.9912 2.14551 12.8135 5.3232 12.8135 9.24309C12.8135 13.163 15.9912 16.3407 19.9111 16.3407Z" fill="#D5E1EF"/>
<path id="Vector_5" d="M20.4467 16.3406C24.0707 16.3406 27.0086 13.4028 27.0086 9.77871C27.0086 6.15467 24.0707 3.2168 20.4467 3.2168C16.8226 3.2168 13.8848 6.15467 13.8848 9.77871C13.8848 13.4028 16.8226 16.3406 20.4467 16.3406Z" fill="#EDF2F8"/>
<path id="Vector_6" d="M7.99304 15.2686H5.04688V25.1784H7.99304V15.2686Z" fill="#FFAA4C"/>
<path id="Vector_7" d="M13.6171 18.751H10.6709V25.179H13.6171V18.751Z" fill="#4F88FF"/>
<path id="Vector_8" d="M19.2421 20.3574H16.2959V25.1784H19.2421V20.3574Z" fill="#E23B3B"/>
<path id="Vector_9" d="M8.39432 10.9832H4.91249C4.69019 10.9832 4.51074 10.8037 4.51074 10.5814C4.51074 10.3591 4.69019 10.1797 4.91249 10.1797H8.39432C8.61663 10.1797 8.79607 10.3591 8.79607 10.5814C8.79607 10.8037 8.61663 10.9832 8.39432 10.9832Z" fill="#C5D5F0"/>
<path id="Vector_10" d="M8.39432 8.03787H4.91249C4.69019 8.03787 4.51074 7.85843 4.51074 7.63612C4.51074 7.41382 4.69019 7.23438 4.91249 7.23438H8.39432C8.61663 7.23438 8.79607 7.41382 8.79607 7.63612C8.79607 7.85843 8.61663 8.03787 8.39432 8.03787Z" fill="#C5D5F0"/>
</g>
<g id="Line">
<g id="Group">
<path id="Vector_11" d="M23.1248 29.9994H1.16249C0.94019 29.9994 0.760742 29.82 0.760742 29.5977V2.2787C0.760742 2.0564 0.94019 1.87695 1.16249 1.87695H14.2863C14.5086 1.87695 14.6881 2.0564 14.6881 2.2787C14.6881 2.501 14.5086 2.68045 14.2863 2.68045H1.56424V29.1959H22.7231V19.6879C22.7231 19.4656 22.9025 19.2861 23.1248 19.2861C23.3471 19.2861 23.5266 19.4656 23.5266 19.6879V29.5977C23.5266 29.82 23.3471 29.9994 23.1248 29.9994Z" fill="#333333"/>
<path id="Vector_12" d="M19.9292 18.483C19.3908 18.483 18.8471 18.4348 18.3061 18.3411C15.8742 17.9125 13.7583 16.5627 12.3415 14.5405C10.9246 12.5184 10.3809 10.0677 10.8121 7.63577C11.2407 5.20384 12.5905 3.08796 14.6127 1.67112C16.6322 0.256964 19.0855 -0.286737 21.5148 0.141796C23.9467 0.570329 26.0626 1.92021 27.4794 3.94235C28.8962 5.96449 29.4399 8.41516 29.0087 10.8471C28.5802 13.279 27.2303 15.3949 25.2082 16.8117C23.636 17.9125 21.8067 18.4857 19.9292 18.4857V18.483ZM19.8917 0.803344C18.1775 0.803344 16.5063 1.32562 15.0707 2.32999C13.2253 3.62363 11.9933 5.55738 11.6022 7.77504C11.2112 9.99538 11.7067 12.2318 13.0003 14.0798C14.294 15.9252 16.2277 17.1572 18.4454 17.5483C20.6657 17.9393 22.9021 17.4438 24.7502 16.1502C26.5955 14.8566 27.8276 12.9228 28.2186 10.7051C28.6097 8.4848 28.1142 6.24839 26.8205 4.40034C25.5269 2.55497 23.5931 1.32294 21.3755 0.931904C20.88 0.843519 20.3845 0.800666 19.8917 0.800666V0.803344Z" fill="#333333"/>
<path id="Vector_13" d="M23.2591 19.9317C22.7208 19.9317 22.1905 19.6773 21.8584 19.2059L21.2236 18.3006C21.095 18.1185 21.1406 17.8694 21.3227 17.7408C21.5048 17.6149 21.7539 17.6578 21.8825 17.8399L22.5172 18.7452C22.8038 19.1523 23.3663 19.2514 23.7734 18.9675L27.7802 16.1606C27.9784 16.0213 28.1096 15.8151 28.1524 15.5794C28.1953 15.341 28.1417 15.1027 28.0025 14.9045L27.3677 13.9992C27.2391 13.8171 27.2847 13.568 27.4668 13.4394C27.6489 13.3109 27.898 13.3564 28.0266 13.5385L28.6613 14.4438C28.9238 14.8161 29.0229 15.2687 28.9452 15.7187C28.8676 16.166 28.6158 16.557 28.2435 16.8195L24.2367 19.6264C23.9394 19.8353 23.5993 19.9344 23.2618 19.9344L23.2591 19.9317Z" fill="#333333"/>
<path id="Vector_14" d="M28.9232 24.3887C28.2777 24.3887 27.643 24.086 27.2466 23.5182L24.1933 19.1579C24.1317 19.0695 24.1076 18.9624 24.1263 18.8579C24.1451 18.7535 24.204 18.6597 24.2924 18.5981L27.2573 16.5224C27.4394 16.3939 27.6885 16.4394 27.8171 16.6215L30.8704 20.9819C31.5158 21.9032 31.2909 23.1808 30.3695 23.8262L30.0937 24.0191C29.7374 24.2682 29.3303 24.3887 28.9259 24.3887H28.9232ZM25.0825 19.0267L27.9055 23.0576C28.2965 23.6173 29.0705 23.7539 29.6303 23.3629L29.9062 23.1701C30.4659 22.779 30.6025 22.005 30.2115 21.4452L27.3885 17.4143L25.0825 19.0294V19.0267Z" fill="#333333"/>
<path id="Vector_15" d="M19.9103 16.6078C15.85 16.6078 12.5449 13.3027 12.5449 9.24237C12.5449 5.18201 15.85 1.87695 19.9103 1.87695C23.9707 1.87695 27.2757 5.18201 27.2757 9.24237C27.2757 13.3027 23.9707 16.6078 19.9103 16.6078ZM19.9103 2.41262C16.1446 2.41262 13.0806 5.47663 13.0806 9.24237C13.0806 13.0081 16.1446 16.0721 19.9103 16.0721C23.6761 16.0721 26.7401 13.0081 26.7401 9.24237C26.7401 5.47663 23.6761 2.41262 19.9103 2.41262Z" fill="#333333"/>
<path id="Vector_16" d="M7.99232 25.4465H5.04615C4.89885 25.4465 4.77832 25.3259 4.77832 25.1786V15.2688C4.77832 15.1215 4.89885 15.001 5.04615 15.001H7.99232C8.13963 15.001 8.26015 15.1215 8.26015 15.2688V25.1786C8.26015 25.3259 8.13963 25.4465 7.99232 25.4465ZM5.31399 24.9108H7.72449V15.5366H5.31399V24.9108Z" fill="#333333"/>
<path id="Vector_17" d="M13.6163 25.4471H10.6702C10.5229 25.4471 10.4023 25.3265 10.4023 25.1792V18.7512C10.4023 18.6039 10.5229 18.4834 10.6702 18.4834H13.6163C13.7637 18.4834 13.8842 18.6039 13.8842 18.7512V25.1792C13.8842 25.3265 13.7637 25.4471 13.6163 25.4471ZM10.938 24.9114H13.3485V19.0191H10.938V24.9114Z" fill="#333333"/>
<path id="Vector_18" d="M19.2413 25.4465H16.2952C16.1479 25.4465 16.0273 25.326 16.0273 25.1787V20.3577C16.0273 20.2104 16.1479 20.0898 16.2952 20.0898H19.2413C19.3887 20.0898 19.5092 20.2104 19.5092 20.3577V25.1787C19.5092 25.326 19.3887 25.4465 19.2413 25.4465ZM16.563 24.9108H18.9735V20.6255H16.563V24.9108Z" fill="#333333"/>
</g>
<g id="Group_2">
<g id="Group_3">
<path id="Vector_19" d="M21.5702 6.16992C20.9739 6.16992 20.4341 6.39532 20.0338 6.76098C19.6336 6.39532 19.0937 6.16992 18.4975 6.16992C17.2646 6.16992 16.2627 7.13164 16.2627 8.31625C16.2627 10.7331 20.0312 12.8243 20.0312 12.8243C20.0312 12.8243 23.7996 10.7306 23.7996 8.31625C23.7996 7.13164 22.8004 6.16992 21.5676 6.16992H21.5702Z" fill="#E23B3B"/>
<path id="Vector_20" d="M18.4996 6.1695C17.2668 6.1695 16.2676 7.13121 16.2676 8.31583C16.2676 10.0214 18.1451 11.5641 19.249 12.3255C20.0441 11.8421 22.8053 10.0114 22.8053 7.94266C22.8053 7.21637 22.4293 6.57522 21.8571 6.18703C21.7631 6.17451 21.6691 6.16699 21.5724 6.16699C20.9761 6.16699 20.4363 6.39239 20.036 6.75805C19.6358 6.39239 19.0959 6.16699 18.4996 6.16699V6.1695Z" fill="#FF5F5F"/>
</g>
<path id="Vector_21" d="M20.0666 13C20.0236 13 19.9807 12.99 19.9431 12.9699C19.7819 12.8823 16 10.8186 16 8.33918C16 7.04937 17.1254 6 18.5087 6C19.0782 6 19.6234 6.17782 20.0639 6.5059C20.5071 6.17782 21.0524 6 21.6191 6C23.0024 6 24.1278 7.04937 24.1278 8.33918C24.1278 10.8161 20.346 12.8823 20.1848 12.9699C20.1472 12.99 20.1042 13 20.0612 13H20.0666ZM18.5114 6.45581C17.3994 6.45581 16.4915 7.29982 16.4915 8.33918C16.4915 10.3227 19.4247 12.1335 20.0666 12.5041C20.7086 12.1309 23.6417 10.3202 23.6417 8.33918C23.6417 7.30233 22.7365 6.45581 21.6218 6.45581C21.1034 6.45581 20.6119 6.63864 20.2331 6.97424C20.1391 7.05689 19.9914 7.05689 19.8974 6.97424C19.5187 6.64115 19.0271 6.45581 18.5087 6.45581H18.5114Z" fill="#333333"/>
</g>
</g>
</g>
<defs>
<clipPath id="clip0_500_7645">
<rect width="30.4794" height="30" fill="white" transform="translate(0.760742)"/>
</clipPath>
</defs>
</svg>
