<svg width="44" height="40" viewBox="0 0 44 40" fill="none" xmlns="http://www.w3.org/2000/svg">
<g id="Frame 368">
<g id="Group 147">
<g id="Color">
<g id="Group">
<path id="Vector" d="M27.7468 11.915H7.53223V27.3419H27.7468V11.915Z" fill="white"/>
<path id="Vector_2" d="M15.7776 13.2451H10.458V18.5647H15.7776V13.2451Z" fill="#FF5F5F"/>
<path id="Vector_3" d="M24.0227 13.2451H18.7031V18.5647H24.0227V13.2451Z" fill="#74AAFF"/>
<path id="Vector_4" d="M15.7776 20.1602H10.458V25.4798H15.7776V20.1602Z" fill="#74AAFF"/>
<path id="Vector_5" d="M24.0227 20.1602H18.7031V25.4798H24.0227V20.1602Z" fill="#74AAFF"/>
<path id="Vector_6" d="M8.10941 7.12695H28.2335C28.5527 7.12695 28.8107 7.38495 28.8107 7.70413V10.8507H7.53223V7.70413C7.53223 7.38495 7.79023 7.12695 8.10941 7.12695Z" fill="#4F88FF"/>
<path id="Vector_7" d="M12.5801 5.53125H12.0588C11.762 5.53125 11.5215 5.7718 11.5215 6.06853V7.91976C11.5215 8.21649 11.762 8.45704 12.0588 8.45704H12.5801C12.8768 8.45704 13.1174 8.21649 13.1174 7.91976V6.06853C13.1174 5.7718 12.8768 5.53125 12.5801 5.53125Z" fill="#D5E1EF"/>
<path id="Vector_8" d="M18.4317 5.53125H17.9103C17.6136 5.53125 17.373 5.7718 17.373 6.06853V7.91976C17.373 8.21649 17.6136 8.45704 17.9103 8.45704H18.4317C18.7284 8.45704 18.9689 8.21649 18.9689 7.91976V6.06853C18.9689 5.7718 18.7284 5.53125 18.4317 5.53125Z" fill="#D5E1EF"/>
<path id="Vector_9" d="M24.2842 5.53125H23.7629C23.4661 5.53125 23.2256 5.7718 23.2256 6.06853V7.91976C23.2256 8.21649 23.4661 8.45704 23.7629 8.45704H24.2842C24.5809 8.45704 24.8215 8.21649 24.8215 7.91976V6.06853C24.8215 5.7718 24.5809 5.53125 24.2842 5.53125Z" fill="#D5E1EF"/>
<path id="Vector_10" d="M28.8107 27.3418H7.53223V28.9377H28.8107V27.3418Z" fill="white"/>
<path id="Vector_11" d="M28.8107 28.9375H7.53223V31.0653H28.8107V28.9375Z" fill="#D5E1EF"/>
<path id="Vector_12" d="M23.5787 29.8531L31.5182 19.1846C32.0449 18.477 31.8986 17.477 31.1911 16.9503L32.3029 15.4555L29.9569 13.708L28.8451 15.2028C28.1376 14.6762 27.1375 14.8225 26.6109 15.53L18.6714 26.1985L18.0303 25.7224L17.0781 27.0017L23.2648 31.6085L24.2171 30.3292L23.576 29.8531H23.5787Z" fill="#D5E1EF"/>
<path id="Vector_13" d="M31.3634 12.9365L30.6719 14.043L31.7358 15.1069L32.6428 13.8887L31.3634 12.9365Z" fill="#FFAA4C"/>
<path id="Vector_14" d="M18.9853 32.2357L20.8312 29.7354L19.5013 28.9375L17.7059 31.2835L15.7855 29.8551L14.9902 30.9217L20.1104 34.7332L20.9057 33.6666L18.9853 32.2357Z" fill="#C5D5F0"/>
<path id="Vector_15" d="M21.6929 30.4406L30.4543 18.6549C30.981 17.9474 30.8347 16.9474 30.1272 16.4207L31.239 14.9259L29.8319 13.8779L28.8451 15.2052C28.1376 14.6785 27.1375 14.8248 26.6109 15.5323L18.6714 26.2008L18.0303 25.7247L17.0781 27.0041L21.6929 30.4379V30.4406Z" fill="white"/>
<path id="Vector_16" d="M31.1917 16.9523L32.3035 15.4575L29.9575 13.71L28.8457 15.2048C28.1382 14.6781 27.1381 14.8244 26.6115 15.5319L21.8584 21.9155L26.7418 25.602L31.5188 19.1865C32.0455 18.479 31.8992 17.4789 31.1917 16.9523Z" fill="#FFAA4C"/>
<path id="Vector_17" d="M25.8109 24.9002L30.4549 18.6549C30.9815 17.9474 30.8353 16.9474 30.1277 16.4207L31.2395 14.9259L29.8325 13.8779L28.8457 15.2052C28.1382 14.6785 27.1381 14.8248 26.6115 15.5323L21.8584 21.9159L25.8109 24.8975V24.9002Z" fill="#FFC960"/>
</g>
</g>
<g id="Line">
<g id="Group_2">
<path id="Vector_18" d="M14.9289 31.066H7.39897C7.17821 31.066 7 30.8877 7 30.667V7.69154C7 7.08777 7.49206 6.5957 8.09584 6.5957H11.1227C11.3435 6.5957 11.5217 6.77391 11.5217 6.99467C11.5217 7.21544 11.3435 7.39365 11.1227 7.39365H8.09584C7.93093 7.39365 7.79794 7.52664 7.79794 7.69154V30.268H14.9289C15.1497 30.268 15.3279 30.4462 15.3279 30.667C15.3279 30.8877 15.1497 31.066 14.9289 31.066Z" fill="#333333"/>
<path id="Vector_19" d="M28.9431 31.0661H24.4214C24.2007 31.0661 24.0225 30.8879 24.0225 30.6671C24.0225 30.4463 24.2007 30.2681 24.4214 30.2681H28.5441V22.9537C28.5441 22.7329 28.7223 22.5547 28.9431 22.5547C29.1639 22.5547 29.3421 22.7329 29.3421 22.9537V30.6671C29.3421 30.8879 29.1639 31.0661 28.9431 31.0661Z" fill="#333333"/>
<path id="Vector_20" d="M28.943 15.1071C28.7223 15.1071 28.544 14.9289 28.544 14.7081V7.69154C28.544 7.52664 28.4111 7.39365 28.2461 7.39365H25.2193C24.9985 7.39365 24.8203 7.21544 24.8203 6.99467C24.8203 6.77391 24.9985 6.5957 25.2193 6.5957H28.2461C28.8499 6.5957 29.342 7.08777 29.342 7.69154V14.7081C29.342 14.9289 29.1638 15.1071 28.943 15.1071Z" fill="#333333"/>
<path id="Vector_21" d="M22.8255 7.39365H19.3677C19.147 7.39365 18.9688 7.21544 18.9688 6.99467C18.9688 6.77391 19.147 6.5957 19.3677 6.5957H22.8255C23.0462 6.5957 23.2244 6.77391 23.2244 6.99467C23.2244 7.21544 23.0462 7.39365 22.8255 7.39365Z" fill="#333333"/>
<path id="Vector_22" d="M16.9739 7.39365H13.5162C13.2954 7.39365 13.1172 7.21544 13.1172 6.99467C13.1172 6.77391 13.2954 6.5957 13.5162 6.5957H16.9739C17.1947 6.5957 17.3729 6.77391 17.3729 6.99467C17.3729 7.21544 17.1947 7.39365 16.9739 7.39365Z" fill="#333333"/>
<path id="Vector_23" d="M28.8101 11.1179H7.53161C7.38532 11.1179 7.26562 10.9982 7.26562 10.8519C7.26562 10.7056 7.38532 10.5859 7.53161 10.5859H28.8101C28.9564 10.5859 29.0761 10.7056 29.0761 10.8519C29.0761 10.9982 28.9564 11.1179 28.8101 11.1179Z" fill="#333333"/>
<path id="Vector_24" d="M19.2348 29.2038H7.53161C7.38532 29.2038 7.26562 29.0841 7.26562 28.9379C7.26562 28.7916 7.38532 28.6719 7.53161 28.6719H19.2348C19.3811 28.6719 19.5008 28.7916 19.5008 28.9379C19.5008 29.0841 19.3811 29.2038 19.2348 29.2038Z" fill="#333333"/>
<path id="Vector_25" d="M28.5448 29.2038H24.555C24.4088 29.2038 24.2891 29.0841 24.2891 28.9379C24.2891 28.7916 24.4088 28.6719 24.555 28.6719H28.5448C28.691 28.6719 28.8107 28.7916 28.8107 28.9379C28.8107 29.0841 28.691 29.2038 28.5448 29.2038Z" fill="#333333"/>
<path id="Vector_26" d="M17.1069 27.6081H7.53161C7.38532 27.6081 7.26562 27.4884 7.26562 27.3422C7.26562 27.1959 7.38532 27.0762 7.53161 27.0762H17.1069C17.2532 27.0762 17.3729 27.1959 17.3729 27.3422C17.3729 27.4884 17.2532 27.6081 17.1069 27.6081Z" fill="#333333"/>
<path id="Vector_27" d="M28.5443 27.6081H25.6185C25.4722 27.6081 25.3525 27.4884 25.3525 27.3422C25.3525 27.1959 25.4722 27.0762 25.6185 27.0762H28.5443C28.6906 27.0762 28.8103 27.1959 28.8103 27.3422C28.8103 27.4884 28.6906 27.6081 28.5443 27.6081Z" fill="#333333"/>
<path id="Vector_28" d="M12.5692 8.98972H12.0691C11.4733 8.98972 10.9893 8.50563 10.9893 7.90983V6.07988C10.9893 5.48409 11.4733 5 12.0691 5H12.5692C13.165 5 13.6491 5.48409 13.6491 6.07988V7.90983C13.6491 8.50563 13.165 8.98972 12.5692 8.98972ZM12.0691 5.79794C11.9149 5.79794 11.7872 5.92295 11.7872 6.07988V7.90983C11.7872 8.0641 11.9122 8.19177 12.0691 8.19177H12.5692C12.7235 8.19177 12.8511 8.06676 12.8511 7.90983V6.07988C12.8511 5.92561 12.7261 5.79794 12.5692 5.79794H12.0691Z" fill="#333333"/>
<path id="Vector_29" d="M24.2733 8.98972H23.7732C23.1774 8.98972 22.6934 8.50563 22.6934 7.90983V6.07988C22.6934 5.48409 23.1774 5 23.7732 5H24.2733C24.8691 5 25.3532 5.48409 25.3532 6.07988V7.90983C25.3532 8.50563 24.8691 8.98972 24.2733 8.98972ZM23.7732 5.79794C23.619 5.79794 23.4913 5.92295 23.4913 6.07988V7.90983C23.4913 8.0641 23.6163 8.19177 23.7732 8.19177H24.2733C24.4276 8.19177 24.5552 8.06676 24.5552 7.90983V6.07988C24.5552 5.92561 24.4302 5.79794 24.2733 5.79794H23.7732Z" fill="#333333"/>
<path id="Vector_30" d="M18.4207 8.98972H17.9207C17.3249 8.98972 16.8408 8.50563 16.8408 7.90983V6.07988C16.8408 5.48409 17.3249 5 17.9207 5H18.4207C19.0165 5 19.5006 5.48409 19.5006 6.07988V7.90983C19.5006 8.50563 19.0165 8.98972 18.4207 8.98972ZM17.9207 5.79794C17.7664 5.79794 17.6388 5.92295 17.6388 6.07988V7.90983C17.6388 8.0641 17.7638 8.19177 17.9207 8.19177H18.4207C18.575 8.19177 18.7027 8.06676 18.7027 7.90983V6.07988C18.7027 5.92561 18.5777 5.79794 18.4207 5.79794H17.9207Z" fill="#333333"/>
<path id="Vector_31" d="M23.2649 32.0102C23.1798 32.0102 23.0947 31.9836 23.0255 31.9304L16.8388 27.3236C16.6606 27.1933 16.626 26.9432 16.7564 26.765L17.7086 25.4857C17.8416 25.3101 18.0889 25.2729 18.2671 25.4032L18.5863 25.6426L26.2891 15.2933C26.8636 14.5193 27.8956 14.2852 28.7361 14.6788L29.6325 13.474C29.6963 13.3888 29.7894 13.333 29.8958 13.317C29.9995 13.3011 30.1059 13.3277 30.1911 13.3915L32.537 15.139C32.7126 15.2693 32.7498 15.5193 32.6195 15.6976L31.7231 16.9024C31.9838 17.1924 32.1513 17.5514 32.2098 17.9424C32.287 18.4691 32.154 18.9957 31.8375 19.4239L24.1347 29.7733L24.4538 30.0127C24.6321 30.143 24.6666 30.393 24.5363 30.5712L23.5841 31.8506C23.5202 31.9357 23.4272 31.9916 23.3208 32.0075C23.3021 32.0102 23.2809 32.0128 23.2622 32.0128L23.2649 32.0102ZM17.6368 26.9246L23.1851 31.0553L23.6612 30.4143L23.342 30.1749C23.2569 30.1111 23.2011 30.018 23.1851 29.9116C23.1692 29.8078 23.1958 29.7015 23.2596 29.6163L31.2018 18.9478C31.5954 18.4185 31.4864 17.6658 30.9571 17.2722C30.872 17.2083 30.8161 17.1152 30.8002 17.0088C30.7842 16.9051 30.8108 16.7987 30.8746 16.7136L31.747 15.5406L30.0394 14.2692L29.167 15.4422C29.0367 15.6178 28.7867 15.655 28.6085 15.5247C28.0792 15.131 27.3264 15.2401 26.9328 15.7694L18.9933 26.4379C18.8629 26.6134 18.6129 26.6507 18.4347 26.5203L18.1155 26.2809L17.6394 26.922L17.6368 26.9246Z" fill="#333333"/>
<path id="Vector_32" d="M32.1614 13.4661C32.1055 13.4661 32.0497 13.4502 32.0018 13.4129C31.8848 13.3252 31.8582 13.1576 31.9486 13.0406L35.6005 8.13321C35.6883 8.01618 35.8558 7.98958 35.9729 8.07735C36.0899 8.16513 36.1165 8.33269 36.0287 8.44973L32.3768 13.3571C32.3236 13.4262 32.2438 13.4635 32.164 13.4635L32.1614 13.4661Z" fill="#333333"/>
<path id="Vector_33" d="M32.0071 15.0091C31.9513 15.0091 31.8954 14.9932 31.8476 14.956C31.7305 14.8682 31.7066 14.7006 31.7944 14.5836L32.2705 13.9426L31.4167 13.3069L30.9406 13.9479C30.8528 14.0649 30.6852 14.0915 30.5682 14.0037C30.4512 13.916 30.4246 13.7484 30.515 13.6314L31.1507 12.7776C31.1932 12.7217 31.2544 12.6845 31.3262 12.6738C31.3954 12.6632 31.4672 12.6818 31.5231 12.7244L32.8024 13.6766C32.8583 13.7191 32.8955 13.7803 32.9062 13.8521C32.9168 13.9213 32.8982 13.9931 32.8556 14.049L32.2199 14.9028C32.1667 14.9719 32.0869 15.0091 32.0071 15.0091Z" fill="#333333"/>
<path id="Vector_34" d="M20.1106 35.0004C20.0548 35.0004 19.9989 34.9818 19.951 34.9472L14.8309 31.1357C14.7139 31.0479 14.6873 30.8803 14.7777 30.7633L15.573 29.6967C15.6155 29.6409 15.6767 29.6036 15.7485 29.593C15.8203 29.5824 15.8895 29.601 15.9453 29.6435L17.6529 30.9149L19.0813 28.9945C19.169 28.8775 19.3366 28.8509 19.4536 28.9387C19.5707 29.0265 19.5973 29.194 19.5095 29.3111L17.9216 31.4442C17.879 31.5001 17.8179 31.5373 17.746 31.548C17.6769 31.5586 17.6051 31.54 17.5492 31.4974L15.8416 30.226L15.3655 30.867L20.0601 34.362L20.5362 33.721L18.8286 32.4496C18.7115 32.3619 18.6849 32.1943 18.7727 32.0773L20.3606 29.9441C20.4484 29.8271 20.616 29.8005 20.733 29.8882C20.85 29.976 20.8766 30.1436 20.7889 30.2606L19.3605 32.181L21.0681 33.4524C21.1852 33.5402 21.2118 33.7077 21.124 33.8248L20.3287 34.8913C20.2862 34.9472 20.225 34.9844 20.1532 34.9951C20.1399 34.9951 20.1266 34.9977 20.1159 34.9977L20.1106 35.0004Z" fill="#333333"/>
<path id="Vector_35" d="M30.0071 20.8157C29.9513 20.8157 29.8954 20.7997 29.8476 20.7625L28.5682 19.8103C28.4512 19.7225 28.4246 19.5549 28.515 19.4379C28.6028 19.3209 28.7703 19.2943 28.8874 19.382L30.1667 20.3343C30.2838 20.422 30.3104 20.5896 30.2226 20.7066C30.1694 20.7758 30.0896 20.813 30.0098 20.813L30.0071 20.8157Z" fill="#333333"/>
<path id="Vector_36" d="M28.2597 23.1614C28.2038 23.1614 28.148 23.1454 28.1001 23.1082L26.8207 22.156C26.7037 22.0682 26.6771 21.9006 26.7649 21.7836C26.8526 21.6666 27.0202 21.64 27.1372 21.7277L28.4166 22.68C28.5336 22.7677 28.5602 22.9353 28.4725 23.0523C28.4193 23.1215 28.3395 23.1587 28.2597 23.1587V23.1614Z" fill="#333333"/>
<path id="Vector_37" d="M26.5119 25.5075C26.456 25.5075 26.4002 25.4915 26.3523 25.4543L25.0729 24.5021C24.9559 24.4143 24.9319 24.2467 25.0197 24.1297C25.1075 24.0127 25.2751 23.9861 25.3921 24.0765L26.6715 25.0287C26.7885 25.1165 26.8124 25.2841 26.7246 25.4011C26.6715 25.4703 26.5917 25.5075 26.5119 25.5075Z" fill="#333333"/>
<path id="Vector_38" d="M24.765 27.8557C24.7091 27.8557 24.6532 27.8398 24.6054 27.8025L23.326 26.8503C23.209 26.7625 23.1824 26.595 23.2728 26.4779C23.3606 26.3609 23.5281 26.3343 23.6452 26.4221L24.9245 27.3743C25.0416 27.4621 25.0682 27.6296 24.9804 27.7467C24.9272 27.8158 24.8474 27.8531 24.7676 27.8531L24.765 27.8557Z" fill="#333333"/>
</g>
</g>
</g>
</g>
</svg>
