<svg width="44" height="40" viewBox="0 0 44 40" fill="none" xmlns="http://www.w3.org/2000/svg">
<g id="Frame 367">
<g id="Group 145">
<g id="Color">
<g id="Group">
<path id="Vector" d="M32.3479 24.7166L31.5256 23.9092C30.211 25.9641 28.5554 27.6518 26.4707 28.8723L27.293 29.6797C28.1703 30.5411 29.5949 30.5411 30.475 29.6797L32.3506 27.8381C33.228 26.9767 33.228 25.578 32.3506 24.7139L32.3479 24.7166Z" fill="#FFC960"/>
<path id="Vector_2" d="M36.1238 30.7172L32.7686 27.4229L30.0459 30.0961L33.4011 33.3905C34.0199 33.9981 35.021 33.9981 35.6398 33.3905L36.1238 32.9153C36.7426 32.3077 36.7426 31.3248 36.1238 30.7172Z" fill="#FFC960"/>
<path id="Vector_3" d="M20.1949 30.374C27.1818 30.374 32.8458 24.8128 32.8458 17.9526C32.8458 11.0925 27.1818 5.53125 20.1949 5.53125C13.208 5.53125 7.54395 11.0925 7.54395 17.9526C7.54395 24.8128 13.208 30.374 20.1949 30.374Z" fill="#74AAFF"/>
<path id="Vector_4" d="M20.1949 28.2127C25.9667 28.2127 30.6457 23.6186 30.6457 17.9516C30.6457 12.2845 25.9667 7.69043 20.1949 7.69043C14.4231 7.69043 9.74414 12.2845 9.74414 17.9516C9.74414 23.6186 14.4231 28.2127 20.1949 28.2127Z" fill="#D5E1EF"/>
<path id="Vector_5" d="M29.5698 13.6396C27.7657 10.8745 24.6112 9.04102 21.0167 9.04102C17.4222 9.04102 14.2704 10.8745 12.4636 13.6396C11.7843 14.9331 11.3965 16.402 11.3965 17.9601C11.3965 23.1744 15.7033 27.4031 21.0139 27.4031C26.3246 27.4031 30.6314 23.1744 30.6314 17.9601C30.6314 16.402 30.2464 14.9358 29.5643 13.6396H29.5698Z" fill="#EDF2F8"/>
</g>
<path id="Vector_6" d="M24.8127 16.2277H22.1103V13.4922H18.1938V16.2277H15.4922V20.1924H18.1938V22.9279H22.1103V20.1924H24.8127V16.2277Z" fill="white" stroke="#333333" stroke-miterlimit="10" stroke-linecap="round" stroke-linejoin="round"/>
</g>
<g id="Line">
<g id="Group_2">
<path id="Vector_7" d="M20.1955 30.9073C16.8155 30.9073 13.4355 29.6436 10.8613 27.1161C5.7129 22.0639 5.7129 13.8415 10.8613 8.7892C16.0069 3.73693 24.384 3.73693 29.5297 8.7892C34.6753 13.8415 34.6753 22.0666 29.5297 27.1188C26.9555 29.6463 23.5755 30.91 20.1955 30.91V30.9073ZM20.1955 5.80536C17.0272 5.80536 13.8563 6.9908 11.4443 9.35896C6.61772 14.098 6.61772 21.8073 11.4443 26.5464C16.2682 31.2827 24.12 31.2827 28.9466 26.5464C33.7705 21.8073 33.7705 14.1007 28.9466 9.36166C26.5347 6.9908 23.3637 5.80806 20.1955 5.80806V5.80536Z" fill="#333333"/>
<path id="Vector_8" d="M20.195 28.4796C17.4476 28.4796 14.7029 27.4535 12.61 25.4012C8.42689 21.2941 8.42689 14.6135 12.61 10.5091C16.7903 6.40192 23.597 6.40192 27.7773 10.5091C31.9604 14.6162 31.9604 21.2968 27.7773 25.4012C25.6872 27.4535 22.9397 28.4796 20.1923 28.4796H20.195ZM20.195 7.9681C17.5906 7.9681 14.9834 8.9429 13.0005 10.8898C9.03194 14.7864 9.03194 21.124 13.0005 25.0205C16.969 28.917 23.4237 28.917 27.3923 25.0205C31.3608 21.124 31.3608 14.7864 27.3923 10.8898C25.4094 8.9429 22.8022 7.9681 20.1978 7.9681H20.195Z" fill="#333333"/>
<path id="Vector_9" d="M28.881 30.7345C28.1989 30.7345 27.5169 30.4807 26.9999 29.9703L26.4498 29.4303C26.2876 29.2709 26.2876 29.0144 26.4498 28.8578C26.6121 28.6985 26.8734 28.6985 27.0329 28.8578L27.5829 29.3979C28.298 30.0999 29.464 30.0999 30.1818 29.3979L32.0575 27.5563C32.7725 26.8542 32.7725 25.7092 32.0575 25.0045L31.5074 24.4644C31.3452 24.3051 31.3452 24.0486 31.5074 23.8919C31.6697 23.7326 31.931 23.7326 32.0905 23.8919L32.6405 24.432C33.6774 25.45 33.6774 27.108 32.6405 28.1287L30.7649 29.9703C30.2451 30.4807 29.5631 30.7345 28.8838 30.7345H28.881Z" fill="#333333"/>
<path id="Vector_10" d="M34.5216 34.2497C34.0101 34.2497 33.5013 34.0579 33.1107 33.6772L29.7555 30.3828C29.5932 30.2235 29.5932 29.967 29.7555 29.8104L32.4782 27.1371C32.6404 26.9777 32.9017 26.9777 33.0612 27.1371L36.4165 30.4314C37.1948 31.1956 37.1948 32.4378 36.4165 33.2019L35.9324 33.6772C35.5447 34.0579 35.0331 34.2497 34.5216 34.2497ZM30.6328 30.0966L33.6965 33.1047C34.1531 33.553 34.8956 33.553 35.3494 33.1047L35.8334 32.6295C36.29 32.1812 36.29 31.4521 35.8334 31.0066L32.7697 27.9985L30.6301 30.0993L30.6328 30.0966Z" fill="#333333"/>
</g>
</g>
</g>
</g>
</svg>
