<svg width="44" height="40" viewBox="0 0 44 40" fill="none" xmlns="http://www.w3.org/2000/svg">
<g id="Frame 367">
<g id="Group">
<g id="Layer_1">
<path id="Vector" d="M16.0177 26.2668C17.5063 26.2668 18.7131 25.06 18.7131 23.5714C18.7131 22.0828 17.5063 20.876 16.0177 20.876C14.529 20.876 13.3223 22.0828 13.3223 23.5714C13.3223 25.06 14.529 26.2668 16.0177 26.2668Z" fill="white" stroke="#333333" stroke-linecap="round" stroke-linejoin="round"/>
<path id="Vector_2" d="M34.1605 5H20.5939C20.0604 5 19.6279 5.43249 19.6279 5.96598V7.58634C19.6279 8.11984 20.0604 8.55232 20.5939 8.55232H34.1605C34.694 8.55232 35.1265 8.11984 35.1265 7.58634V5.96598C35.1265 5.43249 34.694 5 34.1605 5Z" fill="#60C2EC" stroke="#333333" stroke-linecap="round" stroke-linejoin="round"/>
<path id="Vector_3" d="M33.4671 8.55273H21.291V11.4312H33.4671V8.55273Z" fill="white" stroke="#333333" stroke-linecap="round" stroke-linejoin="round"/>
<path id="Vector_4" d="M34.406 11.4307H20.3486C19.2193 11.4307 18.3037 12.3462 18.3037 13.4756V32.9549C18.3037 34.0843 19.2193 34.9999 20.3486 34.9999H34.406C35.5354 34.9999 36.4509 34.0843 36.4509 32.9549V13.4756C36.4509 12.3462 35.5354 11.4307 34.406 11.4307Z" fill="white" stroke="#333333" stroke-linecap="round" stroke-linejoin="round"/>
<g id="Vector_5" style="mix-blend-mode:darken">
<path d="M36.451 13.4756V32.951C36.451 34.0806 35.5356 34.996 34.406 34.996H31.2627C32.3923 34.996 33.3076 34.0806 33.3076 32.951V13.4756C33.3076 12.346 32.3923 11.4307 31.2627 11.4307H34.406C35.5356 11.4307 36.451 12.346 36.451 13.4756Z" fill="#DDD6D3"/>
</g>
<g id="Vector_6" style="mix-blend-mode:darken">
<path d="M33.4667 8.55273H30.0156V11.4312H33.4667V8.55273Z" fill="#DDD6D3"/>
</g>
<path id="Vector_7" d="M27.3791 28.9515C30.5478 28.9515 33.1165 26.3828 33.1165 23.214C33.1165 20.0453 30.5478 17.4766 27.3791 17.4766C24.2104 17.4766 21.6416 20.0453 21.6416 23.214C21.6416 26.3828 24.2104 28.9515 27.3791 28.9515Z" fill="#BBE0F0" stroke="#333333" stroke-linecap="round" stroke-linejoin="round"/>
<path id="Vector_8" d="M30.4647 21.9284H28.6691V20.1289H26.0905V21.9284H24.291V24.5031H26.0905V26.3026H28.6691V24.5031H30.4647V21.9284Z" fill="white" stroke="#333333" stroke-linecap="round" stroke-linejoin="round"/>
<path id="Vector_9" d="M13.6522 34.9957C14.8181 34.9957 15.7633 34.0505 15.7633 32.8846C15.7633 31.7186 14.8181 30.7734 13.6522 30.7734C12.4862 30.7734 11.541 31.7186 11.541 32.8846C11.541 34.0505 12.4862 34.9957 13.6522 34.9957Z" fill="white" stroke="#333333" stroke-linecap="round" stroke-linejoin="round"/>
<path id="Vector_10" d="M13.2441 32.8848H14.066" stroke="#333333" stroke-linecap="round" stroke-linejoin="round"/>
<path id="Vector_11" d="M9.11114 29.107C10.2771 29.107 11.2223 28.1619 11.2223 26.9959C11.2223 25.83 10.2771 24.8848 9.11114 24.8848C7.94519 24.8848 7 25.83 7 26.9959C7 28.1619 7.94519 29.107 9.11114 29.107Z" fill="white" stroke="#333333" stroke-linecap="round" stroke-linejoin="round"/>
<path id="Vector_12" d="M8.82227 27.2884L9.40263 26.708" stroke="#333333" stroke-linecap="round" stroke-linejoin="round"/>
<path id="Vector_13" d="M15.2891 22.8428L16.7458 24.2995" stroke="#333333" stroke-linecap="round" stroke-linejoin="round"/>
</g>
</g>
</g>
</svg>
