<svg width="44" height="40" viewBox="0 0 44 40" fill="none" xmlns="http://www.w3.org/2000/svg">
<g id="Frame 374">
<g id="Group">
<g id="Layer_1">
<g id="Group_2">
<path id="Vector" d="M22.5204 9.97461V8.625H17.67V9.97461C17.67 10.3847 17.3382 10.7203 16.9244 10.7203C16.5142 10.7203 16.1787 11.0521 16.1787 11.4659V31.2179C16.1787 32.2096 16.984 33.0149 17.9757 33.0149H22.2072C23.1989 33.0149 24.0042 32.2096 24.0042 31.2179V11.4659C24.0042 11.0558 23.6724 10.7203 23.2586 10.7203C22.8485 10.7203 22.5129 10.3884 22.5129 9.97461H22.5204Z" fill="white" stroke="#333333" stroke-linecap="round" stroke-linejoin="round"/>
<path id="Vector_2" d="M23.6203 6H16.5703V8.62466H23.6203V6Z" fill="#D0E1FF" stroke="#333333" stroke-linecap="round" stroke-linejoin="round"/>
<path id="Vector_3" d="M24.0081 13.6123H16.1826V28.0293H24.0081V13.6123Z" fill="#95B7FF" stroke="#333333" stroke-linecap="round" stroke-linejoin="round"/>
</g>
<g id="Group_3">
<path id="Vector_4" d="M30.0021 17.4958L26.9912 13.042L11.9557 23.2065L14.9667 27.6603L30.0021 17.4958Z" fill="white" stroke="#333333" stroke-linecap="round" stroke-linejoin="round"/>
<path id="Vector_5" d="M35.0175 13.1434L32.9023 10.0146L28.8717 12.7395L30.9868 15.8683L35.0175 13.1434Z" fill="white" stroke="#333333" stroke-linecap="round" stroke-linejoin="round"/>
<path id="Vector_6" d="M14.2602 26.6144L12.667 24.2578L9.47952 26.4126L11.0727 28.7693L14.2602 26.6144Z" fill="#FE6D33" stroke="#333333" stroke-linecap="round" stroke-linejoin="round"/>
<path id="Vector_7" d="M10.2771 27.5908L7 29.8054" stroke="#333333" stroke-linecap="round" stroke-linejoin="round"/>
<path id="Vector_8" d="M32.1108 17.5289L27.751 11.0798C27.4835 10.6841 26.9458 10.5802 26.55 10.8477C26.1543 11.1152 26.0504 11.6529 26.3179 12.0487L30.6777 18.4978C30.9452 18.8935 31.4829 18.9974 31.8787 18.7299C32.2744 18.4624 32.3783 17.9247 32.1108 17.5289Z" fill="white" stroke="#333333" stroke-linecap="round" stroke-linejoin="round"/>
<path id="Vector_9" d="M36.5153 12.4424L34.087 8.85035C33.8194 8.45461 33.2817 8.35067 32.886 8.61821C32.4902 8.88575 32.3863 9.42345 32.6538 9.81919L35.0822 13.4113C35.3497 13.807 35.8874 13.911 36.2832 13.6434C36.6789 13.3759 36.7829 12.8382 36.5153 12.4424Z" fill="white" stroke="#333333" stroke-linecap="round" stroke-linejoin="round"/>
<path id="Vector_10" d="M19.8849 24.3366L16.874 19.8828L11.9569 23.2069L14.9678 27.6608L19.8849 24.3366Z" fill="#FE6D33" stroke="#333333" stroke-linecap="round" stroke-linejoin="round"/>
<g id="Vector_11" style="mix-blend-mode:darken">
<path d="M30.0038 17.4978L28.9932 16.0029L18.8748 22.8433L19.8854 24.3382L30.0038 17.4978Z" fill="#D0E1FF"/>
</g>
<g id="Vector_12" style="mix-blend-mode:darken">
<path d="M35.0165 13.1433L34.0059 11.6484L29.9752 14.3733L30.9858 15.8682L35.0165 13.1433Z" fill="#D0E1FF"/>
</g>
<path id="Vector_13" d="M25.9023 17.0293L26.51 17.9278" stroke="#333333" stroke-linecap="round" stroke-linejoin="round"/>
<path id="Vector_14" d="M23.5605 18.6094L24.1682 19.5079" stroke="#333333" stroke-linecap="round" stroke-linejoin="round"/>
<path id="Vector_15" d="M21.2227 20.1904L21.8304 21.0927" stroke="#333333" stroke-linecap="round" stroke-linejoin="round"/>
</g>
</g>
</g>
</g>
</svg>
