<svg width="44" height="40" viewBox="0 0 44 40" fill="none" xmlns="http://www.w3.org/2000/svg">
<g id="Frame 367">
<g id="Group 144">
<path id="Vector" d="M14.6354 18.1816H7.55078V34.031H14.6354V18.1816Z" fill="white"/>
<path id="Vector_2" d="M14.6354 18.1816H7.55078V34.031H14.6354V18.1816Z" stroke="#333333" stroke-miterlimit="10" stroke-linecap="round" stroke-linejoin="round"/>
<path id="Vector_3" d="M29.4012 11.7988H14.6396V34.0322H29.4012V11.7988Z" fill="white"/>
<path id="Vector_4" d="M29.4012 11.7988H14.6396V34.0322H29.4012V11.7988Z" stroke="#333333" stroke-miterlimit="10" stroke-linecap="round" stroke-linejoin="round"/>
<path id="Vector_5" d="M26.7739 15.1719H25.2451V17.2656H26.7739V15.1719Z" fill="#D2EEFF"/>
<path id="Vector_6" d="M26.7739 15.1719H25.2451V17.2656H26.7739V15.1719Z" stroke="#333333" stroke-miterlimit="10" stroke-linecap="round" stroke-linejoin="round"/>
<path id="Vector_7" d="M22.7876 15.1719H21.2588V17.2656H22.7876V15.1719Z" fill="#D2EEFF"/>
<path id="Vector_8" d="M22.7876 15.1719H21.2588V17.2656H22.7876V15.1719Z" stroke="#333333" stroke-miterlimit="10" stroke-linecap="round" stroke-linejoin="round"/>
<path id="Vector_9" d="M18.7925 15.1719H17.2637V17.2656H18.7925V15.1719Z" fill="#D2EEFF"/>
<path id="Vector_10" d="M18.7925 15.1719H17.2637V17.2656H18.7925V15.1719Z" stroke="#333333" stroke-miterlimit="10" stroke-linecap="round" stroke-linejoin="round"/>
<path id="Vector_11" d="M26.7739 19.834H25.2451V21.9277H26.7739V19.834Z" fill="#D2EEFF"/>
<path id="Vector_12" d="M26.7739 19.834H25.2451V21.9277H26.7739V19.834Z" stroke="#333333" stroke-miterlimit="10" stroke-linecap="round" stroke-linejoin="round"/>
<path id="Vector_13" d="M22.7876 19.834H21.2588V21.9277H22.7876V19.834Z" fill="#D2EEFF"/>
<path id="Vector_14" d="M22.7876 19.834H21.2588V21.9277H22.7876V19.834Z" stroke="#333333" stroke-miterlimit="10" stroke-linecap="round" stroke-linejoin="round"/>
<path id="Vector_15" d="M18.7925 19.834H17.2637V21.9277H18.7925V19.834Z" fill="#D2EEFF"/>
<path id="Vector_16" d="M18.7925 19.834H17.2637V21.9277H18.7925V19.834Z" stroke="#333333" stroke-miterlimit="10" stroke-linecap="round" stroke-linejoin="round"/>
<path id="Vector_17" d="M26.7739 24.499H25.2451V26.5927H26.7739V24.499Z" fill="#D2EEFF"/>
<path id="Vector_18" d="M26.7739 24.499H25.2451V26.5927H26.7739V24.499Z" stroke="#333333" stroke-miterlimit="10" stroke-linecap="round" stroke-linejoin="round"/>
<path id="Vector_19" d="M22.7866 24.499H21.2578V26.5927H22.7866V24.499Z" fill="#D2EEFF"/>
<path id="Vector_20" d="M22.7866 24.499H21.2578V26.5927H22.7866V24.499Z" stroke="#333333" stroke-miterlimit="10" stroke-linecap="round" stroke-linejoin="round"/>
<path id="Vector_21" d="M18.7925 24.499H17.2637V26.5927H18.7925V24.499Z" fill="#D2EEFF"/>
<path id="Vector_22" d="M18.7925 24.499H17.2637V26.5927H18.7925V24.499Z" stroke="#333333" stroke-miterlimit="10" stroke-linecap="round" stroke-linejoin="round"/>
<path id="Vector_23" d="M25.3798 5H18.6562V11.7971H25.3798V5Z" fill="#FF5F5F"/>
<path id="Vector_24" d="M25.3798 5H18.6562V11.7971H25.3798V5Z" stroke="#333333" stroke-miterlimit="10" stroke-linecap="round" stroke-linejoin="round"/>
<path id="Vector_25" d="M23.8385 7.62602H22.7836V6.55957H21.2548V7.62602H20.2002V9.17163H21.2548V10.2381H22.7836V9.17163H23.8385V7.62602Z" fill="white"/>
<path id="Vector_26" d="M23.8385 7.62602H22.7836V6.55957H21.2548V7.62602H20.2002V9.17163H21.2548V10.2381H22.7836V9.17163H23.8385V7.62602Z" stroke="#333333" stroke-miterlimit="10" stroke-linecap="round" stroke-linejoin="round"/>
<path id="Vector_27" d="M29.6584 11.7969H14.3789V12.9435H29.6584V11.7969Z" fill="#D2EEFF"/>
<path id="Vector_28" d="M29.6584 11.7969H14.3789V12.9435H29.6584V11.7969Z" stroke="#333333" stroke-miterlimit="10" stroke-linecap="round" stroke-linejoin="round"/>
<path id="Vector_29" d="M22.0192 29.1621H19.1338V34.0313H22.0192V29.1621Z" fill="#74AAFF"/>
<path id="Vector_30" d="M22.0192 29.1621H19.1338V34.0313H22.0192V29.1621Z" stroke="#333333" stroke-miterlimit="10" stroke-linecap="round" stroke-linejoin="round"/>
<path id="Vector_31" d="M24.9047 29.1631H22.0195V34.0323H24.9047V29.1631Z" fill="#74AAFF"/>
<path id="Vector_32" d="M24.9047 29.1631H22.0195V34.0323H24.9047V29.1631Z" stroke="#333333" stroke-miterlimit="10" stroke-linecap="round" stroke-linejoin="round"/>
<path id="Vector_33" d="M11.8628 19.834H10.334V21.9277H11.8628V19.834Z" fill="#D2EEFF"/>
<path id="Vector_34" d="M11.8628 19.834H10.334V21.9277H11.8628V19.834Z" stroke="#333333" stroke-miterlimit="10" stroke-linecap="round" stroke-linejoin="round"/>
<path id="Vector_35" d="M11.8628 24.499H10.334V26.5927H11.8628V24.499Z" fill="#D2EEFF"/>
<path id="Vector_36" d="M11.8628 24.499H10.334V26.5927H11.8628V24.499Z" stroke="#333333" stroke-miterlimit="10" stroke-linecap="round" stroke-linejoin="round"/>
<path id="Vector_37" d="M11.8628 29.1621H10.334V31.2558H11.8628V29.1621Z" fill="#D2EEFF"/>
<path id="Vector_38" d="M11.8628 29.1621H10.334V31.2558H11.8628V29.1621Z" stroke="#333333" stroke-miterlimit="10" stroke-linecap="round" stroke-linejoin="round"/>
<path id="Vector_39" d="M36.4831 18.1816H29.3984V34.031H36.4831V18.1816Z" fill="white"/>
<path id="Vector_40" d="M36.4831 18.1816H29.3984V34.031H36.4831V18.1816Z" stroke="#333333" stroke-miterlimit="10" stroke-linecap="round" stroke-linejoin="round"/>
<path id="Vector_41" d="M33.7105 19.834H32.1816V21.9277H33.7105V19.834Z" fill="#D2EEFF"/>
<path id="Vector_42" d="M33.7105 19.834H32.1816V21.9277H33.7105V19.834Z" stroke="#333333" stroke-miterlimit="10" stroke-linecap="round" stroke-linejoin="round"/>
<path id="Vector_43" d="M33.7105 24.499H32.1816V26.5927H33.7105V24.499Z" fill="#D2EEFF"/>
<path id="Vector_44" d="M33.7105 24.499H32.1816V26.5927H33.7105V24.499Z" stroke="#333333" stroke-miterlimit="10" stroke-linecap="round" stroke-linejoin="round"/>
<path id="Vector_45" d="M33.7105 29.1631H32.1816V31.2568H33.7105V29.1631Z" fill="#D2EEFF"/>
<path id="Vector_46" d="M33.7105 29.1631H32.1816V31.2568H33.7105V29.1631Z" stroke="#333333" stroke-miterlimit="10" stroke-linecap="round" stroke-linejoin="round"/>
<path id="Vector_47" d="M14.6396 17.0342H7V18.1808H14.6396V17.0342Z" fill="#D2EEFF"/>
<path id="Vector_48" d="M14.6396 17.0342H7V18.1808H14.6396V17.0342Z" stroke="#333333" stroke-miterlimit="10" stroke-linecap="round" stroke-linejoin="round"/>
<path id="Vector_49" d="M37.0383 17.0342H29.3984V18.1808H37.0383V17.0342Z" fill="#D2EEFF"/>
<path id="Vector_50" d="M37.0383 17.0342H29.3984V18.1808H37.0383V17.0342Z" stroke="#333333" stroke-miterlimit="10" stroke-linecap="round" stroke-linejoin="round"/>
</g>
</g>
</svg>
