<svg width="44" height="40" viewBox="0 0 44 40" fill="none" xmlns="http://www.w3.org/2000/svg">
<g id="Frame 376">
<g id="Group">
<g id="Layer_1">
<path id="Vector" d="M29.9771 16.6589V7.9121H30.385C31.1898 7.9121 31.8425 7.2609 31.8425 6.458C31.8425 5.65511 31.1898 5.00391 30.385 5.00391H24.34C23.5352 5.00391 22.8825 5.65511 22.8825 6.458C22.8825 7.2609 23.5352 7.9121 24.34 7.9121H24.7479V16.6589C20.8427 17.7911 17.9834 21.3801 17.9834 25.6425C17.9834 30.8114 22.1816 34.9998 27.3625 34.9998C32.5434 34.9998 36.7416 30.8114 36.7416 25.6425C36.7416 21.3801 33.8823 17.7911 29.9771 16.6589Z" fill="white" stroke="#333333" stroke-linecap="round" stroke-linejoin="round"/>
<path id="Vector_2" d="M16.9637 6.4541C16.9637 7.2607 16.311 7.9119 15.5062 7.9119H15.0983V32.3874C15.0983 33.1089 14.8053 33.7638 14.3306 34.2337C13.8596 34.7073 13.2032 34.9996 12.48 34.9996C11.0374 34.9996 9.86544 33.8304 9.86544 32.3874V7.9119H9.45749C8.65272 7.9119 8 7.2607 8 6.4541C8 5.6475 8.65272 5 9.45749 5H15.5062C16.311 5 16.9637 5.6512 16.9637 6.4541Z" fill="white" stroke="#333333" stroke-linecap="round" stroke-linejoin="round"/>
<path id="Vector_3" d="M9.86523 7.91211H12.0756" stroke="#333333" stroke-linecap="round" stroke-linejoin="round"/>
<path id="Vector_4" d="M24.7412 7.91211H27.3595" stroke="#333333" stroke-linecap="round" stroke-linejoin="round"/>
<path id="Vector_5" d="M15.0981 16.9736V32.3878C15.0981 33.1093 14.8051 33.7642 14.3304 34.2341C13.8594 34.7077 13.203 35 12.4798 35C11.0372 35 9.86523 33.8308 9.86523 32.3878V16.9736H15.0981Z" fill="#95B7FF" stroke="#333333" stroke-linecap="round" stroke-linejoin="round"/>
<path id="Vector_6" d="M27.1937 25.8196C27.9975 25.0177 27.7274 23.448 26.5905 22.3138C25.4536 21.1795 23.8803 20.9101 23.0765 21.712C22.2727 22.514 22.5428 24.0836 23.6797 25.2179C24.8166 26.3521 26.3899 26.6215 27.1937 25.8196Z" fill="#FF5F5F" stroke="#333333" stroke-linecap="round" stroke-linejoin="round"/>
<g id="Vector_7">
<path d="M31.7753 30.3935C31.6084 29.7164 30.9223 29.0356 30.2473 28.8691C29.5686 28.7026 28.8862 28.0181 28.7194 27.3447C28.5525 26.6676 27.8664 25.9868 27.1914 25.8203" fill="white"/>
<path d="M31.7753 30.3935C31.6084 29.7164 30.9223 29.0356 30.2473 28.8691C29.5686 28.7026 28.8862 28.0181 28.7194 27.3447C28.5525 26.6676 27.8664 25.9868 27.1914 25.8203" stroke="#333333" stroke-linecap="round" stroke-linejoin="round"/>
</g>
<g id="Vector_8" style="mix-blend-mode:darken">
<path d="M36.7384 25.6423C36.7384 30.8112 32.5403 34.9996 27.3593 34.9996C27.3296 34.9996 27.2963 34.9996 27.2666 34.9959C31.4573 34.9515 34.8396 30.7816 34.8396 25.6423C34.8396 21.8054 32.3511 19.0674 29.5326 17.7354C28.9429 17.4579 28.5832 16.8474 28.5832 16.1962V7.9119H29.655C30.3151 7.9119 30.8454 7.2607 30.8454 6.4541C30.8454 5.6475 30.3151 5 29.655 5H30.304C31.0939 5 31.8022 5.592 31.843 6.3801C31.8838 7.22 31.2126 7.9119 30.3818 7.9119H29.9776V16.6587C33.8828 17.7909 36.7384 21.3799 36.7384 25.6423Z" fill="#DDD6D3"/>
</g>
<g id="Vector_9" style="mix-blend-mode:darken">
<path d="M29.3251 7.91211H24.7412V9.14051H29.3251V7.91211Z" fill="#DDD6D3"/>
</g>
</g>
</g>
</g>
</svg>
