<svg width="44" height="40" viewBox="0 0 44 40" fill="none" xmlns="http://www.w3.org/2000/svg">
<g id="Frame 368">
<g id="Group 170">
<g id="Group">
<path id="Vector" d="M35.0001 11.9676C35.0001 9.22334 32.7948 7 30.0728 7C27.3508 7 25.1455 9.22334 25.1455 11.9676V19.3067H35.0001V11.9633V11.9676Z" fill="#FF5F5F" stroke="#333333" stroke-linecap="round" stroke-linejoin="round"/>
<path id="Vector_2" d="M25.1455 19.3062V26.6495C25.1455 29.3938 27.3508 31.6171 30.0728 31.6171C32.7948 31.6171 35.0001 29.3938 35.0001 26.6495V19.3062H25.1455Z" fill="white" stroke="#333333" stroke-linecap="round" stroke-linejoin="round"/>
<path id="Vector_3" d="M35.0001 11.9676C35.0001 9.22334 32.7948 7 30.0728 7C27.3508 7 25.1455 9.22334 25.1455 11.9676V19.3067H35.0001V11.9633V11.9676Z" fill="#FF5F5F" stroke="#333333" stroke-linecap="round" stroke-linejoin="round"/>
</g>
<g id="Group_2">
<path id="Vector_4" d="M20.7427 31.5449C22.6665 33.4845 25.7876 33.4845 27.7114 31.5449C29.6353 29.6053 29.6353 26.4588 27.7114 24.5192L22.5615 19.3271L15.5928 26.3529L20.7427 31.5449Z" fill="#4F88FF" stroke="#333333" stroke-linecap="round" stroke-linejoin="round"/>
<path id="Vector_5" d="M22.5616 19.3323L17.4117 14.1402C15.4878 12.2006 12.3668 12.2006 10.4429 14.1402C8.51903 16.0798 8.51903 19.2264 10.4429 21.166L15.5928 26.358L22.5616 19.3323Z" fill="white" stroke="#333333" stroke-linecap="round" stroke-linejoin="round"/>
<path id="Vector_6" d="M20.7427 31.5449C22.6665 33.4845 25.7876 33.4845 27.7114 31.5449C29.6353 29.6053 29.6353 26.4588 27.7114 24.5192L22.5615 19.3271L15.5928 26.3529L20.7427 31.5449Z" fill="#95B7FF" stroke="#333333" stroke-linecap="round" stroke-linejoin="round"/>
</g>
</g>
</g>
</svg>
