<svg width="44" height="40" viewBox="0 0 44 40" fill="none" xmlns="http://www.w3.org/2000/svg">
<g id="Frame 367">
<g id="Group 150">
<g id="Color">
<g id="Group">
<path id="Vector" d="M20.5655 31.3211H14.7485V29.5597L9.80421 23.1021L7.26091 13.6988C7.21526 13.5335 7.28508 13.3574 7.43279 13.268C8.09077 12.8696 8.9448 13.1027 9.31274 13.7828L12.13 18.9939L12.3556 18.8042C13.1774 18.1132 14.4074 18.2514 15.0546 19.1104C15.7932 20.0914 16.6794 21.235 17.0742 21.6333C17.657 22.2214 19.9452 23.5627 20.2728 24.8608C20.681 26.4731 20.5628 31.3184 20.5628 31.3184L20.5655 31.3211Z" fill="#FF9F91"/>
<path id="Vector_2" d="M25.5314 5.2627C24.1214 5.2627 22.8431 5.8399 21.8951 6.77751C20.947 5.84261 19.6687 5.2627 18.2587 5.2627C15.3367 5.2627 12.9707 7.72597 12.9707 10.7664C12.9707 16.9558 21.8951 22.3213 21.8951 22.3213C21.8951 22.3213 30.8194 16.9558 30.8194 10.7664C30.8194 7.72868 28.4507 5.2627 25.5314 5.2627Z" fill="#E23B3B"/>
<path id="Vector_3" d="M18.2616 5.2627C15.3397 5.2627 12.9736 7.72597 12.9736 10.7664C12.9736 15.1375 17.421 19.0939 20.0368 21.0423C21.9195 19.8011 28.4563 15.1104 28.4563 9.80985C28.4563 7.95088 27.5674 6.3087 26.2084 5.31147C25.9882 5.28166 25.7626 5.2627 25.5343 5.2627C24.1244 5.2627 22.846 5.8399 21.898 6.77751C20.95 5.84261 19.6716 5.2627 18.2616 5.2627Z" fill="#FF5F5F"/>
<path id="Vector_4" d="M20.2299 24.8621C19.8969 23.564 17.5845 22.22 16.9991 21.6346C16.5962 21.2336 15.6938 20.0764 14.9445 19.0928C14.2946 18.2419 13.078 18.101 12.2562 18.7838L12.0038 18.9925L9.1597 13.7814C8.96365 13.4237 8.63063 13.1934 8.2627 13.1094L10.8302 22.5126L15.2373 28.2088C15.6186 28.702 15.8254 29.309 15.8254 29.9322V31.317H20.5253C20.5253 31.317 20.6435 26.4717 20.2326 24.8594L20.2299 24.8621Z" fill="#FFBFB4"/>
<path id="Vector_5" d="M20.925 31.3203H14.748V33.4882H20.925V31.3203Z" fill="#74AAFF"/>
<path id="Vector_6" d="M15.8223 31.3203H14.748V33.4882H15.8223V31.3203Z" fill="#4F88FF"/>
<path id="Vector_7" d="M23.4339 31.3211H29.2509V29.5597L34.1952 23.1021L36.7358 13.6988C36.7814 13.5335 36.7116 13.3574 36.5639 13.268C35.9059 12.8696 35.0519 13.1027 34.684 13.7828L31.8667 18.9939L31.6411 18.8042C30.8193 18.1132 29.5893 18.2514 28.9421 19.1104C28.2035 20.0914 27.3173 21.235 26.9225 21.6333C26.3397 22.2214 24.0516 23.5627 23.7239 24.8608C23.3157 26.4731 23.4339 31.3184 23.4339 31.3184V31.3211Z" fill="#FF9F91"/>
<path id="Vector_8" d="M23.7702 24.8621C24.1032 23.564 26.4155 22.22 27.001 21.6346C27.4038 21.2336 28.3062 20.0764 29.0555 19.0928C29.7054 18.2419 30.922 18.101 31.7438 18.7838L31.9962 18.9925L34.8403 13.7814C35.0364 13.4237 35.3694 13.1934 35.7373 13.1094L33.1699 22.5126L28.7627 28.2088C28.3814 28.702 28.1746 29.309 28.1746 29.9322V31.3143H23.4747C23.4747 31.3143 23.3566 26.469 23.7675 24.8567L23.7702 24.8621Z" fill="#FFBFB4"/>
<path id="Vector_9" d="M23.074 33.4883H29.251V31.3204H23.074V33.4883Z" fill="#74AAFF"/>
<path id="Vector_10" d="M28.1767 33.4883H29.251V31.3204H28.1767V33.4883Z" fill="#4F88FF"/>
</g>
</g>
<g id="Line">
<g id="Group_2">
<path id="Vector_11" d="M14.8823 31.5926C14.6594 31.5926 14.4794 31.411 14.4794 31.1861V30.6929C14.4794 30.2648 14.415 29.9043 14.1034 29.5277L9.9246 23.967C9.66141 23.6798 9.45999 23.3329 9.34451 22.9617L7.03755 14.2223C6.92744 13.8131 7.06441 13.3877 7.384 13.1384C7.74387 12.8593 8.20311 12.7563 8.64624 12.862C9.08669 12.965 9.45462 13.2603 9.65604 13.6695L12.4598 19.2762C12.5592 19.4768 12.4813 19.7207 12.2826 19.8209C12.0839 19.9212 11.8421 19.8426 11.7428 19.6421L8.93361 14.0354C8.83961 13.843 8.66773 13.7047 8.46093 13.656C8.25683 13.6072 8.04198 13.656 7.87278 13.786C7.8137 13.8321 7.78953 13.9242 7.8137 14.0137L10.1153 22.7313C10.1932 22.9779 10.3355 23.2218 10.5235 23.4223C10.5342 23.4332 10.5423 23.444 10.553 23.4549L14.7319 29.0155C15.218 29.5981 15.2851 30.1889 15.2851 30.6875V31.1807C15.2851 31.4056 15.1052 31.5872 14.8823 31.5872V31.5926Z" fill="#333333"/>
<path id="Vector_12" d="M20.7909 31.5915C20.568 31.5915 20.388 31.4099 20.388 31.185V27.3614C20.3827 27.2178 20.3773 27.0633 20.3746 26.9116C20.3343 25.3778 20.3075 24.4537 17.9951 22.9308L17.8904 22.8603C17.2163 22.4186 16.6335 22.0338 16.1098 21.2561L15.0839 19.744C14.3803 18.7115 13.3141 18.828 12.8092 19.1451C12.7367 19.1884 12.6883 19.2616 12.6695 19.3483C12.6507 19.4405 12.6695 19.538 12.7205 19.6166L15.2424 23.3616C15.3659 23.5486 15.3202 23.8006 15.1349 23.9253C14.9523 24.0499 14.6999 24.0039 14.5763 23.8169L12.0545 20.0718C11.8799 19.8117 11.8155 19.4865 11.8799 19.1776C11.9444 18.8714 12.1216 18.6139 12.3822 18.4513C13.3329 17.8552 14.8368 17.9446 15.7473 19.2833L16.7732 20.7954C17.2082 21.4403 17.7024 21.7655 18.3281 22.1774L18.4356 22.2479C21.1024 24.0039 21.1373 25.2775 21.1803 26.8872C21.183 27.0335 21.1883 27.1853 21.1937 27.3424V31.1823C21.1937 31.4072 21.0138 31.5888 20.7909 31.5888V31.5915Z" fill="#333333"/>
<path id="Vector_13" d="M21.9695 22.5816C21.8997 22.5816 21.8299 22.5627 21.7681 22.5274C21.3894 22.3079 12.5215 17.0643 12.5215 10.8181C12.5188 7.6096 15.1051 5 18.2822 5C19.6357 5 20.9329 5.47694 21.9669 6.34951C23.0035 5.47694 24.298 5 25.6515 5C28.8286 5 31.4149 7.6096 31.4149 10.8154C31.4149 17.0643 22.5443 22.3052 22.1683 22.5247C22.1065 22.5599 22.0367 22.5789 21.9669 22.5789L21.9695 22.5816ZM18.2822 5.81296C15.5482 5.81296 13.3245 8.05673 13.3245 10.8154C13.3245 16.0996 20.6482 20.8825 21.9669 21.6982C23.2855 20.8798 30.6092 16.0996 30.6092 10.8154C30.6092 8.05673 28.3855 5.81296 25.6515 5.81296C24.3812 5.81296 23.17 6.30074 22.2435 7.18957C22.0877 7.33862 21.8433 7.33862 21.6902 7.18957C20.7637 6.30074 19.5525 5.81296 18.2822 5.81296Z" fill="#333333"/>
<path id="Vector_14" d="M21.0593 34.0311H14.6138C14.3909 34.0311 14.2109 33.8496 14.2109 33.6247V31.1858C14.2109 30.9609 14.3909 30.7793 14.6138 30.7793C14.8367 30.7793 15.0166 30.9609 15.0166 31.1858V33.2182H20.6565V31.1858C20.6565 30.9609 20.8364 30.7793 21.0593 30.7793C21.2822 30.7793 21.4621 30.9609 21.4621 31.1858V33.6247C21.4621 33.8496 21.2822 34.0311 21.0593 34.0311Z" fill="#333333"/>
<path id="Vector_15" d="M20.925 31.5928H14.7481C14.6003 31.5928 14.4795 31.4708 14.4795 31.3218C14.4795 31.1727 14.6003 31.0508 14.7481 31.0508H20.925C21.0727 31.0508 21.1936 31.1727 21.1936 31.3218C21.1936 31.4708 21.0727 31.5928 20.925 31.5928Z" fill="#333333"/>
<path id="Vector_16" d="M29.1157 31.5925C28.8928 31.5925 28.7129 31.4109 28.7129 31.186V30.6928C28.7129 30.1942 28.78 29.6034 29.2796 29.0045L33.445 23.4601C33.445 23.4601 33.4638 23.4385 33.4745 23.4276C33.6625 23.2271 33.8049 22.9832 33.8881 22.7176L36.1843 14.0162C36.2085 13.9268 36.1843 13.832 36.1252 13.7886C35.956 13.6585 35.7439 13.6098 35.5371 13.6585C35.3303 13.7073 35.1611 13.8428 35.0671 14.0352L32.2579 19.6474C32.1586 19.8479 31.9169 19.9292 31.7181 19.8262C31.5194 19.7259 31.4388 19.4793 31.5409 19.2815L34.3473 13.6721C34.5461 13.2656 34.914 12.9702 35.3571 12.8673C35.7976 12.7643 36.2568 12.8673 36.6167 13.1437C36.9363 13.3903 37.0706 13.8157 36.9632 14.2276L34.6616 22.9453C34.5407 23.3355 34.3393 23.6823 34.0761 23.9696L29.9107 29.514C29.5857 29.9069 29.5213 30.2673 29.5213 30.6955V31.1887C29.5213 31.4136 29.3413 31.5952 29.1184 31.5952L29.1157 31.5925Z" fill="#333333"/>
<path id="Vector_17" d="M23.2075 31.5927C22.9846 31.5927 22.8047 31.4111 22.8047 31.1862V27.3626C22.8101 27.1892 22.8154 27.0374 22.8181 26.8911C22.8611 25.2787 22.896 24.0078 25.5628 22.2518L25.6703 22.1813C26.296 21.7694 26.7902 21.4442 27.2252 20.802L28.2538 19.2872C29.1643 17.9485 30.6682 17.8591 31.6189 18.4553C31.8794 18.6178 32.0567 18.8753 32.1211 19.1815C32.1856 19.4904 32.1211 19.8156 31.9466 20.0758L29.4248 23.8208C29.2985 24.0078 29.0488 24.0538 28.8662 23.9292C28.6809 23.8018 28.6352 23.5498 28.7587 23.3655L31.2805 19.6205C31.3343 19.5419 31.3531 19.4444 31.3316 19.3522C31.3128 19.2655 31.2644 19.1923 31.1919 19.149C30.6843 18.8319 29.6208 18.7154 28.9172 19.7506L27.8913 21.2627C27.3676 22.0404 26.7848 22.4225 26.1107 22.8642L26.006 22.9347C23.6936 24.4576 23.6668 25.3844 23.6265 26.9155C23.6211 27.0672 23.6184 27.2217 23.6131 27.3816V31.1889C23.6131 31.4138 23.4331 31.5954 23.2102 31.5954L23.2075 31.5927Z" fill="#333333"/>
<path id="Vector_18" d="M29.3845 34.0311H22.939C22.7161 34.0311 22.5361 33.8496 22.5361 33.6247V31.1858C22.5361 30.9609 22.7161 30.7793 22.939 30.7793C23.1619 30.7793 23.3418 30.9609 23.3418 31.1858V33.2182H28.9816V31.1858C28.9816 30.9609 29.1616 30.7793 29.3845 30.7793C29.6074 30.7793 29.7873 30.9609 29.7873 31.1858V33.6247C29.7873 33.8496 29.6074 34.0311 29.3845 34.0311Z" fill="#333333"/>
<path id="Vector_19" d="M29.2502 31.5928H23.0733C22.9255 31.5928 22.8047 31.4708 22.8047 31.3218C22.8047 31.1727 22.9255 31.0508 23.0733 31.0508H29.2502C29.3979 31.0508 29.5188 31.1727 29.5188 31.3218C29.5188 31.4708 29.3979 31.5928 29.2502 31.5928Z" fill="#333333"/>
</g>
</g>
</g>
</g>
</svg>
