<svg width="44" height="40" viewBox="0 0 44 40" fill="none" xmlns="http://www.w3.org/2000/svg">
<g id="Frame 367">
<g id="Group 151">
<g id="Color">
<g id="Group">
<path id="Vector" d="M36.1938 31.8478L26.6267 34.3412L17.0032 31.8478L8 34.3412V16.1809L17.0032 13.6875L26.3152 15.9275L36.1938 13.6875V31.8478Z" fill="#E2E2E2"/>
<path id="Vector_2" d="M36.4624 30.5997L27.1638 33.0931L17.6665 30.473L8.53711 33.1686V15.9167L17.304 13.4287L26.3153 15.6148L36.4624 13.6875V30.5997Z" fill="white"/>
<path id="Vector_3" d="M17.9354 30.2038H17.1299V29.6646H17.9354V30.2038ZM17.9354 28.856H17.1299V28.0473H17.9354V28.856ZM17.9354 27.2386H17.1299V26.4299H17.9354V27.2386ZM17.9354 25.6212H17.1299V24.8126H17.9354V25.6212ZM17.9354 24.0039H17.1299V23.1952H17.9354V24.0039ZM17.9354 22.3865H17.1299V21.5778H17.9354V22.3865ZM17.9354 20.7692H17.1299V19.9605H17.9354V20.7692ZM17.9354 19.1518H17.1299V18.3431H17.9354V19.1518ZM17.9354 17.5344H17.1299V16.7258H17.9354V17.5344ZM17.9354 15.9171H17.1299V15.1084H17.9354V15.9171Z" fill="#E2E2E2"/>
<path id="Vector_4" d="M27.3329 32.0901H26.5273V31.2814H27.3329V32.0901ZM27.3329 30.4727H26.5273V29.6641H27.3329V30.4727Z" fill="#E2E2E2"/>
<path id="Vector_5" d="M28.1147 9.49902C27.5831 9.49902 27.1024 9.71737 26.748 10.0705C26.3909 9.71737 25.9102 9.49902 25.3813 9.49902C24.2831 9.49902 23.3916 10.429 23.3916 11.5773C23.3916 13.9144 26.748 15.9415 26.748 15.9415C26.748 15.9415 30.1044 13.9144 30.1044 11.5773C30.1044 10.429 29.213 9.49902 28.1147 9.49902Z" fill="#E23B3B"/>
<path id="Vector_6" d="M27.1129 15.7018C27.9829 15.098 30.1014 13.4375 30.1014 11.5803C30.1014 10.4319 29.21 9.50195 28.1117 9.50195C27.5801 9.50195 27.0994 9.7203 26.745 10.0734C26.6349 9.9656 26.5141 9.87125 26.3825 9.79038C25.3407 9.85508 24.5137 10.7581 24.5137 11.8633C24.5137 13.4834 26.1247 14.9525 27.1129 15.7018Z" fill="#FF5F5F"/>
<path id="Vector_7" d="M26.7418 5.56055C22.706 5.56055 19.4355 8.84379 19.4355 12.8953C19.4355 16.9468 26.7418 27.093 26.7418 27.093C26.7418 27.093 34.048 16.9441 34.048 12.8953C34.048 8.84648 30.7775 5.56055 26.7418 5.56055ZM26.817 16.006C26.817 16.006 23.4122 13.9708 23.4122 11.6203C23.4122 10.4665 24.3144 9.53116 25.4287 9.53116C25.9658 9.53116 26.4545 9.74951 26.817 10.1053C27.1794 9.74951 27.6655 9.53116 28.2052 9.53116C29.3195 9.53116 30.2217 10.4665 30.2217 11.6203C30.2217 13.9681 26.817 16.006 26.817 16.006Z" fill="#4F88FF"/>
<path id="Vector_8" d="M25.8103 5.62207C22.2176 6.08302 19.4385 9.16139 19.4385 12.8948C19.4385 16.0406 23.8421 22.8604 25.8103 25.7528C27.7785 22.8604 32.1821 16.0406 32.1821 12.8948C32.1821 9.16139 29.403 6.08302 25.8103 5.62207ZM26.8172 16.0082C26.8172 16.0082 23.4125 13.973 23.4125 11.6225C23.4125 10.4688 24.3147 9.53339 25.429 9.53339C25.966 9.53339 26.4547 9.75173 26.8172 10.1075C27.1797 9.75173 27.6657 9.53339 28.2054 9.53339C29.3197 9.53339 30.2219 10.4688 30.2219 11.6225C30.2219 13.9703 26.8172 16.0082 26.8172 16.0082Z" fill="#74AAFF"/>
<path id="Vector_9" d="M26.6613 28.5861C27.6253 28.5861 28.4067 28.2241 28.4067 27.7774C28.4067 27.3308 27.6253 26.9688 26.6613 26.9688C25.6974 26.9688 24.916 27.3308 24.916 27.7774C24.916 28.2241 25.6974 28.5861 26.6613 28.5861Z" fill="#E2E2E2"/>
</g>
</g>
<g id="Line">
<g id="Group_2">
<path id="Vector_10" d="M26.8178 16.2759C26.7695 16.2759 26.7238 16.2624 26.6808 16.2382C26.5358 16.1519 23.1445 14.0952 23.1445 11.6233C23.1445 10.324 24.1702 9.26465 25.4296 9.26465C25.9344 9.26465 26.4177 9.43447 26.8178 9.74986C27.2152 9.43447 27.6985 9.26465 28.206 9.26465C29.4653 9.26465 30.491 10.3213 30.491 11.6233C30.491 14.0979 27.0997 16.1519 26.9547 16.2382C26.9118 16.2624 26.8661 16.2759 26.8178 16.2759ZM25.4296 9.80377C24.4656 9.80377 23.6816 10.6205 23.6816 11.6233C23.6816 13.5318 26.1948 15.2839 26.8178 15.6883C27.4407 15.2839 29.954 13.5318 29.954 11.6233C29.954 10.6205 29.17 9.80377 28.206 9.80377C27.7603 9.80377 27.3333 9.98168 27.0057 10.3025C26.901 10.4049 26.7345 10.4049 26.6298 10.3025C26.3022 9.98168 25.878 9.80377 25.4296 9.80377Z" fill="#333333"/>
<path id="Vector_11" d="M26.7419 27.9665C26.6104 27.9665 26.4895 27.9018 26.4143 27.7967C26.1056 27.3627 18.8799 17.1113 18.8799 12.8954C18.8799 8.67949 22.4055 5 26.7419 5C31.0784 5 34.6067 8.54202 34.6067 12.8927C34.6067 17.2434 27.3783 27.36 27.0722 27.794C26.997 27.9018 26.8735 27.9638 26.7446 27.9638L26.7419 27.9665ZM26.7419 5.80868C22.8512 5.80868 19.6854 8.98679 19.6854 12.8927C19.6854 16.3673 25.3108 24.7695 26.7419 26.8532C28.1758 24.7695 33.8011 16.3673 33.8011 12.8927C33.8011 8.98679 30.6354 5.80868 26.7419 5.80868Z" fill="#333333"/>
<path id="Vector_12" d="M8.40277 34.9993C8.31416 34.9993 8.22824 34.9697 8.15842 34.9158C8.05907 34.8403 8 34.7217 8 34.595V15.9495C8 15.7662 8.12352 15.6072 8.29805 15.5587L17.696 13.0437C17.7739 13.0221 17.8544 13.0248 17.9296 13.0518L19.2722 13.5127C19.4816 13.5855 19.5944 13.8146 19.5219 14.0249C19.4494 14.2351 19.2211 14.351 19.0117 14.2756L17.7846 13.855L8.80554 16.2622V34.0693L17.696 31.6891C17.7631 31.6703 17.8356 31.6703 17.9027 31.6891L27.196 34.1772L36.1911 31.77V13.9224L34.2525 14.2917C34.035 14.3322 33.8228 14.1893 33.7826 13.971C33.7423 13.7526 33.8846 13.5397 34.1021 13.4992L36.5187 13.0383C36.6395 13.0167 36.7577 13.0464 36.8517 13.1245C36.943 13.2027 36.9967 13.3159 36.9967 13.4372V32.08C36.9967 32.2633 36.8731 32.4223 36.6986 32.4709L27.3007 34.9858C27.2335 35.0047 27.1611 35.0047 27.0939 34.9858L17.8007 32.4978L8.50749 34.9858C8.47258 34.9939 8.43768 34.9993 8.40277 34.9993Z" fill="#333333"/>
</g>
</g>
</g>
</g>
</svg>
