<svg width="44" height="40" viewBox="0 0 44 40" fill="none" xmlns="http://www.w3.org/2000/svg">
<g id="Frame 367">
<g id="Group 146">
<g id="Color">
<g id="Group">
<path id="Vector" d="M11.2671 8.24707H28.3605C29.1846 8.24707 29.8522 8.92218 29.8522 9.75557V30.009H12.8175C11.9616 30.009 11.2646 29.3066 11.2646 28.4386V8.24707H11.2671Z" fill="#D5E1EF"/>
<path id="Vector_2" d="M28.6289 30.009H12.9807C12.0343 30.009 11.264 29.2325 11.264 28.273V9.81492L10.4521 8.24707H26.9807C27.8904 8.24707 28.6289 8.9939 28.6289 9.91383V30.009Z" fill="#EDF2F8"/>
<path id="Vector_3" d="M35.7205 13.6233L36.332 14.467C36.5619 14.7841 36.494 15.23 36.1804 15.4625L34.776 16.5033L33.3304 14.5088L34.7347 13.4679C35.0483 13.2355 35.4892 13.3042 35.7191 13.6213L35.7205 13.6233Z" fill="#FFAA4C"/>
<path id="Vector_4" d="M35.5275 13.288L35.9771 13.9083C36.0509 14.01 36.0287 14.1552 35.9281 14.2297L34.1392 15.5557L33.4222 14.5664L35.2111 13.2405C35.3117 13.1659 35.4552 13.1883 35.529 13.29L35.5275 13.288Z" fill="#FFC960"/>
<path id="Vector_5" d="M25.3945 23.0612L23.9492 21.0655L33.3298 14.5098L34.7751 16.503L25.3945 23.0612Z" fill="#E23B3B"/>
<path id="Vector_6" d="M24.6897 22.1111L23.9609 21.1046L33.3122 14.5068L34.0409 15.5133L24.6897 22.1111Z" fill="#FF5F5F"/>
<path id="Vector_7" d="M11.0222 10.2259H7.59863C7.59863 8.93745 8.13907 8.17578 9.25907 8.17578C10.3791 8.17578 11.0222 8.93745 11.0222 10.2259Z" fill="#D5E1EF"/>
<path id="Vector_8" d="M13.6362 27.4686C13.8074 27.7579 13.8856 28.1091 13.8245 28.48C13.7364 29.0315 13.3256 29.4939 12.7974 29.6522C12.4697 29.7511 12.1591 29.7264 11.8828 29.6275C12.2129 30.0108 12.6971 30.2556 13.2376 30.2556H29.8517V27.2881H13.734C13.6411 27.2881 13.5873 27.3895 13.6337 27.4686H13.6362Z" fill="#D5E1EF"/>
<path id="Vector_9" d="M32.0966 30.2574H13.9883C14.5287 29.9681 15.0692 29.3919 15.0692 28.5264H33.7179C33.7179 29.3919 32.906 30.2574 32.0966 30.2574Z" fill="#EDF2F8"/>
<path id="Vector_10" d="M26.7953 13.194H17.9918C17.7888 13.194 17.625 13.0283 17.625 12.8231C17.625 12.6178 17.7888 12.4521 17.9918 12.4521H26.7953C26.9983 12.4521 27.1621 12.6178 27.1621 12.8231C27.1621 13.0283 26.9983 13.194 26.7953 13.194Z" fill="#C5D5F0"/>
<path id="Vector_11" d="M15.5465 13.194H14.3238C14.1209 13.194 13.957 13.0283 13.957 12.8231C13.957 12.6178 14.1209 12.4521 14.3238 12.4521H15.5465C15.7495 12.4521 15.9134 12.6178 15.9134 12.8231C15.9134 13.0283 15.7495 13.194 15.5465 13.194Z" fill="#C5D5F0"/>
<path id="Vector_12" d="M26.5508 15.9128H17.9918C17.7888 15.9128 17.625 15.7471 17.625 15.5418C17.625 15.3366 17.7888 15.1709 17.9918 15.1709H26.5508C26.7537 15.1709 26.9176 15.3366 26.9176 15.5418C26.9176 15.7471 26.7537 15.9128 26.5508 15.9128Z" fill="#C5D5F0"/>
<path id="Vector_13" d="M15.5465 15.9128H14.3238C14.1209 15.9128 13.957 15.7471 13.957 15.5418C13.957 15.3366 14.1209 15.1709 14.3238 15.1709H15.5465C15.7495 15.1709 15.9134 15.3366 15.9134 15.5418C15.9134 15.7471 15.7495 15.9128 15.5465 15.9128Z" fill="#C5D5F0"/>
<path id="Vector_14" d="M25.0835 18.6345H17.9918C17.7888 18.6345 17.625 18.4688 17.625 18.2635C17.625 18.0583 17.7888 17.8926 17.9918 17.8926H25.0835C25.2865 17.8926 25.4503 18.0583 25.4503 18.2635C25.4503 18.4688 25.2865 18.6345 25.0835 18.6345Z" fill="#C5D5F0"/>
<path id="Vector_15" d="M15.5465 18.6345H14.3238C14.1209 18.6345 13.957 18.4688 13.957 18.2635C13.957 18.0583 14.1209 17.8926 14.3238 17.8926H15.5465C15.7495 17.8926 15.9134 18.0583 15.9134 18.2635C15.9134 18.4688 15.7495 18.6345 15.5465 18.6345Z" fill="#C5D5F0"/>
<path id="Vector_16" d="M23.8608 21.3542H17.9918C17.7888 21.3542 17.625 21.1885 17.625 20.9832C17.625 20.778 17.7888 20.6123 17.9918 20.6123H23.8608C24.0638 20.6123 24.2276 20.778 24.2276 20.9832C24.2276 21.1885 24.0638 21.3542 23.8608 21.3542Z" fill="#C5D5F0"/>
<path id="Vector_17" d="M15.5465 21.3542H14.3238C14.1209 21.3542 13.957 21.1885 13.957 20.9832C13.957 20.778 14.1209 20.6123 14.3238 20.6123H15.5465C15.7495 20.6123 15.9134 20.778 15.9134 20.9832C15.9134 21.1885 15.7495 21.3542 15.5465 21.3542Z" fill="#C5D5F0"/>
<path id="Vector_18" d="M22.6381 24.0749H17.9918C17.7888 24.0749 17.625 23.9092 17.625 23.7039C17.625 23.4987 17.7888 23.333 17.9918 23.333H22.6381C22.8411 23.333 23.0049 23.4987 23.0049 23.7039C23.0049 23.9092 22.8411 24.0749 22.6381 24.0749Z" fill="#C5D5F0"/>
<path id="Vector_19" d="M15.5465 24.0749H14.3238C14.1209 24.0749 13.957 23.9092 13.957 23.7039C13.957 23.4987 14.1209 23.333 14.3238 23.333H15.5465C15.7495 23.333 15.9134 23.4987 15.9134 23.7039C15.9134 23.9092 15.7495 24.0749 15.5465 24.0749Z" fill="#C5D5F0"/>
</g>
</g>
<g id="Line">
<g id="Group_2">
<path id="Vector_20" d="M22.6287 24.0049C22.5137 24.0049 22.4061 23.9505 22.3352 23.8565C22.2545 23.7477 22.2374 23.6043 22.2937 23.4806L23.443 20.884C23.4699 20.8222 23.5139 20.7703 23.5677 20.7307L34.5354 13.0003C34.7628 12.8321 35.0514 12.7604 35.3399 12.8049C35.6285 12.8494 35.8804 13.0052 36.054 13.2426L36.7901 14.2565C37.1446 14.7462 37.0395 15.4386 36.5553 15.7972L25.5803 23.535C25.5338 23.5672 25.48 23.5894 25.4238 23.5968L22.6849 23.9999C22.6678 24.0024 22.6507 24.0049 22.6311 24.0049H22.6287ZM24.0715 21.2822L23.2351 23.169L25.2282 22.8772L36.1249 15.1963C36.2765 15.0825 36.3108 14.8575 36.1958 14.6967L35.4598 13.6828C35.4035 13.6062 35.3204 13.5542 35.2274 13.5394C35.1321 13.5245 35.0391 13.5468 34.9633 13.6037L24.0715 21.2822Z" fill="#333333"/>
<path id="Vector_21" d="M34.6309 16.5517C34.5551 16.5517 34.4817 16.5171 34.4328 16.4504L33.2761 14.8553C33.1954 14.744 33.2199 14.5907 33.3299 14.5091C33.4375 14.4275 33.5916 14.4522 33.6723 14.5635L34.829 16.1585C34.9097 16.2698 34.8852 16.4231 34.7752 16.5048C34.7312 16.5369 34.6822 16.5517 34.6309 16.5517Z" fill="#333333"/>
<path id="Vector_22" d="M13.3455 30.9985C13.2721 30.9985 13.2012 30.9763 13.145 30.9367C13.1108 30.9367 13.079 30.9367 13.0447 30.9367C11.8025 30.9367 10.7876 29.9129 10.7803 28.6542V10.3495C10.7803 10.1442 10.9441 9.97852 11.1471 9.97852C11.3501 9.97852 11.5139 10.1442 11.5139 10.3495V28.6566C11.5188 29.5049 12.2059 30.1998 13.0447 30.1998C13.8835 30.1998 14.5707 29.5049 14.5707 28.6517C14.5707 28.4464 14.7345 28.2808 14.9375 28.2808H33.8552C34.0581 28.2808 34.222 28.4464 34.222 28.6517C34.222 29.8981 33.2389 30.9293 31.9844 31.001H13.3455V30.9985ZM14.6514 30.2566H31.9624C32.6814 30.2146 33.2805 29.6978 33.4444 29.0202H15.2725C15.1967 29.4974 14.9717 29.9253 14.6514 30.2566Z" fill="#333333"/>
<path id="Vector_23" d="M29.9747 16.6553C29.7717 16.6553 29.6079 16.4896 29.6079 16.2844V11.2742C29.6079 9.66429 29.0528 8.74188 28.0819 8.74188H9.43322C9.23025 8.74188 9.06641 8.5762 9.06641 8.37094C9.06641 8.16569 9.23025 8 9.43322 8H28.0819C28.6126 8 30.3415 8.23493 30.3415 11.2742V16.2844C30.3415 16.4896 30.1776 16.6553 29.9747 16.6553Z" fill="#333333"/>
<path id="Vector_24" d="M11.145 10.7202C11.101 10.7202 11.0618 10.7128 11.0227 10.7005C10.9836 10.7128 10.9444 10.7202 10.9004 10.7202H7.36681C7.16384 10.7202 7 10.5545 7 10.3493C7 9.05347 7.98061 8 9.18864 8C10.3967 8 11.5118 9.09799 11.5118 10.3493C11.5118 10.5545 11.3479 10.7202 11.145 10.7202ZM7.77275 9.97835H10.7317C10.5556 9.2884 9.91004 8.74188 9.18864 8.74188C8.46725 8.74188 7.92437 9.27109 7.77275 9.97835Z" fill="#333333"/>
<path id="Vector_25" d="M29.9742 28.7727C29.7713 28.7727 29.6074 28.607 29.6074 28.4018V20.2411C29.6074 20.0358 29.7713 19.8701 29.9742 19.8701C30.1772 19.8701 30.341 20.0358 30.341 20.2411V28.4018C30.341 28.607 30.1772 28.7727 29.9742 28.7727Z" fill="#333333"/>
</g>
</g>
</g>
</g>
</svg>
