<svg width="32" height="20" viewBox="0 0 32 20" fill="none" xmlns="http://www.w3.org/2000/svg">
<g id="Frame 373">
<path id="Vector" d="M19.3379 18.0072H25.5679C26.4813 18.0072 27.2248 17.2734 27.2248 16.3651V14.2568" stroke="#333333" stroke-linecap="round" stroke-linejoin="round"/>
<path id="Vector_2" d="M28.238 13.7217H26.2109V15.1051H28.238V13.7217Z" fill="white" stroke="#333333" stroke-linecap="round" stroke-linejoin="round"/>
<path id="Vector_3" d="M25.4591 9.58008H28.9853V12.9756C28.9853 13.3876 28.6484 13.7244 28.2297 13.7244H26.2117C25.7959 13.7244 25.4561 13.3906 25.4561 12.9756V9.58008H25.4591Z" fill="white" stroke="#333333" stroke-linecap="round" stroke-linejoin="round"/>
<path id="Vector_4" d="M23.5625 6.17578H30.8849V7.73668C30.8849 8.75321 30.0535 9.57727 29.0278 9.57727H25.4227C24.397 9.57727 23.5655 8.75321 23.5655 7.73668V6.17578H23.5625Z" fill="white" stroke="#333333" stroke-linecap="round" stroke-linejoin="round"/>
<path id="Vector_5" d="M24.7278 4.11621H29.7197C30.363 4.11621 30.8849 4.6335 30.8849 5.27109V6.17936H23.5625V5.27109C23.5625 4.6335 24.0844 4.11621 24.7278 4.11621Z" fill="#FF5F5F" stroke="#333333" stroke-linecap="round" stroke-linejoin="round"/>
<path id="Vector_6" d="M19.3409 1.6582H2.45348C1.71439 1.6582 1.11523 2.25201 1.11523 2.98451V13.7784C1.11523 14.5109 1.71439 15.1048 2.45348 15.1048H19.3409C20.08 15.1048 20.6792 14.5109 20.6792 13.7784V2.98451C20.6792 2.25201 20.08 1.6582 19.3409 1.6582Z" fill="#F7F3F8" stroke="#333333" stroke-linecap="round" stroke-linejoin="round"/>
<path id="Vector_7" d="M2.70215 3.2316L2.70215 13.5293L19.0889 13.5293V3.2316L2.70215 3.2316Z" fill="#BBE0F0" stroke="#333333" stroke-linecap="round" stroke-linejoin="round"/>
<path id="Vector_8" d="M17.5811 15.1055H4.2168V16.8017H17.5811V15.1055Z" fill="#F7F3F8" stroke="#333333" stroke-linecap="round" stroke-linejoin="round"/>
<path id="Vector_9" d="M3.67292 16.7988H18.1206C18.7942 16.7988 19.3374 17.3402 19.3374 18.0048V19.0003H2.45605V18.0048C2.45605 17.3372 3.00228 16.7988 3.67292 16.7988Z" fill="#F7F3F8" stroke="#333333" stroke-linecap="round" stroke-linejoin="round"/>
<path id="Vector_10" d="M27.2246 1.71579V1" stroke="#333333" stroke-linecap="round" stroke-linejoin="round"/>
<path id="Vector_11" d="M29.4883 2.31478L29.8464 1.69824" stroke="#333333" stroke-linecap="round" stroke-linejoin="round"/>
<path id="Vector_12" d="M24.9607 2.31478L24.5996 1.69824" stroke="#333333" stroke-linecap="round" stroke-linejoin="round"/>
</g>
</svg>
