<svg width="18" height="16" viewBox="0 0 18 16" fill="none" xmlns="http://www.w3.org/2000/svg">
<g id="Frame 334">
<g id="Group 135">
<path id="Vector" d="M12.3346 3.72739C12.3346 2.64308 11.5131 1.76465 10.5013 1.76465C9.87973 1.76465 9.33267 2.09602 9.0013 2.6019C8.66993 2.09602 8.12287 1.76465 7.5013 1.76465C6.48954 1.76465 5.66797 2.64308 5.66797 3.72739C5.66797 4.29602 5.89542 4.80779 6.2562 5.16661L6.25032 5.17053L9.0013 8.23524L11.7523 5.17053L11.7464 5.16661C12.1072 4.80779 12.3346 4.29602 12.3346 3.72739Z" stroke="#999999" stroke-linecap="round" stroke-linejoin="round"/>
<path id="Vector_2" d="M4.82 4.90894C3.81455 4.90894 3 5.67075 3 6.60894C3 7.1853 3.30727 7.69257 3.77636 7.99984C3.30727 8.30712 3 8.81439 3 9.39075C3 10.3289 3.81455 11.0908 4.82 11.0908C5.34727 11.0908 5.82182 10.8798 6.15455 10.5453L6.15818 10.5508L9 7.99984L6.15818 5.44894L6.15455 5.45439C5.82182 5.11984 5.34727 4.90894 4.82 4.90894Z" stroke="#999999" stroke-linecap="round" stroke-linejoin="round"/>
<path id="Vector_3" d="M5.66797 12.2725C5.66797 13.3568 6.48954 14.2352 7.5013 14.2352C8.12287 14.2352 8.66993 13.9039 9.0013 13.398C9.33267 13.9039 9.87973 14.2352 10.5013 14.2352C11.5131 14.2352 12.3346 13.3568 12.3346 12.2725C12.3346 11.7039 12.1072 11.1921 11.7464 10.8333L11.7523 10.8294L9.0013 7.76465L6.25032 10.8294L6.2562 10.8333C5.89542 11.1921 5.66797 11.7039 5.66797 12.2725Z" stroke="#999999" stroke-linecap="round" stroke-linejoin="round"/>
<path id="Vector_4" d="M13.18 11.0908C14.1855 11.0908 15 10.3289 15 9.39075C15 8.81439 14.6927 8.30712 14.2236 7.99984C14.6927 7.69257 15 7.1853 15 6.60894C15 5.67075 14.1855 4.90894 13.18 4.90894C12.6527 4.90894 12.1782 5.11984 11.8455 5.45439L11.8418 5.44894L9 7.99984L11.8418 10.5508L11.8455 10.5453C12.1782 10.8798 12.6527 11.0908 13.18 11.0908Z" stroke="#999999" stroke-linecap="round" stroke-linejoin="round"/>
</g>
</g>
</svg>
