<svg width="16" height="16" viewBox="0 0 16 16" fill="none" xmlns="http://www.w3.org/2000/svg">
<g id="Frame 320">
<g id="Group 130">
<path id="Vector" d="M8.85449 3C11.0458 3 12.8305 4.81362 12.8305 7.04454" stroke="#2A77C1" stroke-linecap="round" stroke-linejoin="round"/>
<path id="Vector_2" d="M8.85449 5.12744C9.89232 5.12744 10.7373 5.98699 10.7373 7.04271" stroke="#2A77C1" stroke-linecap="round" stroke-linejoin="round"/>
<path id="Vector_3" d="M12.7515 11.1566C12.7322 11.3118 12.6604 11.4669 12.564 11.565L11.854 12.289C9.4347 14.3488 6.36331 11.2797 6.33175 11.2494L4.72593 9.61409C4.69613 9.58199 1.67733 6.45942 3.69337 4.00559L4.41564 3.27087C4.51031 3.17457 4.66458 3.10146 4.81534 3.08006C4.84514 3.07649 4.87319 3.07471 4.90124 3.07471C5.01344 3.07471 5.1046 3.10502 5.15719 3.15852L6.65783 4.92043C6.83839 5.10411 6.83839 5.40014 6.65783 5.58382L6.11087 6.14199C5.97588 6.29001 5.88121 6.4291 5.81986 6.56998C5.70065 6.90346 5.50956 7.7755 6.33351 8.67785L7.25563 9.61765C8.13743 10.4505 8.99468 10.2561 9.33303 10.1312C9.45925 10.0742 9.59774 9.9761 9.74675 9.83522L10.2902 9.28239C10.4638 9.10584 10.7583 9.09514 10.9511 9.29131L12.6674 10.8035C12.7393 10.8802 12.7691 11.0086 12.7498 11.1566H12.7515Z" stroke="#2A77C1" stroke-linecap="round" stroke-linejoin="round"/>
</g>
</g>
</svg>
