<svg width="24" height="24" viewBox="0 0 24 24" fill="none" xmlns="http://www.w3.org/2000/svg">
<g id="Frame 323">
<g id="Group 136">
<path id="Vector" d="M21.5526 10.0143L20.5693 9.84707C20.2586 8.65674 19.6202 7.57793 18.7395 6.69791C18.6833 5.71607 18.9401 4.95727 19.1701 4.49423C19.2899 4.2518 19.0893 3.97301 18.8251 4.0021C17.6803 4.13301 16.9905 4.67848 16.5869 5.17546C15.4543 4.62514 14.1603 4.31483 12.7831 4.31483C8.3678 4.31483 4.78906 7.51975 4.78906 11.4738C4.78906 13.2435 5.50823 14.8629 6.69462 16.1139C7.10803 16.5478 7.4138 17.069 7.56546 17.6484L8.02778 19.4303C8.0816 19.76 8.36046 20 8.6858 20H10.4544C10.8213 20 11.1197 19.6945 11.1197 19.3188L11.1662 18.8533C11.1858 18.6594 11.3619 18.5236 11.5576 18.5503C11.9588 18.606 12.3673 18.6351 12.7856 18.6351C13.0938 18.6351 13.3996 18.6182 13.698 18.5891C13.8863 18.5697 14.0576 18.703 14.0771 18.8921L14.1187 19.3188C14.1187 19.6945 14.4172 20 14.7841 20H16.5527C16.878 20 17.1569 19.76 17.2107 19.4303L17.5801 18.0024C17.7366 17.3987 18.084 16.8702 18.5414 16.446C19.4318 15.6193 20.102 14.5987 20.4665 13.4641L21.5551 13.2774C21.8804 13.2217 22.1201 12.938 22.1201 12.6083V10.6883C22.1201 10.3562 21.8804 10.0725 21.5551 10.0168L21.5526 10.0143Z" stroke="#2A77C1" stroke-width="1.5" stroke-linecap="round" stroke-linejoin="round"/>
<path id="Vector_2" d="M4.63985 10.8193C4.22401 11.4884 3.34339 11.6945 2.67314 11.2775C2.00289 10.8605 1.79986 9.98051 2.21571 9.3114" stroke="#2A77C1" stroke-width="1.5" stroke-linecap="round" stroke-linejoin="round"/>
<path id="Vector_3" d="M9.71094 7.38625C10.5304 6.8723 11.4991 6.57654 12.5363 6.57654C13.1233 6.57654 13.6884 6.67109 14.2168 6.84806" stroke="#2A77C1" stroke-width="1.5" stroke-linecap="round" stroke-linejoin="round"/>
<path id="Vector_4" d="M16.9394 10.6671C17.4798 10.6671 17.9179 10.2329 17.9179 9.69738C17.9179 9.16182 17.4798 8.72766 16.9394 8.72766C16.399 8.72766 15.9609 9.16182 15.9609 9.69738C15.9609 10.2329 16.399 10.6671 16.9394 10.6671Z" fill="#2A77C1"/>
</g>
</g>
</svg>
