<svg width="16" height="14" viewBox="0 0 16 14" fill="none" xmlns="http://www.w3.org/2000/svg">
<g id="_&#231;&#147;&#166;?1" clip-path="url(#clip0_98_7122)">
<path id="Vector" d="M7.78305 13.4187C7.87522 13.3679 7.96597 13.3135 8.05457 13.2559C8.32396 13.0814 8.57676 12.8773 8.80639 12.6492L12.4583 8.99729C12.7101 8.74556 12.8584 8.40468 12.855 8.04847C12.8518 7.7051 12.7165 7.38259 12.4731 7.13923C12.4689 7.13495 12.4646 7.13067 12.4601 7.12639C12.2948 6.96558 12.0945 6.85433 11.8764 6.79942L11.9089 6.76698C12.1437 6.53218 12.2907 6.22 12.308 5.88822C12.3266 5.53273 12.2036 5.19363 11.9632 4.9353C11.9527 4.92389 11.9417 4.91248 11.9308 4.90178C11.7388 4.70977 11.4974 4.58497 11.2353 4.53951C11.3048 4.38494 11.3442 4.217 11.3503 4.04389C11.3624 3.69713 11.2396 3.36677 11.0044 3.11432C10.9939 3.10291 10.9829 3.0915 10.972 3.0808C10.7258 2.8346 10.3985 2.6991 10.0503 2.6991C9.78534 2.6991 9.53271 2.77755 9.31842 2.92338C9.26814 2.70463 9.16135 2.5021 9.00482 2.33398C8.9943 2.32257 8.98325 2.31116 8.97237 2.30046C8.72919 2.05728 8.40686 1.92197 8.06349 1.91876C7.7071 1.91537 7.36604 2.06352 7.11395 2.31544L4.65882 4.77057C4.64973 4.71744 4.63778 4.66485 4.62317 4.61297C4.55524 4.37317 4.42688 4.14693 4.23843 3.95849C4.23665 3.95671 4.23469 3.95475 4.23291 3.95296C3.80556 3.5299 3.11579 3.53364 2.69058 3.95902L1.48432 5.16528C1.30836 5.34125 1.14665 5.53076 1.00082 5.73222L0.944838 5.8096C0.359536 6.61882 0.0380929 7.59385 0.0532469 8.59241C0.0536035 8.62076 0.0544949 8.64928 0.0553863 8.67745C0.0947868 9.85911 0.57722 10.9705 1.41354 11.8068L2.24595 12.6392C2.68916 13.0825 3.20635 13.4258 3.78345 13.6597C4.34023 13.8856 4.92821 14.0001 5.53134 13.9999C6.32434 13.9999 7.0963 13.8 7.78323 13.4187H7.78305ZM2.84052 12.0447L2.00812 11.2123C0.587204 9.79136 0.525161 7.52592 1.82181 6.0312L3.28569 4.55324C3.38392 4.45501 3.54384 4.45376 3.64261 4.55181L3.64404 4.55324C3.90683 4.8146 3.90736 5.23981 3.64529 5.50188L3.03841 6.10876C2.83428 6.31289 2.82733 6.6502 3.03039 6.85344C3.03271 6.85576 3.03485 6.8579 3.03716 6.86004C3.10295 6.92351 3.18157 6.96612 3.26465 6.98787C3.43776 7.03386 3.62995 6.98876 3.76598 6.85291L7.76433 2.85456C7.93156 2.68733 8.20255 2.69999 8.36015 2.87631C8.38564 2.90484 8.4008 2.91108 8.42897 2.96528C8.53772 3.17494 8.49582 3.43131 8.32877 3.59836L5.69197 6.23516C5.48784 6.43929 5.48088 6.7766 5.68395 6.97985C5.68627 6.98216 5.68841 6.9843 5.69072 6.98644C5.8945 7.18255 6.21862 7.18006 6.41936 6.97931L9.76359 3.63508C9.93082 3.46786 10.2018 3.48051 10.3594 3.65684C10.3849 3.68536 10.4001 3.6916 10.4282 3.7458C10.537 3.95546 10.4951 4.21183 10.328 4.37888L7.08186 7.62505C6.87773 7.82918 6.87078 8.16649 7.07384 8.36974C7.07616 8.37205 7.0783 8.37419 7.08061 8.37633C7.28439 8.57244 7.60851 8.56995 7.80926 8.3692L10.7224 5.45606C10.8896 5.28883 11.1606 5.30149 11.3182 5.47781C11.3437 5.50634 11.3589 5.51258 11.387 5.56678C11.4958 5.77644 11.4539 6.03281 11.2868 6.19986L8.72438 8.76232C8.52025 8.96645 8.51329 9.30376 8.71636 9.507C8.71868 9.50932 8.72081 9.51146 8.72313 9.5136C8.92691 9.70971 9.25103 9.70721 9.45177 9.50647L11.2227 7.73559C11.4017 7.55659 11.6919 7.55249 11.8734 7.72863L11.8786 7.7338C11.9689 7.82419 12.0141 7.94257 12.0141 8.06077C12.0141 8.17915 11.9689 8.29735 11.8786 8.38774L8.22162 12.0447C8.0396 12.2267 7.84331 12.3868 7.63668 12.5244C7.62366 12.533 7.61047 12.5417 7.59728 12.5501C7.27441 12.7594 6.92676 12.9147 6.5668 13.016C6.22878 13.1113 5.87988 13.1591 5.53098 13.1589C4.5572 13.1589 3.58324 12.7876 2.84034 12.0447H2.84052Z" fill="#999999"/>
<path id="Vector_2" d="M11.146 1.9113L12.0253 1.03201C12.1442 0.913093 12.2146 0.751569 12.2107 0.58327C12.2071 0.427273 12.1449 0.282329 12.0349 0.172329C12.0298 0.167158 12.0244 0.161988 12.0191 0.156996C11.7851 -0.0608652 11.4068 -0.0503465 11.176 0.180529L10.8848 0.471665C10.7941 0.562411 10.6472 0.562411 10.5564 0.471665L10.2653 0.180529C10.0344 -0.0503465 9.6561 -0.0608652 9.42219 0.156996C9.30452 0.266462 9.23695 0.41408 9.23089 0.573821C9.2243 0.745507 9.29525 0.911132 9.41666 1.03272L10.2954 1.91148C10.5302 2.14627 10.911 2.14627 11.1458 1.91148L11.146 1.9113Z" fill="#999999"/>
<path id="Vector_3" d="M6.87483 13.1544C7.16954 13.2738 7.4728 13.3622 7.78247 13.4188C8.0581 13.4694 8.33871 13.4945 8.62272 13.4945C9.52198 13.4945 10.3945 13.2374 11.1461 12.7506C11.4194 12.5735 11.6758 12.366 11.9078 12.1339L15.5497 8.49192C15.8014 8.24018 15.9498 7.89931 15.9464 7.5431C15.9432 7.19973 15.8079 6.87721 15.5645 6.63386C15.5602 6.62958 15.556 6.6253 15.5515 6.62102C15.3862 6.46021 15.1858 6.34896 14.9678 6.29405L15.0002 6.2616C15.235 6.0268 15.3821 5.71463 15.3994 5.38285C15.418 5.02735 15.2949 4.68826 15.0546 4.42993C15.0441 4.41852 15.033 4.40711 15.0222 4.39641C14.8302 4.2044 14.5888 4.0796 14.3267 4.03414C14.3962 3.87957 14.4356 3.71163 14.4417 3.53851C14.4538 3.19175 14.331 2.8614 14.0958 2.60895C14.0853 2.59754 14.0742 2.58613 14.0634 2.57543L13.974 2.48611C13.7289 2.24097 13.3962 2.10423 13.0495 2.10459C13.0479 2.10459 13.0461 2.10459 13.0445 2.10459C12.5768 2.09977 12.2795 2.27823 11.8903 2.68525L11.853 2.73446C11.7157 2.94109 11.7083 3.19318 11.889 3.37432C12.131 3.61625 12.4169 3.56793 12.6177 3.36718L12.8551 3.12971C13.0224 2.96248 13.2934 2.97514 13.451 3.15146C13.4765 3.17999 13.4916 3.18623 13.5198 3.24043C13.6285 3.45009 13.5866 3.70646 13.4196 3.87351L12.9234 4.36967C12.7193 4.5738 12.7123 4.91111 12.9154 5.11435C12.9177 5.11667 12.9199 5.11881 12.9222 5.12095C13.126 5.31706 13.4501 5.31457 13.6508 5.11382L13.814 4.95069C13.9812 4.78346 14.2522 4.79612 14.4098 4.97244C14.4353 5.00097 14.4504 5.00721 14.4786 5.0614C14.5873 5.27106 14.5454 5.52744 14.3784 5.69449L13.585 6.48784C13.3809 6.69198 13.374 7.02929 13.577 7.23253C13.5793 7.23485 13.5815 7.23699 13.5838 7.23913C13.7876 7.43524 14.1117 7.43274 14.3124 7.232L14.3151 7.22932C14.4939 7.0505 14.7836 7.04676 14.9649 7.22308L14.9701 7.22825C15.0605 7.31864 15.1056 7.43702 15.1056 7.55522C15.1056 7.6736 15.0605 7.7918 14.9701 7.88219L11.3132 11.5391C11.1196 11.7327 10.9099 11.9014 10.6888 12.0446C10.1155 12.4161 9.46403 12.6176 8.80581 12.6491C8.74466 12.652 8.68369 12.6536 8.62254 12.6534C8.29076 12.6534 7.95897 12.6102 7.63628 12.5241C7.62327 12.5327 7.61007 12.5414 7.59688 12.5498C7.27401 12.7591 6.92636 12.9144 6.56641 13.0157C6.66714 13.0652 6.77 13.1118 6.87483 13.154V13.1544Z" fill="#999999"/>
</g>
<defs>
<clipPath id="clip0_98_7122">
<rect width="15.8944" height="14" fill="white" transform="translate(0.0527344)"/>
</clipPath>
</defs>
</svg>
