<svg width="220" height="191" viewBox="0 0 220 191" fill="none" xmlns="http://www.w3.org/2000/svg">
<g id="&#236;&#157;&#188;&#235;&#159;&#172;&#236;&#138;&#164;&#237;&#138;&#184;" clip-path="url(#clip0_461_12259)">
<g id="Group">
<path id="Vector" fill-rule="evenodd" clip-rule="evenodd" d="M166.393 28.8947C165.597 29.7161 163.906 29.2949 162.947 29.8425C161.443 30.706 159.396 32.6351 158.37 34.3495C156.641 37.2559 156.268 39.4967 155.623 42.7316C154.685 47.4577 153.756 47.6177 152.814 52.4449C152.278 55.208 152.721 59.3654 152.721 59.3654C152.721 59.3654 154.823 66.4376 156.096 68.9228C156.515 69.74 159.676 70.8098 161.439 70.6203C162.44 70.5108 164.71 70.4434 164.71 70.4434C164.71 70.4434 165.011 73.6994 165.095 74.1037C165.719 77.2418 164.714 80.5862 162.155 82.5196C161.021 83.3747 157.533 83.7875 157.533 83.7875C157.533 83.7875 157.294 89.436 157.562 90.6027C158.052 92.7383 158.542 95.3204 160.032 97.0347C163.776 101.335 170.203 104.107 175.965 103.526C178.419 103.277 180.726 102.666 182.866 101.436C185.097 100.152 187.459 98.9007 189.318 97.0347C195.603 90.708 191.667 81.8794 191.282 74.1206C191.039 69.2724 192.237 64.5253 191.956 59.6729C191.646 54.3403 188.745 49.6691 185.056 45.9624C180.705 41.5859 177.393 34.956 172.263 31.5147C171.426 30.9545 167.435 27.8164 166.389 28.8947H166.393Z" fill="#FFF3ED"/>
<path id="Vector_2" fill-rule="evenodd" clip-rule="evenodd" d="M157.814 83.3283C156.583 85.3375 150.218 83.2819 148.292 82.7933C142.593 81.3612 136.894 86.1209 135.177 91.3061C133.502 96.3607 129.458 104.36 130.839 109.928C131.053 110.8 132.359 111.171 133.063 111.524C135.11 112.556 137.388 113.622 139.62 114.186C140.257 114.347 142.522 114.351 142.794 115.037C143.033 115.64 142.463 117.164 142.371 117.805C142.116 119.586 141.613 122.413 142.053 124.19C143.447 129.797 144.804 135.593 144.804 141.532C144.804 142.993 145.156 145.015 144.804 146.426C144.029 149.556 145.064 152.69 144.54 155.853C143.64 161.283 141.588 167.137 140.257 172.495C139.109 177.124 136.14 183.935 137.104 188.805C137.154 189.057 142.229 190.233 150.017 190.41C153.76 190.494 158.509 188.619 162.935 188.615C170.087 188.607 177.293 190.696 183.507 190.949C191.877 191.29 198.242 189.799 198.33 189.626C198.698 188.889 198.497 186.863 198.435 186.117C198.2 183.278 196.588 176.796 196.588 176.796C196.588 176.796 197.287 175.351 197.287 173.784C197.287 172.23 196.596 170.553 196.86 168.957C198.564 158.679 200.867 146.772 200.867 136.216C200.867 132.278 200.553 128.238 199.917 124.405C199.745 123.365 198.816 120.349 199.285 119.401C199.841 118.281 201.437 118.26 202.459 117.805C205.754 116.33 209.28 116.154 212.717 115.463C213.459 115.311 216.578 115.623 216.951 115.252C217.302 114.894 217.168 112.426 217.106 111.882C216.628 108.033 216.03 102.957 215.112 99.2502C214.208 95.6067 208.626 96.4154 205.846 94.819C202.986 93.1721 199.452 91.3187 196.219 90.67C195.704 90.5647 193.611 89.4654 193.154 89.9245C192.225 90.8554 191.015 93.6565 189.943 94.7348C184.826 99.882 177.67 105.046 169.676 103.441C164.292 102.359 159.196 99.3555 158.354 93.4374C158.011 91.007 158.63 88.3744 158.04 85.9903C157.889 85.388 158.199 82.7217 157.831 83.3283H157.814Z" fill="#BDDDF4"/>
<path id="Vector_3" fill-rule="evenodd" clip-rule="evenodd" d="M130.29 110.527C130.29 110.527 129.469 114.676 129.222 116.436C128.87 118.896 128.582 122.262 128.309 124.705C127.761 129.696 127.522 135.635 127.472 140.277C127.443 143.546 127.531 146.031 127.036 149.518C126.488 153.381 127.757 157.505 132.677 157.568C138.062 157.639 144.682 153.288 144.682 153.288C144.682 153.288 148.191 149.902 149.74 148.347C152.905 145.159 154.706 140.058 157.851 136.895C159.082 135.656 159.76 134.7 161.15 133.656C161.908 133.083 163.248 133.403 164.069 132.741C166.162 131.057 166.648 128.504 167.557 126.065C169.227 121.571 172.565 116.369 170.76 111.525C170.613 111.133 170.66 108.307 170.66 108.307C170.66 108.307 166.631 106.854 165.928 106.5C163.386 105.223 164.588 109.292 164.588 109.292L159.492 112.338L159.358 108.593C159.358 108.593 155.062 109.684 154.212 110.998C153.362 112.313 153.885 116.908 153.885 116.908L153.232 119.044C153.232 119.044 153.362 120.728 152.633 122.599C150.456 128.197 144.242 132.868 144.242 132.868C144.242 132.868 142.906 128.319 142.144 124.397C142.044 123.888 142.002 120.952 142.312 118.711C142.68 116.036 143.425 114.035 143.425 114.035C143.425 114.035 137.819 113.336 135.465 112.746C134.678 112.548 130.29 110.527 130.29 110.527Z" fill="#FFF3ED"/>
<path id="Vector_4" fill-rule="evenodd" clip-rule="evenodd" d="M42.5094 63.7969C42.5094 63.7969 35.0435 67.3182 32.2381 68.2786C26.4554 70.2499 15.9328 74.184 12.1852 79.841C10.5563 82.2966 9.63513 83.7835 8.85211 86.5425C7.4075 91.635 6.71242 94.3392 5.46461 99.4696C4.89514 101.816 3.71432 109.802 3.17835 113.593C3.01505 114.718 2.4707 120.674 2.4707 120.674C2.4707 120.674 5.75353 122.257 7.18139 122.973C10.9416 124.865 14.6264 125.143 18.7885 125.842C19.7725 126.006 22.3561 126.103 23.0679 126.828C24.1943 127.956 23.8509 133.007 24.0477 134.574C24.5377 138.512 24.701 141.979 25.1909 145.913C26.3131 154.944 26.5517 166.333 26.0074 170.996C25.6138 174.366 24.6465 174.303 24.6465 177.71C24.6465 178.418 25.3081 179.142 25.2788 181.657C25.2537 183.97 23.8049 188.127 24.4372 188.607C24.8475 188.915 29.8136 190.115 36.8315 190.22C43.7908 190.326 50.7416 188.712 59.761 188.67C77.1969 188.594 80.9026 190.376 84.734 190.591C93.5984 191.097 97.6685 188.712 97.6852 188.675C98.3259 187.554 97.8276 184.551 97.5093 182.609C96.6886 177.677 95.9307 172.9 95.9307 170.133C95.9307 167.365 95.7884 161.253 95.8805 157.597C95.9852 153.57 95.6083 149.181 95.7591 145.176C95.9601 139.776 95.7591 127.076 95.7591 127.076C95.7591 127.076 98.799 127.695 102.14 127.733C105.486 127.771 109.451 126.781 112.948 125.606C113.99 125.256 117.37 123.285 117.37 123.285C117.37 123.285 116.595 116.356 116.411 114.271C115.611 105.455 114.099 94.6256 110.984 86.2519C109.518 82.3177 105.532 78.0466 101.994 76.4881C96.7221 74.1672 92.0701 72.6424 85.8855 70.7596C83.415 70.0056 75.501 66.4758 75.501 66.4758C75.501 66.4758 72.0926 71.6525 70.3925 72.9372C66.8878 75.5783 61.0256 75.9279 56.6666 75.195C51.6838 74.3609 46.8684 71.6989 43.8578 67.6594C43.192 66.7622 42.5136 63.7969 42.5136 63.7969H42.5094Z" fill="white"/>
<path id="Vector_5" fill-rule="evenodd" clip-rule="evenodd" d="M217.563 115.096C217.563 115.096 218.224 120.101 218.25 120.298C218.484 122.518 218.488 124.856 218.61 127.08C218.894 132.118 218.894 138.655 218.894 146.052C218.894 148.646 218.589 153.36 218.283 155.954C217.944 158.882 218.011 163.882 214.33 164.29C210.21 164.749 206.835 162.214 203.427 160.225C196.178 156.001 189.207 149.687 184.002 143.141C182.197 140.875 180.552 138.436 178.764 136.187C178.048 135.29 175.041 130.441 175.041 130.441C175.041 130.441 173.123 132.181 171.7 131.701C169.602 130.997 166.914 128.883 166.914 128.883C166.914 128.883 163.233 128.003 162.169 126.667C161.269 125.538 160.88 123.706 160.494 122.35C159.351 118.34 159.816 112.207 159.816 112.207L164.627 109.469C164.627 109.469 163.723 107.161 164.485 106.331C165.251 105.505 167.793 107.005 168.978 107.746C170.004 108.391 172.7 108.947 173.735 109.579C174.769 110.21 176.779 112.641 176.779 112.641L176.812 108.458C176.812 108.458 178.63 109.103 179.283 110.029C180.346 111.546 179.953 116.44 181.305 118.091C183.135 120.336 184.743 124.384 187.896 127.607C190.241 130.003 193.984 133.411 195.132 134.708C196.275 136.01 201.119 139.127 201.119 139.127C201.119 139.127 200.433 130.677 200.127 129.093C199.738 127.063 198.435 119.279 198.435 119.279C198.435 119.279 207.434 115.551 210.532 114.966C212.069 114.675 217.559 115.088 217.559 115.088L217.563 115.096Z" fill="#FFF3ED"/>
<path id="Vector_6" fill-rule="evenodd" clip-rule="evenodd" d="M75.4418 66.5598L72.3976 64.5843L71.3299 61.0587L71.4639 55.3512C71.4639 55.3512 73.4738 55.9915 75.3832 55.7977C76.8068 55.6545 78.1928 54.8163 78.5446 54.1339C79.9389 51.4171 79.8133 48.7803 79.8133 48.7803C79.8133 48.7803 78.7037 48.2327 76.8445 46.6574C75.3413 45.3811 74.6043 42.9633 74.7341 42.3652C74.8723 41.7376 76.5933 42.8664 78.5781 43.2118C80.4791 43.5446 81.5594 43.4351 81.6725 42.9759C82.1875 40.8951 82.422 39.0123 82.422 39.0123C82.422 39.0123 85.7844 37.6686 86.1277 36.2744C86.312 35.5415 83.0794 31.839 83.0794 31.839C83.0794 31.839 83.1715 26.8855 83.8289 23.4442C84.4863 19.9987 84.009 18.2927 83.5735 16.5363C83.0249 14.3165 80.5251 16.5531 78.9465 15.2853C75.3036 12.3536 69.0855 10.2096 64.4209 10.7319C59.8191 11.2458 57.3527 16.5447 54.7064 19.649C53.7475 20.7737 52.6211 21.9699 51.4989 22.8756C49.5393 24.4509 46.4407 24.9227 45.3688 27.6184C43.8739 31.3799 45.9717 34.4379 46.5035 38.1488C47.1986 43.0518 47.2405 50.0102 47.1651 53.898C47.119 56.0673 47.1442 58.9358 45.8001 60.7428C43.5264 63.7924 42.668 63.7713 42.668 63.7713C42.668 63.7713 42.7098 65.2414 43.384 66.8251C44.1545 68.6406 45.6661 70.6624 47.4624 71.7786C53.7601 75.6875 64.5339 76.9764 69.521 74.1122C72.8206 72.2125 75.4418 66.564 75.4418 66.564V66.5598Z" fill="#FFF3ED"/>
<path id="Vector_7" fill-rule="evenodd" clip-rule="evenodd" d="M2.48241 120.842C2.48241 120.842 1.65333 128.997 1.56958 131.373C1.45234 134.582 1.12992 142.215 0.895433 148.933C0.774002 152.324 0.42227 154.742 0.648383 157.741C0.857747 160.521 2.29817 163.014 5.43444 162.644C13.6792 161.666 20.8687 158.191 27.1329 153.149C30.1603 150.711 34.5821 146.448 38.1245 142.122C41.1435 138.436 43.5554 134.435 43.5554 134.435C43.5554 134.435 47.4789 132.367 48.7141 130.846C49.8447 129.456 49.8321 125.214 49.8321 125.214C49.8321 125.214 54.6308 126.499 58.5542 126.861C61.724 127.152 64.1401 126.609 64.3787 126.099C65.2162 124.338 61.6821 123.466 58.4496 122.27C55.7906 121.284 53.3788 119.793 53.3788 119.793C53.3788 119.793 55.0662 119.734 57.2729 120.185C59.7686 120.695 62.9048 121.723 64.6635 121.647C67.9756 121.503 66.6231 119.221 66.6231 119.221L68.1389 117.889C68.1389 117.889 68.8382 116.293 66.3886 115.143C63.2314 113.66 62.6201 113.976 59.6053 112.241C58.4328 111.567 54.5554 109.545 53.429 108.682C51.2349 107.009 48.2117 107.865 48.2117 107.865C47.9353 106.66 47.6631 102.161 48.3205 98.8505C48.9486 95.6704 50.5021 93.678 50.3891 92.5155C50.2341 90.9822 50.6487 89.2805 49.7149 89.1626C48.3959 88.9941 48.2494 90.2662 47.3742 91.2939C45.6407 93.3326 43.748 96.2896 43.1074 98.2482C41.7005 102.578 43.2749 112.831 38.2585 122.165C36.1607 126.065 24.2018 132.223 24.2018 132.223L24.0804 125.846C24.0804 125.846 18.4401 126.225 14.3785 125.059C12.4733 124.511 8.49953 123.538 6.74506 122.658C5.64799 122.102 2.48241 120.846 2.48241 120.846V120.842Z" fill="#FFF3ED"/>
<path id="Vector_8" fill-rule="evenodd" clip-rule="evenodd" d="M117.373 122.59C117.373 122.59 119.006 136.688 119.257 141.435C119.533 146.763 120.166 154.316 119.517 158.397C119.24 160.129 119.471 161.775 118.445 163.317C115.731 167.407 107.918 163.267 104.761 161.582C100.502 159.316 94.8535 154.623 92.739 152.294C90.6202 149.969 88.8448 149.232 85.7211 145.5C83.6191 142.989 79.4067 138.777 77.5057 136.022C75.6046 133.263 73.5361 134.068 71.6267 131.924C69.7131 129.78 68.1262 127.139 68.1262 127.139L59.9568 127.501C59.9568 127.501 57.1639 122.059 57.2015 121.044C57.2853 118.622 63.3359 113.807 63.3359 113.807L68.6914 111.015L68.8506 105.788L72.2171 106.731L68.5365 97.1442C68.5365 97.1442 66.9663 90.8428 68.4946 90.4048C70.2575 89.8951 70.6008 92.553 70.6008 92.553C70.6008 92.553 73.4733 96.8367 74.4071 98.5679C76.4714 102.384 76.6598 103.959 77.9663 106.74C77.9663 106.74 79.5239 110.703 81.5883 114.229C82.8821 116.432 84.1886 118.07 85.4699 120.555C87.5467 124.578 95.758 131.945 95.758 131.945L95.9129 126.992C95.9129 126.992 97.9019 127.404 99.8238 127.379C102.872 127.337 106.683 126.789 109.174 126.212C111.783 125.606 117.373 122.581 117.373 122.581V122.59Z" fill="#FFF3ED"/>
<path id="Vector_9" fill-rule="evenodd" clip-rule="evenodd" d="M160.661 70.865C160.264 73.7166 159.543 76.3787 160.326 79.2514C160.456 79.7442 160.724 80.2412 161.034 80.6414C161.306 80.991 161.892 81.9387 162.345 82.0314C162.943 82.1535 163.664 81.1679 163.936 80.7846C164.949 79.3398 165.2 77.3391 165.318 75.6205C165.368 74.8455 165.87 71.2946 164.895 70.7049C164.246 70.3174 160.787 69.9804 160.666 70.865H160.661Z" fill="#744E4F"/>
<path id="Vector_10" fill-rule="evenodd" clip-rule="evenodd" d="M156.728 37.9812C156.728 37.9812 155.702 38.0697 155.183 37.143C154.609 36.1152 154.554 34.0092 154.894 32.9351C155.966 29.5485 162.967 25.7618 166.241 24.4476C167.07 24.1106 168.159 24.0011 169.055 24.1822C169.273 24.2243 170.617 24.6161 170.617 24.6161C171.107 24.2875 169.361 21.617 171.057 22.0467C172.187 22.3289 172.698 23.6346 172.698 23.6346C172.698 23.6346 177.48 22.9818 177.873 22.9986C181.667 23.1797 185.126 23.4451 188.668 25.0331C194.497 27.6404 197.549 33.7522 198.743 39.7419C200.439 48.2841 203.056 67.2136 206.431 75.2714C209.847 83.4303 214.01 84.4792 215.475 93.3289C216.015 96.6017 215.391 99.4871 213.867 102.714C212.657 105.283 210.011 106.926 207.888 108.577C205.53 110.413 204.103 109.634 204.103 109.634C204.103 109.634 203.65 111.184 201.753 111.98C200.083 112.68 196.431 113.602 196.13 112.048C196.009 111.416 197.415 111.201 198.496 110.245C199.149 109.672 199.61 108.231 199.76 107.953C201.155 105.38 201.142 102.086 199.84 99.466C198.559 96.8882 196.917 94.0197 194.643 91.9389C191.264 88.8514 187.098 86.6147 185.536 82.4658C184.628 80.0438 184.058 76.99 183.581 73.1148C183.325 71.055 183.422 63.6332 183.422 63.6332C183.422 63.6332 185.096 63.4226 185.364 63.2583C187.672 61.8683 189.97 58.1153 188.614 55.3943C187.462 53.0734 183.522 55.5543 181.663 54.1517C180.503 53.2755 179.234 51.2663 179.234 51.2663C179.234 51.2663 178.25 50.1375 176.915 47.4754C175.575 44.8091 175.353 43.2843 175.353 43.2843C174.31 41.1867 173.334 37.2609 172.468 35.0791C171.634 32.9856 167.43 29.3716 164.905 29.8644C157.967 31.2123 156.728 37.9896 156.728 37.9896V37.9812Z" fill="#744E4F"/>
<path id="Vector_11" fill-rule="evenodd" clip-rule="evenodd" d="M49.0568 38.3471C49.0568 38.3471 48.123 41.641 46.5067 42.4539C43.9609 43.7344 41.6788 39.1432 41.013 37.5341C39.9578 34.9816 39.7945 32.2058 39.3507 29.5184C38.6347 25.1967 37.68 21.5743 38.3918 17.0926C38.9487 13.5838 40.2928 9.13159 43.1318 6.79805C43.8981 6.16623 44.7606 5.4628 45.7028 5.12583C45.9959 5.02053 46.8668 4.91522 47.0637 4.71725C47.4656 4.31288 45.9289 3.37358 47.3651 2.88918C48.0979 2.64487 49.1531 2.67015 49.8901 2.88918C50.1622 2.97342 50.6773 3.66843 50.9494 3.60103C51.3012 3.51258 57.2178 0.260795 59.9228 0.404008C63.9593 0.618828 68.4774 2.77966 72.1078 4.29604C74.8462 5.43753 80.3651 5.53441 83.0533 8.50397C84.6654 10.2899 85.1846 13.9334 84.678 16.2291C84.5189 16.9493 83.5809 17.4253 83.5809 17.4253C83.5809 17.4253 83.0784 16.9536 82.2368 16.7472C81.391 16.5408 80.2018 16.5997 80.2018 16.5997C80.2018 16.5997 78.3175 16.5492 77.1534 16.2585C74.1009 15.4919 73.946 14.6664 70.525 15.3571C67.2882 16.0058 66.702 16.9578 65.1527 18.6679C63.5992 20.3822 63.3731 21.2963 62.0876 23.276C60.8021 25.2557 58.4279 27.2733 58.4279 27.2733C58.4279 27.2733 56.4641 28.4232 54.5254 29.59C52.5825 30.7526 52.5029 28.9961 51.8078 28.3011C50.5433 27.0248 48.2277 25.559 46.7161 27.387C44.6057 29.9354 45.573 34.3245 47.474 36.6159C47.9555 37.1972 49.0652 38.3429 49.0652 38.3429L49.0568 38.3471Z" fill="#674F46"/>
<path id="Vector_12" fill-rule="evenodd" clip-rule="evenodd" d="M49.1795 102.039C49.1795 99.7395 48.9492 97.1574 48.9492 97.1574C48.9492 97.1574 49.3763 93.7877 50.3185 92.8442C50.8502 92.305 55.4897 91.9765 56.277 91.9765C60.2088 91.9765 63.4916 91.7659 65.69 92.0691C66.473 92.1744 67.8883 92.5072 68.0725 94.1878C68.2484 95.8095 68.7341 110.704 68.7341 110.704L67.3104 111.997L63.4414 113.816C63.4414 113.816 61.3268 113.484 59.9534 112.561C57.9142 111.192 55.7075 109.36 53.4254 108.446C52.3828 108.025 50.6032 107.587 49.4978 107.46C49.3344 107.443 49.1753 102.625 49.1753 102.048L49.1795 102.039Z" fill="#B8B7B8"/>
<path id="Vector_13" fill-rule="evenodd" clip-rule="evenodd" d="M54.7438 119.911C55.5185 119.313 55.0369 119.683 56.8877 120.273C57.3064 120.408 58.8055 121.777 57.7629 122.038C57.2101 122.177 54.4005 120.172 54.7438 119.911Z" fill="#EFEBEA"/>
<path id="Vector_14" fill-rule="evenodd" clip-rule="evenodd" d="M49.7852 125.041C49.7852 125.041 49.8647 127.042 49.9401 127.564C50.1536 129.005 51.7281 129.414 53.2062 129.485C58.4696 129.729 62.9039 130.096 67.1289 129.527C67.7611 129.443 68.4939 128.394 68.4939 128.394L68.9587 127.27C68.9587 127.27 65.186 127.316 64.3736 127.383C61.0112 127.665 57.9545 126.831 54.6173 126.086C53.5118 125.837 52.3896 125.559 51.2633 125.463C50.899 125.433 49.7852 125.037 49.7852 125.037V125.041Z" fill="#B8B7B8"/>
<path id="Vector_15" fill-rule="evenodd" clip-rule="evenodd" d="M176.741 112.342C176.741 112.342 176.711 107.031 176.845 105.173C176.929 104.015 177.059 99.2298 176.15 98.3158C175.087 97.2501 171.653 97.6924 170.271 97.545C167.282 97.229 159.987 98.0251 159.56 98.4548C158.392 99.6342 159.301 111.942 159.56 112.275C159.56 112.275 160.214 111.799 160.377 111.715C161.357 111.192 164.928 109.293 164.928 109.293C164.928 109.293 162.952 106.685 164.861 106.205C166.08 105.898 167.885 107.334 168.948 107.764C170.355 108.328 171.984 108.614 173.55 109.659C175.686 111.083 176.745 112.346 176.745 112.346L176.741 112.342Z" fill="#B8B7B8"/>
<path id="Vector_16" fill-rule="evenodd" clip-rule="evenodd" d="M164.6 114.241C164.935 114.106 165.325 114.511 165.722 114.46C166.196 114.401 168.984 112.965 168.838 112.203C168.742 111.727 167.707 111.52 167.314 111.583C166.585 111.706 165.789 112.931 165.325 113.441C165.191 113.593 164.366 114.342 164.6 114.241Z" fill="#B8B7B8"/>
<path id="Vector_17" fill-rule="evenodd" clip-rule="evenodd" d="M170.245 113.025C170.559 113.943 169.357 114.92 169.596 115.518C169.722 115.83 170.492 115.977 170.756 116.137C171.48 116.588 173.365 117.047 173.365 117.047V115.628C173.365 115.628 172.037 114.111 171.229 113.48C171.204 113.459 170.166 112.78 170.249 113.025H170.245Z" fill="#B8B7B8"/>
<path id="Vector_18" fill-rule="evenodd" clip-rule="evenodd" d="M155.176 57.6766C154.879 57.5882 155.138 58.7592 155.222 59.0119C155.578 60.1155 155.62 61.2359 156.348 62.2089C158.471 65.0521 162.851 61.8509 163.132 59.0329C163.228 58.0768 161.888 58.5359 161.281 58.5359C159.816 58.5359 158.379 58.2495 156.935 58.0136C156.462 57.9336 155.67 57.8198 155.176 57.6766Z" fill="#F1C5C2"/>
</g>
<g id="Group_2">
<path id="Vector_19" d="M157.079 53.6294C157.016 53.6294 156.953 53.621 156.89 53.5999C156.166 53.3556 155.659 52.5806 155.63 51.6708C155.605 50.7947 156.019 50.0744 156.714 49.7964C157.757 49.3752 158.469 49.0887 158.812 46.9742C158.867 46.6457 159.172 46.4182 159.503 46.473C159.834 46.5277 160.052 46.8352 159.997 47.168C159.549 49.9606 158.31 50.4577 157.217 50.8957C156.907 51.0221 156.823 51.3549 156.832 51.6329C156.844 52.0288 157.029 52.3742 157.271 52.4542C157.585 52.5595 157.753 52.9007 157.652 53.2166C157.569 53.4694 157.334 53.6294 157.083 53.6294H157.079Z" fill="#222222"/>
<path id="Vector_20" d="M157.024 38.5373C156.965 38.5373 156.902 38.5289 156.844 38.5078C156.526 38.4067 156.35 38.0698 156.45 37.7497C157.02 35.9384 157.685 34.4347 158.494 33.1458C159.314 31.8316 160.864 30.231 162.522 30.0372C162.852 29.9993 163.15 30.2352 163.187 30.5679C163.229 30.9007 162.991 31.1998 162.66 31.2377C161.676 31.3556 160.378 32.4044 159.507 33.7902C158.757 34.9907 158.129 36.4018 157.597 38.1119C157.514 38.3688 157.279 38.5331 157.024 38.5331V38.5373Z" fill="#222222"/>
<path id="Vector_21" d="M162.685 71.118C160.035 71.118 157.669 70.7178 156.526 69.888C154.441 68.3716 152.514 63.0601 151.945 57.2516C151.639 54.1177 152.619 50.9923 152.988 49.8129C153.046 49.6234 153.088 49.4928 153.101 49.4254C153.117 49.0926 153.398 48.861 153.725 48.8778C154.055 48.8905 154.311 49.2064 154.294 49.5391C154.29 49.6697 154.248 49.7961 154.131 50.1752C153.783 51.2872 152.858 54.2483 153.138 57.1336C153.658 62.4494 155.454 67.6177 157.225 68.9066C159.256 70.3851 167.442 70.284 171.554 68.2411C171.851 68.0936 172.211 68.2158 172.358 68.5149C172.504 68.8139 172.383 69.1762 172.086 69.3236C169.72 70.4988 165.981 71.1138 162.681 71.1138L162.685 71.118Z" fill="#222222"/>
<path id="Vector_22" d="M160.931 83.6827C160.668 83.6827 160.425 83.5058 160.354 83.2363C160.266 82.9119 160.454 82.5792 160.772 82.4949C164.83 81.3829 164.775 76.7327 164.407 72.4658C164.344 71.7118 164.29 71.1221 164.311 70.6967C164.327 70.3639 164.62 70.107 164.939 70.1238C165.27 70.1407 165.525 70.4229 165.508 70.7557C165.491 71.0968 165.542 71.6823 165.6 72.3605C165.898 75.7934 166.455 82.1874 161.091 83.6617C161.036 83.6743 160.982 83.6827 160.931 83.6827Z" fill="#222222"/>
<path id="Vector_23" d="M189.86 88.3963C189.735 88.3963 189.609 88.3542 189.5 88.2742C184.04 84.1547 183.035 76.8171 183.202 67.066C183.207 66.7333 183.483 66.4595 183.814 66.4721C184.145 66.4763 184.408 66.7543 184.404 67.0871C184.245 76.4633 185.175 83.4934 190.225 87.3054C190.488 87.5034 190.543 87.8825 190.346 88.1478C190.229 88.3079 190.049 88.3921 189.864 88.3921L189.86 88.3963Z" fill="#222222"/>
<path id="Vector_24" d="M181.818 64.2185C181.487 64.2185 181.219 63.9489 181.219 63.6161C181.219 63.2834 181.487 63.0096 181.818 63.0096C184.384 63.0096 187.621 61.5353 188.601 59.0712C188.873 58.3889 189.25 57.0747 188.722 55.929C188.484 55.4235 188.057 55.0528 187.449 54.8422C186.243 54.421 184.59 54.6948 183.652 55.1708C183.354 55.3224 182.994 55.2003 182.843 54.9012C182.697 54.6021 182.814 54.2399 183.111 54.0925C184.267 53.5112 186.235 53.1447 187.843 53.705C188.756 54.0251 189.434 54.619 189.807 55.4193C190.343 56.5734 190.309 58.0308 189.715 59.5219C188.496 62.5715 184.74 64.2185 181.818 64.2185Z" fill="#222222"/>
<path id="Vector_25" d="M183.823 59.4799C183.673 59.4799 183.518 59.4209 183.4 59.303C183.166 59.0671 183.166 58.6838 183.4 58.4479C183.966 57.8793 185.343 57.0537 186.353 57.0537C186.683 57.0537 186.951 57.3233 186.951 57.6561C186.951 57.9888 186.683 58.2584 186.353 58.2584C185.787 58.2584 184.707 58.8397 184.25 59.2988C184.129 59.4167 183.978 59.4757 183.823 59.4757V59.4799Z" fill="#222222"/>
<path id="Vector_26" d="M183.035 45.5211C178.043 45.5211 175.133 40.2896 172.772 36.0438C172.194 35.0076 171.645 34.0261 171.122 33.2132C170.289 31.9243 168.928 30.4921 167.919 30.3868C167.592 30.3531 167.328 30.4585 167.073 30.7196C166.838 30.9555 166.457 30.9555 166.223 30.7196C165.988 30.4837 165.988 30.1004 166.223 29.8645C166.729 29.3507 167.366 29.1148 168.044 29.1864C169.983 29.3886 171.788 32.0254 172.131 32.5519C172.68 33.3985 173.236 34.3968 173.823 35.4541C176.147 39.6241 179.032 44.8093 183.747 44.2743C184.077 44.2364 184.375 44.4765 184.412 44.8093C184.446 45.142 184.211 45.4411 183.88 45.4748C183.596 45.5085 183.311 45.5253 183.039 45.5253L183.035 45.5211Z" fill="#222222"/>
<path id="Vector_27" d="M182.412 50.1547C178.782 50.1547 176.01 45.9805 175.047 43.0994C174.942 42.7835 175.11 42.4381 175.424 42.3328C175.742 42.2233 176.081 42.396 176.19 42.7119C177.145 45.5719 180.009 49.5103 183.137 48.87C183.463 48.8068 183.777 49.0175 183.848 49.3418C183.911 49.6703 183.702 49.9863 183.379 50.0536C183.053 50.121 182.73 50.1505 182.416 50.1505L182.412 50.1547Z" fill="#222222"/>
<path id="Vector_28" d="M182.111 53.1362C180.75 53.1362 179.573 52.4538 178.987 51.2702C178.84 50.9712 178.958 50.6089 179.255 50.4615C179.552 50.3099 179.912 50.4278 180.063 50.7311C180.624 51.8557 181.851 52.0453 182.73 51.8683C183.061 51.801 183.375 52.0116 183.442 52.3401C183.509 52.6687 183.296 52.9846 182.973 53.052C182.68 53.1109 182.395 53.1404 182.119 53.1404L182.111 53.1362Z" fill="#222222"/>
<path id="Vector_29" d="M155.387 37.5434C155.186 37.5434 154.997 37.4465 154.88 37.2612C153.452 34.9908 154.294 32.0171 157.179 29.0981C161.153 25.0797 167.978 22.0848 171.165 24.094C171.445 24.2709 171.533 24.6416 171.357 24.928C171.181 25.2102 170.809 25.2987 170.528 25.1176C168.166 23.6349 161.865 26.0737 158.029 29.9531C156.589 31.4105 154.39 34.22 155.893 36.6167C156.074 36.899 155.99 37.2696 155.709 37.4507C155.609 37.5139 155.5 37.5434 155.387 37.5434Z" fill="#222222"/>
<path id="Vector_30" d="M172.768 24.4305C172.479 24.4305 172.223 24.2199 172.177 23.9251C172.093 23.4322 171.432 22.6151 171.172 22.6024C170.85 22.5898 170.582 22.3118 170.586 21.9833C170.594 21.6547 170.85 21.3936 171.176 21.3936C172.232 21.3936 173.224 22.9057 173.362 23.7271C173.417 24.0556 173.195 24.3673 172.868 24.4221C172.835 24.4263 172.801 24.4305 172.768 24.4305Z" fill="#222222"/>
<path id="Vector_31" d="M158.015 41.4605C157.928 41.4605 157.831 41.4394 157.747 41.3973C157.073 41.0561 156.495 40.9971 155.75 41.1825C155.424 41.2667 155.101 41.0645 155.022 40.7444C154.942 40.4201 155.139 40.0915 155.457 40.0115C156.483 39.7545 157.354 39.8472 158.279 40.3148C158.577 40.4664 158.698 40.8286 158.551 41.1277C158.447 41.3383 158.233 41.4605 158.011 41.4605H158.015Z" fill="#222222"/>
<path id="Vector_32" d="M168.174 43.5286C168.019 43.5286 167.869 43.4696 167.751 43.3517C166.872 42.4629 165.934 42.1639 164.883 42.425C164.561 42.5093 164.238 42.3071 164.154 41.987C164.075 41.6626 164.272 41.3341 164.59 41.254C166.047 40.8876 167.429 41.3172 168.601 42.4966C168.836 42.7325 168.836 43.1158 168.601 43.3517C168.484 43.4696 168.333 43.5286 168.178 43.5286H168.174Z" fill="#222222"/>
<path id="Vector_33" d="M132.285 158.179C132.151 158.179 132.021 158.179 131.895 158.171C130.333 158.103 129.09 157.547 128.198 156.52C126.004 153.988 126.452 149.224 126.774 145.745C126.875 144.679 126.963 143.757 126.946 143.121C126.469 121.336 132.05 94.003 135.94 87.7016C138.013 84.3487 141.493 82.2595 145.491 81.9688C147.397 81.8298 149.206 82.2089 150.96 82.5796C153.02 83.0135 155.151 83.4642 157.555 83.1103C157.882 83.064 158.183 83.2915 158.233 83.62C158.284 83.9486 158.057 84.256 157.727 84.3024C155.118 84.6899 152.878 84.2181 150.709 83.759C148.967 83.3883 147.313 83.0387 145.579 83.1693C141.97 83.4347 138.829 85.3175 136.962 88.3376C133.143 94.5211 127.679 121.508 128.148 143.096C128.164 143.803 128.072 144.751 127.972 145.855C127.666 149.119 127.247 153.584 129.102 155.724C129.781 156.503 130.706 156.907 131.946 156.958C135.032 157.093 140.676 155.34 145.022 151.836C148.402 149.111 151.01 145.256 153.313 141.853C153.954 140.905 154.565 140.008 155.151 139.187C155.826 138.252 159.448 133.551 160.432 133.858C160.679 133.93 160.855 134.157 160.867 134.414C160.88 134.697 160.7 134.941 160.44 135.021C159.996 135.341 158.191 137.017 156.123 139.894C155.545 140.699 154.942 141.588 154.306 142.531C151.957 146.006 149.298 149.94 145.772 152.775C141.321 156.364 135.722 158.171 132.281 158.171L132.285 158.179Z" fill="#222222"/>
<path id="Vector_34" d="M160.562 98.2741C160.366 98.2741 160.177 98.1772 160.06 98.0003C158.293 95.2834 157.208 91.8547 157.1 88.5945C157.053 87.293 157.095 83.8306 157.1 83.6832C157.1 83.3504 157.384 83.0556 157.707 83.085C158.038 83.0893 158.305 83.363 158.301 83.6958C158.301 83.7337 158.264 87.2761 158.301 88.5482C158.406 91.5936 159.415 94.7948 161.069 97.3348C161.249 97.6128 161.174 97.9876 160.893 98.173C160.793 98.2404 160.68 98.2699 160.567 98.2699L160.562 98.2741Z" fill="#222222"/>
<path id="Vector_35" d="M177.327 103.409C177.055 103.409 176.808 103.219 176.741 102.937C176.67 102.613 176.871 102.288 177.197 102.217C182.766 100.97 187.598 97.4656 191.166 92.0824C191.35 91.8044 191.723 91.7286 191.999 91.914C192.276 92.0993 192.351 92.4742 192.167 92.7522C188.423 98.4007 183.34 102.082 177.461 103.4C177.419 103.409 177.373 103.413 177.331 103.413L177.327 103.409Z" fill="#222222"/>
<path id="Vector_36" d="M161.082 81.0543C160.893 81.0543 160.709 80.9701 160.592 80.8016C159.013 78.5818 159.386 76.1809 159.742 73.8642C159.888 72.8996 160.047 71.9055 160.047 70.9578C160.047 70.625 160.315 70.3555 160.65 70.3555C160.985 70.3555 161.249 70.625 161.249 70.9578C161.249 71.9982 161.09 73.0386 160.931 74.0453C160.596 76.223 160.278 78.2785 161.572 80.0982C161.764 80.372 161.701 80.7468 161.433 80.9406C161.324 81.0164 161.203 81.0543 161.086 81.0543H161.082Z" fill="#222222"/>
<path id="Vector_37" d="M196.685 111.736C196.354 111.736 196.086 111.466 196.086 111.133C196.086 110.801 196.354 110.531 196.685 110.531C197.397 110.531 198.067 110.194 198.674 109.537C200.006 108.092 200.697 105.476 200.575 103.884C200.161 98.4758 196.095 92.3555 191.317 89.9546C191.02 89.8072 190.898 89.4407 191.049 89.1459C191.196 88.8468 191.56 88.7247 191.853 88.8721C196.97 91.4499 201.329 97.9998 201.773 103.792C201.915 105.679 201.124 108.652 199.549 110.362C198.716 111.264 197.724 111.744 196.677 111.744L196.685 111.736Z" fill="#222222"/>
<path id="Vector_38" d="M198.498 113.282C198.184 113.282 197.921 113.037 197.9 112.717C197.879 112.385 198.13 112.098 198.461 112.077C200.697 111.934 202.347 111.096 203.356 109.583C204.612 107.709 204.616 105.182 204.059 103.51C203.954 103.194 204.126 102.848 204.44 102.747C204.758 102.642 205.098 102.81 205.198 103.13C205.847 105.085 205.839 108.05 204.352 110.266C203.134 112.081 201.124 113.126 198.536 113.29C198.524 113.29 198.511 113.29 198.498 113.29V113.282Z" fill="#222222"/>
<path id="Vector_39" d="M206.832 109.907C206.602 109.907 206.38 109.773 206.284 109.549C206.15 109.246 206.284 108.888 206.589 108.749C212.753 106.011 214.499 100.161 214.675 99.5034C216.597 92.4186 213.318 87.4272 209.847 82.1409C207.992 79.3146 206.074 76.3913 204.843 73.0216C202.406 66.3369 201.464 59.3869 200.551 52.6601C199.965 48.3342 199.358 43.8609 198.357 39.514C196.548 31.6204 192.788 26.6585 187.185 24.7672C181.466 22.8381 175.222 23.7015 175.164 23.71C174.833 23.7521 174.531 23.5288 174.485 23.1961C174.435 22.8675 174.665 22.5601 174.992 22.5137C175.256 22.4716 181.579 21.5997 187.566 23.6215C193.588 25.656 197.612 30.9085 199.525 39.2402C200.539 43.6461 201.146 48.1447 201.736 52.5C202.641 59.1594 203.574 66.0463 205.97 72.6046C207.146 75.848 209.03 78.708 210.844 81.4754C214.47 86.9975 217.891 92.2122 215.831 99.8235C215.638 100.54 213.745 106.892 207.071 109.857C206.991 109.895 206.907 109.907 206.824 109.907H206.832Z" fill="#222222"/>
<path id="Vector_40" fill-rule="evenodd" clip-rule="evenodd" d="M164.343 47.8119C164.46 47.336 164.908 47.0369 165.344 47.1422C165.779 47.2517 166.043 47.7277 165.926 48.2037C165.808 48.6796 165.36 48.9787 164.921 48.8734C164.481 48.7681 164.226 48.2921 164.343 47.8119Z" fill="#222222"/>
<path id="Vector_41" fill-rule="evenodd" clip-rule="evenodd" d="M154.934 46.0392C154.934 45.5463 155.298 45.1504 155.742 45.1504C156.186 45.1504 156.554 45.5463 156.554 46.0392C156.554 46.532 156.194 46.9237 155.742 46.9237C155.29 46.9237 154.934 46.5236 154.934 46.0392Z" fill="#222222"/>
<path id="Vector_42" d="M177.592 120.354C177.442 120.354 177.291 120.299 177.169 120.181C176.935 119.95 176.931 119.566 177.161 119.33C177.89 118.576 178.258 117.747 178.246 116.858C178.225 115.24 177.01 113.93 176.642 113.568C176.244 113.181 175.863 112.759 175.494 112.359C174.577 111.344 173.711 110.38 172.538 109.84C171.973 109.579 171.408 109.377 170.805 109.162C170.147 108.926 169.465 108.682 168.791 108.358C168.602 108.269 168.393 108.16 168.175 108.05C167.187 107.541 165.83 106.841 164.922 107.039C164.825 107.06 164.813 107.086 164.809 107.102C164.729 107.284 164.842 107.776 165.043 108.118C165.696 109.23 166.55 109.781 167.727 110.544C168.376 110.965 169.029 111.26 169.712 111.572C170.168 111.782 170.641 111.997 171.098 112.241C172.999 113.261 174.795 116.976 174.992 117.397C175.134 117.696 175.009 118.058 174.707 118.201C174.41 118.345 174.05 118.218 173.908 117.915C173.418 116.875 171.852 114.015 170.537 113.307C170.11 113.08 169.678 112.882 169.214 112.671C168.514 112.355 167.794 112.026 167.116 111.584C165.855 110.767 164.804 110.085 164.005 108.724C163.745 108.282 163.389 107.338 163.703 106.61C163.875 106.218 164.214 105.948 164.666 105.847C165.994 105.561 167.505 106.34 168.719 106.963C168.929 107.069 169.126 107.174 169.306 107.258C169.921 107.553 170.541 107.776 171.203 108.017C171.801 108.231 172.421 108.45 173.032 108.737C174.427 109.381 175.423 110.481 176.378 111.542C176.751 111.951 177.094 112.338 177.471 112.696C178.689 113.884 179.422 115.43 179.443 116.837C179.46 118.058 178.978 119.179 178.015 120.173C177.898 120.295 177.743 120.354 177.584 120.354H177.592Z" fill="#222222"/>
<path id="Vector_43" d="M174.866 124.823C174.753 124.823 174.64 124.793 174.54 124.726C173.849 124.279 173.166 123.677 172.446 123.045C171.483 122.203 170.49 121.335 169.553 120.918C168.866 120.611 167.978 120.383 167.036 120.143C166.069 119.895 165.06 119.638 164.055 119.254L163.782 119.149C162.12 118.513 160.403 117.86 159.88 116.087C159.637 115.27 159.88 114.756 160.123 114.469C160.885 113.568 162.564 113.711 164.21 113.934C164.411 113.964 164.574 113.985 164.691 113.993C168.292 114.28 171.931 115.501 175.21 117.527L175.331 117.603C176.106 118.071 177.923 119.174 178.178 120.943C178.316 121.929 177.94 122.923 177.056 123.896C176.834 124.145 176.453 124.157 176.206 123.934C175.963 123.711 175.946 123.327 176.168 123.079C176.796 122.388 177.073 121.727 176.985 121.116C176.813 119.92 175.339 119.023 174.711 118.639L174.581 118.559C171.508 116.66 167.966 115.468 164.599 115.202C164.469 115.19 164.277 115.164 164.05 115.135C163.406 115.051 161.438 114.785 161.036 115.261C160.943 115.367 160.981 115.586 161.031 115.75C161.387 116.946 162.694 117.447 164.21 118.024L164.486 118.13C165.424 118.492 166.395 118.74 167.333 118.981C168.326 119.233 169.259 119.473 170.038 119.819C171.139 120.307 172.203 121.238 173.229 122.14C173.92 122.746 174.573 123.315 175.189 123.715C175.465 123.896 175.549 124.267 175.364 124.549C175.247 124.73 175.059 124.827 174.858 124.827L174.866 124.823Z" fill="#222222"/>
<path id="Vector_44" d="M173.665 128.871C171.006 128.871 167.258 126.533 164.424 124.764C163.892 124.431 163.41 124.132 163.004 123.892C162.581 123.643 160.471 122.325 160.24 120.792C160.157 120.248 160.316 119.739 160.701 119.317C161.329 118.622 162.619 118.997 164.122 119.515C164.331 119.587 164.499 119.646 164.608 119.675C167.25 120.354 170.047 121.322 172.438 122.177C172.848 122.325 173.255 122.616 173.652 122.898C174.046 123.176 174.494 123.492 174.766 123.525C175.097 123.563 175.336 123.858 175.298 124.191C175.264 124.524 174.971 124.764 174.636 124.726C174.05 124.663 173.497 124.267 172.957 123.888C172.631 123.656 172.291 123.416 172.036 123.323C169.67 122.477 166.902 121.525 164.315 120.855C164.185 120.821 163.98 120.754 163.737 120.67C162.51 120.244 161.773 120.08 161.547 120.177C161.455 120.295 161.405 120.438 161.43 120.619C161.534 121.297 162.636 122.279 163.615 122.86C164.03 123.104 164.52 123.412 165.06 123.744C167.748 125.421 172.245 128.226 174.36 127.577C174.779 127.447 175.068 127.186 175.26 126.748C175.394 126.444 175.75 126.305 176.056 126.444C176.357 126.579 176.491 126.937 176.357 127.24C176.022 127.999 175.465 128.5 174.712 128.732C174.389 128.828 174.038 128.875 173.669 128.875L173.665 128.871Z" fill="#222222"/>
<path id="Vector_45" d="M172.433 132.22C172.199 132.22 171.965 132.191 171.747 132.136C169.507 131.559 167.735 130.143 166.023 128.77C165.596 128.425 165.164 128.084 164.733 127.755C162.376 125.978 162.568 124.533 163.142 123.631C163.322 123.349 163.69 123.269 163.971 123.45C164.252 123.631 164.331 124.006 164.151 124.289C163.971 124.567 163.494 125.312 165.449 126.791C165.893 127.128 166.333 127.477 166.768 127.827C168.38 129.116 170.051 130.451 172.04 130.965C172.63 131.121 173.384 130.897 173.87 130.426C174.209 130.101 174.573 129.503 174.364 128.526C174.297 128.197 174.506 127.877 174.829 127.806C175.155 127.738 175.473 127.945 175.545 128.273C175.792 129.461 175.494 130.531 174.699 131.293C174.092 131.879 173.237 132.216 172.425 132.216L172.433 132.22Z" fill="#222222"/>
<path id="Vector_46" d="M163.175 133.606C161.898 133.606 161.064 132.768 160.6 132.296C160.491 132.186 160.374 132.064 160.315 132.031C160.076 131.87 159.812 131.748 159.532 131.618C159.009 131.373 158.418 131.095 157.937 130.523C157.484 129.975 157.35 129.305 157.221 128.657C157.124 128.16 157.028 127.688 156.798 127.342C156.484 126.871 156.015 126.441 155.558 126.028C155.336 125.822 155.114 125.624 154.913 125.417C154.277 124.777 154.281 123.821 154.285 123.059C154.285 122.709 154.285 122.38 154.235 122.153C154.122 121.715 153.867 121.294 153.594 120.851C153.075 120.005 152.485 119.044 152.853 117.756C153.171 116.631 154.281 115.767 155.173 115.077C155.441 114.87 155.692 114.672 155.902 114.487C158.397 112.254 160.997 110.532 164.59 108.72C164.887 108.569 165.248 108.691 165.398 108.99C165.545 109.289 165.428 109.651 165.13 109.799C161.638 111.555 159.113 113.227 156.701 115.384C156.475 115.591 156.199 115.805 155.91 116.029C155.119 116.644 154.222 117.339 154.013 118.08C153.8 118.821 154.105 119.373 154.62 120.211C154.93 120.717 155.248 121.235 155.403 121.858C155.495 122.229 155.491 122.654 155.491 123.063C155.491 123.657 155.483 124.276 155.772 124.562C155.96 124.756 156.17 124.941 156.375 125.131C156.886 125.599 157.413 126.075 157.807 126.673C158.167 127.22 158.297 127.856 158.406 128.421C158.51 128.943 158.607 129.436 158.866 129.748C159.172 130.114 159.574 130.304 160.043 130.518C160.353 130.662 160.671 130.813 160.985 131.024C161.14 131.129 161.286 131.277 161.45 131.441C161.919 131.913 162.497 132.502 163.414 132.38C164.184 132.279 164.703 131.213 165.202 130.181C165.449 129.668 165.708 129.133 166.014 128.707C166.206 128.438 166.579 128.37 166.851 128.568C167.119 128.762 167.182 129.137 166.989 129.411C166.747 129.756 166.516 130.219 166.278 130.716C165.666 131.976 164.971 133.399 163.564 133.581C163.43 133.597 163.3 133.606 163.175 133.606Z" fill="#222222"/>
<path id="Vector_47" d="M164.142 114.768C163.924 114.768 163.711 114.646 163.602 114.435C163.455 114.136 163.573 113.774 163.87 113.627C164.984 113.071 166.064 111.837 166.655 110.948C166.839 110.67 167.207 110.598 167.488 110.779C167.764 110.965 167.835 111.339 167.655 111.617C166.952 112.679 165.729 114.044 164.41 114.709C164.326 114.751 164.23 114.772 164.142 114.772V114.768Z" fill="#222222"/>
<path id="Vector_48" d="M157.15 121.057C156.979 121.057 156.807 120.982 156.69 120.838C156.476 120.581 156.514 120.202 156.769 119.988C156.878 119.899 159.474 117.738 160.768 117.09C161.065 116.938 161.425 117.06 161.572 117.359C161.719 117.658 161.601 118.021 161.304 118.168C160.132 118.758 157.556 120.893 157.531 120.918C157.418 121.011 157.284 121.057 157.15 121.057Z" fill="#222222"/>
<path id="Vector_49" d="M169.397 115.683C169.246 115.683 169.091 115.624 168.974 115.506C168.74 115.27 168.74 114.887 168.974 114.651C169.259 114.364 169.439 113.602 169.292 113.316C169.28 113.29 169.246 113.231 169.02 113.269C168.199 113.408 167.199 114.108 166.571 114.739C166.34 114.975 165.955 114.975 165.725 114.739C165.49 114.503 165.49 114.12 165.725 113.884C166.466 113.139 167.668 112.275 168.823 112.081C169.518 111.964 170.079 112.212 170.364 112.764C170.783 113.585 170.419 114.912 169.824 115.51C169.703 115.628 169.552 115.687 169.397 115.687V115.683Z" fill="#222222"/>
<path id="Vector_50" d="M165.431 120.737C165.301 120.737 165.176 120.695 165.071 120.615C164.803 120.417 164.753 120.038 164.95 119.768L165.092 119.578C165.109 119.553 165.13 119.536 165.151 119.515L165.389 119.275C165.435 119.229 165.49 119.191 165.548 119.161L165.645 119.115C165.942 118.968 166.302 119.086 166.453 119.385C166.599 119.684 166.482 120.046 166.185 120.193H166.176L165.921 120.497C165.8 120.657 165.624 120.741 165.439 120.741L165.431 120.737Z" fill="#222222"/>
<path id="Vector_51" d="M159.31 125.749C159.155 125.749 159.004 125.69 158.883 125.572C158.648 125.336 158.648 124.953 158.883 124.717C159.201 124.397 159.729 123.972 160.277 123.521C160.78 123.112 161.299 122.687 161.575 122.413C161.81 122.177 162.191 122.177 162.425 122.413C162.66 122.649 162.66 123.032 162.425 123.268C162.107 123.588 161.588 124.014 161.035 124.46C160.528 124.873 160.009 125.294 159.733 125.572C159.616 125.69 159.465 125.749 159.31 125.749Z" fill="#222222"/>
<path id="Vector_52" d="M161.48 129.869C161.325 129.869 161.17 129.81 161.053 129.692C160.818 129.457 160.818 129.073 161.053 128.837C161.3 128.589 161.848 128.134 162.422 127.65C162.954 127.203 163.507 126.744 163.716 126.533C163.95 126.297 164.331 126.297 164.566 126.533C164.8 126.769 164.8 127.153 164.566 127.384C164.319 127.637 163.77 128.092 163.193 128.576C162.661 129.023 162.112 129.478 161.903 129.688C161.786 129.806 161.631 129.865 161.48 129.865V129.869Z" fill="#222222"/>
<path id="Vector_53" d="M170.26 122.515C170.172 122.515 170.08 122.494 169.996 122.452C169.699 122.305 169.573 121.942 169.72 121.643L169.77 121.546C169.787 121.513 169.807 121.479 169.824 121.454L170.188 120.953C170.373 120.675 170.75 120.599 171.022 120.784C171.298 120.969 171.373 121.344 171.189 121.622L170.8 122.178C170.695 122.393 170.486 122.519 170.26 122.519V122.515Z" fill="#222222"/>
<path id="Vector_54" d="M131.198 146.09C131.147 146.09 131.101 146.09 131.051 146.073C130.729 145.993 130.532 145.665 130.611 145.34C131.905 140.147 134.564 138.715 136.704 137.561C137.278 137.253 137.818 136.962 138.303 136.621C138.927 136.179 139.543 135.758 140.146 135.345C142.394 133.803 144.522 132.346 146.523 130.332C148.332 128.509 151.912 123.505 152.067 122.098C152.105 121.765 152.402 121.529 152.729 121.563C153.059 121.601 153.298 121.9 153.26 122.228C153.047 124.162 148.973 129.574 147.373 131.183C145.292 133.277 143.119 134.764 140.82 136.339C140.221 136.748 139.61 137.169 138.99 137.603C138.442 137.986 137.872 138.293 137.265 138.622C135.138 139.768 132.931 140.956 131.775 145.627C131.704 145.901 131.461 146.086 131.189 146.086L131.198 146.09Z" fill="#222222"/>
<path id="Vector_55" d="M159.565 112.523C159.243 112.523 158.975 112.262 158.967 111.934C158.967 111.871 158.787 105.675 158.648 103.821C158.431 100.902 158.422 98.9182 159.038 98.0421C159.859 96.8796 162.911 96.8164 167.132 96.8501C167.701 96.8543 168.229 96.8585 168.694 96.8585C169.179 96.8585 169.694 96.8416 170.222 96.829C172.621 96.7743 174.887 96.7195 175.95 97.3008C177.336 98.0632 177.315 99.3479 177.278 101.475L177.269 101.938C177.244 103.72 177.064 112.111 177.064 112.111L175.862 112.085C175.862 112.085 176.038 103.699 176.068 101.917L176.076 101.454C176.114 99.4195 176.088 98.7582 175.372 98.3622C174.589 97.9326 172.182 97.9874 170.251 98.0337C169.715 98.0463 169.192 98.059 168.702 98.0632C168.233 98.0632 167.697 98.0632 167.119 98.059C164.984 98.0379 160.537 98.0042 160.018 98.7413C159.528 99.4363 159.766 102.671 159.846 103.733C159.984 105.616 160.16 111.647 160.164 111.904C160.173 112.237 159.917 112.515 159.582 112.528H159.565V112.523Z" fill="#222222"/>
<path id="Vector_56" d="M153.917 114.667C153.586 114.667 153.318 114.398 153.318 114.065C153.318 113.85 153.301 113.614 153.284 113.37C153.23 112.574 153.171 111.672 153.54 110.927C154.143 109.714 157.786 108.265 158.933 108.265C159.264 108.265 159.532 108.534 159.532 108.867C159.532 109.2 159.264 109.474 158.933 109.474C157.937 109.474 154.909 110.872 154.612 111.47C154.39 111.917 154.436 112.645 154.478 113.29C154.499 113.564 154.516 113.829 154.516 114.065C154.516 114.402 154.248 114.667 153.917 114.667Z" fill="#222222"/>
<path id="Vector_57" d="M213.309 164.885C211.223 164.885 208.799 163.726 206.894 162.816C206.517 162.639 206.165 162.467 205.834 162.319C203.603 161.304 196.593 156.338 193.708 153.866C187.021 148.129 180.631 140.454 175.715 132.253C175.544 131.967 175.636 131.596 175.921 131.423C176.205 131.25 176.574 131.343 176.745 131.63C181.594 139.721 187.896 147.286 194.487 152.943C197.506 155.534 204.365 160.327 206.329 161.216C206.663 161.367 207.024 161.54 207.409 161.721C209.754 162.842 212.97 164.375 214.783 163.326C216.102 162.559 217.157 160.302 217.538 157.425C218.932 146.924 218.254 135.214 217.538 122.818L217.492 122.03C217.098 115.202 216.177 108.913 215.733 105.893C215.549 104.627 215.503 103.919 215.595 103.77C215.771 103.488 216.139 103.4 216.424 103.577C216.621 103.699 216.721 103.922 216.705 104.141C216.721 104.318 216.818 104.971 216.927 105.716C217.37 108.753 218.3 115.076 218.694 121.958L218.74 122.746C219.46 135.201 220.138 146.966 218.731 157.585C218.296 160.87 217.044 163.41 215.381 164.371C214.762 164.729 214.058 164.876 213.313 164.876L213.309 164.885Z" fill="#222222"/>
<path id="Vector_58" d="M143.57 131.187C143.319 131.187 143.084 131.032 143 130.779C142.929 130.572 141.275 125.691 141.531 120.788C141.656 118.479 142.23 116.453 142.783 114.499C143.411 112.283 144.064 109.992 144.064 107.241C144.064 106.909 144.332 106.635 144.663 106.635C144.994 106.635 145.262 106.909 145.262 107.241C145.262 110.16 144.592 112.536 143.934 114.832C143.373 116.811 142.841 118.682 142.728 120.855C142.485 125.514 144.114 130.341 144.131 130.387C144.24 130.703 144.072 131.048 143.758 131.154C143.696 131.175 143.633 131.187 143.566 131.187H143.57Z" fill="#222222"/>
<path id="Vector_59" d="M136.896 189.442C136.565 189.442 136.297 189.172 136.297 188.839C136.297 183.132 138.181 177.323 140.003 171.708C141.02 168.57 142.075 165.319 142.749 162.206C142.913 161.435 143.089 160.702 143.256 159.99C143.821 157.623 144.307 155.58 144.307 153.023C144.307 152.686 144.575 152.421 144.906 152.421C145.237 152.421 145.505 152.69 145.505 153.023C145.505 155.723 144.977 157.935 144.424 160.272C144.253 160.976 144.085 161.7 143.918 162.463C143.235 165.639 142.167 168.911 141.142 172.083C139.349 177.61 137.499 183.321 137.499 188.839C137.499 189.172 137.231 189.442 136.896 189.442Z" fill="#222222"/>
<path id="Vector_60" d="M198.336 190.128C198.005 190.128 197.737 189.859 197.737 189.526C197.737 187.285 197.159 184.021 196.649 181.148C196.36 179.535 196.092 178.01 195.937 176.767C195.845 176.026 196.066 175.348 196.263 174.745C196.443 174.194 196.598 173.713 196.515 173.275C196.448 172.938 196.36 172.601 196.272 172.269C196.016 171.287 195.752 170.272 195.941 169.139C196.146 167.892 196.473 166.637 196.787 165.428C197.298 163.448 197.833 161.401 197.833 159.396C197.833 159.064 198.101 158.794 198.432 158.794C198.763 158.794 199.031 159.064 199.031 159.396C199.031 161.557 198.483 163.68 197.947 165.736C197.637 166.919 197.323 168.149 197.126 169.337C196.979 170.213 197.201 171.064 197.436 171.961C197.528 172.319 197.624 172.677 197.695 173.035C197.842 173.785 197.612 174.493 197.406 175.12C197.235 175.647 197.071 176.144 197.13 176.616C197.281 177.833 197.549 179.337 197.833 180.937C198.353 183.865 198.939 187.18 198.939 189.53C198.939 189.867 198.671 190.132 198.34 190.132L198.336 190.128Z" fill="#222222"/>
<path id="Vector_61" d="M141.64 114.31H141.623C137.791 114.188 134.107 113.147 130.359 111.113C130.066 110.957 129.957 110.59 130.116 110.296C130.271 110.001 130.635 109.895 130.929 110.051C134.504 111.993 138.013 112.987 141.661 113.105C141.991 113.114 142.251 113.396 142.243 113.728C142.23 114.057 141.966 114.314 141.64 114.314V114.31Z" fill="#222222"/>
<path id="Vector_62" d="M201.322 139.818C201.016 139.818 200.756 139.586 200.727 139.275C200.714 139.165 199.638 128.361 199.144 125.581L199.111 125.391C198.169 120.109 197.406 117.207 196.845 116.752C196.556 116.71 196.326 116.462 196.326 116.154C196.326 115.821 196.594 115.552 196.929 115.552C198.181 115.552 198.993 117.89 200.296 125.177L200.329 125.366C200.832 128.192 201.883 138.706 201.929 139.148C201.962 139.481 201.719 139.78 201.389 139.81C201.368 139.81 201.351 139.81 201.33 139.81L201.322 139.818Z" fill="#222222"/>
<path id="Vector_63" d="M199.01 119.697C198.789 119.697 198.579 119.575 198.47 119.36C198.324 119.061 198.445 118.699 198.743 118.551C203.307 116.256 209.906 114.714 215.165 114.714C215.496 114.714 215.764 114.983 215.764 115.316C215.764 115.649 215.496 115.923 215.165 115.923C210.073 115.923 203.692 117.414 199.278 119.634C199.195 119.676 199.103 119.697 199.01 119.697Z" fill="#222222"/>
<path id="Vector_64" d="M181.439 119.166C181.247 119.166 181.058 119.073 180.941 118.896C180.078 117.595 179.944 115.965 179.814 114.389C179.618 111.992 179.45 109.924 177.055 108.968C176.745 108.846 176.594 108.496 176.72 108.185C176.842 107.877 177.189 107.721 177.499 107.848C180.593 109.078 180.819 111.845 181.016 114.288C181.138 115.779 181.251 117.186 181.942 118.226C182.126 118.504 182.05 118.879 181.774 119.065C181.669 119.132 181.556 119.166 181.439 119.166Z" fill="#222222"/>
<path id="Vector_65" d="M215.536 152.122C215.289 152.122 215.063 151.97 214.971 151.73C212.61 145.374 209.18 143.959 206.425 142.826C205.839 142.581 205.282 142.354 204.771 142.088C199.6 139.414 194.567 135.475 188.926 129.675C186.699 127.388 183.583 123.18 182.457 121.466C182.273 121.184 182.352 120.813 182.629 120.628C182.905 120.442 183.278 120.522 183.462 120.8C184.559 122.477 187.616 126.596 189.785 128.829C195.329 134.528 200.27 138.399 205.32 141.01C205.78 141.25 206.316 141.469 206.881 141.705C209.695 142.863 213.548 144.456 216.098 151.305C216.215 151.621 216.056 151.966 215.746 152.084C215.675 152.109 215.603 152.122 215.532 152.122H215.536Z" fill="#222222"/>
<path id="Vector_66" d="M183.458 186.81C183.24 186.81 183.031 186.687 182.926 186.481C182.775 186.186 182.888 185.82 183.186 185.668C188.24 183.048 194.278 178.528 196.363 174.329C196.514 174.03 196.874 173.908 197.167 174.059C197.464 174.207 197.586 174.573 197.435 174.868C195.228 179.312 188.964 184.03 183.734 186.738C183.646 186.784 183.55 186.805 183.458 186.805V186.81Z" fill="#222222"/>
<path id="Vector_67" d="M84.5428 38.1072C84.2623 38.1072 84.011 37.9093 83.9524 37.6228C83.8896 37.2943 84.099 36.9784 84.4214 36.911C84.8443 36.8267 85.3049 36.4813 85.4682 36.1275C85.5855 35.879 85.5226 35.7147 85.4682 35.6136C85.3175 35.3314 84.9113 34.965 84.48 34.5817C84.099 34.2363 83.6635 33.8487 83.2992 33.4149C82.8218 32.8462 82.1184 31.1193 82.4073 30.0073C82.4911 29.6829 82.8135 29.4892 83.1401 29.5734C83.4625 29.6576 83.6509 29.9862 83.5714 30.3105C83.4164 30.9129 83.8687 32.2228 84.2204 32.6398C84.5261 33.0063 84.9113 33.3517 85.284 33.6845C85.7948 34.1436 86.2805 34.5774 86.5318 35.0492C86.7998 35.5504 86.8123 36.1191 86.5653 36.6498C86.2345 37.3575 85.4724 37.9429 84.6684 38.103C84.6308 38.1114 84.5889 38.1156 84.5512 38.1156L84.5428 38.1072Z" fill="#222222"/>
<path id="Vector_68" d="M74.8772 25.648C74.6804 25.648 74.4836 25.5511 74.3705 25.37C74.1946 25.0878 74.2742 24.7129 74.5548 24.536C75.9784 23.6177 78.0093 23.4787 79.0058 23.9252C79.3073 24.06 79.4455 24.418 79.3115 24.7213C79.1775 25.0246 78.8216 25.1678 78.5201 25.0288C77.9171 24.7592 76.3218 24.8266 75.2038 25.5511C75.0991 25.6143 74.9902 25.6438 74.8772 25.6438V25.648Z" fill="#222222"/>
<path id="Vector_69" fill-rule="evenodd" clip-rule="evenodd" d="M75.4551 30.6516C75.4551 30.0998 75.8654 29.6533 76.3721 29.6533C76.8788 29.6533 77.2849 30.0998 77.2849 30.6516C77.2849 31.2034 76.8746 31.6499 76.3721 31.6499C75.8696 31.6499 75.4551 31.2034 75.4551 30.6516Z" fill="#222222"/>
<path id="Vector_70" d="M83.3699 27.4083C83.3238 27.4083 83.2819 27.4041 83.2401 27.3957C82.9176 27.3199 82.7125 26.9997 82.7836 26.6754C83.06 25.4455 83.8891 21.128 83.0851 17.2486C83.0181 16.9201 83.2233 16.6041 83.5499 16.5325C83.8765 16.4609 84.1948 16.6715 84.2618 17.0001C85.116 21.1196 84.245 25.6518 83.9561 26.9408C83.8933 27.223 83.6462 27.4125 83.3699 27.4125V27.4083Z" fill="#222222"/>
<path id="Vector_71" d="M49.9475 39.2236C49.8889 39.2236 49.8303 39.2152 49.7717 39.1941C48.4234 38.7814 47.2719 37.4629 46.7066 36.7132C45.6514 35.319 44.7637 32.6527 44.7637 30.9004C44.7637 28.5753 45.6304 26.9873 47.2007 26.4313C49.6712 25.5552 51.6936 26.4734 53.5779 29.3124C53.7621 29.5904 53.6868 29.9653 53.4104 30.1507C53.134 30.336 52.7614 30.2602 52.5813 29.9822C50.6049 27.0042 48.9551 27.0926 47.6026 27.5686C46.1748 28.0741 45.9654 29.8727 45.9654 30.9004C45.9654 32.4084 46.7568 34.784 47.6655 35.9845C48.4778 37.0628 49.3739 37.8126 50.1192 38.0442C50.4374 38.1411 50.6175 38.4781 50.517 38.7982C50.4416 39.0594 50.2029 39.2278 49.9433 39.2278L49.9475 39.2236Z" fill="#222222"/>
<path id="Vector_72" d="M50.9095 34.0179C50.7169 34.0179 50.5243 33.9252 50.407 33.7483L50.2479 33.4998C49.9632 33.0533 49.2932 32.0087 48.8452 32.0087C48.5144 32.0087 48.2422 31.7391 48.2422 31.4021C48.2422 31.0652 48.5102 30.7998 48.8452 30.7998C49.9506 30.7998 50.7336 32.0298 51.257 32.8427L51.4036 33.0702C51.5878 33.3482 51.5125 33.723 51.2361 33.9084C51.1314 33.9758 51.0184 34.0095 50.9011 34.0095L50.9095 34.0179Z" fill="#222222"/>
<path id="Vector_73" d="M39.2816 29.1317C39.0136 29.1317 38.7707 28.9506 38.6995 28.6768C36.2039 18.7151 38.1594 9.46941 43.5652 5.66162C44.4152 5.0635 46.2953 4.22949 47.6017 4.22949C47.9325 4.22949 48.2005 4.49907 48.2005 4.83183C48.2005 5.16459 47.9325 5.43417 47.6017 5.43417C46.6721 5.43417 45.0684 6.07441 44.2519 6.65148C39.2523 10.1728 37.4894 18.9004 39.8678 28.3778C39.9474 28.7021 39.7547 29.0264 39.4323 29.1107C39.3821 29.1233 39.3318 29.1275 39.2858 29.1275L39.2816 29.1317Z" fill="#222222"/>
<path id="Vector_74" d="M45.6583 43.0571C44.4817 43.0571 43.2632 42.3368 42.4383 41.1237C40.5372 38.331 38.9503 33.1543 39.1973 31.4737C39.2476 31.1451 39.5491 30.9177 39.8757 30.964C40.2065 31.0103 40.4326 31.3178 40.3823 31.6506C40.2106 32.8216 41.5129 37.6318 43.4265 40.4413C43.9834 41.2585 44.9758 42.004 45.943 41.8229C46.9312 41.646 47.7352 40.4792 48.2042 38.5459C48.2837 38.2215 48.6061 38.0236 48.9327 38.1036C49.2552 38.1836 49.452 38.5122 49.3724 38.8323C48.6103 41.9409 47.2076 42.817 46.1608 43.0107C45.9933 43.0402 45.83 43.0571 45.6583 43.0571Z" fill="#222222"/>
<path id="Vector_75" d="M50.5244 4.1366C50.3695 4.1366 50.2188 4.07763 50.1015 3.95969C49.4232 3.28153 48.3596 3.22256 47.3253 3.22256C46.9945 3.22256 46.7266 2.95298 46.7266 2.62022C46.7266 2.28746 46.9945 2.01367 47.3253 2.01367C48.5564 2.01367 49.955 2.09791 50.9557 3.10462C51.1902 3.3405 51.1902 3.7238 50.9557 3.95969C50.8343 4.07763 50.6835 4.1366 50.5286 4.1366H50.5244Z" fill="#222222"/>
<path id="Vector_76" d="M45.2487 62.4374C45.0687 62.4374 44.8886 62.3531 44.7714 62.2015C44.5662 61.9361 44.6207 61.557 44.8845 61.3548C45.9061 60.5714 46.5719 57.5555 46.664 55.6811C46.8399 51.9533 46.6975 47.5601 46.2369 42.6234C46.2034 42.2907 46.4463 41.9958 46.7813 41.9663C47.1121 41.9368 47.4052 42.1769 47.4345 42.5097C47.9035 47.5011 48.05 51.9491 47.87 55.7358C47.8072 57.0416 47.2628 61.0516 45.6214 62.311C45.5125 62.3952 45.3869 62.4332 45.2571 62.4332L45.2487 62.4374Z" fill="#222222"/>
<path id="Vector_77" d="M79.0988 48.7732C79.0359 48.7732 78.9731 48.7647 78.9103 48.7437C74.9115 47.4126 74.1745 42.7035 74.1452 42.5013C74.1117 42.3075 74.1787 42.1138 74.3211 41.9748C74.4634 41.84 74.6561 41.781 74.8487 41.8189C77.3192 42.3033 80.2879 42.7456 80.782 42.6234C81.0793 42.4886 81.4227 42.6234 81.5609 42.9309C81.6991 43.2342 81.5441 43.6006 81.2468 43.7396C80.6187 44.0261 77.964 43.6301 75.5396 43.1794C75.9248 44.4599 76.9298 46.8103 79.2914 47.5938C79.6054 47.6991 79.7771 48.0403 79.6724 48.3562C79.5887 48.6089 79.3542 48.7732 79.0988 48.7732Z" fill="#222222"/>
<path id="Vector_78" d="M74.509 56.3415C71.6826 56.3415 68.4124 55.1157 66.436 53.9827C66.147 53.8184 66.0507 53.4477 66.214 53.1571C66.3773 52.8665 66.7458 52.7654 67.0305 52.9339C69.8779 54.5724 74.9487 56.1098 77.3229 54.4039C78.0263 53.8984 78.4534 51.5944 78.533 50.1201C78.5498 49.7874 78.8429 49.5262 79.1611 49.5515C79.4919 49.5683 79.7473 49.8506 79.7306 50.1875C79.6971 50.8783 79.4416 54.3744 78.0222 55.3937C77.0716 56.0761 75.8406 56.3499 74.509 56.3499V56.3415Z" fill="#222222"/>
<path id="Vector_79" d="M72.8259 65.8151C72.671 65.8151 72.5203 65.7561 72.3988 65.6424C70.4852 63.7174 70.5941 59.8675 70.6737 57.058C70.6862 56.5484 70.703 56.0724 70.703 55.6512C70.703 55.3184 70.971 55.0488 71.3018 55.0488C71.6326 55.0488 71.9005 55.3184 71.9005 55.6512C71.9005 56.085 71.888 56.5736 71.8712 57.0959C71.8001 59.6864 71.6996 63.2373 73.2447 64.7915C73.4791 65.0274 73.4791 65.4107 73.2447 65.6466C73.1232 65.7645 72.9725 65.8235 72.8176 65.8235L72.8259 65.8151Z" fill="#222222"/>
<path id="Vector_80" d="M79.1022 17.1142C76.6736 17.1142 74.0147 15.6273 71.6237 14.2878C70.535 13.6813 69.5133 13.1084 68.6508 12.7588C66.8712 12.0428 64.3421 11.4573 62.4285 12.742C62.1521 12.9273 61.7794 12.8515 61.5952 12.5735C61.411 12.2955 61.4863 11.9206 61.7585 11.7353C64.1076 10.1599 67.0429 10.8128 69.0946 11.6342C70.0284 12.0091 71.0836 12.603 72.2058 13.2264C74.8563 14.709 77.867 16.3939 80.1616 15.7621C80.5301 15.661 81.3466 14.8481 81.3257 13.8835C81.3215 13.5507 81.5811 13.2727 81.9119 13.2685C82.2385 13.2811 82.519 13.5254 82.5232 13.8582C82.5567 15.2861 81.4638 16.6593 80.4756 16.9289C80.0276 17.0552 79.5628 17.11 79.0938 17.11L79.1022 17.1142Z" fill="#222222"/>
<path id="Vector_81" d="M61.6453 18.2848C61.5448 18.2848 61.4401 18.2595 61.348 18.2048C61.0591 18.0405 60.9586 17.6698 61.126 17.3834C61.7918 16.2082 63.9776 15.3321 65.6441 14.9361C66.6239 14.7003 69.0526 14.258 70.4051 15.1636C70.6814 15.3489 70.7526 15.7238 70.5725 16.0018C70.3883 16.2798 70.0156 16.3556 69.7393 16.1703C69.0819 15.728 67.6205 15.707 65.9247 16.1071C63.9022 16.5873 62.4827 17.4297 62.1729 17.9773C62.064 18.1753 61.863 18.2806 61.6536 18.2806L61.6453 18.2848Z" fill="#222222"/>
<path id="Vector_82" d="M55.1222 24.9485C54.7914 24.9485 54.5234 24.6789 54.5234 24.3461C54.5234 24.0134 54.7914 23.7438 55.1222 23.7438C57.4671 23.7438 58.8196 22.4212 60.3856 20.8879C61.6209 19.6791 62.9022 18.428 64.7697 17.8004C65.0837 17.6951 65.4229 17.8678 65.5276 18.1837C65.6323 18.4996 65.4606 18.8408 65.1466 18.9504C63.5386 19.4895 62.4123 20.5931 61.2189 21.7556C59.611 23.3268 57.9528 24.9527 55.118 24.9527L55.1222 24.9485Z" fill="#222222"/>
<path id="Vector_83" d="M55.4445 29.3334C55.1095 29.3334 54.8457 29.0638 54.8457 28.7311C54.8457 28.3983 55.1137 28.1287 55.4445 28.1287C56.2191 28.1287 57.2618 27.4253 57.6805 26.7935C57.8647 26.5155 58.2374 26.4439 58.5138 26.625C58.7901 26.8103 58.8655 27.1852 58.6771 27.4632C58.0825 28.3604 56.6755 29.3334 55.4445 29.3334Z" fill="#222222"/>
<path id="Vector_84" d="M70.6481 4.4019C70.5644 4.4019 70.4848 4.38505 70.4053 4.35135L70.2169 4.26711C65.682 2.27476 58.8275 -0.736928 54.3889 2.98661C54.1293 3.20143 53.7525 3.16352 53.5431 2.91079C53.3338 2.65385 53.3631 2.27476 53.6185 2.05994C58.6265 -2.14379 65.8914 1.04902 70.6984 3.15931L70.891 3.24355C71.1967 3.37834 71.3349 3.73216 71.2009 4.03965C71.1004 4.26711 70.8826 4.4019 70.6523 4.4019H70.6481Z" fill="#222222"/>
<path id="Vector_85" d="M83.9013 17.6197C83.7631 17.6197 83.6208 17.5734 83.5077 17.4723C83.2607 17.2533 83.2314 16.8742 83.4491 16.6214C84.475 15.4294 84.7723 13.7066 84.274 11.8912C83.6417 9.59979 81.8914 7.72539 79.7015 7.00511C78.2485 6.52913 76.8123 6.32695 75.6566 6.16689C74.4129 5.99419 73.4331 5.8594 72.8008 5.45082C72.5203 5.27391 72.4407 4.89903 72.6166 4.61682C72.7967 4.3346 73.1693 4.25457 73.4457 4.4357C73.856 4.69685 74.7647 4.82321 75.8157 4.97064C77.0216 5.13913 78.5165 5.34552 80.0741 5.85519C82.6368 6.70183 84.6885 8.88794 85.4297 11.5669C86.0368 13.7782 85.6474 15.9096 84.3577 17.4133C84.2363 17.5523 84.073 17.6239 83.9013 17.6239V17.6197Z" fill="#222222"/>
<path id="Vector_86" d="M61.0096 76.1601C55.943 76.1601 51.1151 74.5258 48.7116 73.1273C44.026 70.4021 41.8612 66.489 42.1459 64.0291C42.1836 63.6963 42.4851 63.4647 42.8117 63.4984C43.1425 63.5363 43.377 63.8353 43.3393 64.1681C43.155 65.7771 44.6122 69.3491 49.3145 72.0827C52.6099 73.9993 59.9586 75.9663 65.9631 74.3236C69.5223 73.3506 72.2315 71.2698 74.0069 68.1275C74.1702 67.8369 74.5345 67.7358 74.8234 67.9001C75.1123 68.0643 75.2128 68.435 75.0453 68.7257C73.1066 72.1586 70.1588 74.4331 66.2772 75.4946C64.552 75.9621 62.7682 76.1643 61.0096 76.1643V76.1601Z" fill="#222222"/>
<path id="Vector_87" d="M5.70818 162.99C5.49462 162.99 5.27689 162.986 5.06752 162.973C1.71351 162.788 0.541074 159.687 0.415456 159.334C-0.154014 157.712 -0.0116467 155.968 0.122346 154.279C0.139095 154.03 0.160032 153.782 0.176781 153.538C0.340085 151.284 0.352646 148.955 0.369396 146.71C0.381957 144.861 0.398706 142.948 0.490827 141.074C1.27803 125.228 2.16992 107.263 6.92249 90.7429C7.42496 88.9359 10.0755 79.9682 14.4177 76.2742C19.254 72.1589 26.3724 69.5853 31.5688 67.7109C33.6164 66.9737 39.0096 65.0235 39.6837 64.4591C39.8261 64.2232 40.115 64.1095 40.3872 64.2022C40.7013 64.3075 40.8729 64.6486 40.7683 64.9645C40.5966 65.4953 40.1234 65.9081 31.975 68.8524C26.8665 70.7015 19.8654 73.2288 15.1924 77.2051C11.1223 80.6717 8.5639 89.3318 8.09074 91.0293C3.3633 107.474 2.4756 125.363 1.68839 141.146C1.60046 142.995 1.58371 144.894 1.57114 146.731C1.5544 149.001 1.53765 151.347 1.37434 153.639C1.35759 153.887 1.33666 154.14 1.31572 154.393C1.1901 155.955 1.0603 157.569 1.54183 158.942C1.63814 159.228 2.55515 161.642 5.13033 161.785C7.52964 161.916 9.83264 161.191 11.8593 160.547L11.9682 160.513C14.7694 159.628 20.1668 157.611 24.8315 154.068C29.0983 150.829 32.557 147.965 35.5677 144.507C38.9887 140.573 41.2707 136.836 42.372 135.046C43.088 133.871 43.1466 133.774 43.5109 133.753C43.7077 133.745 43.9003 133.829 44.0218 133.981C44.2311 134.242 44.1893 134.621 43.9296 134.827C43.9296 134.827 43.9213 134.832 43.9171 134.836C43.8208 134.975 43.6114 135.316 43.3937 135.678C42.2799 137.502 39.9601 141.293 36.4679 145.303C33.3903 148.841 29.8813 151.752 25.5517 155.033C20.7447 158.685 15.2007 160.757 12.3283 161.667L12.2236 161.701C10.3644 162.291 8.09074 163.011 5.70818 163.011V162.99Z" fill="#222222"/>
<path id="Vector_88" d="M4.42719 146.432C4.09639 146.432 3.82422 146.162 3.82422 145.83C3.82422 143.033 7.80632 140.387 11.2776 138.395C13.4926 137.123 16.2227 135.737 19.112 134.267C24.3209 131.622 30.225 128.623 33.8596 125.877C37.4229 123.189 40.6848 117.275 41.292 112.406C41.3297 112.078 41.6311 111.842 41.9619 111.884C42.2927 111.926 42.523 112.225 42.4812 112.558C41.8405 117.709 38.3734 123.985 34.584 126.845C30.8615 129.655 24.9072 132.679 19.6563 135.345C16.7797 136.807 14.0579 138.189 11.9182 139.419C10.1805 140.417 5.02597 143.378 5.02597 145.83C5.02597 146.162 4.75798 146.432 4.42719 146.432Z" fill="#222222"/>
<path id="Vector_89" d="M24.2113 129.937C23.8805 129.937 23.6125 129.667 23.6125 129.334C23.6125 122.127 23.5036 114.491 22.2014 107.305C22.0004 106.18 21.4728 105.127 20.9117 104.011C20.5097 103.211 20.0952 102.381 19.8105 101.517C19.7058 101.201 19.8733 100.856 20.1873 100.751C20.5014 100.645 20.8405 100.818 20.9494 101.134C21.2048 101.913 21.5859 102.667 21.9878 103.463C22.5615 104.609 23.1561 105.793 23.3864 107.086C24.7054 114.369 24.8142 122.068 24.8142 129.334C24.8142 129.667 24.5463 129.937 24.2155 129.937H24.2113Z" fill="#222222"/>
<path id="Vector_90" d="M24.3957 188.722C24.0649 188.722 23.7969 188.452 23.7969 188.119C23.7969 187.269 24.0146 186.14 24.2449 184.948C24.5296 183.465 24.8563 181.78 24.6888 180.782C24.6385 180.483 24.538 180.129 24.4292 179.754C24.2072 178.988 23.956 178.116 24.0649 177.357C24.2491 176.052 24.5757 174.805 24.8939 173.596C25.3252 171.941 25.7356 170.374 25.8235 168.634C25.9198 166.802 25.811 163.626 25.7105 160.829C25.6477 159.035 25.589 157.337 25.589 156.162C25.589 155.829 25.857 155.56 26.1878 155.56C26.5186 155.56 26.7908 155.829 26.7908 156.162C26.7908 157.316 26.8494 159.005 26.9122 160.787C27.0085 163.613 27.1216 166.814 27.0253 168.701C26.929 170.567 26.4809 172.265 26.0538 173.908C25.744 175.083 25.4299 176.296 25.254 177.534C25.1829 178.036 25.3964 178.769 25.5848 179.421C25.7021 179.834 25.8151 180.222 25.8738 180.588C26.0748 181.805 25.744 183.524 25.4215 185.184C25.2038 186.317 24.9986 187.387 24.9986 188.124C24.9986 188.456 24.7306 188.726 24.3998 188.726L24.3957 188.722Z" fill="#222222"/>
<path id="Vector_91" d="M97.7858 188.6C97.455 188.6 97.187 188.33 97.187 187.997C97.187 184.927 96.7599 182.092 96.3077 179.089C96.0062 177.054 95.6879 174.952 95.5204 172.791C95.1813 168.348 95.3195 156.04 95.3278 155.522C95.332 155.189 95.6 154.928 95.9266 154.928C96.2616 154.928 96.5254 155.206 96.5212 155.539C96.5212 155.665 96.3747 168.31 96.7138 172.703C96.8771 174.818 97.1828 176.898 97.4885 178.912C97.9239 181.827 98.3762 184.842 98.3762 188.002C98.3762 188.334 98.104 188.604 97.7732 188.604L97.7858 188.6Z" fill="#222222"/>
<path id="Vector_92" d="M114.289 165.391C112.383 165.391 110.403 164.885 108.837 164.228C101.886 161.313 97.3972 157.476 92.6614 153.125C88.0093 148.85 78.2907 138.126 76.1091 135.198C75.9081 134.933 75.9625 134.554 76.2305 134.351C76.4943 134.149 76.8754 134.204 77.0722 134.474C79.1826 137.3 88.964 148.087 93.4737 152.236C98.9926 157.299 103.146 160.538 109.302 163.116C112.065 164.275 115.775 164.746 117.84 163.192C118.417 162.754 118.447 161.794 118.476 160.859C118.489 160.429 118.501 160.02 118.564 159.637C119.313 155.096 119.46 150.412 118.995 145.712C118.715 142.885 118.447 140.067 118.174 137.249C117.165 126.668 116.119 115.725 114.477 104.976C114.352 104.155 114.23 103.316 114.109 102.47C113.443 97.8784 112.752 93.1313 111.194 88.8644C110.905 88.1231 108.473 82.6936 106.433 80.7518C102.225 76.7419 94.039 74.0629 87.4608 71.9105L86.5061 71.5988C81.5316 69.9645 75.5271 67.8669 75.1586 67.1213C75.012 66.8222 75.1293 66.46 75.4308 66.3126C75.682 66.1862 75.9835 66.2578 76.1593 66.4684C76.6618 66.8222 80.3382 68.3049 86.8788 70.4489L87.8335 70.7606C94.5289 72.9509 102.853 75.6762 107.267 79.8757C109.725 82.2176 112.308 88.3927 112.329 88.4474C113.924 92.8323 114.624 97.6425 115.302 102.297C115.428 103.144 115.549 103.978 115.675 104.799C117.32 115.582 118.371 126.542 119.38 137.14C119.653 139.954 119.921 142.776 120.197 145.598C120.674 150.404 120.528 155.197 119.757 159.843C119.711 160.142 119.699 160.509 119.686 160.901C119.653 162.008 119.615 163.377 118.568 164.165C117.387 165.054 115.871 165.399 114.297 165.399L114.289 165.391Z" fill="#222222"/>
<path id="Vector_93" d="M115.171 149.228C114.937 149.228 114.719 149.093 114.618 148.861C112.525 143.958 108.312 141.288 103.853 138.462C102.647 137.699 101.403 136.911 100.21 136.077C96.0354 133.167 90.7887 129.178 87.2714 124.128L86.4088 122.898C83.7457 119.107 80.4294 114.389 79.0643 110.219C78.9596 109.903 79.1271 109.558 79.4454 109.457C79.7636 109.351 80.0986 109.524 80.2033 109.84C81.5181 113.842 84.7758 118.479 87.3928 122.203L88.2596 123.437C91.668 128.327 96.8016 132.232 100.897 135.088C102.069 135.905 103.304 136.688 104.498 137.446C108.915 140.248 113.488 143.141 115.728 148.39C115.858 148.697 115.72 149.051 115.414 149.181C115.335 149.215 115.255 149.232 115.175 149.232L115.171 149.228Z" fill="#222222"/>
<path id="Vector_94" d="M95.7516 132.16C95.4208 132.16 95.1529 131.891 95.1529 131.558V122.797C95.1529 122.068 95.1403 121.284 95.1277 120.463C95.044 115.189 94.9477 108.627 97.6485 104.545C97.8327 104.267 98.2054 104.192 98.4817 104.377C98.7581 104.562 98.8335 104.937 98.6492 105.215C96.1536 108.981 96.2499 115.341 96.3295 120.446C96.342 121.276 96.3546 122.064 96.3546 122.797V131.558C96.3546 131.891 96.0866 132.16 95.7558 132.16H95.7516Z" fill="#222222"/>
<path id="Vector_95" d="M101.53 128.197C100.583 128.197 99.6244 128.155 98.6656 128.075C98.3348 128.045 98.0919 127.755 98.117 127.422C98.1463 127.089 98.4352 126.849 98.766 126.87C105.127 127.414 111.144 126.091 116.646 122.936C116.935 122.772 117.299 122.873 117.462 123.164C117.63 123.454 117.525 123.821 117.236 123.985C112.354 126.782 107.078 128.193 101.525 128.193L101.53 128.197Z" fill="#222222"/>
<path id="Vector_96" d="M20.0998 126.521C15.3263 126.47 10.8166 124.865 6.83452 123.446L6.29018 123.256C5.02143 122.818 3.44701 122.271 2.42532 121.453C2.16571 121.247 2.11965 120.864 2.32901 120.603C2.53838 120.341 2.91104 120.299 3.17065 120.506C4.03323 121.192 5.49878 121.702 6.67959 122.115L7.2365 122.309C11.1265 123.694 15.5357 125.265 20.1124 125.312C20.4474 125.312 20.7112 125.59 20.707 125.923C20.707 126.255 20.4348 126.521 20.104 126.521H20.0998Z" fill="#222222"/>
<path id="Vector_97" d="M60.784 127.389C60.7463 127.389 60.7044 127.389 60.6709 127.389C59.1049 127.347 57.7733 127.048 56.3622 126.736C55.9519 126.647 55.5331 126.551 55.0977 126.462C53.8708 126.209 50.0227 125.704 49.985 125.7C49.6584 125.658 49.4239 125.354 49.4658 125.022C49.5076 124.689 49.8091 124.457 50.1399 124.499C50.299 124.52 54.0718 125.017 55.3405 125.278C55.7802 125.367 56.2031 125.464 56.6218 125.556C57.9743 125.86 59.2514 126.146 60.7044 126.184C61.3535 126.209 62.4463 126.016 62.8567 125.54C62.9823 125.401 63.0242 125.245 62.9907 125.047C62.8651 124.246 60.9431 123.766 60.0177 123.539C59.7246 123.463 59.4734 123.4 59.3017 123.341C57.9283 122.882 56.5883 122.296 55.0725 121.504C52.6481 120.232 49.0387 119.563 49.001 119.554C48.6744 119.495 48.4608 119.179 48.5194 118.851C48.5823 118.522 48.8879 118.303 49.2187 118.366C49.3736 118.396 53.0417 119.078 55.6253 120.435C57.0824 121.197 58.3679 121.757 59.6785 122.199C59.8293 122.25 60.047 122.305 60.3066 122.368C61.6591 122.705 63.9286 123.269 64.1757 124.861C64.2594 125.413 64.1171 125.923 63.7569 126.34C63.0284 127.178 61.5963 127.393 60.784 127.393V127.389Z" fill="#222222"/>
<path id="Vector_98" d="M64.2933 122.212C62.5305 122.212 60.4285 121.651 58.3683 121.104C56.0276 120.481 53.6074 119.836 52.1837 120.194C51.8613 120.278 51.5347 120.08 51.4551 119.756C51.3714 119.432 51.5682 119.103 51.8906 119.023C53.6158 118.589 56.0737 119.242 58.674 119.937C61.446 120.674 64.3143 121.437 65.918 120.721C66.0101 120.678 66.2362 120.556 66.2404 120.35C66.2488 120.08 65.9012 119.583 64.9005 119.078C63.4642 118.345 61.2869 117.696 59.5366 117.178C58.7368 116.938 58.0459 116.736 57.5518 116.559C56.8483 116.306 56.0779 115.927 55.253 115.523C52.7909 114.314 50.0063 112.941 48.143 114.44C47.8876 114.651 47.5107 114.609 47.3014 114.348C47.092 114.086 47.1339 113.707 47.3935 113.501C49.8472 111.525 53.1342 113.143 55.7764 114.44C56.5678 114.828 57.3173 115.194 57.9538 115.426C58.4102 115.59 59.0885 115.792 59.8757 116.024C61.6679 116.559 63.8997 117.22 65.4406 118.004C67.1197 118.859 67.4505 119.773 67.4338 120.388C67.4212 121.011 67.0318 121.55 66.3995 121.833C65.784 122.106 65.068 122.216 64.285 122.216L64.2933 122.212Z" fill="#222222"/>
<path id="Vector_99" d="M66.4022 119.696C66.0714 119.696 65.7992 119.427 65.7992 119.094C65.7992 118.761 66.0672 118.492 66.4022 118.492C66.9382 118.492 67.315 118.378 67.4365 118.18C67.5788 117.944 67.4783 117.439 67.1685 116.828C66.7749 116.049 64.5849 115.198 62.8221 114.511C61.2937 113.917 59.8533 113.361 58.8944 112.7L58.6474 112.532C52.0985 107.974 49.6196 107.831 48.6942 108.509C48.4262 108.707 48.0535 108.648 47.8567 108.378C47.6599 108.109 47.7186 107.73 47.9865 107.536C50.4235 105.746 55.6283 108.964 59.3299 111.537L59.5727 111.706C60.4102 112.283 61.8548 112.843 63.2492 113.387C65.5061 114.263 67.6333 115.088 68.2362 116.28C68.768 117.333 68.8392 118.184 68.454 118.812C68.0939 119.402 67.403 119.701 66.3938 119.701L66.4022 119.696Z" fill="#222222"/>
<path id="Vector_100" d="M74.4517 134.292C74.3177 134.292 74.1879 134.25 74.0748 134.161C73.6728 133.833 73.2876 133.685 72.8479 133.517C71.9435 133.176 70.9134 132.784 69.8373 130.766C69.7368 130.577 69.6489 130.425 69.5735 130.286C69.2552 129.717 69.0626 129.372 68.623 128.083C68.5434 127.856 67.9195 127.523 64.6325 127.864C59.7669 128.365 59.0048 128.079 58.607 127.717C58.4228 127.548 58.3223 127.325 58.3223 127.085C58.3223 126.752 58.5903 126.482 58.9252 126.482C59.1681 126.482 59.3775 126.626 59.4696 126.836C59.7794 126.933 60.8472 127.038 64.5111 126.659C67.0025 126.407 69.2804 126.289 69.7577 127.687C70.1639 128.871 70.3146 129.144 70.6203 129.692C70.6999 129.835 70.792 129.991 70.8925 130.189C71.7592 131.807 72.4585 132.072 73.275 132.384C73.7398 132.561 74.2758 132.763 74.8285 133.213C75.0839 133.424 75.1258 133.803 74.9206 134.064C74.7992 134.212 74.6275 134.288 74.4517 134.288V134.292Z" fill="#222222"/>
<path id="Vector_101" d="M63.0908 124.162C62.7935 124.162 62.5339 123.935 62.4962 123.631C62.4585 123.299 62.6888 123 63.0196 122.957C63.9031 122.848 64.6485 122.633 65.4399 122.406C67.0687 121.934 68.752 121.449 71.6664 121.9C72.3028 121.997 73.0942 122.119 74.2583 123.092C74.5095 123.307 74.5472 123.686 74.3337 123.943C74.1243 124.2 73.7433 124.234 73.4878 124.023C72.5834 123.265 72.0474 123.181 71.4821 123.092C68.8316 122.684 67.3451 123.109 65.7707 123.564C64.9709 123.796 64.1418 124.036 63.1662 124.154C63.1411 124.154 63.1159 124.158 63.0908 124.158V124.162Z" fill="#222222"/>
<path id="Vector_102" d="M63.6145 123.113C59.6701 123.113 56.2198 122.641 55.4326 120.649C55.3112 120.337 55.4619 119.988 55.7718 119.865C56.0816 119.743 56.4292 119.895 56.5506 120.207C57.3797 122.3 64.6153 121.938 67.7097 121.786C69.2757 121.706 69.8327 121.685 70.1383 121.782C70.4524 121.883 70.6324 122.22 70.5319 122.54C70.4356 122.86 70.1006 123.037 69.7824 122.94C69.6024 122.907 68.6728 122.953 67.7725 122.999C66.3907 123.067 64.9754 123.121 63.6187 123.121L63.6145 123.113Z" fill="#222222"/>
<path id="Vector_103" d="M75.8706 119.748C75.6487 119.748 75.4393 119.626 75.3347 119.415C74.9201 118.577 74.045 117.612 73.4001 117.09C72.6757 116.509 70.8543 117.056 69.6483 117.423C69.2757 117.536 68.9323 117.638 68.656 117.701C68.3293 117.777 68.0111 117.574 67.9357 117.246C67.8604 116.922 68.0614 116.597 68.388 116.521C68.6434 116.462 68.9574 116.365 69.305 116.264C70.8375 115.801 72.9353 115.169 74.1538 116.146C74.8782 116.732 75.8958 117.836 76.415 118.872C76.5615 119.171 76.4443 119.533 76.147 119.68C76.0591 119.723 75.9669 119.744 75.879 119.744L75.8706 119.748Z" fill="#222222"/>
<path id="Vector_104" d="M63.2794 114.263C63.0323 114.263 62.802 114.111 62.7141 113.863C62.601 113.551 62.7601 113.201 63.0742 113.092C63.3631 112.987 63.6311 112.89 63.8907 112.797C64.569 112.553 65.1553 112.346 65.8671 112.039C66.2942 111.858 66.8469 111.538 67.4331 111.201C69.3174 110.122 71.6581 108.783 73.5089 109.491C74.4008 109.836 75.0498 110.607 75.4476 111.795C75.5523 112.115 75.3848 112.456 75.0666 112.561C74.7525 112.667 74.4133 112.494 74.3045 112.178C74.0281 111.34 73.6261 110.83 73.0818 110.619C71.767 110.114 69.6063 111.348 68.0319 112.254C67.4122 112.608 66.826 112.94 66.3403 113.151C65.5907 113.475 64.9585 113.698 64.2843 113.939C64.0289 114.027 63.7609 114.124 63.4762 114.229C63.4092 114.254 63.3422 114.267 63.271 114.267L63.2794 114.263Z" fill="#222222"/>
<path id="Vector_105" d="M68.6722 111.648C68.3415 111.648 68.0735 111.378 68.0735 111.046C68.0735 106.888 67.7804 94.2939 67.2234 93.1861C66.6749 92.4868 65.2345 92.4531 60.7792 92.47C55.139 92.4826 51.9734 92.5964 50.7465 93.1566C50.5371 93.5272 49.9886 94.5845 49.9384 95.5533C49.796 98.3291 50.0096 102.672 50.1352 105.271C50.1812 106.227 50.2147 106.918 50.2147 107.213C50.2147 107.549 49.9426 107.819 49.6118 107.819C49.281 107.819 49.013 107.549 49.013 107.213C49.013 106.947 48.9795 106.235 48.9334 105.33C48.8078 102.71 48.5942 98.3291 48.7366 95.4943C48.8162 93.9779 49.7709 92.4405 49.8086 92.3773C49.863 92.2931 49.9384 92.2173 50.0263 92.1709C51.3955 91.4085 54.3141 91.2822 60.7709 91.2611C65.5988 91.2485 67.2318 91.2443 68.1865 92.4784C69.1873 93.7631 69.2668 110.877 69.2668 111.046C69.2668 111.378 68.9989 111.648 68.6681 111.648H68.6722Z" fill="#222222"/>
<path id="Vector_106" d="M56.9391 130.219C53.4176 130.219 51.3323 130.054 50.5744 129.111C49.6407 127.944 49.6281 127.026 49.6114 125.501C49.6072 125.168 49.871 124.895 50.206 124.89C50.5242 124.874 50.8089 125.156 50.8131 125.488C50.8299 126.925 50.8341 127.515 51.5082 128.353C52.0819 129.069 55.729 129.031 58.9448 129.001L60.3224 128.989C63.6262 128.964 67.0472 128.938 67.8763 128.058C67.9977 127.927 68.0438 127.793 68.0396 127.607C68.0228 127.274 68.2783 126.988 68.6091 126.971C68.9357 126.95 69.2204 127.215 69.2372 127.548C69.2581 128.058 69.0906 128.521 68.7472 128.888C67.5664 130.139 64.3715 130.164 60.3308 130.198L58.9532 130.21C58.233 130.215 57.563 130.223 56.9349 130.223L56.9391 130.219Z" fill="#222222"/>
<path id="Vector_107" d="M41.8898 110.08C41.559 110.08 41.291 109.811 41.291 109.478C41.291 108.518 41.4627 107.233 41.6469 105.877C41.8102 104.651 41.9819 103.379 42.0112 102.406C42.095 99.3226 42.8026 96.9217 44.1719 95.0642C44.5445 94.5587 45.0051 93.8848 45.4909 93.1687C47.5929 90.0728 48.6816 88.6069 49.5693 88.5227C49.8331 88.5016 50.0759 88.5859 50.2602 88.7712C51.173 89.6852 51.0474 92.301 50.6035 93.194C48.5057 97.4145 48.2377 102.301 48.2377 106.083C48.2377 106.416 47.9697 106.685 47.6389 106.685C47.3081 106.685 47.036 106.416 47.036 106.083C47.036 102.166 47.3207 97.0986 49.5274 92.6506C49.8037 92.0904 49.8247 90.4771 49.54 89.8242C48.8491 90.3634 47.3333 92.5958 46.4832 93.8469C45.9933 94.5713 45.5285 95.2537 45.1391 95.7802C43.9206 97.4314 43.2925 99.6049 43.2172 102.431C43.1879 103.467 43.012 104.773 42.8403 106.033C42.6728 107.288 42.497 108.589 42.497 109.47C42.497 109.802 42.229 110.072 41.8982 110.072L41.8898 110.08Z" fill="#222222"/>
<path id="Vector_108" d="M72.4412 110.093C72.1104 110.093 71.8424 109.824 71.8424 109.491C71.8424 107.056 70.6867 104.121 69.5687 101.282C68.8862 99.5504 68.2456 97.9161 67.8771 96.4376C67.8268 96.2355 66.6502 91.4378 67.785 90.2963C68.2162 89.8625 68.6601 89.8246 68.949 89.8667C70.0419 90.031 70.8668 91.5684 71.9094 93.5228C72.2612 94.1841 72.6255 94.8623 72.9981 95.4688C73.2954 95.9532 73.6053 96.4208 73.9319 96.9094C75.3891 99.0871 77.0347 101.555 78.4918 107.267C78.5714 107.591 78.3788 107.92 78.0564 108.004C77.7339 108.084 77.4115 107.89 77.3278 107.57C75.925 102.061 74.338 99.6852 72.9353 97.5876C72.6003 97.0863 72.2779 96.6061 71.9764 96.1049C71.587 95.4689 71.2143 94.7696 70.8542 94.0999C70.2261 92.9205 69.2714 91.1388 68.7732 91.0672C68.7355 91.0545 68.6475 91.143 68.635 91.1556C68.3042 91.5768 68.5847 94.2979 69.0453 96.1512C69.3929 97.5539 70.021 99.1503 70.6867 100.844C71.8424 103.788 73.0442 106.833 73.0442 109.5C73.0442 109.832 72.7762 110.102 72.4412 110.102V110.093Z" fill="#222222"/>
<path id="Vector_109" d="M46.1485 133.264C45.9015 133.264 45.6754 133.112 45.5833 132.868C45.4702 132.556 45.6293 132.207 45.9392 132.093C49.2346 130.871 49.1801 126.693 49.1634 125.32V125.084C49.1634 124.751 49.4272 124.481 49.7622 124.481C50.0972 124.481 50.361 124.751 50.361 125.084V125.303C50.4196 129.553 49.0713 132.219 46.3579 133.226C46.2867 133.251 46.2197 133.264 46.1485 133.264Z" fill="#222222"/>
<path id="Vector_110" d="M71.3651 107.195C70.9003 107.195 70.3601 106.981 69.7948 106.757C69.5059 106.644 69.0746 106.471 68.9364 106.467C68.6056 106.462 68.3377 106.189 68.3418 105.856C68.3418 105.523 68.6098 105.258 68.9364 105.258C69.2965 105.258 69.732 105.431 70.2345 105.633C70.5695 105.763 71.1976 106.012 71.3818 105.982C71.6791 105.835 72.0141 105.965 72.169 106.26C72.3156 106.559 72.169 106.93 71.8759 107.077C71.721 107.157 71.5493 107.191 71.3651 107.191V107.195Z" fill="#222222"/>
<path id="Vector_111" d="M158.745 64.0506C158.377 64.0506 158 64 157.615 63.9032C154.512 63.1071 154.575 57.804 154.579 57.5807C154.579 57.3996 154.667 57.2269 154.813 57.1132C154.96 57.0036 155.148 56.9615 155.324 57.0079C155.337 57.0079 156.857 57.387 158.858 57.6607C160.809 57.9303 163.297 57.9724 163.326 57.9724C163.51 57.9767 163.682 58.0609 163.791 58.2083C163.904 58.3515 163.946 58.5411 163.9 58.7222C163.862 58.8612 163.037 62.1256 160.793 63.4735C160.156 63.8568 159.465 64.0506 158.741 64.0506H158.745ZM155.801 58.3515C155.906 59.8805 156.388 62.3404 157.912 62.7322C158.749 62.9428 159.49 62.8501 160.177 62.4373C161.425 61.6876 162.158 60.0912 162.501 59.1561C161.584 59.1224 160.039 59.0423 158.699 58.857C157.485 58.6885 156.459 58.4905 155.801 58.3515Z" fill="#222222"/>
<path id="Vector_112" d="M53.6408 98.1138C52.9164 98.1138 52.1836 97.7221 51.79 97.0692C51.4048 96.4247 51.342 95.418 52.3344 94.5293C52.5814 94.306 52.9625 94.3313 53.1844 94.5798C53.4021 94.8325 53.3812 95.2116 53.1342 95.4307C52.7364 95.7845 52.6317 96.1257 52.8243 96.4416C53.0378 96.7996 53.5278 96.9976 53.8795 96.867C54.4866 96.6353 54.5578 96.092 54.5076 95.8056C54.4783 95.6413 54.3987 95.5233 54.3485 95.5233C54.0177 95.5233 53.7497 95.2538 53.7497 94.921C53.7497 94.5882 54.0177 94.3145 54.3485 94.3145C55.0142 94.3145 55.5502 94.8283 55.6884 95.5907C55.8433 96.4374 55.4748 97.5494 54.3024 97.9959C54.093 98.0759 53.8669 98.1138 53.6408 98.1138Z" fill="#222222"/>
<path id="Vector_113" d="M162.559 102.473C162.182 102.473 161.801 102.351 161.491 102.119C160.951 101.711 160.746 101.049 160.947 100.346C161.039 100.026 161.37 99.8363 161.688 99.9332C162.006 100.022 162.195 100.359 162.102 100.679C162.019 100.969 162.128 101.087 162.216 101.155C162.383 101.281 162.647 101.302 162.81 101.201C162.932 101.121 163.049 100.894 163.02 100.653C162.994 100.443 162.869 100.308 162.643 100.232C162.329 100.127 162.157 99.7858 162.262 99.4699C162.366 99.154 162.705 98.9813 163.02 99.0866C163.685 99.3098 164.129 99.8448 164.209 100.514C164.292 101.201 163.983 101.892 163.442 102.233C163.179 102.397 162.873 102.482 162.559 102.482V102.473Z" fill="#222222"/>
</g>
</g>
<defs>
<clipPath id="clip0_461_12259">
<rect width="219.552" height="191" fill="white"/>
</clipPath>
</defs>
</svg>
