<svg width="252" height="255" viewBox="0 0 252 255" fill="none" xmlns="http://www.w3.org/2000/svg">
<path d="M168.286 0C136.788 0 128.997 18.6014 127.079 27.042C126.928 27.6979 125.991 27.6979 125.84 27.042C123.922 18.6014 116.12 0 84.633 0C43.8896 0 27.6612 28.1387 33.7064 67.8791C40.5275 112.727 109.137 160.306 123.738 169.972C125.387 171.069 127.532 171.069 129.191 169.972C143.792 160.306 212.402 112.727 219.223 67.8791C225.257 28.1387 209.029 0 168.286 0Z" fill="#FFC0B6" fill-opacity="0.2"/>
<path d="M105.271 201.29C106.312 202.411 106.535 204.074 105.843 205.439L105.39 206.33L103.576 209.916C102.989 211.081 102.283 212.18 101.48 213.197C100.595 214.318 99.6067 215.335 98.5214 216.233C97.6219 216.99 96.6556 217.666 95.6372 218.252C95.1763 218.512 94.7155 218.765 94.2323 218.987C92.3888 219.871 90.3966 220.479 88.3375 220.784C87.4306 220.917 86.5609 221.044 85.7878 221.147C83.8477 221.415 81.8853 221.355 79.96 220.984L71.9467 219.418C71.3743 219.306 70.9655 218.802 70.9803 218.215C70.9952 217.555 71.5378 217.042 72.1846 217.042C72.2217 217.042 72.2663 217.042 72.3109 217.05L78.949 217.785L74.2882 216.783C74.2362 216.775 74.1842 216.76 74.1321 216.738L69.0997 214.927C68.4976 214.704 68.1482 214.066 68.3117 213.435C68.453 212.863 68.9733 212.484 69.5382 212.484C69.6646 212.484 69.7984 212.499 69.9248 212.544L72.6677 213.442C73.2921 213.65 73.9314 213.813 74.5781 213.932L79.3653 214.815L74.6153 213.026C73.5152 212.618 72.4596 212.076 71.4784 211.415L69.1443 209.856C68.5199 209.441 68.334 208.609 68.7206 207.963C68.9882 207.525 69.449 207.28 69.9322 207.28C70.1627 207.28 70.4005 207.34 70.6161 207.459L75.7824 210.369C76.4365 210.732 77.1353 211.007 77.8637 211.178L83.0821 212.403L80.8074 211.49C79.0159 210.77 77.336 209.819 75.8047 208.661L73.0097 206.546C72.3481 206.048 72.244 205.098 72.7718 204.467C73.0543 204.133 73.4706 203.955 73.8868 203.955C74.1098 203.955 74.3328 204.007 74.541 204.111L81.3723 207.615C83.0003 208.453 84.7471 209.047 86.5461 209.374L87.4529 209.545C87.9956 209.641 88.3227 208.966 87.9064 208.609L82.6732 204.088C82.0488 203.546 82.0265 202.589 82.6212 202.017C82.8888 201.757 83.2382 201.631 83.5875 201.631C83.8849 201.631 84.1896 201.728 84.4424 201.921C85.8101 202.96 88.3896 204.779 90.2851 205.165C91.9799 205.514 93.645 206.768 94.6411 207.652C95.1392 208.09 95.9122 207.949 96.2244 207.362L96.3954 207.05C97.555 204.905 98.4842 202.626 99.1012 200.265C99.2276 199.79 99.3465 199.323 99.4506 198.862C102.431 199.04 104.215 200.161 105.264 201.29H105.271Z" fill="#FFD4C7"/>
<path d="M95.637 218.256C96.6554 217.669 97.6218 216.994 98.5212 216.236C92.8123 236.161 94.5964 250.384 95.1464 253.702H90.9837C88.8726 236.436 94.2321 218.99 94.2321 218.99C94.7153 218.768 95.1762 218.515 95.637 218.256Z" fill="#ED847E"/>
<path d="M85.5793 70.7057C88.798 79.4357 84.1892 85.3893 84.1892 85.3893C84.2635 83.9269 84.3899 82.6426 84.494 81.6998C84.6055 80.8016 84.3081 79.8959 83.6689 79.2427C82.2342 77.7654 80.5617 75.0633 79.4764 71.9825C78.1161 68.1149 76.5327 69.5996 76.5327 69.5996C74.4885 67.8328 71.8868 71.2699 66.4975 79.4357C62.4017 85.6417 56.6407 85.0181 54.1133 84.3648C53.3774 84.1793 52.753 83.7413 52.2401 83.1845C50.7608 81.5736 48.9842 81.5217 47.8246 82.509C45.2229 80.1186 44.5464 77.3348 44.6579 74.8777C44.6579 74.7069 44.6728 74.5436 44.6877 74.3803C44.8735 72.2349 45.6763 70.2009 46.94 68.4861C47.4975 67.7289 48.1442 67.0311 48.8653 66.4075C66.1333 51.5235 76.2577 63.3788 76.2577 63.3788C76.2577 63.3788 82.3531 61.9832 85.5793 70.7057Z" fill="#3D3732"/>
<path d="M83.6691 79.2418C84.3084 79.895 84.6057 80.8007 84.4942 81.6989C84.3901 82.6417 84.2638 83.926 84.1894 85.3884C84.1225 86.6355 84.1002 88.0089 84.1523 89.3896C84.2266 91.2529 84.234 94.1703 83.4609 97.2139C82.4203 101.319 79.9672 105.654 74.3475 107.933C73.4406 108.305 72.4817 108.505 71.5153 108.542C70.8389 108.564 70.1476 108.512 69.4786 108.371C65.7247 107.599 58.8264 104.964 55.0576 96.0336C54.6636 95.0983 54.2994 94.0887 53.9798 93.0049C53.846 92.5594 53.4148 92.2774 52.9539 92.3664C51.3706 92.6634 47.8471 92.6188 46.7098 86.7023C46.3456 84.8019 46.8808 83.3098 47.8248 82.5081C48.9845 81.5208 50.7611 81.5727 52.2403 83.1836C52.7532 83.7404 53.3776 84.1784 54.1136 84.364C56.6409 85.0172 62.4019 85.6408 66.4977 79.4348C71.887 71.269 74.4887 67.8319 76.5329 69.5987C76.5329 69.5987 78.1163 68.114 79.4766 71.9816C80.5619 75.0624 82.2344 77.7645 83.6691 79.2418Z" fill="#FFD4C7"/>
<path d="M74.3473 107.933C79.967 105.654 82.42 101.319 83.4607 97.2139C83.0816 100.569 83.2229 103.813 83.4459 106.159C83.6986 108.846 82.1004 111.385 79.5433 112.283C75.5366 113.694 71.6489 113.167 71.6489 113.167C71.359 110.873 71.5151 108.668 71.5151 108.668V108.542C72.4815 108.505 73.4404 108.304 74.3473 107.933Z" fill="#3D3732"/>
<path d="M74.5854 117.622L81.729 120.903C87.6758 123.635 92.2473 128.668 94.3956 134.837L104.728 164.449C106.103 168.398 107.04 172.481 107.516 176.631C108.385 184.225 109.5 196.585 108.504 203.645C108.281 205.181 106.988 206.325 105.442 206.332H105.39L105.843 205.441C106.535 204.075 106.311 202.412 105.271 201.291C104.223 200.163 102.439 199.042 99.4578 198.864C102.877 184.641 100.194 175.035 96.4175 168.858C93.236 163.662 89.2888 160.901 87.542 159.854C87.0959 159.587 86.9919 158.993 87.3338 158.599C95.2876 149.335 87.1405 139.224 82.9555 133.775C82.2716 132.892 81.6992 132.135 81.3127 131.519C79.0009 127.859 75.5443 120.777 74.3252 118.231C74.3178 118.186 74.3104 118.171 74.3104 118.171C74.3104 118.171 74.3054 118.169 74.2955 118.164C74.2658 118.104 74.236 118.052 74.2137 118C74.1022 117.763 74.3475 117.51 74.5928 117.622H74.5854Z" fill="#ED847E"/>
<path d="M66.6392 166C68.9436 165.577 70.5343 164.819 71.4041 164.582C72.1994 164.374 73.0617 164.767 73.3516 165.539L73.3665 165.569C73.6341 166.319 73.307 167.15 72.5934 167.499C68.8618 169.34 59.347 172.347 59.347 172.347C64.7288 172.087 69.2335 170.87 71.6271 170.157C71.7609 170.12 71.9021 170.097 72.0359 170.097C72.6678 170.097 73.2401 170.506 73.4334 171.137C73.649 171.864 73.2847 172.636 72.5785 172.911C68.5273 174.514 58.6036 176.682 58.6036 176.682C63.2793 176.882 67.2933 175.828 69.1145 175.242C69.2335 175.205 69.3524 175.183 69.4714 175.183C69.9397 175.183 70.3782 175.487 70.5418 175.955C70.7499 176.541 70.4526 177.179 69.8728 177.402C66.9142 178.516 58.507 181.589 55.9499 181.552C55.2957 181.544 54.2401 181.537 52.9839 181.537C48.2636 181.522 40.6963 181.552 40.6963 181.552C40.6666 176.623 39.7969 172.547 39.0981 170.068C39.0981 170.068 40.7261 170.305 44.3239 166.905C47.6912 163.713 48.1744 163.461 52.3743 162.318C52.6494 162.243 52.9393 162.162 53.2441 162.08C57.4217 160.944 59.1091 159.638 59.5551 160.952C59.7707 161.598 59.5179 162.295 59.005 162.741C58.559 163.127 57.8751 163.639 56.9682 164.151C57.3696 164.107 65.0187 163.335 69.003 162.206C69.5606 162.05 70.1775 162.162 70.5789 162.585C70.8837 162.897 71.0621 163.364 70.735 164.01C70.5418 164.381 70.1924 164.656 69.7836 164.775C69.2261 164.938 68.1036 165.428 66.6392 166Z" fill="#FFD4C7"/>
<path d="M71.5162 108.667C71.5162 108.667 71.3601 110.872 71.65 113.166C71.9325 115.385 72.6312 117.694 74.2889 118.162C74.2963 118.184 74.3038 118.199 74.3186 118.221C74.497 119.097 76.4372 129.586 65.614 129.631C56.6121 129.668 50.6504 119.988 48.6062 116.076C48.0933 115.081 47.8257 114.457 47.8257 114.457C48.9927 113.685 49.9665 112.772 50.7916 111.785C56.0025 105.542 55.0585 96.0322 55.0585 96.0322C58.8272 104.963 65.7255 107.598 69.4794 108.37C70.1484 108.511 70.8397 108.563 71.5162 108.541V108.667Z" fill="#FFD4C7"/>
<path d="M58.6032 176.681C58.6032 176.681 68.5269 174.514 72.5781 172.91C73.2843 172.635 73.6486 171.863 73.433 171.136C73.2397 170.505 72.6673 170.097 72.0355 170.097C71.9017 170.097 71.7605 170.119 71.6266 170.156C69.2331 170.869 64.7284 172.086 59.3465 172.346C59.3465 172.346 68.8614 169.339 72.593 167.498C73.3066 167.149 73.6337 166.318 73.3661 165.568L73.3512 165.539C73.0613 164.767 72.199 164.373 71.4036 164.581C70.5339 164.819 68.9432 165.576 66.6388 165.999C68.1032 165.427 69.2256 164.937 69.7831 164.774C70.192 164.655 70.5414 164.381 70.7346 164.009C71.0617 163.364 70.8833 162.896 70.5785 162.584C70.1771 162.161 69.5601 162.05 69.0026 162.205C65.0183 163.334 57.3692 164.106 56.9678 164.15C57.8747 163.638 58.5586 163.126 59.0046 162.74C59.5175 162.295 59.7702 161.597 59.5547 160.951C59.1087 159.637 57.4213 160.943 53.2436 162.079C52.9389 162.161 52.649 162.243 52.3739 162.309C54.4479 132.95 50.7237 120.619 48.5605 116.098L48.6051 116.076C50.6494 119.988 56.611 129.669 65.613 129.631C76.4361 129.587 74.496 119.098 74.3176 118.229C75.5367 120.775 78.9932 127.857 81.305 131.517C81.6916 132.133 82.264 132.89 82.9478 133.774C87.1329 139.222 95.28 149.333 87.3262 158.598C86.9842 158.991 87.0883 159.585 87.5343 159.852C89.2812 160.899 93.2283 163.66 96.4099 168.857C100.186 175.033 102.87 184.639 99.4502 198.862C99.3461 199.323 99.2272 199.79 99.1008 200.265C98.4838 202.626 97.5546 204.905 96.395 207.05L96.224 207.362C95.9118 207.949 95.1388 208.09 94.6407 207.652C93.6446 206.768 91.9795 205.514 90.2847 205.165C88.3892 204.779 85.8097 202.96 84.442 201.921C84.1892 201.728 83.8845 201.631 83.5871 201.631C83.2378 201.631 82.8884 201.758 82.6208 202.017C82.0261 202.589 82.0484 203.547 82.6728 204.089L87.906 208.609C88.3223 208.966 87.9952 209.641 87.4525 209.545L86.5457 209.374C84.7467 209.047 82.9999 208.454 81.3719 207.615L74.5406 204.111C74.3324 204.007 74.1094 203.955 73.8864 203.955C73.4702 203.955 73.0539 204.133 72.7714 204.467C72.2436 205.098 72.3477 206.048 73.0093 206.546L75.8043 208.661C77.3356 209.819 79.0155 210.77 80.807 211.49L83.0816 212.403L77.8633 211.178C77.1349 211.007 76.4361 210.733 75.782 210.369L70.6157 207.459C70.4001 207.34 70.1623 207.281 69.9318 207.281C69.4486 207.281 68.9878 207.526 68.7202 207.964C68.3336 208.609 68.5195 209.441 69.1439 209.857L71.478 211.415C72.4592 212.076 73.5148 212.618 74.6149 213.026L79.3649 214.815L74.5777 213.932C73.931 213.813 73.2917 213.65 72.6673 213.442L69.9244 212.544C69.798 212.499 69.6642 212.484 69.5378 212.484C68.9729 212.484 68.4526 212.863 68.3113 213.435C68.1478 214.066 68.4971 214.704 69.0993 214.927L74.1317 216.738C74.1838 216.76 74.2358 216.775 74.2878 216.783L78.9486 217.785L72.3105 217.05C72.2659 217.042 72.2213 217.042 72.1842 217.042C71.5374 217.042 70.9948 217.555 70.9799 218.215C70.9651 218.802 71.3739 219.307 71.9463 219.418L79.9596 220.984C81.8849 221.355 83.8473 221.415 85.7874 221.148C86.5605 221.044 87.4302 220.917 88.3371 220.784C90.3962 220.48 92.3884 219.871 94.2319 218.987C94.2319 218.987 88.8723 236.432 90.9834 253.699H50.7311C51.2738 249.134 54.1505 224.637 54.604 214.786C55.102 203.896 52.9835 181.551 52.9835 181.551V181.536C54.2397 181.536 55.2953 181.544 55.9494 181.551C58.5066 181.588 66.9138 178.515 69.8723 177.401C70.4522 177.179 70.7495 176.54 70.5414 175.954C70.3778 175.486 69.9392 175.182 69.4709 175.182C69.352 175.182 69.2331 175.204 69.1141 175.241C67.2929 175.827 63.2788 176.882 58.6032 176.681Z" fill="#FFC17D"/>
<path d="M50.1963 228.639C50.2483 227.57 49.7428 226.664 49.059 226.627C48.3751 226.598 47.7804 227.437 47.7209 228.513C47.6615 229.589 48.1744 230.488 48.8583 230.525C49.5421 230.562 50.1368 229.716 50.1963 228.639ZM50.1963 194.031C50.1963 192.955 49.6388 192.086 48.9549 192.086C48.271 192.086 47.7209 192.955 47.7209 194.031C47.7209 195.107 48.271 195.983 48.9549 195.983C49.6388 195.983 50.1963 195.107 50.1963 194.031ZM49.3637 212.553C50.055 212.553 50.6051 211.677 50.6051 210.608C50.6051 209.539 50.055 208.655 49.3637 208.655C48.6724 208.655 48.1298 209.531 48.1298 210.608C48.1298 211.684 48.6798 212.553 49.3637 212.553ZM47.7507 246.055C47.8027 244.978 47.2972 244.08 46.6133 244.043C45.9295 244.013 45.3348 244.852 45.2753 245.928C45.2158 247.005 45.7288 247.903 46.4126 247.94C47.0965 247.97 47.6912 247.131 47.7507 246.055ZM50.7315 253.701H23.7182C23.5398 250.123 23.0864 234.036 27.4126 214.356C31.6126 195.263 33.2851 187.446 33.2851 187.446L35.0543 186.934L39.4326 185.665C40.1016 185.472 40.5848 184.878 40.6294 184.188C40.6814 183.289 40.7037 182.406 40.6963 181.552C40.6963 181.552 48.2636 181.523 52.9838 181.537V181.552C52.9838 181.552 55.1024 203.897 54.6043 214.787C54.1509 224.638 51.2741 249.135 50.7315 253.701Z" fill="#ED847E"/>
<path d="M47.23 145.578C47.9065 145.459 48.3079 144.509 48.1295 143.448C47.9437 142.386 47.2523 141.621 46.5759 141.733C45.9069 141.844 45.5055 142.802 45.6839 143.863C45.8623 144.925 46.561 145.69 47.23 145.578ZM48.1518 160.403C48.8208 160.291 49.2222 159.341 49.0438 158.28C48.8654 157.218 48.1667 156.446 47.4977 156.565C46.8212 156.676 46.4198 157.634 46.5982 158.695C46.784 159.75 47.4754 160.522 48.1518 160.403ZM34.2586 154.464L27.4124 168.776C29.5235 168.428 31.4711 168.168 33.1139 167.967L33.2848 169.452C33.2848 169.452 35.2175 176.089 34.5708 185.271L35.054 186.934L33.2848 187.446L14.3666 192.932C6.05598 195.338 -1.41467 187.179 1.73713 179.125L19.9343 132.684C23.7551 122.937 32.5117 115.981 42.874 114.459L46.68 113.902C46.9996 113.858 47.3118 113.984 47.4977 114.244C47.7504 114.593 48.1221 115.187 48.5606 116.1C50.7238 120.621 54.448 132.951 52.374 162.311C48.1741 163.461 47.6909 163.714 44.3236 166.906C40.7257 170.306 39.0978 170.068 39.0978 170.068C38.9491 169.534 38.8153 169.081 38.689 168.702C38.4511 167.967 37.7375 167.5 36.9644 167.566C36.3772 167.618 35.6115 167.693 34.6898 167.789C34.6898 167.789 35.3439 159.586 34.2586 154.464Z" fill="#ED847E"/>
<path d="M49.3638 208.655C50.0552 208.655 50.6052 209.531 50.6052 210.608C50.6052 211.684 50.0552 212.553 49.3638 212.553C48.6725 212.553 48.1299 211.677 48.1299 210.608C48.1299 209.539 48.68 208.655 49.3638 208.655Z" fill="#A8A8A8"/>
<path d="M49.059 226.627C49.7429 226.664 50.2484 227.57 50.1963 228.638C50.1369 229.715 49.5422 230.561 48.8583 230.524C48.1744 230.487 47.6615 229.589 47.721 228.512C47.7805 227.436 48.3751 226.597 49.059 226.627Z" fill="#A8A8A8"/>
<path d="M48.9547 192.086C49.6385 192.086 50.1961 192.954 50.1961 194.031C50.1961 195.107 49.6385 195.983 48.9547 195.983C48.2708 195.983 47.7207 195.107 47.7207 194.031C47.7207 192.954 48.2708 192.086 48.9547 192.086Z" fill="#A8A8A8"/>
<path d="M49.0441 158.28C49.2225 159.341 48.8211 160.291 48.1521 160.403C47.4757 160.522 46.7843 159.749 46.5985 158.695C46.4201 157.634 46.8215 156.676 47.498 156.565C48.167 156.446 48.8657 157.218 49.0441 158.28Z" fill="#A8A8A8"/>
<path d="M48.1296 143.448C48.308 144.51 47.9066 145.46 47.2301 145.579C46.5611 145.69 45.8624 144.926 45.684 143.864C45.5056 142.802 45.907 141.845 46.576 141.733C47.2524 141.622 47.9438 142.387 48.1296 143.448Z" fill="#A8A8A8"/>
<path d="M46.6137 244.044C47.2976 244.081 47.8031 244.979 47.751 246.055C47.6916 247.132 47.0969 247.971 46.413 247.941C45.7291 247.904 45.2162 247.006 45.2757 245.929C45.3352 244.853 45.9298 244.014 46.6137 244.044Z" fill="#A8A8A8"/>
<path d="M44.6581 74.8779C44.5466 77.3351 45.2231 80.1189 47.8248 82.5092C46.8808 83.311 46.3455 84.8031 46.7098 86.7035C47.8471 92.62 51.3706 92.6645 52.9539 92.3676C53.4148 92.2785 53.8459 92.5606 53.9797 93.006C54.2994 94.0898 54.6636 95.0994 55.0576 96.0348C55.0576 96.0348 56.0016 105.544 50.7908 111.787C47.8322 111.965 45.5353 111.661 43.7587 111.149C40.5846 110.221 38.86 106.799 39.8858 103.651C40.0717 103.08 40.2575 102.434 40.4359 101.729C41.0455 99.212 41.5063 95.864 41.3205 91.6846C40.7481 78.8792 44.6507 74.8779 44.6507 74.8779H44.6581Z" fill="#3D3732"/>
<path d="M40.6969 181.552C40.6969 182.405 40.682 183.289 40.63 184.187C40.5854 184.877 40.1022 185.471 39.4332 185.664L35.0549 186.934L34.5717 185.271C35.2184 176.088 33.2857 169.451 33.2857 169.451L33.1147 167.967C33.6797 167.9 34.2075 167.841 34.6906 167.789C35.6124 167.692 36.378 167.618 36.9653 167.566C37.7384 167.499 38.452 167.967 38.6899 168.702C38.8162 169.08 38.95 169.533 39.0987 170.068C39.7974 172.547 40.6672 176.623 40.6969 181.552Z" fill="#ED847E"/>
<path d="M35.3444 103.628C41.3135 94.1037 35.3295 90.2286 37.4183 79.524C39.5518 68.5744 46.9406 68.4854 46.9406 68.4854C45.677 70.2002 44.8741 72.2342 44.6883 74.3796C44.6734 74.5429 44.6586 74.7062 44.6586 74.8769H44.6511C44.6511 74.8769 40.7486 78.8782 41.3209 91.6836C41.5068 95.863 41.0459 99.211 40.4363 101.728C39.1355 103.873 36.9277 104.274 35.7309 104.318C35.3741 104.333 35.1586 103.932 35.3518 103.628H35.3444Z" fill="#3D3732"/>
<path d="M47.8248 82.5081C48.9845 81.5208 50.7611 81.5727 52.2403 83.1836C52.7532 83.7404 53.3776 84.1784 54.1136 84.364C56.6409 85.0172 62.4019 85.6408 66.4977 79.4348C71.887 71.269 74.4887 67.8319 76.5329 69.5987C76.5329 69.5987 78.1163 68.114 79.4766 71.9816C80.5619 75.0624 82.2344 77.7645 83.6691 79.2418C84.3084 79.895 84.6057 80.8007 84.4942 81.6989C84.3901 82.6417 84.2638 83.926 84.1894 85.3884C84.1225 86.6355 84.1002 88.0089 84.1523 89.3896C84.2266 91.2529 84.234 94.1703 83.4609 97.2139C82.4203 101.319 79.9672 105.654 74.3475 107.933C73.4406 108.305 72.4817 108.505 71.5153 108.542C70.8389 108.564 70.1476 108.512 69.4786 108.371C65.7247 107.599 58.8264 104.964 55.0576 96.0336C54.6636 95.0983 54.2994 94.0887 53.9798 93.0049C53.846 92.5594 53.4148 92.2774 52.9539 92.3664C51.3706 92.6634 47.8471 92.6188 46.7098 86.7023C46.3456 84.8019 46.8808 83.3098 47.8248 82.5081Z" stroke="black" stroke-width="0.75" stroke-linecap="round" stroke-linejoin="round"/>
<path d="M74.3186 118.228C74.497 119.097 76.4372 129.586 65.614 129.631C56.6121 129.668 50.6504 119.988 48.6062 116.076C48.0933 115.081 47.8257 114.457 47.8257 114.457C48.9927 113.685 49.9665 112.772 50.7916 111.785C56.0025 105.542 55.0585 96.0322 55.0585 96.0322" stroke="black" stroke-width="0.75" stroke-linecap="round" stroke-linejoin="round"/>
<path d="M71.5151 108.669C71.5151 108.669 71.359 110.874 71.6489 113.168C71.9314 115.387 72.6301 117.696 74.2878 118.164C74.2878 118.164 74.2928 118.166 74.3027 118.171C74.3027 118.171 74.3027 118.186 74.3175 118.223" stroke="black" stroke-width="0.75" stroke-linecap="round" stroke-linejoin="round"/>
<path d="M47.8246 82.509C45.2229 80.1186 44.5464 77.3348 44.6579 74.8777C44.6579 74.7069 44.6728 74.5436 44.6877 74.3803C44.8735 72.2349 45.6763 70.2009 46.94 68.4861C47.4975 67.7289 48.1442 67.0311 48.8653 66.4075C66.1333 51.5235 76.2577 63.3788 76.2577 63.3788C76.2577 63.3788 82.3531 61.9831 85.5793 70.7057C88.798 79.4357 84.1892 85.3893 84.1892 85.3893" stroke="black" stroke-width="0.75" stroke-linecap="round" stroke-linejoin="round"/>
<path d="M44.6507 74.8779C44.6507 74.8779 40.7481 78.8792 41.3205 91.6846C41.5063 95.864 41.0455 99.212 40.4359 101.729C40.2575 102.434 40.0717 103.08 39.8858 103.651C38.86 106.799 40.5846 110.221 43.7587 111.149C45.5353 111.661 47.8322 111.965 50.7908 111.787" stroke="black" stroke-width="0.75" stroke-linecap="round" stroke-linejoin="round"/>
<path d="M40.428 101.728C39.1272 103.874 36.9194 104.275 35.7226 104.319C35.3658 104.334 35.1503 103.933 35.3435 103.629C41.3126 94.1045 35.3287 90.2294 37.4175 79.5248C39.5509 68.5752 46.9398 68.4861 46.9398 68.4861C46.9398 68.4861 41.8404 65.205 36.7633 72.9402" stroke="black" stroke-width="0.75" stroke-linecap="round" stroke-linejoin="round"/>
<path d="M71.6489 113.167C71.6489 113.167 75.5366 113.694 79.5433 112.283C82.1004 111.385 83.6986 108.846 83.4459 106.159C83.2229 103.813 83.0816 100.569 83.4607 97.2139" stroke="black" stroke-width="0.75" stroke-linecap="round" stroke-linejoin="round"/>
<path d="M52.374 162.31C52.6491 162.243 52.939 162.162 53.2437 162.08C57.4214 160.944 59.1088 159.638 59.5548 160.952C59.7703 161.598 59.5176 162.295 59.0047 162.741C58.5587 163.127 57.8748 163.639 56.9679 164.151C55.8901 164.753 54.4851 165.354 52.7457 165.732" stroke="black" stroke-width="0.75" stroke-linecap="round" stroke-linejoin="round"/>
<path d="M39.0981 170.067C39.0981 170.067 40.7261 170.305 44.3239 166.905C47.6913 163.713 48.1744 163.461 52.3743 162.317" stroke="black" stroke-width="0.75" stroke-linecap="round" stroke-linejoin="round"/>
<path d="M66.624 166C64.6169 166.779 61.9706 167.707 59.2202 168.175" stroke="black" stroke-width="0.75" stroke-linecap="round" stroke-linejoin="round"/>
<path d="M56.9531 164.151H56.968C57.3694 164.106 65.0185 163.334 69.0028 162.206C69.5603 162.05 70.1773 162.161 70.5787 162.584C70.8835 162.896 71.0619 163.364 70.7348 164.01C70.5415 164.381 70.1922 164.656 69.7833 164.774C69.2258 164.938 68.1033 165.428 66.639 165.999" stroke="black" stroke-width="0.75" stroke-linecap="round" stroke-linejoin="round"/>
<path d="M40.6963 181.551C40.6963 181.551 48.2636 181.522 52.9838 181.537C54.2401 181.537 55.2957 181.544 55.9498 181.551C58.5069 181.589 66.9142 178.515 69.8727 177.402C70.4525 177.179 70.7499 176.541 70.5417 175.954C70.3782 175.487 69.9396 175.182 69.4713 175.182C69.3524 175.182 69.2334 175.204 69.1145 175.242C67.2933 175.828 63.2792 176.882 58.6036 176.682C58.6036 176.682 68.5273 174.514 72.5785 172.911C73.2847 172.636 73.6489 171.864 73.4334 171.136C73.2401 170.505 72.6677 170.097 72.0359 170.097C71.9021 170.097 71.7608 170.119 71.627 170.156C69.2334 170.869 64.7287 172.087 59.3469 172.346C59.3469 172.346 68.8618 169.34 72.5934 167.499C73.307 167.15 73.6341 166.319 73.3665 165.569L73.3516 165.539C73.0617 164.767 72.1994 164.374 71.404 164.581C70.5343 164.819 68.9435 165.576 66.6391 165.999H66.6243" stroke="black" stroke-width="0.75" stroke-linecap="round" stroke-linejoin="round"/>
<path d="M52.374 162.318C54.448 132.951 50.7238 120.621 48.5606 116.1C48.1221 115.187 47.7504 114.593 47.4977 114.244C47.3118 113.984 46.9996 113.858 46.68 113.902L42.874 114.459C32.5117 115.981 23.7551 122.937 19.9343 132.684L1.73713 179.125C-1.41467 187.179 6.05598 195.338 14.3666 192.932L33.2848 187.446L35.054 186.934L39.4323 185.665C40.1013 185.472 40.5845 184.878 40.6291 184.188C40.6811 183.289 40.7034 182.406 40.696 181.552C40.6663 176.623 39.7966 172.548 39.0978 170.068C38.9491 169.534 38.8153 169.081 38.689 168.702C38.4511 167.967 37.7375 167.5 36.9644 167.566C36.3772 167.618 35.6115 167.693 34.6898 167.789C34.2066 167.841 33.6788 167.9 33.1139 167.967C31.4711 168.168 29.5235 168.428 27.4124 168.776C26.2082 168.969 24.9445 169.2 23.651 169.452C18.128 170.536 12.0845 172.169 7.52781 174.574" stroke="black" stroke-width="0.75" stroke-linecap="round" stroke-linejoin="round"/>
<path d="M35.523 151.813L34.2593 154.464L27.4131 168.776" stroke="black" stroke-width="0.75" stroke-linecap="round" stroke-linejoin="round"/>
<path d="M34.6894 167.789C34.6894 167.789 35.3436 159.586 34.2583 154.464" stroke="black" stroke-width="0.75" stroke-linecap="round" stroke-linejoin="round"/>
<path d="M49.2158 69.6581C49.2158 69.6581 55.289 71.269 60.0538 66.5625" stroke="black" stroke-width="0.75" stroke-linecap="round" stroke-linejoin="round"/>
<path d="M48.1592 73.8008C48.1592 73.8008 54.6635 78.3662 60.0528 74.8772C65.442 71.3881 67.9397 65.145 71.649 65.7612" stroke="black" stroke-width="0.75" stroke-linecap="round" stroke-linejoin="round"/>
<path d="M47.4532 93.3613C47.4532 93.3613 47.6391 102.722 43.8257 106.991" stroke="black" stroke-width="0.75" stroke-linecap="round" stroke-linejoin="round"/>
<path d="M78.7707 105.241C78.7707 105.241 78.347 107.735 79.2762 109.591" stroke="black" stroke-width="0.75" stroke-linecap="round" stroke-linejoin="round"/>
<path d="M99.458 198.864C102.439 199.042 104.223 200.163 105.271 201.291C106.312 202.412 106.535 204.075 105.843 205.441L105.39 206.332M105.39 206.332L103.576 209.918C102.989 211.083 102.283 212.182 101.48 213.199C100.595 214.32 99.6067 215.337 98.5214 216.235C97.6219 216.992 96.6556 217.668 95.6372 218.254C95.1763 218.514 94.7154 218.766 94.2323 218.989C92.3888 219.872 90.3966 220.481 88.3375 220.785C87.4306 220.919 86.5609 221.045 85.7878 221.149C83.8477 221.416 81.8853 221.357 79.96 220.986L71.9467 219.42C71.3743 219.308 70.9655 218.803 70.9803 218.217C70.9952 217.556 71.5378 217.044 72.1846 217.044C72.2217 217.044 72.2663 217.044 72.3109 217.051L78.949 217.786L74.2882 216.784C74.2362 216.777 74.1842 216.762 74.1321 216.74L69.0997 214.928C68.4976 214.706 68.1482 214.067 68.3117 213.436C68.453 212.865 68.9733 212.486 69.5382 212.486C69.6646 212.486 69.7984 212.501 69.9248 212.545L72.6677 213.444C73.2921 213.652 73.9314 213.815 74.5781 213.934L79.3653 214.817L74.6153 213.028C73.5152 212.62 72.4596 212.078 71.4784 211.417L69.1443 209.858C68.5199 209.442 68.334 208.611 68.7206 207.965C68.9882 207.527 69.449 207.282 69.9322 207.282C70.1627 207.282 70.4005 207.342 70.6161 207.46L75.7824 210.37C76.4365 210.734 77.1353 211.009 77.8637 211.18L83.082 212.404L80.8074 211.491C79.0159 210.771 77.336 209.821 75.8047 208.663L73.0097 206.547C72.3481 206.05 72.244 205.1 72.7718 204.469C73.0543 204.135 73.4706 203.957 73.8868 203.957C74.1098 203.957 74.3328 204.008 74.541 204.112L81.3723 207.616C83.0003 208.455 84.7471 209.049 86.546 209.376L87.4529 209.546C87.9956 209.643 88.3227 208.967 87.9064 208.611L82.6732 204.09C82.0488 203.548 82.0265 202.591 82.6212 202.019C82.8888 201.759 83.2382 201.633 83.5875 201.633C83.8849 201.633 84.1896 201.729 84.4424 201.922C85.8101 202.962 88.3896 204.781 90.2851 205.167C91.9799 205.515 93.645 206.77 94.6411 207.653C95.1392 208.091 95.9122 207.95 96.2244 207.364L96.3954 207.052C97.555 204.907 98.4842 202.628 99.1012 200.267C99.2276 199.792 99.3465 199.324 99.4506 198.864C102.87 184.641 100.186 175.035 96.4103 168.858C93.2287 163.662 89.2816 160.901 87.5347 159.854C87.0887 159.587 86.9846 158.993 87.3266 158.599C95.2804 149.335 87.1333 139.224 82.9482 133.775C82.2644 132.892 81.692 132.135 81.3054 131.519C78.9936 127.859 75.5371 120.777 74.318 118.231C74.318 118.231 74.2957 118.186 74.2882 118.164C74.2585 118.104 74.2288 118.052 74.2065 118C74.095 117.763 74.3403 117.51 74.5856 117.622L81.7292 120.903C87.6759 123.635 92.2475 128.668 94.3958 134.837L104.728 164.449C106.104 168.398 107.04 172.481 107.516 176.631C108.386 184.225 109.501 196.585 108.505 203.645C108.282 205.181 106.988 206.325 105.442 206.332H105.39Z" stroke="black" stroke-width="0.75" stroke-linecap="round" stroke-linejoin="round"/>
<path d="M52.9838 181.552C52.9838 181.552 55.1023 203.896 54.6043 214.787C54.1508 224.637 51.2741 249.135 50.7314 253.7" stroke="black" stroke-width="0.75" stroke-linecap="round" stroke-linejoin="round"/>
<path d="M33.2851 187.446C33.2851 187.446 31.6126 195.263 27.4126 214.356C23.0864 234.036 23.5398 250.122 23.7182 253.701" stroke="black" stroke-width="0.75" stroke-linecap="round" stroke-linejoin="round"/>
<path d="M63.8521 231.928C63.8521 231.928 79.8266 232.782 90.2037 220.422" stroke="black" stroke-width="0.75" stroke-linecap="round" stroke-linejoin="round"/>
<path d="M94.2321 218.99C94.2321 218.99 88.8726 236.435 90.9837 253.702" stroke="black" stroke-width="0.75" stroke-linecap="round" stroke-linejoin="round"/>
<path d="M95.147 253.702C94.5969 250.384 92.8129 236.161 98.5218 216.236" stroke="black" stroke-width="0.75" stroke-linecap="round" stroke-linejoin="round"/>
<path d="M73.9765 157.107C73.9765 157.107 72.1182 160.448 66.1714 161.124" stroke="black" stroke-width="0.75" stroke-linecap="round" stroke-linejoin="round"/>
<path d="M40.6963 117.161C40.6963 117.161 48.8657 124.34 50.6423 158.487" stroke="black" stroke-width="0.75" stroke-linecap="round" stroke-linejoin="round"/>
<path d="M79.2759 121.244C79.2759 121.244 79.8334 124.963 82.948 133.775" stroke="black" stroke-width="0.75" stroke-linecap="round" stroke-linejoin="round"/>
<path d="M50.6422 185.827C50.6422 185.827 55.578 213.665 48.1445 252.453" stroke="black" stroke-width="0.75" stroke-linecap="round" stroke-linejoin="round"/>
<path d="M33.2856 169.452C33.2856 169.452 35.2184 176.089 34.5716 185.272" stroke="black" stroke-width="0.75" stroke-linecap="round" stroke-linejoin="round"/>
<path d="M9.3042 169.452C9.3042 169.452 18.544 166.69 23.6508 169.452" stroke="black" stroke-width="0.75" stroke-linecap="round" stroke-linejoin="round"/>
<path d="M37.4258 149.453C37.4258 149.453 41.2689 140.916 39.0983 130.152" stroke="black" stroke-width="0.75" stroke-linecap="round" stroke-linejoin="round"/>
<path d="M96.4106 168.858C96.4106 168.858 100.306 167.551 102.781 169.452" stroke="black" stroke-width="0.75" stroke-linecap="round" stroke-linejoin="round"/>
<path d="M48.1296 143.448C48.308 144.51 47.9066 145.46 47.2301 145.579C46.5611 145.69 45.8624 144.926 45.684 143.864C45.5056 142.802 45.907 141.845 46.576 141.733C47.2524 141.622 47.9438 142.387 48.1296 143.448Z" stroke="black" stroke-width="0.75" stroke-linecap="round" stroke-linejoin="round"/>
<path d="M49.0441 158.28C49.2225 159.341 48.8211 160.291 48.1521 160.403C47.4757 160.522 46.7843 159.749 46.5985 158.695C46.4201 157.634 46.8215 156.676 47.498 156.565C48.167 156.446 48.8657 157.218 49.0441 158.28Z" stroke="black" stroke-width="0.75" stroke-linecap="round" stroke-linejoin="round"/>
<path d="M50.1961 194.031C50.1961 195.107 49.6385 195.983 48.9547 195.983C48.2708 195.983 47.7207 195.107 47.7207 194.031C47.7207 192.954 48.2708 192.086 48.9547 192.086C49.6385 192.086 50.1961 192.954 50.1961 194.031Z" stroke="black" stroke-width="0.75" stroke-linecap="round" stroke-linejoin="round"/>
<path d="M50.6052 210.608C50.6052 211.677 50.0552 212.553 49.3638 212.553C48.6725 212.553 48.1299 211.677 48.1299 210.608C48.1299 209.539 48.68 208.655 49.3638 208.655C50.0477 208.655 50.6052 209.531 50.6052 210.608Z" stroke="black" stroke-width="0.75" stroke-linecap="round" stroke-linejoin="round"/>
<path d="M50.1963 228.638C50.1369 229.715 49.5422 230.561 48.8583 230.524C48.1744 230.487 47.6615 229.589 47.721 228.512C47.7805 227.436 48.3751 226.597 49.059 226.627C49.7429 226.664 50.2484 227.57 50.1963 228.638Z" stroke="black" stroke-width="0.75" stroke-linecap="round" stroke-linejoin="round"/>
<path d="M47.751 246.055C47.6916 247.132 47.0969 247.971 46.413 247.941C45.7291 247.904 45.2162 247.006 45.2757 245.929C45.3352 244.853 45.9298 244.014 46.6137 244.044C47.2976 244.081 47.8031 244.979 47.751 246.055Z" stroke="black" stroke-width="0.75" stroke-linecap="round" stroke-linejoin="round"/>
<path d="M51.2739 125.031C51.2739 125.031 57.7262 133.754 67.1593 132.781" stroke="black" stroke-width="0.75" stroke-linecap="round" stroke-linejoin="round"/>
<path d="M70.415 132.314C70.415 132.314 75.9902 130.74 76.2726 125.447" stroke="black" stroke-width="0.75" stroke-linecap="round" stroke-linejoin="round"/>
<path d="M66.8921 83.2138C66.8921 83.2138 70.4304 80.7789 72.8983 82.9317" stroke="black" stroke-width="0.75" stroke-linecap="round" stroke-linejoin="round"/>
<path d="M79.3062 83.0824C79.3062 83.0824 81.1645 81.4789 83.4689 83.6614" stroke="black" stroke-width="0.75" stroke-linecap="round" stroke-linejoin="round"/>
<path d="M77.0605 88.4785C77.1497 89.451 77.6404 90.5348 77.9303 91.0025C78.2573 91.5296 78.1607 92.2274 77.6998 92.6579C77.1423 93.1776 76.2577 93.2518 75.0015 93.1553" stroke="black" stroke-width="0.75" stroke-linecap="round" stroke-linejoin="round"/>
<path d="M67.8208 96.0127C67.8208 96.0127 73.6784 101.016 79.536 96.562" stroke="black" stroke-width="0.75" stroke-linecap="round" stroke-linejoin="round"/>
<path d="M70.6682 88.0778C71.2471 88.0778 71.7164 87.6092 71.7164 87.0311C71.7164 86.453 71.2471 85.9844 70.6682 85.9844C70.0894 85.9844 69.6201 86.453 69.6201 87.0311C69.6201 87.6092 70.0894 88.0778 70.6682 88.0778Z" fill="black"/>
<path d="M80.5847 88.4782C81.1636 88.4782 81.6329 88.0096 81.6329 87.4315C81.6329 86.8534 81.1636 86.3848 80.5847 86.3848C80.0059 86.3848 79.5366 86.8534 79.5366 87.4315C79.5366 88.0096 80.0059 88.4782 80.5847 88.4782Z" fill="black"/>
<path d="M65.2416 95.7164C67.0726 95.7164 68.5569 94.2341 68.5569 92.4056C68.5569 90.577 67.0726 89.0947 65.2416 89.0947C63.4106 89.0947 61.9263 90.577 61.9263 92.4056C61.9263 94.2341 63.4106 95.7164 65.2416 95.7164Z" fill="#F4A9A2"/>
<mask id="mask0_905_14043" style="mask-type:luminance" maskUnits="userSpaceOnUse" x="46" y="69" width="39" height="40">
<path d="M83.3869 79.1549C84.0261 79.8081 84.3235 80.7138 84.212 81.612C84.1079 82.5548 83.9815 83.8391 83.9072 85.3015C83.8403 86.5486 83.818 87.922 83.87 89.3027C83.9444 91.166 83.9518 94.0834 83.1787 97.127C82.138 101.232 79.685 105.567 74.0653 107.846C73.1584 108.218 72.1995 108.418 71.2331 108.455C70.5567 108.477 69.8654 108.426 69.1963 108.284C65.4424 107.512 58.5442 104.877 54.7754 95.9467C54.3814 95.0114 54.0172 94.0018 53.6975 92.9179C53.5637 92.4725 53.1326 92.1904 52.6717 92.2795C51.0884 92.5765 47.5649 92.5319 46.4276 86.6154C46.0633 84.715 46.5985 83.2229 47.5426 82.4212C48.7022 81.4339 50.4788 81.4858 51.9581 83.0967C52.471 83.6535 53.0954 84.0915 53.8313 84.277C56.3587 84.9303 62.1197 85.5539 66.2155 79.3479C71.6048 71.1821 74.2065 67.745 76.2507 69.5118C76.2507 69.5118 77.834 68.0271 79.1944 71.8947C80.2797 74.9755 81.9522 77.6776 83.3869 79.1549Z" fill="white"/>
</mask>
<g mask="url(#mask0_905_14043)">
<path d="M82.8959 96.9401C84.7269 96.9401 86.2112 95.4578 86.2112 93.6292C86.2112 91.8007 84.7269 90.3184 82.8959 90.3184C81.0649 90.3184 79.5806 91.8007 79.5806 93.6292C79.5806 95.4578 81.0649 96.9401 82.8959 96.9401Z" fill="#F4A9A2"/>
</g>
<path d="M48.5308 85.5889C48.5308 85.5889 51.2217 84.7649 52.6638 88.4692" stroke="black" stroke-width="0.75" stroke-linecap="round" stroke-linejoin="round"/>
<path d="M50.1589 88.2101C50.1589 88.2101 49.8615 86.8294 51.3557 86.4062" stroke="black" stroke-width="0.75" stroke-linecap="round" stroke-linejoin="round"/>
<path d="M72.6372 100.393C72.6372 100.393 75.4545 101.165 76.6662 99.5244" stroke="black" stroke-width="0.75" stroke-linecap="round" stroke-linejoin="round"/>
<path d="M80.5693 156.752C80.5693 156.752 82.2419 158.237 85.3416 158.756" stroke="black" stroke-width="0.75" stroke-linecap="round" stroke-linejoin="round"/>
<path d="M250.995 221.784C251.055 222.421 250.586 222.999 249.945 223.059L238.83 224.177L221.863 225.881C222.005 225.688 222.131 225.488 222.243 225.274C223.084 223.599 223.523 221.747 223.523 219.866V217.258C223.523 215.969 223.732 214.687 224.141 213.465L224.878 211.272L228.675 213.205C230.328 214.043 232.346 213.22 232.926 211.464L235.175 204.701L239.575 191.469C240.312 189.254 240.803 186.987 241.049 184.698H241.056L246.007 184.202C246.655 184.135 247.228 184.602 247.295 185.246L250.995 221.784Z" fill="#C4C4C4"/>
<path d="M238.83 224.177L244.972 253.329H202.782L198.04 228.266L203.355 227.733C203.489 227.874 203.653 227.985 203.854 228.059C203.995 228.111 204.137 228.133 204.278 228.133C204.665 228.133 205.045 227.955 205.291 227.636L205.365 227.533H205.373L208.075 227.259C208.209 228.088 208.879 228.777 209.78 228.888C211.738 229.133 215.126 229.037 220.114 227.185C220.821 226.918 221.417 226.466 221.863 225.881L238.83 224.177ZM206.81 250.862C206.81 250.069 206.162 249.424 205.365 249.424C204.569 249.424 203.928 250.069 203.928 250.862C203.928 251.654 204.569 252.292 205.365 252.292C206.162 252.292 206.81 251.654 206.81 250.862ZM203.832 233.563C203.832 232.77 203.184 232.126 202.395 232.126C201.606 232.126 200.951 232.77 200.951 233.563C200.951 234.356 201.598 234.993 202.395 234.993C203.191 234.993 203.832 234.348 203.832 233.563Z" fill="white"/>
<path d="M217.083 187.106L190.937 189.729L188.137 175.912C188.003 175.223 187.892 174.527 187.788 173.83L187.855 173.408C188.249 170.674 188.8 167.963 189.5 165.296L199.841 125.75C200.057 124.935 199.528 124.113 198.694 123.965L190.408 122.505C189.872 122.416 189.701 121.727 190.133 121.401L194.741 117.867C195.419 117.349 195.501 116.349 194.897 115.734L189.344 109.978L209.43 111.237C215.177 111.593 220.143 115.341 222.042 120.749L239.403 170.282C241.033 174.934 241.584 179.861 241.048 184.698C240.803 186.987 240.311 189.254 239.574 191.47L235.174 204.701L234.296 204.412L214.753 196.344L213.629 195.907L217.083 187.106ZM211.969 163.673L209.951 158.199L196.163 161.466C195.493 161.629 195.069 162.295 195.218 162.962L195.977 166.429C196.126 167.133 196.833 167.563 197.533 167.385L211.969 163.673ZM194.026 181.713C194.026 180.92 193.379 180.275 192.582 180.275C191.785 180.275 191.145 180.92 191.145 181.713C191.145 182.505 191.793 183.143 192.582 183.143C193.371 183.143 194.026 182.505 194.026 181.713Z" fill="white"/>
<path d="M235.174 204.7L232.926 211.464C232.345 213.22 230.328 214.042 228.675 213.205L224.878 211.271L215.297 206.396L212.914 205.182C211.53 204.47 210.904 202.84 211.47 201.396L213.629 195.906L214.753 196.343L234.296 204.411L235.174 204.7ZM216.741 200.766C216.741 199.973 216.093 199.336 215.297 199.336C214.5 199.336 213.86 199.973 213.86 200.766C213.86 201.559 214.5 202.203 215.297 202.203C216.093 202.203 216.741 201.559 216.741 200.766Z" fill="white"/>
<path d="M224.878 211.271L224.141 213.464C223.732 214.686 223.523 215.968 223.523 217.257V219.865C223.523 221.747 223.084 223.599 222.243 225.273C222.131 225.488 222.004 225.688 221.863 225.88C221.416 226.466 220.821 226.918 220.113 227.184C215.125 229.036 211.738 229.133 209.78 228.888C208.879 228.777 208.209 228.088 208.075 227.258C208.038 227.021 208.045 226.777 208.097 226.532L208.708 223.651C208.745 223.495 208.537 223.399 208.44 223.532L205.373 227.533H205.365L205.291 227.636C205.045 227.955 204.665 228.133 204.278 228.133C204.137 228.133 203.995 228.11 203.854 228.059C203.653 227.984 203.489 227.873 203.355 227.733C202.983 227.34 202.886 226.725 203.191 226.221L204.636 223.828L206.34 220.383C207.077 218.887 208.097 217.553 209.341 216.442L210.16 215.709C211.768 214.279 212.996 212.486 213.756 210.478L215.297 206.396L224.878 211.271Z" fill="#FFD4C7"/>
<path d="M217.083 187.105L213.629 195.907L211.47 201.396C210.904 202.841 211.53 204.471 212.914 205.182L215.297 206.397L213.756 210.479C212.996 212.487 211.768 214.279 210.16 215.709L209.341 216.443C208.097 217.554 207.077 218.887 206.34 220.384L204.636 223.829L203.191 226.222C202.886 226.725 202.983 227.34 203.355 227.733L198.039 228.266L194.868 228.585C194.228 228.652 193.654 228.185 193.587 227.54L192.389 215.694L193.706 215.561C194.332 215.502 194.793 214.939 194.726 214.316L193.61 203.441C193.543 202.811 192.984 202.359 192.351 202.419L191.056 202.552L189.887 191.002C189.82 190.365 190.289 189.787 190.937 189.728L217.083 187.105Z" fill="#C4C4C4"/>
<path d="M215.297 199.337C216.093 199.337 216.741 199.974 216.741 200.767C216.741 201.559 216.093 202.204 215.297 202.204C214.5 202.204 213.86 201.559 213.86 200.767C213.86 199.974 214.5 199.337 215.297 199.337Z" fill="white"/>
<path d="M209.951 158.198L211.969 163.673L197.533 167.385C196.833 167.562 196.126 167.133 195.977 166.429L195.218 162.962C195.069 162.295 195.493 161.628 196.163 161.465L209.951 158.198Z" fill="white"/>
<path d="M208.44 223.533C208.537 223.399 208.746 223.496 208.708 223.651L208.098 226.533C208.046 226.778 208.038 227.022 208.076 227.259L205.373 227.533L208.44 223.533Z" fill="#C4C4C4"/>
<path d="M205.365 249.424C206.161 249.424 206.809 250.068 206.809 250.861C206.809 251.654 206.161 252.291 205.365 252.291C204.568 252.291 203.928 251.654 203.928 250.861C203.928 250.068 204.568 249.424 205.365 249.424Z" fill="white"/>
<path d="M202.394 232.125C203.183 232.125 203.831 232.77 203.831 233.562C203.831 234.355 203.183 234.992 202.394 234.992C201.605 234.992 200.95 234.348 200.95 233.562C200.95 232.777 201.597 232.125 202.394 232.125Z" fill="white"/>
<path d="M198.04 228.265L202.782 253.327H184.229C183.701 249.326 181.616 231.739 179.204 211.166C179.435 211.203 184.564 211.959 189.791 211.173L190.163 214.774C190.23 215.404 190.796 215.856 191.421 215.796L192.389 215.693L193.588 227.538C193.655 228.183 194.228 228.65 194.868 228.583L198.04 228.265Z" fill="#7FBAA8"/>
<path d="M198.695 123.964C199.529 124.112 200.057 124.935 199.841 125.75L189.5 165.296C188.8 167.963 188.25 170.674 187.855 173.408L187.788 173.83C187.639 172.785 187.52 171.733 187.438 170.689L184.267 130.247L183.924 125.876L182.405 106.532C182.353 105.925 182.904 105.436 183.507 105.562L184.043 105.673C184.974 105.858 185.822 106.325 186.478 107.007L189.344 109.977L194.898 115.734C195.501 116.348 195.419 117.349 194.741 117.867L190.133 121.401C189.701 121.727 189.873 122.416 190.409 122.505L198.695 123.964Z" fill="white"/>
<path d="M194.726 214.316C194.793 214.938 194.332 215.501 193.707 215.561L192.389 215.694L191.89 210.775L191.056 202.552L192.352 202.418C192.984 202.359 193.543 202.811 193.61 203.441L194.726 214.316Z" fill="#FDBE6F"/>
<path d="M192.583 180.275C193.379 180.275 194.027 180.92 194.027 181.713C194.027 182.505 193.379 183.142 192.583 183.142C191.786 183.142 191.146 182.505 191.146 181.713C191.146 180.92 191.794 180.275 192.583 180.275Z" fill="white"/>
<path d="M192.307 99.257C192.747 99.2866 192.94 99.8126 192.635 100.124C191.488 101.287 189.091 103.183 185.964 102.724C185.034 102.591 184.073 102.843 183.448 103.539C182.674 104.413 181.438 104.998 179.145 103.687C179.145 103.68 179.137 103.68 179.137 103.68C178.341 102.665 177.47 101.317 176.628 99.5237C176.338 97.5827 175.966 95.5232 175.526 93.3599C175.809 93.0266 176.033 92.6561 176.189 92.2635C177.38 89.315 177.09 85.596 174.06 84.9589C171.923 84.507 171.037 85.6552 170.687 86.5146C170.39 87.2332 169.816 87.8111 169.116 88.1445C167.568 88.8927 164.985 89.5743 163.034 87.3369C160.056 83.9069 158.85 86.4998 154.658 86.685C150.467 86.8702 150.839 82.8919 147.772 80.3879C145.471 78.5136 144.027 80.4398 143.446 81.5214C143.245 81.8992 142.963 82.2104 142.642 82.4919C141.28 83.6846 141.466 86.4554 141.957 88.8557C142.389 90.9522 143.164 92.9599 144.161 94.8564C145.032 96.5233 146.283 99.1162 147.072 101.702C148.323 105.836 150.713 110.399 155.187 113.037C153.497 114.348 152.187 114.363 151.36 114.126C150.69 113.933 149.983 113.955 149.35 114.244C148.025 114.852 146.633 114.74 145.836 114.592C145.576 114.54 145.501 114.229 145.695 114.044C147.199 112.607 146.417 109.362 144.049 106.539C141.444 103.428 140.789 102.524 140.789 97.4049C140.789 92.2857 136.977 92.7969 136.694 87.2406C136.508 83.3957 138.764 81.5436 140.178 80.7731C140.811 80.4249 141.183 79.7508 141.183 79.0322C141.198 76.5578 141.987 71.2164 148.516 70.0162C157.078 68.4456 154.033 64.334 161.173 64.334C165.856 64.334 166.861 66.8676 171.052 67.8826C175.236 68.9049 180.142 68.7197 182.018 74.5501C183.895 80.3879 183.924 81.4992 187.23 84.3736C192.307 88.7742 188.16 92.1524 187.885 95.8566C187.677 98.5384 190.654 99.1311 192.307 99.257Z" fill="#51423E"/>
<path d="M191.89 210.773L192.389 215.693L191.421 215.796C190.796 215.856 190.23 215.404 190.163 214.774L189.791 211.173C190.49 211.07 191.198 210.936 191.89 210.773Z" fill="#FDBE6F"/>
<path d="M191.056 202.551L191.89 210.774C191.198 210.937 190.49 211.07 189.791 211.174L189.046 203.899C188.979 203.277 189.441 202.714 190.066 202.654L191.056 202.551Z" fill="#FDBE6F"/>
<path d="M187.787 173.829C187.892 174.526 188.003 175.222 188.137 175.911L190.937 189.728C190.289 189.787 189.82 190.365 189.887 191.002L191.056 202.552L190.065 202.655C189.44 202.715 188.979 203.278 189.046 203.9L189.79 211.175C184.564 211.96 179.434 211.205 179.203 211.168C178.407 204.382 177.573 197.27 176.747 190.209C185.829 174.081 180.186 150.019 178.295 143.189C178.786 142.907 179.047 142.322 178.891 141.751L177.141 135.373L177.096 135.21L178.526 134.824C178.526 134.824 181.72 133.595 184.095 130.261L184.273 130.246L187.445 170.688C187.527 171.733 187.646 172.785 187.795 173.829H187.787Z" fill="#97D1C1"/>
<path d="M183.924 125.875L184.266 130.246L184.087 130.261C181.712 133.595 178.519 134.824 178.519 134.824L177.089 135.21L176.352 132.52C176.806 132.483 177.253 132.335 177.655 132.113C179.494 131.098 183.015 128.809 183.924 125.875Z" fill="#97D1C1"/>
<path d="M184.229 253.328H165.959C165.959 253.328 165.594 216.568 165.885 200.996C170.806 198.299 174.297 194.535 176.739 190.209C177.566 197.269 178.4 204.381 179.196 211.167C181.608 231.74 183.693 249.328 184.221 253.328H184.229Z" fill="white"/>
<path d="M182.405 106.532L183.924 125.875C183.015 128.809 179.494 131.098 177.655 132.113C177.253 132.335 176.806 132.483 176.352 132.52L175.548 129.572C175.459 129.246 175.25 128.986 174.982 128.824C175.005 128.801 175.012 128.779 175.027 128.757C175.824 127.231 179.568 118.704 176.628 99.5234C177.469 101.316 178.34 102.665 179.137 103.68C179.137 103.68 179.144 103.68 179.144 103.687C180.946 105.961 182.405 106.532 182.405 106.532Z" fill="#FFD4C7"/>
<path d="M178.288 143.189C178.199 143.248 178.095 143.293 177.983 143.322C177.298 143.507 176.584 143.107 176.397 142.426L174.439 135.284C175.214 135.558 175.988 135.677 176.658 135.506L177.134 135.373L178.884 141.752C179.04 142.322 178.78 142.907 178.288 143.189Z" fill="#939393"/>
<path d="M178.288 143.188C180.179 150.019 185.823 174.081 176.74 190.209C175.75 181.808 174.767 173.481 173.873 165.887C171.737 147.841 170.069 133.898 169.838 132.72C169.816 132.594 169.786 132.468 169.749 132.335H169.756C169.756 132.335 172.124 134.483 174.439 135.283L176.397 142.425C176.583 143.107 177.298 143.507 177.983 143.322C178.095 143.292 178.199 143.247 178.288 143.188Z" fill="#97D1C1"/>
<path d="M177.089 135.21L177.134 135.373L176.658 135.506C175.988 135.676 175.213 135.558 174.439 135.284L173.471 131.75C174.037 132.032 174.64 132.269 175.273 132.439C175.63 132.535 175.995 132.565 176.352 132.52L177.089 135.21Z" fill="#939393"/>
<path d="M176.628 99.5228C179.569 118.703 175.824 127.23 175.027 128.756C175.012 128.778 175.005 128.801 174.983 128.823C174.782 128.69 174.551 128.623 174.305 128.623C174.194 128.623 174.082 128.638 173.97 128.667C173.576 128.771 173.278 129.053 173.129 129.401C171.208 128.608 169.481 127.704 167.932 126.726C167.188 125.645 166.801 124.852 166.801 124.852C166.801 124.852 166.95 124.719 167.143 124.437C169.764 126.393 171.826 127.23 172.801 127.556C173.151 127.667 173.531 127.519 173.702 127.193C176.836 120.97 176.576 111.139 175.638 103.249C176.077 101.686 176.248 100.049 176.144 98.4189C176.3 98.8042 176.464 99.1746 176.628 99.5228Z" fill="#B7B7B7"/>
<path d="M176.628 99.5231C176.464 99.1749 176.3 98.8045 176.144 98.4193H176.136C176.039 96.8561 175.675 95.3078 175.057 93.8261C175.228 93.6853 175.384 93.5298 175.526 93.3594C175.965 95.5226 176.337 97.5821 176.628 99.5231Z" fill="#B7B7B7"/>
<path d="M175.548 129.571L176.352 132.519C175.995 132.563 175.63 132.534 175.272 132.438C174.64 132.267 174.037 132.03 173.471 131.749L173.061 130.245C172.979 129.956 173.009 129.652 173.128 129.4C173.151 129.408 173.166 129.415 173.188 129.422C173.359 129.489 173.553 129.496 173.731 129.43L174.625 129.104C174.774 129.052 174.9 128.956 174.982 128.822C175.25 128.985 175.459 129.245 175.548 129.571Z" fill="#939393"/>
<path d="M163.078 102.7C163.041 102.374 162.989 102.085 162.929 101.84C162.847 101.5 162.423 101.366 162.162 101.603C159.132 104.352 155.76 105.078 154.219 105.271C153.846 105.322 153.675 105.759 153.921 106.041C154.085 106.234 154.286 106.456 154.524 106.686C154.986 107.137 155.566 107.619 156.244 107.975C157.316 108.552 158.619 108.834 160.041 108.234C163.041 106.967 163.294 104.389 163.078 102.7ZM173.456 88.8832C172.831 89.2907 172.503 90.1871 172.689 91.1354C172.846 91.9206 173.315 92.5429 173.896 92.8171C173.985 93.2467 174.089 93.7431 174.201 94.2839C174.655 96.5435 175.213 99.6994 175.638 103.248C175.072 105.233 174.082 107.108 172.675 108.723C170.374 111.36 167.783 113.212 166.131 114.249C166.041 114.309 165.944 114.361 165.848 114.412C164.768 115.02 163.51 115.294 162.267 115.19C160.599 115.057 159.103 114.724 157.755 114.235C157.74 114.22 157.718 114.205 157.695 114.198L156.035 113.501L155.991 113.479C155.715 113.338 155.447 113.19 155.187 113.034C150.712 110.397 148.322 105.834 147.072 101.7C146.282 99.1142 145.032 96.5212 144.161 94.8544C143.163 92.9578 142.389 90.9501 141.957 88.8536C141.466 86.4533 141.28 83.6825 142.642 82.4898C142.962 82.2083 143.245 81.8971 143.446 81.5193C144.027 80.4377 145.471 78.5115 147.771 80.3858C150.839 82.8898 150.467 86.8681 154.658 86.6829C158.849 86.4977 160.056 83.9048 163.033 87.3349C164.984 89.5722 167.567 88.8906 169.116 88.1424C169.816 87.809 170.389 87.2312 170.687 86.5125C171.037 85.6532 171.923 84.5049 174.059 84.9568C177.089 85.5939 177.38 89.3129 176.189 92.2614C176.032 92.6541 175.809 93.0245 175.526 93.3579C175.481 93.1356 175.429 92.906 175.385 92.6763C175.965 92.2466 176.263 91.3872 176.084 90.476C175.854 89.2907 174.901 88.4906 173.963 88.6684C173.776 88.7054 173.605 88.7795 173.456 88.8832ZM158.708 94.9062C159.259 94.7284 159.557 94.1357 159.378 93.5875C159.199 93.0467 158.611 92.743 158.06 92.9208C157.509 93.0986 157.212 93.6912 157.39 94.2321C157.569 94.7803 158.157 95.084 158.708 94.9062ZM149.387 98.3363C149.938 98.1585 150.236 97.5732 150.057 97.025C149.878 96.4768 149.29 96.173 148.739 96.3508C148.188 96.5286 147.883 97.1213 148.062 97.6695C148.24 98.2178 148.836 98.5141 149.387 98.3363Z" fill="#FFD4C7"/>
<path d="M176.144 98.4194C176.249 100.049 176.077 101.686 175.638 103.25C175.214 99.701 174.655 96.545 174.201 94.2855L174.365 94.2559C174.618 94.1447 174.849 93.9892 175.057 93.8262C175.675 95.3078 176.04 96.8562 176.137 98.4119H176.144V98.4194Z" fill="#B7B7B7"/>
<path d="M173.456 88.8851C173.605 88.7813 173.777 88.7073 173.963 88.6702C174.901 88.4924 175.854 89.2925 176.085 90.4779C176.263 91.3891 175.965 92.2485 175.385 92.6781C175.273 92.1744 175.169 91.6558 175.05 91.1372C174.96 90.752 174.573 90.4927 174.186 90.5668C173.821 90.6334 173.576 90.9446 173.576 91.2928C173.576 91.3446 173.576 91.4039 173.59 91.4558C173.672 91.804 173.777 92.2633 173.896 92.8189C173.315 92.5448 172.846 91.9225 172.69 91.1372C172.504 90.1889 172.831 89.2925 173.456 88.8851Z" fill="#E5E5E5"/>
<path d="M175.638 103.25C176.576 111.14 176.837 120.971 173.702 127.194C173.531 127.52 173.151 127.668 172.802 127.557C171.826 127.231 169.764 126.394 167.143 124.438C167.858 123.401 169.161 120.341 165.855 114.422C165.952 114.363 166.049 114.311 166.138 114.251C167.791 113.214 170.382 111.362 172.682 108.725C174.09 107.11 175.08 105.235 175.645 103.25H175.638Z" fill="#FFD4C7"/>
<path d="M175.526 93.3603C175.384 93.5307 175.228 93.6862 175.057 93.827C174.848 93.99 174.618 94.1456 174.365 94.2567L174.201 94.2863C174.089 93.7455 173.985 93.2492 173.896 92.8195C174.178 92.9528 174.491 92.9973 174.804 92.938C175.02 92.901 175.213 92.8121 175.384 92.6787C175.429 92.9084 175.481 93.138 175.526 93.3603Z" fill="#B7B7B7"/>
<path d="M175.049 91.1368C175.168 91.6554 175.273 92.174 175.384 92.6777C175.213 92.8111 175.02 92.9 174.804 92.937C174.491 92.9963 174.178 92.9518 173.895 92.8185C173.776 92.2629 173.672 91.8036 173.59 91.4554C173.575 91.4035 173.575 91.3442 173.575 91.2924C173.575 90.9442 173.821 90.633 174.186 90.5664C174.573 90.4923 174.96 90.7516 175.049 91.1368Z" fill="#E5E5E5"/>
<path d="M174.982 128.823C174.9 128.957 174.774 129.053 174.625 129.105L173.731 129.431C173.553 129.498 173.359 129.491 173.188 129.424C173.166 129.416 173.151 129.409 173.128 129.402C173.277 129.053 173.575 128.771 173.97 128.668C174.081 128.638 174.193 128.623 174.305 128.623C174.55 128.623 174.781 128.69 174.982 128.823Z" fill="#939393"/>
<path d="M173.471 131.75L174.439 135.284C172.124 134.484 169.756 132.335 169.756 132.335H169.749C169.339 130.654 168.26 128.283 167.27 126.29C167.485 126.446 167.709 126.586 167.932 126.727C169.027 128.298 170.888 130.483 173.471 131.75Z" fill="#97D1C1"/>
<path d="M173.866 165.888C174.76 173.481 175.742 181.808 176.732 190.209C174.291 194.536 170.799 198.299 165.878 200.996C165.893 200.263 165.908 199.574 165.922 198.937C165.945 198.136 165.952 197.262 165.952 196.344C165.93 189.624 165.305 180.06 164.62 171.466L163.704 171.54C159.78 169.511 155.284 170.703 155.284 170.703L154.294 170.555C154.361 170.074 154.39 169.592 154.375 169.103L153.289 140.485C153.117 136.002 155.224 131.743 158.88 129.135L164.456 125.164L161.865 133.498C161.59 134.402 162.193 135.343 163.131 135.469L166.317 135.891C166.786 135.951 167.017 136.491 166.741 136.869L163.421 141.514C163.093 141.974 163.041 142.581 163.294 143.085C165.126 146.715 172.437 161.317 173.859 165.888H173.866Z" fill="white"/>
<path d="M173.873 165.887C172.451 161.316 165.14 146.714 163.309 143.084C163.056 142.581 163.108 141.973 163.436 141.514L166.756 136.869C167.031 136.491 166.801 135.95 166.332 135.891L163.145 135.468C162.207 135.343 161.604 134.402 161.88 133.498L164.47 125.163L164.709 124.4C165.505 125.052 166.354 125.689 167.277 126.29C168.267 128.282 169.347 130.653 169.756 132.335C169.793 132.468 169.823 132.594 169.846 132.72C170.076 133.898 171.744 147.84 173.881 165.887H173.873Z" fill="white"/>
<path d="M173.062 130.247L173.472 131.75C170.888 130.484 169.027 128.298 167.933 126.728C169.481 127.705 171.208 128.609 173.129 129.402C173.01 129.654 172.98 129.958 173.062 130.247Z" fill="#FFD4C7"/>
<path d="M167.932 126.727C167.709 126.586 167.486 126.446 167.27 126.29C166.845 125.445 166.443 124.667 166.108 124.045C165.803 123.482 164.962 123.556 164.768 124.179L164.701 124.401C158.492 119.378 156.095 113.725 155.998 113.488L156.035 113.503C156.579 113.777 157.152 114.022 157.755 114.237C157.867 114.288 157.956 114.377 158.016 114.474C161.254 119.348 164.485 122.467 167.143 124.438C166.949 124.719 166.801 124.853 166.801 124.853C166.801 124.853 167.188 125.645 167.932 126.727Z" fill="#B7B7B7"/>
<path d="M166.108 124.045C166.443 124.668 166.845 125.445 167.269 126.29C166.346 125.69 165.497 125.053 164.701 124.401L164.768 124.179C164.961 123.556 165.803 123.482 166.108 124.045Z" fill="#B7B7B7"/>
<path d="M165.959 196.344H165.929L160.644 200.937L159.959 200.152C159.787 181.905 149.982 178.016 149.982 178.016L149.35 177.334L151.948 174.941C153.221 173.771 154.04 172.222 154.3 170.555L155.291 170.704C155.291 170.704 159.787 169.511 163.711 171.541L164.627 171.467C165.311 180.06 165.937 189.625 165.959 196.344Z" fill="white"/>
<path d="M163.078 102.702C163.294 104.391 163.041 106.969 160.04 108.236C158.618 108.836 157.316 108.555 156.244 107.984C156.221 107.903 156.459 107.036 157.733 105.969C159.318 105.414 161.276 104.436 163.078 102.702Z" fill="#CE6767"/>
<path d="M162.928 101.842C162.988 102.087 163.04 102.376 163.077 102.702C161.276 104.435 159.318 105.413 157.732 105.969C155.878 106.621 154.523 106.687 154.523 106.687C154.285 106.458 154.084 106.235 153.92 106.043C153.674 105.761 153.846 105.324 154.218 105.272C155.759 105.08 159.131 104.354 162.162 101.605C162.422 101.368 162.846 101.501 162.928 101.842Z" fill="white"/>
<path d="M159.959 200.151L160.644 200.936L156.951 204.144C156.899 204.188 156.847 204.233 156.788 204.277C155.366 204.559 153.929 204.751 152.477 204.855C151.889 204.603 151.345 204.218 150.906 203.707L148.241 200.603L148.665 200.706C149.946 201.04 151.271 200.195 151.442 198.884C152.216 192.854 149.015 187.342 147.534 185.164C147.117 184.549 146.424 184.178 145.672 184.178H143.595C143.595 183.2 144.005 182.26 144.734 181.593L149.35 177.333L149.983 178.015C149.983 178.015 159.788 181.904 159.959 200.151ZM150.847 181.711C150.847 180.919 150.206 180.274 149.41 180.274C148.613 180.274 147.965 180.919 147.965 181.711C147.965 182.504 148.613 183.141 149.41 183.141C150.206 183.141 150.847 182.504 150.847 181.711Z" fill="white"/>
<path d="M159.378 93.5887C159.557 94.137 159.259 94.7296 158.708 94.9074C158.158 95.0852 157.569 94.7815 157.391 94.2333C157.212 93.6925 157.51 93.0998 158.061 92.922C158.612 92.7442 159.2 93.0479 159.378 93.5887Z" fill="black"/>
<path d="M157.695 114.201C157.695 114.201 157.74 114.223 157.755 114.238C157.152 114.023 156.579 113.778 156.035 113.504L157.695 114.201Z" fill="#FFD4C7"/>
<path d="M154.524 106.687C154.524 106.687 155.879 106.621 157.733 105.969C156.46 107.036 156.221 107.902 156.244 107.976C155.566 107.621 154.986 107.139 154.524 106.687Z" fill="#3F3535"/>
<path d="M147.533 185.164C149.015 187.342 152.216 192.853 151.442 198.884C151.27 200.195 149.945 201.04 148.665 200.706L148.24 200.603L122.719 194.12C124.216 193.402 124.983 192.683 124.983 192.683L120.374 193.098L119.176 192.564C120.121 192.742 121.119 192.735 122.146 192.453L110.651 179.955C110.651 179.955 107.763 182.311 105.023 183.008C103.571 183.371 101.829 183.6 100.489 183.726C100.094 183.43 99.7221 183.134 99.3573 182.852L99.3275 182.645L98.8585 179.807C98.7915 178.733 99.5806 177.792 100.66 177.674C102.655 177.459 105.879 177.081 108.202 176.799C110.041 176.585 111.894 176.948 113.517 177.844L122.116 182.593C123.992 183.637 126.114 184.178 128.266 184.178H145.672C146.424 184.178 147.116 184.549 147.533 185.164Z" fill="#FFD4C7"/>
<path d="M149.409 180.275C150.206 180.275 150.846 180.92 150.846 181.713C150.846 182.505 150.206 183.142 149.409 183.142C148.613 183.142 147.965 182.505 147.965 181.713C147.965 180.92 148.613 180.275 149.409 180.275Z" fill="white"/>
<path d="M150.057 97.0268C150.236 97.575 149.938 98.1602 149.387 98.338C148.836 98.5158 148.241 98.2195 148.062 97.6713C147.883 97.1231 148.188 96.5304 148.739 96.3526C149.29 96.1748 149.878 96.4785 150.057 97.0268Z" fill="black"/>
<path d="M120.375 193.098L124.983 192.684C124.983 192.684 124.216 193.402 122.72 194.121H122.697L120.375 193.098Z" fill="#FFD4C7"/>
<path d="M122.697 194.113H122.719C121.617 194.653 120.114 195.187 118.23 195.424C117.121 194.816 116.034 194.202 114.977 193.579L120.374 193.098L122.697 194.113Z" fill="#FFD4C7"/>
<path d="M110.652 179.956L122.146 192.454C121.119 192.735 120.121 192.743 119.176 192.565L115.29 190.861C113.592 189.713 112.342 188.357 111.813 187.92C111.426 187.601 109.713 187.498 107.636 187.505L102.499 185.253C101.8 184.734 101.13 184.223 100.489 183.727C101.829 183.601 103.571 183.371 105.023 183.008C107.763 182.312 110.652 179.956 110.652 179.956Z" fill="#FFD4C7"/>
<path d="M119.175 192.566L120.374 193.099L114.977 193.581C111.589 191.58 108.447 189.514 105.641 187.535C106.326 187.521 106.996 187.506 107.636 187.506L115.289 190.862C116.413 191.632 117.739 192.306 119.175 192.566Z" fill="#FFD4C7"/>
<path d="M115.29 190.86L119.176 192.564C117.739 192.305 116.414 191.631 115.29 190.86Z" fill="#FFD4C7"/>
<path d="M118.23 195.425C115.699 195.758 112.461 195.566 108.56 194.151L114.977 193.58C116.034 194.202 117.121 194.817 118.23 195.425Z" fill="#FFD4C7"/>
<path d="M115.289 190.862L107.636 187.506C109.713 187.499 111.425 187.603 111.812 187.921C112.341 188.358 113.592 189.714 115.289 190.862Z" fill="#FFD4C7"/>
<path d="M114.977 193.58L108.559 194.151C108.686 193.817 108.76 193.432 108.76 193.025C108.76 191.639 107.919 190.513 106.884 190.513C106.475 190.513 106.103 190.684 105.797 190.98C105.596 189.891 104.859 189.084 103.981 189.084C103.601 189.084 103.251 189.232 102.961 189.491V189.476C102.961 188.772 102.745 188.135 102.395 187.676C103.415 187.617 104.539 187.572 105.641 187.535C108.448 189.513 111.589 191.58 114.977 193.58Z" fill="#FFD4C7"/>
<path d="M108.76 193.024C108.76 193.432 108.686 193.817 108.559 194.15C108.254 194.98 107.614 195.543 106.884 195.543C106.005 195.543 105.268 194.735 105.067 193.646C105.544 193.187 105.857 192.439 105.857 191.594C105.857 191.379 105.834 191.172 105.797 190.979C106.102 190.683 106.474 190.513 106.884 190.513C107.919 190.513 108.76 191.639 108.76 193.024Z" fill="#FFD4C7"/>
<path d="M102.5 185.253L107.636 187.505C106.996 187.505 106.326 187.52 105.641 187.535C104.539 186.757 103.49 185.994 102.5 185.253Z" fill="#FFD4C7"/>
<path d="M105.798 190.979C105.835 191.171 105.857 191.379 105.857 191.593C105.857 192.438 105.545 193.186 105.068 193.646C105.031 193.446 105.008 193.238 105.008 193.023C105.008 192.179 105.321 191.43 105.798 190.979Z" fill="#FFD4C7"/>
<path d="M105.797 190.98C105.321 191.431 105.008 192.18 105.008 193.024C105.008 193.239 105.03 193.447 105.068 193.647C104.762 193.943 104.39 194.113 103.981 194.113C102.938 194.113 102.104 192.987 102.104 191.594C102.618 191.143 102.953 190.372 102.961 189.49C103.251 189.231 103.601 189.083 103.981 189.083C104.859 189.083 105.596 189.891 105.797 190.98Z" fill="#FFD4C7"/>
<path d="M102.499 185.253C103.489 185.994 104.539 186.757 105.641 187.535C104.539 187.572 103.415 187.616 102.395 187.676C102.067 187.231 101.591 186.957 101.085 186.957C100.579 186.957 100.109 187.231 99.7745 187.668C99.3799 187.535 99.0449 187.283 98.8066 186.957L99.1342 184.216C99.2533 184.112 99.3873 184.023 99.5362 183.949L102.492 185.253H102.499Z" fill="#FFD4C7"/>
<path d="M102.961 189.475V189.489C102.447 189.934 102.105 190.704 102.105 191.586C101.814 191.845 101.457 191.993 101.085 191.993C100.05 191.993 99.2085 190.867 99.2085 189.475C99.2085 188.763 99.4244 188.126 99.7743 187.667C99.9753 187.741 100.199 187.778 100.429 187.778C100.467 187.778 100.511 187.771 100.556 187.771C101.099 187.741 101.725 187.704 102.395 187.674C102.745 188.134 102.961 188.771 102.961 189.475Z" fill="#FFD4C7"/>
<path d="M102.104 191.588C102.104 190.706 102.447 189.936 102.961 189.491C102.954 190.373 102.618 191.143 102.104 191.588Z" fill="#FFD4C7"/>
<path d="M102.499 185.253L99.543 183.956C99.7589 183.838 100.005 183.771 100.258 183.749C100.332 183.741 100.407 183.734 100.488 183.727C101.129 184.223 101.799 184.734 102.499 185.253Z" fill="#FFD4C7"/>
<path d="M101.085 186.957C101.591 186.957 102.067 187.231 102.395 187.676C101.725 187.706 101.1 187.743 100.556 187.773C100.511 187.773 100.467 187.78 100.43 187.78C100.199 187.78 99.9754 187.743 99.7744 187.669C100.109 187.231 100.578 186.957 101.085 186.957Z" fill="#FFD4C7"/>
<path d="M100.49 183.726C100.408 183.733 100.333 183.741 100.259 183.748C100.005 183.77 99.7597 183.837 99.5436 183.948L99.3574 182.852C99.7224 183.133 100.095 183.429 100.49 183.726Z" fill="#FFD4C7"/>
<path d="M99.3284 182.639L99.306 182.81C99.2313 182.75 99.1566 182.691 99.0894 182.639H99.3284Z" fill="#FFD4C7"/>
<path d="M99.3049 182.809L99.1412 184.217C98.6945 184.587 98.4116 185.143 98.4116 185.758C98.4116 186.21 98.5605 186.624 98.8061 186.958H96.8556C95.7388 186.958 94.8306 186.054 94.8306 184.943V184.654C94.8306 183.542 95.7388 182.639 96.8556 182.639H99.089C99.1561 182.691 99.2305 182.75 99.3049 182.809Z" fill="#FFD4C7"/>
<path d="M99.1415 184.216L98.8137 186.957C98.5679 186.624 98.4189 186.209 98.4189 185.757C98.4189 185.142 98.702 184.586 99.1489 184.216H99.1415Z" fill="#FFD4C7"/>
<path d="M95.3962 173.621C95.7461 174.955 95.7387 176.244 95.3962 177.318L94.0562 175.821C94.1529 175.792 94.2423 175.747 94.3316 175.695C95.0091 175.303 95.3739 174.532 95.3962 173.621Z" fill="#BCBCBC"/>
<path d="M94.735 171.229C95.1966 172.022 95.4125 172.866 95.3976 173.622C95.204 172.874 94.8914 172.118 94.467 171.385C94.0426 170.651 93.5364 170.007 92.978 169.466C93.6481 169.821 94.2734 170.429 94.735 171.229Z" fill="#B7B7B7"/>
<path d="M94.0568 175.822L95.3968 177.319C95.3968 177.319 95.3894 177.341 95.3894 177.348C95.1958 177.933 94.898 178.452 94.5035 178.867C92.9698 177.533 92.1211 176.741 92.1211 176.741L92.5082 175.8C93.0443 175.985 93.5803 176 94.0568 175.822Z" fill="#BCBCBC"/>
<path d="M95.3903 177.349C95.3605 177.497 95.2041 178.193 94.5933 178.941C94.5635 178.912 94.5337 178.882 94.5039 178.867C94.8987 178.452 95.1967 177.934 95.3903 177.349Z" fill="#FFD4C7"/>
<path d="M94.4664 171.384C94.8907 172.118 95.2034 172.874 95.397 173.622C95.3747 174.533 95.0099 175.304 94.3324 175.696C94.243 175.748 94.1537 175.792 94.0569 175.822L89.6421 170.881C89.7687 170.207 90.1111 169.651 90.6472 169.34C91.3246 168.955 92.1808 169.029 92.9774 169.466C93.5358 170.007 94.042 170.651 94.4664 171.384Z" fill="#E5E5E5"/>
<path d="M94.5037 178.866C94.5037 178.866 94.5633 178.911 94.593 178.941C94.057 179.607 93.1636 180.311 91.6895 180.681C90.1931 181.052 88.7711 180.415 87.6544 179.592C86.024 178.385 85.0859 176.807 84.5275 174.859C84.2446 173.895 84.0734 172.769 84.2446 171.666C84.6764 168.828 87.0365 167.969 87.0365 167.969C84.7807 169.265 84.4531 172.895 86.2994 176.073C88.1458 179.259 91.4662 180.785 93.722 179.489C94.0123 179.318 94.2804 179.111 94.5037 178.866Z" fill="#606060"/>
<path d="M89.6421 170.879L94.0569 175.82C93.5805 175.998 93.0444 175.983 92.5084 175.798C91.6597 175.509 90.811 174.805 90.2377 173.813C89.6645 172.82 89.4709 171.753 89.6421 170.879Z" fill="#E5E5E5"/>
<path d="M94.5039 178.866C94.2805 179.111 94.0125 179.318 93.7222 179.489C91.4664 180.785 88.146 179.259 86.2996 176.073C84.4533 172.895 84.7809 169.265 87.0367 167.969L89.6424 170.88C89.4711 171.754 89.6647 172.821 90.238 173.814C90.8112 174.807 91.6599 175.51 92.5087 175.799L92.1215 176.74C92.1215 176.74 92.9702 177.533 94.5039 178.866Z" fill="#BCBCBC"/>
<path d="M92.9776 169.466C92.181 169.029 91.3249 168.955 90.6474 169.341C90.1114 169.652 89.7689 170.207 89.6423 170.881L87.0366 167.97C88.7713 166.97 91.1388 167.644 92.9776 169.466Z" fill="#BCBCBC"/>
<path d="M176.352 132.52C176.806 132.483 177.253 132.335 177.655 132.113C179.494 131.098 183.015 128.809 183.924 125.875" stroke="black" stroke-width="0.75" stroke-linecap="round" stroke-linejoin="round"/>
<path d="M167.933 126.728C169.027 128.298 170.888 130.484 173.472 131.75" stroke="black" stroke-width="0.75" stroke-linecap="round" stroke-linejoin="round"/>
<path d="M165.855 114.421C169.161 120.34 167.858 123.4 167.143 124.437" stroke="black" stroke-width="0.75" stroke-linecap="round" stroke-linejoin="round"/>
<path d="M190.937 189.728L188.138 175.912C188.004 175.223 187.892 174.526 187.788 173.83M187.788 173.83C187.639 172.785 187.52 171.733 187.438 170.689L184.267 130.247L183.924 125.876L182.405 106.532C182.353 105.925 182.904 105.436 183.507 105.562L184.043 105.673C184.974 105.858 185.822 106.325 186.478 107.007L189.344 109.977L194.898 115.734C195.501 116.348 195.419 117.349 194.741 117.867L190.133 121.401C189.701 121.727 189.873 122.416 190.409 122.505L198.695 123.964C199.529 124.112 200.057 124.935 199.841 125.75L189.5 165.296C188.8 167.963 188.25 170.674 187.855 173.408L187.788 173.83ZM187.788 173.83V173.845" stroke="black" stroke-width="0.75" stroke-linecap="round" stroke-linejoin="round"/>
<path d="M202.782 253.329L198.04 228.267" stroke="black" stroke-width="0.75" stroke-linecap="round" stroke-linejoin="round"/>
<path d="M244.972 253.329L238.83 224.177" stroke="black" stroke-width="0.75" stroke-linecap="round" stroke-linejoin="round"/>
<path d="M204.77 144.175L209.952 158.199L211.969 163.673L217.456 178.512C218.394 181.053 218.364 183.846 217.374 186.365L217.084 187.106L213.629 195.907L211.47 201.397C210.905 202.841 211.53 204.471 212.915 205.182L215.297 206.397L224.879 211.272L228.676 213.206C230.328 214.043 232.346 213.22 232.927 211.465L235.175 204.701L239.575 191.47C240.312 189.254 240.803 186.987 241.049 184.698C241.585 179.861 241.034 174.934 239.404 170.282L222.042 120.749C220.144 115.341 215.178 111.593 209.431 111.237L189.344 109.978" stroke="black" stroke-width="0.75" stroke-linecap="round" stroke-linejoin="round"/>
<path d="M98.8061 186.958H96.8556C95.7388 186.958 94.8306 186.054 94.8306 184.943V184.654C94.8306 183.542 95.7388 182.639 96.8556 182.639H99.3273" stroke="black" stroke-width="0.75" stroke-linecap="round" stroke-linejoin="round"/>
<path d="M105.797 190.979C106.102 190.683 106.474 190.513 106.884 190.513C107.919 190.513 108.76 191.639 108.76 193.024C108.76 193.432 108.686 193.817 108.559 194.15C108.254 194.98 107.614 195.543 106.884 195.543C106.005 195.543 105.268 194.735 105.067 193.646" stroke="black" stroke-width="0.75" stroke-linecap="round" stroke-linejoin="round"/>
<path d="M102.961 189.49C103.251 189.231 103.601 189.083 103.981 189.083C104.859 189.083 105.596 189.891 105.797 190.98C105.834 191.172 105.857 191.38 105.857 191.594C105.857 192.439 105.544 193.187 105.068 193.647C104.762 193.943 104.39 194.113 103.981 194.113C102.938 194.113 102.104 192.987 102.104 191.594" stroke="black" stroke-width="0.75" stroke-linecap="round" stroke-linejoin="round"/>
<path d="M102.105 191.593C101.814 191.845 101.457 191.993 101.085 191.993C100.05 191.993 99.2085 190.867 99.2085 189.475C99.2085 188.763 99.4244 188.126 99.7743 187.667" stroke="black" stroke-width="0.75" stroke-linecap="round" stroke-linejoin="round"/>
<path d="M102.395 187.675C102.745 188.134 102.961 188.771 102.961 189.475V189.49C102.954 190.371 102.618 191.142 102.104 191.586" stroke="black" stroke-width="0.75" stroke-linecap="round" stroke-linejoin="round"/>
<path d="M164.701 124.4L164.463 125.163L161.872 133.498C161.597 134.402 162.2 135.343 163.138 135.468L166.324 135.891C166.793 135.95 167.024 136.491 166.749 136.869L163.428 141.514C163.101 141.973 163.049 142.581 163.302 143.084C165.133 146.714 172.444 161.316 173.866 165.887C173.866 165.902 173.866 165.909 173.866 165.924" stroke="black" stroke-width="0.75" stroke-linecap="round" stroke-linejoin="round"/>
<path d="M179.196 211.168C178.4 204.382 177.566 197.27 176.739 190.209C175.749 181.808 174.767 173.481 173.873 165.888C171.736 147.841 170.069 133.898 169.838 132.72C169.816 132.595 169.786 132.469 169.749 132.335C169.339 130.654 168.26 128.283 167.27 126.29" stroke="black" stroke-width="0.75" stroke-linecap="round" stroke-linejoin="round"/>
<path d="M184.229 253.327C183.701 249.326 181.616 231.739 179.204 211.166" stroke="black" stroke-width="0.75" stroke-linecap="round" stroke-linejoin="round"/>
<path d="M164.463 125.164L158.887 129.135C155.232 131.743 153.125 136.002 153.296 140.485L154.383 169.103C154.398 169.592 154.368 170.074 154.301 170.555C154.04 172.222 153.221 173.77 151.948 174.941L149.35 177.334L144.734 181.594C144.005 182.26 143.595 183.201 143.595 184.179" stroke="black" stroke-width="0.75" stroke-linecap="round" stroke-linejoin="round"/>
<path d="M148.241 200.604L150.906 203.708C151.345 204.219 151.889 204.604 152.477 204.856C153.877 205.441 155.537 205.263 156.787 204.278C156.847 204.234 156.899 204.189 156.951 204.145L160.644 200.937L165.93 196.344" stroke="black" stroke-width="0.75" stroke-linecap="round" stroke-linejoin="round"/>
<path d="M162.765 151.338C162.765 151.338 163.748 160.621 164.626 171.466C165.311 180.06 165.937 189.624 165.959 196.344C165.959 197.262 165.952 198.137 165.929 198.937C165.914 199.574 165.899 200.263 165.885 200.996C165.594 216.569 165.959 253.329 165.959 253.329" stroke="black" stroke-width="0.75" stroke-linecap="round" stroke-linejoin="round"/>
<path d="M99.5434 183.949L99.3573 182.852L99.3275 182.645L98.8585 179.807C98.7915 178.733 99.5806 177.792 100.66 177.674C102.655 177.459 105.879 177.081 108.202 176.799C110.041 176.585 111.894 176.948 113.517 177.844L122.116 182.593C123.992 183.637 126.114 184.178 128.266 184.178H145.672C146.424 184.178 147.116 184.549 147.533 185.164C149.015 187.342 152.216 192.853 151.442 198.884C151.27 200.195 149.945 201.04 148.665 200.706L148.24 200.603L122.719 194.12" stroke="black" stroke-width="0.75" stroke-linecap="round" stroke-linejoin="round"/>
<path d="M124.983 192.684C124.983 192.684 124.216 193.402 122.72 194.121C121.618 194.654 120.114 195.188 118.23 195.425C115.699 195.758 112.461 195.565 108.56 194.15" stroke="black" stroke-width="0.75" stroke-linecap="round" stroke-linejoin="round"/>
<path d="M179.196 211.166C179.427 211.203 184.557 211.959 189.783 211.173" stroke="black" stroke-width="0.75" stroke-linecap="round" stroke-linejoin="round"/>
<path d="M155.291 170.704C155.291 170.704 159.787 169.511 163.711 171.541" stroke="black" stroke-width="0.75" stroke-linecap="round" stroke-linejoin="round"/>
<path d="M149.982 178.015C149.982 178.015 159.787 181.904 159.959 200.151" stroke="black" stroke-width="0.75" stroke-linecap="round" stroke-linejoin="round"/>
<path d="M214.753 196.344L234.296 204.411" stroke="black" stroke-width="0.75" stroke-linecap="round" stroke-linejoin="round"/>
<path d="M219.406 179.429C219.406 179.429 225.488 173.599 235.665 174.591" stroke="black" stroke-width="0.75" stroke-linecap="round" stroke-linejoin="round"/>
<path d="M219.406 176.742C219.406 176.742 221.148 173.482 225.488 172.489" stroke="black" stroke-width="0.75" stroke-linecap="round" stroke-linejoin="round"/>
<path d="M209.542 113.288C209.542 113.288 203.028 118.844 204.144 127.734" stroke="black" stroke-width="0.75" stroke-linecap="round" stroke-linejoin="round"/>
<path d="M179.137 103.68C178.34 102.665 177.469 101.316 176.628 99.5234" stroke="black" stroke-width="0.75" stroke-linecap="round" stroke-linejoin="round"/>
<path d="M182.405 106.532C182.405 106.532 180.946 105.962 179.145 103.688" stroke="black" stroke-width="0.75" stroke-linecap="round" stroke-linejoin="round"/>
<path d="M169.756 132.335C169.756 132.335 172.123 134.483 174.439 135.283" stroke="black" stroke-width="0.75" stroke-linecap="round" stroke-linejoin="round"/>
<path d="M178.519 134.824C178.519 134.824 181.712 133.595 184.087 130.261" stroke="black" stroke-width="0.75" stroke-linecap="round" stroke-linejoin="round"/>
<path d="M191.056 202.552L189.887 191.002C189.82 190.365 190.289 189.787 190.937 189.728L217.083 187.105" stroke="black" stroke-width="0.75" stroke-linecap="round" stroke-linejoin="round"/>
<path d="M203.355 227.733L198.04 228.266L194.868 228.585C194.228 228.652 193.655 228.185 193.588 227.54L192.389 215.694" stroke="black" stroke-width="0.75" stroke-linecap="round" stroke-linejoin="round"/>
<path d="M208.076 227.258L205.373 227.533" stroke="black" stroke-width="0.75" stroke-linecap="round" stroke-linejoin="round"/>
<path d="M241.056 184.698L246.007 184.202C246.655 184.135 247.228 184.602 247.295 185.246L250.995 221.784C251.055 222.421 250.586 222.999 249.945 223.059L238.83 224.177L221.863 225.881" stroke="black" stroke-width="0.75" stroke-linecap="round" stroke-linejoin="round"/>
<path d="M215.297 206.396L213.756 210.478C212.996 212.486 211.768 214.279 210.16 215.709L209.341 216.442C208.097 217.553 207.077 218.887 206.34 220.383L204.636 223.828L203.191 226.221C202.886 226.725 202.983 227.34 203.355 227.733C203.489 227.873 203.653 227.984 203.854 228.059C203.995 228.11 204.137 228.133 204.278 228.133C204.665 228.133 205.045 227.955 205.291 227.636L205.365 227.533H205.373L208.44 223.532C208.537 223.399 208.745 223.495 208.708 223.651L208.097 226.532C208.045 226.777 208.038 227.021 208.075 227.258C208.209 228.088 208.879 228.777 209.78 228.888C211.738 229.133 215.125 229.036 220.113 227.184C220.821 226.918 221.416 226.466 221.863 225.88C222.004 225.688 222.131 225.488 222.243 225.273C223.084 223.599 223.523 221.747 223.523 219.865V217.257C223.523 215.968 223.732 214.686 224.141 213.464L224.878 211.271" stroke="black" stroke-width="0.75" stroke-linecap="round" stroke-linejoin="round"/>
<path d="M191.056 202.552L192.352 202.418C192.984 202.359 193.543 202.811 193.61 203.441L194.726 214.316C194.793 214.938 194.332 215.501 193.707 215.561L192.389 215.694L191.421 215.798C190.796 215.857 190.23 215.405 190.163 214.775L189.791 211.175L189.046 203.9C188.979 203.278 189.441 202.715 190.066 202.655L191.056 202.552Z" stroke="black" stroke-width="0.75" stroke-linecap="round" stroke-linejoin="round"/>
<path d="M209.951 158.198L196.163 161.465C195.493 161.628 195.069 162.295 195.218 162.962L195.977 166.429C196.126 167.133 196.833 167.562 197.533 167.385L211.969 163.673" stroke="black" stroke-width="0.75" stroke-linecap="round" stroke-linejoin="round"/>
<path d="M194.027 181.713C194.027 182.505 193.379 183.142 192.583 183.142C191.786 183.142 191.146 182.505 191.146 181.713C191.146 180.92 191.794 180.275 192.583 180.275C193.372 180.275 194.027 180.92 194.027 181.713Z" stroke="black" stroke-width="0.75" stroke-linecap="round" stroke-linejoin="round"/>
<path d="M216.741 200.767C216.741 201.559 216.093 202.204 215.297 202.204C214.5 202.204 213.86 201.559 213.86 200.767C213.86 199.974 214.5 199.337 215.297 199.337C216.093 199.337 216.741 199.974 216.741 200.767Z" stroke="black" stroke-width="0.75" stroke-linecap="round" stroke-linejoin="round"/>
<path d="M150.846 181.713C150.846 182.505 150.206 183.142 149.409 183.142C148.613 183.142 147.965 182.505 147.965 181.713C147.965 180.92 148.613 180.275 149.409 180.275C150.206 180.275 150.846 180.92 150.846 181.713Z" stroke="black" stroke-width="0.75" stroke-linecap="round" stroke-linejoin="round"/>
<path d="M203.831 233.562C203.831 234.348 203.183 234.992 202.394 234.992C201.605 234.992 200.95 234.348 200.95 233.562C200.95 232.777 201.597 232.125 202.394 232.125C203.191 232.125 203.831 232.77 203.831 233.562Z" stroke="black" stroke-width="0.75" stroke-linecap="round" stroke-linejoin="round"/>
<path d="M206.809 250.861C206.809 251.654 206.161 252.291 205.365 252.291C204.568 252.291 203.928 251.654 203.928 250.861C203.928 250.068 204.568 249.424 205.365 249.424C206.161 249.424 206.809 250.068 206.809 250.861Z" stroke="black" stroke-width="0.75" stroke-linecap="round" stroke-linejoin="round"/>
<path d="M171.409 182.497H174.633" stroke="black" stroke-width="0.75" stroke-linecap="round" stroke-linejoin="round"/>
<path d="M173.642 210.035H176.866" stroke="black" stroke-width="0.75" stroke-linecap="round" stroke-linejoin="round"/>
<path d="M175.973 230.651H179.197" stroke="black" stroke-width="0.75" stroke-linecap="round" stroke-linejoin="round"/>
<path d="M179.196 250.861H182.42" stroke="black" stroke-width="0.75" stroke-linecap="round" stroke-linejoin="round"/>
<path d="M155.187 113.037C153.497 114.348 152.187 114.363 151.36 114.126C150.69 113.933 149.983 113.955 149.35 114.244C148.025 114.852 146.633 114.74 145.836 114.592C145.576 114.54 145.501 114.229 145.695 114.044C147.199 112.607 146.417 109.362 144.049 106.539C141.444 103.428 140.789 102.524 140.789 97.4049C140.789 92.2857 136.977 92.7969 136.694 87.2406C136.508 83.3957 138.764 81.5436 140.178 80.7731C140.811 80.4249 141.183 79.7508 141.183 79.0322C141.198 76.5578 141.987 71.2164 148.516 70.0162C157.078 68.4456 154.033 64.334 161.173 64.334C165.856 64.334 166.861 66.8676 171.052 67.8826C175.236 68.9049 180.142 68.7197 182.018 74.5501C183.895 80.3879 183.924 81.4992 187.23 84.3736C192.307 88.7742 188.16 92.1524 187.885 95.8566C187.677 98.5384 190.654 99.1311 192.307 99.257C192.747 99.2866 192.94 99.8126 192.635 100.124C191.488 101.287 189.091 103.183 185.964 102.724C185.034 102.591 184.073 102.843 183.448 103.539C182.674 104.413 181.438 104.998 179.145 103.687C179.145 103.68 179.137 103.68 179.137 103.68" stroke="black" stroke-width="0.75" stroke-linecap="round" stroke-linejoin="round"/>
<path d="M156.035 113.501L155.991 113.479C155.715 113.338 155.447 113.19 155.187 113.034C150.712 110.397 148.322 105.834 147.072 101.7C146.282 99.1142 145.032 96.5212 144.161 94.8543C143.163 92.9578 142.389 90.9501 141.957 88.8536C141.466 86.4533 141.28 83.6825 142.642 82.4898C142.962 82.2083 143.245 81.8971 143.446 81.5193C144.027 80.4377 145.471 78.5115 147.771 80.3858C150.839 82.8898 150.467 86.8681 154.658 86.6829C158.849 86.4977 160.056 83.9048 163.033 87.3349C164.984 89.5722 167.567 88.8906 169.116 88.1424C169.816 87.809 170.389 87.2311 170.687 86.5125C171.037 85.6532 171.923 84.5049 174.059 84.9568C177.089 85.5939 177.38 89.3129 176.189 92.2614C176.032 92.6541 175.809 93.0245 175.526 93.3579" stroke="black" stroke-width="0.75" stroke-linecap="round" stroke-linejoin="round"/>
<path d="M175.638 103.25C175.072 105.235 174.082 107.11 172.675 108.725C170.374 111.362 167.784 113.214 166.131 114.251C166.042 114.311 165.945 114.363 165.848 114.414C164.768 115.022 163.51 115.296 162.267 115.192C160.599 115.059 159.103 114.726 157.755 114.237" stroke="black" stroke-width="0.75" stroke-linecap="round" stroke-linejoin="round"/>
<path d="M173.97 86.5957C173.97 86.5957 172.563 87.2106 172.369 89.0479C172.302 89.6924 172.384 90.4925 172.734 91.463" stroke="black" stroke-width="0.75" stroke-linecap="round" stroke-linejoin="round"/>
<path d="M173.456 88.8833C173.166 88.8239 172.801 88.8462 172.369 89.0468" stroke="black" stroke-width="0.75" stroke-linecap="round" stroke-linejoin="round"/>
<path d="M160.801 89.1213C160.801 89.1213 156.676 87.8989 154.994 90.7066" stroke="black" stroke-width="0.75" stroke-linecap="round" stroke-linejoin="round"/>
<path d="M148.933 92.826C148.933 92.826 146.662 91.8777 145.144 94.6559" stroke="black" stroke-width="0.75" stroke-linecap="round" stroke-linejoin="round"/>
<path d="M151.776 95.249C151.776 95.249 152.312 95.8417 152.804 96.8196C153.183 97.5604 153.087 98.4346 152.677 99.1606C152.461 99.5533 152.342 100.087 152.61 100.761C153.221 102.302 154.993 101.717 154.993 101.717" stroke="black" stroke-width="0.75" stroke-linecap="round" stroke-linejoin="round"/>
<path d="M156.243 107.976C155.565 107.621 154.985 107.139 154.523 106.687C154.285 106.458 154.084 106.235 153.92 106.043C153.674 105.761 153.846 105.324 154.218 105.272C155.759 105.08 159.131 104.354 162.162 101.605C162.422 101.368 162.846 101.501 162.928 101.842C162.988 102.087 163.04 102.376 163.077 102.702C163.293 104.391 163.04 106.969 160.04 108.236C158.618 108.836 157.315 108.554 156.243 107.984" stroke="black" stroke-width="0.75" stroke-linecap="round" stroke-linejoin="round"/>
<path d="M154.524 106.688C154.524 106.688 155.879 106.621 157.733 105.969C159.318 105.414 161.276 104.436 163.078 102.702H163.086" stroke="black" stroke-width="0.75" stroke-linecap="round" stroke-linejoin="round"/>
<path d="M156.244 107.984C156.221 107.902 156.46 107.036 157.733 105.969" stroke="black" stroke-width="0.75" stroke-linecap="round" stroke-linejoin="round"/>
<path d="M156.206 72.5646C156.206 72.5646 162.661 68.2456 165.758 73.4907C168.862 78.7432 170.351 79.2322 175.503 78.558" stroke="black" stroke-width="0.75" stroke-linecap="round" stroke-linejoin="round"/>
<path d="M145.396 76.2231C145.396 76.2231 151.658 73.2078 153.809 77.3343C155.961 81.4534 160.197 80.2977 162.572 80.105" stroke="black" stroke-width="0.75" stroke-linecap="round" stroke-linejoin="round"/>
<path d="M180.53 84.7734C180.53 84.7734 184.498 87.5516 183.076 92.3003C181.647 97.0565 184.684 98.9086 184.684 98.9086" stroke="black" stroke-width="0.75" stroke-linecap="round" stroke-linejoin="round"/>
<path d="M174.982 128.824C174.982 128.824 175.012 128.78 175.027 128.757C175.824 127.231 179.568 118.704 176.628 99.524C176.337 97.583 175.965 95.5235 175.526 93.3603C175.481 93.138 175.429 92.9084 175.384 92.6787" stroke="black" stroke-width="0.75" stroke-linecap="round" stroke-linejoin="round"/>
<path d="M155.99 113.48H155.998C156.094 113.725 158.492 119.378 164.701 124.4C165.497 125.052 166.346 125.689 167.269 126.29C167.485 126.445 167.708 126.586 167.932 126.727C169.48 127.705 171.208 128.608 173.128 129.401" stroke="black" stroke-width="0.75" stroke-linecap="round" stroke-linejoin="round"/>
<path d="M173.896 92.8184C173.985 93.248 174.089 93.7444 174.201 94.2852C174.655 96.5448 175.213 99.7007 175.638 103.249C176.576 111.139 176.836 120.97 173.702 127.193C173.531 127.519 173.151 127.667 172.801 127.556C171.826 127.23 169.764 126.393 167.143 124.437C164.485 122.467 161.254 119.348 158.016 114.473C157.956 114.377 157.867 114.288 157.755 114.236C157.74 114.221 157.718 114.206 157.695 114.199L156.035 113.503L155.998 113.488" stroke="black" stroke-width="0.75" stroke-linecap="round" stroke-linejoin="round"/>
<path d="M173.456 88.8851C173.605 88.7813 173.777 88.7073 173.963 88.6702C174.901 88.4924 175.854 89.2925 176.085 90.4779C176.263 91.3891 175.965 92.2485 175.385 92.6781C175.213 92.8115 175.02 92.9004 174.804 92.9374C174.491 92.9967 174.179 92.9522 173.896 92.8189C173.315 92.5448 172.846 91.9225 172.69 91.1372C172.504 90.1889 172.831 89.2925 173.456 88.8851Z" stroke="black" stroke-width="0.75" stroke-linecap="round" stroke-linejoin="round"/>
<path d="M105.641 187.536C108.447 189.514 111.589 191.581 114.977 193.581C116.034 194.203 117.121 194.818 118.23 195.426C128.623 201.123 140.87 205.701 152.476 204.857C153.928 204.753 155.365 204.56 156.787 204.279C158.946 203.849 161.068 203.212 163.138 202.33C164.098 201.923 165.014 201.478 165.885 200.997C170.806 198.3 174.297 194.537 176.739 190.21C185.822 174.082 180.179 150.02 178.288 143.189" stroke="black" stroke-width="2" stroke-linecap="round" stroke-linejoin="round"/>
<path d="M94.5928 178.94C95.7393 179.918 97.258 181.193 99.0895 182.637C99.1565 182.689 99.2309 182.748 99.3054 182.808C99.3203 182.822 99.3352 182.83 99.3575 182.852C99.7223 183.134 100.095 183.43 100.489 183.726" stroke="black" stroke-width="2" stroke-linecap="round" stroke-linejoin="round"/>
<path d="M110.652 179.956C110.652 179.956 107.763 182.312 105.023 183.008C103.571 183.371 101.829 183.601 100.489 183.727C100.407 183.734 100.333 183.742 100.258 183.749C100.005 183.771 99.7596 183.838 99.5437 183.949C99.3948 184.023 99.2608 184.112 99.1417 184.216C98.695 184.586 98.4121 185.142 98.4121 185.757C98.4121 186.209 98.561 186.624 98.8067 186.957C99.0449 187.283 99.3799 187.535 99.7745 187.668C99.9755 187.742 100.199 187.779 100.43 187.779C100.467 187.779 100.512 187.772 100.556 187.772C101.1 187.742 101.725 187.705 102.395 187.676C103.415 187.616 104.539 187.572 105.641 187.535C106.326 187.52 106.996 187.505 107.636 187.505C109.713 187.498 111.426 187.601 111.813 187.92C112.341 188.357 113.592 189.713 115.29 190.861C116.414 191.632 117.739 192.306 119.176 192.565C120.121 192.743 121.119 192.735 122.146 192.454" stroke="black" stroke-width="0.75" stroke-linecap="round" stroke-linejoin="round"/>
<path d="M87.0365 167.969C87.0365 167.969 84.6764 168.828 84.2446 171.666C84.0734 172.769 84.2446 173.895 84.5275 174.859C85.0859 176.807 86.024 178.385 87.6544 179.592C88.7711 180.415 90.1931 181.052 91.6895 180.681C93.1636 180.311 94.057 179.607 94.593 178.941C95.2035 178.192 95.3599 177.496 95.3896 177.348" stroke="black" stroke-width="0.75" stroke-linecap="round" stroke-linejoin="round"/>
<path d="M95.3973 173.623C95.7472 174.956 95.7397 176.245 95.3973 177.319C95.3898 177.327 95.3898 177.342 95.3898 177.349C95.1963 177.934 94.8985 178.453 94.5039 178.868C94.2805 179.112 94.0125 179.32 93.7222 179.49C91.4664 180.786 88.146 179.26 86.2996 176.075C84.4533 172.897 84.7809 169.266 87.0367 167.97C88.7713 166.97 91.1388 167.644 92.9777 169.466" stroke="black" stroke-width="0.68" stroke-linecap="round" stroke-linejoin="round"/>
<path d="M92.9774 169.466C93.6475 169.821 94.2728 170.429 94.7344 171.229C95.196 172.022 95.4119 172.866 95.397 173.622C95.3747 174.533 95.0099 175.304 94.3324 175.696C94.2431 175.748 94.1537 175.792 94.0569 175.822C93.5805 176 93.0444 175.985 92.5084 175.8C91.6597 175.511 90.811 174.807 90.2377 173.814C89.6645 172.822 89.4709 171.755 89.6421 170.881C89.7687 170.207 90.1112 169.651 90.6472 169.34C91.3247 168.955 92.1808 169.029 92.9774 169.466Z" stroke="black" stroke-width="0.75" stroke-linecap="round" stroke-linejoin="round"/>
<path d="M178.288 143.188C178.198 143.247 178.094 143.292 177.982 143.321C177.297 143.506 176.583 143.106 176.397 142.425L174.439 135.283L173.471 131.749L173.061 130.245C172.979 129.957 173.009 129.653 173.128 129.401C173.277 129.053 173.575 128.771 173.97 128.668C174.081 128.638 174.193 128.623 174.305 128.623C174.55 128.623 174.781 128.69 174.982 128.823C175.25 128.986 175.459 129.245 175.548 129.571L176.352 132.52L177.089 135.209L177.134 135.372L178.883 141.751C179.04 142.321 178.779 142.906 178.288 143.188Z" stroke="black" stroke-width="0.75" stroke-linecap="round" stroke-linejoin="round"/>
<path d="M175.545 129.556C175.358 128.873 174.65 128.47 173.964 128.656C173.278 128.842 172.873 129.547 173.06 130.23L176.394 142.41C176.581 143.093 177.289 143.495 177.976 143.309C178.662 143.123 179.067 142.419 178.88 141.736L175.545 129.556Z" fill="#939393" stroke="black" stroke-width="0.75" stroke-miterlimit="10"/>
<path d="M110.65 179.957C110.65 179.957 107.762 182.32 105.022 183.009C103.496 183.395 101.62 183.624 100.257 183.75C99.2151 183.846 98.4185 184.713 98.4185 185.758C98.4185 186.921 99.3937 187.84 100.563 187.773C104.136 187.558 111 187.232 111.819 187.914C112.936 188.84 117.217 193.796 122.153 192.448" fill="#FFD4C7"/>
<path d="M110.65 179.957C110.65 179.957 107.762 182.32 105.022 183.009C103.496 183.395 101.62 183.624 100.257 183.75C99.2151 183.846 98.4185 184.713 98.4185 185.758C98.4185 186.921 99.3937 187.84 100.563 187.773C104.136 187.558 111 187.232 111.819 187.914C112.936 188.84 117.217 193.796 122.153 192.448" stroke="black" stroke-width="0.75" stroke-linecap="round" stroke-linejoin="round"/>
<path d="M152.469 87.7507C152.469 87.7507 149.535 87.3358 148.329 83.5353C147.123 79.7348 144.488 80.3053 143.445 81.5202" fill="#FFD4C7"/>
<path d="M152.469 87.7507C152.469 87.7507 149.535 87.3358 148.329 83.5353C147.123 79.7348 144.488 80.3053 143.445 81.5202" stroke="black" stroke-width="0.75" stroke-linecap="round" stroke-linejoin="round"/>
<path d="M150.613 103.65C151.749 103.172 152.383 102.109 152.029 101.276C151.675 100.443 150.467 100.156 149.331 100.634C148.195 101.112 147.561 102.175 147.915 103.008C148.269 103.841 149.477 104.128 150.613 103.65Z" fill="#F4A9A2"/>
<path d="M162.697 99.2257C164.249 98.5722 165.115 97.1167 164.629 95.975C164.144 94.8332 162.492 94.4374 160.939 95.091C159.387 95.7446 158.521 97.2 159.007 98.3418C159.492 99.4835 161.144 99.8793 162.697 99.2257Z" fill="#F4A9A2"/>
<path d="M158.015 109.791C158.015 109.791 159.102 111.029 161.276 109.791" stroke="black" stroke-width="0.75" stroke-linecap="round" stroke-linejoin="round"/>
<path d="M103.727 180.791C103.727 180.791 103.973 181.932 103.973 183.243L103.727 180.791Z" fill="white"/>
<path d="M103.727 180.791C103.727 180.791 103.973 181.932 103.973 183.243" stroke="#251E1C" stroke-width="0.75" stroke-linecap="round" stroke-linejoin="round"/>
</svg>
