<svg width="272" height="275" viewBox="0 0 272 275" fill="none" xmlns="http://www.w3.org/2000/svg">
<path d="M181.669 0C147.651 0 139.237 20.0896 137.165 29.2054C137.002 29.9137 135.99 29.9137 135.827 29.2054C133.756 20.0896 125.33 0 91.3237 0C47.3208 0 29.7941 30.3898 36.323 73.3095C43.6898 121.745 117.788 173.13 133.558 183.57C135.338 184.754 137.654 184.754 139.446 183.57C155.216 173.13 229.314 121.745 236.681 73.3095C243.198 30.3898 225.672 0 181.669 0Z" fill="#FFC0B6" fill-opacity="0.2"/>
<path d="M113.612 217.393C114.736 218.604 114.977 220.4 114.23 221.875L113.74 222.837L111.781 226.709C111.147 227.968 110.385 229.155 109.517 230.253C108.562 231.464 107.494 232.562 106.322 233.532C105.351 234.35 104.307 235.079 103.207 235.713C102.71 235.993 102.212 236.266 101.69 236.506C99.699 237.461 97.5475 238.118 95.3237 238.447C94.3443 238.591 93.405 238.727 92.57 238.84C90.4747 239.128 88.3552 239.064 86.2759 238.663L77.6216 236.971C77.0034 236.851 76.5618 236.306 76.5779 235.673C76.594 234.959 77.18 234.406 77.8785 234.406C77.9186 234.406 77.9668 234.406 78.0149 234.414L85.1841 235.208L80.1504 234.125C80.0942 234.117 80.038 234.101 79.9819 234.077L74.5468 232.121C73.8965 231.88 73.5192 231.191 73.6958 230.509C73.8483 229.892 74.4103 229.483 75.0204 229.483C75.1569 229.483 75.3014 229.499 75.4379 229.547L78.4003 230.518C79.0747 230.742 79.7651 230.918 80.4635 231.047L85.6337 232.001L80.5037 230.069C79.3155 229.628 78.1755 229.042 77.1158 228.329L74.595 226.645C73.9206 226.196 73.7199 225.298 74.1373 224.601C74.4264 224.128 74.9241 223.863 75.4459 223.863C75.6948 223.863 75.9517 223.927 76.1845 224.056L81.7641 227.198C82.4706 227.591 83.2252 227.888 84.012 228.072L89.6478 229.395L87.1911 228.409C85.2564 227.631 83.442 226.605 81.7882 225.354L78.7696 223.069C78.0551 222.532 77.9427 221.506 78.5127 220.825C78.8178 220.464 79.2673 220.271 79.7169 220.271C79.9578 220.271 80.1986 220.327 80.4234 220.44L87.8013 224.224C89.5595 225.13 91.4461 225.771 93.3889 226.124L94.3683 226.308C94.9544 226.413 95.3076 225.683 94.8581 225.298L89.2062 220.416C88.5319 219.83 88.5078 218.796 89.15 218.179C89.439 217.898 89.8164 217.762 90.1937 217.762C90.5148 217.762 90.844 217.866 91.1169 218.075C92.5941 219.197 95.3799 221.161 97.4271 221.578C99.2575 221.955 101.056 223.31 102.132 224.264C102.669 224.737 103.504 224.585 103.842 223.951L104.026 223.615C105.279 221.298 106.282 218.836 106.948 216.287C107.085 215.774 107.213 215.269 107.326 214.771C110.545 214.964 112.472 216.175 113.604 217.393H113.612Z" fill="#FFD4C7"/>
<path d="M103.208 235.716C104.308 235.083 105.351 234.353 106.323 233.535C100.157 255.054 102.084 270.415 102.678 273.999H98.1823C95.9023 255.35 101.691 236.51 101.691 236.51C102.212 236.269 102.71 235.996 103.208 235.716Z" fill="#ED847E"/>
<path d="M92.3461 76.3617C95.8223 85.7901 90.8449 92.22 90.8449 92.22C90.9251 90.6406 91.0616 89.2536 91.174 88.2354C91.2944 87.2653 90.9733 86.2872 90.2829 85.5817C88.7334 83.9862 86.9271 81.0679 85.755 77.7407C84.2858 73.5637 82.5758 75.1672 82.5758 75.1672C80.3681 73.259 77.5582 76.9711 71.7378 85.7901C67.3143 92.4926 61.0925 91.8192 58.3629 91.1136C57.5681 90.9132 56.8937 90.4402 56.3398 89.8389C54.7422 88.0991 52.8234 88.043 51.571 89.1093C48.7612 86.5277 48.0306 83.5212 48.151 80.8675C48.151 80.6831 48.1671 80.5067 48.1832 80.3303C48.3839 78.0133 49.2509 75.8166 50.6157 73.9646C51.2178 73.1468 51.9163 72.3932 52.695 71.7197C71.3444 55.645 82.2788 68.4486 82.2788 68.4486C82.2788 68.4486 88.8619 66.9414 92.3461 76.3617Z" fill="#3D3732"/>
<path d="M90.2825 85.5816C90.973 86.2872 91.2941 87.2653 91.1737 88.2354C91.0613 89.2536 90.9248 90.6406 90.8445 92.22C90.7723 93.5669 90.7482 95.0501 90.8044 96.5413C90.8847 98.5537 90.8927 101.704 90.0578 104.992C88.9338 109.425 86.2845 114.107 80.2152 116.569C79.2358 116.969 78.2001 117.186 77.1565 117.226C76.4259 117.25 75.6793 117.194 74.9568 117.042C70.9025 116.208 63.4524 113.362 59.3821 103.717C58.9566 102.707 58.5632 101.616 58.218 100.446C58.0735 99.9647 57.6079 99.6601 57.1101 99.7563C55.4001 100.077 51.5948 100.029 50.3665 93.6391C49.9731 91.5866 50.5511 89.9751 51.5707 89.1093C52.8231 88.043 54.7418 88.0991 56.3394 89.8388C56.8934 90.4401 57.5677 90.9132 58.3625 91.1136C61.0921 91.8191 67.3139 92.4926 71.7375 85.7901C77.5579 76.971 80.3678 73.259 82.5755 75.1671C82.5755 75.1671 84.2855 73.5637 85.7547 77.7407C86.9268 81.0679 88.7331 83.9862 90.2825 85.5816Z" fill="#FFD4C7"/>
<path d="M80.2154 116.568C86.2847 114.107 88.934 109.425 90.0579 104.991C89.6485 108.615 89.801 112.119 90.0419 114.652C90.3148 117.554 88.5888 120.296 85.8271 121.266C81.4999 122.79 77.3012 122.22 77.3012 122.22C76.9881 119.743 77.1567 117.362 77.1567 117.362V117.226C78.2003 117.186 79.236 116.969 80.2154 116.568Z" fill="#3D3732"/>
<path d="M80.4723 127.031L88.1874 130.575C94.6099 133.525 99.5473 138.961 101.867 145.623L113.027 177.605C114.512 181.87 115.523 186.279 116.037 190.761C116.976 198.963 118.181 212.312 117.105 219.936C116.864 221.596 115.467 222.83 113.797 222.838H113.741L114.231 221.876C114.977 220.401 114.737 218.605 113.613 217.395C112.481 216.176 110.554 214.965 107.335 214.773C111.028 199.412 108.129 189.037 104.051 182.367C100.615 176.755 96.352 173.772 94.4654 172.642C93.9837 172.353 93.8713 171.712 94.2406 171.287C102.831 161.281 94.0319 150.362 89.512 144.477C88.7734 143.523 88.1553 142.705 87.7378 142.04C85.2411 138.087 81.508 130.439 80.1913 127.689C80.1833 127.641 80.1753 127.625 80.1753 127.625C80.1753 127.625 80.1699 127.622 80.1592 127.617C80.1271 127.552 80.095 127.496 80.0709 127.44C79.9505 127.184 80.2154 126.911 80.4803 127.031H80.4723Z" fill="#ED847E"/>
<path d="M71.8909 179.28C74.3796 178.823 76.0976 178.005 77.0369 177.748C77.8959 177.524 78.8272 177.949 79.1403 178.783L79.1564 178.815C79.4454 179.624 79.0921 180.522 78.3214 180.899C74.2913 182.887 64.0152 186.134 64.0152 186.134C69.8276 185.854 74.6927 184.539 77.2778 183.769C77.4223 183.729 77.5748 183.705 77.7193 183.705C78.4017 183.705 79.0199 184.146 79.2286 184.828C79.4614 185.613 79.068 186.447 78.3054 186.744C73.93 188.476 63.2124 190.817 63.2124 190.817C68.2621 191.033 72.5973 189.895 74.5642 189.261C74.6927 189.221 74.8211 189.197 74.9496 189.197C75.4554 189.197 75.929 189.526 76.1056 190.031C76.3304 190.664 76.0093 191.354 75.3831 191.594C72.1879 192.797 63.108 196.116 60.3463 196.076C59.6399 196.068 58.4999 196.06 57.1431 196.06C52.0452 196.044 43.8725 196.076 43.8725 196.076C43.8404 190.752 42.9011 186.351 42.1465 183.673C42.1465 183.673 43.9047 183.93 47.7903 180.258C51.427 176.81 51.9489 176.538 56.4848 175.303C56.7818 175.223 57.0949 175.135 57.4241 175.046C61.9359 173.82 63.7583 172.409 64.24 173.828C64.4728 174.525 64.1999 175.279 63.6459 175.76C63.1642 176.177 62.4256 176.73 61.4462 177.283C61.8797 177.235 70.1407 176.401 74.4438 175.183C75.0459 175.014 75.7123 175.135 76.1458 175.592C76.4749 175.928 76.6676 176.433 76.3144 177.131C76.1056 177.532 75.7283 177.828 75.2868 177.957C74.6847 178.133 73.4724 178.662 71.8909 179.28Z" fill="#FFD4C7"/>
<path d="M77.158 117.361C77.158 117.361 76.9895 119.742 77.3026 122.22C77.6076 124.617 78.3623 127.11 80.1526 127.615C80.1606 127.64 80.1686 127.656 80.1847 127.68C80.3773 128.626 82.4727 139.954 70.7837 140.002C61.0616 140.042 54.623 129.588 52.4152 125.363C51.8613 124.288 51.5723 123.615 51.5723 123.615C52.8327 122.781 53.8844 121.795 54.7755 120.729C60.4033 113.986 59.3837 103.716 59.3837 103.716C63.454 113.361 70.9041 116.207 74.9583 117.041C75.6809 117.193 76.4275 117.249 77.158 117.225V117.361Z" fill="#FFD4C7"/>
<path d="M63.2113 190.817C63.2113 190.817 73.9289 188.476 78.3043 186.744C79.0669 186.447 79.4603 185.614 79.2275 184.828C79.0188 184.146 78.4006 183.705 77.7182 183.705C77.5737 183.705 77.4212 183.729 77.2766 183.77C74.6916 184.539 69.8265 185.854 64.0141 186.135C64.0141 186.135 74.2902 182.888 78.3203 180.899C79.091 180.523 79.4443 179.625 79.1552 178.815L79.1392 178.783C78.8261 177.949 77.8948 177.524 77.0358 177.749C76.0965 178.005 74.3785 178.823 71.8897 179.28C73.4713 178.662 74.6836 178.133 75.2857 177.957C75.7272 177.829 76.1045 177.532 76.3133 177.131C76.6665 176.434 76.4738 175.929 76.1447 175.592C75.7112 175.135 75.0448 175.015 74.4427 175.183C70.1396 176.402 61.8786 177.235 61.4451 177.284C62.4245 176.73 63.1631 176.177 63.6448 175.76C64.1988 175.279 64.4717 174.526 64.2389 173.828C63.7572 172.409 61.9348 173.82 57.423 175.047C57.0938 175.135 56.7807 175.223 56.4837 175.295C58.7235 143.587 54.7014 130.27 52.3652 125.387L52.4134 125.363C54.6211 129.588 61.0597 140.043 70.7819 140.003C82.4709 139.955 80.3755 128.626 80.1828 127.688C81.4995 130.438 85.2326 138.087 87.7293 142.039C88.1468 142.705 88.765 143.523 89.5036 144.477C94.0234 150.361 102.822 161.281 94.2322 171.287C93.8629 171.711 93.9752 172.353 94.4569 172.641C96.3436 173.772 100.607 176.754 104.043 182.367C108.121 189.037 111.019 199.411 107.326 214.773C107.214 215.27 107.085 215.775 106.949 216.288C106.282 218.837 105.279 221.299 104.027 223.616L103.842 223.952C103.505 224.586 102.67 224.738 102.132 224.265C101.056 223.311 99.2578 221.956 97.4274 221.579C95.3802 221.162 92.5944 219.198 91.1172 218.076C90.8443 217.867 90.5151 217.763 90.194 217.763C89.8167 217.763 89.4393 217.899 89.1503 218.18C88.5081 218.797 88.5321 219.831 89.2065 220.417L94.8583 225.299C95.3079 225.684 94.9547 226.414 94.3686 226.309L93.3892 226.125C91.4464 225.772 89.5598 225.131 87.8016 224.225L80.4237 220.441C80.1989 220.329 79.9581 220.272 79.7172 220.272C79.2676 220.272 78.8181 220.465 78.513 220.826C77.943 221.507 78.0554 222.533 78.7699 223.07L81.7885 225.355C83.4423 226.606 85.2567 227.632 87.1914 228.41L89.6481 229.396L84.0123 228.073C83.2255 227.889 82.4709 227.592 81.7644 227.199L76.1848 224.057C75.952 223.928 75.6951 223.864 75.4462 223.864C74.9244 223.864 74.4267 224.129 74.1376 224.602C73.7202 225.299 73.9209 226.197 74.5952 226.646L77.1161 228.33C78.1758 229.043 79.3158 229.629 80.504 230.07L85.634 232.002L80.4638 231.048C79.7654 230.919 79.075 230.743 78.4006 230.519L75.4382 229.548C75.3017 229.5 75.1572 229.484 75.0207 229.484C74.4106 229.484 73.8486 229.893 73.6961 230.511C73.5195 231.192 73.8968 231.882 74.5471 232.122L79.9821 234.078C80.0383 234.102 80.0945 234.118 80.1507 234.126L85.1844 235.209L78.0152 234.415C77.9671 234.407 77.9189 234.407 77.8788 234.407C77.1803 234.407 76.5943 234.96 76.5782 235.674C76.5621 236.307 77.0037 236.852 77.6219 236.973L86.2762 238.664C88.3555 239.065 90.475 239.129 92.5703 238.841C93.4053 238.728 94.3445 238.592 95.324 238.448C97.5478 238.119 99.6993 237.462 101.69 236.508C101.69 236.508 95.902 255.348 98.182 273.997H54.7095C55.2955 269.066 58.4024 242.609 58.8921 231.97C59.43 220.208 57.142 196.076 57.142 196.076V196.06C58.4988 196.06 59.6388 196.068 60.3452 196.076C63.1069 196.116 72.1868 192.797 75.382 191.594C76.0082 191.354 76.3293 190.664 76.1045 190.031C75.9279 189.526 75.4543 189.197 74.9485 189.197C74.82 189.197 74.6916 189.221 74.5631 189.261C72.5962 189.895 68.261 191.033 63.2113 190.817Z" fill="#FFC17D"/>
<path d="M54.1331 246.931C54.1893 245.777 53.6434 244.798 52.9048 244.758C52.1662 244.726 51.524 245.632 51.4597 246.795C51.3955 247.957 51.9495 248.927 52.6881 248.967C53.4266 249.008 54.0689 248.094 54.1331 246.931ZM54.1331 209.554C54.1331 208.392 53.531 207.454 52.7924 207.454C52.0538 207.454 51.4597 208.392 51.4597 209.554C51.4597 210.717 52.0538 211.663 52.7924 211.663C53.531 211.663 54.1331 210.717 54.1331 209.554ZM53.234 229.558C53.9806 229.558 54.5747 228.611 54.5747 227.457C54.5747 226.302 53.9806 225.348 53.234 225.348C52.4874 225.348 51.9013 226.294 51.9013 227.457C51.9013 228.62 52.4954 229.558 53.234 229.558ZM51.4919 265.74C51.5481 264.577 51.0021 263.607 50.2635 263.567C49.525 263.535 48.8827 264.441 48.8185 265.603C48.7542 266.766 49.3082 267.736 50.0468 267.776C50.7854 267.808 51.4276 266.902 51.4919 265.74ZM54.7112 273.998H25.5368C25.3441 270.133 24.8544 252.76 29.5268 231.506C34.0627 210.885 35.869 202.443 35.869 202.443L37.7797 201.89L42.5083 200.519C43.2309 200.31 43.7527 199.669 43.8009 198.923C43.8571 197.953 43.8811 196.999 43.8731 196.077C43.8731 196.077 52.0458 196.045 57.1437 196.061V196.077C57.1437 196.077 59.4317 220.209 58.8938 231.971C58.4041 242.61 55.2972 269.067 54.7112 273.998Z" fill="#ED847E"/>
<path d="M50.9285 157.224C51.6591 157.096 52.0926 156.07 51.8999 154.923C51.6992 153.777 50.9526 152.951 50.222 153.071C49.4995 153.192 49.066 154.226 49.2587 155.372C49.4513 156.519 50.206 157.345 50.9285 157.224ZM51.924 173.235C52.6465 173.115 53.0801 172.088 52.8874 170.942C52.6947 169.796 51.9401 168.962 51.2175 169.09C50.487 169.21 50.0534 170.244 50.2461 171.391C50.4468 172.529 51.1934 173.363 51.924 173.235ZM36.9193 166.821L29.5254 182.278C31.8054 181.902 33.9088 181.621 35.683 181.405L35.8677 183.008C35.8677 183.008 37.955 190.176 37.2565 200.093L37.7784 201.889L35.8677 202.442L15.436 208.367C6.46047 210.965 -1.60785 202.153 1.7961 193.455L21.4491 143.298C25.5755 132.771 35.0327 125.259 46.224 123.616L50.3344 123.014C50.6796 122.966 51.0168 123.103 51.2175 123.383C51.4905 123.76 51.8919 124.401 52.3656 125.388C54.7018 130.27 58.7239 143.587 56.484 175.295C51.9481 176.538 51.4263 176.811 47.7895 180.258C43.9039 183.93 42.1457 183.674 42.1457 183.674C41.9851 183.096 41.8406 182.607 41.7041 182.198C41.4472 181.405 40.6765 180.9 39.8416 180.972C39.2074 181.028 38.3805 181.108 37.385 181.212C37.385 181.212 38.0915 172.353 36.9193 166.821Z" fill="#ED847E"/>
<path d="M53.2331 225.349C53.9797 225.349 54.5738 226.295 54.5738 227.457C54.5738 228.62 53.9797 229.558 53.2331 229.558C52.4865 229.558 51.9004 228.612 51.9004 227.457C51.9004 226.303 52.4945 225.349 53.2331 225.349Z" fill="#A8A8A8"/>
<path d="M52.9033 244.758C53.6419 244.798 54.1878 245.776 54.1316 246.93C54.0673 248.093 53.4251 249.007 52.6865 248.967C51.9479 248.927 51.394 247.957 51.4582 246.794C51.5224 245.632 52.1647 244.726 52.9033 244.758Z" fill="#A8A8A8"/>
<path d="M52.7917 207.452C53.5303 207.452 54.1324 208.39 54.1324 209.553C54.1324 210.715 53.5303 211.661 52.7917 211.661C52.0531 211.661 51.459 210.715 51.459 209.553C51.459 208.39 52.0531 207.452 52.7917 207.452Z" fill="#A8A8A8"/>
<path d="M52.8882 170.942C53.0809 172.089 52.6473 173.115 51.9248 173.235C51.1942 173.363 50.4476 172.53 50.2469 171.391C50.0542 170.245 50.4878 169.21 51.2183 169.09C51.9409 168.962 52.6955 169.796 52.8882 170.942Z" fill="#A8A8A8"/>
<path d="M51.8999 154.924C52.0926 156.071 51.6591 157.097 50.9285 157.225C50.206 157.345 49.4513 156.52 49.2587 155.373C49.066 154.227 49.4995 153.192 50.222 153.072C50.9526 152.952 51.6992 153.778 51.8999 154.924Z" fill="#A8A8A8"/>
<path d="M50.2626 263.567C51.0012 263.607 51.5471 264.577 51.4909 265.74C51.4267 266.902 50.7845 267.808 50.0459 267.776C49.3073 267.736 48.7533 266.766 48.8176 265.604C48.8818 264.441 49.524 263.535 50.2626 263.567Z" fill="#A8A8A8"/>
<path d="M48.1515 80.8682C48.0311 83.5219 48.7616 86.5284 51.5715 89.11C50.5519 89.9759 49.9739 91.5873 50.3673 93.6398C51.5956 100.03 55.4009 100.078 57.1109 99.757C57.6087 99.6608 58.0743 99.9654 58.2188 100.446C58.564 101.617 58.9574 102.707 59.3829 103.718C59.3829 103.718 60.4025 113.988 54.7747 120.73C51.5795 120.923 49.0988 120.594 47.1801 120.041C43.7521 119.039 41.8895 115.343 42.9974 111.943C43.1981 111.326 43.3988 110.628 43.5915 109.867C44.2498 107.149 44.7476 103.533 44.5469 99.0194C43.9287 85.1895 48.1435 80.8682 48.1435 80.8682H48.1515Z" fill="#3D3732"/>
<path d="M43.8723 196.076C43.8723 196.998 43.8563 197.952 43.8001 198.922C43.7519 199.668 43.2301 200.309 42.5075 200.518L37.7789 201.889L37.2571 200.093C37.9556 190.176 35.8682 183.008 35.8682 183.008L35.6836 181.405C36.2937 181.332 36.8637 181.268 37.3856 181.212C38.3811 181.108 39.208 181.028 39.8422 180.972C40.6771 180.9 41.4478 181.405 41.7047 182.198C41.8412 182.607 41.9857 183.096 42.1463 183.674C42.9009 186.351 43.8402 190.753 43.8723 196.076Z" fill="#ED847E"/>
<path d="M38.0918 111.919C44.5384 101.633 38.0757 97.4476 40.3317 85.8866C42.6357 74.0611 50.6158 73.9648 50.6158 73.9648C49.251 75.8168 48.3839 78.0136 48.1832 80.3306C48.1672 80.507 48.1511 80.6834 48.1511 80.8678H48.1431C48.1431 80.8678 43.9283 85.1891 44.5465 99.019C44.7472 103.533 44.2494 107.149 43.5911 109.866C42.1862 112.183 39.8018 112.616 38.5093 112.664C38.1239 112.681 37.8911 112.248 38.0998 111.919H38.0918Z" fill="#3D3732"/>
<path d="M51.5707 89.1093C52.8231 88.043 54.7418 88.0991 56.3394 89.8388C56.8934 90.4401 57.5677 90.9132 58.3625 91.1136C61.0921 91.8191 67.3139 92.4926 71.7375 85.7901C77.5579 76.971 80.3677 73.259 82.5755 75.1671C82.5755 75.1671 84.2855 73.5637 85.7547 77.7407C86.9268 81.0679 88.7331 83.9862 90.2825 85.5816C90.973 86.2872 91.2941 87.2653 91.1737 88.2354C91.0613 89.2536 90.9248 90.6406 90.8445 92.22C90.7723 93.5669 90.7482 95.0501 90.8044 96.5413C90.8847 98.5537 90.8927 101.704 90.0578 104.992C88.9338 109.425 86.2845 114.107 80.2152 116.569C79.2358 116.969 78.2001 117.186 77.1565 117.226C76.4259 117.25 75.6793 117.194 74.9568 117.042C70.9025 116.208 63.4524 113.362 59.3821 103.717C58.9566 102.707 58.5632 101.616 58.218 100.446C58.0735 99.9647 57.6079 99.6601 57.1101 99.7563C55.4001 100.077 51.5948 100.029 50.3665 93.6391C49.9731 91.5866 50.5511 89.9751 51.5707 89.1093Z" stroke="black" stroke-width="0.75" stroke-linecap="round" stroke-linejoin="round"/>
<path d="M80.1847 127.688C80.3773 128.626 82.4727 139.954 70.7837 140.002C61.0616 140.042 54.623 129.588 52.4152 125.363C51.8613 124.288 51.5723 123.615 51.5723 123.615C52.8327 122.781 53.8844 121.795 54.7755 120.729C60.4033 113.986 59.3837 103.716 59.3837 103.716" stroke="black" stroke-width="0.75" stroke-linecap="round" stroke-linejoin="round"/>
<path d="M77.1567 117.362C77.1567 117.362 76.9881 119.743 77.3012 122.221C77.6062 124.618 78.3609 127.111 80.1512 127.616C80.1512 127.616 80.1565 127.619 80.1672 127.624C80.1672 127.624 80.1672 127.641 80.1833 127.681" stroke="black" stroke-width="0.75" stroke-linecap="round" stroke-linejoin="round"/>
<path d="M51.571 89.1093C48.7612 86.5277 48.0306 83.5212 48.151 80.8675C48.151 80.6831 48.1671 80.5067 48.1832 80.3303C48.3839 78.0133 49.2509 75.8166 50.6157 73.9646C51.2178 73.1468 51.9163 72.3932 52.695 71.7197C71.3444 55.645 82.2788 68.4486 82.2788 68.4486C82.2788 68.4486 88.8619 66.9414 92.3461 76.3617C95.8223 85.7901 90.8449 92.22 90.8449 92.22" stroke="black" stroke-width="0.75" stroke-linecap="round" stroke-linejoin="round"/>
<path d="M48.1435 80.8682C48.1435 80.8682 43.9287 85.1895 44.5469 99.0194C44.7476 103.533 44.2498 107.149 43.5915 109.867C43.3988 110.628 43.1981 111.326 42.9974 111.943C41.8895 115.343 43.7521 119.039 47.1801 120.041C49.0988 120.594 51.5795 120.923 54.7747 120.73" stroke="black" stroke-width="0.75" stroke-linecap="round" stroke-linejoin="round"/>
<path d="M43.5833 109.867C42.1784 112.184 39.794 112.617 38.5015 112.665C38.1161 112.681 37.8833 112.248 38.092 111.919C44.5386 101.633 38.076 97.448 40.3319 85.887C42.636 74.0615 50.616 73.9653 50.616 73.9653C50.616 73.9653 45.1086 70.4216 39.6254 78.7757" stroke="black" stroke-width="0.75" stroke-linecap="round" stroke-linejoin="round"/>
<path d="M77.3008 122.22C77.3008 122.22 81.4995 122.79 85.8267 121.266C88.5884 120.296 90.3144 117.554 90.0415 114.652C89.8006 112.119 89.6481 108.615 90.0575 104.991" stroke="black" stroke-width="0.75" stroke-linecap="round" stroke-linejoin="round"/>
<path d="M56.4844 175.295C56.7814 175.223 57.0945 175.135 57.4237 175.046C61.9355 173.82 63.7579 172.409 64.2396 173.828C64.4724 174.525 64.1995 175.279 63.6455 175.76C63.1638 176.177 62.4252 176.73 61.4458 177.283C60.2817 177.933 58.7644 178.582 56.8858 178.991" stroke="black" stroke-width="0.75" stroke-linecap="round" stroke-linejoin="round"/>
<path d="M42.1465 183.674C42.1465 183.674 43.9047 183.93 47.7903 180.258C51.4271 176.811 51.9489 176.538 56.4848 175.304" stroke="black" stroke-width="0.75" stroke-linecap="round" stroke-linejoin="round"/>
<path d="M71.875 179.28C69.7074 180.122 66.8493 181.124 63.8789 181.629" stroke="black" stroke-width="0.75" stroke-linecap="round" stroke-linejoin="round"/>
<path d="M61.4297 177.283H61.4457C61.8793 177.235 70.1403 176.401 74.4434 175.183C75.0455 175.014 75.7118 175.135 76.1453 175.592C76.4745 175.928 76.6672 176.434 76.3139 177.131C76.1052 177.532 75.7279 177.829 75.2863 177.957C74.6842 178.133 73.4719 178.662 71.8904 179.28" stroke="black" stroke-width="0.75" stroke-linecap="round" stroke-linejoin="round"/>
<path d="M43.8711 196.076C43.8711 196.076 52.0438 196.044 57.1417 196.06C58.4984 196.06 59.6384 196.068 60.3449 196.076C63.1066 196.116 72.1865 192.797 75.3817 191.594C76.0079 191.353 76.329 190.664 76.1042 190.031C75.9276 189.525 75.4539 189.197 74.9481 189.197C74.8197 189.197 74.6912 189.221 74.5628 189.261C72.5959 189.894 68.2607 191.033 63.211 190.816C63.211 190.816 73.9286 188.475 78.3039 186.743C79.0666 186.447 79.46 185.613 79.2272 184.827C79.0184 184.146 78.4003 183.705 77.7179 183.705C77.5734 183.705 77.4208 183.729 77.2763 183.769C74.6912 184.539 69.8262 185.854 64.0138 186.134C64.0138 186.134 74.2898 182.887 78.32 180.899C79.0907 180.522 79.4439 179.624 79.1549 178.814L79.1388 178.782C78.8258 177.948 77.8945 177.523 77.0355 177.748C76.0962 178.005 74.3781 178.822 71.8894 179.279H71.8734" stroke="black" stroke-width="0.75" stroke-linecap="round" stroke-linejoin="round"/>
<path d="M56.484 175.303C58.7239 143.587 54.7018 130.27 52.3656 125.388C51.8919 124.401 51.4905 123.76 51.2175 123.383C51.0168 123.103 50.6796 122.966 50.3344 123.014L46.224 123.616C35.0327 125.259 25.5755 132.771 21.4491 143.298L1.7961 193.455C-1.60785 202.153 6.46047 210.964 15.436 208.367L35.8677 202.442L37.7784 201.889L42.507 200.518C43.2295 200.309 43.7513 199.668 43.7995 198.922C43.8557 197.952 43.8798 196.998 43.8717 196.076C43.8396 190.753 42.9003 186.351 42.1457 183.674C41.9851 183.096 41.8406 182.607 41.7041 182.198C41.4472 181.405 40.6765 180.9 39.8416 180.972C39.2074 181.028 38.3805 181.108 37.385 181.212C36.8632 181.268 36.2932 181.332 35.683 181.405C33.9088 181.621 31.8054 181.902 29.5254 182.278C28.2248 182.487 26.8601 182.735 25.4631 183.008C19.4982 184.179 12.9713 185.942 8.05005 188.54" stroke="black" stroke-width="0.75" stroke-linecap="round" stroke-linejoin="round"/>
<path d="M38.2841 163.959L36.9193 166.821L29.5254 182.279" stroke="black" stroke-width="0.75" stroke-linecap="round" stroke-linejoin="round"/>
<path d="M37.3856 181.212C37.3856 181.212 38.092 172.353 36.9199 166.821" stroke="black" stroke-width="0.75" stroke-linecap="round" stroke-linejoin="round"/>
<path d="M53.0723 75.2309C53.0723 75.2309 59.6313 76.9707 64.7773 71.8877" stroke="black" stroke-width="0.75" stroke-linecap="round" stroke-linejoin="round"/>
<path d="M51.9316 79.7052C51.9316 79.7052 58.9563 84.6358 64.7767 80.8677C70.5971 77.0995 73.2946 70.3569 77.3007 71.0224" stroke="black" stroke-width="0.75" stroke-linecap="round" stroke-linejoin="round"/>
<path d="M51.1697 100.83C51.1697 100.83 51.3704 110.94 47.252 115.55" stroke="black" stroke-width="0.75" stroke-linecap="round" stroke-linejoin="round"/>
<path d="M84.9928 113.66C84.9928 113.66 84.5352 116.354 85.5387 118.358" stroke="black" stroke-width="0.75" stroke-linecap="round" stroke-linejoin="round"/>
<path d="M107.334 214.773C110.553 214.965 112.48 216.176 113.612 217.395C114.736 218.605 114.977 220.401 114.23 221.876L113.74 222.838M113.74 222.838L111.781 226.711C111.147 227.969 110.385 229.156 109.517 230.254C108.562 231.465 107.494 232.563 106.322 233.533C105.351 234.351 104.307 235.081 103.207 235.714C102.71 235.995 102.212 236.267 101.69 236.508C99.699 237.462 97.5475 238.119 95.3237 238.448C94.3443 238.592 93.405 238.729 92.57 238.841C90.4747 239.13 88.3552 239.065 86.2759 238.665L77.6216 236.973C77.0034 236.853 76.5618 236.307 76.5779 235.674C76.594 234.961 77.18 234.407 77.8785 234.407C77.9186 234.407 77.9668 234.407 78.0149 234.415L85.1841 235.209L80.1504 234.127C80.0942 234.119 80.038 234.103 79.9819 234.079L74.5468 232.122C73.8965 231.882 73.5192 231.192 73.6958 230.511C73.8483 229.894 74.4103 229.485 75.0204 229.485C75.1569 229.485 75.3014 229.501 75.4379 229.549L78.4003 230.519C79.0747 230.743 79.7651 230.92 80.4635 231.048L85.6337 232.002L80.5037 230.07C79.3155 229.629 78.1755 229.044 77.1158 228.33L74.595 226.647C73.9206 226.198 73.7199 225.3 74.1373 224.602C74.4264 224.129 74.9241 223.865 75.4459 223.865C75.6948 223.865 75.9517 223.929 76.1845 224.057L81.7641 227.2C82.4706 227.593 83.2252 227.889 84.012 228.074L89.6478 229.397L87.1911 228.41C85.2564 227.633 83.442 226.606 81.7882 225.356L78.7696 223.071C78.0551 222.534 77.9427 221.507 78.5127 220.826C78.8178 220.465 79.2673 220.273 79.7169 220.273C79.9578 220.273 80.1986 220.329 80.4234 220.441L87.8013 224.225C89.5595 225.131 91.4461 225.773 93.3889 226.125L94.3683 226.31C94.9544 226.414 95.3076 225.684 94.8581 225.3L89.2062 220.417C88.5319 219.832 88.5078 218.798 89.15 218.18C89.439 217.9 89.8164 217.763 90.1937 217.763C90.5148 217.763 90.844 217.868 91.1169 218.076C92.5941 219.198 95.3799 221.163 97.4271 221.58C99.2575 221.956 101.056 223.311 102.132 224.265C102.669 224.738 103.504 224.586 103.842 223.953L104.026 223.616C105.279 221.299 106.282 218.838 106.948 216.288C107.085 215.775 107.213 215.27 107.326 214.773C111.019 199.412 108.121 189.037 104.042 182.367C100.606 176.755 96.3433 173.772 94.4566 172.642C93.975 172.353 93.8626 171.712 94.2319 171.287C102.822 161.281 94.0231 150.362 89.5033 144.477C88.7647 143.523 88.1465 142.705 87.729 142.04C85.2323 138.087 81.4992 130.439 80.1826 127.689C80.1826 127.689 80.1585 127.641 80.1504 127.617C80.1183 127.552 80.0862 127.496 80.0621 127.44C79.9417 127.184 80.2066 126.911 80.4716 127.031L88.1866 130.575C94.6092 133.525 99.5465 138.961 101.867 145.623L113.026 177.605C114.511 181.87 115.523 186.279 116.036 190.761C116.976 198.963 118.18 212.312 117.104 219.936C116.863 221.596 115.466 222.83 113.797 222.838H113.74Z" stroke="black" stroke-width="0.75" stroke-linecap="round" stroke-linejoin="round"/>
<path d="M57.1435 196.076C57.1435 196.076 59.4315 220.208 58.8936 231.97C58.4039 242.609 55.297 269.066 54.7109 273.997" stroke="black" stroke-width="0.75" stroke-linecap="round" stroke-linejoin="round"/>
<path d="M35.869 202.441C35.869 202.441 34.0627 210.884 29.5268 231.504C24.8544 252.758 25.3441 270.132 25.5368 273.996" stroke="black" stroke-width="0.75" stroke-linecap="round" stroke-linejoin="round"/>
<path d="M68.8789 250.483C68.8789 250.483 86.1314 251.405 97.3388 238.056" stroke="black" stroke-width="0.75" stroke-linecap="round" stroke-linejoin="round"/>
<path d="M101.691 236.509C101.691 236.509 95.9023 255.35 98.1823 273.998" stroke="black" stroke-width="0.75" stroke-linecap="round" stroke-linejoin="round"/>
<path d="M102.678 273.999C102.084 270.415 100.157 255.054 106.323 233.535" stroke="black" stroke-width="0.75" stroke-linecap="round" stroke-linejoin="round"/>
<path d="M79.8143 169.676C79.8143 169.676 77.8073 173.284 71.3848 174.013" stroke="black" stroke-width="0.75" stroke-linecap="round" stroke-linejoin="round"/>
<path d="M43.8711 126.534C43.8711 126.534 52.6941 134.287 54.6128 171.167" stroke="black" stroke-width="0.75" stroke-linecap="round" stroke-linejoin="round"/>
<path d="M85.5391 130.943C85.5391 130.943 86.1412 134.96 89.505 144.477" stroke="black" stroke-width="0.75" stroke-linecap="round" stroke-linejoin="round"/>
<path d="M54.6135 200.694C54.6135 200.694 59.9442 230.759 51.916 272.65" stroke="black" stroke-width="0.75" stroke-linecap="round" stroke-linejoin="round"/>
<path d="M35.8672 183.008C35.8672 183.008 37.9545 190.175 37.2561 200.093" stroke="black" stroke-width="0.75" stroke-linecap="round" stroke-linejoin="round"/>
<path d="M9.96875 183.009C9.96875 183.009 19.9478 180.027 25.4631 183.009" stroke="black" stroke-width="0.75" stroke-linecap="round" stroke-linejoin="round"/>
<path d="M40.3398 161.41C40.3398 161.41 44.4904 152.19 42.1462 140.564" stroke="black" stroke-width="0.75" stroke-linecap="round" stroke-linejoin="round"/>
<path d="M104.043 182.367C104.043 182.367 108.25 180.955 110.923 183.008" stroke="black" stroke-width="0.75" stroke-linecap="round" stroke-linejoin="round"/>
<path d="M51.8999 154.924C52.0926 156.071 51.6591 157.097 50.9285 157.225C50.206 157.345 49.4513 156.52 49.2587 155.373C49.066 154.227 49.4995 153.192 50.222 153.072C50.9526 152.952 51.6992 153.778 51.8999 154.924Z" stroke="black" stroke-width="0.75" stroke-linecap="round" stroke-linejoin="round"/>
<path d="M52.8882 170.942C53.0809 172.089 52.6473 173.115 51.9248 173.235C51.1942 173.363 50.4476 172.53 50.2469 171.391C50.0542 170.245 50.4878 169.21 51.2183 169.09C51.9409 168.962 52.6955 169.796 52.8882 170.942Z" stroke="black" stroke-width="0.75" stroke-linecap="round" stroke-linejoin="round"/>
<path d="M54.1324 209.553C54.1324 210.715 53.5303 211.661 52.7917 211.661C52.0531 211.661 51.459 210.715 51.459 209.553C51.459 208.39 52.0531 207.452 52.7917 207.452C53.5303 207.452 54.1324 208.39 54.1324 209.553Z" stroke="black" stroke-width="0.75" stroke-linecap="round" stroke-linejoin="round"/>
<path d="M54.5738 227.457C54.5738 228.612 53.9797 229.558 53.2331 229.558C52.4865 229.558 51.9004 228.612 51.9004 227.457C51.9004 226.303 52.4945 225.349 53.2331 225.349C53.9717 225.349 54.5738 226.295 54.5738 227.457Z" stroke="black" stroke-width="0.75" stroke-linecap="round" stroke-linejoin="round"/>
<path d="M54.1316 246.93C54.0673 248.093 53.4251 249.007 52.6865 248.967C51.9479 248.927 51.394 247.957 51.4582 246.794C51.5224 245.632 52.1647 244.726 52.9033 244.758C53.6419 244.798 54.1878 245.776 54.1316 246.93Z" stroke="black" stroke-width="0.75" stroke-linecap="round" stroke-linejoin="round"/>
<path d="M51.4909 265.74C51.4267 266.902 50.7845 267.808 50.0459 267.776C49.3073 267.736 48.7533 266.766 48.8176 265.604C48.8818 264.441 49.524 263.535 50.2626 263.567C51.0012 263.607 51.5471 264.577 51.4909 265.74Z" stroke="black" stroke-width="0.75" stroke-linecap="round" stroke-linejoin="round"/>
<path d="M55.2969 135.034C55.2969 135.034 62.2653 144.455 72.4531 143.404" stroke="black" stroke-width="0.75" stroke-linecap="round" stroke-linejoin="round"/>
<path d="M75.9688 142.899C75.9688 142.899 81.9899 141.2 82.2949 135.483" stroke="black" stroke-width="0.75" stroke-linecap="round" stroke-linejoin="round"/>
<path d="M72.1641 89.871C72.1641 89.871 75.9855 87.2413 78.6508 89.5663" stroke="black" stroke-width="0.75" stroke-linecap="round" stroke-linejoin="round"/>
<path d="M85.5703 89.7284C85.5703 89.7284 87.5774 87.9967 90.0661 90.3538" stroke="black" stroke-width="0.75" stroke-linecap="round" stroke-linejoin="round"/>
<path d="M83.1457 95.5566C83.242 96.6069 83.7719 97.7774 84.085 98.2825C84.4382 98.8518 84.3338 99.6054 83.8361 100.07C83.234 100.632 82.2786 100.712 80.9219 100.608" stroke="black" stroke-width="0.75" stroke-linecap="round" stroke-linejoin="round"/>
<path d="M73.166 103.693C73.166 103.693 79.4922 109.097 85.8184 104.287" stroke="black" stroke-width="0.75" stroke-linecap="round" stroke-linejoin="round"/>
<path d="M76.2413 95.1242C76.8665 95.1242 77.3733 94.6181 77.3733 93.9937C77.3733 93.3694 76.8665 92.8633 76.2413 92.8633C75.6162 92.8633 75.1094 93.3694 75.1094 93.9937C75.1094 94.6181 75.6162 95.1242 76.2413 95.1242Z" fill="black"/>
<path d="M86.9523 95.5568C87.5775 95.5568 88.0843 95.0507 88.0843 94.4263C88.0843 93.802 87.5775 93.2959 86.9523 93.2959C86.3271 93.2959 85.8203 93.802 85.8203 94.4263C85.8203 95.0507 86.3271 95.5568 86.9523 95.5568Z" fill="black"/>
<path d="M70.3814 103.374C72.3588 103.374 73.9619 101.773 73.9619 99.7984C73.9619 97.8236 72.3588 96.2227 70.3814 96.2227C68.4039 96.2227 66.8008 97.8236 66.8008 99.7984C66.8008 101.773 68.4039 103.374 70.3814 103.374Z" fill="#F4A9A2"/>
<mask id="mask0_905_14043" style="mask-type:luminance" maskUnits="userSpaceOnUse" x="49" y="74" width="42" height="44">
<path d="M89.9779 85.4869C90.6683 86.1924 90.9894 87.1706 90.869 88.1407C90.7566 89.1589 90.6201 90.5459 90.5398 92.1253C90.4676 93.4722 90.4435 94.9554 90.4997 96.4466C90.58 98.459 90.588 101.61 89.7531 104.897C88.6291 109.33 85.9798 114.013 79.9105 116.474C78.9311 116.875 77.8955 117.091 76.8518 117.131C76.1212 117.155 75.3746 117.099 74.6521 116.947C70.5978 116.113 63.1477 113.267 59.0774 103.622C58.6519 102.612 58.2585 101.522 57.9133 100.351C57.7688 99.87 57.3032 99.5653 56.8054 99.6616C55.0954 99.9823 51.2901 99.9341 50.0618 93.5443C49.6684 91.4919 50.2464 89.8804 51.266 89.0145C52.5184 87.9482 54.4371 88.0044 56.0347 89.7441C56.5887 90.3454 57.2631 90.8184 58.0578 91.0189C60.7874 91.7244 67.0093 92.3979 71.4328 85.6954C77.2532 76.8763 80.0631 73.1643 82.2708 75.0724C82.2708 75.0724 83.9808 73.4689 85.45 77.646C86.6221 80.9732 88.4284 83.8915 89.9779 85.4869Z" fill="white"/>
</mask>
<g mask="url(#mask0_905_14043)">
<path d="M89.4478 104.695C91.4252 104.695 93.0283 103.094 93.0283 101.12C93.0283 99.1449 91.4252 97.5439 89.4478 97.5439C87.4703 97.5439 85.8672 99.1449 85.8672 101.12C85.8672 103.094 87.4703 104.695 89.4478 104.695Z" fill="#F4A9A2"/>
</g>
<path d="M52.332 92.4369C52.332 92.4369 55.2382 91.547 56.7957 95.5476" stroke="black" stroke-width="0.75" stroke-linecap="round" stroke-linejoin="round"/>
<path d="M54.0924 95.2675C54.0924 95.2675 53.7713 93.7763 55.385 93.3193" stroke="black" stroke-width="0.75" stroke-linecap="round" stroke-linejoin="round"/>
<path d="M78.3691 108.425C78.3691 108.425 81.4118 109.259 82.7204 107.487" stroke="black" stroke-width="0.75" stroke-linecap="round" stroke-linejoin="round"/>
<path d="M86.9355 169.293C86.9355 169.293 88.7419 170.896 92.0896 171.458" stroke="black" stroke-width="0.75" stroke-linecap="round" stroke-linejoin="round"/>
<path d="M270.994 239.528C271.058 240.216 270.551 240.84 269.86 240.904L257.856 242.112L239.531 243.952C239.684 243.744 239.821 243.528 239.941 243.296C240.85 241.488 241.324 239.488 241.324 237.455V234.639C241.324 233.247 241.549 231.863 241.992 230.543L242.788 228.174L246.888 230.263C248.673 231.167 250.852 230.279 251.479 228.382L253.908 221.077L258.66 206.788C259.456 204.395 259.986 201.947 260.252 199.475H260.26L265.607 198.938C266.306 198.866 266.925 199.371 266.998 200.067L270.994 239.528Z" fill="#C4C4C4"/>
<path d="M257.857 242.111L264.49 273.595H218.925L213.803 246.528L219.544 245.952C219.688 246.104 219.865 246.224 220.082 246.304C220.235 246.36 220.388 246.384 220.541 246.384C220.959 246.384 221.369 246.192 221.634 245.848L221.715 245.736H221.723L224.641 245.44C224.786 246.336 225.51 247.08 226.483 247.2C228.597 247.464 232.256 247.36 237.643 245.36C238.407 245.072 239.05 244.584 239.532 243.952L257.857 242.111ZM223.274 270.931C223.274 270.075 222.575 269.379 221.715 269.379C220.854 269.379 220.163 270.075 220.163 270.931C220.163 271.787 220.854 272.475 221.715 272.475C222.575 272.475 223.274 271.787 223.274 270.931ZM220.058 252.249C220.058 251.393 219.359 250.696 218.506 250.696C217.654 250.696 216.947 251.393 216.947 252.249C216.947 253.105 217.646 253.793 218.506 253.793C219.367 253.793 220.058 253.097 220.058 252.249Z" fill="white"/>
<path d="M234.37 202.074L206.132 204.907L203.108 189.985C202.964 189.241 202.843 188.488 202.73 187.736L202.803 187.28C203.229 184.328 203.824 181.4 204.58 178.519L215.748 135.81C215.981 134.929 215.41 134.041 214.51 133.881L205.561 132.305C204.982 132.209 204.797 131.465 205.263 131.113L210.24 127.296C210.972 126.736 211.06 125.656 210.409 124.992L204.411 118.775L226.104 120.136C232.311 120.52 237.674 124.568 239.725 130.409L258.475 183.904C260.236 188.929 260.831 194.249 260.252 199.474C259.987 201.946 259.456 204.395 258.66 206.787L253.908 221.077L252.959 220.765L231.853 212.052L230.639 211.579L234.37 202.074ZM228.846 176.767L226.667 170.854L211.776 174.383C211.052 174.559 210.594 175.279 210.755 175.999L211.575 179.743C211.736 180.503 212.5 180.967 213.255 180.775L228.846 176.767ZM209.468 196.249C209.468 195.393 208.769 194.697 207.909 194.697C207.048 194.697 206.357 195.393 206.357 196.249C206.357 197.106 207.056 197.794 207.909 197.794C208.761 197.794 209.468 197.106 209.468 196.249Z" fill="white"/>
<path d="M253.909 221.076L251.481 228.381C250.854 230.278 248.675 231.166 246.89 230.262L242.789 228.173L232.441 222.909L229.868 221.596C228.373 220.828 227.697 219.068 228.308 217.508L230.64 211.579L231.854 212.051L252.961 220.764L253.909 221.076ZM234.001 216.828C234.001 215.972 233.302 215.284 232.441 215.284C231.581 215.284 230.889 215.972 230.889 216.828C230.889 217.684 231.581 218.38 232.441 218.38C233.302 218.38 234.001 217.684 234.001 216.828Z" fill="white"/>
<path d="M242.79 228.173L241.994 230.541C241.552 231.861 241.326 233.246 241.326 234.638V237.454C241.326 239.486 240.852 241.487 239.943 243.295C239.823 243.527 239.686 243.743 239.533 243.951C239.051 244.583 238.408 245.071 237.644 245.359C232.257 247.359 228.598 247.463 226.484 247.199C225.511 247.079 224.787 246.335 224.642 245.439C224.602 245.183 224.61 244.919 224.667 244.655L225.326 241.543C225.366 241.375 225.141 241.271 225.036 241.415L221.724 245.735H221.716L221.635 245.847C221.37 246.191 220.96 246.383 220.542 246.383C220.389 246.383 220.236 246.359 220.083 246.303C219.866 246.223 219.689 246.103 219.545 245.951C219.143 245.527 219.038 244.863 219.368 244.319L220.928 241.735L222.769 238.014C223.565 236.398 224.667 234.958 226.009 233.758L226.894 232.966C228.63 231.421 229.957 229.485 230.777 227.317L232.442 222.908L242.79 228.173Z" fill="#FFD4C7"/>
<path d="M234.371 202.073L230.64 211.578L228.308 217.507C227.697 219.067 228.373 220.828 229.868 221.596L232.441 222.908L230.777 227.317C229.957 229.485 228.63 231.421 226.893 232.965L226.009 233.757C224.666 234.958 223.565 236.398 222.769 238.014L220.927 241.734L219.367 244.319C219.038 244.863 219.142 245.527 219.544 245.951L213.803 246.527L210.378 246.871C209.687 246.943 209.068 246.439 208.995 245.743L207.701 232.949L209.124 232.805C209.799 232.741 210.298 232.133 210.225 231.461L209.019 219.716C208.947 219.035 208.344 218.547 207.66 218.611L206.261 218.755L204.999 206.282C204.927 205.594 205.433 204.97 206.133 204.906L234.371 202.073Z" fill="#C4C4C4"/>
<path d="M232.44 215.283C233.301 215.283 234 215.971 234 216.827C234 217.684 233.301 218.38 232.44 218.38C231.58 218.38 230.889 217.684 230.889 216.827C230.889 215.971 231.58 215.283 232.44 215.283Z" fill="white"/>
<path d="M226.667 170.854L228.846 176.766L213.255 180.775C212.5 180.967 211.736 180.503 211.575 179.743L210.755 175.998C210.594 175.278 211.052 174.558 211.776 174.382L226.667 170.854Z" fill="white"/>
<path d="M225.035 241.416C225.14 241.272 225.365 241.376 225.325 241.544L224.665 244.656C224.609 244.92 224.601 245.184 224.641 245.44L221.723 245.736L225.035 241.416Z" fill="#C4C4C4"/>
<path d="M221.714 269.378C222.574 269.378 223.274 270.074 223.274 270.93C223.274 271.786 222.574 272.474 221.714 272.474C220.854 272.474 220.162 271.786 220.162 270.93C220.162 270.074 220.854 269.378 221.714 269.378Z" fill="white"/>
<path d="M218.505 250.695C219.357 250.695 220.057 251.391 220.057 252.248C220.057 253.104 219.357 253.792 218.505 253.792C217.653 253.792 216.945 253.096 216.945 252.248C216.945 251.399 217.645 250.695 218.505 250.695Z" fill="white"/>
<path d="M213.803 246.526L218.925 273.593H198.888C198.317 269.273 196.066 250.278 193.461 228.06C193.71 228.1 199.25 228.916 204.895 228.068L205.297 231.956C205.369 232.636 205.98 233.124 206.655 233.06L207.701 232.948L208.995 245.742C209.068 246.438 209.687 246.942 210.378 246.87L213.803 246.526Z" fill="#7FBAA8"/>
<path d="M214.51 133.881C215.411 134.041 215.982 134.93 215.749 135.81L204.58 178.519C203.825 181.4 203.23 184.328 202.803 187.28L202.731 187.736C202.57 186.608 202.442 185.472 202.353 184.344L198.928 140.666L198.558 135.946L196.918 115.055C196.861 114.399 197.456 113.871 198.108 114.007L198.687 114.127C199.692 114.327 200.608 114.831 201.316 115.567L204.412 118.775L210.41 124.992C211.061 125.656 210.973 126.737 210.241 127.297L205.264 131.113C204.797 131.465 204.982 132.209 205.561 132.305L214.51 133.881Z" fill="white"/>
<path d="M210.226 231.462C210.298 232.134 209.8 232.742 209.124 232.806L207.701 232.95L207.162 227.637L206.262 218.756L207.661 218.612C208.344 218.548 208.947 219.036 209.02 219.716L210.226 231.462Z" fill="#FDBE6F"/>
<path d="M207.909 194.697C208.77 194.697 209.469 195.393 209.469 196.249C209.469 197.106 208.77 197.794 207.909 197.794C207.049 197.794 206.357 197.106 206.357 196.249C206.357 195.393 207.057 194.697 207.909 194.697Z" fill="white"/>
<path d="M207.613 107.197C208.088 107.229 208.297 107.797 207.967 108.133C206.729 109.39 204.14 111.438 200.763 110.942C199.758 110.798 198.72 111.07 198.045 111.822C197.209 112.766 195.874 113.398 193.398 111.982C193.398 111.974 193.39 111.974 193.39 111.974C192.529 110.878 191.589 109.422 190.68 107.485C190.366 105.389 189.964 103.165 189.49 100.829C189.795 100.468 190.037 100.068 190.206 99.6444C191.492 96.46 191.178 92.4434 187.906 91.7554C185.598 91.2673 184.642 92.5075 184.264 93.4356C183.942 94.2117 183.323 94.8358 182.567 95.1958C180.895 96.0039 178.105 96.74 175.998 94.3237C172.782 90.6192 171.479 93.4196 166.952 93.6196C162.426 93.8196 162.828 89.5231 159.515 86.8187C157.03 84.7945 155.471 86.8747 154.843 88.0429C154.626 88.4509 154.321 88.787 153.975 89.091C152.504 90.3792 152.705 93.3716 153.235 95.9639C153.702 98.2282 154.538 100.396 155.615 102.445C156.556 104.245 157.907 107.045 158.759 109.838C160.11 114.302 162.691 119.231 167.523 122.079C165.698 123.495 164.283 123.511 163.391 123.255C162.667 123.047 161.903 123.071 161.22 123.383C159.788 124.04 158.285 123.92 157.424 123.76C157.143 123.704 157.063 123.367 157.272 123.167C158.896 121.615 158.052 118.111 155.495 115.062C152.681 111.702 151.973 110.726 151.973 105.197C151.973 99.6684 147.856 100.22 147.551 94.2197C147.35 90.0671 149.786 88.0669 151.314 87.2348C151.997 86.8587 152.399 86.1306 152.399 85.3545C152.415 82.6822 153.268 76.9134 160.319 75.6173C169.566 73.921 166.277 69.4805 173.988 69.4805C179.045 69.4805 180.131 72.2168 184.658 73.313C189.176 74.4171 194.475 74.2171 196.501 80.5139C198.527 86.8187 198.56 88.0189 202.13 91.1233C207.613 95.8759 203.135 99.5244 202.837 103.525C202.612 106.421 205.828 107.061 207.613 107.197Z" fill="#51423E"/>
<path d="M207.162 227.636L207.701 232.948L206.655 233.06C205.98 233.124 205.369 232.636 205.297 231.956L204.895 228.068C205.65 227.956 206.414 227.812 207.162 227.636Z" fill="#FDBE6F"/>
<path d="M206.26 218.755L207.16 227.636C206.413 227.812 205.649 227.956 204.893 228.068L204.089 220.211C204.017 219.539 204.515 218.931 205.191 218.867L206.26 218.755Z" fill="#FDBE6F"/>
<path d="M202.731 187.736C202.843 188.488 202.964 189.24 203.109 189.984L206.132 204.906C205.432 204.97 204.926 205.594 204.998 206.283L206.26 218.756L205.191 218.868C204.516 218.932 204.017 219.54 204.09 220.212L204.894 228.069C199.249 228.917 193.709 228.101 193.46 228.061C192.6 220.732 191.699 213.051 190.807 205.426C200.616 188.008 194.521 162.021 192.479 154.644C193.01 154.34 193.291 153.708 193.122 153.092L191.233 146.203L191.185 146.027L192.728 145.611C192.728 145.611 196.178 144.282 198.743 140.682L198.936 140.666L202.361 184.344C202.449 185.472 202.578 186.608 202.739 187.736H202.731Z" fill="#97D1C1"/>
<path d="M198.558 135.944L198.928 140.665L198.735 140.681C196.17 144.281 192.721 145.61 192.721 145.61L191.177 146.026L190.381 143.121C190.871 143.081 191.354 142.921 191.788 142.681C193.774 141.585 197.577 139.113 198.558 135.944Z" fill="#97D1C1"/>
<path d="M198.888 273.595H179.157C179.157 273.595 178.763 233.893 179.076 217.075C184.391 214.163 188.162 210.098 190.799 205.426C191.692 213.051 192.592 220.732 193.453 228.061C196.058 250.28 198.309 269.274 198.88 273.595H198.888Z" fill="white"/>
<path d="M196.919 115.054L198.559 135.945C197.578 139.113 193.775 141.586 191.789 142.682C191.355 142.922 190.872 143.082 190.382 143.122L189.513 139.938C189.417 139.586 189.192 139.305 188.902 139.129C188.926 139.105 188.935 139.081 188.951 139.057C189.811 137.409 193.855 128.2 190.679 107.485C191.588 109.422 192.529 110.878 193.389 111.974C193.389 111.974 193.397 111.974 193.397 111.982C195.343 114.438 196.919 115.054 196.919 115.054Z" fill="#FFD4C7"/>
<path d="M192.471 154.645C192.375 154.709 192.262 154.757 192.142 154.789C191.402 154.989 190.63 154.557 190.429 153.82L188.314 146.107C189.151 146.403 189.987 146.531 190.711 146.347L191.225 146.203L193.115 153.092C193.283 153.708 193.002 154.34 192.471 154.645Z" fill="#939393"/>
<path d="M192.472 154.643C194.515 162.02 200.609 188.008 190.8 205.426C189.731 196.353 188.669 187.36 187.704 179.159C185.397 159.668 183.596 144.61 183.346 143.338C183.322 143.202 183.29 143.066 183.25 142.922H183.258C183.258 142.922 185.815 145.242 188.316 146.106L190.43 153.819C190.631 154.555 191.403 154.987 192.143 154.787C192.263 154.755 192.376 154.707 192.472 154.643Z" fill="#97D1C1"/>
<path d="M191.177 146.027L191.225 146.203L190.711 146.347C189.987 146.531 189.151 146.403 188.315 146.107L187.27 142.29C187.881 142.594 188.532 142.85 189.215 143.034C189.601 143.138 189.995 143.17 190.381 143.122L191.177 146.027Z" fill="#939393"/>
<path d="M190.678 107.485C193.854 128.2 189.81 137.409 188.949 139.057C188.933 139.081 188.925 139.105 188.901 139.129C188.684 138.985 188.435 138.913 188.169 138.913C188.049 138.913 187.928 138.929 187.807 138.961C187.381 139.073 187.06 139.377 186.899 139.753C184.824 138.897 182.959 137.921 181.287 136.865C180.483 135.697 180.064 134.841 180.064 134.841C180.064 134.841 180.225 134.697 180.434 134.393C183.265 136.505 185.492 137.409 186.545 137.761C186.923 137.881 187.333 137.721 187.518 137.369C190.903 130.648 190.622 120.031 189.609 111.51C190.083 109.821 190.268 108.053 190.155 106.293C190.324 106.709 190.501 107.109 190.678 107.485Z" fill="#B7B7B7"/>
<path d="M190.677 107.485C190.5 107.109 190.323 106.709 190.154 106.293H190.146C190.042 104.605 189.648 102.932 188.98 101.332C189.165 101.18 189.334 101.012 189.487 100.828C189.961 103.164 190.363 105.389 190.677 107.485Z" fill="#B7B7B7"/>
<path d="M189.513 139.937L190.381 143.121C189.995 143.169 189.601 143.137 189.215 143.033C188.532 142.849 187.881 142.593 187.269 142.289L186.827 140.665C186.739 140.353 186.771 140.025 186.9 139.753C186.924 139.761 186.94 139.769 186.964 139.777C187.149 139.849 187.358 139.857 187.551 139.785L188.516 139.433C188.677 139.377 188.813 139.273 188.902 139.129C189.191 139.305 189.416 139.585 189.513 139.937Z" fill="#939393"/>
<path d="M176.046 110.916C176.005 110.564 175.949 110.252 175.885 109.988C175.796 109.62 175.338 109.476 175.057 109.732C171.784 112.7 168.142 113.484 166.477 113.692C166.075 113.748 165.891 114.22 166.156 114.524C166.333 114.733 166.55 114.973 166.807 115.221C167.306 115.709 167.933 116.229 168.664 116.613C169.822 117.237 171.229 117.541 172.765 116.893C176.005 115.525 176.279 112.74 176.046 110.916ZM187.254 95.9941C186.579 96.4341 186.225 97.4023 186.426 98.4264C186.595 99.2745 187.101 99.9466 187.728 100.243C187.825 100.707 187.938 101.243 188.058 101.827C188.549 104.267 189.152 107.676 189.61 111.508C188.999 113.652 187.93 115.677 186.41 117.421C183.925 120.269 181.127 122.269 179.342 123.39C179.246 123.454 179.141 123.51 179.037 123.566C177.871 124.222 176.512 124.518 175.169 124.406C173.368 124.262 171.752 123.902 170.297 123.374C170.281 123.358 170.257 123.342 170.232 123.334L168.439 122.582L168.391 122.558C168.094 122.406 167.804 122.245 167.523 122.077C162.69 119.229 160.109 114.3 158.759 109.836C157.906 107.044 156.556 104.243 155.615 102.443C154.537 100.395 153.701 98.2264 153.235 95.9621C152.704 93.3697 152.503 90.3773 153.975 89.0892C154.32 88.7851 154.626 88.4491 154.843 88.041C155.47 86.8729 157.03 84.7926 159.514 86.8169C162.827 89.5212 162.425 93.8178 166.952 93.6178C171.479 93.4177 172.781 90.6174 175.997 94.3219C178.104 96.7382 180.894 96.0021 182.566 95.194C183.322 94.8339 183.941 94.2098 184.263 93.4337C184.641 92.5056 185.598 91.2655 187.905 91.7535C191.178 92.4416 191.491 96.4581 190.205 99.6426C190.036 100.067 189.795 100.467 189.489 100.827C189.441 100.587 189.385 100.339 189.337 100.091C189.964 99.6265 190.285 98.6984 190.092 97.7143C189.843 96.4341 188.814 95.57 187.801 95.762C187.6 95.8021 187.415 95.8821 187.254 95.9941ZM171.326 102.499C171.921 102.307 172.243 101.667 172.05 101.075C171.857 100.491 171.221 100.163 170.626 100.355C170.031 100.547 169.71 101.187 169.903 101.771C170.096 102.363 170.731 102.691 171.326 102.499ZM161.259 106.203C161.854 106.011 162.176 105.379 161.983 104.787C161.79 104.195 161.155 103.867 160.56 104.059C159.965 104.251 159.635 104.891 159.828 105.483C160.021 106.075 160.664 106.395 161.259 106.203Z" fill="#FFD4C7"/>
<path d="M190.157 106.293C190.27 108.053 190.085 109.821 189.61 111.509C189.152 107.677 188.549 104.268 188.059 101.828L188.235 101.796C188.509 101.676 188.758 101.508 188.983 101.332C189.651 102.932 190.045 104.604 190.149 106.285H190.157V106.293Z" fill="#B7B7B7"/>
<path d="M187.253 95.996C187.414 95.884 187.599 95.804 187.8 95.764C188.813 95.572 189.842 96.4361 190.092 97.7162C190.285 98.7004 189.963 99.6285 189.336 100.093C189.215 99.5485 189.103 98.9884 188.974 98.4283C188.878 98.0123 188.459 97.7322 188.041 97.8123C187.647 97.8843 187.382 98.2203 187.382 98.5964C187.382 98.6524 187.382 98.7164 187.398 98.7724C187.487 99.1484 187.599 99.6445 187.728 100.245C187.101 99.9485 186.594 99.2764 186.425 98.4283C186.224 97.4042 186.578 96.4361 187.253 95.996Z" fill="#E5E5E5"/>
<path d="M189.608 111.51C190.621 120.031 190.903 130.648 187.518 137.369C187.333 137.721 186.923 137.881 186.545 137.761C185.491 137.409 183.264 136.505 180.434 134.393C181.206 133.273 182.613 129.968 179.043 123.575C179.147 123.511 179.252 123.455 179.349 123.391C181.133 122.271 183.932 120.271 186.416 117.423C187.936 115.678 189.005 113.654 189.616 111.51H189.608Z" fill="#FFD4C7"/>
<path d="M189.487 100.829C189.335 101.013 189.166 101.181 188.981 101.333C188.756 101.509 188.506 101.677 188.233 101.797L188.056 101.829C187.936 101.245 187.823 100.709 187.727 100.245C188.032 100.389 188.37 100.437 188.708 100.373C188.941 100.333 189.15 100.237 189.335 100.093C189.383 100.341 189.439 100.589 189.487 100.829Z" fill="#B7B7B7"/>
<path d="M188.973 98.4276C189.102 98.9877 189.214 99.5477 189.335 100.092C189.15 100.236 188.941 100.332 188.708 100.372C188.37 100.436 188.032 100.388 187.727 100.244C187.598 99.6437 187.485 99.1477 187.397 98.7716C187.381 98.7156 187.381 98.6516 187.381 98.5956C187.381 98.2196 187.646 97.8835 188.04 97.8115C188.458 97.7315 188.876 98.0115 188.973 98.4276Z" fill="#E5E5E5"/>
<path d="M188.901 139.129C188.812 139.273 188.675 139.378 188.515 139.434L187.55 139.786C187.357 139.858 187.148 139.85 186.963 139.778C186.939 139.77 186.923 139.762 186.898 139.754C187.059 139.378 187.381 139.073 187.807 138.961C187.928 138.929 188.048 138.913 188.169 138.913C188.434 138.913 188.683 138.985 188.901 139.129Z" fill="#939393"/>
<path d="M187.27 142.29L188.315 146.107C185.815 145.243 183.258 142.922 183.258 142.922H183.25C182.808 141.106 181.642 138.546 180.572 136.394C180.805 136.562 181.047 136.714 181.288 136.866C182.47 138.562 184.48 140.922 187.27 142.29Z" fill="#97D1C1"/>
<path d="M187.695 179.158C188.66 187.36 189.722 196.353 190.791 205.426C188.154 210.098 184.383 214.163 179.068 217.075C179.084 216.283 179.1 215.539 179.116 214.851C179.14 213.987 179.148 213.043 179.148 212.051C179.124 204.794 178.449 194.464 177.709 185.183L176.72 185.263C172.483 183.071 167.626 184.359 167.626 184.359L166.557 184.199C166.629 183.679 166.661 183.159 166.645 182.631L165.471 151.723C165.286 146.882 167.562 142.282 171.51 139.465L177.532 135.177L174.734 144.178C174.437 145.154 175.088 146.17 176.101 146.306L179.542 146.762C180.049 146.826 180.298 147.41 180.001 147.818L176.415 152.835C176.061 153.331 176.004 153.987 176.278 154.531C178.256 158.452 186.152 174.222 187.687 179.158H187.695Z" fill="white"/>
<path d="M187.703 179.158C186.168 174.222 178.272 158.452 176.294 154.531C176.021 153.987 176.077 153.331 176.431 152.835L180.017 147.818C180.314 147.41 180.065 146.826 179.558 146.762L176.117 146.306C175.104 146.17 174.453 145.154 174.75 144.178L177.548 135.177L177.806 134.353C178.666 135.057 179.582 135.745 180.579 136.393C181.649 138.545 182.815 141.105 183.257 142.922C183.297 143.066 183.329 143.202 183.353 143.338C183.603 144.61 185.404 159.668 187.711 179.158H187.703Z" fill="white"/>
<path d="M186.827 140.666L187.269 142.29C184.479 140.922 182.469 138.561 181.287 136.865C182.96 137.921 184.825 138.897 186.899 139.754C186.771 140.026 186.739 140.354 186.827 140.666Z" fill="#FFD4C7"/>
<path d="M181.287 136.865C181.046 136.713 180.805 136.561 180.572 136.393C180.113 135.481 179.679 134.641 179.317 133.969C178.988 133.361 178.079 133.441 177.87 134.113L177.798 134.353C171.092 128.928 168.503 122.823 168.398 122.567L168.439 122.583C169.026 122.879 169.645 123.143 170.296 123.375C170.417 123.431 170.513 123.528 170.577 123.632C174.075 128.896 177.565 132.265 180.435 134.393C180.226 134.697 180.065 134.841 180.065 134.841C180.065 134.841 180.483 135.697 181.287 136.865Z" fill="#B7B7B7"/>
<path d="M179.317 133.969C179.678 134.641 180.113 135.482 180.571 136.394C179.574 135.746 178.657 135.057 177.797 134.353L177.869 134.113C178.078 133.441 178.987 133.361 179.317 133.969Z" fill="#B7B7B7"/>
<path d="M179.157 212.051H179.125L173.416 217.012L172.676 216.164C172.492 196.457 161.902 192.256 161.902 192.256L161.219 191.52L164.025 188.936C165.4 187.672 166.284 186 166.566 184.199L167.635 184.359C167.635 184.359 172.492 183.071 176.729 185.264L177.718 185.184C178.458 194.465 179.133 204.794 179.157 212.051Z" fill="white"/>
<path d="M176.045 110.918C176.278 112.742 176.005 115.527 172.764 116.895C171.229 117.543 169.821 117.239 168.664 116.623C168.639 116.535 168.897 115.599 170.272 114.446C171.984 113.846 174.099 112.79 176.045 110.918Z" fill="#CE6767"/>
<path d="M175.884 109.99C175.949 110.254 176.005 110.566 176.045 110.918C174.099 112.79 171.985 113.846 170.272 114.446C168.27 115.151 166.807 115.223 166.807 115.223C166.549 114.975 166.332 114.735 166.155 114.526C165.89 114.222 166.075 113.75 166.477 113.694C168.141 113.486 171.784 112.702 175.056 109.734C175.338 109.478 175.796 109.622 175.884 109.99Z" fill="white"/>
<path d="M172.677 216.164L173.417 217.012L169.429 220.476C169.372 220.524 169.316 220.572 169.252 220.62C167.716 220.924 166.164 221.132 164.596 221.244C163.961 220.972 163.374 220.556 162.9 220.004L160.021 216.652L160.479 216.764C161.862 217.124 163.294 216.212 163.479 214.796C164.315 208.283 160.857 202.33 159.257 199.978C158.807 199.314 158.059 198.913 157.247 198.913H155.004C155.004 197.857 155.446 196.841 156.234 196.121L161.219 191.521L161.903 192.257C161.903 192.257 172.492 196.457 172.677 216.164ZM162.835 196.249C162.835 195.393 162.144 194.697 161.284 194.697C160.423 194.697 159.724 195.393 159.724 196.249C159.724 197.105 160.423 197.793 161.284 197.793C162.144 197.793 162.835 197.105 162.835 196.249Z" fill="white"/>
<path d="M172.048 101.076C172.241 101.668 171.92 102.308 171.325 102.5C170.73 102.692 170.095 102.364 169.902 101.772C169.709 101.188 170.03 100.548 170.625 100.356C171.22 100.164 171.856 100.492 172.048 101.076Z" fill="black"/>
<path d="M170.231 123.337C170.231 123.337 170.279 123.361 170.295 123.377C169.644 123.145 169.024 122.88 168.438 122.584L170.231 123.337Z" fill="#FFD4C7"/>
<path d="M166.807 115.223C166.807 115.223 168.27 115.151 170.272 114.447C168.897 115.599 168.64 116.536 168.664 116.616C167.932 116.231 167.305 115.711 166.807 115.223Z" fill="#3F3535"/>
<path d="M159.257 199.977C160.857 202.329 164.314 208.282 163.478 214.795C163.293 216.211 161.862 217.123 160.479 216.763L160.02 216.651L132.458 209.65C134.074 208.874 134.902 208.098 134.902 208.098L129.925 208.546L128.63 207.97C129.652 208.162 130.729 208.154 131.839 207.85L119.424 194.352C119.424 194.352 116.304 196.897 113.345 197.649C111.778 198.041 109.896 198.289 108.449 198.425C108.023 198.105 107.621 197.785 107.227 197.481L107.194 197.257L106.688 194.192C106.616 193.032 107.468 192.016 108.634 191.888C110.789 191.656 114.27 191.248 116.779 190.944C118.765 190.712 120.767 191.104 122.52 192.072L131.806 197.201C133.833 198.329 136.124 198.913 138.448 198.913H157.246C158.059 198.913 158.806 199.313 159.257 199.977Z" fill="#FFD4C7"/>
<path d="M161.283 194.697C162.143 194.697 162.834 195.393 162.834 196.249C162.834 197.106 162.143 197.794 161.283 197.794C160.422 197.794 159.723 197.106 159.723 196.249C159.723 195.393 160.422 194.697 161.283 194.697Z" fill="white"/>
<path d="M161.982 104.79C162.174 105.382 161.853 106.014 161.258 106.206C160.663 106.398 160.02 106.078 159.827 105.486C159.634 104.894 159.963 104.254 160.558 104.062C161.153 103.87 161.789 104.198 161.982 104.79Z" fill="black"/>
<path d="M129.926 208.547L134.903 208.099C134.903 208.099 134.075 208.875 132.459 209.651H132.434L129.926 208.547Z" fill="#FFD4C7"/>
<path d="M132.432 209.642H132.456C131.266 210.226 129.642 210.802 127.607 211.058C126.409 210.402 125.235 209.738 124.094 209.066L129.923 208.546L132.432 209.642Z" fill="#FFD4C7"/>
<path d="M119.424 194.353L131.839 207.85C130.729 208.154 129.652 208.162 128.631 207.97L124.434 206.13C122.6 204.89 121.25 203.426 120.679 202.954C120.261 202.61 118.411 202.498 116.168 202.506L110.62 200.073C109.864 199.513 109.141 198.961 108.449 198.425C109.897 198.289 111.778 198.041 113.346 197.649C116.305 196.897 119.424 194.353 119.424 194.353Z" fill="#FFD4C7"/>
<path d="M128.629 207.972L129.924 208.548L124.094 209.068C120.436 206.907 117.043 204.675 114.012 202.539C114.751 202.523 115.475 202.507 116.167 202.507L124.432 206.131C125.646 206.963 127.078 207.692 128.629 207.972Z" fill="#FFD4C7"/>
<path d="M124.434 206.13L128.631 207.97C127.079 207.69 125.648 206.962 124.434 206.13Z" fill="#FFD4C7"/>
<path d="M127.609 211.059C124.875 211.419 121.377 211.211 117.164 209.682L124.095 209.066C125.237 209.738 126.411 210.403 127.609 211.059Z" fill="#FFD4C7"/>
<path d="M124.434 206.132L116.168 202.507C118.411 202.499 120.261 202.611 120.679 202.955C121.25 203.427 122.6 204.892 124.434 206.132Z" fill="#FFD4C7"/>
<path d="M124.096 209.067L117.165 209.683C117.302 209.323 117.382 208.907 117.382 208.467C117.382 206.971 116.474 205.755 115.356 205.755C114.914 205.755 114.512 205.939 114.182 206.259C113.965 205.082 113.169 204.21 112.22 204.21C111.81 204.21 111.432 204.37 111.119 204.65V204.634C111.119 203.874 110.886 203.186 110.508 202.69C111.609 202.626 112.823 202.578 114.013 202.538C117.045 204.674 120.438 206.907 124.096 209.067Z" fill="#FFD4C7"/>
<path d="M117.381 208.466C117.381 208.906 117.3 209.322 117.164 209.682C116.834 210.579 116.142 211.187 115.354 211.187C114.406 211.187 113.61 210.314 113.393 209.138C113.907 208.642 114.245 207.834 114.245 206.922C114.245 206.69 114.221 206.466 114.181 206.258C114.51 205.938 114.912 205.754 115.354 205.754C116.472 205.754 117.381 206.97 117.381 208.466Z" fill="#FFD4C7"/>
<path d="M110.619 200.073L116.167 202.506C115.476 202.506 114.752 202.522 114.012 202.538C112.822 201.697 111.689 200.873 110.619 200.073Z" fill="#FFD4C7"/>
<path d="M114.181 206.258C114.221 206.466 114.245 206.69 114.245 206.922C114.245 207.834 113.907 208.642 113.392 209.138C113.352 208.922 113.328 208.698 113.328 208.466C113.328 207.554 113.666 206.746 114.181 206.258Z" fill="#FFD4C7"/>
<path d="M114.181 206.258C113.667 206.746 113.329 207.554 113.329 208.467C113.329 208.699 113.353 208.923 113.393 209.139C113.064 209.459 112.662 209.643 112.22 209.643C111.094 209.643 110.193 208.427 110.193 206.922C110.748 206.434 111.11 205.602 111.118 204.65C111.432 204.37 111.81 204.21 112.22 204.21C113.168 204.21 113.964 205.082 114.181 206.258Z" fill="#FFD4C7"/>
<path d="M110.619 200.074C111.688 200.874 112.822 201.698 114.012 202.539C112.822 202.579 111.608 202.627 110.506 202.691C110.153 202.21 109.638 201.914 109.091 201.914C108.544 201.914 108.038 202.21 107.676 202.683C107.25 202.539 106.888 202.266 106.631 201.914L106.985 198.954C107.113 198.842 107.258 198.746 107.419 198.666L110.611 200.074H110.619Z" fill="#FFD4C7"/>
<path d="M111.119 204.633V204.649C110.564 205.129 110.194 205.961 110.194 206.913C109.881 207.193 109.495 207.353 109.093 207.353C107.975 207.353 107.066 206.137 107.066 204.633C107.066 203.865 107.3 203.177 107.677 202.681C107.895 202.761 108.136 202.801 108.385 202.801C108.425 202.801 108.473 202.793 108.522 202.793C109.109 202.761 109.784 202.721 110.508 202.689C110.886 203.185 111.119 203.873 111.119 204.633Z" fill="#FFD4C7"/>
<path d="M110.193 206.916C110.193 205.964 110.563 205.131 111.119 204.651C111.11 205.603 110.748 206.436 110.193 206.916Z" fill="#FFD4C7"/>
<path d="M110.618 200.073L107.426 198.673C107.659 198.545 107.924 198.473 108.198 198.449C108.278 198.441 108.358 198.433 108.447 198.425C109.138 198.961 109.862 199.513 110.618 200.073Z" fill="#FFD4C7"/>
<path d="M109.091 201.913C109.638 201.913 110.152 202.209 110.506 202.69C109.782 202.722 109.107 202.762 108.52 202.794C108.472 202.794 108.424 202.802 108.383 202.802C108.134 202.802 107.893 202.762 107.676 202.682C108.038 202.209 108.544 201.913 109.091 201.913Z" fill="#FFD4C7"/>
<path d="M108.449 198.425C108.361 198.433 108.28 198.441 108.2 198.449C107.926 198.473 107.661 198.545 107.428 198.665L107.227 197.48C107.621 197.785 108.023 198.105 108.449 198.425Z" fill="#FFD4C7"/>
<path d="M107.196 197.25L107.171 197.435C107.091 197.37 107.01 197.306 106.938 197.25H107.196Z" fill="#FFD4C7"/>
<path d="M107.17 197.434L106.993 198.954C106.511 199.354 106.205 199.954 106.205 200.618C106.205 201.107 106.366 201.555 106.632 201.915H104.525C103.319 201.915 102.338 200.938 102.338 199.738V199.426C102.338 198.226 103.319 197.25 104.525 197.25H106.937C107.009 197.306 107.09 197.37 107.17 197.434Z" fill="#FFD4C7"/>
<path d="M106.993 198.954L106.639 201.914C106.374 201.554 106.213 201.106 106.213 200.618C106.213 199.954 106.519 199.354 107.001 198.954H106.993Z" fill="#FFD4C7"/>
<path d="M102.947 187.512C103.325 188.952 103.317 190.344 102.947 191.504L101.5 189.888C101.605 189.856 101.701 189.808 101.798 189.752C102.529 189.328 102.923 188.496 102.947 187.512Z" fill="#BCBCBC"/>
<path d="M102.233 184.928C102.732 185.784 102.965 186.696 102.949 187.512C102.74 186.704 102.402 185.888 101.944 185.096C101.486 184.304 100.939 183.608 100.336 183.023C101.06 183.407 101.735 184.064 102.233 184.928Z" fill="#B7B7B7"/>
<path d="M101.501 189.887L102.948 191.503C102.948 191.503 102.94 191.527 102.94 191.535C102.731 192.168 102.409 192.728 101.983 193.176C100.327 191.736 99.4102 190.879 99.4102 190.879L99.8283 189.863C100.407 190.063 100.986 190.079 101.501 189.887Z" fill="#BCBCBC"/>
<path d="M102.942 191.537C102.91 191.697 102.741 192.449 102.081 193.257C102.049 193.225 102.017 193.193 101.984 193.177C102.411 192.729 102.733 192.169 102.942 191.537Z" fill="#FFD4C7"/>
<path d="M101.945 185.095C102.403 185.888 102.741 186.704 102.95 187.512C102.926 188.496 102.532 189.328 101.8 189.752C101.703 189.808 101.607 189.856 101.502 189.888L96.7344 184.551C96.8711 183.823 97.2409 183.223 97.8198 182.887C98.5515 182.471 99.4762 182.551 100.337 183.023C100.94 183.607 101.486 184.303 101.945 185.095Z" fill="#E5E5E5"/>
<path d="M101.984 193.176C101.984 193.176 102.048 193.224 102.08 193.256C101.501 193.976 100.536 194.736 98.9444 195.136C97.3283 195.536 95.7925 194.848 94.5865 193.96C92.8256 192.656 91.8125 190.951 91.2095 188.847C90.9039 187.807 90.719 186.591 90.9039 185.399C91.3703 182.334 93.9191 181.406 93.9191 181.406C91.4828 182.806 91.1291 186.727 93.1231 190.159C95.1171 193.6 98.7032 195.248 101.139 193.848C101.453 193.664 101.743 193.44 101.984 193.176Z" fill="#606060"/>
<path d="M96.7329 184.55L101.501 189.886C100.986 190.079 100.407 190.063 99.8285 189.862C98.9118 189.55 97.9952 188.79 97.3761 187.718C96.757 186.646 96.5479 185.494 96.7329 184.55Z" fill="#E5E5E5"/>
<path d="M101.984 193.176C101.743 193.44 101.453 193.664 101.14 193.848C98.7034 195.248 95.1173 193.6 93.1233 190.159C91.1293 186.727 91.483 182.806 93.9193 181.406L96.7335 184.551C96.5485 185.495 96.7576 186.647 97.3767 187.719C97.9958 188.791 98.9125 189.551 99.8291 189.863L99.411 190.879C99.411 190.879 100.328 191.736 101.984 193.176Z" fill="#BCBCBC"/>
<path d="M100.336 183.024C99.4759 182.552 98.5512 182.472 97.8196 182.888C97.2406 183.224 96.8708 183.824 96.7341 184.552L93.9199 181.407C95.7934 180.327 98.3502 181.055 100.336 183.024Z" fill="#BCBCBC"/>
<path d="M190.381 143.121C190.871 143.081 191.354 142.921 191.788 142.681C193.774 141.585 197.577 139.113 198.558 135.944" stroke="black" stroke-width="0.75" stroke-linecap="round" stroke-linejoin="round"/>
<path d="M181.287 136.865C182.469 138.561 184.479 140.922 187.269 142.29" stroke="black" stroke-width="0.75" stroke-linecap="round" stroke-linejoin="round"/>
<path d="M179.043 123.574C182.613 129.967 181.206 133.271 180.434 134.392" stroke="black" stroke-width="0.75" stroke-linecap="round" stroke-linejoin="round"/>
<path d="M206.132 204.907L203.109 189.985C202.964 189.241 202.844 188.489 202.731 187.736M202.731 187.736C202.57 186.608 202.442 185.472 202.353 184.344L198.928 140.666L198.558 135.946L196.918 115.055C196.861 114.399 197.456 113.871 198.108 114.007L198.687 114.127C199.692 114.327 200.608 114.831 201.316 115.567L204.412 118.775L210.41 124.992C211.061 125.656 210.973 126.737 210.241 127.297L205.264 131.113C204.797 131.465 204.982 132.209 205.561 132.305L214.51 133.881C215.411 134.041 215.982 134.93 215.749 135.81L204.58 178.519C203.825 181.4 203.23 184.328 202.803 187.28L202.731 187.736ZM202.731 187.736V187.752" stroke="black" stroke-width="0.75" stroke-linecap="round" stroke-linejoin="round"/>
<path d="M218.925 273.595L213.803 246.527" stroke="black" stroke-width="0.75" stroke-linecap="round" stroke-linejoin="round"/>
<path d="M264.489 273.595L257.855 242.111" stroke="black" stroke-width="0.75" stroke-linecap="round" stroke-linejoin="round"/>
<path d="M221.072 155.708L226.668 170.854L228.847 176.767L234.773 192.793C235.786 195.537 235.754 198.554 234.685 201.274L234.371 202.074L230.64 211.579L228.308 217.508C227.697 219.068 228.373 220.829 229.868 221.597L232.441 222.909L242.789 228.174L246.89 230.262C248.675 231.166 250.854 230.278 251.481 228.382L253.909 221.077L258.661 206.787C259.457 204.395 259.988 201.946 260.253 199.474C260.832 194.249 260.237 188.928 258.476 183.904L239.726 130.409C237.676 124.568 232.313 120.52 226.105 120.136L204.412 118.775" stroke="black" stroke-width="0.75" stroke-linecap="round" stroke-linejoin="round"/>
<path d="M106.632 201.915H104.525C103.319 201.915 102.338 200.938 102.338 199.738V199.426C102.338 198.226 103.319 197.25 104.525 197.25H107.194" stroke="black" stroke-width="0.75" stroke-linecap="round" stroke-linejoin="round"/>
<path d="M114.181 206.258C114.51 205.938 114.912 205.754 115.354 205.754C116.472 205.754 117.381 206.97 117.381 208.466C117.381 208.906 117.3 209.322 117.164 209.682C116.834 210.579 116.142 211.187 115.354 211.187C114.406 211.187 113.61 210.314 113.393 209.138" stroke="black" stroke-width="0.75" stroke-linecap="round" stroke-linejoin="round"/>
<path d="M111.118 204.65C111.432 204.37 111.81 204.21 112.22 204.21C113.168 204.21 113.964 205.082 114.181 206.258C114.222 206.466 114.246 206.69 114.246 206.922C114.246 207.834 113.908 208.643 113.393 209.139C113.064 209.459 112.662 209.643 112.22 209.643C111.094 209.643 110.193 208.427 110.193 206.922" stroke="black" stroke-width="0.75" stroke-linecap="round" stroke-linejoin="round"/>
<path d="M110.194 206.921C109.881 207.193 109.495 207.353 109.093 207.353C107.975 207.353 107.066 206.137 107.066 204.633C107.066 203.865 107.3 203.177 107.677 202.681" stroke="black" stroke-width="0.75" stroke-linecap="round" stroke-linejoin="round"/>
<path d="M110.507 202.688C110.885 203.185 111.119 203.873 111.119 204.633V204.649C111.11 205.601 110.748 206.433 110.193 206.913" stroke="black" stroke-width="0.75" stroke-linecap="round" stroke-linejoin="round"/>
<path d="M177.798 134.353L177.54 135.177L174.742 144.178C174.445 145.154 175.096 146.17 176.109 146.306L179.551 146.762C180.057 146.826 180.306 147.41 180.009 147.818L176.423 152.835C176.069 153.331 176.013 153.987 176.286 154.531C178.264 158.452 186.16 174.222 187.696 179.158C187.696 179.174 187.696 179.182 187.696 179.198" stroke="black" stroke-width="0.75" stroke-linecap="round" stroke-linejoin="round"/>
<path d="M193.453 228.061C192.593 220.733 191.692 213.052 190.8 205.427C189.73 196.353 188.669 187.36 187.704 179.159C185.397 159.669 183.595 144.611 183.346 143.338C183.322 143.202 183.29 143.066 183.25 142.922C182.808 141.106 181.642 138.546 180.572 136.394" stroke="black" stroke-width="0.75" stroke-linecap="round" stroke-linejoin="round"/>
<path d="M198.888 273.593C198.317 269.273 196.066 250.278 193.461 228.06" stroke="black" stroke-width="0.75" stroke-linecap="round" stroke-linejoin="round"/>
<path d="M177.541 135.177L171.519 139.465C167.571 142.282 165.296 146.882 165.481 151.723L166.655 182.631C166.671 183.159 166.638 183.679 166.566 184.199C166.285 185.999 165.4 187.672 164.025 188.936L161.219 191.52L156.234 196.121C155.446 196.841 155.004 197.857 155.004 198.913" stroke="black" stroke-width="0.75" stroke-linecap="round" stroke-linejoin="round"/>
<path d="M160.02 216.652L162.898 220.005C163.372 220.557 163.959 220.973 164.595 221.245C166.106 221.877 167.899 221.685 169.25 220.621C169.314 220.573 169.371 220.525 169.427 220.477L173.415 217.012L179.124 212.052" stroke="black" stroke-width="0.75" stroke-linecap="round" stroke-linejoin="round"/>
<path d="M175.707 163.444C175.707 163.444 176.768 173.47 177.717 185.183C178.457 194.464 179.132 204.794 179.156 212.051C179.156 213.043 179.148 213.987 179.124 214.851C179.108 215.539 179.092 216.283 179.076 217.075C178.762 233.893 179.156 273.595 179.156 273.595" stroke="black" stroke-width="0.75" stroke-linecap="round" stroke-linejoin="round"/>
<path d="M107.428 198.665L107.227 197.481L107.194 197.257L106.688 194.192C106.616 193.032 107.468 192.016 108.634 191.888C110.789 191.656 114.27 191.248 116.779 190.944C118.765 190.712 120.767 191.104 122.52 192.072L131.806 197.201C133.833 198.329 136.124 198.913 138.448 198.913H157.246C158.059 198.913 158.806 199.313 159.257 199.977C160.857 202.329 164.314 208.282 163.478 214.795C163.293 216.211 161.862 217.123 160.479 216.763L160.02 216.651L132.458 209.65" stroke="black" stroke-width="0.75" stroke-linecap="round" stroke-linejoin="round"/>
<path d="M134.901 208.099C134.901 208.099 134.073 208.875 132.457 209.651C131.267 210.227 129.643 210.803 127.609 211.059C124.875 211.419 121.377 211.211 117.164 209.683" stroke="black" stroke-width="0.75" stroke-linecap="round" stroke-linejoin="round"/>
<path d="M193.453 228.06C193.702 228.1 199.242 228.916 204.887 228.068" stroke="black" stroke-width="0.75" stroke-linecap="round" stroke-linejoin="round"/>
<path d="M167.635 184.359C167.635 184.359 172.491 183.071 176.729 185.264" stroke="black" stroke-width="0.75" stroke-linecap="round" stroke-linejoin="round"/>
<path d="M161.902 192.257C161.902 192.257 172.492 196.457 172.677 216.164" stroke="black" stroke-width="0.75" stroke-linecap="round" stroke-linejoin="round"/>
<path d="M231.854 212.052L252.96 220.765" stroke="black" stroke-width="0.75" stroke-linecap="round" stroke-linejoin="round"/>
<path d="M236.879 193.784C236.879 193.784 243.448 187.487 254.439 188.559" stroke="black" stroke-width="0.75" stroke-linecap="round" stroke-linejoin="round"/>
<path d="M236.879 190.881C236.879 190.881 238.76 187.36 243.448 186.288" stroke="black" stroke-width="0.75" stroke-linecap="round" stroke-linejoin="round"/>
<path d="M226.226 122.352C226.226 122.352 219.191 128.352 220.397 137.954" stroke="black" stroke-width="0.75" stroke-linecap="round" stroke-linejoin="round"/>
<path d="M193.387 111.974C192.527 110.878 191.586 109.422 190.678 107.485" stroke="black" stroke-width="0.75" stroke-linecap="round" stroke-linejoin="round"/>
<path d="M196.918 115.055C196.918 115.055 195.342 114.439 193.396 111.982" stroke="black" stroke-width="0.75" stroke-linecap="round" stroke-linejoin="round"/>
<path d="M183.258 142.922C183.258 142.922 185.815 145.242 188.315 146.106" stroke="black" stroke-width="0.75" stroke-linecap="round" stroke-linejoin="round"/>
<path d="M192.721 145.611C192.721 145.611 196.17 144.283 198.735 140.683" stroke="black" stroke-width="0.75" stroke-linecap="round" stroke-linejoin="round"/>
<path d="M206.261 218.755L204.999 206.282C204.927 205.594 205.433 204.97 206.133 204.906L234.371 202.073" stroke="black" stroke-width="0.75" stroke-linecap="round" stroke-linejoin="round"/>
<path d="M219.545 245.952L213.804 246.528L210.379 246.872C209.687 246.944 209.068 246.44 208.996 245.744L207.701 232.95" stroke="black" stroke-width="0.75" stroke-linecap="round" stroke-linejoin="round"/>
<path d="M224.641 245.439L221.723 245.737" stroke="black" stroke-width="0.75" stroke-linecap="round" stroke-linejoin="round"/>
<path d="M260.26 199.475L265.607 198.938C266.306 198.866 266.925 199.371 266.998 200.067L270.994 239.528C271.058 240.216 270.551 240.84 269.86 240.904L257.856 242.112L239.531 243.952" stroke="black" stroke-width="0.75" stroke-linecap="round" stroke-linejoin="round"/>
<path d="M232.442 222.908L230.777 227.317C229.957 229.485 228.63 231.421 226.894 232.966L226.009 233.758C224.667 234.958 223.565 236.398 222.769 238.014L220.928 241.735L219.368 244.319C219.038 244.863 219.143 245.527 219.545 245.951C219.689 246.103 219.866 246.223 220.083 246.303C220.236 246.359 220.389 246.383 220.542 246.383C220.96 246.383 221.37 246.191 221.635 245.847L221.716 245.735H221.724L225.036 241.415C225.141 241.271 225.366 241.375 225.326 241.543L224.667 244.655C224.61 244.919 224.602 245.183 224.642 245.439C224.787 246.335 225.511 247.079 226.484 247.199C228.598 247.463 232.257 247.359 237.644 245.359C238.408 245.071 239.051 244.583 239.533 243.951C239.686 243.743 239.823 243.527 239.943 243.295C240.852 241.487 241.326 239.486 241.326 237.454V234.638C241.326 233.246 241.552 231.861 241.994 230.541L242.79 228.173" stroke="black" stroke-width="0.75" stroke-linecap="round" stroke-linejoin="round"/>
<path d="M206.26 218.756L207.659 218.612C208.342 218.548 208.945 219.036 209.018 219.716L210.224 231.462C210.296 232.134 209.798 232.742 209.122 232.806L207.699 232.95L206.654 233.062C205.979 233.126 205.367 232.638 205.295 231.958L204.893 228.069L204.089 220.212C204.017 219.54 204.515 218.932 205.191 218.868L206.26 218.756Z" stroke="black" stroke-width="0.75" stroke-linecap="round" stroke-linejoin="round"/>
<path d="M226.667 170.854L211.776 174.382C211.052 174.558 210.594 175.278 210.755 175.998L211.575 179.743C211.736 180.503 212.5 180.967 213.255 180.775L228.846 176.766" stroke="black" stroke-width="0.75" stroke-linecap="round" stroke-linejoin="round"/>
<path d="M209.469 196.249C209.469 197.106 208.77 197.794 207.909 197.794C207.049 197.794 206.357 197.106 206.357 196.249C206.357 195.393 207.057 194.697 207.909 194.697C208.762 194.697 209.469 195.393 209.469 196.249Z" stroke="black" stroke-width="0.75" stroke-linecap="round" stroke-linejoin="round"/>
<path d="M234 216.827C234 217.684 233.301 218.38 232.44 218.38C231.58 218.38 230.889 217.684 230.889 216.827C230.889 215.971 231.58 215.283 232.44 215.283C233.301 215.283 234 215.971 234 216.827Z" stroke="black" stroke-width="0.75" stroke-linecap="round" stroke-linejoin="round"/>
<path d="M162.834 196.249C162.834 197.106 162.143 197.794 161.283 197.794C160.422 197.794 159.723 197.106 159.723 196.249C159.723 195.393 160.422 194.697 161.283 194.697C162.143 194.697 162.834 195.393 162.834 196.249Z" stroke="black" stroke-width="0.75" stroke-linecap="round" stroke-linejoin="round"/>
<path d="M220.057 252.248C220.057 253.096 219.357 253.792 218.505 253.792C217.653 253.792 216.945 253.096 216.945 252.248C216.945 251.399 217.645 250.695 218.505 250.695C219.365 250.695 220.057 251.391 220.057 252.248Z" stroke="black" stroke-width="0.75" stroke-linecap="round" stroke-linejoin="round"/>
<path d="M223.274 270.93C223.274 271.786 222.574 272.474 221.714 272.474C220.854 272.474 220.162 271.786 220.162 270.93C220.162 270.074 220.854 269.378 221.714 269.378C222.574 269.378 223.274 270.074 223.274 270.93Z" stroke="black" stroke-width="0.75" stroke-linecap="round" stroke-linejoin="round"/>
<path d="M185.043 197.097H188.524" stroke="black" stroke-width="0.75" stroke-linecap="round" stroke-linejoin="round"/>
<path d="M187.453 226.838H190.935" stroke="black" stroke-width="0.75" stroke-linecap="round" stroke-linejoin="round"/>
<path d="M189.971 249.104H193.452" stroke="black" stroke-width="0.75" stroke-linecap="round" stroke-linejoin="round"/>
<path d="M193.453 270.931H196.935" stroke="black" stroke-width="0.75" stroke-linecap="round" stroke-linejoin="round"/>
<path d="M167.523 122.079C165.698 123.495 164.283 123.511 163.391 123.255C162.667 123.047 161.903 123.071 161.22 123.383C159.788 124.04 158.285 123.92 157.424 123.76C157.143 123.704 157.063 123.367 157.272 123.167C158.896 121.615 158.052 118.111 155.495 115.062C152.681 111.702 151.973 110.726 151.973 105.197C151.973 99.6684 147.856 100.22 147.551 94.2197C147.35 90.0671 149.786 88.0669 151.314 87.2348C151.997 86.8587 152.399 86.1306 152.399 85.3545C152.415 82.6822 153.268 76.9134 160.319 75.6173C169.566 73.921 166.277 69.4805 173.988 69.4805C179.045 69.4805 180.131 72.2168 184.658 73.313C189.176 74.4171 194.475 74.2171 196.501 80.5139C198.527 86.8187 198.56 88.0189 202.13 91.1233C207.613 95.8759 203.135 99.5244 202.837 103.525C202.612 106.421 205.828 107.061 207.613 107.197C208.088 107.229 208.297 107.797 207.967 108.133C206.729 109.39 204.14 111.438 200.763 110.942C199.758 110.798 198.72 111.07 198.045 111.822C197.209 112.766 195.874 113.398 193.398 111.982C193.398 111.974 193.39 111.974 193.39 111.974" stroke="black" stroke-width="0.75" stroke-linecap="round" stroke-linejoin="round"/>
<path d="M168.439 122.582L168.391 122.558C168.094 122.406 167.804 122.245 167.523 122.077C162.69 119.229 160.109 114.3 158.759 109.836C157.906 107.044 156.556 104.243 155.615 102.443C154.537 100.395 153.701 98.2264 153.235 95.9621C152.704 93.3697 152.503 90.3773 153.975 89.0892C154.32 88.7851 154.626 88.4491 154.843 88.041C155.47 86.8729 157.03 84.7926 159.514 86.8169C162.827 89.5212 162.425 93.8178 166.952 93.6178C171.479 93.4177 172.781 90.6174 175.997 94.3219C178.104 96.7382 180.894 96.0021 182.566 95.194C183.322 94.8339 183.941 94.2098 184.263 93.4337C184.641 92.5056 185.598 91.2655 187.905 91.7535C191.178 92.4416 191.491 96.4581 190.205 99.6425C190.036 100.067 189.795 100.467 189.489 100.827" stroke="black" stroke-width="0.75" stroke-linecap="round" stroke-linejoin="round"/>
<path d="M189.61 111.51C188.999 113.654 187.93 115.678 186.41 117.423C183.926 120.271 181.127 122.271 179.342 123.391C179.246 123.455 179.141 123.511 179.037 123.567C177.871 124.223 176.512 124.519 175.169 124.407C173.368 124.263 171.752 123.903 170.297 123.375" stroke="black" stroke-width="0.75" stroke-linecap="round" stroke-linejoin="round"/>
<path d="M187.808 93.5234C187.808 93.5234 186.289 94.1875 186.08 96.1718C186.007 96.8679 186.096 97.732 186.474 98.7801" stroke="black" stroke-width="0.75" stroke-linecap="round" stroke-linejoin="round"/>
<path d="M187.253 95.995C186.939 95.9308 186.545 95.9549 186.078 96.1716" stroke="black" stroke-width="0.75" stroke-linecap="round" stroke-linejoin="round"/>
<path d="M173.584 96.2518C173.584 96.2518 169.13 94.9316 167.312 97.964" stroke="black" stroke-width="0.75" stroke-linecap="round" stroke-linejoin="round"/>
<path d="M160.768 100.252C160.768 100.252 158.316 99.2274 156.676 102.228" stroke="black" stroke-width="0.75" stroke-linecap="round" stroke-linejoin="round"/>
<path d="M163.84 102.869C163.84 102.869 164.419 103.509 164.949 104.565C165.359 105.365 165.255 106.31 164.813 107.094C164.58 107.518 164.451 108.094 164.74 108.822C165.4 110.486 167.313 109.854 167.313 109.854" stroke="black" stroke-width="0.75" stroke-linecap="round" stroke-linejoin="round"/>
<path d="M168.664 116.615C167.932 116.231 167.305 115.711 166.807 115.223C166.549 114.975 166.332 114.735 166.155 114.526C165.89 114.222 166.075 113.75 166.477 113.694C168.141 113.486 171.784 112.702 175.056 109.734C175.338 109.478 175.796 109.622 175.884 109.99C175.949 110.254 176.005 110.566 176.045 110.918C176.278 112.742 176.005 115.527 172.765 116.895C171.229 117.543 169.822 117.239 168.664 116.623" stroke="black" stroke-width="0.75" stroke-linecap="round" stroke-linejoin="round"/>
<path d="M166.807 115.223C166.807 115.223 168.27 115.151 170.272 114.446C171.985 113.846 174.099 112.79 176.045 110.918H176.053" stroke="black" stroke-width="0.75" stroke-linecap="round" stroke-linejoin="round"/>
<path d="M168.664 116.624C168.639 116.536 168.897 115.599 170.273 114.447" stroke="black" stroke-width="0.75" stroke-linecap="round" stroke-linejoin="round"/>
<path d="M168.623 78.3693C168.623 78.3693 175.594 73.7047 178.939 79.3694C182.292 85.0422 183.9 85.5702 189.464 84.8421" stroke="black" stroke-width="0.75" stroke-linecap="round" stroke-linejoin="round"/>
<path d="M156.949 82.3218C156.949 82.3218 163.711 79.0653 166.035 83.5219C168.359 87.9705 172.934 86.7223 175.499 86.5143" stroke="black" stroke-width="0.75" stroke-linecap="round" stroke-linejoin="round"/>
<path d="M194.893 91.5557C194.893 91.5557 199.178 94.5561 197.642 99.6847C196.099 104.821 199.379 106.822 199.379 106.822" stroke="black" stroke-width="0.75" stroke-linecap="round" stroke-linejoin="round"/>
<path d="M188.902 139.13C188.902 139.13 188.935 139.082 188.951 139.058C189.811 137.41 193.855 128.2 190.679 107.486C190.366 105.389 189.964 103.165 189.489 100.829C189.441 100.589 189.385 100.341 189.337 100.093" stroke="black" stroke-width="0.75" stroke-linecap="round" stroke-linejoin="round"/>
<path d="M168.391 122.559H168.399C168.503 122.823 171.092 128.927 177.798 134.352C178.658 135.056 179.575 135.744 180.572 136.392C180.805 136.56 181.046 136.712 181.288 136.864C182.96 137.921 184.825 138.897 186.9 139.753" stroke="black" stroke-width="0.75" stroke-linecap="round" stroke-linejoin="round"/>
<path d="M187.728 100.244C187.824 100.708 187.937 101.244 188.057 101.828C188.548 104.269 189.151 107.677 189.609 111.51C190.622 120.031 190.904 130.648 187.519 137.369C187.334 137.721 186.924 137.881 186.546 137.761C185.493 137.409 183.265 136.505 180.435 134.393C177.565 132.264 174.075 128.896 170.577 123.631C170.513 123.527 170.417 123.431 170.296 123.375C170.28 123.359 170.256 123.343 170.232 123.335L168.439 122.583L168.398 122.567" stroke="black" stroke-width="0.75" stroke-linecap="round" stroke-linejoin="round"/>
<path d="M187.253 95.996C187.414 95.884 187.599 95.804 187.8 95.764C188.813 95.572 189.842 96.4361 190.092 97.7162C190.285 98.7004 189.963 99.6285 189.336 100.093C189.151 100.237 188.942 100.333 188.709 100.373C188.371 100.437 188.033 100.389 187.728 100.245C187.101 99.9485 186.594 99.2764 186.425 98.4283C186.224 97.4042 186.578 96.4361 187.253 95.996Z" stroke="black" stroke-width="0.75" stroke-linecap="round" stroke-linejoin="round"/>
<path d="M114.012 202.539C117.043 204.675 120.436 206.907 124.094 209.068C125.236 209.74 126.41 210.404 127.608 211.06C138.833 217.213 152.059 222.157 164.594 221.245C166.162 221.133 167.714 220.925 169.25 220.621C171.582 220.157 173.873 219.469 176.108 218.517C177.146 218.077 178.135 217.597 179.075 217.077C184.39 214.164 188.161 210.1 190.798 205.427C200.608 188.009 194.513 162.021 192.471 154.645" stroke="black" stroke-width="2" stroke-linecap="round" stroke-linejoin="round"/>
<path d="M102.08 193.256C103.318 194.312 104.959 195.688 106.937 197.248C107.009 197.304 107.089 197.368 107.17 197.432C107.186 197.448 107.202 197.456 107.226 197.48C107.62 197.784 108.022 198.104 108.448 198.425" stroke="black" stroke-width="2" stroke-linecap="round" stroke-linejoin="round"/>
<path d="M119.424 194.353C119.424 194.353 116.304 196.897 113.345 197.649C111.777 198.041 109.896 198.289 108.448 198.425C108.36 198.433 108.28 198.441 108.199 198.449C107.926 198.473 107.66 198.545 107.427 198.665C107.266 198.745 107.122 198.841 106.993 198.953C106.511 199.353 106.205 199.953 106.205 200.617C106.205 201.105 106.366 201.553 106.631 201.914C106.889 202.266 107.25 202.538 107.676 202.682C107.894 202.762 108.135 202.802 108.384 202.802C108.424 202.802 108.472 202.794 108.521 202.794C109.108 202.762 109.783 202.722 110.507 202.69C111.608 202.626 112.822 202.578 114.012 202.538C114.752 202.522 115.476 202.506 116.167 202.506C118.411 202.498 120.26 202.61 120.678 202.954C121.249 203.426 122.6 204.89 124.433 206.13C125.647 206.962 127.078 207.69 128.63 207.97C129.651 208.162 130.729 208.154 131.838 207.85" stroke="black" stroke-width="0.75" stroke-linecap="round" stroke-linejoin="round"/>
<path d="M93.9191 181.406C93.9191 181.406 91.3703 182.334 90.9039 185.399C90.719 186.591 90.9039 187.807 91.2095 188.847C91.8125 190.951 92.8256 192.656 94.5865 193.96C95.7925 194.848 97.3283 195.536 98.9444 195.136C100.536 194.736 101.501 193.976 102.08 193.256C102.74 192.448 102.908 191.696 102.941 191.536" stroke="black" stroke-width="0.75" stroke-linecap="round" stroke-linejoin="round"/>
<path d="M102.949 187.512C103.327 188.952 103.319 190.345 102.949 191.505C102.941 191.513 102.941 191.529 102.941 191.537C102.732 192.169 102.41 192.729 101.984 193.177C101.743 193.441 101.453 193.665 101.14 193.849C98.7034 195.249 95.1173 193.601 93.1233 190.161C91.1293 186.728 91.483 182.808 93.9193 181.407C95.7927 180.327 98.3496 181.055 100.336 183.024" stroke="black" stroke-width="0.68" stroke-linecap="round" stroke-linejoin="round"/>
<path d="M100.335 183.023C101.059 183.407 101.734 184.063 102.233 184.927C102.731 185.784 102.964 186.696 102.948 187.512C102.924 188.496 102.53 189.328 101.798 189.752C101.702 189.808 101.605 189.856 101.501 189.888C100.986 190.08 100.407 190.064 99.8285 189.864C98.9118 189.552 97.9952 188.792 97.3761 187.72C96.757 186.648 96.5479 185.495 96.7329 184.551C96.8696 183.823 97.2394 183.223 97.8183 182.887C98.55 182.471 99.4747 182.551 100.335 183.023Z" stroke="black" stroke-width="0.75" stroke-linecap="round" stroke-linejoin="round"/>
<path d="M192.472 154.643C192.375 154.707 192.263 154.755 192.142 154.787C191.402 154.987 190.63 154.555 190.429 153.819L188.315 146.106L187.269 142.29L186.827 140.665C186.739 140.353 186.771 140.025 186.9 139.753C187.06 139.377 187.382 139.073 187.808 138.961C187.929 138.929 188.049 138.913 188.17 138.913C188.435 138.913 188.685 138.985 188.902 139.129C189.191 139.305 189.416 139.585 189.513 139.937L190.381 143.122L191.177 146.026L191.225 146.202L193.115 153.091C193.284 153.707 193.002 154.339 192.472 154.643Z" stroke="black" stroke-width="0.75" stroke-linecap="round" stroke-linejoin="round"/>
<path d="M189.509 139.921C189.307 139.184 188.542 138.749 187.801 138.95C187.06 139.151 186.623 139.911 186.825 140.649L190.426 153.803C190.628 154.541 191.393 154.976 192.134 154.775C192.875 154.574 193.312 153.813 193.11 153.076L189.509 139.921Z" fill="#939393" stroke="black" stroke-width="0.75" stroke-miterlimit="10"/>
<path d="M119.423 194.354C119.423 194.354 116.304 196.906 113.345 197.65C111.696 198.066 109.67 198.314 108.199 198.45C107.073 198.554 106.213 199.49 106.213 200.618C106.213 201.874 107.266 202.867 108.529 202.795C112.388 202.563 119.801 202.211 120.686 202.947C121.892 203.947 126.515 209.299 131.846 207.843" fill="#FFD4C7"/>
<path d="M119.423 194.354C119.423 194.354 116.304 196.906 113.345 197.65C111.696 198.066 109.67 198.314 108.199 198.45C107.073 198.554 106.213 199.49 106.213 200.618C106.213 201.874 107.266 202.867 108.529 202.795C112.388 202.563 119.801 202.211 120.686 202.947C121.892 203.947 126.515 209.299 131.846 207.843" stroke="black" stroke-width="0.75" stroke-linecap="round" stroke-linejoin="round"/>
<path d="M164.585 94.7705C164.585 94.7705 161.417 94.3224 160.114 90.2179C158.812 86.1133 155.966 86.7294 154.84 88.0416" fill="#FFD4C7"/>
<path d="M164.585 94.7705C164.585 94.7705 161.417 94.3224 160.114 90.2179C158.812 86.1133 155.966 86.7294 154.84 88.0416" stroke="black" stroke-width="0.75" stroke-linecap="round" stroke-linejoin="round"/>
<path d="M162.583 111.942C163.81 111.425 164.494 110.278 164.112 109.378C163.73 108.479 162.425 108.168 161.198 108.685C159.971 109.201 159.287 110.349 159.669 111.249C160.051 112.148 161.356 112.458 162.583 111.942Z" fill="#F4A9A2"/>
<path d="M175.634 107.164C177.31 106.458 178.245 104.886 177.721 103.653C177.196 102.42 175.412 101.993 173.735 102.698C172.059 103.404 171.124 104.976 171.648 106.209C172.173 107.442 173.957 107.87 175.634 107.164Z" fill="#F4A9A2"/>
<path d="M170.576 118.574C170.576 118.574 171.75 119.912 174.098 118.574" stroke="black" stroke-width="0.75" stroke-linecap="round" stroke-linejoin="round"/>
<path d="M111.945 195.255C111.945 195.255 112.211 196.487 112.211 197.903L111.945 195.255Z" fill="white"/>
<path d="M111.945 195.255C111.945 195.255 112.211 196.487 112.211 197.903" stroke="#251E1C" stroke-width="0.75" stroke-linecap="round" stroke-linejoin="round"/>
</svg>
